<?xml version="1.0" encoding="UTF-8" standalone="no"?>
<svg
   viewBox="0 0 35.975548 36"
   id="svg2"
   width="35.975548"
   height="36"
   xmlns="http://www.w3.org/2000/svg"
   xmlns:svg="http://www.w3.org/2000/svg">
  <path
     d="m 19.792774,0.25 -0.74,9.12 c -0.35,-0.04 -0.7,-0.06 -1.06,-0.06 -0.45,0 -0.89,0.03 -1.32,0.1 l -0.42,-4.42 c -0.01,-0.14 0.1,-0.26 0.24,-0.26 h 0.75 l -0.36,-4.47 c -0.01,-0.14 0.1,-0.26 0.23,-0.26 h 2.45 c 0.14,0 0.25,0.12 0.23,0.26 v 0 z m -6.18,0.45 c -0.04,-0.13 -0.18,-0.21 -0.31,-0.16 l -2.3,0.84 c -0.13,0.05 -0.19,0.2 -0.13,0.32 l 1.87,4.08 -0.71,0.26 c -0.13,0.05 -0.19,0.2 -0.13,0.32 l 1.91,4.01 c 0.69,-0.38 1.44,-0.67 2.23,-0.85 l -2.42,-8.82 z M 7.9727741,3.24 13.262774,10.7 c -0.67,0.44 -1.28,0.96 -1.8,1.56 L 8.2927741,9.14 c -0.1,-0.1 -0.09,-0.26 0.01,-0.35 l 0.58,-0.48 -3.15,-3.19 c -0.1,-0.1 -0.09,-0.26 0.02,-0.35 l 1.87,-1.57 c 0.11,-0.09 0.26,-0.07 0.34,0.04 z m -4.44,4.32 c -0.11,-0.08 -0.27,-0.04 -0.34,0.08 l -1.22,2.12 c -0.07,0.12 -0.02,0.27 0.1,0.33 l 4.06,1.92 -0.38,0.65 c -0.07,0.12 -0.02,0.28 0.11,0.33 l 4.04,1.85 c 0.2899999,-0.75 0.6799999,-1.45 1.1599999,-2.08 z m -2.98999998,5.76 c 0.02,-0.14 0.16,-0.22 0.29,-0.19 l 8.84999998,2.31 c -0.23,0.75 -0.36,1.54 -0.38,2.36 l -4.43,-0.36 c -0.14,-0.01 -0.24,-0.14 -0.21,-0.28 l 0.13,-0.74 L 0.32277412,16 c -0.14,-0.01 -0.23,-0.14 -0.21,-0.28 l 0.42,-2.41 v 0 z m -0.33,5.98 c -0.14,0.01 -0.23,0.14 -0.21,0.28 l 0.43,2.41 c 0.02,0.14 0.16,0.22 0.29,0.19 l 4.33999998,-1.13 0.13,0.74 c 0.02,0.14 0.16,0.22 0.29,0.19 l 4.28,-1.18 c -0.25,-0.74 -0.41,-1.53 -0.45,-2.34 L 0.20277412,19.3 Z m 1.41999998,6.34 c -0.07,-0.12 -0.02,-0.27 0.1,-0.33 l 8.26,-3.92 c 0.3099999,0.74 0.7299999,1.43 1.2299999,2.05 l -3.6199999,2.58 c -0.11,0.08 -0.27,0.05 -0.34,-0.07 l -0.38,-0.66 -3.69,2.55 c -0.11,0.08 -0.27,0.04 -0.34,-0.08 l -1.23,-2.12 z M 11.642774,23.92 5.2127741,30.43 c -0.1,0.1 -0.09,0.26 0.02,0.35 l 1.88,1.57 c 0.11,0.09 0.26,0.07 0.34,-0.04 l 2.5999999,-3.66 0.58,0.49 c 0.11,0.09 0.27,0.07 0.35,-0.05 l 2.52,-3.66 c -0.68,-0.42 -1.31,-0.93 -1.85,-1.51 z m -1.27,10.45 c -0.13,-0.05 -0.19,-0.2 -0.13,-0.32 l 3.81,-8.32 c 0.7,0.36 1.46,0.63 2.25,0.78 l -1.12,4.3 c -0.03,0.13 -0.18,0.21 -0.31,0.16 l -0.71,-0.26 -1.19,4.33 c -0.04,0.13 -0.18,0.21 -0.31,0.16 l -2.3,-0.84 v 0 z m 6.56,-7.75 -0.74,9.12 c -0.01,0.14 0.1,0.26 0.23,0.26 h 2.45 c 0.14,0 0.25,-0.12 0.23,-0.26 l -0.36,-4.47 h 0.75 c 0.14,0 0.25,-0.12 0.24,-0.26 l -0.42,-4.42 c -0.43,0.07 -0.87,0.1 -1.32,0.1 -0.36,0 -0.71,-0.02 -1.06,-0.07 z m 8.82,-24.69 c 0.06,-0.13 0,-0.27 -0.13,-0.32 l -2.3,-0.84 c -0.13,-0.05 -0.27,0.03 -0.31,0.16 l -1.19,4.33 -0.71,-0.26 c -0.13,-0.05 -0.27,0.03 -0.31,0.16 l -1.12,4.3 c 0.8,0.16 1.55,0.43 2.25,0.78 z m 5.02,3.63 -6.43,6.51 c -0.54,-0.58 -1.16,-1.09 -1.85,-1.51 l 2.52,-3.66 c 0.08,-0.11 0.24,-0.14 0.35,-0.05 l 0.58,0.49 2.6,-3.66 c 0.08,-0.11 0.24,-0.13 0.34,-0.04 l 1.88,1.57 c 0.11,0.09 0.11,0.25 0.02,0.35 z m 3.48,5.12 c 0.13,-0.06 0.17,-0.21 0.1,-0.33 l -1.23,-2.12 c -0.07,-0.12 -0.23,-0.15 -0.34,-0.08 l -3.69,2.55 -0.38,-0.65 c -0.07,-0.12 -0.23,-0.16 -0.34,-0.07 l -3.62,2.58 c 0.5,0.62 0.91,1.31 1.23,2.05 l 8.26,-3.92 z m 1.3,3.32 0.42,2.41 c 0.02,0.14 -0.07,0.26 -0.21,0.28 l -9.11,0.85 c -0.04,-0.82 -0.2,-1.6 -0.45,-2.34 l 4.28,-1.18 c 0.13,-0.04 0.27,0.05 0.29,0.19 l 0.13,0.74 4.34,-1.13 c 0.13,-0.03 0.27,0.05 0.29,0.19 v 0 z m -0.41,8.85 c 0.13,0.03 0.27,-0.05 0.29,-0.19 l 0.42,-2.41 c 0.02,-0.14 -0.07,-0.26 -0.21,-0.28 l -4.47,-0.42 0.13,-0.74 c 0.02,-0.14 -0.07,-0.26 -0.21,-0.28 l -4.43,-0.36 c -0.02,0.82 -0.15,1.61 -0.38,2.36 l 8.85,2.31 v 0 z m -2.36,5.5 c -0.07,0.12 -0.23,0.15 -0.34,0.08 l -7.53,-5.2 c 0.48,-0.63 0.87,-1.33 1.16,-2.08 l 4.04,1.85 c 0.13,0.06 0.18,0.21 0.11,0.33 l -0.38,0.65 4.06,1.92 c 0.12,0.06 0.17,0.21 0.1,0.33 z m -10.07,-3.07 5.29,7.46 c 0.08,0.11 0.24,0.13 0.34,0.04 l 1.87,-1.57 c 0.11,-0.09 0.11,-0.25 0.02,-0.35 l -3.15,-3.19 0.58,-0.48 c 0.11,-0.09 0.11,-0.25 0.01,-0.35 l -3.17,-3.12 c -0.53,0.6 -1.13,1.13 -1.8,1.56 v 0 z m -0.05,10.16 c -0.13,0.05 -0.27,-0.03 -0.31,-0.16 l -2.42,-8.82 c 0.79,-0.18 1.54,-0.47 2.23,-0.85 l 1.91,4.01 c 0.06,0.13 0,0.28 -0.13,0.32 l -0.71,0.26 1.87,4.08 c 0.06,0.13 0,0.27 -0.13,0.32 l -2.3,0.84 v 0 z"
     fill="#191919"
     fill-rule="evenodd"
     id="path2" />
</svg>
