<svg width="330" height="81" viewBox="0 0 330 81" fill="none" xmlns="http://www.w3.org/2000/svg">
<mask id="mask0_4_6" style="mask-type:luminance" maskUnits="userSpaceOnUse" x="0" y="0" width="330" height="81">
<path d="M330 0H0V81H330V0Z" fill="white"/>
</mask>
<g mask="url(#mask0_4_6)">
<path d="M111.96 80H127.38V73.88H123.78V55.46H135.24V73.88H131.64V80H147V73.88H141.48V49.34H123.78V46.88C123.78 44.24 126.12 43.28 128.88 43.28C131.22 43.28 133.41 43.46 135.24 43.67C135.99 44.54 137.07 45.08 138.3 45.08C140.64 45.08 142.44 43.22 142.44 40.94C142.44 38.66 140.64 36.86 138.3 36.86C136.92 36.86 135.72 37.52 134.97 38.54C132.45 37.82 130.35 37.28 127.38 37.28C122.7 37.28 117.54 38.72 117.54 45.56V49.34H111.96V55.46H117.54V73.88H111.96V80ZM145.033 80H166.993V73.94H158.413V64.04C158.413 58.46 161.353 54.98 168.913 54.98V61.58H175.633V50.24C174.073 49.4 171.673 48.62 168.613 48.62C163.513 48.62 159.463 50.99 157.933 54.26V49.34H145.033V55.4H151.513V73.94H145.033V80ZM192.085 80.72C196.825 80.72 200.485 78.8 203.065 75.98L198.925 71.6C197.005 73.7 194.845 74.6 192.145 74.6C187.885 74.6 185.125 71.81 184.345 67.34H205.165C205.405 65.78 205.405 64.22 205.405 63.14C205.405 53.18 199.465 48.62 192.085 48.62C183.145 48.62 177.445 54.68 177.445 64.64C177.445 74.36 182.965 80.72 192.085 80.72ZM192.085 54.68C195.265 54.68 198.205 56.72 198.625 61.46H184.345C185.065 57.2 187.465 54.68 192.085 54.68ZM209.798 80H234.938V73.82H218.618L234.998 54.44V49.34H210.938V55.52H226.178L209.798 74.78V80ZM253.371 80.72C262.491 80.72 268.071 74.54 268.071 64.7C268.071 54.86 262.491 48.62 253.371 48.62C244.311 48.62 238.671 54.92 238.671 64.7C238.671 74.6 244.311 80.72 253.371 80.72ZM253.371 74.12C248.391 74.12 245.631 70.4 245.631 64.7C245.631 58.94 248.391 55.16 253.371 55.16C258.471 55.16 261.111 59 261.111 64.7C261.111 70.4 258.411 74.12 253.371 74.12ZM270.903 80H277.803V62.6C277.803 56.9 280.923 55.16 284.583 55.16C288.063 55.16 290.943 57.08 290.943 62.72V80H297.843V61.28C297.843 51.86 292.623 48.62 286.503 48.62C282.633 48.62 279.333 50.33 277.803 52.28V49.34H270.903V80ZM315.976 80.72C320.716 80.72 324.376 78.8 326.956 75.98L322.816 71.6C320.896 73.7 318.736 74.6 316.036 74.6C311.776 74.6 309.016 71.81 308.236 67.34H329.056C329.296 65.78 329.296 64.22 329.296 63.14C329.296 53.18 323.356 48.62 315.976 48.62C307.036 48.62 301.336 54.68 301.336 64.64C301.336 74.36 306.856 80.72 315.976 80.72ZM315.976 54.68C319.156 54.68 322.096 56.72 322.516 61.46H308.236C308.956 57.2 311.356 54.68 315.976 54.68Z" fill="#281303"/>
<path fill-rule="evenodd" clip-rule="evenodd" d="M69 1C86.8028 17.5403 68.3724 54.1983 74.8761 69C61.5114 47.6075 79.7204 29.223 69 1Z" fill="#FF7300"/>
<path fill-rule="evenodd" clip-rule="evenodd" d="M79.1441 32C92.1838 40.491 76.5312 60.3863 84.864 65.4789C93.3029 70.6367 92.3479 49.2015 104 54.7001C91.868 50.5637 96.9009 76.0839 81.868 72.6878C64.665 68.801 86.0596 41.3782 79.1441 32Z" fill="#7F3900"/>
<path fill-rule="evenodd" clip-rule="evenodd" d="M5 61.2584C29.3473 42.1074 62.5112 72.8395 78.1611 74.7601C98.2875 77.229 92.9264 54.2552 103 55.1115C93.7178 56.2165 99.2893 80.2434 78.5362 80.9858C55.9358 81.7945 33.387 47.7756 5 61.2584Z" fill="#331700"/>
</g>
</svg>
