<svg width="228" height="184" viewBox="0 0 228 184" fill="none" xmlns="http://www.w3.org/2000/svg">
<path fill-rule="evenodd" clip-rule="evenodd" d="M145.858 0C190.958 37.5635 144.268 120.815 160.744 154.43C126.887 105.847 173.016 64.0952 145.858 0Z" fill="#EF7A30"/>
<path fill-rule="evenodd" clip-rule="evenodd" d="M170.867 72.3025C200.346 91.4569 164.96 136.337 183.798 147.825C202.876 159.46 200.717 111.106 227.059 123.51C199.632 114.179 211.01 171.748 177.025 164.087C138.134 155.319 186.501 93.4581 170.867 72.3025Z" fill="#7F3900"/>
<path fill-rule="evenodd" clip-rule="evenodd" d="M0 137.888C56.1454 93.1552 132.622 164.939 168.711 169.425C215.123 175.192 202.76 121.53 225.99 123.53C204.585 126.111 217.433 182.233 169.576 183.967C117.459 185.856 65.4612 106.395 9.60305e-05 137.888H0Z" fill="#331700"/>
</svg>
