<svg width="256" height="256" viewBox="0 0 256 256" fill="none" xmlns="http://www.w3.org/2000/svg">
<path fill-rule="evenodd" clip-rule="evenodd" d="M164 24C217.408 66.0806 162.118 159.343 181.629 197C141.535 142.575 196.161 95.8027 164 24Z" fill="#C25700"/>
<path fill-rule="evenodd" clip-rule="evenodd" d="M192.574 106C225.849 127.538 185.907 178.004 207.17 190.922C228.704 204.005 226.267 149.633 256 163.581C225.042 153.088 237.884 217.823 199.526 209.208C155.628 199.349 210.221 129.789 192.574 106Z" fill="#C25700"/>
<path fill-rule="evenodd" clip-rule="evenodd" d="M0 179.368C63.3527 129.281 149.647 209.658 190.369 214.68C242.738 221.138 228.788 161.052 255 163.291C230.847 166.181 245.345 229.021 191.345 230.963C132.537 233.078 73.8644 144.105 0.000108358 179.368H0Z" fill="#C25700"/>
</svg>
