<svg width="256" height="256" viewBox="0 0 256 256" fill="none" xmlns="http://www.w3.org/2000/svg">
<circle cx="128" cy="128" r="126.5" fill="#FCFCFC" stroke="#1B140E" stroke-width="3"/>
<path fill-rule="evenodd" clip-rule="evenodd" d="M156.973 32C198.088 67.1136 155.524 144.936 170.544 176.358C139.678 130.943 181.732 91.915 156.973 32Z" fill="#EF7A30"/>
<path fill-rule="evenodd" clip-rule="evenodd" d="M179.772 99.5871C206.647 117.492 174.387 159.445 191.561 170.184C208.953 181.06 206.985 135.86 231 147.455C205.996 138.732 216.368 192.547 185.386 185.385C149.93 177.19 194.024 119.363 179.772 99.5871Z" fill="#8D1E00"/>
<path fill-rule="evenodd" clip-rule="evenodd" d="M24 160.896C75.1854 119.08 144.906 186.182 177.807 190.375C220.118 195.767 208.848 145.605 230.025 147.474C210.511 149.886 222.225 202.348 178.596 203.969C131.082 205.735 83.6781 131.456 24 160.896Z" fill="#331700"/>
</svg>
