<?xml version="1.0" encoding="UTF-8"?>
<svg width="1361px" height="346px" viewBox="0 0 1361 346" version="1.1" xmlns="http://www.w3.org/2000/svg" xmlns:xlink="http://www.w3.org/1999/xlink">
    <title>CloudFire logo</title>
    <desc></desc>
    <defs></defs>
    <g id="Page-1" stroke="none" stroke-width="1" fill="none" fill-rule="evenodd">
        <g id="noun_extinguisher_2253371" transform="translate(41.000000, 0.000000)" fill="#000000">
            <path d="M729.305286,118.111219 L752.001448,118.111219 C750.928918,119.016403 749.94361,120.020513 749.058504,121.110319 C744.072892,126.959498 741.204317,135.212924 737.882504,144.733051 C737.104936,146.960954 736.300925,149.280756 735.432048,151.669274 C735.425162,151.688591 735.061029,152.785847 734.339651,154.96104 C733.965611,156.083391 734.217604,157.320416 735.000704,158.206141 C735.783805,159.091865 736.979042,159.491727 738.136182,159.255102 C739.293321,159.018476 740.236566,158.181312 740.610605,157.058962 L741.658794,153.909182 C742.536761,151.494999 743.342837,149.122625 744.122472,146.887684 C750.583067,128.372324 754.141621,118.111219 773.456888,118.111219 L776.15772,118.111219 L776.15772,132.806606 C776.197034,134.699615 777.694213,136.23804 779.581997,136.32522 L783.594614,136.32522 L783.594614,143.051153 C767.982737,147.462201 757.187885,161.717151 757.152324,177.969049 L757.152324,271.642414 C757.166204,273.487746 758.653454,274.981538 760.495208,275 L826.57821,275 C828.427483,274.996953 829.937441,273.51788 829.982242,271.665596 C829.982242,271.251641 829.868623,270.835203 829.868623,270.471337 L829.868623,177.969049 C829.868623,161.559476 818.713281,147.660124 803.839493,143.178238 L803.839493,136.32522 L807.703786,136.32522 C809.52913,136.32522 810.863226,134.635871 810.863226,132.806606 L810.863226,125.976355 L853.418788,125.976355 L853.418788,130.45079 C853.42459,131.782847 854.223419,132.982823 855.448647,133.49998 L898.561149,151.794702 C898.970002,151.967649 899.409304,152.056748 899.853102,152.056735 C900.477489,152.056489 901.086769,151.864323 901.598707,151.506176 C902.502975,150.883142 903.029932,149.842946 902.998082,148.743857 L902.998082,81.315211 C903.035943,80.2185573 902.511103,79.1787511 901.607066,78.5593467 C900.703029,77.9399423 899.545521,77.8270822 898.539251,78.2602263 L855.440383,96.3421758 C854.213148,96.8584706 853.415852,98.0631609 853.418788,99.3967465 L853.418788,104.036763 L810.863226,104.036763 L810.863226,97.0409311 C810.897596,96.1739182 810.581871,95.3295959 809.987355,94.6986525 C809.39284,94.0677091 808.569681,93.7033623 807.703786,93.6878991 L779.581997,93.6878991 C777.725009,93.6978676 776.210267,95.1810941 776.15772,97.0409311 L776.15772,111.487946 L729.305286,111.487946 C727.479827,111.487946 726,112.970616 726,114.799582 C726,116.628548 727.479827,118.111219 729.305286,118.111219 Z M861,102.187899 L897,87 L897,144 L861,128.633454 L861,102.187899 Z M853,110 L853,119 L811,119 L811,110 L853,110 Z M823,177.910604 L823,269 L764,269 L764,177.910604 C764,161.417752 777.297944,148 793.5,148 C809.702056,148 823,161.417752 823,177.910604 Z M797,142 C795.767017,141.858809 794.52811,141.788038 793.288353,141.787976 C792.19028,141.781382 791.092648,141.83776 790,141.956877 L790,136 L797,136 L797,142 Z M782,100 L803,100 L803,129 L782,129 L782,100 Z" id="Shape" stroke="#000000" stroke-width="10" fill-rule="nonzero"></path>
            <text id="cloud" font-family="Helvetica-Light, Helvetica" font-size="288" font-weight="300">
                <tspan x="0" y="280">cloud</tspan>
            </text>
            <text id="ire" font-family="Helvetica-Light, Helvetica" font-size="288" font-weight="300">
                <tspan x="916" y="280">ire</tspan>
            </text>
        </g>
    </g>
</svg>
