<?xml version="1.0" encoding="UTF-8"?>
<svg width="468px" height="100px" viewBox="0 0 468 100" version="1.1" xmlns="http://www.w3.org/2000/svg" xmlns:xlink="http://www.w3.org/1999/xlink">
    <!-- Generator: Sketch 48.2 (47327) - http://www.bohemiancoding.com/sketch -->
    <title>Slice</title>
    <desc>Created with Sketch.</desc>
    <defs></defs>
    <g id="Page-1" stroke="none" stroke-width="1" fill="none" fill-rule="evenodd">
        <g id="Group">
            <text id="CloudFire" font-family="Copperplate" font-size="64" font-weight="normal" fill="#000000">
                <tspan x="130" y="81">CloudFire</tspan>
            </text>
            <g id="logo">
                <path d="M78,0 C106.929245,20.432184 76.9805386,65.7158066 87.5490618,84 C65.8312154,57.5738976 95.4207963,34.8637635 78,0 Z" id="path6" fill="#CF5C00"></path>
                <path d="M91.1443025,40 C107.331715,50.3549561 87.9008034,74.6173904 98.2451105,80.8279448 C108.720702,87.1179806 107.535309,60.9772209 122,67.6830933 C106.939449,62.6385221 113.187017,93.7609844 94.5259937,89.6192304 C73.1703642,84.8793984 99.7289816,51.4368582 91.1443394,40 L91.1443025,40 Z" id="path8" fill="#8D1E00"></path>
                <path d="M0,74.1842366 C30.309935,49.1402806 71.5956101,89.3287704 91.0782799,91.8400369 C116.133529,95.0690547 109.459363,65.0262052 122,66.1455494 C110.444409,67.5907024 117.380874,99.0104528 91.5454264,99.9814113 C63.4097368,101.038934 35.3390569,56.5526297 5.18418077e-05,74.1842366 L0,74.1842366 Z" id="path10" fill="#2B1200"></path>
            </g>
        </g>
    </g>
</svg>
