<svg width="22" height="22" viewBox="0 0 22 22" fill="none" xmlns="http://www.w3.org/2000/svg">
<path fill-rule="evenodd" clip-rule="evenodd" d="M14.1324 3C18.5021 6.47053 13.9784 14.1622 15.5748 17.2679C12.2943 12.7793 16.7638 8.92182 14.1324 3Z" fill="black" fill-opacity="0.95"/>
<path fill-rule="evenodd" clip-rule="evenodd" d="M16.5555 9.67994C19.4118 11.4496 15.9831 15.5961 17.8084 16.6575C19.6568 17.7325 19.4477 13.265 22 14.4111C19.3425 13.5489 20.4449 18.8678 17.1522 18.16C13.3839 17.3499 18.0702 11.6345 16.5555 9.67994Z" fill="black" fill-opacity="0.95"/>
<path fill-rule="evenodd" clip-rule="evenodd" d="M0 15.7397C5.43996 11.6068 12.8498 18.239 16.3465 18.6534C20.8434 19.1863 19.6455 14.2284 21.8963 14.4131C19.8223 14.6516 21.0672 19.8367 16.4304 19.9969C11.3806 20.1715 6.34256 12.83 0 15.7397Z" fill="black" fill-opacity="0.95"/>
</svg>
