<svg xmlns="http://www.w3.org/2000/svg" viewBox="0 0 24 24" fill="none" stroke="currentColor" stroke-width="1.6" stroke-linecap="round" stroke-linejoin="round">
  <circle cx="12" cy="12" r="3"/>
  <path d="M19.4 13.6a1.5 1.5 0 0 0 .3 1.7l.1.1a2 2 0 1 1-2.8 2.8l-.1-.1a1.5 1.5 0 0 0-1.7-.3 1.5 1.5 0 0 0-.9 1.4V20a2 2 0 1 1-4 0v-.1a1.5 1.5 0 0 0-1-1.4 1.5 1.5 0 0 0-1.6.3l-.1.1a2 2 0 1 1-2.8-2.8l.1-.1a1.5 1.5 0 0 0 .3-1.7 1.5 1.5 0 0 0-1.4-.9H4a2 2 0 1 1 0-4h.1a1.5 1.5 0 0 0 1.4-1 1.5 1.5 0 0 0-.3-1.6l-.1-.1a2 2 0 1 1 2.8-2.8l.1.1a1.5 1.5 0 0 0 1.7.3H10a1.5 1.5 0 0 0 .9-1.4V4a2 2 0 1 1 4 0v.1a1.5 1.5 0 0 0 .9 1.4 1.5 1.5 0 0 0 1.7-.3l.1-.1a2 2 0 1 1 2.8 2.8l-.1.1a1.5 1.5 0 0 0-.3 1.7V10a1.5 1.5 0 0 0 1.4.9H20a2 2 0 1 1 0 4h-.1a1.5 1.5 0 0 0-1.4.9z"/>
</svg>
