<svg width="778" height="243" viewBox="0 0 778 243" fill="none" xmlns="http://www.w3.org/2000/svg">
<rect x="514" y="2" width="264" height="240" rx="6" fill="#EBEBEA"/>
<path d="M590.725 156.182L588.645 148.326H590.533L591.461 152.406C591.547 152.758 591.621 153.12 591.685 153.494C591.749 153.856 591.808 154.272 591.861 154.742H591.925C592 154.272 592.069 153.856 592.133 153.494C592.208 153.12 592.283 152.758 592.357 152.406L593.317 148.326H595.237L596.229 152.406C596.315 152.758 596.395 153.12 596.469 153.494C596.544 153.856 596.619 154.272 596.693 154.742H596.757C596.832 154.272 596.896 153.856 596.949 153.494C597.013 153.12 597.083 152.758 597.157 152.406L598.085 148.326H599.845L597.845 156.182H595.493L594.693 152.534C594.619 152.182 594.544 151.83 594.469 151.478C594.405 151.115 594.341 150.678 594.277 150.166H594.213C594.149 150.678 594.085 151.115 594.021 151.478C593.957 151.83 593.883 152.182 593.797 152.534L592.997 156.182H590.725ZM602.518 156.182L600.438 148.326H602.326L603.254 152.406C603.339 152.758 603.414 153.12 603.478 153.494C603.542 153.856 603.601 154.272 603.654 154.742H603.718C603.793 154.272 603.862 153.856 603.926 153.494C604.001 153.12 604.075 152.758 604.15 152.406L605.11 148.326H607.03L608.022 152.406C608.107 152.758 608.187 153.12 608.262 153.494C608.337 153.856 608.411 154.272 608.486 154.742H608.55C608.625 154.272 608.689 153.856 608.742 153.494C608.806 153.12 608.875 152.758 608.95 152.406L609.878 148.326H611.638L609.638 156.182H607.286L606.486 152.534C606.411 152.182 606.337 151.83 606.262 151.478C606.198 151.115 606.134 150.678 606.07 150.166H606.006C605.942 150.678 605.878 151.115 605.814 151.478C605.75 151.83 605.675 152.182 605.59 152.534L604.79 156.182H602.518ZM614.311 156.182L612.231 148.326H614.119L615.047 152.406C615.132 152.758 615.207 153.12 615.271 153.494C615.335 153.856 615.393 154.272 615.447 154.742H615.511C615.585 154.272 615.655 153.856 615.719 153.494C615.793 153.12 615.868 152.758 615.943 152.406L616.903 148.326H618.823L619.815 152.406C619.9 152.758 619.98 153.12 620.055 153.494C620.129 153.856 620.204 154.272 620.279 154.742H620.343C620.417 154.272 620.481 153.856 620.535 153.494C620.599 153.12 620.668 152.758 620.743 152.406L621.671 148.326H623.431L621.431 156.182H619.079L618.279 152.534C618.204 152.182 618.129 151.83 618.055 151.478C617.991 151.115 617.927 150.678 617.863 150.166H617.799C617.735 150.678 617.671 151.115 617.607 151.478C617.543 151.83 617.468 152.182 617.383 152.534L616.583 156.182H614.311ZM624.847 156.374C624.517 156.374 624.234 156.256 623.999 156.022C623.765 155.776 623.647 155.478 623.647 155.126C623.647 154.763 623.765 154.464 623.999 154.23C624.234 153.995 624.517 153.878 624.847 153.878C625.189 153.878 625.471 153.995 625.695 154.23C625.919 154.464 626.031 154.763 626.031 155.126C626.031 155.478 625.919 155.776 625.695 156.022C625.471 156.256 625.189 156.374 624.847 156.374ZM630.774 159.654C630.144 159.654 629.584 159.579 629.094 159.43C628.603 159.28 628.214 159.051 627.926 158.742C627.648 158.443 627.51 158.064 627.51 157.606C627.51 157.275 627.606 156.966 627.798 156.678C628 156.4 628.278 156.15 628.63 155.926V155.862C628.438 155.734 628.272 155.563 628.134 155.35C627.995 155.136 627.926 154.87 627.926 154.55C627.926 154.251 628.011 153.974 628.182 153.718C628.363 153.462 628.566 153.254 628.79 153.094V153.03C628.523 152.827 628.283 152.544 628.07 152.182C627.867 151.819 627.766 151.408 627.766 150.95C627.766 150.352 627.91 149.846 628.198 149.43C628.486 149.003 628.864 148.683 629.334 148.47C629.803 148.246 630.315 148.134 630.87 148.134C631.083 148.134 631.291 148.15 631.494 148.182C631.696 148.214 631.872 148.262 632.022 148.326H634.838V149.686H633.366V149.75C633.515 149.91 633.632 150.096 633.718 150.31C633.803 150.512 633.846 150.752 633.846 151.03C633.846 151.606 633.712 152.091 633.446 152.486C633.179 152.88 632.822 153.179 632.374 153.382C631.926 153.584 631.424 153.686 630.87 153.686C630.699 153.686 630.523 153.67 630.342 153.638C630.16 153.606 629.979 153.552 629.798 153.478C629.691 153.584 629.6 153.691 629.526 153.798C629.451 153.904 629.414 154.048 629.414 154.23C629.414 154.454 629.51 154.63 629.702 154.758C629.894 154.886 630.224 154.95 630.694 154.95H632.086C633.035 154.95 633.75 155.104 634.23 155.414C634.72 155.712 634.966 156.203 634.966 156.886C634.966 157.398 634.795 157.862 634.454 158.278C634.112 158.704 633.627 159.04 632.998 159.286C632.368 159.531 631.627 159.654 630.774 159.654ZM630.87 152.534C631.115 152.534 631.339 152.475 631.542 152.358C631.755 152.23 631.92 152.048 632.038 151.814C632.166 151.568 632.23 151.28 632.23 150.95C632.23 150.448 632.096 150.064 631.83 149.798C631.574 149.531 631.254 149.398 630.87 149.398C630.486 149.398 630.16 149.531 629.894 149.798C629.627 150.064 629.494 150.448 629.494 150.95C629.494 151.28 629.558 151.568 629.686 151.814C629.814 152.048 629.979 152.23 630.182 152.358C630.384 152.475 630.614 152.534 630.87 152.534ZM631.062 158.454C631.478 158.454 631.846 158.395 632.166 158.278C632.486 158.171 632.736 158.016 632.918 157.814C633.099 157.622 633.19 157.414 633.19 157.19C633.19 156.88 633.067 156.672 632.822 156.566C632.587 156.459 632.246 156.406 631.798 156.406H630.726C630.512 156.406 630.32 156.395 630.15 156.374C629.979 156.352 629.814 156.326 629.654 156.294C629.451 156.454 629.296 156.619 629.19 156.79C629.094 156.96 629.046 157.142 629.046 157.334C629.046 157.686 629.227 157.958 629.59 158.15C629.952 158.352 630.443 158.454 631.062 158.454ZM636.174 156.182V148.326H638.014V156.182H636.174ZM637.086 146.95C636.766 146.95 636.5 146.854 636.286 146.662C636.084 146.47 635.982 146.214 635.982 145.894C635.982 145.574 636.084 145.323 636.286 145.142C636.5 144.95 636.766 144.854 637.086 144.854C637.417 144.854 637.684 144.95 637.886 145.142C638.089 145.323 638.19 145.574 638.19 145.894C638.19 146.214 638.089 146.47 637.886 146.662C637.684 146.854 637.417 146.95 637.086 146.95ZM642.954 156.342C642.047 156.342 641.402 156.08 641.018 155.558C640.644 155.024 640.458 154.336 640.458 153.494V149.782H639.338V148.406L640.554 148.326L640.778 145.862H642.314V148.326H644.314V149.782H642.314V153.494C642.314 153.952 642.404 154.299 642.586 154.534C642.767 154.758 643.044 154.87 643.418 154.87C643.556 154.87 643.695 154.859 643.834 154.838C643.972 154.816 644.106 154.774 644.234 154.71L644.57 156.006C644.367 156.102 644.127 156.182 643.85 156.246C643.572 156.31 643.274 156.342 642.954 156.342ZM645.791 156.182V144.886H647.631V147.798L647.567 149.318C647.898 149.008 648.266 148.736 648.671 148.502C649.076 148.256 649.546 148.134 650.079 148.134C650.922 148.134 651.535 148.406 651.919 148.95C652.303 149.494 652.495 150.262 652.495 151.254V156.182H650.655V151.494C650.655 150.843 650.559 150.384 650.367 150.118C650.175 149.851 649.86 149.718 649.423 149.718C649.082 149.718 648.778 149.803 648.511 149.974C648.255 150.134 647.962 150.374 647.631 150.694V156.182H645.791ZM656.873 156.374C656.03 156.374 655.417 156.102 655.033 155.558C654.649 155.014 654.457 154.246 654.457 153.254V148.326H656.297V153.014C656.297 153.664 656.393 154.123 656.585 154.39C656.777 154.656 657.086 154.79 657.513 154.79C657.854 154.79 658.153 154.704 658.409 154.534C658.675 154.363 658.958 154.086 659.257 153.702V148.326H661.097V156.182H659.593L659.449 155.03H659.401C659.059 155.435 658.686 155.76 658.281 156.006C657.875 156.251 657.406 156.374 656.873 156.374ZM667.059 156.374C666.707 156.374 666.345 156.288 665.971 156.118C665.609 155.936 665.257 155.68 664.915 155.35H664.867L664.707 156.182H663.251V144.886H665.091V147.798L665.043 149.11C665.374 148.822 665.731 148.587 666.115 148.406C666.51 148.224 666.91 148.134 667.315 148.134C667.966 148.134 668.521 148.299 668.979 148.63C669.449 148.96 669.806 149.424 670.051 150.022C670.297 150.608 670.419 151.307 670.419 152.118C670.419 153.014 670.259 153.782 669.939 154.422C669.619 155.051 669.203 155.536 668.691 155.878C668.19 156.208 667.646 156.374 667.059 156.374ZM666.675 154.854C667.027 154.854 667.342 154.752 667.619 154.55C667.897 154.347 668.115 154.048 668.275 153.654C668.435 153.248 668.515 152.747 668.515 152.15C668.515 151.627 668.457 151.179 668.339 150.806C668.222 150.432 668.035 150.15 667.779 149.958C667.534 149.755 667.214 149.654 666.819 149.654C666.531 149.654 666.249 149.728 665.971 149.878C665.694 150.016 665.401 150.235 665.091 150.534V154.198C665.369 154.432 665.646 154.603 665.923 154.71C666.201 154.806 666.451 154.854 666.675 154.854ZM672.975 156.374C672.644 156.374 672.361 156.256 672.127 156.022C671.892 155.776 671.775 155.478 671.775 155.126C671.775 154.763 671.892 154.464 672.127 154.23C672.361 153.995 672.644 153.878 672.975 153.878C673.316 153.878 673.599 153.995 673.823 154.23C674.047 154.464 674.159 154.763 674.159 155.126C674.159 155.478 674.047 155.776 673.823 156.022C673.599 156.256 673.316 156.374 672.975 156.374ZM679.305 156.374C678.58 156.374 677.929 156.214 677.353 155.894C676.777 155.563 676.319 155.094 675.977 154.486C675.647 153.867 675.481 153.126 675.481 152.262C675.481 151.387 675.663 150.646 676.025 150.038C676.388 149.419 676.868 148.95 677.465 148.63C678.073 148.299 678.724 148.134 679.417 148.134C679.919 148.134 680.356 148.219 680.729 148.39C681.113 148.55 681.444 148.758 681.721 149.014L680.841 150.166C680.671 150.006 680.473 149.878 680.249 149.782C680.036 149.686 679.791 149.638 679.513 149.638C679.097 149.638 678.729 149.75 678.409 149.974C678.089 150.187 677.833 150.491 677.641 150.886C677.46 151.27 677.369 151.728 677.369 152.262C677.369 152.784 677.46 153.243 677.641 153.638C677.823 154.022 678.068 154.326 678.377 154.55C678.697 154.763 679.065 154.87 679.481 154.87C679.791 154.87 680.079 154.811 680.345 154.694C680.623 154.576 680.868 154.427 681.081 154.246L681.833 155.382C681.503 155.68 681.119 155.92 680.681 156.102C680.255 156.283 679.796 156.374 679.305 156.374ZM686.033 156.374C685.383 156.374 684.775 156.214 684.209 155.894C683.644 155.563 683.185 155.094 682.833 154.486C682.481 153.867 682.305 153.126 682.305 152.262C682.305 151.387 682.481 150.646 682.833 150.038C683.185 149.419 683.644 148.95 684.209 148.63C684.775 148.299 685.383 148.134 686.033 148.134C686.695 148.134 687.308 148.299 687.873 148.63C688.439 148.95 688.897 149.419 689.249 150.038C689.601 150.646 689.777 151.387 689.777 152.262C689.777 153.126 689.601 153.867 689.249 154.486C688.897 155.094 688.439 155.563 687.873 155.894C687.308 156.214 686.695 156.374 686.033 156.374ZM686.033 154.87C686.417 154.87 686.748 154.763 687.025 154.55C687.303 154.336 687.516 154.032 687.665 153.638C687.815 153.243 687.889 152.784 687.889 152.262C687.889 151.739 687.815 151.28 687.665 150.886C687.516 150.491 687.303 150.187 687.025 149.974C686.748 149.75 686.417 149.638 686.033 149.638C685.649 149.638 685.319 149.75 685.041 149.974C684.775 150.187 684.567 150.491 684.417 150.886C684.268 151.28 684.193 151.739 684.193 152.262C684.193 152.784 684.268 153.243 684.417 153.638C684.567 154.032 684.775 154.336 685.041 154.55C685.319 154.763 685.649 154.87 686.033 154.87ZM691.422 156.182V148.326H692.942L693.07 149.398H693.134C693.465 149.046 693.822 148.747 694.206 148.502C694.601 148.256 695.044 148.134 695.534 148.134C696.121 148.134 696.585 148.256 696.926 148.502C697.268 148.747 697.529 149.094 697.71 149.542C698.084 149.136 698.473 148.8 698.878 148.534C699.284 148.267 699.737 148.134 700.238 148.134C701.07 148.134 701.684 148.406 702.078 148.95C702.473 149.494 702.67 150.262 702.67 151.254V156.182H700.814V151.494C700.814 150.843 700.718 150.384 700.526 150.118C700.334 149.851 700.03 149.718 699.614 149.718C699.358 149.718 699.097 149.798 698.83 149.958C698.564 150.118 698.276 150.363 697.966 150.694V156.182H696.126V151.494C696.126 150.843 696.025 150.384 695.822 150.118C695.63 149.851 695.326 149.718 694.91 149.718C694.42 149.718 693.87 150.043 693.262 150.694V156.182H691.422ZM594.406 180.182V169.718H596.262V180.182H594.406ZM598.745 180.182V169.718H602.041C602.82 169.718 603.513 169.819 604.121 170.022C604.729 170.224 605.209 170.56 605.561 171.03C605.913 171.499 606.089 172.139 606.089 172.95C606.089 173.718 605.913 174.352 605.561 174.854C605.22 175.355 604.745 175.728 604.137 175.974C603.54 176.219 602.863 176.342 602.105 176.342H600.601V180.182H598.745ZM600.601 174.854H601.961C602.74 174.854 603.316 174.694 603.689 174.374C604.073 174.054 604.265 173.579 604.265 172.95C604.265 172.288 604.063 171.835 603.657 171.59C603.263 171.334 602.676 171.206 601.897 171.206H600.601V174.854ZM608.762 174.902C608.431 174.902 608.149 174.784 607.914 174.55C607.679 174.304 607.562 174.006 607.562 173.654C607.562 173.291 607.679 172.992 607.914 172.758C608.149 172.523 608.431 172.406 608.762 172.406C609.103 172.406 609.386 172.523 609.61 172.758C609.834 172.992 609.946 173.291 609.946 173.654C609.946 174.006 609.834 174.304 609.61 174.55C609.386 174.784 609.103 174.902 608.762 174.902ZM608.762 180.374C608.431 180.374 608.149 180.256 607.914 180.022C607.679 179.776 607.562 179.478 607.562 179.126C607.562 178.763 607.679 178.464 607.914 178.23C608.149 177.995 608.431 177.878 608.762 177.878C609.103 177.878 609.386 177.995 609.61 178.23C609.834 178.464 609.946 178.763 609.946 179.126C609.946 179.478 609.834 179.776 609.61 180.022C609.386 180.256 609.103 180.374 608.762 180.374ZM614.995 180.182V178.678H617.267V171.99H615.395V170.838C615.897 170.742 616.334 170.63 616.707 170.502C617.081 170.363 617.427 170.198 617.747 170.006H619.123V178.678H621.123V180.182H614.995ZM626.622 180.182V173.83C626.622 173.542 626.633 173.19 626.654 172.774C626.676 172.358 626.692 172.006 626.702 171.718H626.638C626.51 171.974 626.377 172.235 626.238 172.502C626.1 172.758 625.956 173.024 625.806 173.302L623.95 176.134H629.63V177.558H622.126V176.31L626.158 170.006H628.35V180.182H626.622ZM633.962 180.374C632.906 180.374 632.063 179.92 631.434 179.014C630.815 178.096 630.506 176.774 630.506 175.046C630.506 173.328 630.815 172.027 631.434 171.142C632.063 170.256 632.906 169.814 633.962 169.814C635.018 169.814 635.855 170.256 636.474 171.142C637.103 172.027 637.418 173.328 637.418 175.046C637.418 176.774 637.103 178.096 636.474 179.014C635.855 179.92 635.018 180.374 633.962 180.374ZM633.962 178.934C634.292 178.934 634.586 178.811 634.842 178.566C635.098 178.32 635.295 177.915 635.434 177.35C635.583 176.774 635.658 176.006 635.658 175.046C635.658 174.086 635.583 173.328 635.434 172.774C635.295 172.219 635.098 171.83 634.842 171.606C634.586 171.371 634.292 171.254 633.962 171.254C633.642 171.254 633.354 171.371 633.098 171.606C632.842 171.83 632.639 172.219 632.49 172.774C632.34 173.328 632.266 174.086 632.266 175.046C632.266 176.006 632.34 176.774 632.49 177.35C632.639 177.915 632.842 178.32 633.098 178.566C633.354 178.811 633.642 178.934 633.962 178.934ZM640.101 180.374C639.77 180.374 639.487 180.256 639.253 180.022C639.018 179.776 638.901 179.478 638.901 179.126C638.901 178.763 639.018 178.464 639.253 178.23C639.487 177.995 639.77 177.878 640.101 177.878C640.442 177.878 640.725 177.995 640.949 178.23C641.173 178.464 641.285 178.763 641.285 179.126C641.285 179.478 641.173 179.776 640.949 180.022C640.725 180.256 640.442 180.374 640.101 180.374ZM646.235 180.374C645.574 180.374 644.982 180.256 644.459 180.022C643.936 179.776 643.526 179.446 643.227 179.03C642.928 178.603 642.779 178.118 642.779 177.574C642.779 177.147 642.864 176.774 643.035 176.454C643.206 176.123 643.43 175.835 643.707 175.59C643.995 175.344 644.299 175.136 644.619 174.966V174.902C644.235 174.614 643.904 174.278 643.627 173.894C643.35 173.51 643.211 173.051 643.211 172.518C643.211 171.974 643.344 171.499 643.611 171.094C643.878 170.678 644.24 170.363 644.699 170.15C645.168 169.926 645.696 169.814 646.283 169.814C647.2 169.814 647.926 170.07 648.459 170.582C649.003 171.083 649.275 171.744 649.275 172.566C649.275 172.896 649.206 173.211 649.067 173.51C648.939 173.808 648.768 174.075 648.555 174.31C648.352 174.544 648.139 174.742 647.915 174.902V174.966C648.224 175.136 648.512 175.344 648.779 175.59C649.046 175.824 649.259 176.107 649.419 176.438C649.59 176.758 649.675 177.147 649.675 177.606C649.675 178.128 649.531 178.598 649.243 179.014C648.955 179.43 648.555 179.76 648.043 180.006C647.531 180.251 646.928 180.374 646.235 180.374ZM646.907 174.438C647.184 174.16 647.392 173.878 647.531 173.59C647.68 173.302 647.755 172.998 647.755 172.678C647.755 172.379 647.696 172.112 647.579 171.878C647.462 171.643 647.291 171.462 647.067 171.334C646.843 171.195 646.571 171.126 646.251 171.126C645.856 171.126 645.526 171.248 645.259 171.494C644.992 171.739 644.859 172.08 644.859 172.518C644.859 172.859 644.95 173.147 645.131 173.382C645.323 173.606 645.574 173.803 645.883 173.974C646.192 174.134 646.534 174.288 646.907 174.438ZM646.267 179.062C646.598 179.062 646.886 179.003 647.131 178.886C647.387 178.758 647.584 178.582 647.723 178.358C647.872 178.134 647.947 177.862 647.947 177.542C647.947 177.179 647.835 176.88 647.611 176.646C647.398 176.4 647.104 176.192 646.731 176.022C646.368 175.84 645.958 175.659 645.499 175.478C645.19 175.702 644.928 175.979 644.715 176.31C644.502 176.63 644.395 176.987 644.395 177.382C644.395 177.723 644.475 178.022 644.635 178.278C644.806 178.523 645.03 178.715 645.307 178.854C645.595 178.992 645.915 179.062 646.267 179.062ZM650.758 180.182V179.046C651.697 178.171 652.507 177.376 653.19 176.662C653.883 175.936 654.417 175.28 654.79 174.694C655.174 174.096 655.366 173.542 655.366 173.03C655.366 172.486 655.222 172.059 654.934 171.75C654.657 171.43 654.241 171.27 653.686 171.27C653.291 171.27 652.929 171.382 652.598 171.606C652.278 171.83 651.979 172.096 651.702 172.406L650.71 171.43C651.169 170.918 651.649 170.523 652.15 170.246C652.651 169.958 653.243 169.814 653.926 169.814C654.577 169.814 655.142 169.942 655.622 170.198C656.102 170.454 656.475 170.816 656.742 171.286C657.009 171.744 657.142 172.288 657.142 172.918C657.142 173.547 656.966 174.171 656.614 174.79C656.273 175.408 655.809 176.043 655.222 176.694C654.635 177.334 653.985 178.011 653.27 178.726C653.537 178.694 653.825 178.667 654.134 178.646C654.454 178.624 654.737 178.614 654.982 178.614H657.638V180.182H650.758ZM660.385 180.374C660.055 180.374 659.772 180.256 659.537 180.022C659.303 179.776 659.185 179.478 659.185 179.126C659.185 178.763 659.303 178.464 659.537 178.23C659.772 177.995 660.055 177.878 660.385 177.878C660.727 177.878 661.009 177.995 661.233 178.23C661.457 178.464 661.569 178.763 661.569 179.126C661.569 179.478 661.457 179.776 661.233 180.022C661.009 180.256 660.727 180.374 660.385 180.374ZM663.591 180.182V178.678H665.863V171.99H663.991V170.838C664.493 170.742 664.93 170.63 665.303 170.502C665.677 170.363 666.023 170.198 666.343 170.006H667.719V178.678H669.719V180.182H663.591ZM671.619 180.182V178.678H673.891V171.99H672.019V170.838C672.52 170.742 672.957 170.63 673.331 170.502C673.704 170.363 674.051 170.198 674.371 170.006H675.747V178.678H677.747V180.182H671.619ZM682.862 180.374C682.36 180.374 681.886 180.278 681.438 180.086C681 179.883 680.611 179.579 680.27 179.174C679.928 178.768 679.656 178.251 679.454 177.622C679.262 176.992 679.166 176.251 679.166 175.398C679.166 174.416 679.272 173.574 679.486 172.87C679.71 172.155 680.008 171.574 680.382 171.126C680.766 170.678 681.192 170.347 681.662 170.134C682.142 169.92 682.643 169.814 683.166 169.814C683.784 169.814 684.318 169.926 684.766 170.15C685.214 170.374 685.587 170.646 685.886 170.966L684.894 172.086C684.712 171.862 684.472 171.68 684.174 171.542C683.886 171.392 683.587 171.318 683.278 171.318C682.84 171.318 682.435 171.446 682.062 171.702C681.699 171.958 681.411 172.384 681.198 172.982C680.984 173.579 680.878 174.384 680.878 175.398C680.878 176.24 680.958 176.923 681.118 177.446C681.288 177.968 681.518 178.352 681.806 178.598C682.104 178.843 682.446 178.966 682.83 178.966C683.118 178.966 683.374 178.891 683.598 178.742C683.832 178.592 684.014 178.374 684.142 178.086C684.28 177.798 684.35 177.446 684.35 177.03C684.35 176.624 684.286 176.288 684.158 176.022C684.03 175.755 683.848 175.558 683.614 175.43C683.379 175.291 683.091 175.222 682.75 175.222C682.451 175.222 682.131 175.318 681.79 175.51C681.459 175.691 681.15 176.016 680.862 176.486L680.798 175.19C681.086 174.774 681.443 174.454 681.87 174.23C682.296 173.995 682.702 173.878 683.086 173.878C683.672 173.878 684.19 173.995 684.638 174.23C685.086 174.454 685.432 174.8 685.678 175.27C685.934 175.739 686.062 176.326 686.062 177.03C686.062 177.712 685.912 178.304 685.614 178.806C685.326 179.307 684.936 179.696 684.446 179.974C683.966 180.24 683.438 180.374 682.862 180.374ZM688.697 180.374C688.366 180.374 688.083 180.256 687.849 180.022C687.614 179.776 687.497 179.478 687.497 179.126C687.497 178.763 687.614 178.464 687.849 178.23C688.083 177.995 688.366 177.878 688.697 177.878C689.038 177.878 689.321 177.995 689.545 178.23C689.769 178.464 689.881 178.763 689.881 179.126C689.881 179.478 689.769 179.776 689.545 180.022C689.321 180.256 689.038 180.374 688.697 180.374ZM694.559 180.374C694.015 180.374 693.524 180.31 693.087 180.182C692.66 180.054 692.282 179.883 691.951 179.67C691.62 179.446 691.338 179.2 691.103 178.934L691.983 177.75C692.292 178.059 692.644 178.326 693.039 178.55C693.434 178.763 693.887 178.87 694.399 178.87C694.954 178.87 695.402 178.736 695.743 178.47C696.095 178.192 696.271 177.814 696.271 177.334C696.271 176.982 696.18 176.678 695.999 176.422C695.828 176.166 695.524 175.968 695.087 175.83C694.66 175.68 694.058 175.606 693.279 175.606V174.262C693.951 174.262 694.479 174.192 694.863 174.054C695.247 173.904 695.519 173.712 695.679 173.478C695.85 173.232 695.935 172.95 695.935 172.63C695.935 172.203 695.802 171.872 695.535 171.638C695.268 171.392 694.9 171.27 694.431 171.27C694.036 171.27 693.674 171.36 693.343 171.542C693.012 171.712 692.692 171.942 692.383 172.23L691.439 171.094C691.876 170.71 692.346 170.4 692.847 170.166C693.348 169.931 693.898 169.814 694.495 169.814C695.146 169.814 695.716 169.92 696.207 170.134C696.698 170.336 697.082 170.64 697.359 171.046C697.647 171.44 697.791 171.926 697.791 172.502C697.791 173.067 697.631 173.542 697.311 173.926C697.002 174.31 696.57 174.614 696.015 174.838V174.902C696.41 175.008 696.767 175.174 697.087 175.398C697.407 175.622 697.658 175.904 697.839 176.246C698.031 176.587 698.127 176.982 698.127 177.43C698.127 178.048 697.962 178.582 697.631 179.03C697.311 179.467 696.879 179.803 696.335 180.038C695.802 180.262 695.21 180.374 694.559 180.374Z" fill="#1B140E"/>
<g clip-path="url(#clip0_1047_606)">
<path fill-rule="evenodd" clip-rule="evenodd" d="M645.436 81C633.582 81 624 90.6531 624 102.595C624 112.141 630.14 120.222 638.657 123.082C639.722 123.297 640.112 122.617 640.112 122.045C640.112 121.545 640.077 119.829 640.077 118.041C634.114 119.328 632.872 115.466 632.872 115.466C631.914 112.963 630.494 112.32 630.494 112.32C628.543 110.997 630.636 110.997 630.636 110.997C632.801 111.14 633.937 113.214 633.937 113.214C635.854 116.503 638.941 115.574 640.183 115.002C640.361 113.607 640.929 112.642 641.532 112.106C636.776 111.605 631.772 109.746 631.772 101.451C631.772 99.0912 632.624 97.1605 633.972 95.6591C633.76 95.1229 633.014 92.9057 634.186 89.9383C634.186 89.9383 635.996 89.3661 640.077 92.155C641.824 91.6823 643.626 91.4418 645.436 91.4398C647.246 91.4398 649.091 91.6903 650.795 92.155C654.876 89.3661 656.686 89.9383 656.686 89.9383C657.858 92.9057 657.112 95.1229 656.899 95.6591C658.283 97.1605 659.099 99.0912 659.099 101.451C659.099 109.746 654.096 111.569 649.304 112.106C650.085 112.785 650.759 114.072 650.759 116.11C650.759 119.006 650.724 121.33 650.724 122.045C650.724 122.617 651.115 123.297 652.179 123.082C660.697 120.221 666.836 112.141 666.836 102.595C666.871 90.6531 657.254 81 645.436 81Z" fill="#1B140E"/>
</g>
<rect x="2" y="158" width="184" height="32" rx="3" fill="#ECE5FF" stroke="#D2A8FF" stroke-width="4" stroke-linecap="round"/>
<path d="M39.9035 179.192C39.4448 179.192 39.0395 179.096 38.6875 178.904C38.3355 178.712 38.0582 178.445 37.8555 178.104C37.6635 177.752 37.5675 177.347 37.5675 176.888C37.5675 176.003 37.9355 175.336 38.6715 174.888C39.4182 174.429 40.5968 174.115 42.2075 173.944C42.1968 173.677 42.1435 173.432 42.0475 173.208C41.9622 172.984 41.8128 172.808 41.5995 172.68C41.3968 172.541 41.1195 172.472 40.7675 172.472C40.3835 172.472 40.0048 172.541 39.6315 172.68C39.2688 172.819 38.9115 172.995 38.5595 173.208L37.8875 171.96C38.1755 171.779 38.4902 171.613 38.8315 171.464C39.1728 171.304 39.5355 171.181 39.9195 171.096C40.3035 171 40.7035 170.952 41.1195 170.952C41.7702 170.952 42.3088 171.085 42.7355 171.352C43.1728 171.608 43.4982 171.992 43.7115 172.504C43.9355 173.005 44.0475 173.624 44.0475 174.36V179H42.5275L42.3995 178.136H42.3355C41.9728 178.435 41.5942 178.685 41.1995 178.888C40.8048 179.091 40.3728 179.192 39.9035 179.192ZM40.4795 177.688C40.7995 177.688 41.0928 177.624 41.3595 177.496C41.6368 177.357 41.9195 177.155 42.2075 176.888V175.224C41.4928 175.309 40.9275 175.421 40.5115 175.56C40.0955 175.699 39.7968 175.869 39.6155 176.072C39.4448 176.264 39.3595 176.493 39.3595 176.76C39.3595 177.091 39.4662 177.331 39.6795 177.48C39.8928 177.619 40.1595 177.688 40.4795 177.688ZM47.8655 179.16C47.4282 179.16 47.0762 179.075 46.8095 178.904C46.5535 178.723 46.3668 178.467 46.2495 178.136C46.1322 177.805 46.0735 177.411 46.0735 176.952V167.704H47.9135V177.048C47.9135 177.283 47.9562 177.443 48.0415 177.528C48.1268 177.613 48.2228 177.656 48.3295 177.656C48.3722 177.656 48.4095 177.656 48.4415 177.656C48.4842 177.645 48.5375 177.635 48.6015 177.624L48.8415 179C48.7348 179.043 48.5962 179.08 48.4255 179.112C48.2655 179.144 48.0788 179.16 47.8655 179.16ZM50.2412 179V171.144H52.0812V179H50.2412ZM51.1532 169.768C50.8332 169.768 50.5666 169.672 50.3532 169.48C50.1506 169.288 50.0492 169.032 50.0492 168.712C50.0492 168.392 50.1506 168.141 50.3532 167.96C50.5666 167.768 50.8332 167.672 51.1532 167.672C51.4839 167.672 51.7506 167.768 51.9532 167.96C52.1559 168.141 52.2573 168.392 52.2573 168.712C52.2573 169.032 52.1559 169.288 51.9532 169.48C51.7506 169.672 51.4839 169.768 51.1532 169.768ZM57.5648 179.192C56.8394 179.192 56.1888 179.032 55.6128 178.712C55.0368 178.381 54.5781 177.912 54.2368 177.304C53.9061 176.685 53.7408 175.944 53.7408 175.08C53.7408 174.205 53.9221 173.464 54.2848 172.856C54.6474 172.237 55.1274 171.768 55.7248 171.448C56.3328 171.117 56.9834 170.952 57.6768 170.952C58.1781 170.952 58.6154 171.037 58.9888 171.208C59.3728 171.368 59.7034 171.576 59.9808 171.832L59.1008 172.984C58.9301 172.824 58.7328 172.696 58.5088 172.6C58.2954 172.504 58.0501 172.456 57.7728 172.456C57.3568 172.456 56.9888 172.568 56.6688 172.792C56.3488 173.005 56.0928 173.309 55.9008 173.704C55.7194 174.088 55.6288 174.547 55.6288 175.08C55.6288 175.603 55.7194 176.061 55.9008 176.456C56.0821 176.84 56.3274 177.144 56.6368 177.368C56.9568 177.581 57.3248 177.688 57.7408 177.688C58.0501 177.688 58.3381 177.629 58.6048 177.512C58.8821 177.395 59.1274 177.245 59.3408 177.064L60.0928 178.2C59.7621 178.499 59.3781 178.739 58.9408 178.92C58.5141 179.101 58.0554 179.192 57.5648 179.192ZM64.4528 179.192C63.7168 179.192 63.0501 179.032 62.4528 178.712C61.8661 178.381 61.4021 177.912 61.0608 177.304C60.7194 176.685 60.5488 175.939 60.5488 175.064C60.5488 174.211 60.7248 173.48 61.0768 172.872C61.4288 172.253 61.8821 171.779 62.4368 171.448C62.9914 171.117 63.5781 170.952 64.1968 170.952C64.9114 170.952 65.5088 171.112 65.9888 171.432C66.4688 171.752 66.8261 172.195 67.0608 172.76C67.3061 173.315 67.4288 173.955 67.4288 174.68C67.4288 174.851 67.4181 175.016 67.3968 175.176C67.3861 175.336 67.3648 175.491 67.3328 175.64H61.9248V174.232H65.7968C65.7968 173.667 65.6688 173.224 65.4128 172.904C65.1568 172.573 64.7621 172.408 64.2288 172.408C63.9301 172.408 63.6368 172.488 63.3488 172.648C63.0714 172.808 62.8368 173.08 62.6448 173.464C62.4634 173.848 62.3728 174.381 62.3728 175.064C62.3728 175.683 62.4794 176.189 62.6928 176.584C62.9061 176.968 63.1888 177.256 63.5408 177.448C63.8928 177.629 64.2714 177.72 64.6768 177.72C65.0181 177.72 65.3381 177.672 65.6368 177.576C65.9461 177.48 66.2341 177.347 66.5008 177.176L67.1408 178.36C66.7781 178.616 66.3621 178.819 65.8928 178.968C65.4341 179.117 64.9541 179.192 64.4528 179.192ZM74.4981 181.624C73.7088 181.624 72.9621 181.501 72.2581 181.256C71.5541 181.011 70.9301 180.637 70.3861 180.136C69.8421 179.645 69.4155 179.032 69.1061 178.296C68.7968 177.56 68.6421 176.707 68.6421 175.736C68.6421 174.637 68.8235 173.645 69.1861 172.76C69.5595 171.864 70.0661 171.096 70.7061 170.456C71.3461 169.816 72.0821 169.325 72.9141 168.984C73.7568 168.643 74.6475 168.472 75.5861 168.472C76.7061 168.472 77.6715 168.707 78.4821 169.176C79.3035 169.635 79.9381 170.28 80.3861 171.112C80.8341 171.933 81.0581 172.888 81.0581 173.976C81.0581 174.701 80.9568 175.341 80.7541 175.896C80.5515 176.44 80.2848 176.899 79.9541 177.272C79.6235 177.635 79.2555 177.907 78.8501 178.088C78.4448 178.269 78.0395 178.36 77.6341 178.36C77.1755 178.36 76.7808 178.253 76.4501 178.04C76.1301 177.827 75.9381 177.507 75.8741 177.08H75.8421C75.6181 177.443 75.3248 177.725 74.9621 177.928C74.5995 178.131 74.2421 178.232 73.8901 178.232C73.2928 178.232 72.7968 178.019 72.4021 177.592C72.0075 177.165 71.8101 176.579 71.8101 175.832C71.8101 175.363 71.8901 174.904 72.0501 174.456C72.2101 173.997 72.4341 173.581 72.7221 173.208C73.0101 172.824 73.3515 172.52 73.7461 172.296C74.1408 172.072 74.5728 171.96 75.0421 171.96C75.3195 171.96 75.5595 172.029 75.7621 172.168C75.9755 172.296 76.1515 172.504 76.2901 172.792H76.3221L76.5301 172.12H77.6981L77.0261 175.512C76.9195 176.067 76.9301 176.467 77.0581 176.712C77.1861 176.957 77.4315 177.08 77.7941 177.08C78.1035 177.08 78.3968 176.957 78.6741 176.712C78.9621 176.456 79.1968 176.104 79.3781 175.656C79.5595 175.197 79.6501 174.659 79.6501 174.04C79.6501 173.464 79.5648 172.925 79.3941 172.424C79.2341 171.912 78.9781 171.464 78.6261 171.08C78.2848 170.696 77.8475 170.397 77.3141 170.184C76.7915 169.96 76.1675 169.848 75.4421 169.848C74.7701 169.848 74.1141 169.987 73.4741 170.264C72.8448 170.531 72.2741 170.92 71.7621 171.432C71.2608 171.944 70.8608 172.557 70.5621 173.272C70.2635 173.987 70.1141 174.787 70.1141 175.672C70.1141 176.419 70.2315 177.08 70.4661 177.656C70.7008 178.221 71.0208 178.696 71.4261 179.08C71.8421 179.475 72.3221 179.768 72.8661 179.96C73.4208 180.152 74.0075 180.248 74.6261 180.248C75.0741 180.248 75.5061 180.195 75.9221 180.088C76.3488 179.981 76.7381 179.843 77.0901 179.672L77.5861 180.824C77.0955 181.08 76.5995 181.277 76.0981 181.416C75.5968 181.555 75.0635 181.624 74.4981 181.624ZM74.2901 176.92C74.4821 176.92 74.6795 176.861 74.8821 176.744C75.0955 176.616 75.3195 176.408 75.5541 176.12L75.9701 173.784C75.8635 173.603 75.7355 173.475 75.5861 173.4C75.4368 173.315 75.2715 173.272 75.0901 173.272C74.7381 173.272 74.4341 173.405 74.1781 173.672C73.9221 173.928 73.7248 174.243 73.5861 174.616C73.4475 174.989 73.3781 175.357 73.3781 175.72C73.3781 176.136 73.4581 176.44 73.6181 176.632C73.7888 176.824 74.0128 176.92 74.2901 176.92ZM84.7381 179.192C84.2795 179.192 83.8741 179.096 83.5221 178.904C83.1701 178.712 82.8928 178.445 82.6901 178.104C82.4981 177.752 82.4021 177.347 82.4021 176.888C82.4021 176.003 82.7701 175.336 83.5061 174.888C84.2528 174.429 85.4315 174.115 87.0421 173.944C87.0315 173.677 86.9781 173.432 86.8821 173.208C86.7968 172.984 86.6475 172.808 86.4341 172.68C86.2315 172.541 85.9541 172.472 85.6021 172.472C85.2181 172.472 84.8395 172.541 84.4661 172.68C84.1035 172.819 83.7461 172.995 83.3941 173.208L82.7221 171.96C83.0101 171.779 83.3248 171.613 83.6661 171.464C84.0075 171.304 84.3701 171.181 84.7541 171.096C85.1381 171 85.5381 170.952 85.9541 170.952C86.6048 170.952 87.1435 171.085 87.5701 171.352C88.0075 171.608 88.3328 171.992 88.5461 172.504C88.7701 173.005 88.8821 173.624 88.8821 174.36V179H87.3621L87.2341 178.136H87.1701C86.8075 178.435 86.4288 178.685 86.0341 178.888C85.6395 179.091 85.2075 179.192 84.7381 179.192ZM85.3141 177.688C85.6341 177.688 85.9275 177.624 86.1941 177.496C86.4715 177.357 86.7541 177.155 87.0421 176.888V175.224C86.3275 175.309 85.7621 175.421 85.3461 175.56C84.9301 175.699 84.6315 175.869 84.4501 176.072C84.2795 176.264 84.1941 176.493 84.1941 176.76C84.1941 177.091 84.3008 177.331 84.5141 177.48C84.7275 177.619 84.9941 177.688 85.3141 177.688ZM94.2201 179.192C93.4948 179.192 92.8441 179.032 92.2681 178.712C91.6921 178.381 91.2335 177.912 90.8921 177.304C90.5615 176.685 90.3961 175.944 90.3961 175.08C90.3961 174.205 90.5775 173.464 90.9401 172.856C91.3028 172.237 91.7828 171.768 92.3801 171.448C92.9881 171.117 93.6388 170.952 94.3321 170.952C94.8335 170.952 95.2708 171.037 95.6441 171.208C96.0281 171.368 96.3588 171.576 96.6361 171.832L95.7561 172.984C95.5855 172.824 95.3881 172.696 95.1641 172.6C94.9508 172.504 94.7055 172.456 94.4281 172.456C94.0121 172.456 93.6441 172.568 93.3241 172.792C93.0041 173.005 92.7481 173.309 92.5561 173.704C92.3748 174.088 92.2841 174.547 92.2841 175.08C92.2841 175.603 92.3748 176.061 92.5561 176.456C92.7375 176.84 92.9828 177.144 93.2921 177.368C93.6121 177.581 93.9801 177.688 94.3961 177.688C94.7055 177.688 94.9935 177.629 95.2601 177.512C95.5375 177.395 95.7828 177.245 95.9961 177.064L96.7481 178.2C96.4175 178.499 96.0335 178.739 95.5961 178.92C95.1695 179.101 94.7108 179.192 94.2201 179.192ZM98.1228 179V171.144H99.6428L99.7708 172.216H99.8348C100.165 171.864 100.523 171.565 100.907 171.32C101.301 171.075 101.744 170.952 102.235 170.952C102.821 170.952 103.285 171.075 103.627 171.32C103.968 171.565 104.229 171.912 104.411 172.36C104.784 171.955 105.173 171.619 105.579 171.352C105.984 171.085 106.437 170.952 106.939 170.952C107.771 170.952 108.384 171.224 108.779 171.768C109.173 172.312 109.371 173.08 109.371 174.072V179H107.515V174.312C107.515 173.661 107.419 173.203 107.227 172.936C107.035 172.669 106.731 172.536 106.315 172.536C106.059 172.536 105.797 172.616 105.531 172.776C105.264 172.936 104.976 173.181 104.667 173.512V179H102.827V174.312C102.827 173.661 102.725 173.203 102.523 172.936C102.331 172.669 102.027 172.536 101.611 172.536C101.12 172.536 100.571 172.861 99.9628 173.512V179H98.1228ZM114.807 179.192C114.071 179.192 113.404 179.032 112.807 178.712C112.22 178.381 111.756 177.912 111.415 177.304C111.074 176.685 110.903 175.939 110.903 175.064C110.903 174.211 111.079 173.48 111.431 172.872C111.783 172.253 112.236 171.779 112.791 171.448C113.346 171.117 113.932 170.952 114.551 170.952C115.266 170.952 115.863 171.112 116.343 171.432C116.823 171.752 117.18 172.195 117.415 172.76C117.66 173.315 117.783 173.955 117.783 174.68C117.783 174.851 117.772 175.016 117.751 175.176C117.74 175.336 117.719 175.491 117.687 175.64H112.279V174.232H116.151C116.151 173.667 116.023 173.224 115.767 172.904C115.511 172.573 115.116 172.408 114.583 172.408C114.284 172.408 113.991 172.488 113.703 172.648C113.426 172.808 113.191 173.08 112.999 173.464C112.818 173.848 112.727 174.381 112.727 175.064C112.727 175.683 112.834 176.189 113.047 176.584C113.26 176.968 113.543 177.256 113.895 177.448C114.247 177.629 114.626 177.72 115.031 177.72C115.372 177.72 115.692 177.672 115.991 177.576C116.3 177.48 116.588 177.347 116.855 177.176L117.495 178.36C117.132 178.616 116.716 178.819 116.247 178.968C115.788 179.117 115.308 179.192 114.807 179.192ZM120.405 179.192C120.074 179.192 119.791 179.075 119.557 178.84C119.322 178.595 119.205 178.296 119.205 177.944C119.205 177.581 119.322 177.283 119.557 177.048C119.791 176.813 120.074 176.696 120.405 176.696C120.746 176.696 121.029 176.813 121.253 177.048C121.477 177.283 121.589 177.581 121.589 177.944C121.589 178.296 121.477 178.595 121.253 178.84C121.029 179.075 120.746 179.192 120.405 179.192ZM126.735 179.192C126.01 179.192 125.359 179.032 124.783 178.712C124.207 178.381 123.748 177.912 123.407 177.304C123.076 176.685 122.911 175.944 122.911 175.08C122.911 174.205 123.092 173.464 123.455 172.856C123.818 172.237 124.298 171.768 124.895 171.448C125.503 171.117 126.154 170.952 126.847 170.952C127.348 170.952 127.786 171.037 128.159 171.208C128.543 171.368 128.874 171.576 129.151 171.832L128.271 172.984C128.1 172.824 127.903 172.696 127.679 172.6C127.466 172.504 127.22 172.456 126.943 172.456C126.527 172.456 126.159 172.568 125.839 172.792C125.519 173.005 125.263 173.309 125.071 173.704C124.89 174.088 124.799 174.547 124.799 175.08C124.799 175.603 124.89 176.061 125.071 176.456C125.252 176.84 125.498 177.144 125.807 177.368C126.127 177.581 126.495 177.688 126.911 177.688C127.22 177.688 127.508 177.629 127.775 177.512C128.052 177.395 128.298 177.245 128.511 177.064L129.263 178.2C128.932 178.499 128.548 178.739 128.111 178.92C127.684 179.101 127.226 179.192 126.735 179.192ZM133.463 179.192C132.812 179.192 132.204 179.032 131.639 178.712C131.074 178.381 130.615 177.912 130.263 177.304C129.911 176.685 129.735 175.944 129.735 175.08C129.735 174.205 129.911 173.464 130.263 172.856C130.615 172.237 131.074 171.768 131.639 171.448C132.204 171.117 132.812 170.952 133.463 170.952C134.124 170.952 134.738 171.117 135.303 171.448C135.868 171.768 136.327 172.237 136.679 172.856C137.031 173.464 137.207 174.205 137.207 175.08C137.207 175.944 137.031 176.685 136.679 177.304C136.327 177.912 135.868 178.381 135.303 178.712C134.738 179.032 134.124 179.192 133.463 179.192ZM133.463 177.688C133.847 177.688 134.178 177.581 134.455 177.368C134.732 177.155 134.946 176.851 135.095 176.456C135.244 176.061 135.319 175.603 135.319 175.08C135.319 174.557 135.244 174.099 135.095 173.704C134.946 173.309 134.732 173.005 134.455 172.792C134.178 172.568 133.847 172.456 133.463 172.456C133.079 172.456 132.748 172.568 132.471 172.792C132.204 173.005 131.996 173.309 131.847 173.704C131.698 174.099 131.623 174.557 131.623 175.08C131.623 175.603 131.698 176.061 131.847 176.456C131.996 176.851 132.204 177.155 132.471 177.368C132.748 177.581 133.079 177.688 133.463 177.688ZM138.852 179V171.144H140.372L140.5 172.216H140.564C140.895 171.864 141.252 171.565 141.636 171.32C142.031 171.075 142.473 170.952 142.964 170.952C143.551 170.952 144.015 171.075 144.356 171.32C144.697 171.565 144.959 171.912 145.14 172.36C145.513 171.955 145.903 171.619 146.308 171.352C146.713 171.085 147.167 170.952 147.668 170.952C148.5 170.952 149.113 171.224 149.508 171.768C149.903 172.312 150.1 173.08 150.1 174.072V179H148.244V174.312C148.244 173.661 148.148 173.203 147.956 172.936C147.764 172.669 147.46 172.536 147.044 172.536C146.788 172.536 146.527 172.616 146.26 172.776C145.993 172.936 145.705 173.181 145.396 173.512V179H143.556V174.312C143.556 173.661 143.455 173.203 143.252 172.936C143.06 172.669 142.756 172.536 142.34 172.536C141.849 172.536 141.3 172.861 140.692 173.512V179H138.852Z" fill="#1B140E"/>
<rect x="289" y="119" width="121" height="110" rx="6" fill="#EBEBEA"/>
<path d="M354.99 153.357V148.586C354.99 147.068 354.387 145.612 353.313 144.538C352.24 143.465 350.784 142.862 349.265 142.862C347.747 142.862 346.291 143.465 345.218 144.538C344.144 145.612 343.541 147.068 343.541 148.586V153.357M342.587 167.668H355.944C356.703 167.668 357.431 167.366 357.968 166.83C358.505 166.293 358.806 165.565 358.806 164.806V156.219C358.806 155.46 358.505 154.732 357.968 154.195C357.431 153.658 356.703 153.357 355.944 153.357H342.587C341.828 153.357 341.1 153.658 340.563 154.195C340.026 154.732 339.725 155.46 339.725 156.219V164.806C339.725 165.565 340.026 166.293 340.563 166.83C341.1 167.366 341.828 167.668 342.587 167.668Z" stroke="black" stroke-width="1.90816" stroke-linecap="round" stroke-linejoin="round"/>
<path d="M337.347 201.279L334.147 190.815H336.115L337.523 196.079C337.63 196.474 337.731 196.858 337.827 197.231C337.923 197.594 338.019 197.962 338.115 198.335C338.222 198.698 338.334 199.077 338.451 199.471H338.515C338.622 199.077 338.723 198.698 338.819 198.335C338.915 197.962 339.011 197.594 339.107 197.231C339.214 196.858 339.32 196.474 339.427 196.079L340.947 190.815H342.851L339.539 201.279H337.347ZM343.941 201.279V190.815H347.237C348.016 190.815 348.709 190.917 349.317 191.119C349.925 191.322 350.405 191.658 350.757 192.127C351.109 192.597 351.285 193.237 351.285 194.047C351.285 194.815 351.109 195.45 350.757 195.951C350.416 196.453 349.941 196.826 349.333 197.071C348.736 197.317 348.058 197.439 347.301 197.439H345.797V201.279H343.941ZM345.797 195.951H347.157C347.936 195.951 348.512 195.791 348.885 195.471C349.269 195.151 349.461 194.677 349.461 194.047C349.461 193.386 349.258 192.933 348.853 192.687C348.458 192.431 347.872 192.303 347.093 192.303H345.797V195.951ZM353.078 201.279V190.815H355.11L358.246 196.575C358.438 196.927 358.619 197.306 358.79 197.711C358.971 198.117 359.142 198.527 359.302 198.943H359.366C359.323 198.378 359.275 197.791 359.222 197.183C359.168 196.565 359.142 195.967 359.142 195.391V190.815H360.918V201.279H358.886L355.75 195.519C355.558 195.167 355.366 194.789 355.174 194.383C354.992 193.978 354.822 193.567 354.662 193.151H354.598C354.662 193.695 354.72 194.277 354.774 194.895C354.827 195.503 354.854 196.106 354.854 196.703V201.279H353.078Z" fill="#1B140E"/>
<path d="M402 174C402 178.418 405.582 182 410 182C414.418 182 418 178.418 418 174C418 169.582 414.418 166 410 166C405.582 166 402 169.582 402 174ZM495 128.66C495 129.489 496.015 130.074 496.732 129.66L508.268 123C508.985 122.586 508.985 121.414 508.268 121L496.732 114.34C496.015 113.926 495 114.511 495 115.34V128.66ZM410 175.5H438V172.5H410V175.5ZM463.5 150V146H460.5V150H463.5ZM486 123.5H496.5V120.5H486V123.5ZM463.5 146C463.5 133.574 473.574 123.5 486 123.5V120.5C471.917 120.5 460.5 131.917 460.5 146H463.5ZM438 175.5C452.083 175.5 463.5 164.083 463.5 150H460.5C460.5 162.426 450.426 172.5 438 172.5V175.5Z" fill="#1B140E"/>
<path d="M190 172.5C189.172 172.5 188.5 173.172 188.5 174C188.5 174.828 189.172 175.5 190 175.5V172.5ZM270 180.66C270 181.489 271.015 182.074 271.732 181.66L283.268 175C283.985 174.586 283.985 173.414 283.268 173L271.732 166.34C271.015 165.926 270 166.511 270 167.34V180.66ZM190 175.5H271.5V172.5H190V175.5Z" fill="#5E00D6"/>
<path d="M4.464 218L2.384 210.144H4.272L5.2 214.224C5.28533 214.576 5.36 214.939 5.424 215.312C5.488 215.675 5.54667 216.091 5.6 216.56H5.664C5.73867 216.091 5.808 215.675 5.872 215.312C5.94667 214.939 6.02133 214.576 6.096 214.224L7.056 210.144H8.976L9.968 214.224C10.0533 214.576 10.1333 214.939 10.208 215.312C10.2827 215.675 10.3573 216.091 10.432 216.56H10.496C10.5707 216.091 10.6347 215.675 10.688 215.312C10.752 214.939 10.8213 214.576 10.896 214.224L11.824 210.144H13.584L11.584 218H9.232L8.432 214.352C8.35733 214 8.28267 213.648 8.208 213.296C8.144 212.933 8.08 212.496 8.016 211.984H7.952C7.888 212.496 7.824 212.933 7.76 213.296C7.696 213.648 7.62133 214 7.536 214.352L6.736 218H4.464ZM16.2568 218L14.1768 210.144H16.0648L16.9928 214.224C17.0781 214.576 17.1528 214.939 17.2168 215.312C17.2808 215.675 17.3394 216.091 17.3928 216.56H17.4568C17.5314 216.091 17.6008 215.675 17.6648 215.312C17.7394 214.939 17.8141 214.576 17.8888 214.224L18.8488 210.144H20.7688L21.7608 214.224C21.8461 214.576 21.9261 214.939 22.0008 215.312C22.0754 215.675 22.1501 216.091 22.2248 216.56H22.2888C22.3634 216.091 22.4274 215.675 22.4808 215.312C22.5448 214.939 22.6141 214.576 22.6888 214.224L23.6168 210.144H25.3768L23.3768 218H21.0248L20.2248 214.352C20.1501 214 20.0754 213.648 20.0008 213.296C19.9368 212.933 19.8728 212.496 19.8088 211.984H19.7448C19.6808 212.496 19.6168 212.933 19.5528 213.296C19.4888 213.648 19.4141 214 19.3288 214.352L18.5288 218H16.2568ZM28.0495 218L25.9695 210.144H27.8575L28.7855 214.224C28.8708 214.576 28.9455 214.939 29.0095 215.312C29.0735 215.675 29.1322 216.091 29.1855 216.56H29.2495C29.3242 216.091 29.3935 215.675 29.4575 215.312C29.5322 214.939 29.6068 214.576 29.6815 214.224L30.6415 210.144H32.5615L33.5535 214.224C33.6388 214.576 33.7188 214.939 33.7935 215.312C33.8682 215.675 33.9428 216.091 34.0175 216.56H34.0815C34.1562 216.091 34.2202 215.675 34.2735 215.312C34.3375 214.939 34.4068 214.576 34.4815 214.224L35.4095 210.144H37.1695L35.1695 218H32.8175L32.0175 214.352C31.9428 214 31.8682 213.648 31.7935 213.296C31.7295 212.933 31.6655 212.496 31.6015 211.984H31.5375C31.4735 212.496 31.4095 212.933 31.3455 213.296C31.2815 213.648 31.2068 214 31.1215 214.352L30.3215 218H28.0495ZM38.5863 218.192C38.2556 218.192 37.9729 218.075 37.7383 217.84C37.5036 217.595 37.3863 217.296 37.3863 216.944C37.3863 216.581 37.5036 216.283 37.7383 216.048C37.9729 215.813 38.2556 215.696 38.5863 215.696C38.9276 215.696 39.2103 215.813 39.4343 216.048C39.6583 216.283 39.7703 216.581 39.7703 216.944C39.7703 217.296 39.6583 217.595 39.4343 217.84C39.2103 218.075 38.9276 218.192 38.5863 218.192ZM44.5125 221.472C43.8832 221.472 43.3232 221.397 42.8325 221.248C42.3418 221.099 41.9525 220.869 41.6645 220.56C41.3872 220.261 41.2485 219.883 41.2485 219.424C41.2485 219.093 41.3445 218.784 41.5365 218.496C41.7392 218.219 42.0165 217.968 42.3685 217.744V217.68C42.1765 217.552 42.0112 217.381 41.8725 217.168C41.7338 216.955 41.6645 216.688 41.6645 216.368C41.6645 216.069 41.7498 215.792 41.9205 215.536C42.1018 215.28 42.3045 215.072 42.5285 214.912V214.848C42.2618 214.645 42.0218 214.363 41.8085 214C41.6058 213.637 41.5045 213.227 41.5045 212.768C41.5045 212.171 41.6485 211.664 41.9365 211.248C42.2245 210.821 42.6032 210.501 43.0725 210.288C43.5418 210.064 44.0538 209.952 44.6085 209.952C44.8218 209.952 45.0298 209.968 45.2325 210C45.4352 210.032 45.6112 210.08 45.7605 210.144H48.5765V211.504H47.1045V211.568C47.2538 211.728 47.3712 211.915 47.4565 212.128C47.5418 212.331 47.5845 212.571 47.5845 212.848C47.5845 213.424 47.4512 213.909 47.1845 214.304C46.9178 214.699 46.5605 214.997 46.1125 215.2C45.6645 215.403 45.1632 215.504 44.6085 215.504C44.4378 215.504 44.2618 215.488 44.0805 215.456C43.8992 215.424 43.7178 215.371 43.5365 215.296C43.4298 215.403 43.3392 215.509 43.2645 215.616C43.1898 215.723 43.1525 215.867 43.1525 216.048C43.1525 216.272 43.2485 216.448 43.4405 216.576C43.6325 216.704 43.9632 216.768 44.4325 216.768H45.8245C46.7738 216.768 47.4885 216.923 47.9685 217.232C48.4592 217.531 48.7045 218.021 48.7045 218.704C48.7045 219.216 48.5338 219.68 48.1925 220.096C47.8512 220.523 47.3658 220.859 46.7365 221.104C46.1072 221.349 45.3658 221.472 44.5125 221.472ZM44.6085 214.352C44.8538 214.352 45.0778 214.293 45.2805 214.176C45.4938 214.048 45.6592 213.867 45.7765 213.632C45.9045 213.387 45.9685 213.099 45.9685 212.768C45.9685 212.267 45.8352 211.883 45.5685 211.616C45.3125 211.349 44.9925 211.216 44.6085 211.216C44.2245 211.216 43.8992 211.349 43.6325 211.616C43.3658 211.883 43.2325 212.267 43.2325 212.768C43.2325 213.099 43.2965 213.387 43.4245 213.632C43.5525 213.867 43.7178 214.048 43.9205 214.176C44.1232 214.293 44.3525 214.352 44.6085 214.352ZM44.8005 220.272C45.2165 220.272 45.5845 220.213 45.9045 220.096C46.2245 219.989 46.4752 219.835 46.6565 219.632C46.8378 219.44 46.9285 219.232 46.9285 219.008C46.9285 218.699 46.8058 218.491 46.5605 218.384C46.3258 218.277 45.9845 218.224 45.5365 218.224H44.4645C44.2512 218.224 44.0592 218.213 43.8885 218.192C43.7178 218.171 43.5525 218.144 43.3925 218.112C43.1898 218.272 43.0352 218.437 42.9285 218.608C42.8325 218.779 42.7845 218.96 42.7845 219.152C42.7845 219.504 42.9658 219.776 43.3285 219.968C43.6912 220.171 44.1818 220.272 44.8005 220.272ZM49.913 218V210.144H51.753V218H49.913ZM50.825 208.768C50.505 208.768 50.2383 208.672 50.025 208.48C49.8223 208.288 49.721 208.032 49.721 207.712C49.721 207.392 49.8223 207.141 50.025 206.96C50.2383 206.768 50.505 206.672 50.825 206.672C51.1557 206.672 51.4223 206.768 51.625 206.96C51.8277 207.141 51.929 207.392 51.929 207.712C51.929 208.032 51.8277 208.288 51.625 208.48C51.4223 208.672 51.1557 208.768 50.825 208.768ZM56.6925 218.16C55.7858 218.16 55.1405 217.899 54.7565 217.376C54.3832 216.843 54.1965 216.155 54.1965 215.312V211.6H53.0765V210.224L54.2925 210.144L54.5165 207.68H56.0525V210.144H58.0525V211.6H56.0525V215.312C56.0525 215.771 56.1432 216.117 56.3245 216.352C56.5058 216.576 56.7832 216.688 57.1565 216.688C57.2952 216.688 57.4338 216.677 57.5725 216.656C57.7112 216.635 57.8445 216.592 57.9725 216.528L58.3085 217.824C58.1058 217.92 57.8658 218 57.5885 218.064C57.3112 218.128 57.0125 218.16 56.6925 218.16ZM59.5298 218V206.704H61.3698V209.616L61.3058 211.136C61.6364 210.827 62.0044 210.555 62.4098 210.32C62.8151 210.075 63.2844 209.952 63.8178 209.952C64.6604 209.952 65.2738 210.224 65.6578 210.768C66.0418 211.312 66.2338 212.08 66.2338 213.072V218H64.3938V213.312C64.3938 212.661 64.2978 212.203 64.1058 211.936C63.9138 211.669 63.5991 211.536 63.1618 211.536C62.8204 211.536 62.5164 211.621 62.2498 211.792C61.9938 211.952 61.7004 212.192 61.3698 212.512V218H59.5298ZM70.6116 218.192C69.769 218.192 69.1556 217.92 68.7716 217.376C68.3876 216.832 68.1956 216.064 68.1956 215.072V210.144H70.0356V214.832C70.0356 215.483 70.1316 215.941 70.3236 216.208C70.5156 216.475 70.825 216.608 71.2516 216.608C71.593 216.608 71.8916 216.523 72.1476 216.352C72.4143 216.181 72.697 215.904 72.9956 215.52V210.144H74.8356V218H73.3316L73.1876 216.848H73.1396C72.7983 217.253 72.425 217.579 72.0196 217.824C71.6143 218.069 71.145 218.192 70.6116 218.192ZM80.7983 218.192C80.4463 218.192 80.0836 218.107 79.7103 217.936C79.3476 217.755 78.9956 217.499 78.6543 217.168H78.6063L78.4463 218H76.9903V206.704H78.8303V209.616L78.7823 210.928C79.1129 210.64 79.4703 210.405 79.8543 210.224C80.2489 210.043 80.6489 209.952 81.0543 209.952C81.7049 209.952 82.2596 210.117 82.7183 210.448C83.1876 210.779 83.5449 211.243 83.7903 211.84C84.0356 212.427 84.1583 213.125 84.1583 213.936C84.1583 214.832 83.9983 215.6 83.6783 216.24C83.3583 216.869 82.9423 217.355 82.4303 217.696C81.9289 218.027 81.3849 218.192 80.7983 218.192ZM80.4143 216.672C80.7663 216.672 81.0809 216.571 81.3583 216.368C81.6356 216.165 81.8543 215.867 82.0143 215.472C82.1743 215.067 82.2543 214.565 82.2543 213.968C82.2543 213.445 82.1956 212.997 82.0783 212.624C81.9609 212.251 81.7743 211.968 81.5183 211.776C81.2729 211.573 80.9529 211.472 80.5583 211.472C80.2703 211.472 79.9876 211.547 79.7103 211.696C79.4329 211.835 79.1396 212.053 78.8303 212.352V216.016C79.1076 216.251 79.3849 216.421 79.6623 216.528C79.9396 216.624 80.1903 216.672 80.4143 216.672ZM86.7136 218.192C86.383 218.192 86.1003 218.075 85.8656 217.84C85.631 217.595 85.5136 217.296 85.5136 216.944C85.5136 216.581 85.631 216.283 85.8656 216.048C86.1003 215.813 86.383 215.696 86.7136 215.696C87.055 215.696 87.3376 215.813 87.5616 216.048C87.7856 216.283 87.8976 216.581 87.8976 216.944C87.8976 217.296 87.7856 217.595 87.5616 217.84C87.3376 218.075 87.055 218.192 86.7136 218.192ZM93.044 218.192C92.3187 218.192 91.668 218.032 91.092 217.712C90.516 217.381 90.0573 216.912 89.716 216.304C89.3853 215.685 89.22 214.944 89.22 214.08C89.22 213.205 89.4013 212.464 89.764 211.856C90.1267 211.237 90.6067 210.768 91.204 210.448C91.812 210.117 92.4627 209.952 93.156 209.952C93.6573 209.952 94.0947 210.037 94.468 210.208C94.852 210.368 95.1827 210.576 95.46 210.832L94.58 211.984C94.4093 211.824 94.212 211.696 93.988 211.6C93.7747 211.504 93.5293 211.456 93.252 211.456C92.836 211.456 92.468 211.568 92.148 211.792C91.828 212.005 91.572 212.309 91.38 212.704C91.1987 213.088 91.108 213.547 91.108 214.08C91.108 214.603 91.1987 215.061 91.38 215.456C91.5613 215.84 91.8067 216.144 92.116 216.368C92.436 216.581 92.804 216.688 93.22 216.688C93.5293 216.688 93.8173 216.629 94.084 216.512C94.3613 216.395 94.6067 216.245 94.82 216.064L95.572 217.2C95.2413 217.499 94.8573 217.739 94.42 217.92C93.9933 218.101 93.5347 218.192 93.044 218.192ZM99.772 218.192C99.1213 218.192 98.5133 218.032 97.948 217.712C97.3827 217.381 96.924 216.912 96.572 216.304C96.22 215.685 96.044 214.944 96.044 214.08C96.044 213.205 96.22 212.464 96.572 211.856C96.924 211.237 97.3827 210.768 97.948 210.448C98.5133 210.117 99.1213 209.952 99.772 209.952C100.433 209.952 101.047 210.117 101.612 210.448C102.177 210.768 102.636 211.237 102.988 211.856C103.34 212.464 103.516 213.205 103.516 214.08C103.516 214.944 103.34 215.685 102.988 216.304C102.636 216.912 102.177 217.381 101.612 217.712C101.047 218.032 100.433 218.192 99.772 218.192ZM99.772 216.688C100.156 216.688 100.487 216.581 100.764 216.368C101.041 216.155 101.255 215.851 101.404 215.456C101.553 215.061 101.628 214.603 101.628 214.08C101.628 213.557 101.553 213.099 101.404 212.704C101.255 212.309 101.041 212.005 100.764 211.792C100.487 211.568 100.156 211.456 99.772 211.456C99.388 211.456 99.0573 211.568 98.78 211.792C98.5133 212.005 98.3053 212.309 98.156 212.704C98.0067 213.099 97.932 213.557 97.932 214.08C97.932 214.603 98.0067 215.061 98.156 215.456C98.3053 215.851 98.5133 216.155 98.78 216.368C99.0573 216.581 99.388 216.688 99.772 216.688ZM105.161 218V210.144H106.681L106.809 211.216H106.873C107.204 210.864 107.561 210.565 107.945 210.32C108.34 210.075 108.783 209.952 109.273 209.952C109.86 209.952 110.324 210.075 110.665 210.32C111.007 210.565 111.268 210.912 111.449 211.36C111.823 210.955 112.212 210.619 112.617 210.352C113.023 210.085 113.476 209.952 113.977 209.952C114.809 209.952 115.423 210.224 115.817 210.768C116.212 211.312 116.409 212.08 116.409 213.072V218H114.553V213.312C114.553 212.661 114.457 212.203 114.265 211.936C114.073 211.669 113.769 211.536 113.353 211.536C113.097 211.536 112.836 211.616 112.569 211.776C112.303 211.936 112.015 212.181 111.705 212.512V218H109.865V213.312C109.865 212.661 109.764 212.203 109.561 211.936C109.369 211.669 109.065 211.536 108.649 211.536C108.159 211.536 107.609 211.861 107.001 212.512V218H105.161ZM3.328 242V231.536H5.184V242H3.328ZM7.66762 242V231.536H10.9636C11.7423 231.536 12.4356 231.637 13.0436 231.84C13.6516 232.043 14.1316 232.379 14.4836 232.848C14.8356 233.317 15.0116 233.957 15.0116 234.768C15.0116 235.536 14.8356 236.171 14.4836 236.672C14.1423 237.173 13.6676 237.547 13.0596 237.792C12.4623 238.037 11.785 238.16 11.0276 238.16H9.52363V242H7.66762ZM9.52363 236.672H10.8836C11.6623 236.672 12.2383 236.512 12.6116 236.192C12.9956 235.872 13.1876 235.397 13.1876 234.768C13.1876 234.107 12.985 233.653 12.5796 233.408C12.185 233.152 11.5983 233.024 10.8196 233.024H9.52363V236.672ZM17.6841 236.72C17.3535 236.72 17.0708 236.603 16.8361 236.368C16.6015 236.123 16.4841 235.824 16.4841 235.472C16.4841 235.109 16.6015 234.811 16.8361 234.576C17.0708 234.341 17.3535 234.224 17.6841 234.224C18.0255 234.224 18.3081 234.341 18.5321 234.576C18.7561 234.811 18.8681 235.109 18.8681 235.472C18.8681 235.824 18.7561 236.123 18.5321 236.368C18.3081 236.603 18.0255 236.72 17.6841 236.72ZM17.6841 242.192C17.3535 242.192 17.0708 242.075 16.8361 241.84C16.6015 241.595 16.4841 241.296 16.4841 240.944C16.4841 240.581 16.6015 240.283 16.8361 240.048C17.0708 239.813 17.3535 239.696 17.6841 239.696C18.0255 239.696 18.3081 239.813 18.5321 240.048C18.7561 240.283 18.8681 240.581 18.8681 240.944C18.8681 241.296 18.7561 241.595 18.5321 241.84C18.3081 242.075 18.0255 242.192 17.6841 242.192ZM23.9175 242V240.496H26.1895V233.808H24.3175V232.656C24.8188 232.56 25.2562 232.448 25.6295 232.32C26.0028 232.181 26.3495 232.016 26.6695 231.824H28.0455V240.496H30.0455V242H23.9175ZM35.5446 242V235.648C35.5446 235.36 35.5553 235.008 35.5766 234.592C35.598 234.176 35.614 233.824 35.6246 233.536H35.5606C35.4326 233.792 35.2993 234.053 35.1606 234.32C35.022 234.576 34.878 234.843 34.7286 235.12L32.8726 237.952H38.5526V239.376H31.0486V238.128L35.0806 231.824H37.2726V242H35.5446ZM42.8838 242.192C41.8278 242.192 40.9851 241.739 40.3558 240.832C39.7371 239.915 39.4278 238.592 39.4278 236.864C39.4278 235.147 39.7371 233.845 40.3558 232.96C40.9851 232.075 41.8278 231.632 42.8838 231.632C43.9398 231.632 44.7771 232.075 45.3958 232.96C46.0251 233.845 46.3398 235.147 46.3398 236.864C46.3398 238.592 46.0251 239.915 45.3958 240.832C44.7771 241.739 43.9398 242.192 42.8838 242.192ZM42.8838 240.752C43.2144 240.752 43.5078 240.629 43.7638 240.384C44.0198 240.139 44.2171 239.733 44.3558 239.168C44.5051 238.592 44.5798 237.824 44.5798 236.864C44.5798 235.904 44.5051 235.147 44.3558 234.592C44.2171 234.037 44.0198 233.648 43.7638 233.424C43.5078 233.189 43.2144 233.072 42.8838 233.072C42.5638 233.072 42.2758 233.189 42.0198 233.424C41.7638 233.648 41.5611 234.037 41.4118 234.592C41.2624 235.147 41.1878 235.904 41.1878 236.864C41.1878 237.824 41.2624 238.592 41.4118 239.168C41.5611 239.733 41.7638 240.139 42.0198 240.384C42.2758 240.629 42.5638 240.752 42.8838 240.752ZM49.0229 242.192C48.6922 242.192 48.4095 242.075 48.1749 241.84C47.9402 241.595 47.8229 241.296 47.8229 240.944C47.8229 240.581 47.9402 240.283 48.1749 240.048C48.4095 239.813 48.6922 239.696 49.0229 239.696C49.3642 239.696 49.6469 239.813 49.8709 240.048C50.0949 240.283 50.2069 240.581 50.2069 240.944C50.2069 241.296 50.0949 241.595 49.8709 241.84C49.6469 242.075 49.3642 242.192 49.0229 242.192ZM55.1571 242.192C54.4958 242.192 53.9038 242.075 53.3811 241.84C52.8585 241.595 52.4478 241.264 52.1491 240.848C51.8505 240.421 51.7011 239.936 51.7011 239.392C51.7011 238.965 51.7865 238.592 51.9571 238.272C52.1278 237.941 52.3518 237.653 52.6291 237.408C52.9171 237.163 53.2211 236.955 53.5411 236.784V236.72C53.1571 236.432 52.8265 236.096 52.5491 235.712C52.2718 235.328 52.1331 234.869 52.1331 234.336C52.1331 233.792 52.2665 233.317 52.5331 232.912C52.7998 232.496 53.1625 232.181 53.6211 231.968C54.0905 231.744 54.6185 231.632 55.2051 231.632C56.1225 231.632 56.8478 231.888 57.3811 232.4C57.9251 232.901 58.1971 233.563 58.1971 234.384C58.1971 234.715 58.1278 235.029 57.9891 235.328C57.8611 235.627 57.6905 235.893 57.4771 236.128C57.2745 236.363 57.0611 236.56 56.8371 236.72V236.784C57.1465 236.955 57.4345 237.163 57.7011 237.408C57.9678 237.643 58.1811 237.925 58.3411 238.256C58.5118 238.576 58.5971 238.965 58.5971 239.424C58.5971 239.947 58.4531 240.416 58.1651 240.832C57.8771 241.248 57.4771 241.579 56.9651 241.824C56.4531 242.069 55.8505 242.192 55.1571 242.192ZM55.8291 236.256C56.1065 235.979 56.3145 235.696 56.4531 235.408C56.6025 235.12 56.6771 234.816 56.6771 234.496C56.6771 234.197 56.6185 233.931 56.5011 233.696C56.3838 233.461 56.2131 233.28 55.9891 233.152C55.7651 233.013 55.4931 232.944 55.1731 232.944C54.7785 232.944 54.4478 233.067 54.1811 233.312C53.9145 233.557 53.7811 233.899 53.7811 234.336C53.7811 234.677 53.8718 234.965 54.0531 235.2C54.2451 235.424 54.4958 235.621 54.8051 235.792C55.1145 235.952 55.4558 236.107 55.8291 236.256ZM55.1891 240.88C55.5198 240.88 55.8078 240.821 56.0531 240.704C56.3091 240.576 56.5065 240.4 56.6451 240.176C56.7945 239.952 56.8691 239.68 56.8691 239.36C56.8691 238.997 56.7571 238.699 56.5331 238.464C56.3198 238.219 56.0265 238.011 55.6531 237.84C55.2905 237.659 54.8798 237.477 54.4211 237.296C54.1118 237.52 53.8505 237.797 53.6371 238.128C53.4238 238.448 53.3171 238.805 53.3171 239.2C53.3171 239.541 53.3971 239.84 53.5571 240.096C53.7278 240.341 53.9518 240.533 54.2291 240.672C54.5171 240.811 54.8371 240.88 55.1891 240.88ZM59.6803 242V240.864C60.6189 239.989 61.4296 239.195 62.1123 238.48C62.8056 237.755 63.3389 237.099 63.7123 236.512C64.0963 235.915 64.2883 235.36 64.2883 234.848C64.2883 234.304 64.1443 233.877 63.8563 233.568C63.5789 233.248 63.1629 233.088 62.6083 233.088C62.2136 233.088 61.8509 233.2 61.5203 233.424C61.2003 233.648 60.9016 233.915 60.6243 234.224L59.6323 233.248C60.0909 232.736 60.5709 232.341 61.0723 232.064C61.5736 231.776 62.1656 231.632 62.8483 231.632C63.4989 231.632 64.0643 231.76 64.5443 232.016C65.0243 232.272 65.3976 232.635 65.6643 233.104C65.9309 233.563 66.0643 234.107 66.0643 234.736C66.0643 235.365 65.8883 235.989 65.5363 236.608C65.1949 237.227 64.7309 237.861 64.1443 238.512C63.5576 239.152 62.9069 239.829 62.1923 240.544C62.4589 240.512 62.7469 240.485 63.0563 240.464C63.3763 240.443 63.6589 240.432 63.9043 240.432H66.5603V242H59.6803ZM69.3074 242.192C68.9767 242.192 68.694 242.075 68.4594 241.84C68.2247 241.595 68.1074 241.296 68.1074 240.944C68.1074 240.581 68.2247 240.283 68.4594 240.048C68.694 239.813 68.9767 239.696 69.3074 239.696C69.6487 239.696 69.9314 239.813 70.1554 240.048C70.3794 240.283 70.4914 240.581 70.4914 240.944C70.4914 241.296 70.3794 241.595 70.1554 241.84C69.9314 242.075 69.6487 242.192 69.3074 242.192ZM72.5136 242V240.496H74.7856V233.808H72.9136V232.656C73.415 232.56 73.8523 232.448 74.2256 232.32C74.599 232.181 74.9456 232.016 75.2656 231.824H76.6416V240.496H78.6416V242H72.5136ZM80.5408 242V240.496H82.8128V233.808H80.9408V232.656C81.4421 232.56 81.8794 232.448 82.2528 232.32C82.6261 232.181 82.9728 232.016 83.2928 231.824H84.6688V240.496H86.6688V242H80.5408ZM91.7839 242.192C91.2825 242.192 90.8079 242.096 90.3599 241.904C89.9225 241.701 89.5332 241.397 89.1919 240.992C88.8505 240.587 88.5785 240.069 88.3759 239.44C88.1839 238.811 88.0879 238.069 88.0879 237.216C88.0879 236.235 88.1945 235.392 88.4079 234.688C88.6319 233.973 88.9305 233.392 89.3039 232.944C89.6879 232.496 90.1145 232.165 90.5839 231.952C91.0639 231.739 91.5652 231.632 92.0879 231.632C92.7065 231.632 93.2399 231.744 93.6879 231.968C94.1359 232.192 94.5092 232.464 94.8079 232.784L93.8159 233.904C93.6345 233.68 93.3945 233.499 93.0959 233.36C92.8079 233.211 92.5092 233.136 92.1999 233.136C91.7625 233.136 91.3572 233.264 90.9839 233.52C90.6212 233.776 90.3332 234.203 90.1199 234.8C89.9065 235.397 89.7999 236.203 89.7999 237.216C89.7999 238.059 89.8799 238.741 90.0399 239.264C90.2105 239.787 90.4399 240.171 90.7279 240.416C91.0265 240.661 91.3679 240.784 91.7519 240.784C92.0399 240.784 92.2959 240.709 92.5199 240.56C92.7545 240.411 92.9359 240.192 93.0639 239.904C93.2025 239.616 93.2719 239.264 93.2719 238.848C93.2719 238.443 93.2079 238.107 93.0799 237.84C92.9519 237.573 92.7705 237.376 92.5359 237.248C92.3012 237.109 92.0132 237.04 91.6719 237.04C91.3732 237.04 91.0532 237.136 90.7119 237.328C90.3812 237.509 90.0719 237.835 89.7839 238.304L89.7199 237.008C90.0079 236.592 90.3652 236.272 90.7919 236.048C91.2185 235.813 91.6239 235.696 92.0079 235.696C92.5945 235.696 93.1119 235.813 93.5599 236.048C94.0079 236.272 94.3545 236.619 94.5999 237.088C94.8559 237.557 94.9839 238.144 94.9839 238.848C94.9839 239.531 94.8345 240.123 94.5359 240.624C94.2479 241.125 93.8585 241.515 93.3679 241.792C92.8879 242.059 92.3599 242.192 91.7839 242.192ZM97.619 242.192C97.2883 242.192 97.0057 242.075 96.771 241.84C96.5363 241.595 96.419 241.296 96.419 240.944C96.419 240.581 96.5363 240.283 96.771 240.048C97.0057 239.813 97.2883 239.696 97.619 239.696C97.9603 239.696 98.243 239.813 98.467 240.048C98.691 240.283 98.803 240.581 98.803 240.944C98.803 241.296 98.691 241.595 98.467 241.84C98.243 242.075 97.9603 242.192 97.619 242.192ZM103.481 242.192C102.937 242.192 102.447 242.128 102.009 242C101.583 241.872 101.204 241.701 100.873 241.488C100.543 241.264 100.26 241.019 100.025 240.752L100.905 239.568C101.215 239.877 101.567 240.144 101.961 240.368C102.356 240.581 102.809 240.688 103.321 240.688C103.876 240.688 104.324 240.555 104.665 240.288C105.017 240.011 105.193 239.632 105.193 239.152C105.193 238.8 105.103 238.496 104.921 238.24C104.751 237.984 104.447 237.787 104.009 237.648C103.583 237.499 102.98 237.424 102.201 237.424V236.08C102.873 236.08 103.401 236.011 103.785 235.872C104.169 235.723 104.441 235.531 104.601 235.296C104.772 235.051 104.857 234.768 104.857 234.448C104.857 234.021 104.724 233.691 104.457 233.456C104.191 233.211 103.823 233.088 103.353 233.088C102.959 233.088 102.596 233.179 102.265 233.36C101.935 233.531 101.615 233.76 101.305 234.048L100.361 232.912C100.799 232.528 101.268 232.219 101.769 231.984C102.271 231.749 102.82 231.632 103.417 231.632C104.068 231.632 104.639 231.739 105.129 231.952C105.62 232.155 106.004 232.459 106.281 232.864C106.569 233.259 106.713 233.744 106.713 234.32C106.713 234.885 106.553 235.36 106.233 235.744C105.924 236.128 105.492 236.432 104.937 236.656V236.72C105.332 236.827 105.689 236.992 106.009 237.216C106.329 237.44 106.58 237.723 106.761 238.064C106.953 238.405 107.049 238.8 107.049 239.248C107.049 239.867 106.884 240.4 106.553 240.848C106.233 241.285 105.801 241.621 105.257 241.856C104.724 242.08 104.132 242.192 103.481 242.192Z" fill="#1B140E"/>
<rect x="270" y="2" width="159" height="51" rx="3" stroke="#1B140E" stroke-width="4" stroke-linecap="round"/>
<path d="M312.975 26.104C312.503 26.104 312.083 26.048 311.715 25.936C311.347 25.824 311.055 25.652 310.839 25.42C310.631 25.196 310.527 24.912 310.527 24.568C310.527 24.32 310.599 24.088 310.743 23.872C310.895 23.664 311.103 23.476 311.367 23.308V23.26C311.223 23.164 311.099 23.036 310.995 22.876C310.891 22.716 310.839 22.516 310.839 22.276C310.839 22.052 310.903 21.844 311.031 21.652C311.167 21.46 311.319 21.304 311.487 21.184V21.136C311.287 20.984 311.107 20.772 310.947 20.5C310.795 20.228 310.719 19.92 310.719 19.576C310.719 19.128 310.827 18.748 311.043 18.436C311.259 18.116 311.543 17.876 311.895 17.716C312.247 17.548 312.631 17.464 313.047 17.464C313.207 17.464 313.363 17.476 313.515 17.5C313.667 17.524 313.799 17.56 313.911 17.608H316.023V18.628H314.919V18.676C315.031 18.796 315.119 18.936 315.183 19.096C315.247 19.248 315.279 19.428 315.279 19.636C315.279 20.068 315.179 20.432 314.979 20.728C314.779 21.024 314.511 21.248 314.175 21.4C313.839 21.552 313.463 21.628 313.047 21.628C312.919 21.628 312.787 21.616 312.651 21.592C312.515 21.568 312.379 21.528 312.243 21.472C312.163 21.552 312.095 21.632 312.039 21.712C311.983 21.792 311.955 21.9 311.955 22.036C311.955 22.204 312.027 22.336 312.171 22.432C312.315 22.528 312.563 22.576 312.915 22.576H313.959C314.671 22.576 315.207 22.692 315.567 22.924C315.935 23.148 316.119 23.516 316.119 24.028C316.119 24.412 315.991 24.76 315.735 25.072C315.479 25.392 315.115 25.644 314.643 25.828C314.171 26.012 313.615 26.104 312.975 26.104ZM313.047 20.764C313.231 20.764 313.399 20.72 313.551 20.632C313.711 20.536 313.835 20.4 313.923 20.224C314.019 20.04 314.067 19.824 314.067 19.576C314.067 19.2 313.967 18.912 313.767 18.712C313.575 18.512 313.335 18.412 313.047 18.412C312.759 18.412 312.515 18.512 312.315 18.712C312.115 18.912 312.015 19.2 312.015 19.576C312.015 19.824 312.063 20.04 312.159 20.224C312.255 20.4 312.379 20.536 312.531 20.632C312.683 20.72 312.855 20.764 313.047 20.764ZM313.191 25.204C313.503 25.204 313.779 25.16 314.019 25.072C314.259 24.992 314.447 24.876 314.583 24.724C314.719 24.58 314.787 24.424 314.787 24.256C314.787 24.024 314.695 23.868 314.511 23.788C314.335 23.708 314.079 23.668 313.743 23.668H312.939C312.779 23.668 312.635 23.66 312.507 23.644C312.379 23.628 312.255 23.608 312.135 23.584C311.983 23.704 311.867 23.828 311.787 23.956C311.715 24.084 311.679 24.22 311.679 24.364C311.679 24.628 311.815 24.832 312.087 24.976C312.359 25.128 312.727 25.204 313.191 25.204ZM317.025 23.5V17.608H318.405V23.5H317.025ZM317.709 16.576C317.469 16.576 317.269 16.504 317.109 16.36C316.957 16.216 316.881 16.024 316.881 15.784C316.881 15.544 316.957 15.356 317.109 15.22C317.269 15.076 317.469 15.004 317.709 15.004C317.957 15.004 318.157 15.076 318.309 15.22C318.461 15.356 318.537 15.544 318.537 15.784C318.537 16.024 318.461 16.216 318.309 16.36C318.157 16.504 317.957 16.576 317.709 16.576ZM321.678 23.644C321.27 23.644 320.866 23.568 320.466 23.416C320.074 23.264 319.734 23.052 319.446 22.78L320.058 21.988C320.322 22.204 320.59 22.36 320.862 22.456C321.134 22.552 321.422 22.6 321.726 22.6C322.046 22.6 322.282 22.532 322.434 22.396C322.586 22.26 322.662 22.092 322.662 21.892C322.662 21.732 322.602 21.596 322.482 21.484C322.37 21.372 322.222 21.276 322.038 21.196C321.854 21.116 321.65 21.036 321.426 20.956C321.138 20.852 320.87 20.728 320.622 20.584C320.374 20.432 320.17 20.248 320.01 20.032C319.858 19.808 319.782 19.54 319.782 19.228C319.782 18.708 319.974 18.284 320.358 17.956C320.742 17.628 321.262 17.464 321.918 17.464C322.318 17.464 322.686 17.532 323.022 17.668C323.358 17.796 323.646 17.964 323.886 18.172L323.274 18.952C323.066 18.8 322.854 18.688 322.638 18.616C322.422 18.544 322.194 18.508 321.954 18.508C321.658 18.508 321.438 18.572 321.294 18.7C321.15 18.828 321.078 18.98 321.078 19.156C321.078 19.3 321.122 19.424 321.21 19.528C321.306 19.624 321.442 19.712 321.618 19.792C321.794 19.864 322.006 19.94 322.254 20.02C322.558 20.124 322.842 20.252 323.106 20.404C323.37 20.548 323.578 20.736 323.73 20.968C323.89 21.192 323.97 21.476 323.97 21.82C323.97 22.156 323.882 22.464 323.706 22.744C323.53 23.016 323.27 23.236 322.926 23.404C322.59 23.564 322.174 23.644 321.678 23.644ZM326.912 23.62C326.232 23.62 325.748 23.424 325.46 23.032C325.18 22.632 325.04 22.116 325.04 21.484V18.7H324.2V17.668L325.112 17.608L325.28 15.76H326.432V17.608H327.932V18.7H326.432V21.484C326.432 21.828 326.5 22.088 326.636 22.264C326.772 22.432 326.98 22.516 327.26 22.516C327.364 22.516 327.468 22.508 327.572 22.492C327.676 22.476 327.776 22.444 327.872 22.396L328.124 23.368C327.972 23.44 327.792 23.5 327.584 23.548C327.376 23.596 327.152 23.62 326.912 23.62ZM329.784 23.644C329.536 23.644 329.324 23.556 329.148 23.38C328.972 23.196 328.884 22.972 328.884 22.708C328.884 22.436 328.972 22.212 329.148 22.036C329.324 21.86 329.536 21.772 329.784 21.772C330.04 21.772 330.252 21.86 330.42 22.036C330.588 22.212 330.672 22.436 330.672 22.708C330.672 22.972 330.588 23.196 330.42 23.38C330.252 23.556 330.04 23.644 329.784 23.644ZM334.229 26.104C333.757 26.104 333.337 26.048 332.969 25.936C332.601 25.824 332.309 25.652 332.093 25.42C331.885 25.196 331.781 24.912 331.781 24.568C331.781 24.32 331.853 24.088 331.997 23.872C332.149 23.664 332.357 23.476 332.621 23.308V23.26C332.477 23.164 332.353 23.036 332.249 22.876C332.145 22.716 332.093 22.516 332.093 22.276C332.093 22.052 332.157 21.844 332.285 21.652C332.421 21.46 332.573 21.304 332.741 21.184V21.136C332.541 20.984 332.361 20.772 332.201 20.5C332.049 20.228 331.973 19.92 331.973 19.576C331.973 19.128 332.081 18.748 332.297 18.436C332.513 18.116 332.797 17.876 333.149 17.716C333.501 17.548 333.885 17.464 334.301 17.464C334.461 17.464 334.617 17.476 334.769 17.5C334.921 17.524 335.053 17.56 335.165 17.608H337.277V18.628H336.173V18.676C336.285 18.796 336.373 18.936 336.437 19.096C336.501 19.248 336.533 19.428 336.533 19.636C336.533 20.068 336.433 20.432 336.233 20.728C336.033 21.024 335.765 21.248 335.429 21.4C335.093 21.552 334.717 21.628 334.301 21.628C334.173 21.628 334.041 21.616 333.905 21.592C333.769 21.568 333.633 21.528 333.497 21.472C333.417 21.552 333.349 21.632 333.293 21.712C333.237 21.792 333.209 21.9 333.209 22.036C333.209 22.204 333.281 22.336 333.425 22.432C333.569 22.528 333.817 22.576 334.169 22.576H335.213C335.925 22.576 336.461 22.692 336.821 22.924C337.189 23.148 337.373 23.516 337.373 24.028C337.373 24.412 337.245 24.76 336.989 25.072C336.733 25.392 336.369 25.644 335.897 25.828C335.425 26.012 334.869 26.104 334.229 26.104ZM334.301 20.764C334.485 20.764 334.653 20.72 334.805 20.632C334.965 20.536 335.089 20.4 335.177 20.224C335.273 20.04 335.321 19.824 335.321 19.576C335.321 19.2 335.221 18.912 335.021 18.712C334.829 18.512 334.589 18.412 334.301 18.412C334.013 18.412 333.769 18.512 333.569 18.712C333.369 18.912 333.269 19.2 333.269 19.576C333.269 19.824 333.317 20.04 333.413 20.224C333.509 20.4 333.633 20.536 333.785 20.632C333.937 20.72 334.109 20.764 334.301 20.764ZM334.445 25.204C334.757 25.204 335.033 25.16 335.273 25.072C335.513 24.992 335.701 24.876 335.837 24.724C335.973 24.58 336.041 24.424 336.041 24.256C336.041 24.024 335.949 23.868 335.765 23.788C335.589 23.708 335.333 23.668 334.997 23.668H334.193C334.033 23.668 333.889 23.66 333.761 23.644C333.633 23.628 333.509 23.608 333.389 23.584C333.237 23.704 333.121 23.828 333.041 23.956C332.969 24.084 332.933 24.22 332.933 24.364C332.933 24.628 333.069 24.832 333.341 24.976C333.613 25.128 333.981 25.204 334.445 25.204ZM338.279 23.5V17.608H339.659V23.5H338.279ZM338.963 16.576C338.723 16.576 338.523 16.504 338.363 16.36C338.211 16.216 338.135 16.024 338.135 15.784C338.135 15.544 338.211 15.356 338.363 15.22C338.523 15.076 338.723 15.004 338.963 15.004C339.211 15.004 339.411 15.076 339.563 15.22C339.715 15.356 339.791 15.544 339.791 15.784C339.791 16.024 339.715 16.216 339.563 16.36C339.411 16.504 339.211 16.576 338.963 16.576ZM343.364 23.62C342.684 23.62 342.2 23.424 341.912 23.032C341.632 22.632 341.492 22.116 341.492 21.484V18.7H340.652V17.668L341.564 17.608L341.732 15.76H342.884V17.608H344.384V18.7H342.884V21.484C342.884 21.828 342.952 22.088 343.088 22.264C343.224 22.432 343.432 22.516 343.712 22.516C343.816 22.516 343.92 22.508 344.024 22.492C344.128 22.476 344.228 22.444 344.324 22.396L344.576 23.368C344.424 23.44 344.244 23.5 344.036 23.548C343.828 23.596 343.604 23.62 343.364 23.62ZM345.492 23.5V15.028H346.872V17.212L346.824 18.352C347.072 18.12 347.348 17.916 347.652 17.74C347.956 17.556 348.308 17.464 348.708 17.464C349.34 17.464 349.8 17.668 350.088 18.076C350.376 18.484 350.52 19.06 350.52 19.804V23.5H349.14V19.984C349.14 19.496 349.068 19.152 348.924 18.952C348.78 18.752 348.544 18.652 348.216 18.652C347.96 18.652 347.732 18.716 347.532 18.844C347.34 18.964 347.12 19.144 346.872 19.384V23.5H345.492ZM353.803 23.644C353.171 23.644 352.711 23.44 352.423 23.032C352.135 22.624 351.991 22.048 351.991 21.304V17.608H353.371V21.124C353.371 21.612 353.443 21.956 353.587 22.156C353.731 22.356 353.963 22.456 354.283 22.456C354.539 22.456 354.763 22.392 354.955 22.264C355.155 22.136 355.367 21.928 355.591 21.64V17.608H356.971V23.5H355.843L355.735 22.636H355.699C355.443 22.94 355.163 23.184 354.859 23.368C354.555 23.552 354.203 23.644 353.803 23.644ZM361.443 23.644C361.179 23.644 360.907 23.58 360.627 23.452C360.355 23.316 360.091 23.124 359.835 22.876H359.799L359.679 23.5H358.587V15.028H359.967V17.212L359.931 18.196C360.179 17.98 360.447 17.804 360.735 17.668C361.031 17.532 361.331 17.464 361.635 17.464C362.123 17.464 362.539 17.588 362.883 17.836C363.235 18.084 363.503 18.432 363.687 18.88C363.871 19.32 363.963 19.844 363.963 20.452C363.963 21.124 363.843 21.7 363.603 22.18C363.363 22.652 363.051 23.016 362.667 23.272C362.291 23.52 361.883 23.644 361.443 23.644ZM361.155 22.504C361.419 22.504 361.655 22.428 361.863 22.276C362.071 22.124 362.235 21.9 362.355 21.604C362.475 21.3 362.535 20.924 362.535 20.476C362.535 20.084 362.491 19.748 362.403 19.468C362.315 19.188 362.175 18.976 361.983 18.832C361.799 18.68 361.559 18.604 361.263 18.604C361.047 18.604 360.835 18.66 360.627 18.772C360.419 18.876 360.199 19.04 359.967 19.264V22.012C360.175 22.188 360.383 22.316 360.591 22.396C360.799 22.468 360.987 22.504 361.155 22.504ZM365.88 23.644C365.632 23.644 365.42 23.556 365.244 23.38C365.068 23.196 364.98 22.972 364.98 22.708C364.98 22.436 365.068 22.212 365.244 22.036C365.42 21.86 365.632 21.772 365.88 21.772C366.136 21.772 366.348 21.86 366.516 22.036C366.684 22.212 366.768 22.436 366.768 22.708C366.768 22.972 366.684 23.196 366.516 23.38C366.348 23.556 366.136 23.644 365.88 23.644ZM370.628 23.644C370.084 23.644 369.596 23.524 369.164 23.284C368.732 23.036 368.388 22.684 368.132 22.228C367.884 21.764 367.76 21.208 367.76 20.56C367.76 19.904 367.896 19.348 368.168 18.892C368.44 18.428 368.8 18.076 369.248 17.836C369.704 17.588 370.192 17.464 370.712 17.464C371.088 17.464 371.416 17.528 371.696 17.656C371.984 17.776 372.232 17.932 372.44 18.124L371.78 18.988C371.652 18.868 371.504 18.772 371.336 18.7C371.176 18.628 370.992 18.592 370.784 18.592C370.472 18.592 370.196 18.676 369.956 18.844C369.716 19.004 369.524 19.232 369.38 19.528C369.244 19.816 369.176 20.16 369.176 20.56C369.176 20.952 369.244 21.296 369.38 21.592C369.516 21.88 369.7 22.108 369.932 22.276C370.172 22.436 370.448 22.516 370.76 22.516C370.992 22.516 371.208 22.472 371.408 22.384C371.616 22.296 371.8 22.184 371.96 22.048L372.524 22.9C372.276 23.124 371.988 23.304 371.66 23.44C371.34 23.576 370.996 23.644 370.628 23.644ZM375.674 23.644C375.186 23.644 374.73 23.524 374.306 23.284C373.882 23.036 373.538 22.684 373.274 22.228C373.01 21.764 372.878 21.208 372.878 20.56C372.878 19.904 373.01 19.348 373.274 18.892C373.538 18.428 373.882 18.076 374.306 17.836C374.73 17.588 375.186 17.464 375.674 17.464C376.17 17.464 376.63 17.588 377.054 17.836C377.478 18.076 377.822 18.428 378.086 18.892C378.35 19.348 378.482 19.904 378.482 20.56C378.482 21.208 378.35 21.764 378.086 22.228C377.822 22.684 377.478 23.036 377.054 23.284C376.63 23.524 376.17 23.644 375.674 23.644ZM375.674 22.516C375.962 22.516 376.21 22.436 376.418 22.276C376.626 22.116 376.786 21.888 376.898 21.592C377.01 21.296 377.066 20.952 377.066 20.56C377.066 20.168 377.01 19.824 376.898 19.528C376.786 19.232 376.626 19.004 376.418 18.844C376.21 18.676 375.962 18.592 375.674 18.592C375.386 18.592 375.138 18.676 374.93 18.844C374.73 19.004 374.574 19.232 374.462 19.528C374.35 19.824 374.294 20.168 374.294 20.56C374.294 20.952 374.35 21.296 374.462 21.592C374.574 21.888 374.73 22.116 374.93 22.276C375.138 22.436 375.386 22.516 375.674 22.516ZM379.716 23.5V17.608H380.856L380.952 18.412H381C381.248 18.148 381.516 17.924 381.804 17.74C382.1 17.556 382.432 17.464 382.8 17.464C383.24 17.464 383.588 17.556 383.844 17.74C384.1 17.924 384.296 18.184 384.432 18.52C384.712 18.216 385.004 17.964 385.308 17.764C385.612 17.564 385.952 17.464 386.328 17.464C386.952 17.464 387.412 17.668 387.708 18.076C388.004 18.484 388.152 19.06 388.152 19.804V23.5H386.76V19.984C386.76 19.496 386.688 19.152 386.544 18.952C386.4 18.752 386.172 18.652 385.86 18.652C385.668 18.652 385.472 18.712 385.272 18.832C385.072 18.952 384.856 19.136 384.624 19.384V23.5H383.244V19.984C383.244 19.496 383.168 19.152 383.016 18.952C382.872 18.752 382.644 18.652 382.332 18.652C381.964 18.652 381.552 18.896 381.096 19.384V23.5H379.716ZM310.804 41.5V33.652H312.196V41.5H310.804ZM314.059 41.5V33.652H316.531C317.115 33.652 317.635 33.728 318.091 33.88C318.547 34.032 318.907 34.284 319.171 34.636C319.435 34.988 319.567 35.468 319.567 36.076C319.567 36.652 319.435 37.128 319.171 37.504C318.915 37.88 318.559 38.16 318.103 38.344C317.655 38.528 317.147 38.62 316.579 38.62H315.451V41.5H314.059ZM315.451 37.504H316.471C317.055 37.504 317.487 37.384 317.767 37.144C318.055 36.904 318.199 36.548 318.199 36.076C318.199 35.58 318.047 35.24 317.743 35.056C317.447 34.864 317.007 34.768 316.423 34.768H315.451V37.504ZM321.571 37.54C321.323 37.54 321.111 37.452 320.935 37.276C320.759 37.092 320.671 36.868 320.671 36.604C320.671 36.332 320.759 36.108 320.935 35.932C321.111 35.756 321.323 35.668 321.571 35.668C321.827 35.668 322.039 35.756 322.207 35.932C322.375 36.108 322.459 36.332 322.459 36.604C322.459 36.868 322.375 37.092 322.207 37.276C322.039 37.452 321.827 37.54 321.571 37.54ZM321.571 41.644C321.323 41.644 321.111 41.556 320.935 41.38C320.759 41.196 320.671 40.972 320.671 40.708C320.671 40.436 320.759 40.212 320.935 40.036C321.111 39.86 321.323 39.772 321.571 39.772C321.827 39.772 322.039 39.86 322.207 40.036C322.375 40.212 322.459 40.436 322.459 40.708C322.459 40.972 322.375 41.196 322.207 41.38C322.039 41.556 321.827 41.644 321.571 41.644ZM326.246 41.5V40.372H327.95V35.356H326.546V34.492C326.922 34.42 327.25 34.336 327.53 34.24C327.81 34.136 328.07 34.012 328.31 33.868H329.342V40.372H330.842V41.5H326.246ZM334.967 41.5V36.736C334.967 36.52 334.975 36.256 334.991 35.944C335.007 35.632 335.019 35.368 335.027 35.152H334.979C334.883 35.344 334.783 35.54 334.679 35.74C334.575 35.932 334.467 36.132 334.355 36.34L332.963 38.464H337.223V39.532H331.595V38.596L334.619 33.868H336.263V41.5H334.967ZM340.471 41.644C339.679 41.644 339.047 41.304 338.575 40.624C338.111 39.936 337.879 38.944 337.879 37.648C337.879 36.36 338.111 35.384 338.575 34.72C339.047 34.056 339.679 33.724 340.471 33.724C341.263 33.724 341.891 34.056 342.355 34.72C342.827 35.384 343.063 36.36 343.063 37.648C343.063 38.944 342.827 39.936 342.355 40.624C341.891 41.304 341.263 41.644 340.471 41.644ZM340.471 40.564C340.719 40.564 340.939 40.472 341.131 40.288C341.323 40.104 341.471 39.8 341.575 39.376C341.687 38.944 341.743 38.368 341.743 37.648C341.743 36.928 341.687 36.36 341.575 35.944C341.471 35.528 341.323 35.236 341.131 35.068C340.939 34.892 340.719 34.804 340.471 34.804C340.231 34.804 340.015 34.892 339.823 35.068C339.631 35.236 339.479 35.528 339.367 35.944C339.255 36.36 339.199 36.928 339.199 37.648C339.199 38.368 339.255 38.944 339.367 39.376C339.479 39.8 339.631 40.104 339.823 40.288C340.015 40.472 340.231 40.564 340.471 40.564ZM345.076 41.644C344.828 41.644 344.616 41.556 344.44 41.38C344.264 41.196 344.176 40.972 344.176 40.708C344.176 40.436 344.264 40.212 344.44 40.036C344.616 39.86 344.828 39.772 345.076 39.772C345.332 39.772 345.544 39.86 345.712 40.036C345.88 40.212 345.964 40.436 345.964 40.708C345.964 40.972 345.88 41.196 345.712 41.38C345.544 41.556 345.332 41.644 345.076 41.644ZM349.676 41.644C349.18 41.644 348.736 41.556 348.344 41.38C347.952 41.196 347.644 40.948 347.42 40.636C347.196 40.316 347.084 39.952 347.084 39.544C347.084 39.224 347.148 38.944 347.276 38.704C347.404 38.456 347.572 38.24 347.78 38.056C347.996 37.872 348.224 37.716 348.464 37.588V37.54C348.176 37.324 347.928 37.072 347.72 36.784C347.512 36.496 347.408 36.152 347.408 35.752C347.408 35.344 347.508 34.988 347.708 34.684C347.908 34.372 348.18 34.136 348.524 33.976C348.876 33.808 349.272 33.724 349.712 33.724C350.4 33.724 350.944 33.916 351.344 34.3C351.752 34.676 351.956 35.172 351.956 35.788C351.956 36.036 351.904 36.272 351.8 36.496C351.704 36.72 351.576 36.92 351.416 37.096C351.264 37.272 351.104 37.42 350.936 37.54V37.588C351.168 37.716 351.384 37.872 351.584 38.056C351.784 38.232 351.944 38.444 352.064 38.692C352.192 38.932 352.256 39.224 352.256 39.568C352.256 39.96 352.148 40.312 351.932 40.624C351.716 40.936 351.416 41.184 351.032 41.368C350.648 41.552 350.196 41.644 349.676 41.644ZM350.18 37.192C350.388 36.984 350.544 36.772 350.648 36.556C350.76 36.34 350.816 36.112 350.816 35.872C350.816 35.648 350.772 35.448 350.684 35.272C350.596 35.096 350.468 34.96 350.3 34.864C350.132 34.76 349.928 34.708 349.688 34.708C349.392 34.708 349.144 34.8 348.944 34.984C348.744 35.168 348.644 35.424 348.644 35.752C348.644 36.008 348.712 36.224 348.848 36.4C348.992 36.568 349.18 36.716 349.412 36.844C349.644 36.964 349.9 37.08 350.18 37.192ZM349.7 40.66C349.948 40.66 350.164 40.616 350.348 40.528C350.54 40.432 350.688 40.3 350.792 40.132C350.904 39.964 350.96 39.76 350.96 39.52C350.96 39.248 350.876 39.024 350.708 38.848C350.548 38.664 350.328 38.508 350.048 38.38C349.776 38.244 349.468 38.108 349.124 37.972C348.892 38.14 348.696 38.348 348.536 38.596C348.376 38.836 348.296 39.104 348.296 39.4C348.296 39.656 348.356 39.88 348.476 40.072C348.604 40.256 348.772 40.4 348.98 40.504C349.196 40.608 349.436 40.66 349.7 40.66ZM353.069 41.5V40.648C353.773 39.992 354.381 39.396 354.893 38.86C355.413 38.316 355.813 37.824 356.093 37.384C356.381 36.936 356.525 36.52 356.525 36.136C356.525 35.728 356.417 35.408 356.201 35.176C355.993 34.936 355.681 34.816 355.265 34.816C354.969 34.816 354.697 34.9 354.449 35.068C354.209 35.236 353.985 35.436 353.777 35.668L353.033 34.936C353.377 34.552 353.737 34.256 354.113 34.048C354.489 33.832 354.933 33.724 355.445 33.724C355.933 33.724 356.357 33.82 356.717 34.012C357.077 34.204 357.357 34.476 357.557 34.828C357.757 35.172 357.857 35.58 357.857 36.052C357.857 36.524 357.725 36.992 357.461 37.456C357.205 37.92 356.857 38.396 356.417 38.884C355.977 39.364 355.489 39.872 354.953 40.408C355.153 40.384 355.369 40.364 355.601 40.348C355.841 40.332 356.053 40.324 356.237 40.324H358.229V41.5H353.069ZM360.289 41.644C360.041 41.644 359.829 41.556 359.653 41.38C359.477 41.196 359.389 40.972 359.389 40.708C359.389 40.436 359.477 40.212 359.653 40.036C359.829 39.86 360.041 39.772 360.289 39.772C360.545 39.772 360.757 39.86 360.925 40.036C361.093 40.212 361.177 40.436 361.177 40.708C361.177 40.972 361.093 41.196 360.925 41.38C360.757 41.556 360.545 41.644 360.289 41.644ZM362.694 41.5V40.372H364.398V35.356H362.994V34.492C363.37 34.42 363.698 34.336 363.978 34.24C364.258 34.136 364.518 34.012 364.758 33.868H365.79V40.372H367.29V41.5H362.694ZM368.714 41.5V40.372H370.418V35.356H369.014V34.492C369.39 34.42 369.718 34.336 369.998 34.24C370.278 34.136 370.538 34.012 370.778 33.868H371.81V40.372H373.31V41.5H368.714ZM377.146 41.644C376.77 41.644 376.414 41.572 376.078 41.428C375.75 41.276 375.458 41.048 375.202 40.744C374.946 40.44 374.742 40.052 374.59 39.58C374.446 39.108 374.374 38.552 374.374 37.912C374.374 37.176 374.454 36.544 374.614 36.016C374.782 35.48 375.006 35.044 375.286 34.708C375.574 34.372 375.894 34.124 376.246 33.964C376.606 33.804 376.982 33.724 377.374 33.724C377.838 33.724 378.238 33.808 378.574 33.976C378.91 34.144 379.19 34.348 379.414 34.588L378.67 35.428C378.534 35.26 378.354 35.124 378.13 35.02C377.914 34.908 377.69 34.852 377.458 34.852C377.13 34.852 376.826 34.948 376.546 35.14C376.274 35.332 376.058 35.652 375.898 36.1C375.738 36.548 375.658 37.152 375.658 37.912C375.658 38.544 375.718 39.056 375.838 39.448C375.966 39.84 376.138 40.128 376.354 40.312C376.578 40.496 376.834 40.588 377.122 40.588C377.338 40.588 377.53 40.532 377.698 40.42C377.874 40.308 378.01 40.144 378.106 39.928C378.21 39.712 378.262 39.448 378.262 39.136C378.262 38.832 378.214 38.58 378.118 38.38C378.022 38.18 377.886 38.032 377.71 37.936C377.534 37.832 377.318 37.78 377.062 37.78C376.838 37.78 376.598 37.852 376.342 37.996C376.094 38.132 375.862 38.376 375.646 38.728L375.598 37.756C375.814 37.444 376.082 37.204 376.402 37.036C376.722 36.86 377.026 36.772 377.314 36.772C377.754 36.772 378.142 36.86 378.478 37.036C378.814 37.204 379.074 37.464 379.258 37.816C379.45 38.168 379.546 38.608 379.546 39.136C379.546 39.648 379.434 40.092 379.21 40.468C378.994 40.844 378.702 41.136 378.334 41.344C377.974 41.544 377.578 41.644 377.146 41.644ZM381.523 41.644C381.275 41.644 381.063 41.556 380.887 41.38C380.711 41.196 380.623 40.972 380.623 40.708C380.623 40.436 380.711 40.212 380.887 40.036C381.063 39.86 381.275 39.772 381.523 39.772C381.779 39.772 381.991 39.86 382.159 40.036C382.327 40.212 382.411 40.436 382.411 40.708C382.411 40.972 382.327 41.196 382.159 41.38C381.991 41.556 381.779 41.644 381.523 41.644ZM385.919 41.644C385.511 41.644 385.143 41.596 384.815 41.5C384.495 41.404 384.211 41.276 383.963 41.116C383.715 40.948 383.503 40.764 383.327 40.564L383.987 39.676C384.219 39.908 384.483 40.108 384.779 40.276C385.075 40.436 385.415 40.516 385.799 40.516C386.215 40.516 386.551 40.416 386.807 40.216C387.071 40.008 387.203 39.724 387.203 39.364C387.203 39.1 387.135 38.872 386.999 38.68C386.871 38.488 386.643 38.34 386.315 38.236C385.995 38.124 385.543 38.068 384.959 38.068V37.06C385.463 37.06 385.859 37.008 386.147 36.904C386.435 36.792 386.639 36.648 386.759 36.472C386.887 36.288 386.951 36.076 386.951 35.836C386.951 35.516 386.851 35.268 386.651 35.092C386.451 34.908 386.175 34.816 385.823 34.816C385.527 34.816 385.255 34.884 385.007 35.02C384.759 35.148 384.519 35.32 384.287 35.536L383.579 34.684C383.907 34.396 384.259 34.164 384.635 33.988C385.011 33.812 385.423 33.724 385.871 33.724C386.359 33.724 386.787 33.804 387.155 33.964C387.523 34.116 387.811 34.344 388.019 34.648C388.235 34.944 388.343 35.308 388.343 35.74C388.343 36.164 388.223 36.52 387.983 36.808C387.751 37.096 387.427 37.324 387.011 37.492V37.54C387.307 37.62 387.575 37.744 387.815 37.912C388.055 38.08 388.243 38.292 388.379 38.548C388.523 38.804 388.595 39.1 388.595 39.436C388.595 39.9 388.471 40.3 388.223 40.636C387.983 40.964 387.659 41.216 387.251 41.392C386.851 41.56 386.407 41.644 385.919 41.644Z" fill="#1B140E"/>
<path d="M351 57C351 56.1716 350.328 55.5 349.5 55.5C348.672 55.5 348 56.1716 348 57H351ZM342.84 100C342.011 100 341.426 101.015 341.84 101.732L348.5 113.268C348.914 113.985 350.086 113.985 350.5 113.268L357.16 101.732C357.574 101.015 356.989 100 356.16 100H342.84ZM348 65.9231C348 66.7515 348.672 67.4231 349.5 67.4231C350.328 67.4231 351 66.7515 351 65.9231H348ZM351 77.0769C351 76.2485 350.328 75.5769 349.5 75.5769C348.672 75.5769 348 76.2485 348 77.0769H351ZM348 94.9231C348 95.7515 348.672 96.4231 349.5 96.4231C350.328 96.4231 351 95.7515 351 94.9231H348ZM351 106.077C351 105.248 350.328 104.577 349.5 104.577C348.672 104.577 348 105.248 348 106.077H351ZM348 57V65.9231H351V57H348ZM348 77.0769V94.9231H351V77.0769H348Z" fill="#1B140E"/>
<defs>
<clipPath id="clip0_1047_606">
<rect width="43" height="42.1224" fill="white" transform="translate(624 81)"/>
</clipPath>
</defs>
</svg>
