<svg width="680" height="176" viewBox="0 0 680 176" fill="none" xmlns="http://www.w3.org/2000/svg">
<rect width="176" height="176" rx="6" fill="#EBEBEA"/>
<rect x="252" y="89" width="176" height="30" rx="3" stroke="#1B140E" stroke-width="4" stroke-linecap="round"/>
<path d="M283.492 109.192C282.884 109.192 282.335 109.107 281.844 108.936C281.364 108.765 280.948 108.493 280.596 108.12C280.255 107.747 279.988 107.261 279.796 106.664C279.615 106.067 279.524 105.347 279.524 104.504V98.536H281.38V104.648C281.38 105.384 281.465 105.965 281.636 106.392C281.817 106.819 282.068 107.123 282.388 107.304C282.708 107.485 283.076 107.576 283.492 107.576C283.919 107.576 284.292 107.485 284.612 107.304C284.943 107.123 285.199 106.819 285.38 106.392C285.572 105.965 285.668 105.384 285.668 104.648V98.536H287.444V104.504C287.444 105.347 287.353 106.067 287.172 106.664C286.991 107.261 286.724 107.747 286.372 108.12C286.031 108.493 285.615 108.765 285.124 108.936C284.644 109.107 284.1 109.192 283.492 109.192ZM289.72 112.104V101.144H291.24L291.368 101.976H291.432C291.763 101.688 292.131 101.448 292.536 101.256C292.942 101.053 293.363 100.952 293.8 100.952C294.451 100.952 295.006 101.117 295.464 101.448C295.923 101.779 296.275 102.243 296.52 102.84C296.766 103.437 296.888 104.141 296.888 104.952C296.888 105.848 296.728 106.611 296.408 107.24C296.088 107.869 295.672 108.355 295.16 108.696C294.659 109.027 294.115 109.192 293.528 109.192C293.187 109.192 292.846 109.117 292.504 108.968C292.163 108.819 291.832 108.605 291.512 108.328L291.56 109.64V112.104H289.72ZM293.144 107.672C293.496 107.672 293.811 107.571 294.088 107.368C294.366 107.165 294.584 106.867 294.744 106.472C294.904 106.067 294.984 105.565 294.984 104.968C294.984 104.445 294.926 103.997 294.808 103.624C294.691 103.251 294.504 102.968 294.248 102.776C294.003 102.573 293.683 102.472 293.288 102.472C293 102.472 292.718 102.547 292.44 102.696C292.163 102.835 291.87 103.053 291.56 103.352V107.016C291.848 107.251 292.126 107.421 292.392 107.528C292.67 107.624 292.92 107.672 293.144 107.672ZM300.705 109.192C300.161 109.192 299.622 109.091 299.089 108.888C298.566 108.685 298.113 108.403 297.729 108.04L298.545 106.984C298.897 107.272 299.254 107.48 299.617 107.608C299.98 107.736 300.364 107.8 300.769 107.8C301.196 107.8 301.51 107.709 301.713 107.528C301.916 107.347 302.017 107.123 302.017 106.856C302.017 106.643 301.937 106.461 301.777 106.312C301.628 106.163 301.43 106.035 301.185 105.928C300.94 105.821 300.668 105.715 300.369 105.608C299.985 105.469 299.628 105.304 299.297 105.112C298.966 104.909 298.694 104.664 298.481 104.376C298.278 104.077 298.177 103.72 298.177 103.304C298.177 102.611 298.433 102.045 298.945 101.608C299.457 101.171 300.15 100.952 301.025 100.952C301.558 100.952 302.049 101.043 302.497 101.224C302.945 101.395 303.329 101.619 303.649 101.896L302.833 102.936C302.556 102.733 302.273 102.584 301.985 102.488C301.697 102.392 301.393 102.344 301.073 102.344C300.678 102.344 300.385 102.429 300.193 102.6C300.001 102.771 299.905 102.973 299.905 103.208C299.905 103.4 299.964 103.565 300.081 103.704C300.209 103.832 300.39 103.949 300.625 104.056C300.86 104.152 301.142 104.253 301.473 104.36C301.878 104.499 302.257 104.669 302.609 104.872C302.961 105.064 303.238 105.315 303.441 105.624C303.654 105.923 303.761 106.301 303.761 106.76C303.761 107.208 303.644 107.619 303.409 107.992C303.174 108.355 302.828 108.648 302.369 108.872C301.921 109.085 301.366 109.192 300.705 109.192ZM307.683 109.16C306.777 109.16 306.131 108.899 305.747 108.376C305.374 107.843 305.187 107.155 305.187 106.312V102.6H304.067V101.224L305.283 101.144L305.507 98.68H307.043V101.144H309.043V102.6H307.043V106.312C307.043 106.771 307.134 107.117 307.315 107.352C307.497 107.576 307.774 107.688 308.147 107.688C308.286 107.688 308.425 107.677 308.563 107.656C308.702 107.635 308.835 107.592 308.963 107.528L309.299 108.824C309.097 108.92 308.857 109 308.579 109.064C308.302 109.128 308.003 109.16 307.683 109.16ZM310.52 109V101.144H312.04L312.168 102.536H312.232C312.51 102.024 312.84 101.635 313.224 101.368C313.619 101.091 314.03 100.952 314.456 100.952C314.659 100.952 314.83 100.963 314.968 100.984C315.107 101.005 315.235 101.048 315.352 101.112L314.984 102.68C314.856 102.648 314.739 102.627 314.632 102.616C314.526 102.595 314.387 102.584 314.216 102.584C313.907 102.584 313.582 102.707 313.24 102.952C312.899 103.187 312.606 103.603 312.36 104.2V109H310.52ZM319.533 109.192C318.797 109.192 318.13 109.032 317.533 108.712C316.946 108.381 316.482 107.912 316.141 107.304C315.8 106.685 315.629 105.939 315.629 105.064C315.629 104.211 315.805 103.48 316.157 102.872C316.509 102.253 316.962 101.779 317.517 101.448C318.072 101.117 318.658 100.952 319.277 100.952C319.992 100.952 320.589 101.112 321.069 101.432C321.549 101.752 321.906 102.195 322.141 102.76C322.386 103.315 322.509 103.955 322.509 104.68C322.509 104.851 322.498 105.016 322.477 105.176C322.466 105.336 322.445 105.491 322.413 105.64H317.005V104.232H320.877C320.877 103.667 320.749 103.224 320.493 102.904C320.237 102.573 319.842 102.408 319.309 102.408C319.01 102.408 318.717 102.488 318.429 102.648C318.152 102.808 317.917 103.08 317.725 103.464C317.544 103.848 317.453 104.381 317.453 105.064C317.453 105.683 317.56 106.189 317.773 106.584C317.986 106.968 318.269 107.256 318.621 107.448C318.973 107.629 319.352 107.72 319.757 107.72C320.098 107.72 320.418 107.672 320.717 107.576C321.026 107.48 321.314 107.347 321.581 107.176L322.221 108.36C321.858 108.616 321.442 108.819 320.973 108.968C320.514 109.117 320.034 109.192 319.533 109.192ZM325.807 109.192C325.348 109.192 324.943 109.096 324.591 108.904C324.239 108.712 323.961 108.445 323.759 108.104C323.567 107.752 323.471 107.347 323.471 106.888C323.471 106.003 323.839 105.336 324.575 104.888C325.321 104.429 326.5 104.115 328.111 103.944C328.1 103.677 328.047 103.432 327.951 103.208C327.865 102.984 327.716 102.808 327.503 102.68C327.3 102.541 327.023 102.472 326.671 102.472C326.287 102.472 325.908 102.541 325.535 102.68C325.172 102.819 324.815 102.995 324.463 103.208L323.791 101.96C324.079 101.779 324.393 101.613 324.735 101.464C325.076 101.304 325.439 101.181 325.823 101.096C326.207 101 326.607 100.952 327.023 100.952C327.673 100.952 328.212 101.085 328.639 101.352C329.076 101.608 329.401 101.992 329.615 102.504C329.839 103.005 329.951 103.624 329.951 104.36V109H328.431L328.303 108.136H328.239C327.876 108.435 327.497 108.685 327.103 108.888C326.708 109.091 326.276 109.192 325.807 109.192ZM326.383 107.688C326.703 107.688 326.996 107.624 327.263 107.496C327.54 107.357 327.823 107.155 328.111 106.888V105.224C327.396 105.309 326.831 105.421 326.415 105.56C325.999 105.699 325.7 105.869 325.519 106.072C325.348 106.264 325.263 106.493 325.263 106.76C325.263 107.091 325.369 107.331 325.583 107.48C325.796 107.619 326.063 107.688 326.383 107.688ZM331.977 109V101.144H333.497L333.625 102.216H333.689C334.019 101.864 334.377 101.565 334.761 101.32C335.155 101.075 335.598 100.952 336.089 100.952C336.675 100.952 337.139 101.075 337.481 101.32C337.822 101.565 338.083 101.912 338.265 102.36C338.638 101.955 339.027 101.619 339.433 101.352C339.838 101.085 340.291 100.952 340.793 100.952C341.625 100.952 342.238 101.224 342.633 101.768C343.027 102.312 343.225 103.08 343.225 104.072V109H341.369V104.312C341.369 103.661 341.273 103.203 341.081 102.936C340.889 102.669 340.585 102.536 340.169 102.536C339.913 102.536 339.651 102.616 339.385 102.776C339.118 102.936 338.83 103.181 338.521 103.512V109H336.681V104.312C336.681 103.661 336.579 103.203 336.377 102.936C336.185 102.669 335.881 102.536 335.465 102.536C334.974 102.536 334.425 102.861 333.817 103.512V109H331.977ZM348.312 109V101.144H349.832L349.96 102.536H350.024C350.302 102.024 350.632 101.635 351.016 101.368C351.411 101.091 351.822 100.952 352.248 100.952C352.451 100.952 352.622 100.963 352.76 100.984C352.899 101.005 353.027 101.048 353.144 101.112L352.776 102.68C352.648 102.648 352.531 102.627 352.424 102.616C352.318 102.595 352.179 102.584 352.008 102.584C351.699 102.584 351.374 102.707 351.032 102.952C350.691 103.187 350.398 103.603 350.152 104.2V109H348.312ZM357.325 109.192C356.589 109.192 355.922 109.032 355.325 108.712C354.738 108.381 354.274 107.912 353.933 107.304C353.591 106.685 353.421 105.939 353.421 105.064C353.421 104.211 353.597 103.48 353.949 102.872C354.301 102.253 354.754 101.779 355.309 101.448C355.863 101.117 356.45 100.952 357.069 100.952C357.783 100.952 358.381 101.112 358.861 101.432C359.341 101.752 359.698 102.195 359.933 102.76C360.178 103.315 360.301 103.955 360.301 104.68C360.301 104.851 360.29 105.016 360.269 105.176C360.258 105.336 360.237 105.491 360.205 105.64H354.797V104.232H358.669C358.669 103.667 358.541 103.224 358.285 102.904C358.029 102.573 357.634 102.408 357.101 102.408C356.802 102.408 356.509 102.488 356.221 102.648C355.943 102.808 355.709 103.08 355.517 103.464C355.335 103.848 355.245 104.381 355.245 105.064C355.245 105.683 355.351 106.189 355.565 106.584C355.778 106.968 356.061 107.256 356.413 107.448C356.765 107.629 357.143 107.72 357.549 107.72C357.89 107.72 358.21 107.672 358.509 107.576C358.818 107.48 359.106 107.347 359.373 107.176L360.013 108.36C359.65 108.616 359.234 108.819 358.765 108.968C358.306 109.117 357.826 109.192 357.325 109.192ZM364.074 109.192C363.53 109.192 362.992 109.091 362.458 108.888C361.936 108.685 361.482 108.403 361.098 108.04L361.914 106.984C362.266 107.272 362.624 107.48 362.986 107.608C363.349 107.736 363.733 107.8 364.138 107.8C364.565 107.8 364.88 107.709 365.082 107.528C365.285 107.347 365.386 107.123 365.386 106.856C365.386 106.643 365.306 106.461 365.146 106.312C364.997 106.163 364.8 106.035 364.554 105.928C364.309 105.821 364.037 105.715 363.738 105.608C363.354 105.469 362.997 105.304 362.666 105.112C362.336 104.909 362.064 104.664 361.85 104.376C361.648 104.077 361.546 103.72 361.546 103.304C361.546 102.611 361.802 102.045 362.314 101.608C362.826 101.171 363.52 100.952 364.394 100.952C364.928 100.952 365.418 101.043 365.866 101.224C366.314 101.395 366.698 101.619 367.018 101.896L366.202 102.936C365.925 102.733 365.642 102.584 365.354 102.488C365.066 102.392 364.762 102.344 364.442 102.344C364.048 102.344 363.754 102.429 363.562 102.6C363.37 102.771 363.274 102.973 363.274 103.208C363.274 103.4 363.333 103.565 363.45 103.704C363.578 103.832 363.76 103.949 363.994 104.056C364.229 104.152 364.512 104.253 364.842 104.36C365.248 104.499 365.626 104.669 365.978 104.872C366.33 105.064 366.608 105.315 366.81 105.624C367.024 105.923 367.13 106.301 367.13 106.76C367.13 107.208 367.013 107.619 366.778 107.992C366.544 108.355 366.197 108.648 365.738 108.872C365.29 109.085 364.736 109.192 364.074 109.192ZM371.813 109.192C371.162 109.192 370.554 109.032 369.989 108.712C369.423 108.381 368.965 107.912 368.613 107.304C368.261 106.685 368.085 105.944 368.085 105.08C368.085 104.205 368.261 103.464 368.613 102.856C368.965 102.237 369.423 101.768 369.989 101.448C370.554 101.117 371.162 100.952 371.813 100.952C372.474 100.952 373.087 101.117 373.653 101.448C374.218 101.768 374.677 102.237 375.029 102.856C375.381 103.464 375.557 104.205 375.557 105.08C375.557 105.944 375.381 106.685 375.029 107.304C374.677 107.912 374.218 108.381 373.653 108.712C373.087 109.032 372.474 109.192 371.813 109.192ZM371.813 107.688C372.197 107.688 372.527 107.581 372.805 107.368C373.082 107.155 373.295 106.851 373.445 106.456C373.594 106.061 373.669 105.603 373.669 105.08C373.669 104.557 373.594 104.099 373.445 103.704C373.295 103.309 373.082 103.005 372.805 102.792C372.527 102.568 372.197 102.456 371.813 102.456C371.429 102.456 371.098 102.568 370.821 102.792C370.554 103.005 370.346 103.309 370.197 103.704C370.047 104.099 369.973 104.557 369.973 105.08C369.973 105.603 370.047 106.061 370.197 106.456C370.346 106.851 370.554 107.155 370.821 107.368C371.098 107.581 371.429 107.688 371.813 107.688ZM378.994 109.16C378.557 109.16 378.205 109.075 377.938 108.904C377.682 108.723 377.495 108.467 377.378 108.136C377.261 107.805 377.202 107.411 377.202 106.952V97.704H379.042V107.048C379.042 107.283 379.085 107.443 379.17 107.528C379.255 107.613 379.351 107.656 379.458 107.656C379.501 107.656 379.538 107.656 379.57 107.656C379.613 107.645 379.666 107.635 379.73 107.624L379.97 109C379.863 109.043 379.725 109.08 379.554 109.112C379.394 109.144 379.207 109.16 378.994 109.16ZM383.13 109L380.394 101.144H382.266L383.514 105.224C383.62 105.597 383.727 105.987 383.834 106.392C383.951 106.787 384.063 107.187 384.17 107.592H384.234C384.351 107.187 384.463 106.787 384.57 106.392C384.687 105.987 384.799 105.597 384.906 105.224L386.154 101.144H387.93L385.258 109H383.13ZM392.398 109.192C391.662 109.192 390.995 109.032 390.398 108.712C389.811 108.381 389.347 107.912 389.006 107.304C388.665 106.685 388.494 105.939 388.494 105.064C388.494 104.211 388.67 103.48 389.022 102.872C389.374 102.253 389.827 101.779 390.382 101.448C390.937 101.117 391.523 100.952 392.142 100.952C392.857 100.952 393.454 101.112 393.934 101.432C394.414 101.752 394.771 102.195 395.006 102.76C395.251 103.315 395.374 103.955 395.374 104.68C395.374 104.851 395.363 105.016 395.342 105.176C395.331 105.336 395.31 105.491 395.278 105.64H389.87V104.232H393.742C393.742 103.667 393.614 103.224 393.358 102.904C393.102 102.573 392.707 102.408 392.174 102.408C391.875 102.408 391.582 102.488 391.294 102.648C391.017 102.808 390.782 103.08 390.59 103.464C390.409 103.848 390.318 104.381 390.318 105.064C390.318 105.683 390.425 106.189 390.638 106.584C390.851 106.968 391.134 107.256 391.486 107.448C391.838 107.629 392.217 107.72 392.622 107.72C392.963 107.72 393.283 107.672 393.582 107.576C393.891 107.48 394.179 107.347 394.446 107.176L395.086 108.36C394.723 108.616 394.307 108.819 393.838 108.968C393.379 109.117 392.899 109.192 392.398 109.192ZM396.955 109V101.144H398.475L398.603 102.536H398.667C398.945 102.024 399.275 101.635 399.659 101.368C400.054 101.091 400.465 100.952 400.891 100.952C401.094 100.952 401.265 100.963 401.403 100.984C401.542 101.005 401.67 101.048 401.787 101.112L401.419 102.68C401.291 102.648 401.174 102.627 401.067 102.616C400.961 102.595 400.822 102.584 400.651 102.584C400.342 102.584 400.017 102.707 399.675 102.952C399.334 103.187 399.041 103.603 398.795 104.2V109H396.955Z" fill="#1B140E"/>
<rect x="504" width="176" height="176" rx="6" fill="#EBEBEA"/>
<path d="M45.072 28V24.112L41.936 17.536H43.92L45.056 20.208C45.2053 20.6027 45.3547 20.9867 45.504 21.36C45.6533 21.7227 45.8133 22.1067 45.984 22.512H46.048C46.2187 22.1067 46.384 21.7227 46.544 21.36C46.704 20.9867 46.8587 20.6027 47.008 20.208L48.144 17.536H50.08L46.928 24.112V28H45.072ZM53.458 28.192C52.8073 28.192 52.1993 28.032 51.634 27.712C51.0687 27.3813 50.61 26.912 50.258 26.304C49.906 25.6853 49.73 24.944 49.73 24.08C49.73 23.2053 49.906 22.464 50.258 21.856C50.61 21.2373 51.0687 20.768 51.634 20.448C52.1993 20.1173 52.8073 19.952 53.458 19.952C54.1193 19.952 54.7327 20.1173 55.298 20.448C55.8633 20.768 56.322 21.2373 56.674 21.856C57.026 22.464 57.202 23.2053 57.202 24.08C57.202 24.944 57.026 25.6853 56.674 26.304C56.322 26.912 55.8633 27.3813 55.298 27.712C54.7327 28.032 54.1193 28.192 53.458 28.192ZM53.458 26.688C53.842 26.688 54.1727 26.5813 54.45 26.368C54.7273 26.1547 54.9407 25.8507 55.09 25.456C55.2393 25.0613 55.314 24.6027 55.314 24.08C55.314 23.5573 55.2393 23.0987 55.09 22.704C54.9407 22.3093 54.7273 22.0053 54.45 21.792C54.1727 21.568 53.842 21.456 53.458 21.456C53.074 21.456 52.7433 21.568 52.466 21.792C52.1993 22.0053 51.9913 22.3093 51.842 22.704C51.6927 23.0987 51.618 23.5573 51.618 24.08C51.618 24.6027 51.6927 25.0613 51.842 25.456C51.9913 25.8507 52.1993 26.1547 52.466 26.368C52.7433 26.5813 53.074 26.688 53.458 26.688ZM61.1832 28.192C60.3406 28.192 59.7272 27.92 59.3432 27.376C58.9592 26.832 58.7672 26.064 58.7672 25.072V20.144H60.6072V24.832C60.6072 25.4827 60.7032 25.9413 60.8952 26.208C61.0872 26.4747 61.3966 26.608 61.8232 26.608C62.1646 26.608 62.4633 26.5227 62.7193 26.352C62.9859 26.1813 63.2686 25.904 63.5673 25.52V20.144H65.4072V28H63.9033L63.7593 26.848H63.7112C63.3699 27.2533 62.9966 27.5787 62.5912 27.824C62.1859 28.0693 61.7166 28.192 61.1832 28.192ZM67.5619 28V20.144H69.0819L69.2099 21.536H69.2739C69.5512 21.024 69.8819 20.6347 70.2659 20.368C70.6605 20.0907 71.0712 19.952 71.4979 19.952C71.7005 19.952 71.8712 19.9627 72.0099 19.984C72.1485 20.0053 72.2765 20.048 72.3939 20.112L72.0259 21.68C71.8979 21.648 71.7805 21.6267 71.6739 21.616C71.5672 21.5947 71.4285 21.584 71.2579 21.584C70.9485 21.584 70.6232 21.7067 70.2819 21.952C69.9405 22.1867 69.6472 22.6027 69.4019 23.2V28H67.5619ZM76.3817 28V20.144H77.9017L78.0297 21.216H78.0937C78.4244 20.864 78.7817 20.5653 79.1657 20.32C79.5604 20.0747 80.0031 19.952 80.4937 19.952C81.0804 19.952 81.5444 20.0747 81.8857 20.32C82.2271 20.5653 82.4884 20.912 82.6697 21.36C83.0431 20.9547 83.4324 20.6187 83.8377 20.352C84.2431 20.0853 84.6964 19.952 85.1977 19.952C86.0297 19.952 86.6431 20.224 87.0377 20.768C87.4324 21.312 87.6297 22.08 87.6297 23.072V28H85.7737V23.312C85.7737 22.6613 85.6777 22.2027 85.4857 21.936C85.2937 21.6693 84.9897 21.536 84.5737 21.536C84.3177 21.536 84.0564 21.616 83.7897 21.776C83.5231 21.936 83.2351 22.1813 82.9257 22.512V28H81.0857V23.312C81.0857 22.6613 80.9844 22.2027 80.7817 21.936C80.5897 21.6693 80.2857 21.536 79.8697 21.536C79.3791 21.536 78.8297 21.8613 78.2217 22.512V28H76.3817ZM91.5941 28.192C91.1355 28.192 90.7301 28.096 90.3781 27.904C90.0261 27.712 89.7488 27.4453 89.5461 27.104C89.3541 26.752 89.2581 26.3467 89.2581 25.888C89.2581 25.0027 89.6261 24.336 90.3621 23.888C91.1088 23.4293 92.2875 23.1147 93.8981 22.944C93.8875 22.6773 93.8341 22.432 93.7381 22.208C93.6528 21.984 93.5035 21.808 93.2901 21.68C93.0875 21.5413 92.8101 21.472 92.4581 21.472C92.0741 21.472 91.6955 21.5413 91.3221 21.68C90.9595 21.8187 90.6021 21.9947 90.2501 22.208L89.5781 20.96C89.8661 20.7787 90.1808 20.6133 90.5221 20.464C90.8635 20.304 91.2261 20.1813 91.6101 20.096C91.9941 20 92.3941 19.952 92.8101 19.952C93.4608 19.952 93.9995 20.0853 94.4261 20.352C94.8635 20.608 95.1888 20.992 95.4021 21.504C95.6261 22.0053 95.7381 22.624 95.7381 23.36V28H94.2181L94.0901 27.136H94.0261C93.6635 27.4347 93.2848 27.6853 92.8901 27.888C92.4955 28.0907 92.0635 28.192 91.5941 28.192ZM92.1701 26.688C92.4901 26.688 92.7835 26.624 93.0501 26.496C93.3275 26.3573 93.6101 26.1547 93.8981 25.888V24.224C93.1835 24.3093 92.6181 24.4213 92.2021 24.56C91.7861 24.6987 91.4875 24.8693 91.3061 25.072C91.1355 25.264 91.0501 25.4933 91.0501 25.76C91.0501 26.0907 91.1568 26.3307 91.3701 26.48C91.5835 26.6187 91.8501 26.688 92.1701 26.688ZM101.076 28.192C100.351 28.192 99.7001 28.032 99.1241 27.712C98.5481 27.3813 98.0895 26.912 97.7481 26.304C97.4175 25.6853 97.2521 24.944 97.2521 24.08C97.2521 23.2053 97.4335 22.464 97.7961 21.856C98.1588 21.2373 98.6388 20.768 99.2361 20.448C99.8441 20.1173 100.495 19.952 101.188 19.952C101.689 19.952 102.127 20.0373 102.5 20.208C102.884 20.368 103.215 20.576 103.492 20.832L102.612 21.984C102.441 21.824 102.244 21.696 102.02 21.6C101.807 21.504 101.561 21.456 101.284 21.456C100.868 21.456 100.5 21.568 100.18 21.792C99.8601 22.0053 99.6041 22.3093 99.4121 22.704C99.2308 23.088 99.1401 23.5467 99.1401 24.08C99.1401 24.6027 99.2308 25.0613 99.4121 25.456C99.5935 25.84 99.8388 26.144 100.148 26.368C100.468 26.5813 100.836 26.688 101.252 26.688C101.561 26.688 101.849 26.6293 102.116 26.512C102.393 26.3947 102.639 26.2453 102.852 26.064L103.604 27.2C103.273 27.4987 102.889 27.7387 102.452 27.92C102.025 28.1013 101.567 28.192 101.076 28.192ZM104.979 28V16.704H106.819V19.616L106.755 21.136C107.085 20.8267 107.453 20.5547 107.859 20.32C108.264 20.0747 108.733 19.952 109.267 19.952C110.109 19.952 110.723 20.224 111.107 20.768C111.491 21.312 111.683 22.08 111.683 23.072V28H109.843V23.312C109.843 22.6613 109.747 22.2027 109.555 21.936C109.363 21.6693 109.048 21.536 108.611 21.536C108.269 21.536 107.965 21.6213 107.699 21.792C107.443 21.952 107.149 22.192 106.819 22.512V28H104.979ZM113.725 28V20.144H115.565V28H113.725ZM114.637 18.768C114.317 18.768 114.05 18.672 113.837 18.48C113.634 18.288 113.533 18.032 113.533 17.712C113.533 17.392 113.634 17.1413 113.837 16.96C114.05 16.768 114.317 16.672 114.637 16.672C114.967 16.672 115.234 16.768 115.437 16.96C115.639 17.1413 115.741 17.392 115.741 17.712C115.741 18.032 115.639 18.288 115.437 18.48C115.234 18.672 114.967 18.768 114.637 18.768ZM117.736 28V20.144H119.256L119.384 21.2H119.448C119.8 20.8587 120.184 20.5653 120.6 20.32C121.016 20.0747 121.491 19.952 122.024 19.952C122.867 19.952 123.48 20.224 123.864 20.768C124.248 21.312 124.44 22.08 124.44 23.072V28H122.6V23.312C122.6 22.6613 122.504 22.2027 122.312 21.936C122.12 21.6693 121.805 21.536 121.368 21.536C121.027 21.536 120.723 21.6213 120.456 21.792C120.2 21.952 119.907 22.192 119.576 22.512V28H117.736ZM129.889 28.192C129.153 28.192 128.487 28.032 127.889 27.712C127.303 27.3813 126.839 26.912 126.497 26.304C126.156 25.6853 125.985 24.9387 125.985 24.064C125.985 23.2107 126.161 22.48 126.513 21.872C126.865 21.2533 127.319 20.7787 127.873 20.448C128.428 20.1173 129.015 19.952 129.633 19.952C130.348 19.952 130.945 20.112 131.425 20.432C131.905 20.752 132.263 21.1947 132.497 21.76C132.743 22.3147 132.865 22.9547 132.865 23.68C132.865 23.8507 132.855 24.016 132.833 24.176C132.823 24.336 132.801 24.4907 132.769 24.64H127.361V23.232H131.233C131.233 22.6667 131.105 22.224 130.849 21.904C130.593 21.5733 130.199 21.408 129.665 21.408C129.367 21.408 129.073 21.488 128.785 21.648C128.508 21.808 128.273 22.08 128.081 22.464C127.9 22.848 127.809 23.3813 127.809 24.064C127.809 24.6827 127.916 25.1893 128.129 25.584C128.343 25.968 128.625 26.256 128.977 26.448C129.329 26.6293 129.708 26.72 130.113 26.72C130.455 26.72 130.775 26.672 131.073 26.576C131.383 26.48 131.671 26.3467 131.937 26.176L132.577 27.36C132.215 27.616 131.799 27.8187 131.329 27.968C130.871 28.1173 130.391 28.192 129.889 28.192Z" fill="#1B140E"/>
<path d="M548.328 29V18.536H550.36L553.496 24.296C553.688 24.648 553.869 25.0267 554.04 25.432C554.221 25.8373 554.392 26.248 554.552 26.664H554.616C554.573 26.0987 554.525 25.512 554.472 24.904C554.419 24.2853 554.392 23.688 554.392 23.112V18.536H556.168V29H554.136L551 23.24C550.808 22.888 550.616 22.5093 550.424 22.104C550.243 21.6987 550.072 21.288 549.912 20.872H549.848C549.912 21.416 549.971 21.9973 550.024 22.616C550.077 23.224 550.104 23.8267 550.104 24.424V29H548.328ZM560.412 29.192C559.953 29.192 559.548 29.096 559.196 28.904C558.844 28.712 558.566 28.4453 558.364 28.104C558.172 27.752 558.076 27.3467 558.076 26.888C558.076 26.0027 558.444 25.336 559.18 24.888C559.926 24.4293 561.105 24.1147 562.716 23.944C562.705 23.6773 562.652 23.432 562.556 23.208C562.47 22.984 562.321 22.808 562.108 22.68C561.905 22.5413 561.628 22.472 561.276 22.472C560.892 22.472 560.513 22.5413 560.14 22.68C559.777 22.8187 559.42 22.9947 559.068 23.208L558.396 21.96C558.684 21.7787 558.998 21.6133 559.34 21.464C559.681 21.304 560.044 21.1813 560.428 21.096C560.812 21 561.212 20.952 561.628 20.952C562.278 20.952 562.817 21.0853 563.244 21.352C563.681 21.608 564.006 21.992 564.22 22.504C564.444 23.0053 564.556 23.624 564.556 24.36V29H563.036L562.908 28.136H562.844C562.481 28.4347 562.102 28.6853 561.708 28.888C561.313 29.0907 560.881 29.192 560.412 29.192ZM560.988 27.688C561.308 27.688 561.601 27.624 561.868 27.496C562.145 27.3573 562.428 27.1547 562.716 26.888V25.224C562.001 25.3093 561.436 25.4213 561.02 25.56C560.604 25.6987 560.305 25.8693 560.124 26.072C559.953 26.264 559.868 26.4933 559.868 26.76C559.868 27.0907 559.974 27.3307 560.188 27.48C560.401 27.6187 560.668 27.688 560.988 27.688ZM566.582 29V21.144H568.102L568.23 22.216H568.294C568.624 21.864 568.982 21.5653 569.366 21.32C569.76 21.0747 570.203 20.952 570.694 20.952C571.28 20.952 571.744 21.0747 572.086 21.32C572.427 21.5653 572.688 21.912 572.87 22.36C573.243 21.9547 573.632 21.6187 574.038 21.352C574.443 21.0853 574.896 20.952 575.398 20.952C576.23 20.952 576.843 21.224 577.238 21.768C577.632 22.312 577.83 23.08 577.83 24.072V29H575.974V24.312C575.974 23.6613 575.878 23.2027 575.686 22.936C575.494 22.6693 575.19 22.536 574.774 22.536C574.518 22.536 574.256 22.616 573.99 22.776C573.723 22.936 573.435 23.1813 573.126 23.512V29H571.286V24.312C571.286 23.6613 571.184 23.2027 570.982 22.936C570.79 22.6693 570.486 22.536 570.07 22.536C569.579 22.536 569.03 22.8613 568.422 23.512V29H566.582ZM583.266 29.192C582.53 29.192 581.863 29.032 581.266 28.712C580.679 28.3813 580.215 27.912 579.874 27.304C579.533 26.6853 579.362 25.9387 579.362 25.064C579.362 24.2107 579.538 23.48 579.89 22.872C580.242 22.2533 580.695 21.7787 581.25 21.448C581.805 21.1173 582.391 20.952 583.01 20.952C583.725 20.952 584.322 21.112 584.802 21.432C585.282 21.752 585.639 22.1947 585.874 22.76C586.119 23.3147 586.242 23.9547 586.242 24.68C586.242 24.8507 586.231 25.016 586.21 25.176C586.199 25.336 586.178 25.4907 586.146 25.64H580.738V24.232H584.61C584.61 23.6667 584.482 23.224 584.226 22.904C583.97 22.5733 583.575 22.408 583.042 22.408C582.743 22.408 582.45 22.488 582.162 22.648C581.885 22.808 581.65 23.08 581.458 23.464C581.277 23.848 581.186 24.3813 581.186 25.064C581.186 25.6827 581.293 26.1893 581.506 26.584C581.719 26.968 582.002 27.256 582.354 27.448C582.706 27.6293 583.085 27.72 583.49 27.72C583.831 27.72 584.151 27.672 584.45 27.576C584.759 27.48 585.047 27.3467 585.314 27.176L585.954 28.36C585.591 28.616 585.175 28.8187 584.706 28.968C584.247 29.1173 583.767 29.192 583.266 29.192ZM590.015 29.192C589.471 29.192 588.933 29.0907 588.399 28.888C587.877 28.6853 587.423 28.4027 587.039 28.04L587.855 26.984C588.207 27.272 588.565 27.48 588.927 27.608C589.29 27.736 589.674 27.8 590.079 27.8C590.506 27.8 590.821 27.7093 591.023 27.528C591.226 27.3467 591.327 27.1227 591.327 26.856C591.327 26.6427 591.247 26.4613 591.087 26.312C590.938 26.1627 590.741 26.0347 590.495 25.928C590.25 25.8213 589.978 25.7147 589.679 25.608C589.295 25.4693 588.938 25.304 588.607 25.112C588.277 24.9093 588.005 24.664 587.791 24.376C587.589 24.0773 587.487 23.72 587.487 23.304C587.487 22.6107 587.743 22.0453 588.255 21.608C588.767 21.1707 589.461 20.952 590.335 20.952C590.869 20.952 591.359 21.0427 591.807 21.224C592.255 21.3947 592.639 21.6187 592.959 21.896L592.143 22.936C591.866 22.7333 591.583 22.584 591.295 22.488C591.007 22.392 590.703 22.344 590.383 22.344C589.989 22.344 589.695 22.4293 589.503 22.6C589.311 22.7707 589.215 22.9733 589.215 23.208C589.215 23.4 589.274 23.5653 589.391 23.704C589.519 23.832 589.701 23.9493 589.935 24.056C590.17 24.152 590.453 24.2533 590.783 24.36C591.189 24.4987 591.567 24.6693 591.919 24.872C592.271 25.064 592.549 25.3147 592.751 25.624C592.965 25.9227 593.071 26.3013 593.071 26.76C593.071 27.208 592.954 27.6187 592.719 27.992C592.485 28.3547 592.138 28.648 591.679 28.872C591.231 29.0853 590.677 29.192 590.015 29.192ZM597.914 29.192C597.178 29.192 596.511 29.032 595.914 28.712C595.327 28.3813 594.863 27.912 594.522 27.304C594.181 26.6853 594.01 25.9387 594.01 25.064C594.01 24.2107 594.186 23.48 594.538 22.872C594.89 22.2533 595.343 21.7787 595.898 21.448C596.453 21.1173 597.039 20.952 597.658 20.952C598.373 20.952 598.97 21.112 599.45 21.432C599.93 21.752 600.287 22.1947 600.522 22.76C600.767 23.3147 600.89 23.9547 600.89 24.68C600.89 24.8507 600.879 25.016 600.858 25.176C600.847 25.336 600.826 25.4907 600.794 25.64H595.386V24.232H599.258C599.258 23.6667 599.13 23.224 598.874 22.904C598.618 22.5733 598.223 22.408 597.69 22.408C597.391 22.408 597.098 22.488 596.81 22.648C596.533 22.808 596.298 23.08 596.106 23.464C595.925 23.848 595.834 24.3813 595.834 25.064C595.834 25.6827 595.941 26.1893 596.154 26.584C596.367 26.968 596.65 27.256 597.002 27.448C597.354 27.6293 597.733 27.72 598.138 27.72C598.479 27.72 598.799 27.672 599.098 27.576C599.407 27.48 599.695 27.3467 599.962 27.176L600.602 28.36C600.239 28.616 599.823 28.8187 599.354 28.968C598.895 29.1173 598.415 29.192 597.914 29.192ZM602.471 29V21.144H603.991L604.119 22.536H604.183C604.461 22.024 604.791 21.6347 605.175 21.368C605.57 21.0907 605.981 20.952 606.407 20.952C606.61 20.952 606.781 20.9627 606.919 20.984C607.058 21.0053 607.186 21.048 607.303 21.112L606.935 22.68C606.807 22.648 606.69 22.6267 606.583 22.616C606.477 22.5947 606.338 22.584 606.167 22.584C605.858 22.584 605.533 22.7067 605.191 22.952C604.85 23.1867 604.557 23.6027 604.311 24.2V29H602.471ZM610.274 29L607.538 21.144H609.41L610.658 25.224C610.765 25.5973 610.871 25.9867 610.978 26.392C611.095 26.7867 611.207 27.1867 611.314 27.592H611.378C611.495 27.1867 611.607 26.7867 611.714 26.392C611.831 25.9867 611.943 25.5973 612.05 25.224L613.298 21.144H615.074L612.402 29H610.274ZM619.542 29.192C618.806 29.192 618.14 29.032 617.542 28.712C616.956 28.3813 616.492 27.912 616.15 27.304C615.809 26.6853 615.638 25.9387 615.638 25.064C615.638 24.2107 615.814 23.48 616.166 22.872C616.518 22.2533 616.972 21.7787 617.526 21.448C618.081 21.1173 618.668 20.952 619.286 20.952C620.001 20.952 620.598 21.112 621.078 21.432C621.558 21.752 621.916 22.1947 622.15 22.76C622.396 23.3147 622.518 23.9547 622.518 24.68C622.518 24.8507 622.508 25.016 622.486 25.176C622.476 25.336 622.454 25.4907 622.422 25.64H617.014V24.232H620.886C620.886 23.6667 620.758 23.224 620.502 22.904C620.246 22.5733 619.852 22.408 619.318 22.408C619.02 22.408 618.726 22.488 618.438 22.648C618.161 22.808 617.926 23.08 617.734 23.464C617.553 23.848 617.462 24.3813 617.462 25.064C617.462 25.6827 617.569 26.1893 617.782 26.584C617.996 26.968 618.278 27.256 618.63 27.448C618.982 27.6293 619.361 27.72 619.766 27.72C620.108 27.72 620.428 27.672 620.726 27.576C621.036 27.48 621.324 27.3467 621.59 27.176L622.23 28.36C621.868 28.616 621.452 28.8187 620.982 28.968C620.524 29.1173 620.044 29.192 619.542 29.192ZM624.1 29V21.144H625.62L625.748 22.536H625.812C626.089 22.024 626.42 21.6347 626.804 21.368C627.198 21.0907 627.609 20.952 628.036 20.952C628.238 20.952 628.409 20.9627 628.548 20.984C628.686 21.0053 628.814 21.048 628.932 21.112L628.564 22.68C628.436 22.648 628.318 22.6267 628.212 22.616C628.105 22.5947 627.966 22.584 627.796 22.584C627.486 22.584 627.161 22.7067 626.82 22.952C626.478 23.1867 626.185 23.6027 625.94 24.2V29H624.1ZM631.991 29.192C631.447 29.192 630.908 29.0907 630.375 28.888C629.852 28.6853 629.399 28.4027 629.015 28.04L629.831 26.984C630.183 27.272 630.54 27.48 630.903 27.608C631.265 27.736 631.649 27.8 632.055 27.8C632.481 27.8 632.796 27.7093 632.999 27.528C633.201 27.3467 633.303 27.1227 633.303 26.856C633.303 26.6427 633.223 26.4613 633.063 26.312C632.913 26.1627 632.716 26.0347 632.471 25.928C632.225 25.8213 631.953 25.7147 631.655 25.608C631.271 25.4693 630.913 25.304 630.583 25.112C630.252 24.9093 629.98 24.664 629.767 24.376C629.564 24.0773 629.463 23.72 629.463 23.304C629.463 22.6107 629.719 22.0453 630.231 21.608C630.743 21.1707 631.436 20.952 632.311 20.952C632.844 20.952 633.335 21.0427 633.783 21.224C634.231 21.3947 634.615 21.6187 634.935 21.896L634.119 22.936C633.841 22.7333 633.559 22.584 633.271 22.488C632.983 22.392 632.679 22.344 632.359 22.344C631.964 22.344 631.671 22.4293 631.479 22.6C631.287 22.7707 631.191 22.9733 631.191 23.208C631.191 23.4 631.249 23.5653 631.367 23.704C631.495 23.832 631.676 23.9493 631.911 24.056C632.145 24.152 632.428 24.2533 632.759 24.36C633.164 24.4987 633.543 24.6693 633.895 24.872C634.247 25.064 634.524 25.3147 634.727 25.624C634.94 25.9227 635.047 26.3013 635.047 26.76C635.047 27.208 634.929 27.6187 634.695 27.992C634.46 28.3547 634.113 28.648 633.655 28.872C633.207 29.0853 632.652 29.192 631.991 29.192Z" fill="#1B140E"/>
<rect x="528" y="50" width="128" height="30" rx="3" fill="#FCFCFC"/>
<path d="M577.436 70V59.536H580.972C581.697 59.536 582.348 59.632 582.924 59.824C583.5 60.016 583.958 60.3413 584.3 60.8C584.641 61.248 584.812 61.8613 584.812 62.64C584.812 63.3867 584.641 64 584.3 64.48C583.958 64.96 583.5 65.3173 582.924 65.552C582.348 65.7867 581.697 65.904 580.972 65.904H579.292V70H577.436ZM579.292 64.432H580.78C581.494 64.432 582.038 64.2827 582.412 63.984C582.796 63.6853 582.988 63.2373 582.988 62.64C582.988 62.0427 582.796 61.6267 582.412 61.392C582.038 61.1467 581.494 61.024 580.78 61.024H579.292V64.432ZM583.148 70L580.62 65.408L581.964 64.304L585.228 70H583.148ZM589.628 70.192C588.978 70.192 588.37 70.032 587.804 69.712C587.239 69.3813 586.78 68.912 586.428 68.304C586.076 67.6853 585.9 66.944 585.9 66.08C585.9 65.2053 586.076 64.464 586.428 63.856C586.78 63.2373 587.239 62.768 587.804 62.448C588.37 62.1173 588.978 61.952 589.628 61.952C590.29 61.952 590.903 62.1173 591.468 62.448C592.034 62.768 592.492 63.2373 592.844 63.856C593.196 64.464 593.372 65.2053 593.372 66.08C593.372 66.944 593.196 67.6853 592.844 68.304C592.492 68.912 592.034 69.3813 591.468 69.712C590.903 70.032 590.29 70.192 589.628 70.192ZM589.628 68.688C590.012 68.688 590.343 68.5813 590.62 68.368C590.898 68.1547 591.111 67.8507 591.26 67.456C591.41 67.0613 591.484 66.6027 591.484 66.08C591.484 65.5573 591.41 65.0987 591.26 64.704C591.111 64.3093 590.898 64.0053 590.62 63.792C590.343 63.568 590.012 63.456 589.628 63.456C589.244 63.456 588.914 63.568 588.636 63.792C588.37 64.0053 588.162 64.3093 588.012 64.704C587.863 65.0987 587.788 65.5573 587.788 66.08C587.788 66.6027 587.863 67.0613 588.012 67.456C588.162 67.8507 588.37 68.1547 588.636 68.368C588.914 68.5813 589.244 68.688 589.628 68.688ZM598.234 70.192C597.583 70.192 596.975 70.032 596.41 69.712C595.844 69.3813 595.386 68.912 595.034 68.304C594.682 67.6853 594.506 66.944 594.506 66.08C594.506 65.2053 594.682 64.464 595.034 63.856C595.386 63.2373 595.844 62.768 596.41 62.448C596.975 62.1173 597.583 61.952 598.234 61.952C598.895 61.952 599.508 62.1173 600.074 62.448C600.639 62.768 601.098 63.2373 601.45 63.856C601.802 64.464 601.978 65.2053 601.978 66.08C601.978 66.944 601.802 67.6853 601.45 68.304C601.098 68.912 600.639 69.3813 600.074 69.712C599.508 70.032 598.895 70.192 598.234 70.192ZM598.234 68.688C598.618 68.688 598.948 68.5813 599.226 68.368C599.503 68.1547 599.716 67.8507 599.866 67.456C600.015 67.0613 600.09 66.6027 600.09 66.08C600.09 65.5573 600.015 65.0987 599.866 64.704C599.716 64.3093 599.503 64.0053 599.226 63.792C598.948 63.568 598.618 63.456 598.234 63.456C597.85 63.456 597.519 63.568 597.242 63.792C596.975 64.0053 596.767 64.3093 596.618 64.704C596.468 65.0987 596.394 65.5573 596.394 66.08C596.394 66.6027 596.468 67.0613 596.618 67.456C596.767 67.8507 596.975 68.1547 597.242 68.368C597.519 68.5813 597.85 68.688 598.234 68.688ZM606.047 70.16C605.14 70.16 604.495 69.8987 604.111 69.376C603.738 68.8427 603.551 68.1547 603.551 67.312V63.6H602.431V62.224L603.647 62.144L603.871 59.68H605.407V62.144H607.407V63.6H605.407V67.312C605.407 67.7707 605.498 68.1173 605.679 68.352C605.86 68.576 606.138 68.688 606.511 68.688C606.65 68.688 606.788 68.6773 606.927 68.656C607.066 68.6347 607.199 68.592 607.327 68.528L607.663 69.824C607.46 69.92 607.22 70 606.943 70.064C606.666 70.128 606.367 70.16 606.047 70.16Z" fill="#1B140E"/>
<rect x="528" y="89" width="128" height="30" rx="3" fill="#FCFCFC"/>
<path d="M582.233 109V100.104H579.209V98.536H587.113V100.104H584.089V109H582.233ZM588.68 109V98.536H590.536V107.432H594.888V109H588.68ZM596.535 109V98.536H599.335C600.401 98.536 601.313 98.728 602.071 99.112C602.828 99.496 603.409 100.072 603.815 100.84C604.22 101.608 604.423 102.568 604.423 103.72C604.423 104.872 604.22 105.843 603.815 106.632C603.42 107.411 602.849 108.003 602.103 108.408C601.356 108.803 600.465 109 599.431 109H596.535ZM598.391 107.496H599.207C599.911 107.496 600.508 107.363 600.999 107.096C601.5 106.819 601.879 106.403 602.135 105.848C602.391 105.293 602.519 104.584 602.519 103.72C602.519 102.867 602.391 102.168 602.135 101.624C601.879 101.08 601.5 100.68 600.999 100.424C600.508 100.168 599.911 100.04 599.207 100.04H598.391V107.496Z" fill="#1B140E"/>
<rect x="528" y="128" width="128" height="30" rx="3" fill="#FCFCFC"/>
<path d="M547.657 148L551.065 137.536H553.241L556.649 148H554.697L553.097 142.432C552.926 141.877 552.761 141.307 552.601 140.72C552.451 140.133 552.302 139.552 552.153 138.976H552.089C551.95 139.563 551.801 140.149 551.641 140.736C551.491 141.312 551.331 141.877 551.161 142.432L549.545 148H547.657ZM549.673 145.168V143.712H554.601V145.168H549.673ZM559.876 148.192C559.034 148.192 558.42 147.92 558.036 147.376C557.652 146.832 557.46 146.064 557.46 145.072V140.144H559.3V144.832C559.3 145.483 559.396 145.941 559.588 146.208C559.78 146.475 560.09 146.608 560.516 146.608C560.858 146.608 561.156 146.523 561.412 146.352C561.679 146.181 561.962 145.904 562.26 145.52V140.144H564.1V148H562.596L562.452 146.848H562.404C562.063 147.253 561.69 147.579 561.284 147.824C560.879 148.069 560.41 148.192 559.876 148.192ZM569.023 148.16C568.116 148.16 567.471 147.899 567.087 147.376C566.713 146.843 566.527 146.155 566.527 145.312V141.6H565.407V140.224L566.623 140.144L566.847 137.68H568.383V140.144H570.383V141.6H568.383V145.312C568.383 145.771 568.473 146.117 568.655 146.352C568.836 146.576 569.113 146.688 569.487 146.688C569.625 146.688 569.764 146.677 569.903 146.656C570.041 146.635 570.175 146.592 570.303 146.528L570.639 147.824C570.436 147.92 570.196 148 569.919 148.064C569.641 148.128 569.343 148.16 569.023 148.16ZM571.86 148V136.704H573.7V139.616L573.636 141.136C573.967 140.827 574.335 140.555 574.74 140.32C575.145 140.075 575.615 139.952 576.148 139.952C576.991 139.952 577.604 140.224 577.988 140.768C578.372 141.312 578.564 142.08 578.564 143.072V148H576.724V143.312C576.724 142.661 576.628 142.203 576.436 141.936C576.244 141.669 575.929 141.536 575.492 141.536C575.151 141.536 574.847 141.621 574.58 141.792C574.324 141.952 574.031 142.192 573.7 142.512V148H571.86ZM583.822 148.192C583.171 148.192 582.563 148.032 581.998 147.712C581.433 147.381 580.974 146.912 580.622 146.304C580.27 145.685 580.094 144.944 580.094 144.08C580.094 143.205 580.27 142.464 580.622 141.856C580.974 141.237 581.433 140.768 581.998 140.448C582.563 140.117 583.171 139.952 583.822 139.952C584.483 139.952 585.097 140.117 585.662 140.448C586.227 140.768 586.686 141.237 587.038 141.856C587.39 142.464 587.566 143.205 587.566 144.08C587.566 144.944 587.39 145.685 587.038 146.304C586.686 146.912 586.227 147.381 585.662 147.712C585.097 148.032 584.483 148.192 583.822 148.192ZM583.822 146.688C584.206 146.688 584.537 146.581 584.814 146.368C585.091 146.155 585.305 145.851 585.454 145.456C585.603 145.061 585.678 144.603 585.678 144.08C585.678 143.557 585.603 143.099 585.454 142.704C585.305 142.309 585.091 142.005 584.814 141.792C584.537 141.568 584.206 141.456 583.822 141.456C583.438 141.456 583.107 141.568 582.83 141.792C582.563 142.005 582.355 142.309 582.206 142.704C582.057 143.099 581.982 143.557 581.982 144.08C581.982 144.603 582.057 145.061 582.206 145.456C582.355 145.851 582.563 146.155 582.83 146.368C583.107 146.581 583.438 146.688 583.822 146.688ZM589.211 148V140.144H590.731L590.859 141.536H590.923C591.201 141.024 591.531 140.635 591.915 140.368C592.31 140.091 592.721 139.952 593.147 139.952C593.35 139.952 593.521 139.963 593.659 139.984C593.798 140.005 593.926 140.048 594.043 140.112L593.675 141.68C593.547 141.648 593.43 141.627 593.323 141.616C593.217 141.595 593.078 141.584 592.907 141.584C592.598 141.584 592.273 141.707 591.931 141.952C591.59 142.187 591.297 142.603 591.051 143.2V148H589.211ZM595.004 148V140.144H596.844V148H595.004ZM595.916 138.768C595.596 138.768 595.329 138.672 595.116 138.48C594.913 138.288 594.812 138.032 594.812 137.712C594.812 137.392 594.913 137.141 595.116 136.96C595.329 136.768 595.596 136.672 595.916 136.672C596.247 136.672 596.513 136.768 596.716 136.96C596.919 137.141 597.02 137.392 597.02 137.712C597.02 138.032 596.919 138.288 596.716 138.48C596.513 138.672 596.247 138.768 595.916 138.768ZM601.783 148.16C600.877 148.16 600.231 147.899 599.847 147.376C599.474 146.843 599.287 146.155 599.287 145.312V141.6H598.167V140.224L599.383 140.144L599.607 137.68H601.143V140.144H603.143V141.6H601.143V145.312C601.143 145.771 601.234 146.117 601.415 146.352C601.597 146.576 601.874 146.688 602.247 146.688C602.386 146.688 602.525 146.677 602.663 146.656C602.802 146.635 602.935 146.592 603.063 146.528L603.399 147.824C603.197 147.92 602.957 148 602.679 148.064C602.402 148.128 602.103 148.16 601.783 148.16ZM606.181 148.192C605.722 148.192 605.317 148.096 604.965 147.904C604.613 147.712 604.336 147.445 604.133 147.104C603.941 146.752 603.845 146.347 603.845 145.888C603.845 145.003 604.213 144.336 604.949 143.888C605.696 143.429 606.874 143.115 608.485 142.944C608.474 142.677 608.421 142.432 608.325 142.208C608.24 141.984 608.09 141.808 607.877 141.68C607.674 141.541 607.397 141.472 607.045 141.472C606.661 141.472 606.282 141.541 605.909 141.68C605.546 141.819 605.189 141.995 604.837 142.208L604.165 140.96C604.453 140.779 604.768 140.613 605.109 140.464C605.45 140.304 605.813 140.181 606.197 140.096C606.581 140 606.981 139.952 607.397 139.952C608.048 139.952 608.586 140.085 609.013 140.352C609.45 140.608 609.776 140.992 609.989 141.504C610.213 142.005 610.325 142.624 610.325 143.36V148H608.805L608.677 147.136H608.613C608.25 147.435 607.872 147.685 607.477 147.888C607.082 148.091 606.65 148.192 606.181 148.192ZM606.757 146.688C607.077 146.688 607.37 146.624 607.637 146.496C607.914 146.357 608.197 146.155 608.485 145.888V144.224C607.77 144.309 607.205 144.421 606.789 144.56C606.373 144.699 606.074 144.869 605.893 145.072C605.722 145.264 605.637 145.493 605.637 145.76C605.637 146.091 605.744 146.331 605.957 146.48C606.17 146.619 606.437 146.688 606.757 146.688ZM614.869 148.16C613.962 148.16 613.317 147.899 612.933 147.376C612.56 146.843 612.373 146.155 612.373 145.312V141.6H611.253V140.224L612.469 140.144L612.693 137.68H614.229V140.144H616.229V141.6H614.229V145.312C614.229 145.771 614.32 146.117 614.501 146.352C614.682 146.576 614.96 146.688 615.333 146.688C615.472 146.688 615.61 146.677 615.749 146.656C615.888 146.635 616.021 146.592 616.149 146.528L616.485 147.824C616.282 147.92 616.042 148 615.765 148.064C615.488 148.128 615.189 148.16 614.869 148.16ZM617.706 148V140.144H619.546V148H617.706ZM618.618 138.768C618.298 138.768 618.032 138.672 617.818 138.48C617.616 138.288 617.514 138.032 617.514 137.712C617.514 137.392 617.616 137.141 617.818 136.96C618.032 136.768 618.298 136.672 618.618 136.672C618.949 136.672 619.216 136.768 619.418 136.96C619.621 137.141 619.722 137.392 619.722 137.712C619.722 138.032 619.621 138.288 619.418 138.48C619.216 138.672 618.949 138.768 618.618 138.768ZM623.478 148L620.742 140.144H622.614L623.862 144.224C623.968 144.597 624.075 144.987 624.182 145.392C624.299 145.787 624.411 146.187 624.518 146.592H624.582C624.699 146.187 624.811 145.787 624.918 145.392C625.035 144.987 625.147 144.597 625.254 144.224L626.502 140.144H628.278L625.606 148H623.478ZM632.746 148.192C632.01 148.192 631.343 148.032 630.746 147.712C630.159 147.381 629.695 146.912 629.354 146.304C629.012 145.685 628.842 144.939 628.842 144.064C628.842 143.211 629.018 142.48 629.37 141.872C629.722 141.253 630.175 140.779 630.73 140.448C631.284 140.117 631.871 139.952 632.49 139.952C633.204 139.952 633.802 140.112 634.282 140.432C634.762 140.752 635.119 141.195 635.354 141.76C635.599 142.315 635.722 142.955 635.722 143.68C635.722 143.851 635.711 144.016 635.69 144.176C635.679 144.336 635.658 144.491 635.626 144.64H630.218V143.232H634.09C634.09 142.667 633.962 142.224 633.706 141.904C633.45 141.573 633.055 141.408 632.522 141.408C632.223 141.408 631.93 141.488 631.642 141.648C631.364 141.808 631.13 142.08 630.938 142.464C630.756 142.848 630.666 143.381 630.666 144.064C630.666 144.683 630.772 145.189 630.986 145.584C631.199 145.968 631.482 146.256 631.834 146.448C632.186 146.629 632.564 146.72 632.97 146.72C633.311 146.72 633.631 146.672 633.93 146.576C634.239 146.48 634.527 146.347 634.794 146.176L635.434 147.36C635.071 147.616 634.655 147.819 634.186 147.968C633.727 148.117 633.247 148.192 632.746 148.192Z" fill="#1B140E"/>
<rect x="24" y="129" width="128" height="30" rx="3" fill="#FCFCFC"/>
<path d="M47.9166 149.192C47.1912 149.192 46.5032 149.059 45.8526 148.792C45.2126 148.525 44.6419 148.147 44.1406 147.656L45.1486 146.44C45.5219 146.803 45.9539 147.085 46.4446 147.288C46.9459 147.48 47.4472 147.576 47.9486 147.576C48.5459 147.576 48.9992 147.453 49.3086 147.208C49.6179 146.963 49.7726 146.637 49.7726 146.232C49.7726 145.944 49.7032 145.715 49.5646 145.544C49.4259 145.363 49.2339 145.208 48.9886 145.08C48.7539 144.952 48.4766 144.824 48.1566 144.696L46.7166 144.072C46.3752 143.923 46.0392 143.731 45.7086 143.496C45.3886 143.251 45.1219 142.952 44.9086 142.6C44.7059 142.237 44.6046 141.8 44.6046 141.288C44.6046 140.733 44.7539 140.237 45.0526 139.8C45.3619 139.352 45.7779 139 46.3006 138.744C46.8339 138.477 47.4419 138.344 48.1246 138.344C48.7539 138.344 49.3459 138.461 49.9006 138.696C50.4659 138.92 50.9459 139.229 51.3406 139.624L50.3646 140.84C50.0232 140.563 49.6659 140.349 49.2926 140.2C48.9192 140.04 48.5299 139.96 48.1246 139.96C47.6339 139.96 47.2339 140.072 46.9246 140.296C46.6259 140.509 46.4766 140.808 46.4766 141.192C46.4766 141.459 46.5512 141.683 46.7006 141.864C46.8606 142.035 47.0686 142.184 47.3246 142.312C47.5912 142.429 47.8632 142.547 48.1406 142.664L49.5646 143.256C49.9806 143.437 50.3486 143.651 50.6686 143.896C50.9886 144.141 51.2339 144.44 51.4046 144.792C51.5859 145.144 51.6766 145.576 51.6766 146.088C51.6766 146.653 51.5272 147.171 51.2286 147.64C50.9299 148.109 50.4979 148.488 49.9326 148.776C49.3779 149.053 48.7059 149.192 47.9166 149.192ZM55.6051 149.16C54.6984 149.16 54.0531 148.899 53.6691 148.376C53.2957 147.843 53.1091 147.155 53.1091 146.312V142.6H51.9891V141.224L53.2051 141.144L53.4291 138.68H54.9651V141.144H56.9651V142.6H54.9651V146.312C54.9651 146.771 55.0557 147.117 55.2371 147.352C55.4184 147.576 55.6957 147.688 56.0691 147.688C56.2077 147.688 56.3464 147.677 56.4851 147.656C56.6237 147.635 56.7571 147.592 56.8851 147.528L57.2211 148.824C57.0184 148.92 56.7784 149 56.5011 149.064C56.2237 149.128 55.9251 149.16 55.6051 149.16ZM60.7783 149.192C59.9356 149.192 59.3223 148.92 58.9383 148.376C58.5543 147.832 58.3623 147.064 58.3623 146.072V141.144H60.2023V145.832C60.2023 146.483 60.2983 146.941 60.4903 147.208C60.6823 147.475 60.9916 147.608 61.4183 147.608C61.7596 147.608 62.0583 147.523 62.3143 147.352C62.581 147.181 62.8636 146.904 63.1623 146.52V141.144H65.0023V149H63.4983L63.3543 147.848H63.3063C62.965 148.253 62.5916 148.579 62.1863 148.824C61.781 149.069 61.3116 149.192 60.7783 149.192ZM70.9649 149.192C70.6129 149.192 70.2503 149.107 69.8769 148.936C69.5143 148.755 69.1623 148.499 68.8209 148.168H68.7729L68.6129 149H67.1569V137.704H68.9969V140.616L68.9489 141.928C69.2796 141.64 69.6369 141.405 70.0209 141.224C70.4156 141.043 70.8156 140.952 71.2209 140.952C71.8716 140.952 72.4263 141.117 72.8849 141.448C73.3543 141.779 73.7116 142.243 73.9569 142.84C74.2023 143.427 74.3249 144.125 74.3249 144.936C74.3249 145.832 74.1649 146.6 73.8449 147.24C73.5249 147.869 73.1089 148.355 72.5969 148.696C72.0956 149.027 71.5516 149.192 70.9649 149.192ZM70.5809 147.672C70.9329 147.672 71.2476 147.571 71.5249 147.368C71.8023 147.165 72.0209 146.867 72.1809 146.472C72.3409 146.067 72.4209 145.565 72.4209 144.968C72.4209 144.445 72.3623 143.997 72.2449 143.624C72.1276 143.251 71.9409 142.968 71.6849 142.776C71.4396 142.573 71.1196 142.472 70.7249 142.472C70.4369 142.472 70.1543 142.547 69.8769 142.696C69.5996 142.835 69.3063 143.053 68.9969 143.352V147.016C69.2743 147.251 69.5516 147.421 69.8289 147.528C70.1063 147.624 70.3569 147.672 70.5809 147.672ZM79.0237 149V141.144H80.5437L80.6717 142.536H80.7357C81.013 142.024 81.3437 141.635 81.7277 141.368C82.1224 141.091 82.533 140.952 82.9597 140.952C83.1624 140.952 83.333 140.963 83.4717 140.984C83.6104 141.005 83.7384 141.048 83.8557 141.112L83.4877 142.68C83.3597 142.648 83.2424 142.627 83.1357 142.616C83.029 142.595 82.8904 142.584 82.7197 142.584C82.4104 142.584 82.085 142.707 81.7437 142.952C81.4024 143.187 81.109 143.603 80.8637 144.2V149H79.0237ZM88.0362 149.192C87.3002 149.192 86.6335 149.032 86.0362 148.712C85.4495 148.381 84.9855 147.912 84.6442 147.304C84.3029 146.685 84.1322 145.939 84.1322 145.064C84.1322 144.211 84.3082 143.48 84.6602 142.872C85.0122 142.253 85.4655 141.779 86.0202 141.448C86.5749 141.117 87.1615 140.952 87.7802 140.952C88.4949 140.952 89.0922 141.112 89.5722 141.432C90.0522 141.752 90.4095 142.195 90.6442 142.76C90.8895 143.315 91.0122 143.955 91.0122 144.68C91.0122 144.851 91.0015 145.016 90.9802 145.176C90.9695 145.336 90.9482 145.491 90.9162 145.64H85.5082V144.232H89.3802C89.3802 143.667 89.2522 143.224 88.9962 142.904C88.7402 142.573 88.3455 142.408 87.8122 142.408C87.5135 142.408 87.2202 142.488 86.9322 142.648C86.6549 142.808 86.4202 143.08 86.2282 143.464C86.0469 143.848 85.9562 144.381 85.9562 145.064C85.9562 145.683 86.0629 146.189 86.2762 146.584C86.4895 146.968 86.7722 147.256 87.1242 147.448C87.4762 147.629 87.8549 147.72 88.2602 147.72C88.6015 147.72 88.9215 147.672 89.2202 147.576C89.5295 147.48 89.8175 147.347 90.0842 147.176L90.7242 148.36C90.3615 148.616 89.9455 148.819 89.4762 148.968C89.0175 149.117 88.5375 149.192 88.0362 149.192ZM94.7856 149.192C94.2416 149.192 93.7029 149.091 93.1696 148.888C92.6469 148.685 92.1936 148.403 91.8096 148.04L92.6256 146.984C92.9776 147.272 93.3349 147.48 93.6976 147.608C94.0602 147.736 94.4442 147.8 94.8496 147.8C95.2762 147.8 95.5909 147.709 95.7936 147.528C95.9962 147.347 96.0976 147.123 96.0976 146.856C96.0976 146.643 96.0176 146.461 95.8576 146.312C95.7082 146.163 95.5109 146.035 95.2656 145.928C95.0202 145.821 94.7482 145.715 94.4496 145.608C94.0656 145.469 93.7082 145.304 93.3776 145.112C93.0469 144.909 92.7749 144.664 92.5616 144.376C92.3589 144.077 92.2576 143.72 92.2576 143.304C92.2576 142.611 92.5136 142.045 93.0256 141.608C93.5376 141.171 94.2309 140.952 95.1056 140.952C95.6389 140.952 96.1296 141.043 96.5776 141.224C97.0256 141.395 97.4096 141.619 97.7296 141.896L96.9136 142.936C96.6362 142.733 96.3536 142.584 96.0656 142.488C95.7776 142.392 95.4736 142.344 95.1536 142.344C94.7589 142.344 94.4656 142.429 94.2736 142.6C94.0816 142.771 93.9856 142.973 93.9856 143.208C93.9856 143.4 94.0442 143.565 94.1616 143.704C94.2896 143.832 94.4709 143.949 94.7056 144.056C94.9402 144.152 95.2229 144.253 95.5536 144.36C95.9589 144.499 96.3376 144.669 96.6896 144.872C97.0416 145.064 97.3189 145.315 97.5216 145.624C97.7349 145.923 97.8416 146.301 97.8416 146.76C97.8416 147.208 97.7242 147.619 97.4896 147.992C97.2549 148.355 96.9082 148.648 96.4496 148.872C96.0016 149.085 95.4469 149.192 94.7856 149.192ZM102.524 149.192C101.874 149.192 101.266 149.032 100.7 148.712C100.135 148.381 99.6762 147.912 99.3242 147.304C98.9722 146.685 98.7962 145.944 98.7962 145.08C98.7962 144.205 98.9722 143.464 99.3242 142.856C99.6762 142.237 100.135 141.768 100.7 141.448C101.266 141.117 101.874 140.952 102.524 140.952C103.186 140.952 103.799 141.117 104.364 141.448C104.93 141.768 105.388 142.237 105.74 142.856C106.092 143.464 106.268 144.205 106.268 145.08C106.268 145.944 106.092 146.685 105.74 147.304C105.388 147.912 104.93 148.381 104.364 148.712C103.799 149.032 103.186 149.192 102.524 149.192ZM102.524 147.688C102.908 147.688 103.239 147.581 103.516 147.368C103.794 147.155 104.007 146.851 104.156 146.456C104.306 146.061 104.38 145.603 104.38 145.08C104.38 144.557 104.306 144.099 104.156 143.704C104.007 143.309 103.794 143.005 103.516 142.792C103.239 142.568 102.908 142.456 102.524 142.456C102.14 142.456 101.81 142.568 101.532 142.792C101.266 143.005 101.058 143.309 100.908 143.704C100.759 144.099 100.684 144.557 100.684 145.08C100.684 145.603 100.759 146.061 100.908 146.456C101.058 146.851 101.266 147.155 101.532 147.368C101.81 147.581 102.14 147.688 102.524 147.688ZM109.705 149.16C109.268 149.16 108.916 149.075 108.649 148.904C108.393 148.723 108.207 148.467 108.089 148.136C107.972 147.805 107.913 147.411 107.913 146.952V137.704H109.753V147.048C109.753 147.283 109.796 147.443 109.881 147.528C109.967 147.613 110.063 147.656 110.169 147.656C110.212 147.656 110.249 147.656 110.281 147.656C110.324 147.645 110.377 147.635 110.441 147.624L110.681 149C110.575 149.043 110.436 149.08 110.265 149.112C110.105 149.144 109.919 149.16 109.705 149.16ZM113.841 149L111.105 141.144H112.977L114.225 145.224C114.332 145.597 114.439 145.987 114.545 146.392C114.663 146.787 114.775 147.187 114.881 147.592H114.945C115.063 147.187 115.175 146.787 115.281 146.392C115.399 145.987 115.511 145.597 115.617 145.224L116.865 141.144H118.641L115.969 149H113.841ZM123.109 149.192C122.373 149.192 121.707 149.032 121.109 148.712C120.523 148.381 120.059 147.912 119.717 147.304C119.376 146.685 119.205 145.939 119.205 145.064C119.205 144.211 119.381 143.48 119.733 142.872C120.085 142.253 120.539 141.779 121.093 141.448C121.648 141.117 122.235 140.952 122.853 140.952C123.568 140.952 124.165 141.112 124.645 141.432C125.125 141.752 125.483 142.195 125.717 142.76C125.963 143.315 126.085 143.955 126.085 144.68C126.085 144.851 126.075 145.016 126.053 145.176C126.043 145.336 126.021 145.491 125.989 145.64H120.581V144.232H124.453C124.453 143.667 124.325 143.224 124.069 142.904C123.813 142.573 123.419 142.408 122.885 142.408C122.587 142.408 122.293 142.488 122.005 142.648C121.728 142.808 121.493 143.08 121.301 143.464C121.12 143.848 121.029 144.381 121.029 145.064C121.029 145.683 121.136 146.189 121.349 146.584C121.563 146.968 121.845 147.256 122.197 147.448C122.549 147.629 122.928 147.72 123.333 147.72C123.675 147.72 123.995 147.672 124.293 147.576C124.603 147.48 124.891 147.347 125.157 147.176L125.797 148.36C125.435 148.616 125.019 148.819 124.549 148.968C124.091 149.117 123.611 149.192 123.109 149.192ZM127.667 149V141.144H129.187L129.315 142.536H129.379C129.656 142.024 129.987 141.635 130.371 141.368C130.765 141.091 131.176 140.952 131.603 140.952C131.805 140.952 131.976 140.963 132.115 140.984C132.253 141.005 132.381 141.048 132.499 141.112L132.131 142.68C132.003 142.648 131.885 142.627 131.779 142.616C131.672 142.595 131.533 142.584 131.363 142.584C131.053 142.584 130.728 142.707 130.387 142.952C130.045 143.187 129.752 143.603 129.507 144.2V149H127.667Z" fill="#1B140E"/>
<rect x="24" y="50" width="128" height="30" rx="3" fill="#FCFCFC"/>
<path d="M49.6214 70L53.0294 59.536H55.2054L58.6134 70H56.6614L55.0614 64.432C54.8908 63.8773 54.7254 63.3067 54.5654 62.72C54.4161 62.1333 54.2668 61.552 54.1174 60.976H54.0534C53.9148 61.5627 53.7654 62.1493 53.6054 62.736C53.4561 63.312 53.2961 63.8773 53.1254 64.432L51.5094 70H49.6214ZM51.6374 67.168V65.712H56.5654V67.168H51.6374ZM59.5673 73.104V62.144H61.0873L61.2153 62.976H61.2793C61.61 62.688 61.978 62.448 62.3833 62.256C62.7886 62.0533 63.21 61.952 63.6473 61.952C64.298 61.952 64.8526 62.1173 65.3113 62.448C65.77 62.7787 66.122 63.2427 66.3673 63.84C66.6126 64.4373 66.7353 65.1413 66.7353 65.952C66.7353 66.848 66.5753 67.6107 66.2553 68.24C65.9353 68.8693 65.5193 69.3547 65.0073 69.696C64.506 70.0267 63.962 70.192 63.3753 70.192C63.034 70.192 62.6926 70.1173 62.3513 69.968C62.01 69.8187 61.6793 69.6053 61.3593 69.328L61.4073 70.64V73.104H59.5673ZM62.9913 68.672C63.3433 68.672 63.658 68.5707 63.9353 68.368C64.2126 68.1653 64.4313 67.8667 64.5913 67.472C64.7513 67.0667 64.8313 66.5653 64.8313 65.968C64.8313 65.4453 64.7726 64.9973 64.6553 64.624C64.538 64.2507 64.3513 63.968 64.0953 63.776C63.85 63.5733 63.53 63.472 63.1353 63.472C62.8473 63.472 62.5646 63.5467 62.2873 63.696C62.01 63.8347 61.7166 64.0533 61.4073 64.352V68.016C61.6953 68.2507 61.9726 68.4213 62.2393 68.528C62.5166 68.624 62.7673 68.672 62.9913 68.672ZM68.4226 73.104V62.144H69.9426L70.0706 62.976H70.1346C70.4652 62.688 70.8332 62.448 71.2386 62.256C71.6439 62.0533 72.0652 61.952 72.5026 61.952C73.1532 61.952 73.7079 62.1173 74.1666 62.448C74.6252 62.7787 74.9772 63.2427 75.2226 63.84C75.4679 64.4373 75.5906 65.1413 75.5906 65.952C75.5906 66.848 75.4306 67.6107 75.1106 68.24C74.7906 68.8693 74.3746 69.3547 73.8626 69.696C73.3612 70.0267 72.8172 70.192 72.2306 70.192C71.8892 70.192 71.5479 70.1173 71.2066 69.968C70.8652 69.8187 70.5346 69.6053 70.2146 69.328L70.2626 70.64V73.104H68.4226ZM71.8466 68.672C72.1986 68.672 72.5132 68.5707 72.7906 68.368C73.0679 68.1653 73.2866 67.8667 73.4466 67.472C73.6066 67.0667 73.6866 66.5653 73.6866 65.968C73.6866 65.4453 73.6279 64.9973 73.5106 64.624C73.3932 64.2507 73.2066 63.968 72.9506 63.776C72.7052 63.5733 72.3852 63.472 71.9906 63.472C71.7026 63.472 71.4199 63.5467 71.1426 63.696C70.8652 63.8347 70.5719 64.0533 70.2626 64.352V68.016C70.5506 68.2507 70.8279 68.4213 71.0946 68.528C71.3719 68.624 71.6226 68.672 71.8466 68.672ZM79.0698 70.16C78.6325 70.16 78.2805 70.0747 78.0138 69.904C77.7578 69.7227 77.5711 69.4667 77.4538 69.136C77.3365 68.8053 77.2778 68.4107 77.2778 67.952V58.704H79.1178V68.048C79.1178 68.2827 79.1605 68.4427 79.2458 68.528C79.3311 68.6133 79.4271 68.656 79.5338 68.656C79.5765 68.656 79.6138 68.656 79.6458 68.656C79.6885 68.6453 79.7418 68.6347 79.8058 68.624L80.0458 70C79.9391 70.0427 79.8005 70.08 79.6298 70.112C79.4698 70.144 79.2831 70.16 79.0698 70.16ZM81.4456 70V62.144H83.2856V70H81.4456ZM82.3576 60.768C82.0376 60.768 81.7709 60.672 81.5576 60.48C81.3549 60.288 81.2536 60.032 81.2536 59.712C81.2536 59.392 81.3549 59.1413 81.5576 58.96C81.7709 58.768 82.0376 58.672 82.3576 58.672C82.6882 58.672 82.9549 58.768 83.1576 58.96C83.3602 59.1413 83.4616 59.392 83.4616 59.712C83.4616 60.032 83.3602 60.288 83.1576 60.48C82.9549 60.672 82.6882 60.768 82.3576 60.768ZM88.7691 70.192C88.0437 70.192 87.3931 70.032 86.8171 69.712C86.2411 69.3813 85.7824 68.912 85.4411 68.304C85.1104 67.6853 84.9451 66.944 84.9451 66.08C84.9451 65.2053 85.1264 64.464 85.4891 63.856C85.8517 63.2373 86.3317 62.768 86.9291 62.448C87.5371 62.1173 88.1877 61.952 88.8811 61.952C89.3824 61.952 89.8197 62.0373 90.1931 62.208C90.5771 62.368 90.9077 62.576 91.1851 62.832L90.3051 63.984C90.1344 63.824 89.9371 63.696 89.7131 63.6C89.4997 63.504 89.2544 63.456 88.9771 63.456C88.5611 63.456 88.1931 63.568 87.8731 63.792C87.5531 64.0053 87.2971 64.3093 87.1051 64.704C86.9237 65.088 86.8331 65.5467 86.8331 66.08C86.8331 66.6027 86.9237 67.0613 87.1051 67.456C87.2864 67.84 87.5317 68.144 87.8411 68.368C88.1611 68.5813 88.5291 68.688 88.9451 68.688C89.2544 68.688 89.5424 68.6293 89.8091 68.512C90.0864 68.3947 90.3317 68.2453 90.5451 68.064L91.2971 69.2C90.9664 69.4987 90.5824 69.7387 90.1451 69.92C89.7184 70.1013 89.2597 70.192 88.7691 70.192ZM94.4194 70.192C93.9608 70.192 93.5554 70.096 93.2034 69.904C92.8514 69.712 92.5741 69.4453 92.3714 69.104C92.1794 68.752 92.0834 68.3467 92.0834 67.888C92.0834 67.0027 92.4514 66.336 93.1874 65.888C93.9341 65.4293 95.1128 65.1147 96.7234 64.944C96.7128 64.6773 96.6594 64.432 96.5634 64.208C96.4781 63.984 96.3288 63.808 96.1154 63.68C95.9128 63.5413 95.6354 63.472 95.2834 63.472C94.8994 63.472 94.5208 63.5413 94.1474 63.68C93.7848 63.8187 93.4274 63.9947 93.0754 64.208L92.4034 62.96C92.6914 62.7787 93.0061 62.6133 93.3474 62.464C93.6888 62.304 94.0514 62.1813 94.4354 62.096C94.8194 62 95.2194 61.952 95.6354 61.952C96.2861 61.952 96.8248 62.0853 97.2514 62.352C97.6888 62.608 98.0141 62.992 98.2274 63.504C98.4514 64.0053 98.5634 64.624 98.5634 65.36V70H97.0434L96.9154 69.136H96.8514C96.4888 69.4347 96.1101 69.6853 95.7154 69.888C95.3208 70.0907 94.8888 70.192 94.4194 70.192ZM94.9954 68.688C95.3154 68.688 95.6088 68.624 95.8754 68.496C96.1528 68.3573 96.4354 68.1547 96.7234 67.888V66.224C96.0088 66.3093 95.4434 66.4213 95.0274 66.56C94.6114 66.6987 94.3128 66.8693 94.1314 67.072C93.9608 67.264 93.8754 67.4933 93.8754 67.76C93.8754 68.0907 93.9821 68.3307 94.1954 68.48C94.4088 68.6187 94.6754 68.688 94.9954 68.688ZM103.107 70.16C102.201 70.16 101.555 69.8987 101.171 69.376C100.798 68.8427 100.611 68.1547 100.611 67.312V63.6H99.4914V62.224L100.707 62.144L100.931 59.68H102.467V62.144H104.467V63.6H102.467V67.312C102.467 67.7707 102.558 68.1173 102.739 68.352C102.921 68.576 103.198 68.688 103.571 68.688C103.71 68.688 103.849 68.6773 103.987 68.656C104.126 68.6347 104.259 68.592 104.387 68.528L104.723 69.824C104.521 69.92 104.281 70 104.003 70.064C103.726 70.128 103.427 70.16 103.107 70.16ZM105.945 70V62.144H107.785V70H105.945ZM106.857 60.768C106.537 60.768 106.27 60.672 106.057 60.48C105.854 60.288 105.753 60.032 105.753 59.712C105.753 59.392 105.854 59.1413 106.057 58.96C106.27 58.768 106.537 58.672 106.857 58.672C107.187 58.672 107.454 58.768 107.657 58.96C107.859 59.1413 107.961 59.392 107.961 59.712C107.961 60.032 107.859 60.288 107.657 60.48C107.454 60.672 107.187 60.768 106.857 60.768ZM113.172 70.192C112.522 70.192 111.914 70.032 111.348 69.712C110.783 69.3813 110.324 68.912 109.972 68.304C109.62 67.6853 109.444 66.944 109.444 66.08C109.444 65.2053 109.62 64.464 109.972 63.856C110.324 63.2373 110.783 62.768 111.348 62.448C111.914 62.1173 112.522 61.952 113.172 61.952C113.834 61.952 114.447 62.1173 115.012 62.448C115.578 62.768 116.036 63.2373 116.388 63.856C116.74 64.464 116.916 65.2053 116.916 66.08C116.916 66.944 116.74 67.6853 116.388 68.304C116.036 68.912 115.578 69.3813 115.012 69.712C114.447 70.032 113.834 70.192 113.172 70.192ZM113.172 68.688C113.556 68.688 113.887 68.5813 114.164 68.368C114.442 68.1547 114.655 67.8507 114.804 67.456C114.954 67.0613 115.028 66.6027 115.028 66.08C115.028 65.5573 114.954 65.0987 114.804 64.704C114.655 64.3093 114.442 64.0053 114.164 63.792C113.887 63.568 113.556 63.456 113.172 63.456C112.788 63.456 112.458 63.568 112.18 63.792C111.914 64.0053 111.706 64.3093 111.556 64.704C111.407 65.0987 111.332 65.5573 111.332 66.08C111.332 66.6027 111.407 67.0613 111.556 67.456C111.706 67.8507 111.914 68.1547 112.18 68.368C112.458 68.5813 112.788 68.688 113.172 68.688ZM118.561 70V62.144H120.081L120.209 63.2H120.273C120.625 62.8587 121.009 62.5653 121.425 62.32C121.841 62.0747 122.316 61.952 122.849 61.952C123.692 61.952 124.305 62.224 124.689 62.768C125.073 63.312 125.265 64.08 125.265 65.072V70H123.425V65.312C123.425 64.6613 123.329 64.2027 123.137 63.936C122.945 63.6693 122.631 63.536 122.193 63.536C121.852 63.536 121.548 63.6213 121.281 63.792C121.025 63.952 120.732 64.192 120.401 64.512V70H118.561Z" fill="#1B140E"/>
<path d="M89.5 84C89.5 83.1716 88.8284 82.5 88 82.5C87.1716 82.5 86.5 83.1716 86.5 84H89.5ZM81.3397 110C80.5113 110 79.9255 111.015 80.3397 111.732L87 123.268C87.4142 123.985 88.5858 123.985 89 123.268L95.6603 111.732C96.0745 111.015 95.4887 110 94.6603 110H81.3397ZM86.5 90.3077C86.5 91.1361 87.1716 91.8077 88 91.8077C88.8284 91.8077 89.5 91.1361 89.5 90.3077H86.5ZM89.5 98.1923C89.5 97.3639 88.8284 96.6923 88 96.6923C87.1716 96.6923 86.5 97.3639 86.5 98.1923H89.5ZM86.5 110.808C86.5 111.636 87.1716 112.308 88 112.308C88.8284 112.308 89.5 111.636 89.5 110.808H86.5ZM89.5 118.692C89.5 117.864 88.8284 117.192 88 117.192C87.1716 117.192 86.5 117.864 86.5 118.692H89.5ZM86.5 84V90.3077H89.5V84H86.5ZM86.5 98.1923V110.808H89.5V98.1923H86.5Z" fill="#A7A3A0"/>
<path d="M144 144C144 148.418 147.582 152 152 152C156.418 152 160 148.418 160 144C160 139.582 156.418 136 152 136C147.582 136 144 139.582 144 144ZM233 110.66C233 111.489 234.015 112.074 234.732 111.66L246.268 105C246.985 104.586 246.985 103.414 246.268 103L234.732 96.3397C234.015 95.9255 233 96.5113 233 97.3397V110.66ZM202 124H203.5H202ZM202 124H203.5H202ZM152 145.5H182V142.5H152V145.5ZM222 105.5H234.5V102.5H222V105.5ZM203.5 124C203.5 113.783 211.783 105.5 222 105.5V102.5C210.126 102.5 200.5 112.126 200.5 124H203.5ZM182 145.5C193.874 145.5 203.5 135.874 203.5 124H200.5C200.5 134.217 192.217 142.5 182 142.5V145.5Z" fill="#1B140E"/>
<path d="M420 104C420 108.418 423.582 112 428 112C432.418 112 436 108.418 436 104C436 99.5817 432.418 96 428 96C423.582 96 420 99.5817 420 104ZM509 71.6603C509 72.4887 510.015 73.0745 510.732 72.6603L522.268 66C522.985 65.5858 522.985 64.4142 522.268 64L510.732 57.3397C510.015 56.9255 509 57.5113 509 58.3397V71.6603ZM478 84.5H479.5H478ZM478 84.5H479.5H478ZM428 105.5H458.5V102.5H428V105.5ZM497.5 66.5H510.5V63.5H497.5V66.5ZM479.5 84.5C479.5 74.5589 487.559 66.5 497.5 66.5V63.5C485.902 63.5 476.5 72.902 476.5 84.5H479.5ZM458.5 105.5C470.098 105.5 479.5 96.098 479.5 84.5H476.5C476.5 94.4411 468.441 102.5 458.5 102.5V105.5Z" fill="#1B140E"/>
<path d="M420 104C420 108.418 423.582 112 428 112C432.418 112 436 108.418 436 104C436 99.5817 432.418 96 428 96C423.582 96 420 99.5817 420 104ZM509 110.66C509 111.489 510.015 112.074 510.732 111.66L522.268 105C522.985 104.586 522.985 103.414 522.268 103L510.732 96.3397C510.015 95.9255 509 96.5113 509 97.3397V110.66ZM428 105.5H510.5V102.5H428V105.5Z" fill="#1B140E"/>
<path d="M420 104C420 108.418 423.582 112 428 112C432.418 112 436 108.418 436 104C436 99.5817 432.418 96 428 96C423.582 96 420 99.5817 420 104ZM509 149.66C509 150.489 510.015 151.074 510.732 150.66L522.268 144C522.985 143.586 522.985 142.414 522.268 142L510.732 135.34C510.015 134.926 509 135.511 509 136.34V149.66ZM478 123.5H479.5H478ZM478 123.5H479.5H478ZM428 105.5H458.5V102.5H428V105.5ZM497.5 144.5H510.5V141.5H497.5V144.5ZM476.5 123.5C476.5 135.098 485.902 144.5 497.5 144.5V141.5C487.559 141.5 479.5 133.441 479.5 123.5H476.5ZM458.5 105.5C468.441 105.5 476.5 113.559 476.5 123.5H479.5C479.5 111.902 470.098 102.5 458.5 102.5V105.5Z" fill="#1B140E"/>
</svg>
