<svg width="778" height="240" viewBox="0 0 778 240" fill="none" xmlns="http://www.w3.org/2000/svg">
<rect x="514" width="264" height="240" rx="6" fill="#E6E6E6"/>
<rect x="558" y="160" width="176" height="32" rx="3" fill="#FCFCFC" stroke="#E3E3E3" stroke-width="4" stroke-linecap="round"/>
<path d="M587.41 182.193C586.857 182.193 586.357 182.091 585.91 181.886C585.463 181.678 585.109 181.377 584.848 180.983C584.59 180.589 584.461 180.106 584.461 179.534C584.461 179.042 584.556 178.636 584.745 178.318C584.935 178 585.19 177.748 585.512 177.562C585.834 177.377 586.194 177.237 586.592 177.142C586.99 177.047 587.395 176.975 587.808 176.926C588.331 176.866 588.755 176.816 589.081 176.778C589.406 176.737 589.643 176.67 589.791 176.58C589.939 176.489 590.012 176.341 590.012 176.136V176.097C590.012 175.6 589.872 175.216 589.592 174.943C589.315 174.67 588.903 174.534 588.353 174.534C587.781 174.534 587.331 174.661 587.001 174.915C586.675 175.165 586.45 175.443 586.325 175.75L584.728 175.386C584.918 174.856 585.194 174.428 585.558 174.102C585.925 173.773 586.348 173.534 586.825 173.386C587.302 173.235 587.804 173.159 588.331 173.159C588.679 173.159 589.048 173.201 589.439 173.284C589.832 173.364 590.2 173.511 590.541 173.727C590.886 173.943 591.168 174.252 591.387 174.653C591.607 175.051 591.717 175.568 591.717 176.205V182H590.058V180.807H589.99C589.88 181.027 589.715 181.242 589.495 181.455C589.276 181.667 588.993 181.843 588.649 181.983C588.304 182.123 587.891 182.193 587.41 182.193ZM587.779 180.83C588.249 180.83 588.651 180.737 588.984 180.551C589.321 180.366 589.577 180.123 589.751 179.824C589.929 179.521 590.018 179.197 590.018 178.852V177.727C589.957 177.788 589.84 177.845 589.666 177.898C589.495 177.947 589.3 177.991 589.081 178.028C588.861 178.062 588.647 178.095 588.439 178.125C588.23 178.152 588.056 178.174 587.916 178.193C587.586 178.235 587.285 178.305 587.012 178.403C586.743 178.502 586.528 178.644 586.365 178.83C586.206 179.011 586.126 179.254 586.126 179.557C586.126 179.977 586.281 180.295 586.592 180.511C586.903 180.723 587.298 180.83 587.779 180.83ZM595.503 170.364V182H593.804V170.364H595.503ZM599.311 170.364V182H597.612V170.364H599.311ZM605.097 182.176C604.278 182.176 603.564 181.989 602.955 181.614C602.345 181.239 601.871 180.714 601.534 180.04C601.197 179.366 601.028 178.578 601.028 177.676C601.028 176.771 601.197 175.979 601.534 175.301C601.871 174.623 602.345 174.097 602.955 173.722C603.564 173.347 604.278 173.159 605.097 173.159C605.915 173.159 606.629 173.347 607.239 173.722C607.849 174.097 608.322 174.623 608.659 175.301C608.996 175.979 609.165 176.771 609.165 177.676C609.165 178.578 608.996 179.366 608.659 180.04C608.322 180.714 607.849 181.239 607.239 181.614C606.629 181.989 605.915 182.176 605.097 182.176ZM605.102 180.75C605.633 180.75 606.072 180.61 606.42 180.33C606.769 180.049 607.027 179.676 607.193 179.21C607.364 178.744 607.449 178.231 607.449 177.67C607.449 177.114 607.364 176.602 607.193 176.136C607.027 175.667 606.769 175.29 606.42 175.006C606.072 174.722 605.633 174.58 605.102 174.58C604.568 174.58 604.125 174.722 603.773 175.006C603.424 175.29 603.165 175.667 602.994 176.136C602.828 176.602 602.744 177.114 602.744 177.67C602.744 178.231 602.828 178.744 602.994 179.21C603.165 179.676 603.424 180.049 603.773 180.33C604.125 180.61 604.568 180.75 605.102 180.75ZM612.512 182L609.943 173.273H611.699L613.409 179.682H613.494L615.21 173.273H616.966L618.671 179.653H618.756L620.455 173.273H622.21L619.648 182H617.915L616.142 175.699H616.012L614.239 182H612.512ZM624.766 182.108C624.455 182.108 624.188 181.998 623.965 181.778C623.741 181.555 623.63 181.286 623.63 180.972C623.63 180.661 623.741 180.396 623.965 180.176C624.188 179.953 624.455 179.841 624.766 179.841C625.077 179.841 625.344 179.953 625.567 180.176C625.791 180.396 625.902 180.661 625.902 180.972C625.902 181.18 625.849 181.371 625.743 181.545C625.641 181.716 625.505 181.852 625.334 181.955C625.164 182.057 624.974 182.108 624.766 182.108ZM624.766 175.756C624.455 175.756 624.188 175.644 623.965 175.42C623.741 175.197 623.63 174.93 623.63 174.619C623.63 174.309 623.741 174.044 623.965 173.824C624.188 173.6 624.455 173.489 624.766 173.489C625.077 173.489 625.344 173.6 625.567 173.824C625.791 174.044 625.902 174.309 625.902 174.619C625.902 174.828 625.849 175.019 625.743 175.193C625.641 175.364 625.505 175.5 625.334 175.602C625.164 175.705 624.974 175.756 624.766 175.756ZM635.969 182.159C635.155 182.159 634.435 182.019 633.81 181.739C633.189 181.458 632.702 181.072 632.35 180.58C631.998 180.087 631.823 179.527 631.827 178.898C631.823 178.405 631.924 177.953 632.128 177.54C632.337 177.123 632.619 176.777 632.975 176.5C633.331 176.22 633.729 176.042 634.168 175.966V175.898C633.589 175.758 633.125 175.447 632.776 174.966C632.428 174.485 632.255 173.932 632.259 173.307C632.255 172.712 632.413 172.182 632.731 171.716C633.053 171.246 633.494 170.877 634.055 170.608C634.615 170.339 635.253 170.205 635.969 170.205C636.678 170.205 637.31 170.341 637.867 170.614C638.428 170.883 638.869 171.252 639.191 171.722C639.513 172.187 639.676 172.716 639.68 173.307C639.676 173.932 639.498 174.485 639.145 174.966C638.793 175.447 638.335 175.758 637.77 175.898V175.966C638.206 176.042 638.598 176.22 638.947 176.5C639.299 176.777 639.579 177.123 639.788 177.54C640 177.953 640.108 178.405 640.111 178.898C640.108 179.527 639.93 180.087 639.577 180.58C639.225 181.072 638.736 181.458 638.111 181.739C637.49 182.019 636.776 182.159 635.969 182.159ZM635.969 180.722C636.45 180.722 636.867 180.642 637.219 180.483C637.572 180.32 637.844 180.095 638.038 179.807C638.231 179.515 638.329 179.174 638.333 178.784C638.329 178.379 638.223 178.021 638.015 177.71C637.81 177.4 637.532 177.155 637.18 176.977C636.827 176.799 636.424 176.71 635.969 176.71C635.511 176.71 635.104 176.799 634.748 176.977C634.392 177.155 634.111 177.4 633.907 177.71C633.702 178.021 633.602 178.379 633.606 178.784C633.602 179.174 633.695 179.515 633.884 179.807C634.077 180.095 634.352 180.32 634.708 180.483C635.064 180.642 635.484 180.722 635.969 180.722ZM635.969 175.307C636.356 175.307 636.698 175.229 636.998 175.074C637.297 174.919 637.532 174.703 637.702 174.426C637.877 174.15 637.966 173.826 637.969 173.455C637.966 173.091 637.878 172.773 637.708 172.5C637.541 172.227 637.308 172.017 637.009 171.869C636.71 171.718 636.363 171.642 635.969 171.642C635.568 171.642 635.216 171.718 634.913 171.869C634.613 172.017 634.38 172.227 634.214 172.5C634.047 172.773 633.966 173.091 633.969 173.455C633.966 173.826 634.049 174.15 634.219 174.426C634.39 174.703 634.625 174.919 634.924 175.074C635.227 175.229 635.575 175.307 635.969 175.307ZM646.022 182.193C645.124 182.189 644.357 181.953 643.721 181.483C643.085 181.013 642.598 180.33 642.261 179.432C641.924 178.534 641.755 177.453 641.755 176.188C641.755 174.926 641.924 173.848 642.261 172.955C642.602 172.061 643.09 171.379 643.727 170.909C644.367 170.439 645.132 170.205 646.022 170.205C646.912 170.205 647.675 170.441 648.312 170.915C648.948 171.384 649.435 172.066 649.772 172.96C650.113 173.85 650.283 174.926 650.283 176.188C650.283 177.456 650.115 178.54 649.778 179.438C649.441 180.331 648.954 181.015 648.317 181.489C647.681 181.958 646.916 182.193 646.022 182.193ZM646.022 180.676C646.81 180.676 647.425 180.292 647.869 179.523C648.316 178.754 648.539 177.642 648.539 176.188C648.539 175.222 648.437 174.405 648.232 173.739C648.031 173.068 647.742 172.561 647.363 172.216C646.988 171.867 646.541 171.693 646.022 171.693C645.238 171.693 644.622 172.08 644.175 172.852C643.728 173.625 643.503 174.737 643.499 176.188C643.499 177.157 643.6 177.977 643.8 178.648C644.005 179.314 644.295 179.82 644.67 180.165C645.045 180.506 645.496 180.676 646.022 180.676ZM652.843 182.108C652.533 182.108 652.266 181.998 652.042 181.778C651.819 181.555 651.707 181.286 651.707 180.972C651.707 180.661 651.819 180.396 652.042 180.176C652.266 179.953 652.533 179.841 652.843 179.841C653.154 179.841 653.421 179.953 653.644 180.176C653.868 180.396 653.98 180.661 653.98 180.972C653.98 181.18 653.927 181.371 653.82 181.545C653.718 181.716 653.582 181.852 653.411 181.955C653.241 182.057 653.052 182.108 652.843 182.108ZM656.152 182L661.231 171.955V171.869H655.356V170.364H663.049V171.92L657.987 182H656.152ZM668.635 182.159C667.854 182.159 667.157 182.025 666.544 181.756C665.934 181.487 665.451 181.114 665.095 180.636C664.743 180.155 664.553 179.598 664.527 178.966H666.311C666.334 179.311 666.449 179.61 666.657 179.864C666.869 180.114 667.146 180.307 667.487 180.443C667.828 180.58 668.207 180.648 668.623 180.648C669.082 180.648 669.487 180.568 669.839 180.409C670.195 180.25 670.474 180.028 670.674 179.744C670.875 179.456 670.976 179.125 670.976 178.75C670.976 178.36 670.875 178.017 670.674 177.722C670.477 177.422 670.188 177.187 669.805 177.017C669.426 176.847 668.968 176.761 668.43 176.761H667.447V175.33H668.43C668.862 175.33 669.241 175.252 669.566 175.097C669.896 174.941 670.154 174.725 670.339 174.449C670.525 174.169 670.618 173.841 670.618 173.466C670.618 173.106 670.536 172.794 670.373 172.528C670.214 172.259 669.987 172.049 669.691 171.898C669.4 171.746 669.055 171.67 668.657 171.67C668.279 171.67 667.924 171.741 667.595 171.881C667.269 172.017 667.004 172.214 666.799 172.472C666.595 172.725 666.485 173.03 666.47 173.386H664.771C664.79 172.758 664.976 172.205 665.328 171.727C665.684 171.25 666.154 170.877 666.737 170.608C667.32 170.339 667.968 170.205 668.68 170.205C669.426 170.205 670.07 170.35 670.612 170.642C671.157 170.93 671.578 171.314 671.873 171.795C672.173 172.277 672.32 172.803 672.316 173.375C672.32 174.027 672.138 174.58 671.771 175.034C671.407 175.489 670.923 175.794 670.316 175.949V176.04C671.089 176.157 671.688 176.464 672.112 176.96C672.54 177.456 672.752 178.072 672.748 178.807C672.752 179.447 672.574 180.021 672.214 180.528C671.858 181.036 671.371 181.436 670.754 181.727C670.137 182.015 669.43 182.159 668.635 182.159ZM675.518 182.108C675.208 182.108 674.941 181.998 674.717 181.778C674.494 181.555 674.382 181.286 674.382 180.972C674.382 180.661 674.494 180.396 674.717 180.176C674.941 179.953 675.208 179.841 675.518 179.841C675.829 179.841 676.096 179.953 676.319 180.176C676.543 180.396 676.655 180.661 676.655 180.972C676.655 181.18 676.602 181.371 676.496 181.545C676.393 181.716 676.257 181.852 676.086 181.955C675.916 182.057 675.727 182.108 675.518 182.108ZM678.487 179.727V178.307L683.516 170.364H684.635V172.455H683.925L680.328 178.148V178.239H687.22V179.727H678.487ZM684.004 182V179.295L684.016 178.648V170.364H685.68V182H684.004ZM688.78 179.727V178.307L693.808 170.364H694.928V172.455H694.217L690.621 178.148V178.239H697.513V179.727H688.78ZM694.297 182V179.295L694.308 178.648V170.364H695.973V182H694.297ZM700.022 182.108C699.711 182.108 699.444 181.998 699.22 181.778C698.997 181.555 698.885 181.286 698.885 180.972C698.885 180.661 698.997 180.396 699.22 180.176C699.444 179.953 699.711 179.841 700.022 179.841C700.332 179.841 700.599 179.953 700.823 180.176C701.046 180.396 701.158 180.661 701.158 180.972C701.158 181.18 701.105 181.371 700.999 181.545C700.897 181.716 700.76 181.852 700.59 181.955C700.419 182.057 700.23 182.108 700.022 182.108ZM706.243 170.364V182H704.482V172.125H704.414L701.63 173.943V172.261L704.533 170.364H706.243Z" fill="black" fill-opacity="0.8"/>
<path d="M585.034 117.182L582.466 108.454H584.222L585.932 114.863H586.017L587.733 108.454H589.489L591.193 114.835H591.278L592.977 108.454H594.733L592.17 117.182H590.438L588.665 110.881H588.534L586.761 117.182H585.034ZM598.061 117.182L595.493 108.454H597.249L598.959 114.863H599.044L600.76 108.454H602.516L604.22 114.835H604.306L606.004 108.454H607.76L605.198 117.182H603.465L601.692 110.881H601.561L599.788 117.182H598.061ZM611.088 117.182L608.52 108.454H610.276L611.986 114.863H612.071L613.787 108.454H615.543L617.247 114.835H617.333L619.032 108.454H620.787L618.225 117.182H616.492L614.719 110.881H614.588L612.816 117.182H611.088ZM622.155 117.29C621.845 117.29 621.578 117.18 621.354 116.96C621.131 116.737 621.019 116.468 621.019 116.153C621.019 115.843 621.131 115.577 621.354 115.358C621.578 115.134 621.845 115.023 622.155 115.023C622.466 115.023 622.733 115.134 622.956 115.358C623.18 115.577 623.292 115.843 623.292 116.153C623.292 116.362 623.239 116.553 623.133 116.727C623.03 116.898 622.894 117.034 622.723 117.136C622.553 117.238 622.364 117.29 622.155 117.29ZM629.05 120.636C628.357 120.636 627.76 120.545 627.26 120.363C626.764 120.182 626.359 119.941 626.045 119.642C625.73 119.343 625.495 119.015 625.34 118.659L626.8 118.057C626.903 118.223 627.039 118.399 627.209 118.585C627.384 118.774 627.618 118.935 627.914 119.068C628.213 119.201 628.598 119.267 629.067 119.267C629.711 119.267 630.243 119.11 630.664 118.795C631.084 118.485 631.295 117.988 631.295 117.307V115.591H631.187C631.084 115.776 630.937 115.983 630.743 116.21C630.554 116.437 630.293 116.634 629.959 116.801C629.626 116.968 629.192 117.051 628.658 117.051C627.969 117.051 627.348 116.89 626.795 116.568C626.245 116.242 625.81 115.763 625.488 115.131C625.17 114.494 625.01 113.712 625.01 112.784C625.01 111.856 625.168 111.06 625.482 110.398C625.8 109.735 626.236 109.227 626.789 108.875C627.342 108.519 627.969 108.341 628.67 108.341C629.211 108.341 629.649 108.432 629.982 108.613C630.315 108.791 630.575 109 630.76 109.238C630.95 109.477 631.096 109.687 631.198 109.869H631.323V108.454H632.988V117.375C632.988 118.125 632.814 118.74 632.465 119.221C632.117 119.702 631.645 120.059 631.05 120.29C630.459 120.521 629.793 120.636 629.05 120.636ZM629.033 115.642C629.522 115.642 629.935 115.528 630.272 115.301C630.613 115.07 630.87 114.74 631.045 114.312C631.223 113.881 631.312 113.363 631.312 112.761C631.312 112.174 631.225 111.657 631.05 111.21C630.876 110.763 630.62 110.415 630.283 110.165C629.946 109.911 629.529 109.784 629.033 109.784C628.522 109.784 628.096 109.916 627.755 110.182C627.414 110.443 627.156 110.799 626.982 111.25C626.812 111.701 626.726 112.204 626.726 112.761C626.726 113.333 626.814 113.835 626.988 114.267C627.162 114.699 627.42 115.036 627.76 115.278C628.105 115.521 628.529 115.642 629.033 115.642ZM635.09 117.182V108.454H636.789V117.182H635.09ZM635.948 107.108C635.653 107.108 635.399 107.009 635.187 106.812C634.978 106.612 634.874 106.373 634.874 106.096C634.874 105.816 634.978 105.577 635.187 105.381C635.399 105.18 635.653 105.079 635.948 105.079C636.244 105.079 636.495 105.18 636.704 105.381C636.916 105.577 637.022 105.816 637.022 106.096C637.022 106.373 636.916 106.612 636.704 106.812C636.495 107.009 636.244 107.108 635.948 107.108ZM642.972 108.454V109.818H638.205V108.454H642.972ZM639.484 106.363H641.183V114.619C641.183 114.949 641.232 115.197 641.33 115.363C641.429 115.526 641.556 115.638 641.711 115.699C641.87 115.756 642.042 115.784 642.228 115.784C642.364 115.784 642.484 115.774 642.586 115.756C642.688 115.737 642.768 115.721 642.825 115.71L643.132 117.113C643.033 117.151 642.893 117.189 642.711 117.227C642.529 117.269 642.302 117.291 642.029 117.295C641.582 117.303 641.166 117.223 640.779 117.057C640.393 116.89 640.08 116.632 639.842 116.284C639.603 115.935 639.484 115.498 639.484 114.971V106.363ZM646.562 112V117.182H644.863V105.545H646.539V109.875H646.647C646.852 109.405 647.164 109.032 647.585 108.756C648.005 108.479 648.554 108.341 649.232 108.341C649.831 108.341 650.354 108.464 650.801 108.71C651.251 108.956 651.6 109.324 651.846 109.812C652.096 110.297 652.221 110.903 652.221 111.631V117.182H650.522V111.835C650.522 111.195 650.357 110.699 650.028 110.346C649.698 109.99 649.24 109.812 648.653 109.812C648.251 109.812 647.892 109.898 647.573 110.068C647.259 110.238 647.011 110.488 646.829 110.818C646.651 111.144 646.562 111.538 646.562 112ZM659.841 113.562V108.454H661.545V117.182H659.875V115.67H659.784C659.583 116.136 659.261 116.524 658.818 116.835C658.378 117.142 657.831 117.295 657.176 117.295C656.615 117.295 656.119 117.172 655.687 116.926C655.259 116.676 654.922 116.307 654.676 115.818C654.433 115.329 654.312 114.725 654.312 114.006V108.454H656.011V113.801C656.011 114.396 656.176 114.869 656.505 115.221C656.835 115.574 657.263 115.75 657.789 115.75C658.108 115.75 658.424 115.67 658.738 115.511C659.056 115.352 659.32 115.112 659.528 114.79C659.74 114.468 659.844 114.059 659.841 113.562ZM663.788 117.182V105.545H665.487V109.869H665.589C665.688 109.687 665.83 109.477 666.015 109.238C666.201 109 666.459 108.791 666.788 108.613C667.118 108.432 667.553 108.341 668.095 108.341C668.8 108.341 669.428 108.519 669.981 108.875C670.534 109.231 670.968 109.744 671.282 110.415C671.601 111.085 671.76 111.892 671.76 112.835C671.76 113.778 671.603 114.587 671.288 115.261C670.974 115.932 670.542 116.449 669.993 116.812C669.443 117.172 668.817 117.352 668.112 117.352C667.582 117.352 667.148 117.263 666.811 117.085C666.478 116.907 666.216 116.699 666.027 116.46C665.837 116.221 665.692 116.009 665.589 115.824H665.447V117.182H663.788ZM665.453 112.818C665.453 113.432 665.542 113.97 665.72 114.432C665.898 114.894 666.156 115.256 666.493 115.517C666.83 115.774 667.243 115.903 667.731 115.903C668.239 115.903 668.663 115.769 669.004 115.5C669.345 115.227 669.603 114.858 669.777 114.392C669.955 113.926 670.044 113.401 670.044 112.818C670.044 112.242 669.957 111.725 669.782 111.267C669.612 110.809 669.354 110.447 669.01 110.182C668.669 109.916 668.243 109.784 667.731 109.784C667.239 109.784 666.822 109.911 666.481 110.165C666.144 110.418 665.889 110.773 665.714 111.227C665.54 111.682 665.453 112.212 665.453 112.818ZM674.611 117.29C674.3 117.29 674.033 117.18 673.81 116.96C673.586 116.737 673.474 116.468 673.474 116.153C673.474 115.843 673.586 115.577 673.81 115.358C674.033 115.134 674.3 115.023 674.611 115.023C674.921 115.023 675.188 115.134 675.412 115.358C675.635 115.577 675.747 115.843 675.747 116.153C675.747 116.362 675.694 116.553 675.588 116.727C675.486 116.898 675.349 117.034 675.179 117.136C675.008 117.238 674.819 117.29 674.611 117.29ZM681.523 117.358C680.678 117.358 679.951 117.166 679.341 116.784C678.735 116.398 678.269 115.865 677.943 115.187C677.618 114.509 677.455 113.733 677.455 112.858C677.455 111.971 677.621 111.189 677.955 110.511C678.288 109.829 678.758 109.297 679.364 108.915C679.97 108.532 680.684 108.341 681.506 108.341C682.169 108.341 682.76 108.464 683.278 108.71C683.797 108.952 684.216 109.293 684.534 109.733C684.856 110.172 685.047 110.685 685.108 111.273H683.455C683.364 110.863 683.155 110.511 682.83 110.216C682.508 109.92 682.076 109.773 681.534 109.773C681.061 109.773 680.646 109.898 680.29 110.148C679.938 110.394 679.663 110.746 679.466 111.204C679.269 111.659 679.171 112.197 679.171 112.818C679.171 113.454 679.267 114.004 679.46 114.466C679.653 114.928 679.926 115.286 680.278 115.54C680.635 115.793 681.053 115.92 681.534 115.92C681.856 115.92 682.148 115.862 682.409 115.744C682.674 115.623 682.896 115.451 683.074 115.227C683.256 115.004 683.383 114.735 683.455 114.42H685.108C685.047 114.985 684.864 115.488 684.557 115.932C684.25 116.375 683.839 116.723 683.324 116.977C682.813 117.231 682.212 117.358 681.523 117.358ZM690.425 117.358C689.607 117.358 688.893 117.17 688.283 116.795C687.673 116.42 687.2 115.896 686.862 115.221C686.525 114.547 686.357 113.759 686.357 112.858C686.357 111.952 686.525 111.161 686.862 110.483C687.2 109.805 687.673 109.278 688.283 108.903C688.893 108.528 689.607 108.341 690.425 108.341C691.243 108.341 691.957 108.528 692.567 108.903C693.177 109.278 693.65 109.805 693.987 110.483C694.325 111.161 694.493 111.952 694.493 112.858C694.493 113.759 694.325 114.547 693.987 115.221C693.65 115.896 693.177 116.42 692.567 116.795C691.957 117.17 691.243 117.358 690.425 117.358ZM690.431 115.932C690.961 115.932 691.4 115.791 691.749 115.511C692.097 115.231 692.355 114.858 692.522 114.392C692.692 113.926 692.777 113.413 692.777 112.852C692.777 112.295 692.692 111.784 692.522 111.318C692.355 110.848 692.097 110.471 691.749 110.187C691.4 109.903 690.961 109.761 690.431 109.761C689.897 109.761 689.453 109.903 689.101 110.187C688.753 110.471 688.493 110.848 688.323 111.318C688.156 111.784 688.073 112.295 688.073 112.852C688.073 113.413 688.156 113.926 688.323 114.392C688.493 114.858 688.753 115.231 689.101 115.511C689.453 115.791 689.897 115.932 690.431 115.932ZM696.213 117.182V108.454H697.844V109.875H697.952C698.134 109.394 698.431 109.019 698.844 108.75C699.257 108.477 699.751 108.341 700.327 108.341C700.91 108.341 701.399 108.477 701.793 108.75C702.191 109.023 702.484 109.398 702.674 109.875H702.765C702.973 109.409 703.304 109.038 703.759 108.761C704.213 108.481 704.755 108.341 705.384 108.341C706.176 108.341 706.821 108.589 707.321 109.085C707.825 109.581 708.077 110.329 708.077 111.329V117.182H706.378V111.488C706.378 110.898 706.217 110.47 705.895 110.204C705.573 109.939 705.189 109.807 704.742 109.807C704.189 109.807 703.759 109.977 703.452 110.318C703.145 110.655 702.992 111.089 702.992 111.619V117.182H701.299V111.381C701.299 110.907 701.151 110.526 700.855 110.238C700.56 109.951 700.176 109.807 699.702 109.807C699.38 109.807 699.083 109.892 698.81 110.062C698.541 110.229 698.323 110.462 698.157 110.761C697.994 111.06 697.912 111.407 697.912 111.801V117.182H696.213Z" fill="#1E1E1E"/>
<g clip-path="url(#clip0_1038_556)">
<path fill-rule="evenodd" clip-rule="evenodd" d="M645.436 41C633.582 41 624 50.6531 624 62.5952C624 72.1412 630.14 80.2217 638.657 83.0816C639.722 83.2966 640.112 82.617 640.112 82.0453C640.112 81.5446 640.077 79.8286 640.077 78.0406C634.114 79.3279 632.872 75.4663 632.872 75.4663C631.914 72.9635 630.494 72.3202 630.494 72.3202C628.543 70.9973 630.636 70.9973 630.636 70.9973C632.801 71.1404 633.937 73.214 633.937 73.214C635.854 76.5031 638.941 75.5738 640.183 75.0016C640.361 73.6072 640.929 72.6419 641.532 72.1057C636.776 71.605 631.772 69.7459 631.772 61.4509C631.772 59.0912 632.624 57.1605 633.972 55.6591C633.76 55.1229 633.014 52.9057 634.186 49.9383C634.186 49.9383 635.996 49.3661 640.077 52.155C641.824 51.6823 643.626 51.4418 645.436 51.4398C647.246 51.4398 649.091 51.6903 650.795 52.155C654.876 49.3661 656.686 49.9383 656.686 49.9383C657.858 52.9057 657.112 55.1229 656.899 55.6591C658.283 57.1605 659.099 59.0912 659.099 61.4509C659.099 69.7459 654.096 71.5691 649.304 72.1057C650.085 72.7849 650.759 74.0718 650.759 76.1099C650.759 79.0059 650.724 81.3301 650.724 82.0448C650.724 82.617 651.115 83.2966 652.179 83.0821C660.697 80.2213 666.836 72.1412 666.836 62.5952C666.871 50.6531 657.254 41 645.436 41Z" fill="#24292F"/>
</g>
<rect x="2" y="192" width="184" height="32" rx="3" fill="#ECE5FF" stroke="#D2A8FF" stroke-width="4" stroke-linecap="round"/>
<path d="M34.1136 214V202.364H35.8125V206.688H35.9147C36.0132 206.506 36.1553 206.295 36.3409 206.057C36.5265 205.818 36.784 205.61 37.1136 205.432C37.4431 205.25 37.8787 205.159 38.4204 205.159C39.125 205.159 39.7537 205.337 40.3068 205.693C40.8598 206.049 41.2935 206.562 41.6079 207.233C41.9261 207.903 42.0852 208.71 42.0852 209.653C42.0852 210.597 41.928 211.405 41.6136 212.08C41.2992 212.75 40.8674 213.267 40.3181 213.631C39.7689 213.991 39.142 214.17 38.4375 214.17C37.9072 214.17 37.4734 214.081 37.1363 213.903C36.803 213.725 36.5416 213.517 36.3522 213.278C36.1628 213.04 36.017 212.828 35.9147 212.642H35.7727V214H34.1136ZM35.7784 209.636C35.7784 210.25 35.8674 210.788 36.0454 211.25C36.2234 211.712 36.481 212.074 36.8181 212.335C37.1553 212.593 37.5681 212.722 38.0568 212.722C38.5644 212.722 38.9886 212.587 39.3295 212.318C39.6704 212.045 39.928 211.676 40.1022 211.21C40.2803 210.744 40.3693 210.22 40.3693 209.636C40.3693 209.061 40.2822 208.544 40.1079 208.085C39.9375 207.627 39.6799 207.265 39.3352 207C38.9943 206.735 38.5681 206.602 38.0568 206.602C37.5644 206.602 37.1477 206.729 36.8068 206.983C36.4697 207.237 36.214 207.591 36.0397 208.045C35.8655 208.5 35.7784 209.03 35.7784 209.636ZM47.493 214.176C46.6748 214.176 45.9608 213.989 45.3509 213.614C44.7411 213.239 44.2676 212.714 43.9305 212.04C43.5934 211.366 43.4248 210.578 43.4248 209.676C43.4248 208.771 43.5934 207.979 43.9305 207.301C44.2676 206.623 44.7411 206.097 45.3509 205.722C45.9608 205.347 46.6748 205.159 47.493 205.159C48.3112 205.159 49.0252 205.347 49.635 205.722C50.2449 206.097 50.7184 206.623 51.0555 207.301C51.3926 207.979 51.5612 208.771 51.5612 209.676C51.5612 210.578 51.3926 211.366 51.0555 212.04C50.7184 212.714 50.2449 213.239 49.635 213.614C49.0252 213.989 48.3112 214.176 47.493 214.176ZM47.4987 212.75C48.029 212.75 48.4684 212.61 48.8169 212.33C49.1653 212.049 49.4229 211.676 49.5896 211.21C49.76 210.744 49.8453 210.231 49.8453 209.67C49.8453 209.114 49.76 208.602 49.5896 208.136C49.4229 207.667 49.1653 207.29 48.8169 207.006C48.4684 206.722 48.029 206.58 47.4987 206.58C46.9646 206.58 46.5214 206.722 46.1691 207.006C45.8206 207.29 45.5612 207.667 45.3907 208.136C45.2241 208.602 45.1407 209.114 45.1407 209.67C45.1407 210.231 45.2241 210.744 45.3907 211.21C45.5612 211.676 45.8206 212.049 46.1691 212.33C46.5214 212.61 46.9646 212.75 47.4987 212.75ZM53.4178 214V202.364H55.1167V206.688H55.219C55.3175 206.506 55.4595 206.295 55.6451 206.057C55.8307 205.818 56.0883 205.61 56.4178 205.432C56.7474 205.25 57.183 205.159 57.7247 205.159C58.4292 205.159 59.058 205.337 59.611 205.693C60.1641 206.049 60.5978 206.562 60.9122 207.233C61.2303 207.903 61.3894 208.71 61.3894 209.653C61.3894 210.597 61.2322 211.405 60.9178 212.08C60.6034 212.75 60.1716 213.267 59.6224 213.631C59.0731 213.991 58.4463 214.17 57.7417 214.17C57.2114 214.17 56.7777 214.081 56.4406 213.903C56.1072 213.725 55.8459 213.517 55.6565 213.278C55.4671 213.04 55.3213 212.828 55.219 212.642H55.0769V214H53.4178ZM55.0826 209.636C55.0826 210.25 55.1716 210.788 55.3497 211.25C55.5277 211.712 55.7853 212.074 56.1224 212.335C56.4595 212.593 56.8724 212.722 57.361 212.722C57.8686 212.722 58.2928 212.587 58.6338 212.318C58.9747 212.045 59.2322 211.676 59.4065 211.21C59.5845 210.744 59.6735 210.22 59.6735 209.636C59.6735 209.061 59.5864 208.544 59.4122 208.085C59.2417 207.627 58.9841 207.265 58.6394 207C58.2985 206.735 57.8724 206.602 57.361 206.602C56.8686 206.602 56.4519 206.729 56.111 206.983C55.7739 207.237 55.5182 207.591 55.344 208.045C55.1697 208.5 55.0826 209.03 55.0826 209.636ZM70.1268 217.165C68.9525 217.165 67.9109 217.004 67.0018 216.682C66.0965 216.364 65.3332 215.894 64.712 215.273C64.0908 214.655 63.6192 213.898 63.2972 213C62.9753 212.102 62.8143 211.078 62.8143 209.926C62.8143 208.805 62.9772 207.797 63.3029 206.903C63.6287 206.009 64.1022 205.248 64.7234 204.619C65.3484 203.987 66.1078 203.504 67.0018 203.17C67.8957 202.837 68.9109 202.67 70.0472 202.67C71.1344 202.67 72.0927 202.841 72.9222 203.182C73.7518 203.523 74.4488 203.991 75.0132 204.585C75.5813 205.18 76.0094 205.862 76.2972 206.631C76.5851 207.4 76.7291 208.212 76.7291 209.068C76.7291 209.667 76.6912 210.252 76.6154 210.824C76.5397 211.392 76.3995 211.907 76.195 212.369C75.9942 212.828 75.7025 213.195 75.32 213.472C74.9412 213.744 74.4488 213.886 73.8427 213.898C73.5207 213.909 73.2082 213.871 72.9052 213.784C72.6022 213.697 72.3446 213.557 72.1325 213.364C71.9203 213.167 71.7916 212.917 71.7461 212.614H71.6779C71.587 212.837 71.4355 213.045 71.2234 213.239C71.0113 213.428 70.7404 213.58 70.4109 213.693C70.0851 213.803 69.7063 213.848 69.2745 213.83C68.7972 213.811 68.3673 213.703 67.9847 213.506C67.6022 213.309 67.2745 213.036 67.0018 212.688C66.7328 212.339 66.5264 211.926 66.3825 211.449C66.2385 210.972 66.1666 210.441 66.1666 209.858C66.1666 209.297 66.248 208.795 66.4109 208.352C66.5738 207.905 66.7953 207.521 67.0757 207.199C67.3597 206.873 67.6855 206.616 68.0529 206.426C68.4203 206.237 68.8086 206.117 69.2177 206.068C69.6154 206.023 69.981 206.034 70.3143 206.102C70.6476 206.17 70.9241 206.275 71.1438 206.415C71.3673 206.555 71.5075 206.708 71.5643 206.875H71.6382V206.239H73.0359V211.511C73.0359 211.811 73.1135 212.064 73.2688 212.273C73.4279 212.481 73.6533 212.585 73.945 212.585C74.2897 212.585 74.5586 212.458 74.7518 212.205C74.9488 211.951 75.087 211.561 75.1666 211.034C75.2499 210.508 75.2916 209.833 75.2916 209.011C75.2916 208.436 75.2139 207.894 75.0586 207.386C74.9071 206.875 74.6817 206.413 74.3825 206C74.087 205.583 73.7234 205.225 73.2916 204.926C72.8597 204.627 72.3673 204.396 71.8143 204.233C71.265 204.07 70.6571 203.989 69.9904 203.989C69.0851 203.989 68.2802 204.129 67.5757 204.409C66.8711 204.686 66.2764 205.085 65.7916 205.608C65.3105 206.131 64.945 206.758 64.695 207.489C64.4488 208.216 64.3257 209.032 64.3257 209.938C64.3257 210.881 64.4525 211.718 64.7063 212.449C64.9601 213.176 65.3351 213.79 65.8313 214.29C66.3275 214.79 66.9412 215.169 67.6722 215.426C68.4033 215.688 69.2461 215.818 70.2007 215.818C70.6249 215.818 71.0416 215.78 71.4507 215.705C71.8597 215.633 72.2234 215.549 72.5416 215.455C72.8635 215.364 73.1041 215.29 73.2632 215.233L73.6609 216.477C73.426 216.587 73.1135 216.695 72.7234 216.801C72.337 216.907 71.9166 216.994 71.462 217.062C71.0113 217.131 70.5662 217.165 70.1268 217.165ZM69.6041 212.438C70.0965 212.438 70.4923 212.339 70.7916 212.142C71.0946 211.945 71.3124 211.652 71.445 211.261C71.5813 210.867 71.6495 210.375 71.6495 209.784C71.6457 209.208 71.5719 208.75 71.4279 208.409C71.2878 208.064 71.0681 207.818 70.7688 207.67C70.4734 207.519 70.0927 207.443 69.6268 207.443C69.1988 207.443 68.8332 207.547 68.5302 207.756C68.231 207.964 68.0018 208.246 67.8427 208.602C67.6874 208.958 67.6078 209.354 67.6041 209.79C67.6078 210.248 67.6722 210.68 67.7972 211.085C67.926 211.487 68.1344 211.812 68.4222 212.062C68.7139 212.312 69.1078 212.438 69.6041 212.438ZM80.9693 214.193C80.4162 214.193 79.9162 214.091 79.4693 213.886C79.0223 213.678 78.6681 213.377 78.4068 212.983C78.1492 212.589 78.0204 212.106 78.0204 211.534C78.0204 211.042 78.1151 210.636 78.3045 210.318C78.4939 210 78.7496 209.748 79.0715 209.562C79.3935 209.377 79.7533 209.237 80.1511 209.142C80.5488 209.047 80.9541 208.975 81.367 208.926C81.8897 208.866 82.314 208.816 82.6397 208.778C82.9655 208.737 83.2022 208.67 83.3499 208.58C83.4977 208.489 83.5715 208.341 83.5715 208.136V208.097C83.5715 207.6 83.4314 207.216 83.1511 206.943C82.8746 206.67 82.4617 206.534 81.9124 206.534C81.3405 206.534 80.8897 206.661 80.5602 206.915C80.2344 207.165 80.009 207.443 79.884 207.75L78.2874 207.386C78.4768 206.856 78.7533 206.428 79.117 206.102C79.4844 205.773 79.9068 205.534 80.384 205.386C80.8613 205.235 81.3632 205.159 81.8897 205.159C82.2382 205.159 82.6075 205.201 82.9977 205.284C83.3916 205.364 83.759 205.511 84.0999 205.727C84.4446 205.943 84.7268 206.252 84.9465 206.653C85.1662 207.051 85.2761 207.568 85.2761 208.205V214H83.617V212.807H83.5488C83.439 213.027 83.2742 213.242 83.0545 213.455C82.8348 213.667 82.5526 213.843 82.2079 213.983C81.8632 214.123 81.4503 214.193 80.9693 214.193ZM81.3386 212.83C81.8083 212.83 82.2098 212.737 82.5431 212.551C82.8802 212.366 83.1359 212.123 83.3102 211.824C83.4882 211.521 83.5772 211.197 83.5772 210.852V209.727C83.5166 209.788 83.3992 209.845 83.2249 209.898C83.0545 209.947 82.8594 209.991 82.6397 210.028C82.42 210.062 82.206 210.095 81.9977 210.125C81.7893 210.152 81.6151 210.174 81.4749 210.193C81.1454 210.235 80.8443 210.305 80.5715 210.403C80.3026 210.502 80.0867 210.644 79.9238 210.83C79.7647 211.011 79.6852 211.254 79.6852 211.557C79.6852 211.977 79.8405 212.295 80.1511 212.511C80.4617 212.723 80.8575 212.83 81.3386 212.83ZM91.039 214.176C90.1943 214.176 89.467 213.985 88.8572 213.602C88.2511 213.216 87.7852 212.684 87.4594 212.006C87.1337 211.328 86.9708 210.551 86.9708 209.676C86.9708 208.79 87.1375 208.008 87.4708 207.33C87.8041 206.648 88.2738 206.116 88.8799 205.733C89.486 205.35 90.2 205.159 91.0219 205.159C91.6848 205.159 92.2757 205.282 92.7947 205.528C93.3136 205.771 93.7322 206.112 94.0504 206.551C94.3723 206.991 94.5636 207.504 94.6242 208.091H92.9708C92.8799 207.682 92.6716 207.33 92.3458 207.034C92.0238 206.739 91.592 206.591 91.0504 206.591C90.5769 206.591 90.1621 206.716 89.806 206.966C89.4538 207.212 89.1791 207.564 88.9822 208.023C88.7852 208.477 88.6867 209.015 88.6867 209.636C88.6867 210.273 88.7833 210.822 88.9765 211.284C89.1697 211.746 89.4424 212.104 89.7947 212.358C90.1507 212.612 90.5693 212.739 91.0504 212.739C91.3723 212.739 91.664 212.68 91.9254 212.562C92.1905 212.441 92.4121 212.269 92.5901 212.045C92.7719 211.822 92.8988 211.553 92.9708 211.239H94.6242C94.5636 211.803 94.3799 212.307 94.0731 212.75C93.7663 213.193 93.3553 213.542 92.8401 213.795C92.3288 214.049 91.7284 214.176 91.039 214.176ZM96.265 214V205.273H97.8957V206.693H98.0036C98.1854 206.212 98.4828 205.837 98.8957 205.568C99.3085 205.295 99.8029 205.159 100.379 205.159C100.962 205.159 101.451 205.295 101.845 205.568C102.242 205.841 102.536 206.216 102.725 206.693H102.816C103.024 206.227 103.356 205.856 103.81 205.58C104.265 205.299 104.807 205.159 105.435 205.159C106.227 205.159 106.873 205.407 107.373 205.903C107.877 206.4 108.129 207.148 108.129 208.148V214H106.43V208.307C106.43 207.716 106.269 207.288 105.947 207.023C105.625 206.758 105.24 206.625 104.793 206.625C104.24 206.625 103.81 206.795 103.504 207.136C103.197 207.473 103.043 207.907 103.043 208.438V214H101.35V208.199C101.35 207.725 101.202 207.345 100.907 207.057C100.612 206.769 100.227 206.625 99.7536 206.625C99.4317 206.625 99.1343 206.71 98.8616 206.881C98.5926 207.047 98.3748 207.28 98.2082 207.58C98.0453 207.879 97.9638 208.225 97.9638 208.619V214H96.265ZM113.991 214.176C113.131 214.176 112.391 213.992 111.769 213.625C111.152 213.254 110.675 212.733 110.338 212.062C110.004 211.388 109.838 210.598 109.838 209.693C109.838 208.799 110.004 208.011 110.338 207.33C110.675 206.648 111.144 206.116 111.747 205.733C112.353 205.35 113.061 205.159 113.872 205.159C114.364 205.159 114.841 205.241 115.303 205.403C115.766 205.566 116.18 205.822 116.548 206.17C116.915 206.519 117.205 206.972 117.417 207.528C117.629 208.081 117.735 208.754 117.735 209.545V210.148H110.798V208.875H116.071C116.071 208.428 115.98 208.032 115.798 207.688C115.616 207.339 115.36 207.064 115.031 206.864C114.705 206.663 114.322 206.562 113.883 206.562C113.406 206.562 112.989 206.68 112.633 206.915C112.281 207.146 112.008 207.449 111.815 207.824C111.625 208.195 111.531 208.598 111.531 209.034V210.028C111.531 210.612 111.633 211.108 111.838 211.517C112.046 211.926 112.336 212.239 112.707 212.455C113.078 212.667 113.512 212.773 114.008 212.773C114.33 212.773 114.624 212.727 114.889 212.636C115.154 212.542 115.383 212.402 115.576 212.216C115.769 212.03 115.917 211.801 116.019 211.528L117.627 211.818C117.499 212.292 117.267 212.706 116.934 213.062C116.605 213.415 116.19 213.689 115.69 213.886C115.194 214.08 114.627 214.176 113.991 214.176ZM120.564 214.108C120.253 214.108 119.986 213.998 119.762 213.778C119.539 213.555 119.427 213.286 119.427 212.972C119.427 212.661 119.539 212.396 119.762 212.176C119.986 211.953 120.253 211.841 120.564 211.841C120.874 211.841 121.141 211.953 121.365 212.176C121.588 212.396 121.7 212.661 121.7 212.972C121.7 213.18 121.647 213.371 121.541 213.545C121.439 213.716 121.302 213.852 121.132 213.955C120.961 214.057 120.772 214.108 120.564 214.108ZM127.476 214.176C126.631 214.176 125.904 213.985 125.294 213.602C124.688 213.216 124.222 212.684 123.896 212.006C123.57 211.328 123.407 210.551 123.407 209.676C123.407 208.79 123.574 208.008 123.907 207.33C124.241 206.648 124.71 206.116 125.317 205.733C125.923 205.35 126.637 205.159 127.459 205.159C128.121 205.159 128.712 205.282 129.231 205.528C129.75 205.771 130.169 206.112 130.487 206.551C130.809 206.991 131 207.504 131.061 208.091H129.407C129.317 207.682 129.108 207.33 128.782 207.034C128.46 206.739 128.029 206.591 127.487 206.591C127.014 206.591 126.599 206.716 126.243 206.966C125.89 207.212 125.616 207.564 125.419 208.023C125.222 208.477 125.123 209.015 125.123 209.636C125.123 210.273 125.22 210.822 125.413 211.284C125.606 211.746 125.879 212.104 126.231 212.358C126.587 212.612 127.006 212.739 127.487 212.739C127.809 212.739 128.101 212.68 128.362 212.562C128.627 212.441 128.849 212.269 129.027 212.045C129.209 211.822 129.335 211.553 129.407 211.239H131.061C131 211.803 130.817 212.307 130.51 212.75C130.203 213.193 129.792 213.542 129.277 213.795C128.765 214.049 128.165 214.176 127.476 214.176ZM136.378 214.176C135.56 214.176 134.846 213.989 134.236 213.614C133.626 213.239 133.152 212.714 132.815 212.04C132.478 211.366 132.31 210.578 132.31 209.676C132.31 208.771 132.478 207.979 132.815 207.301C133.152 206.623 133.626 206.097 134.236 205.722C134.846 205.347 135.56 205.159 136.378 205.159C137.196 205.159 137.91 205.347 138.52 205.722C139.13 206.097 139.603 206.623 139.94 207.301C140.277 207.979 140.446 208.771 140.446 209.676C140.446 210.578 140.277 211.366 139.94 212.04C139.603 212.714 139.13 213.239 138.52 213.614C137.91 213.989 137.196 214.176 136.378 214.176ZM136.383 212.75C136.914 212.75 137.353 212.61 137.702 212.33C138.05 212.049 138.308 211.676 138.474 211.21C138.645 210.744 138.73 210.231 138.73 209.67C138.73 209.114 138.645 208.602 138.474 208.136C138.308 207.667 138.05 207.29 137.702 207.006C137.353 206.722 136.914 206.58 136.383 206.58C135.849 206.58 135.406 206.722 135.054 207.006C134.705 207.29 134.446 207.667 134.275 208.136C134.109 208.602 134.025 209.114 134.025 209.67C134.025 210.231 134.109 210.744 134.275 211.21C134.446 211.676 134.705 212.049 135.054 212.33C135.406 212.61 135.849 212.75 136.383 212.75ZM142.166 214V205.273H143.797V206.693H143.905C144.087 206.212 144.384 205.837 144.797 205.568C145.21 205.295 145.704 205.159 146.28 205.159C146.863 205.159 147.352 205.295 147.746 205.568C148.144 205.841 148.437 206.216 148.626 206.693H148.717C148.926 206.227 149.257 205.856 149.712 205.58C150.166 205.299 150.708 205.159 151.337 205.159C152.128 205.159 152.774 205.407 153.274 205.903C153.778 206.4 154.03 207.148 154.03 208.148V214H152.331V208.307C152.331 207.716 152.17 207.288 151.848 207.023C151.526 206.758 151.142 206.625 150.695 206.625C150.142 206.625 149.712 206.795 149.405 207.136C149.098 207.473 148.945 207.907 148.945 208.438V214H147.251V208.199C147.251 207.725 147.104 207.345 146.808 207.057C146.513 206.769 146.128 206.625 145.655 206.625C145.333 206.625 145.036 206.71 144.763 206.881C144.494 207.047 144.276 207.28 144.109 207.58C143.947 207.879 143.865 208.225 143.865 208.619V214H142.166Z" fill="black" fill-opacity="0.8"/>
<rect x="2" y="128" width="184" height="32" rx="3" fill="#ECE5FF" stroke="#D2A8FF" stroke-width="4" stroke-linecap="round"/>
<path d="M33.7555 150.193C33.2025 150.193 32.7025 150.091 32.2555 149.886C31.8085 149.678 31.4544 149.377 31.193 148.983C30.9354 148.589 30.8066 148.106 30.8066 147.534C30.8066 147.042 30.9013 146.636 31.0907 146.318C31.2801 146 31.5358 145.748 31.8578 145.562C32.1797 145.377 32.5396 145.237 32.9373 145.142C33.3351 145.047 33.7404 144.975 34.1532 144.926C34.676 144.866 35.1002 144.816 35.426 144.778C35.7517 144.737 35.9885 144.67 36.1362 144.58C36.2839 144.489 36.3578 144.341 36.3578 144.136V144.097C36.3578 143.6 36.2176 143.216 35.9373 142.943C35.6608 142.67 35.2479 142.534 34.6987 142.534C34.1267 142.534 33.676 142.661 33.3464 142.915C33.0207 143.165 32.7953 143.443 32.6703 143.75L31.0737 143.386C31.2631 142.856 31.5396 142.428 31.9032 142.102C32.2707 141.773 32.693 141.534 33.1703 141.386C33.6476 141.235 34.1494 141.159 34.676 141.159C35.0244 141.159 35.3938 141.201 35.7839 141.284C36.1779 141.364 36.5453 141.511 36.8862 141.727C37.2309 141.943 37.5131 142.252 37.7328 142.653C37.9525 143.051 38.0623 143.568 38.0623 144.205V150H36.4032V148.807H36.3351C36.2252 149.027 36.0604 149.242 35.8407 149.455C35.621 149.667 35.3388 149.843 34.9941 149.983C34.6494 150.123 34.2366 150.193 33.7555 150.193ZM34.1248 148.83C34.5945 148.83 34.996 148.737 35.3294 148.551C35.6665 148.366 35.9222 148.123 36.0964 147.824C36.2744 147.521 36.3635 147.197 36.3635 146.852V145.727C36.3029 145.788 36.1854 145.845 36.0112 145.898C35.8407 145.947 35.6457 145.991 35.426 146.028C35.2063 146.062 34.9922 146.095 34.7839 146.125C34.5756 146.152 34.4013 146.174 34.2612 146.193C33.9316 146.235 33.6305 146.305 33.3578 146.403C33.0888 146.502 32.8729 146.644 32.7101 146.83C32.551 147.011 32.4714 147.254 32.4714 147.557C32.4714 147.977 32.6267 148.295 32.9373 148.511C33.2479 148.723 33.6438 148.83 34.1248 148.83ZM41.848 138.364V150H40.1491V138.364H41.848ZM43.9575 150V141.273H45.6563V150H43.9575ZM44.8154 139.926C44.52 139.926 44.2662 139.828 44.0541 139.631C43.8457 139.43 43.7416 139.191 43.7416 138.915C43.7416 138.634 43.8457 138.396 44.0541 138.199C44.2662 137.998 44.52 137.898 44.8154 137.898C45.1109 137.898 45.3628 137.998 45.5711 138.199C45.7832 138.396 45.8893 138.634 45.8893 138.915C45.8893 139.191 45.7832 139.43 45.5711 139.631C45.3628 139.828 45.1109 139.926 44.8154 139.926ZM51.442 150.176C50.5973 150.176 49.87 149.985 49.2602 149.602C48.6541 149.216 48.1882 148.684 47.8625 148.006C47.5367 147.328 47.3738 146.551 47.3738 145.676C47.3738 144.79 47.5405 144.008 47.8738 143.33C48.2071 142.648 48.6768 142.116 49.2829 141.733C49.889 141.35 50.603 141.159 51.425 141.159C52.0878 141.159 52.6787 141.282 53.1977 141.528C53.7166 141.771 54.1352 142.112 54.4534 142.551C54.7753 142.991 54.9666 143.504 55.0272 144.091H53.3738C53.2829 143.682 53.0746 143.33 52.7488 143.034C52.4268 142.739 51.995 142.591 51.4534 142.591C50.9799 142.591 50.5651 142.716 50.209 142.966C49.8568 143.212 49.5821 143.564 49.3852 144.023C49.1882 144.477 49.0897 145.015 49.0897 145.636C49.0897 146.273 49.1863 146.822 49.3795 147.284C49.5727 147.746 49.8454 148.104 50.1977 148.358C50.5537 148.612 50.9723 148.739 51.4534 148.739C51.7753 148.739 52.067 148.68 52.3284 148.562C52.5935 148.441 52.8151 148.269 52.9931 148.045C53.175 147.822 53.3018 147.553 53.3738 147.239H55.0272C54.9666 147.803 54.7829 148.307 54.4761 148.75C54.1693 149.193 53.7583 149.542 53.2431 149.795C52.7318 150.049 52.1314 150.176 51.442 150.176ZM60.4293 150.176C59.5695 150.176 58.829 149.992 58.2078 149.625C57.5903 149.254 57.1131 148.733 56.7759 148.062C56.4426 147.388 56.2759 146.598 56.2759 145.693C56.2759 144.799 56.4426 144.011 56.7759 143.33C57.1131 142.648 57.5828 142.116 58.185 141.733C58.7911 141.35 59.4994 141.159 60.31 141.159C60.8025 141.159 61.2797 141.241 61.7418 141.403C62.204 141.566 62.6187 141.822 62.9862 142.17C63.3536 142.519 63.6434 142.972 63.8555 143.528C64.0676 144.081 64.1737 144.754 64.1737 145.545V146.148H57.2362V144.875H62.5089C62.5089 144.428 62.418 144.032 62.2362 143.688C62.0543 143.339 61.7987 143.064 61.4691 142.864C61.1434 142.663 60.7608 142.562 60.3214 142.562C59.8441 142.562 59.4275 142.68 59.0714 142.915C58.7191 143.146 58.4464 143.449 58.2532 143.824C58.0638 144.195 57.9691 144.598 57.9691 145.034V146.028C57.9691 146.612 58.0714 147.108 58.2759 147.517C58.4843 147.926 58.774 148.239 59.1453 148.455C59.5165 148.667 59.9502 148.773 60.4464 148.773C60.7684 148.773 61.0619 148.727 61.3271 148.636C61.5922 148.542 61.8214 148.402 62.0146 148.216C62.2078 148.03 62.3555 147.801 62.4578 147.528L64.0657 147.818C63.9369 148.292 63.7059 148.706 63.3725 149.062C63.043 149.415 62.6282 149.689 62.1282 149.886C61.632 150.08 61.0657 150.176 60.4293 150.176ZM72.8883 153.165C71.714 153.165 70.6724 153.004 69.7633 152.682C68.858 152.364 68.0947 151.894 67.4735 151.273C66.8523 150.655 66.3807 149.898 66.0587 149C65.7368 148.102 65.5758 147.078 65.5758 145.926C65.5758 144.805 65.7387 143.797 66.0644 142.903C66.3902 142.009 66.8637 141.248 67.4849 140.619C68.1099 139.987 68.8694 139.504 69.7633 139.17C70.6572 138.837 71.6724 138.67 72.8087 138.67C73.8959 138.67 74.8542 138.841 75.6837 139.182C76.5133 139.523 77.2103 139.991 77.7747 140.585C78.3428 141.18 78.7709 141.862 79.0587 142.631C79.3466 143.4 79.4906 144.212 79.4906 145.068C79.4906 145.667 79.4527 146.252 79.3769 146.824C79.3012 147.392 79.161 147.907 78.9565 148.369C78.7557 148.828 78.464 149.195 78.0815 149.472C77.7027 149.744 77.2103 149.886 76.6042 149.898C76.2822 149.909 75.9697 149.871 75.6667 149.784C75.3637 149.697 75.1061 149.557 74.894 149.364C74.6819 149.167 74.5531 148.917 74.5076 148.614H74.4394C74.3485 148.837 74.197 149.045 73.9849 149.239C73.7728 149.428 73.5019 149.58 73.1724 149.693C72.8466 149.803 72.4678 149.848 72.036 149.83C71.5587 149.811 71.1288 149.703 70.7462 149.506C70.3637 149.309 70.036 149.036 69.7633 148.688C69.4944 148.339 69.2879 147.926 69.144 147.449C69 146.972 68.9281 146.441 68.9281 145.858C68.9281 145.297 69.0095 144.795 69.1724 144.352C69.3353 143.905 69.5569 143.521 69.8372 143.199C70.1212 142.873 70.447 142.616 70.8144 142.426C71.1819 142.237 71.5701 142.117 71.9792 142.068C72.3769 142.023 72.7425 142.034 73.0758 142.102C73.4091 142.17 73.6856 142.275 73.9053 142.415C74.1288 142.555 74.269 142.708 74.3258 142.875H74.3997V142.239H75.7974V147.511C75.7974 147.811 75.875 148.064 76.0303 148.273C76.1894 148.481 76.4148 148.585 76.7065 148.585C77.0512 148.585 77.3201 148.458 77.5133 148.205C77.7103 147.951 77.8485 147.561 77.9281 147.034C78.0114 146.508 78.0531 145.833 78.0531 145.011C78.0531 144.436 77.9754 143.894 77.8201 143.386C77.6686 142.875 77.4432 142.413 77.144 142C76.8485 141.583 76.4849 141.225 76.0531 140.926C75.6212 140.627 75.1288 140.396 74.5758 140.233C74.0265 140.07 73.4186 139.989 72.7519 139.989C71.8466 139.989 71.0417 140.129 70.3372 140.409C69.6326 140.686 69.0379 141.085 68.5531 141.608C68.072 142.131 67.7065 142.758 67.4565 143.489C67.2103 144.216 67.0872 145.032 67.0872 145.938C67.0872 146.881 67.214 147.718 67.4678 148.449C67.7216 149.176 68.0966 149.79 68.5928 150.29C69.089 150.79 69.7027 151.169 70.4337 151.426C71.1648 151.688 72.0076 151.818 72.9622 151.818C73.3864 151.818 73.8031 151.78 74.2122 151.705C74.6212 151.633 74.9849 151.549 75.3031 151.455C75.625 151.364 75.8656 151.29 76.0247 151.233L76.4224 152.477C76.1875 152.587 75.875 152.695 75.4849 152.801C75.0985 152.907 74.6781 152.994 74.2235 153.062C73.7728 153.131 73.3277 153.165 72.8883 153.165ZM72.3656 148.438C72.858 148.438 73.2538 148.339 73.5531 148.142C73.8561 147.945 74.0739 147.652 74.2065 147.261C74.3428 146.867 74.411 146.375 74.411 145.784C74.4072 145.208 74.3334 144.75 74.1894 144.409C74.0493 144.064 73.8296 143.818 73.5303 143.67C73.2349 143.519 72.8542 143.443 72.3883 143.443C71.9603 143.443 71.5947 143.547 71.2917 143.756C70.9925 143.964 70.7633 144.246 70.6042 144.602C70.4489 144.958 70.3694 145.354 70.3656 145.79C70.3694 146.248 70.4337 146.68 70.5587 147.085C70.6875 147.487 70.8959 147.812 71.1837 148.062C71.4754 148.312 71.8694 148.438 72.3656 148.438ZM83.7308 150.193C83.1777 150.193 82.6777 150.091 82.2308 149.886C81.7838 149.678 81.4296 149.377 81.1683 148.983C80.9107 148.589 80.7819 148.106 80.7819 147.534C80.7819 147.042 80.8766 146.636 81.066 146.318C81.2554 146 81.5111 145.748 81.833 145.562C82.155 145.377 82.5148 145.237 82.9126 145.142C83.3103 145.047 83.7156 144.975 84.1285 144.926C84.6512 144.866 85.0755 144.816 85.4012 144.778C85.727 144.737 85.9637 144.67 86.1114 144.58C86.2592 144.489 86.333 144.341 86.333 144.136V144.097C86.333 143.6 86.1929 143.216 85.9126 142.943C85.6361 142.67 85.2232 142.534 84.6739 142.534C84.102 142.534 83.6512 142.661 83.3217 142.915C82.9959 143.165 82.7705 143.443 82.6455 143.75L81.0489 143.386C81.2383 142.856 81.5148 142.428 81.8785 142.102C82.2459 141.773 82.6683 141.534 83.1455 141.386C83.6228 141.235 84.1247 141.159 84.6512 141.159C84.9997 141.159 85.369 141.201 85.7592 141.284C86.1531 141.364 86.5205 141.511 86.8614 141.727C87.2061 141.943 87.4883 142.252 87.708 142.653C87.9277 143.051 88.0376 143.568 88.0376 144.205V150H86.3785V148.807H86.3103C86.2005 149.027 86.0357 149.242 85.816 149.455C85.5963 149.667 85.3141 149.843 84.9694 149.983C84.6247 150.123 84.2118 150.193 83.7308 150.193ZM84.1001 148.83C84.5698 148.83 84.9713 148.737 85.3046 148.551C85.6417 148.366 85.8974 148.123 86.0717 147.824C86.2497 147.521 86.3387 147.197 86.3387 146.852V145.727C86.2781 145.788 86.1607 145.845 85.9864 145.898C85.816 145.947 85.6209 145.991 85.4012 146.028C85.1815 146.062 84.9675 146.095 84.7592 146.125C84.5508 146.152 84.3766 146.174 84.2364 146.193C83.9069 146.235 83.6058 146.305 83.333 146.403C83.0641 146.502 82.8482 146.644 82.6853 146.83C82.5262 147.011 82.4467 147.254 82.4467 147.557C82.4467 147.977 82.602 148.295 82.9126 148.511C83.2232 148.723 83.619 148.83 84.1001 148.83ZM93.8005 150.176C92.9558 150.176 92.2285 149.985 91.6187 149.602C91.0126 149.216 90.5467 148.684 90.221 148.006C89.8952 147.328 89.7323 146.551 89.7323 145.676C89.7323 144.79 89.899 144.008 90.2323 143.33C90.5656 142.648 91.0353 142.116 91.6414 141.733C92.2475 141.35 92.9615 141.159 93.7835 141.159C94.4463 141.159 95.0372 141.282 95.5562 141.528C96.0751 141.771 96.4937 142.112 96.8119 142.551C97.1338 142.991 97.3251 143.504 97.3857 144.091H95.7323C95.6414 143.682 95.4331 143.33 95.1073 143.034C94.7853 142.739 94.3535 142.591 93.8119 142.591C93.3384 142.591 92.9236 142.716 92.5675 142.966C92.2153 143.212 91.9406 143.564 91.7437 144.023C91.5467 144.477 91.4482 145.015 91.4482 145.636C91.4482 146.273 91.5448 146.822 91.738 147.284C91.9312 147.746 92.2039 148.104 92.5562 148.358C92.9122 148.612 93.3308 148.739 93.8119 148.739C94.1338 148.739 94.4255 148.68 94.6869 148.562C94.952 148.441 95.1736 148.269 95.3516 148.045C95.5335 147.822 95.6603 147.553 95.7323 147.239H97.3857C97.3251 147.803 97.1414 148.307 96.8346 148.75C96.5278 149.193 96.1168 149.542 95.6016 149.795C95.0903 150.049 94.4899 150.176 93.8005 150.176ZM99.0265 150V141.273H100.657V142.693H100.765C100.947 142.212 101.244 141.837 101.657 141.568C102.07 141.295 102.564 141.159 103.14 141.159C103.723 141.159 104.212 141.295 104.606 141.568C105.004 141.841 105.297 142.216 105.487 142.693H105.578C105.786 142.227 106.117 141.856 106.572 141.58C107.026 141.299 107.568 141.159 108.197 141.159C108.989 141.159 109.634 141.407 110.134 141.903C110.638 142.4 110.89 143.148 110.89 144.148V150H109.191V144.307C109.191 143.716 109.03 143.288 108.708 143.023C108.386 142.758 108.002 142.625 107.555 142.625C107.002 142.625 106.572 142.795 106.265 143.136C105.958 143.473 105.805 143.907 105.805 144.438V150H104.112V144.199C104.112 143.725 103.964 143.345 103.669 143.057C103.373 142.769 102.989 142.625 102.515 142.625C102.193 142.625 101.896 142.71 101.623 142.881C101.354 143.047 101.136 143.28 100.97 143.58C100.807 143.879 100.725 144.225 100.725 144.619V150H99.0265ZM116.752 150.176C115.893 150.176 115.152 149.992 114.531 149.625C113.913 149.254 113.436 148.733 113.099 148.062C112.766 147.388 112.599 146.598 112.599 145.693C112.599 144.799 112.766 144.011 113.099 143.33C113.436 142.648 113.906 142.116 114.508 141.733C115.114 141.35 115.823 141.159 116.633 141.159C117.126 141.159 117.603 141.241 118.065 141.403C118.527 141.566 118.942 141.822 119.309 142.17C119.677 142.519 119.966 142.972 120.179 143.528C120.391 144.081 120.497 144.754 120.497 145.545V146.148H113.559V144.875H118.832C118.832 144.428 118.741 144.032 118.559 143.688C118.377 143.339 118.122 143.064 117.792 142.864C117.466 142.663 117.084 142.562 116.645 142.562C116.167 142.562 115.751 142.68 115.395 142.915C115.042 143.146 114.77 143.449 114.576 143.824C114.387 144.195 114.292 144.598 114.292 145.034V146.028C114.292 146.612 114.395 147.108 114.599 147.517C114.807 147.926 115.097 148.239 115.468 148.455C115.84 148.667 116.273 148.773 116.77 148.773C117.091 148.773 117.385 148.727 117.65 148.636C117.915 148.542 118.145 148.402 118.338 148.216C118.531 148.03 118.679 147.801 118.781 147.528L120.389 147.818C120.26 148.292 120.029 148.706 119.696 149.062C119.366 149.415 118.951 149.689 118.451 149.886C117.955 150.08 117.389 150.176 116.752 150.176ZM123.325 150.108C123.014 150.108 122.747 149.998 122.524 149.778C122.3 149.555 122.189 149.286 122.189 148.972C122.189 148.661 122.3 148.396 122.524 148.176C122.747 147.953 123.014 147.841 123.325 147.841C123.636 147.841 123.903 147.953 124.126 148.176C124.35 148.396 124.461 148.661 124.461 148.972C124.461 149.18 124.408 149.371 124.302 149.545C124.2 149.716 124.064 149.852 123.893 149.955C123.723 150.057 123.533 150.108 123.325 150.108ZM130.237 150.176C129.392 150.176 128.665 149.985 128.055 149.602C127.449 149.216 126.983 148.684 126.658 148.006C126.332 147.328 126.169 146.551 126.169 145.676C126.169 144.79 126.336 144.008 126.669 143.33C127.002 142.648 127.472 142.116 128.078 141.733C128.684 141.35 129.398 141.159 130.22 141.159C130.883 141.159 131.474 141.282 131.993 141.528C132.512 141.771 132.93 142.112 133.248 142.551C133.57 142.991 133.762 143.504 133.822 144.091H132.169C132.078 143.682 131.87 143.33 131.544 143.034C131.222 142.739 130.79 142.591 130.248 142.591C129.775 142.591 129.36 142.716 129.004 142.966C128.652 143.212 128.377 143.564 128.18 144.023C127.983 144.477 127.885 145.015 127.885 145.636C127.885 146.273 127.981 146.822 128.175 147.284C128.368 147.746 128.641 148.104 128.993 148.358C129.349 148.612 129.767 148.739 130.248 148.739C130.57 148.739 130.862 148.68 131.123 148.562C131.389 148.441 131.61 148.269 131.788 148.045C131.97 147.822 132.097 147.553 132.169 147.239H133.822C133.762 147.803 133.578 148.307 133.271 148.75C132.964 149.193 132.553 149.542 132.038 149.795C131.527 150.049 130.927 150.176 130.237 150.176ZM139.139 150.176C138.321 150.176 137.607 149.989 136.997 149.614C136.387 149.239 135.914 148.714 135.577 148.04C135.24 147.366 135.071 146.578 135.071 145.676C135.071 144.771 135.24 143.979 135.577 143.301C135.914 142.623 136.387 142.097 136.997 141.722C137.607 141.347 138.321 141.159 139.139 141.159C139.957 141.159 140.671 141.347 141.281 141.722C141.891 142.097 142.365 142.623 142.702 143.301C143.039 143.979 143.207 144.771 143.207 145.676C143.207 146.578 143.039 147.366 142.702 148.04C142.365 148.714 141.891 149.239 141.281 149.614C140.671 149.989 139.957 150.176 139.139 150.176ZM139.145 148.75C139.675 148.75 140.115 148.61 140.463 148.33C140.812 148.049 141.069 147.676 141.236 147.21C141.406 146.744 141.492 146.231 141.492 145.67C141.492 145.114 141.406 144.602 141.236 144.136C141.069 143.667 140.812 143.29 140.463 143.006C140.115 142.722 139.675 142.58 139.145 142.58C138.611 142.58 138.168 142.722 137.815 143.006C137.467 143.29 137.207 143.667 137.037 144.136C136.87 144.602 136.787 145.114 136.787 145.67C136.787 146.231 136.87 146.744 137.037 147.21C137.207 147.676 137.467 148.049 137.815 148.33C138.168 148.61 138.611 148.75 139.145 148.75ZM144.928 150V141.273H146.558V142.693H146.666C146.848 142.212 147.146 141.837 147.558 141.568C147.971 141.295 148.466 141.159 149.041 141.159C149.625 141.159 150.113 141.295 150.507 141.568C150.905 141.841 151.199 142.216 151.388 142.693H151.479C151.687 142.227 152.019 141.856 152.473 141.58C152.928 141.299 153.469 141.159 154.098 141.159C154.89 141.159 155.536 141.407 156.036 141.903C156.539 142.4 156.791 143.148 156.791 144.148V150H155.093V144.307C155.093 143.716 154.932 143.288 154.61 143.023C154.288 142.758 153.903 142.625 153.456 142.625C152.903 142.625 152.473 142.795 152.166 143.136C151.86 143.473 151.706 143.907 151.706 144.438V150H150.013V144.199C150.013 143.725 149.865 143.345 149.57 143.057C149.274 142.769 148.89 142.625 148.416 142.625C148.094 142.625 147.797 142.71 147.524 142.881C147.255 143.047 147.038 143.28 146.871 143.58C146.708 143.879 146.627 144.225 146.627 144.619V150H144.928Z" fill="black" fill-opacity="0.8"/>
<rect x="2" y="32" width="184" height="32" rx="3" fill="#1B140E" stroke="#371F00" stroke-width="4" stroke-linecap="round"/>
<path d="M21.0011 54V45.2727H22.6318V46.6932H22.7397C22.9216 46.2121 23.2189 45.8371 23.6318 45.5682C24.0447 45.2955 24.539 45.1591 25.1147 45.1591C25.6981 45.1591 26.1867 45.2955 26.5807 45.5682C26.9784 45.8409 27.2719 46.2159 27.4613 46.6932H27.5522C27.7606 46.2273 28.092 45.8561 28.5466 45.5795C29.0011 45.2992 29.5428 45.1591 30.1716 45.1591C30.9632 45.1591 31.6091 45.4072 32.1091 45.9034C32.6129 46.3996 32.8647 47.1477 32.8647 48.1477V54H31.1659V48.3068C31.1659 47.7159 31.0049 47.2879 30.6829 47.0227C30.361 46.7576 29.9765 46.625 29.5295 46.625C28.9765 46.625 28.5466 46.7955 28.2397 47.1364C27.9329 47.4735 27.7795 47.9072 27.7795 48.4375V54H26.0863V48.1989C26.0863 47.7254 25.9386 47.3447 25.6432 47.0568C25.3477 46.7689 24.9632 46.625 24.4897 46.625C24.1678 46.625 23.8704 46.7102 23.5977 46.8807C23.3288 47.0473 23.111 47.2803 22.9443 47.5795C22.7814 47.8788 22.7 48.2254 22.7 48.6193V54H21.0011ZM37.5055 54.1932C36.9525 54.1932 36.4525 54.0909 36.0055 53.8864C35.5585 53.678 35.2044 53.3769 34.943 52.983C34.6854 52.589 34.5566 52.1061 34.5566 51.5341C34.5566 51.0417 34.6513 50.6364 34.8407 50.3182C35.0301 50 35.2858 49.7481 35.6078 49.5625C35.9297 49.3769 36.2896 49.2367 36.6873 49.142C37.0851 49.0473 37.4904 48.9754 37.9032 48.9261C38.426 48.8655 38.8502 48.8163 39.176 48.7784C39.5017 48.7367 39.7385 48.6705 39.8862 48.5795C40.0339 48.4886 40.1078 48.3409 40.1078 48.1364V48.0966C40.1078 47.6004 39.9676 47.2159 39.6873 46.9432C39.4108 46.6705 38.9979 46.5341 38.4487 46.5341C37.8767 46.5341 37.426 46.661 37.0964 46.9148C36.7707 47.1648 36.5453 47.4432 36.4203 47.75L34.8237 47.3864C35.0131 46.8561 35.2896 46.428 35.6532 46.1023C36.0207 45.7727 36.443 45.5341 36.9203 45.3864C37.3976 45.2348 37.8994 45.1591 38.426 45.1591C38.7744 45.1591 39.1438 45.2008 39.5339 45.2841C39.9279 45.3636 40.2953 45.5114 40.6362 45.7273C40.9809 45.9432 41.2631 46.2519 41.4828 46.6534C41.7025 47.0511 41.8123 47.5682 41.8123 48.2045V54H40.1532V52.8068H40.0851C39.9752 53.0265 39.8104 53.2424 39.5907 53.4545C39.371 53.6667 39.0888 53.8428 38.7441 53.983C38.3994 54.1231 37.9866 54.1932 37.5055 54.1932ZM37.8748 52.8295C38.3445 52.8295 38.746 52.7367 39.0794 52.5511C39.4165 52.3655 39.6722 52.1231 39.8464 51.8239C40.0244 51.5208 40.1135 51.197 40.1135 50.8523V49.7273C40.0529 49.7879 39.9354 49.8447 39.7612 49.8977C39.5907 49.947 39.3957 49.9905 39.176 50.0284C38.9563 50.0625 38.7422 50.0947 38.5339 50.125C38.3256 50.1515 38.1513 50.1742 38.0112 50.1932C37.6816 50.2348 37.3805 50.3049 37.1078 50.4034C36.8388 50.5019 36.6229 50.6439 36.4601 50.8295C36.301 51.0114 36.2214 51.2538 36.2214 51.5568C36.2214 51.9773 36.3767 52.2955 36.6873 52.5114C36.9979 52.7235 37.3938 52.8295 37.8748 52.8295ZM45.598 42.3636V54H43.8991V42.3636H45.598ZM49.4063 42.3636V54H47.7075V42.3636H49.4063ZM55.192 54.1761C54.3738 54.1761 53.6598 53.9886 53.0499 53.6136C52.4401 53.2386 51.9666 52.714 51.6295 52.0398C51.2924 51.3655 51.1238 50.5777 51.1238 49.6761C51.1238 48.7708 51.2924 47.9792 51.6295 47.3011C51.9666 46.6231 52.4401 46.0966 53.0499 45.7216C53.6598 45.3466 54.3738 45.1591 55.192 45.1591C56.0102 45.1591 56.7242 45.3466 57.334 45.7216C57.9439 46.0966 58.4174 46.6231 58.7545 47.3011C59.0916 47.9792 59.2602 48.7708 59.2602 49.6761C59.2602 50.5777 59.0916 51.3655 58.7545 52.0398C58.4174 52.714 57.9439 53.2386 57.334 53.6136C56.7242 53.9886 56.0102 54.1761 55.192 54.1761ZM55.1977 52.75C55.728 52.75 56.1674 52.6098 56.5159 52.3295C56.8643 52.0492 57.1219 51.6761 57.2886 51.2102C57.459 50.7443 57.5443 50.2311 57.5443 49.6705C57.5443 49.1136 57.459 48.6023 57.2886 48.1364C57.1219 47.6667 56.8643 47.2898 56.5159 47.0057C56.1674 46.7216 55.728 46.5795 55.1977 46.5795C54.6636 46.5795 54.2204 46.7216 53.8681 47.0057C53.5196 47.2898 53.2602 47.6667 53.0897 48.1364C52.9231 48.6023 52.8397 49.1136 52.8397 49.6705C52.8397 50.2311 52.9231 50.7443 53.0897 51.2102C53.2602 51.6761 53.5196 52.0492 53.8681 52.3295C54.2204 52.6098 54.6636 52.75 55.1977 52.75ZM60.9805 54V45.2727H62.6225V46.6591H62.7134C62.8725 46.1894 63.1528 45.8201 63.5543 45.5511C63.9596 45.2784 64.418 45.142 64.9293 45.142C65.0354 45.142 65.1604 45.1458 65.3043 45.1534C65.4521 45.161 65.5676 45.1705 65.6509 45.1818V46.8068C65.5828 46.7879 65.4615 46.767 65.2873 46.7443C65.1131 46.7178 64.9388 46.7045 64.7646 46.7045C64.3631 46.7045 64.0051 46.7898 63.6907 46.9602C63.3801 47.1269 63.1339 47.3598 62.9521 47.6591C62.7703 47.9545 62.6793 48.2917 62.6793 48.6705V54H60.9805ZM68.2846 57.2727C68.0308 57.2727 67.7997 57.2519 67.5914 57.2102C67.3831 57.1723 67.2278 57.1307 67.1255 57.0852L67.5346 55.6932C67.8452 55.7765 68.1217 55.8125 68.3641 55.8011C68.6066 55.7898 68.8206 55.6989 69.0062 55.5284C69.1956 55.358 69.3622 55.0795 69.5062 54.6932L69.7164 54.1136L66.5232 45.2727H68.3414L70.5516 52.0455H70.6426L72.8528 45.2727H74.6766L71.0801 55.1648C70.9134 55.6193 70.7013 56.0038 70.4437 56.3182C70.1861 56.6364 69.8793 56.875 69.5232 57.0341C69.1672 57.1932 68.7543 57.2727 68.2846 57.2727ZM83.1029 57.1648C81.9287 57.1648 80.887 57.0038 79.9779 56.6818C79.0726 56.3636 78.3094 55.8939 77.6881 55.2727C77.0669 54.6553 76.5953 53.8977 76.2734 53C75.9514 52.1023 75.7904 51.0777 75.7904 49.9261C75.7904 48.8049 75.9533 47.7973 76.279 46.9034C76.6048 46.0095 77.0783 45.2481 77.6995 44.6193C78.3245 43.9867 79.084 43.5038 79.9779 43.1705C80.8719 42.8371 81.887 42.6705 83.0234 42.6705C84.1105 42.6705 85.0688 42.8409 85.8984 43.1818C86.7279 43.5227 87.4249 43.9905 87.9893 44.5852C88.5575 45.1799 88.9855 45.8617 89.2734 46.6307C89.5612 47.3996 89.7052 48.2121 89.7052 49.0682C89.7052 49.6667 89.6673 50.2519 89.5915 50.8239C89.5158 51.392 89.3756 51.9072 89.1711 52.3693C88.9703 52.8277 88.6787 53.1951 88.2961 53.4716C87.9173 53.7443 87.4249 53.8864 86.8188 53.8977C86.4969 53.9091 86.1844 53.8712 85.8813 53.7841C85.5783 53.697 85.3207 53.5568 85.1086 53.3636C84.8965 53.1667 84.7677 52.9167 84.7222 52.6136H84.654C84.5631 52.8371 84.4116 53.0455 84.1995 53.2386C83.9874 53.428 83.7165 53.5795 83.387 53.6932C83.0612 53.803 82.6825 53.8485 82.2506 53.8295C81.7734 53.8106 81.3434 53.7027 80.9609 53.5057C80.5783 53.3087 80.2506 53.036 79.9779 52.6875C79.709 52.339 79.5025 51.9261 79.3586 51.4489C79.2147 50.9716 79.1427 50.4413 79.1427 49.858C79.1427 49.2973 79.2241 48.7955 79.387 48.3523C79.5499 47.9053 79.7715 47.5208 80.0518 47.1989C80.3359 46.8731 80.6616 46.6155 81.029 46.4261C81.3965 46.2367 81.7847 46.1174 82.1938 46.0682C82.5915 46.0227 82.9571 46.0341 83.2904 46.1023C83.6237 46.1705 83.9003 46.2746 84.12 46.4148C84.3434 46.5549 84.4836 46.7083 84.5404 46.875H84.6143V46.2386H86.012V51.5114C86.012 51.8106 86.0897 52.0644 86.245 52.2727C86.404 52.4811 86.6294 52.5852 86.9211 52.5852C87.2658 52.5852 87.5347 52.4583 87.7279 52.2045C87.9249 51.9508 88.0631 51.5606 88.1427 51.0341C88.226 50.5076 88.2677 49.8333 88.2677 49.0114C88.2677 48.4356 88.19 47.8939 88.0347 47.3864C87.8832 46.875 87.6578 46.4129 87.3586 46C87.0631 45.5833 86.6995 45.2254 86.2677 44.9261C85.8359 44.6269 85.3434 44.3958 84.7904 44.233C84.2412 44.0701 83.6332 43.9886 82.9665 43.9886C82.0612 43.9886 81.2563 44.1288 80.5518 44.4091C79.8472 44.6856 79.2525 45.0852 78.7677 45.608C78.2866 46.1307 77.9211 46.7576 77.6711 47.4886C77.4249 48.2159 77.3018 49.0322 77.3018 49.9375C77.3018 50.8807 77.4287 51.7178 77.6825 52.4489C77.9362 53.1761 78.3112 53.7898 78.8075 54.2898C79.3037 54.7898 79.9173 55.1686 80.6484 55.4261C81.3794 55.6875 82.2222 55.8182 83.1768 55.8182C83.601 55.8182 84.0177 55.7803 84.4268 55.7045C84.8359 55.6326 85.1995 55.5492 85.5177 55.4545C85.8397 55.3636 86.0802 55.2898 86.2393 55.233L86.637 56.4773C86.4022 56.5871 86.0897 56.6951 85.6995 56.8011C85.3131 56.9072 84.8927 56.9943 84.4381 57.0625C83.9874 57.1307 83.5423 57.1648 83.1029 57.1648ZM82.5802 52.4375C83.0726 52.4375 83.4684 52.339 83.7677 52.142C84.0707 51.9451 84.2885 51.6515 84.4211 51.2614C84.5575 50.8674 84.6256 50.375 84.6256 49.7841C84.6219 49.2083 84.548 48.75 84.404 48.4091C84.2639 48.0644 84.0442 47.8182 83.745 47.6705C83.4495 47.5189 83.0688 47.4432 82.6029 47.4432C82.1749 47.4432 81.8094 47.5473 81.5063 47.7557C81.2071 47.964 80.9779 48.2462 80.8188 48.6023C80.6635 48.9583 80.584 49.3542 80.5802 49.7898C80.584 50.2481 80.6484 50.6799 80.7734 51.0852C80.9022 51.4867 81.1105 51.8125 81.3984 52.0625C81.69 52.3125 82.084 52.4375 82.5802 52.4375ZM93.9454 54.1932C93.3924 54.1932 92.8924 54.0909 92.4454 53.8864C91.9984 53.678 91.6442 53.3769 91.3829 52.983C91.1253 52.589 90.9965 52.1061 90.9965 51.5341C90.9965 51.0417 91.0912 50.6364 91.2806 50.3182C91.47 50 91.7257 49.7481 92.0477 49.5625C92.3696 49.3769 92.7295 49.2367 93.1272 49.142C93.5249 49.0473 93.9302 48.9754 94.3431 48.9261C94.8658 48.8655 95.2901 48.8163 95.6158 48.7784C95.9416 48.7367 96.1783 48.6705 96.3261 48.5795C96.4738 48.4886 96.5477 48.3409 96.5477 48.1364V48.0966C96.5477 47.6004 96.4075 47.2159 96.1272 46.9432C95.8507 46.6705 95.4378 46.5341 94.8886 46.5341C94.3166 46.5341 93.8658 46.661 93.5363 46.9148C93.2105 47.1648 92.9852 47.4432 92.8602 47.75L91.2636 47.3864C91.453 46.8561 91.7295 46.428 92.0931 46.1023C92.4605 45.7727 92.8829 45.5341 93.3602 45.3864C93.8374 45.2348 94.3393 45.1591 94.8658 45.1591C95.2143 45.1591 95.5836 45.2008 95.9738 45.2841C96.3677 45.3636 96.7352 45.5114 97.0761 45.7273C97.4208 45.9432 97.703 46.2519 97.9227 46.6534C98.1424 47.0511 98.2522 47.5682 98.2522 48.2045V54H96.5931V52.8068H96.5249C96.4151 53.0265 96.2503 53.2424 96.0306 53.4545C95.8109 53.6667 95.5287 53.8428 95.184 53.983C94.8393 54.1231 94.4264 54.1932 93.9454 54.1932ZM94.3147 52.8295C94.7844 52.8295 95.1859 52.7367 95.5192 52.5511C95.8564 52.3655 96.1121 52.1231 96.2863 51.8239C96.4643 51.5208 96.5533 51.197 96.5533 50.8523V49.7273C96.4927 49.7879 96.3753 49.8447 96.2011 49.8977C96.0306 49.947 95.8355 49.9905 95.6158 50.0284C95.3961 50.0625 95.1821 50.0947 94.9738 50.125C94.7655 50.1515 94.5912 50.1742 94.4511 50.1932C94.1215 50.2348 93.8204 50.3049 93.5477 50.4034C93.2787 50.5019 93.0628 50.6439 92.8999 50.8295C92.7408 51.0114 92.6613 51.2538 92.6613 51.5568C92.6613 51.9773 92.8166 52.2955 93.1272 52.5114C93.4378 52.7235 93.8336 52.8295 94.3147 52.8295ZM104.015 54.1761C103.17 54.1761 102.443 53.9848 101.833 53.6023C101.227 53.2159 100.761 52.6837 100.436 52.0057C100.11 51.3277 99.9469 50.5511 99.9469 49.6761C99.9469 48.7898 100.114 48.0076 100.447 47.3295C100.78 46.6477 101.25 46.1155 101.856 45.733C102.462 45.3504 103.176 45.1591 103.998 45.1591C104.661 45.1591 105.252 45.2822 105.771 45.5284C106.29 45.7708 106.708 46.1117 107.026 46.5511C107.348 46.9905 107.54 47.5038 107.6 48.0909H105.947C105.856 47.6818 105.648 47.3295 105.322 47.0341C105 46.7386 104.568 46.5909 104.026 46.5909C103.553 46.5909 103.138 46.7159 102.782 46.9659C102.43 47.2121 102.155 47.5644 101.958 48.0227C101.761 48.4773 101.663 49.0152 101.663 49.6364C101.663 50.2727 101.759 50.822 101.953 51.2841C102.146 51.7462 102.419 52.1042 102.771 52.358C103.127 52.6117 103.545 52.7386 104.026 52.7386C104.348 52.7386 104.64 52.6799 104.901 52.5625C105.167 52.4413 105.388 52.2689 105.566 52.0455C105.748 51.822 105.875 51.553 105.947 51.2386H107.6C107.54 51.803 107.356 52.3068 107.049 52.75C106.742 53.1932 106.331 53.5417 105.816 53.7955C105.305 54.0492 104.705 54.1761 104.015 54.1761ZM109.241 54V45.2727H110.872V46.6932H110.98C111.162 46.2121 111.459 45.8371 111.872 45.5682C112.285 45.2955 112.779 45.1591 113.355 45.1591C113.938 45.1591 114.427 45.2955 114.821 45.5682C115.218 45.8409 115.512 46.2159 115.701 46.6932H115.792C116.001 46.2273 116.332 45.8561 116.787 45.5795C117.241 45.2992 117.783 45.1591 118.412 45.1591C119.203 45.1591 119.849 45.4072 120.349 45.9034C120.853 46.3996 121.105 47.1477 121.105 48.1477V54H119.406V48.3068C119.406 47.7159 119.245 47.2879 118.923 47.0227C118.601 46.7576 118.216 46.625 117.77 46.625C117.216 46.625 116.787 46.7955 116.48 47.1364C116.173 47.4735 116.02 47.9072 116.02 48.4375V54H114.326V48.1989C114.326 47.7254 114.179 47.3447 113.883 47.0568C113.588 46.7689 113.203 46.625 112.73 46.625C112.408 46.625 112.11 46.7102 111.838 46.8807C111.569 47.0473 111.351 47.2803 111.184 47.5795C111.021 47.8788 110.94 48.2254 110.94 48.6193V54H109.241ZM126.967 54.1761C126.107 54.1761 125.367 53.9924 124.746 53.625C124.128 53.2538 123.651 52.733 123.314 52.0625C122.98 51.3883 122.814 50.5985 122.814 49.6932C122.814 48.7992 122.98 48.0114 123.314 47.3295C123.651 46.6477 124.121 46.1155 124.723 45.733C125.329 45.3504 126.037 45.1591 126.848 45.1591C127.34 45.1591 127.817 45.2405 128.28 45.4034C128.742 45.5663 129.156 45.822 129.524 46.1705C129.891 46.5189 130.181 46.9716 130.393 47.5284C130.605 48.0814 130.711 48.7538 130.711 49.5455V50.1477H123.774V48.875H129.047C129.047 48.428 128.956 48.0322 128.774 47.6875C128.592 47.339 128.336 47.0644 128.007 46.8636C127.681 46.6629 127.299 46.5625 126.859 46.5625C126.382 46.5625 125.965 46.6799 125.609 46.9148C125.257 47.1458 124.984 47.4489 124.791 47.8239C124.602 48.1951 124.507 48.5985 124.507 49.0341V50.0284C124.507 50.6117 124.609 51.108 124.814 51.517C125.022 51.9261 125.312 52.2386 125.683 52.4545C126.054 52.6667 126.488 52.7727 126.984 52.7727C127.306 52.7727 127.6 52.7273 127.865 52.6364C128.13 52.5417 128.359 52.4015 128.552 52.2159C128.746 52.0303 128.893 51.8011 128.996 51.5284L130.603 51.8182C130.475 52.2917 130.244 52.7064 129.91 53.0625C129.581 53.4148 129.166 53.6894 128.666 53.8864C128.17 54.0795 127.603 54.1761 126.967 54.1761ZM133.54 54.108C133.229 54.108 132.962 53.9981 132.739 53.7784C132.515 53.5549 132.403 53.286 132.403 52.9716C132.403 52.661 132.515 52.3958 132.739 52.1761C132.962 51.9527 133.229 51.8409 133.54 51.8409C133.85 51.8409 134.117 51.9527 134.341 52.1761C134.564 52.3958 134.676 52.661 134.676 52.9716C134.676 53.1799 134.623 53.3712 134.517 53.5455C134.415 53.7159 134.278 53.8523 134.108 53.9545C133.937 54.0568 133.748 54.108 133.54 54.108ZM140.452 54.1761C139.607 54.1761 138.88 53.9848 138.27 53.6023C137.664 53.2159 137.198 52.6837 136.872 52.0057C136.546 51.3277 136.384 50.5511 136.384 49.6761C136.384 48.7898 136.55 48.0076 136.884 47.3295C137.217 46.6477 137.687 46.1155 138.293 45.733C138.899 45.3504 139.613 45.1591 140.435 45.1591C141.098 45.1591 141.688 45.2822 142.207 45.5284C142.726 45.7708 143.145 46.1117 143.463 46.5511C143.785 46.9905 143.976 47.5038 144.037 48.0909H142.384C142.293 47.6818 142.084 47.3295 141.759 47.0341C141.437 46.7386 141.005 46.5909 140.463 46.5909C139.99 46.5909 139.575 46.7159 139.219 46.9659C138.867 47.2121 138.592 47.5644 138.395 48.0227C138.198 48.4773 138.099 49.0152 138.099 49.6364C138.099 50.2727 138.196 50.822 138.389 51.2841C138.582 51.7462 138.855 52.1042 139.207 52.358C139.563 52.6117 139.982 52.7386 140.463 52.7386C140.785 52.7386 141.077 52.6799 141.338 52.5625C141.603 52.4413 141.825 52.2689 142.003 52.0455C142.185 51.822 142.312 51.553 142.384 51.2386H144.037C143.976 51.803 143.793 52.3068 143.486 52.75C143.179 53.1932 142.768 53.5417 142.253 53.7955C141.742 54.0492 141.141 54.1761 140.452 54.1761ZM149.354 54.1761C148.536 54.1761 147.822 53.9886 147.212 53.6136C146.602 53.2386 146.128 52.714 145.791 52.0398C145.454 51.3655 145.286 50.5777 145.286 49.6761C145.286 48.7708 145.454 47.9792 145.791 47.3011C146.128 46.6231 146.602 46.0966 147.212 45.7216C147.822 45.3466 148.536 45.1591 149.354 45.1591C150.172 45.1591 150.886 45.3466 151.496 45.7216C152.106 46.0966 152.579 46.6231 152.916 47.3011C153.253 47.9792 153.422 48.7708 153.422 49.6761C153.422 50.5777 153.253 51.3655 152.916 52.0398C152.579 52.714 152.106 53.2386 151.496 53.6136C150.886 53.9886 150.172 54.1761 149.354 54.1761ZM149.36 52.75C149.89 52.75 150.329 52.6098 150.678 52.3295C151.026 52.0492 151.284 51.6761 151.45 51.2102C151.621 50.7443 151.706 50.2311 151.706 49.6705C151.706 49.1136 151.621 48.6023 151.45 48.1364C151.284 47.6667 151.026 47.2898 150.678 47.0057C150.329 46.7216 149.89 46.5795 149.36 46.5795C148.825 46.5795 148.382 46.7216 148.03 47.0057C147.682 47.2898 147.422 47.6667 147.252 48.1364C147.085 48.6023 147.002 49.1136 147.002 49.6705C147.002 50.2311 147.085 50.7443 147.252 51.2102C147.422 51.6761 147.682 52.0492 148.03 52.3295C148.382 52.6098 148.825 52.75 149.36 52.75ZM155.142 54V45.2727H156.773V46.6932H156.881C157.063 46.2121 157.36 45.8371 157.773 45.5682C158.186 45.2955 158.68 45.1591 159.256 45.1591C159.839 45.1591 160.328 45.2955 160.722 45.5682C161.12 45.8409 161.413 46.2159 161.603 46.6932H161.693C161.902 46.2273 162.233 45.8561 162.688 45.5795C163.142 45.2992 163.684 45.1591 164.313 45.1591C165.104 45.1591 165.75 45.4072 166.25 45.9034C166.754 46.3996 167.006 47.1477 167.006 48.1477V54H165.307V48.3068C165.307 47.7159 165.146 47.2879 164.824 47.0227C164.502 46.7576 164.118 46.625 163.671 46.625C163.118 46.625 162.688 46.7955 162.381 47.1364C162.074 47.4735 161.921 47.9072 161.921 48.4375V54H160.228V48.1989C160.228 47.7254 160.08 47.3447 159.784 47.0568C159.489 46.7689 159.104 46.625 158.631 46.625C158.309 46.625 158.012 46.7102 157.739 46.8807C157.47 47.0473 157.252 47.2803 157.086 47.5795C156.923 47.8788 156.841 48.2254 156.841 48.6193V54H155.142Z" fill="white"/>
<path d="M190 48H426C439.255 48 450 58.7452 450 72V96C450 109.255 460.745 120 474 120H510" stroke="#B3B3B3" stroke-width="3" stroke-linecap="round" stroke-linejoin="bevel" stroke-dasharray="16 10"/>
<rect x="291" y="123" width="117.6" height="106.909" rx="6" fill="#E6E6E6"/>
<path d="M354.5 153.5V149.75C354.5 148.557 354.026 147.412 353.182 146.568C352.338 145.724 351.193 145.25 350 145.25C348.807 145.25 347.662 145.724 346.818 146.568C345.974 147.412 345.5 148.557 345.5 149.75V153.5M344.75 164.75H355.25C355.847 164.75 356.419 164.513 356.841 164.091C357.263 163.669 357.5 163.097 357.5 162.5V155.75C357.5 155.153 357.263 154.581 356.841 154.159C356.419 153.737 355.847 153.5 355.25 153.5H344.75C344.153 153.5 343.581 153.737 343.159 154.159C342.737 154.581 342.5 155.153 342.5 155.75V162.5C342.5 163.097 342.737 163.669 343.159 164.091C343.581 164.513 344.153 164.75 344.75 164.75Z" stroke="black" stroke-width="1.5" stroke-linecap="round" stroke-linejoin="round"/>
<path d="M335.295 185.545L338.534 195.023H338.665L341.903 185.545H343.801L339.614 197.182H337.585L333.398 185.545H335.295ZM345.306 197.182V185.545H349.453C350.359 185.545 351.109 185.71 351.703 186.04C352.298 186.369 352.743 186.82 353.038 187.392C353.334 187.96 353.482 188.6 353.482 189.312C353.482 190.028 353.332 190.672 353.033 191.244C352.737 191.812 352.29 192.263 351.692 192.596C351.097 192.926 350.349 193.091 349.448 193.091H346.595V191.602H349.288C349.86 191.602 350.324 191.504 350.681 191.307C351.037 191.106 351.298 190.833 351.465 190.488C351.631 190.144 351.715 189.752 351.715 189.312C351.715 188.873 351.631 188.483 351.465 188.142C351.298 187.801 351.035 187.534 350.675 187.341C350.319 187.148 349.849 187.051 349.266 187.051H347.061V197.182H345.306ZM364.756 185.545V197.182H363.142L357.228 188.648H357.12V197.182H355.364V185.545H356.989L362.909 194.091H363.017V185.545H364.756Z" fill="#1E1E1E"/>
<path d="M400.6 176C400.6 180.418 404.182 184 408.6 184C413.018 184 416.6 180.418 416.6 176C416.6 171.582 413.018 168 408.6 168C404.182 168 400.6 171.582 400.6 176ZM539 182.66C539 183.489 540.015 184.074 540.732 183.66L552.268 177C552.985 176.586 552.985 175.414 552.268 175L540.732 168.34C540.015 167.926 539 168.511 539 169.34V182.66ZM408.6 177.5H540.5V174.5H408.6V177.5Z" fill="#1B140E"/>
<path d="M190 142.5C189.172 142.5 188.5 143.172 188.5 144C188.5 144.828 189.172 145.5 190 145.5V142.5ZM272 183.115C272 183.943 273.015 184.529 273.732 184.115L285.268 177.455C285.985 177.04 285.985 175.869 285.268 175.455L273.732 168.794C273.015 168.38 272 168.966 272 169.794V183.115ZM238.5 160.227H240H238.5ZM238.5 160.227H240H238.5ZM190 145.5H222.273V142.5H190V145.5ZM254.727 177.955H273.5V174.955H254.727V177.955ZM237 160.227C237 170.018 244.937 177.955 254.727 177.955V174.955C246.594 174.955 240 168.361 240 160.227H237ZM222.273 145.5C230.406 145.5 237 152.094 237 160.227H240C240 150.437 232.063 142.5 222.273 142.5V145.5Z" fill="#5E00D6"/>
<path d="M190 206.5C189.172 206.5 188.5 207.172 188.5 208C188.5 208.828 189.172 209.5 190 209.5V206.5ZM272 183.115C272 183.943 273.015 184.529 273.732 184.115L285.268 177.455C285.985 177.04 285.985 175.869 285.268 175.455L273.732 168.794C273.015 168.38 272 168.966 272 169.794V183.115ZM238.5 192.227H240H238.5ZM238.5 192.227H240H238.5ZM190 209.5H222.727V206.5H190V209.5ZM254.273 177.955H273.5V174.955H254.273V177.955ZM240 192.227C240 184.345 246.39 177.955 254.273 177.955V174.955C244.733 174.955 237 182.688 237 192.227H240ZM222.727 209.5C232.267 209.5 240 201.767 240 192.227H237C237 200.11 230.61 206.5 222.727 206.5V209.5Z" fill="#5E00D6"/>
<path d="M750 176.75L752.25 179L756 173.75M762 176C762 177.182 761.767 178.352 761.315 179.444C760.863 180.536 760.2 181.528 759.364 182.364C758.528 183.2 757.536 183.863 756.444 184.315C755.352 184.767 754.182 185 753 185C751.818 185 750.648 184.767 749.556 184.315C748.464 183.863 747.472 183.2 746.636 182.364C745.8 181.528 745.137 180.536 744.685 179.444C744.233 178.352 744 177.182 744 176C744 173.613 744.948 171.324 746.636 169.636C748.324 167.948 750.613 167 753 167C755.387 167 757.676 167.948 759.364 169.636C761.052 171.324 762 173.613 762 176Z" stroke="black" stroke-width="1.5" stroke-linecap="round" stroke-linejoin="round"/>
<path d="M523.75 117.75L528.25 122.25M528.25 117.75L523.75 122.25M535 120C535 121.182 534.767 122.352 534.315 123.444C533.863 124.536 533.2 125.528 532.364 126.364C531.528 127.2 530.536 127.863 529.444 128.315C528.352 128.767 527.182 129 526 129C524.818 129 523.648 128.767 522.556 128.315C521.464 127.863 520.472 127.2 519.636 126.364C518.8 125.528 518.137 124.536 517.685 123.444C517.233 122.352 517 121.182 517 120C517 117.613 517.948 115.324 519.636 113.636C521.324 111.948 523.613 111 526 111C528.387 111 530.676 111.948 532.364 113.636C534.052 115.324 535 117.613 535 120Z" stroke="black" stroke-width="1.5" stroke-linecap="round" stroke-linejoin="round"/>
<defs>
<clipPath id="clip0_1038_556">
<rect width="43" height="42.1224" fill="white" transform="translate(624 41)"/>
</clipPath>
</defs>
</svg>
