<svg width="778" height="240" viewBox="0 0 778 240" fill="none" xmlns="http://www.w3.org/2000/svg">
<rect x="514" width="264" height="240" rx="6" fill="#EBEBEA"/>
<rect x="558" y="160" width="176" height="32" rx="3" fill="#FCFCFC"/>
<path d="M592.558 181.192C592.099 181.192 591.694 181.096 591.342 180.904C590.99 180.712 590.713 180.445 590.51 180.104C590.318 179.752 590.222 179.347 590.222 178.888C590.222 178.003 590.59 177.336 591.326 176.888C592.073 176.429 593.251 176.115 594.862 175.944C594.851 175.677 594.798 175.432 594.702 175.208C594.617 174.984 594.467 174.808 594.254 174.68C594.051 174.541 593.774 174.472 593.422 174.472C593.038 174.472 592.659 174.541 592.286 174.68C591.923 174.819 591.566 174.995 591.214 175.208L590.542 173.96C590.83 173.779 591.145 173.613 591.486 173.464C591.827 173.304 592.19 173.181 592.574 173.096C592.958 173 593.358 172.952 593.774 172.952C594.425 172.952 594.963 173.085 595.39 173.352C595.827 173.608 596.153 173.992 596.366 174.504C596.59 175.005 596.702 175.624 596.702 176.36V181H595.182L595.054 180.136H594.99C594.627 180.435 594.249 180.685 593.854 180.888C593.459 181.091 593.027 181.192 592.558 181.192ZM593.134 179.688C593.454 179.688 593.747 179.624 594.014 179.496C594.291 179.357 594.574 179.155 594.862 178.888V177.224C594.147 177.309 593.582 177.421 593.166 177.56C592.75 177.699 592.451 177.869 592.27 178.072C592.099 178.264 592.014 178.493 592.014 178.76C592.014 179.091 592.121 179.331 592.334 179.48C592.547 179.619 592.814 179.688 593.134 179.688ZM600.52 181.16C600.083 181.16 599.731 181.075 599.464 180.904C599.208 180.723 599.021 180.467 598.904 180.136C598.787 179.805 598.728 179.411 598.728 178.952V169.704H600.568V179.048C600.568 179.283 600.611 179.443 600.696 179.528C600.781 179.613 600.877 179.656 600.984 179.656C601.027 179.656 601.064 179.656 601.096 179.656C601.139 179.645 601.192 179.635 601.256 179.624L601.496 181C601.389 181.043 601.251 181.08 601.08 181.112C600.92 181.144 600.733 181.16 600.52 181.16ZM604.688 181.16C604.251 181.16 603.899 181.075 603.632 180.904C603.376 180.723 603.189 180.467 603.072 180.136C602.955 179.805 602.896 179.411 602.896 178.952V169.704H604.736V179.048C604.736 179.283 604.779 179.443 604.864 179.528C604.949 179.613 605.045 179.656 605.152 179.656C605.195 179.656 605.232 179.656 605.264 179.656C605.307 179.645 605.36 179.635 605.424 179.624L605.664 181C605.557 181.043 605.419 181.08 605.248 181.112C605.088 181.144 604.901 181.16 604.688 181.16ZM610.28 181.192C609.629 181.192 609.021 181.032 608.456 180.712C607.89 180.381 607.432 179.912 607.08 179.304C606.728 178.685 606.552 177.944 606.552 177.08C606.552 176.205 606.728 175.464 607.08 174.856C607.432 174.237 607.89 173.768 608.456 173.448C609.021 173.117 609.629 172.952 610.28 172.952C610.941 172.952 611.554 173.117 612.12 173.448C612.685 173.768 613.144 174.237 613.496 174.856C613.848 175.464 614.024 176.205 614.024 177.08C614.024 177.944 613.848 178.685 613.496 179.304C613.144 179.912 612.685 180.381 612.12 180.712C611.554 181.032 610.941 181.192 610.28 181.192ZM610.28 179.688C610.664 179.688 610.994 179.581 611.272 179.368C611.549 179.155 611.762 178.851 611.912 178.456C612.061 178.061 612.136 177.603 612.136 177.08C612.136 176.557 612.061 176.099 611.912 175.704C611.762 175.309 611.549 175.005 611.272 174.792C610.994 174.568 610.664 174.456 610.28 174.456C609.896 174.456 609.565 174.568 609.288 174.792C609.021 175.005 608.813 175.309 608.664 175.704C608.514 176.099 608.44 176.557 608.44 177.08C608.44 177.603 608.514 178.061 608.664 178.456C608.813 178.851 609.021 179.155 609.288 179.368C609.565 179.581 609.896 179.688 610.28 179.688ZM616.871 181L614.791 173.144H616.679L617.607 177.224C617.692 177.576 617.767 177.939 617.831 178.312C617.895 178.675 617.954 179.091 618.007 179.56H618.071C618.146 179.091 618.215 178.675 618.279 178.312C618.354 177.939 618.428 177.576 618.503 177.224L619.463 173.144H621.383L622.375 177.224C622.46 177.576 622.54 177.939 622.615 178.312C622.69 178.675 622.764 179.091 622.839 179.56H622.903C622.978 179.091 623.042 178.675 623.095 178.312C623.159 177.939 623.228 177.576 623.303 177.224L624.231 173.144H625.991L623.991 181H621.639L620.839 177.352C620.764 177 620.69 176.648 620.615 176.296C620.551 175.933 620.487 175.496 620.423 174.984H620.359C620.295 175.496 620.231 175.933 620.167 176.296C620.103 176.648 620.028 177 619.943 177.352L619.143 181H616.871ZM628.408 175.72C628.077 175.72 627.795 175.603 627.56 175.368C627.325 175.123 627.208 174.824 627.208 174.472C627.208 174.109 627.325 173.811 627.56 173.576C627.795 173.341 628.077 173.224 628.408 173.224C628.749 173.224 629.032 173.341 629.256 173.576C629.48 173.811 629.592 174.109 629.592 174.472C629.592 174.824 629.48 175.123 629.256 175.368C629.032 175.603 628.749 175.72 628.408 175.72ZM628.408 181.192C628.077 181.192 627.795 181.075 627.56 180.84C627.325 180.595 627.208 180.296 627.208 179.944C627.208 179.581 627.325 179.283 627.56 179.048C627.795 178.813 628.077 178.696 628.408 178.696C628.749 178.696 629.032 178.813 629.256 179.048C629.48 179.283 629.592 179.581 629.592 179.944C629.592 180.296 629.48 180.595 629.256 180.84C629.032 181.075 628.749 181.192 628.408 181.192ZM637.569 181.192C636.908 181.192 636.316 181.075 635.793 180.84C635.271 180.595 634.86 180.264 634.561 179.848C634.263 179.421 634.113 178.936 634.113 178.392C634.113 177.965 634.199 177.592 634.369 177.272C634.54 176.941 634.764 176.653 635.041 176.408C635.329 176.163 635.633 175.955 635.953 175.784V175.72C635.569 175.432 635.239 175.096 634.961 174.712C634.684 174.328 634.545 173.869 634.545 173.336C634.545 172.792 634.679 172.317 634.945 171.912C635.212 171.496 635.575 171.181 636.033 170.968C636.503 170.744 637.031 170.632 637.617 170.632C638.535 170.632 639.26 170.888 639.793 171.4C640.337 171.901 640.609 172.563 640.609 173.384C640.609 173.715 640.54 174.029 640.401 174.328C640.273 174.627 640.103 174.893 639.889 175.128C639.687 175.363 639.473 175.56 639.249 175.72V175.784C639.559 175.955 639.847 176.163 640.113 176.408C640.38 176.643 640.593 176.925 640.753 177.256C640.924 177.576 641.009 177.965 641.009 178.424C641.009 178.947 640.865 179.416 640.577 179.832C640.289 180.248 639.889 180.579 639.377 180.824C638.865 181.069 638.263 181.192 637.569 181.192ZM638.241 175.256C638.519 174.979 638.727 174.696 638.865 174.408C639.015 174.12 639.089 173.816 639.089 173.496C639.089 173.197 639.031 172.931 638.913 172.696C638.796 172.461 638.625 172.28 638.401 172.152C638.177 172.013 637.905 171.944 637.585 171.944C637.191 171.944 636.86 172.067 636.593 172.312C636.327 172.557 636.193 172.899 636.193 173.336C636.193 173.677 636.284 173.965 636.465 174.2C636.657 174.424 636.908 174.621 637.217 174.792C637.527 174.952 637.868 175.107 638.241 175.256ZM637.601 179.88C637.932 179.88 638.22 179.821 638.465 179.704C638.721 179.576 638.919 179.4 639.057 179.176C639.207 178.952 639.281 178.68 639.281 178.36C639.281 177.997 639.169 177.699 638.945 177.464C638.732 177.219 638.439 177.011 638.065 176.84C637.703 176.659 637.292 176.477 636.833 176.296C636.524 176.52 636.263 176.797 636.049 177.128C635.836 177.448 635.729 177.805 635.729 178.2C635.729 178.541 635.809 178.84 635.969 179.096C636.14 179.341 636.364 179.533 636.641 179.672C636.929 179.811 637.249 179.88 637.601 179.88ZM645.58 181.192C644.524 181.192 643.682 180.739 643.052 179.832C642.434 178.915 642.124 177.592 642.124 175.864C642.124 174.147 642.434 172.845 643.052 171.96C643.682 171.075 644.524 170.632 645.58 170.632C646.636 170.632 647.474 171.075 648.092 171.96C648.722 172.845 649.036 174.147 649.036 175.864C649.036 177.592 648.722 178.915 648.092 179.832C647.474 180.739 646.636 181.192 645.58 181.192ZM645.58 179.752C645.911 179.752 646.204 179.629 646.46 179.384C646.716 179.139 646.914 178.733 647.052 178.168C647.202 177.592 647.276 176.824 647.276 175.864C647.276 174.904 647.202 174.147 647.052 173.592C646.914 173.037 646.716 172.648 646.46 172.424C646.204 172.189 645.911 172.072 645.58 172.072C645.26 172.072 644.972 172.189 644.716 172.424C644.46 172.648 644.258 173.037 644.108 173.592C643.959 174.147 643.884 174.904 643.884 175.864C643.884 176.824 643.959 177.592 644.108 178.168C644.258 178.733 644.46 179.139 644.716 179.384C644.972 179.629 645.26 179.752 645.58 179.752ZM651.72 181.192C651.389 181.192 651.106 181.075 650.872 180.84C650.637 180.595 650.52 180.296 650.52 179.944C650.52 179.581 650.637 179.283 650.872 179.048C651.106 178.813 651.389 178.696 651.72 178.696C652.061 178.696 652.344 178.813 652.568 179.048C652.792 179.283 652.904 179.581 652.904 179.944C652.904 180.296 652.792 180.595 652.568 180.84C652.344 181.075 652.061 181.192 651.72 181.192ZM656.302 181C656.355 180.093 656.44 179.267 656.558 178.52C656.686 177.763 656.867 177.048 657.102 176.376C657.336 175.693 657.63 175.032 657.982 174.392C658.334 173.741 658.766 173.069 659.278 172.376H654.446V170.824H661.278V171.944C660.67 172.691 660.168 173.4 659.774 174.072C659.39 174.744 659.091 175.427 658.878 176.12C658.664 176.803 658.504 177.539 658.398 178.328C658.302 179.117 658.227 180.008 658.174 181H656.302ZM665.609 181.192C665.065 181.192 664.574 181.128 664.137 181C663.71 180.872 663.332 180.701 663.001 180.488C662.67 180.264 662.388 180.019 662.153 179.752L663.033 178.568C663.342 178.877 663.694 179.144 664.089 179.368C664.484 179.581 664.937 179.688 665.449 179.688C666.004 179.688 666.452 179.555 666.793 179.288C667.145 179.011 667.321 178.632 667.321 178.152C667.321 177.8 667.23 177.496 667.049 177.24C666.878 176.984 666.574 176.787 666.137 176.648C665.71 176.499 665.108 176.424 664.329 176.424V175.08C665.001 175.08 665.529 175.011 665.913 174.872C666.297 174.723 666.569 174.531 666.729 174.296C666.9 174.051 666.985 173.768 666.985 173.448C666.985 173.021 666.852 172.691 666.585 172.456C666.318 172.211 665.95 172.088 665.481 172.088C665.086 172.088 664.724 172.179 664.393 172.36C664.062 172.531 663.742 172.76 663.433 173.048L662.489 171.912C662.926 171.528 663.396 171.219 663.897 170.984C664.398 170.749 664.948 170.632 665.545 170.632C666.196 170.632 666.766 170.739 667.257 170.952C667.748 171.155 668.132 171.459 668.409 171.864C668.697 172.259 668.841 172.744 668.841 173.32C668.841 173.885 668.681 174.36 668.361 174.744C668.052 175.128 667.62 175.432 667.065 175.656V175.72C667.46 175.827 667.817 175.992 668.137 176.216C668.457 176.44 668.708 176.723 668.889 177.064C669.081 177.405 669.177 177.8 669.177 178.248C669.177 178.867 669.012 179.4 668.681 179.848C668.361 180.285 667.929 180.621 667.385 180.856C666.852 181.08 666.26 181.192 665.609 181.192ZM672.004 181.192C671.673 181.192 671.391 181.075 671.156 180.84C670.921 180.595 670.804 180.296 670.804 179.944C670.804 179.581 670.921 179.283 671.156 179.048C671.391 178.813 671.673 178.696 672.004 178.696C672.345 178.696 672.628 178.813 672.852 179.048C673.076 179.283 673.188 179.581 673.188 179.944C673.188 180.296 673.076 180.595 672.852 180.84C672.628 181.075 672.345 181.192 672.004 181.192ZM678.81 181V174.648C678.81 174.36 678.821 174.008 678.842 173.592C678.864 173.176 678.88 172.824 678.89 172.536H678.826C678.698 172.792 678.565 173.053 678.426 173.32C678.288 173.576 678.144 173.843 677.994 174.12L676.138 176.952H681.818V178.376H674.314V177.128L678.346 170.824H680.538V181H678.81ZM686.837 181V174.648C686.837 174.36 686.848 174.008 686.869 173.592C686.891 173.176 686.907 172.824 686.917 172.536H686.853C686.725 172.792 686.592 173.053 686.453 173.32C686.315 173.576 686.171 173.843 686.021 174.12L684.165 176.952H689.845V178.376H682.341V177.128L686.373 170.824H688.565V181H686.837ZM692.289 181.192C691.958 181.192 691.675 181.075 691.441 180.84C691.206 180.595 691.089 180.296 691.089 179.944C691.089 179.581 691.206 179.283 691.441 179.048C691.675 178.813 691.958 178.696 692.289 178.696C692.63 178.696 692.913 178.813 693.137 179.048C693.361 179.283 693.473 179.581 693.473 179.944C693.473 180.296 693.361 180.595 693.137 180.84C692.913 181.075 692.63 181.192 692.289 181.192ZM695.495 181V179.496H697.767V172.808H695.895V171.656C696.396 171.56 696.833 171.448 697.207 171.32C697.58 171.181 697.927 171.016 698.247 170.824H699.623V179.496H701.623V181H695.495Z" fill="#1B140E" fill-opacity="0.8"/>
<path d="M584.464 116.182L582.384 108.326H584.272L585.2 112.406C585.285 112.758 585.36 113.12 585.424 113.494C585.488 113.856 585.547 114.272 585.6 114.742H585.664C585.739 114.272 585.808 113.856 585.872 113.494C585.947 113.12 586.021 112.758 586.096 112.406L587.056 108.326H588.976L589.968 112.406C590.053 112.758 590.133 113.12 590.208 113.494C590.283 113.856 590.357 114.272 590.432 114.742H590.496C590.571 114.272 590.635 113.856 590.688 113.494C590.752 113.12 590.821 112.758 590.896 112.406L591.824 108.326H593.584L591.584 116.182H589.232L588.432 112.534C588.357 112.182 588.283 111.83 588.208 111.478C588.144 111.115 588.08 110.678 588.016 110.166H587.952C587.888 110.678 587.824 111.115 587.76 111.478C587.696 111.83 587.621 112.182 587.536 112.534L586.736 116.182H584.464ZM596.257 116.182L594.177 108.326H596.065L596.993 112.406C597.078 112.758 597.153 113.12 597.217 113.494C597.281 113.856 597.339 114.272 597.393 114.742H597.457C597.531 114.272 597.601 113.856 597.665 113.494C597.739 113.12 597.814 112.758 597.889 112.406L598.849 108.326H600.769L601.761 112.406C601.846 112.758 601.926 113.12 602.001 113.494C602.075 113.856 602.15 114.272 602.225 114.742H602.289C602.363 114.272 602.427 113.856 602.481 113.494C602.545 113.12 602.614 112.758 602.689 112.406L603.617 108.326H605.377L603.377 116.182H601.025L600.225 112.534C600.15 112.182 600.075 111.83 600.001 111.478C599.937 111.115 599.873 110.678 599.809 110.166H599.745C599.681 110.678 599.617 111.115 599.553 111.478C599.489 111.83 599.414 112.182 599.329 112.534L598.529 116.182H596.257ZM608.05 116.182L605.97 108.326H607.858L608.786 112.406C608.871 112.758 608.946 113.12 609.01 113.494C609.074 113.856 609.132 114.272 609.186 114.742H609.25C609.324 114.272 609.394 113.856 609.458 113.494C609.532 113.12 609.607 112.758 609.682 112.406L610.642 108.326H612.562L613.554 112.406C613.639 112.758 613.719 113.12 613.794 113.494C613.868 113.856 613.943 114.272 614.018 114.742H614.082C614.156 114.272 614.22 113.856 614.274 113.494C614.338 113.12 614.407 112.758 614.482 112.406L615.41 108.326H617.17L615.17 116.182H612.818L612.018 112.534C611.943 112.182 611.868 111.83 611.794 111.478C611.73 111.115 611.666 110.678 611.602 110.166H611.538C611.474 110.678 611.41 111.115 611.346 111.478C611.282 111.83 611.207 112.182 611.122 112.534L610.322 116.182H608.05ZM618.586 116.374C618.256 116.374 617.973 116.256 617.738 116.022C617.504 115.776 617.386 115.478 617.386 115.126C617.386 114.763 617.504 114.464 617.738 114.23C617.973 113.995 618.256 113.878 618.586 113.878C618.928 113.878 619.21 113.995 619.434 114.23C619.658 114.464 619.77 114.763 619.77 115.126C619.77 115.478 619.658 115.776 619.434 116.022C619.21 116.256 618.928 116.374 618.586 116.374ZM624.513 119.654C623.883 119.654 623.323 119.579 622.833 119.43C622.342 119.28 621.953 119.051 621.665 118.742C621.387 118.443 621.249 118.064 621.249 117.606C621.249 117.275 621.345 116.966 621.537 116.678C621.739 116.4 622.017 116.15 622.369 115.926V115.862C622.177 115.734 622.011 115.563 621.873 115.35C621.734 115.136 621.665 114.87 621.665 114.55C621.665 114.251 621.75 113.974 621.921 113.718C622.102 113.462 622.305 113.254 622.529 113.094V113.03C622.262 112.827 622.022 112.544 621.809 112.182C621.606 111.819 621.505 111.408 621.505 110.95C621.505 110.352 621.649 109.846 621.937 109.43C622.225 109.003 622.603 108.683 623.073 108.47C623.542 108.246 624.054 108.134 624.609 108.134C624.822 108.134 625.03 108.15 625.233 108.182C625.435 108.214 625.611 108.262 625.761 108.326H628.577V109.686H627.105V109.75C627.254 109.91 627.371 110.096 627.457 110.31C627.542 110.512 627.585 110.752 627.585 111.03C627.585 111.606 627.451 112.091 627.185 112.486C626.918 112.88 626.561 113.179 626.113 113.382C625.665 113.584 625.163 113.686 624.609 113.686C624.438 113.686 624.262 113.67 624.081 113.638C623.899 113.606 623.718 113.552 623.537 113.478C623.43 113.584 623.339 113.691 623.265 113.798C623.19 113.904 623.153 114.048 623.153 114.23C623.153 114.454 623.249 114.63 623.441 114.758C623.633 114.886 623.963 114.95 624.433 114.95H625.825C626.774 114.95 627.489 115.104 627.969 115.414C628.459 115.712 628.705 116.203 628.705 116.886C628.705 117.398 628.534 117.862 628.193 118.278C627.851 118.704 627.366 119.04 626.737 119.286C626.107 119.531 625.366 119.654 624.513 119.654ZM624.609 112.534C624.854 112.534 625.078 112.475 625.281 112.358C625.494 112.23 625.659 112.048 625.777 111.814C625.905 111.568 625.969 111.28 625.969 110.95C625.969 110.448 625.835 110.064 625.569 109.798C625.313 109.531 624.993 109.398 624.609 109.398C624.225 109.398 623.899 109.531 623.633 109.798C623.366 110.064 623.233 110.448 623.233 110.95C623.233 111.28 623.297 111.568 623.425 111.814C623.553 112.048 623.718 112.23 623.921 112.358C624.123 112.475 624.353 112.534 624.609 112.534ZM624.801 118.454C625.217 118.454 625.585 118.395 625.905 118.278C626.225 118.171 626.475 118.016 626.657 117.814C626.838 117.622 626.929 117.414 626.929 117.19C626.929 116.88 626.806 116.672 626.561 116.566C626.326 116.459 625.985 116.406 625.537 116.406H624.465C624.251 116.406 624.059 116.395 623.889 116.374C623.718 116.352 623.553 116.326 623.393 116.294C623.19 116.454 623.035 116.619 622.929 116.79C622.833 116.96 622.785 117.142 622.785 117.334C622.785 117.686 622.966 117.958 623.329 118.15C623.691 118.352 624.182 118.454 624.801 118.454ZM629.913 116.182V108.326H631.753V116.182H629.913ZM630.825 106.95C630.505 106.95 630.238 106.854 630.025 106.662C629.822 106.47 629.721 106.214 629.721 105.894C629.721 105.574 629.822 105.323 630.025 105.142C630.238 104.95 630.505 104.854 630.825 104.854C631.156 104.854 631.422 104.95 631.625 105.142C631.828 105.323 631.929 105.574 631.929 105.894C631.929 106.214 631.828 106.47 631.625 106.662C631.422 106.854 631.156 106.95 630.825 106.95ZM636.693 116.342C635.786 116.342 635.141 116.08 634.757 115.558C634.383 115.024 634.197 114.336 634.197 113.494V109.782H633.077V108.406L634.293 108.326L634.517 105.862H636.053V108.326H638.053V109.782H636.053V113.494C636.053 113.952 636.143 114.299 636.325 114.534C636.506 114.758 636.783 114.87 637.157 114.87C637.295 114.87 637.434 114.859 637.573 114.838C637.711 114.816 637.845 114.774 637.973 114.71L638.309 116.006C638.106 116.102 637.866 116.182 637.589 116.246C637.311 116.31 637.013 116.342 636.693 116.342ZM639.53 116.182V104.886H641.37V107.798L641.306 109.318C641.636 109.008 642.004 108.736 642.41 108.502C642.815 108.256 643.284 108.134 643.818 108.134C644.66 108.134 645.274 108.406 645.658 108.95C646.042 109.494 646.234 110.262 646.234 111.254V116.182H644.394V111.494C644.394 110.843 644.298 110.384 644.106 110.118C643.914 109.851 643.599 109.718 643.162 109.718C642.82 109.718 642.516 109.803 642.25 109.974C641.994 110.134 641.7 110.374 641.37 110.694V116.182H639.53ZM650.612 116.374C649.769 116.374 649.156 116.102 648.772 115.558C648.388 115.014 648.196 114.246 648.196 113.254V108.326H650.036V113.014C650.036 113.664 650.132 114.123 650.324 114.39C650.516 114.656 650.825 114.79 651.252 114.79C651.593 114.79 651.892 114.704 652.148 114.534C652.414 114.363 652.697 114.086 652.996 113.702V108.326H654.836V116.182H653.332L653.188 115.03H653.14C652.798 115.435 652.425 115.76 652.02 116.006C651.614 116.251 651.145 116.374 650.612 116.374ZM660.798 116.374C660.446 116.374 660.084 116.288 659.71 116.118C659.348 115.936 658.996 115.68 658.654 115.35H658.606L658.446 116.182H656.99V104.886H658.83V107.798L658.782 109.11C659.113 108.822 659.47 108.587 659.854 108.406C660.249 108.224 660.649 108.134 661.054 108.134C661.705 108.134 662.26 108.299 662.718 108.63C663.188 108.96 663.545 109.424 663.79 110.022C664.036 110.608 664.158 111.307 664.158 112.118C664.158 113.014 663.998 113.782 663.678 114.422C663.358 115.051 662.942 115.536 662.43 115.878C661.929 116.208 661.385 116.374 660.798 116.374ZM660.414 114.854C660.766 114.854 661.081 114.752 661.358 114.55C661.636 114.347 661.854 114.048 662.014 113.654C662.174 113.248 662.254 112.747 662.254 112.15C662.254 111.627 662.196 111.179 662.078 110.806C661.961 110.432 661.774 110.15 661.518 109.958C661.273 109.755 660.953 109.654 660.558 109.654C660.27 109.654 659.988 109.728 659.71 109.878C659.433 110.016 659.14 110.235 658.83 110.534V114.198C659.108 114.432 659.385 114.603 659.662 114.71C659.94 114.806 660.19 114.854 660.414 114.854ZM666.714 116.374C666.383 116.374 666.1 116.256 665.866 116.022C665.631 115.776 665.514 115.478 665.514 115.126C665.514 114.763 665.631 114.464 665.866 114.23C666.1 113.995 666.383 113.878 666.714 113.878C667.055 113.878 667.338 113.995 667.562 114.23C667.786 114.464 667.898 114.763 667.898 115.126C667.898 115.478 667.786 115.776 667.562 116.022C667.338 116.256 667.055 116.374 666.714 116.374ZM673.044 116.374C672.319 116.374 671.668 116.214 671.092 115.894C670.516 115.563 670.057 115.094 669.716 114.486C669.385 113.867 669.22 113.126 669.22 112.262C669.22 111.387 669.401 110.646 669.764 110.038C670.127 109.419 670.607 108.95 671.204 108.63C671.812 108.299 672.463 108.134 673.156 108.134C673.657 108.134 674.095 108.219 674.468 108.39C674.852 108.55 675.183 108.758 675.46 109.014L674.58 110.166C674.409 110.006 674.212 109.878 673.988 109.782C673.775 109.686 673.529 109.638 673.252 109.638C672.836 109.638 672.468 109.75 672.148 109.974C671.828 110.187 671.572 110.491 671.38 110.886C671.199 111.27 671.108 111.728 671.108 112.262C671.108 112.784 671.199 113.243 671.38 113.638C671.561 114.022 671.807 114.326 672.116 114.55C672.436 114.763 672.804 114.87 673.22 114.87C673.529 114.87 673.817 114.811 674.084 114.694C674.361 114.576 674.607 114.427 674.82 114.246L675.572 115.382C675.241 115.68 674.857 115.92 674.42 116.102C673.993 116.283 673.535 116.374 673.044 116.374ZM679.772 116.374C679.121 116.374 678.513 116.214 677.948 115.894C677.383 115.563 676.924 115.094 676.572 114.486C676.22 113.867 676.044 113.126 676.044 112.262C676.044 111.387 676.22 110.646 676.572 110.038C676.924 109.419 677.383 108.95 677.948 108.63C678.513 108.299 679.121 108.134 679.772 108.134C680.433 108.134 681.047 108.299 681.612 108.63C682.177 108.95 682.636 109.419 682.988 110.038C683.34 110.646 683.516 111.387 683.516 112.262C683.516 113.126 683.34 113.867 682.988 114.486C682.636 115.094 682.177 115.563 681.612 115.894C681.047 116.214 680.433 116.374 679.772 116.374ZM679.772 114.87C680.156 114.87 680.487 114.763 680.764 114.55C681.041 114.336 681.255 114.032 681.404 113.638C681.553 113.243 681.628 112.784 681.628 112.262C681.628 111.739 681.553 111.28 681.404 110.886C681.255 110.491 681.041 110.187 680.764 109.974C680.487 109.75 680.156 109.638 679.772 109.638C679.388 109.638 679.057 109.75 678.78 109.974C678.513 110.187 678.305 110.491 678.156 110.886C678.007 111.28 677.932 111.739 677.932 112.262C677.932 112.784 678.007 113.243 678.156 113.638C678.305 114.032 678.513 114.336 678.78 114.55C679.057 114.763 679.388 114.87 679.772 114.87ZM685.161 116.182V108.326H686.681L686.809 109.398H686.873C687.204 109.046 687.561 108.747 687.945 108.502C688.34 108.256 688.783 108.134 689.273 108.134C689.86 108.134 690.324 108.256 690.665 108.502C691.007 108.747 691.268 109.094 691.449 109.542C691.823 109.136 692.212 108.8 692.617 108.534C693.023 108.267 693.476 108.134 693.977 108.134C694.809 108.134 695.423 108.406 695.817 108.95C696.212 109.494 696.409 110.262 696.409 111.254V116.182H694.553V111.494C694.553 110.843 694.457 110.384 694.265 110.118C694.073 109.851 693.769 109.718 693.353 109.718C693.097 109.718 692.836 109.798 692.569 109.958C692.303 110.118 692.015 110.363 691.705 110.694V116.182H689.865V111.494C689.865 110.843 689.764 110.384 689.561 110.118C689.369 109.851 689.065 109.718 688.649 109.718C688.159 109.718 687.609 110.043 687.001 110.694V116.182H685.161Z" fill="#1B140E"/>
<g clip-path="url(#clip0_1038_556)">
<path fill-rule="evenodd" clip-rule="evenodd" d="M645.436 41C633.582 41 624 50.6531 624 62.5952C624 72.1412 630.14 80.2217 638.657 83.0816C639.722 83.2966 640.112 82.617 640.112 82.0453C640.112 81.5446 640.077 79.8286 640.077 78.0406C634.114 79.3279 632.872 75.4663 632.872 75.4663C631.914 72.9635 630.494 72.3202 630.494 72.3202C628.543 70.9973 630.636 70.9973 630.636 70.9973C632.801 71.1404 633.937 73.214 633.937 73.214C635.854 76.5031 638.941 75.5738 640.183 75.0016C640.361 73.6072 640.929 72.6419 641.532 72.1057C636.776 71.605 631.772 69.7459 631.772 61.4509C631.772 59.0912 632.624 57.1605 633.972 55.6591C633.76 55.1229 633.014 52.9057 634.186 49.9383C634.186 49.9383 635.996 49.3661 640.077 52.155C641.824 51.6823 643.626 51.4418 645.436 51.4398C647.246 51.4398 649.091 51.6903 650.795 52.155C654.876 49.3661 656.686 49.9383 656.686 49.9383C657.858 52.9057 657.112 55.1229 656.899 55.6591C658.283 57.1605 659.099 59.0912 659.099 61.4509C659.099 69.7459 654.096 71.569 649.304 72.1057C650.085 72.7849 650.759 74.0718 650.759 76.1099C650.759 79.0059 650.724 81.3301 650.724 82.0448C650.724 82.617 651.115 83.2966 652.179 83.0821C660.697 80.2213 666.836 72.1412 666.836 62.5952C666.871 50.6531 657.254 41 645.436 41Z" fill="#24292F"/>
</g>
<rect x="2" y="192" width="184" height="32" rx="3" fill="#ECE5FF" stroke="#D2A8FF" stroke-width="4" stroke-linecap="round"/>
<path d="M44.1706 213.192C43.8186 213.192 43.4559 213.107 43.0826 212.936C42.7199 212.755 42.3679 212.499 42.0266 212.168H41.9786L41.8186 213H40.3626V201.704H42.2026V204.616L42.1546 205.928C42.4852 205.64 42.8426 205.405 43.2266 205.224C43.6212 205.043 44.0212 204.952 44.4266 204.952C45.0772 204.952 45.6319 205.117 46.0906 205.448C46.5599 205.779 46.9172 206.243 47.1626 206.84C47.4079 207.427 47.5306 208.125 47.5306 208.936C47.5306 209.832 47.3706 210.6 47.0506 211.24C46.7306 211.869 46.3146 212.355 45.8026 212.696C45.3012 213.027 44.7572 213.192 44.1706 213.192ZM43.7866 211.672C44.1386 211.672 44.4532 211.571 44.7306 211.368C45.0079 211.165 45.2266 210.867 45.3866 210.472C45.5466 210.067 45.6266 209.565 45.6266 208.968C45.6266 208.445 45.5679 207.997 45.4506 207.624C45.3332 207.251 45.1466 206.968 44.8906 206.776C44.6452 206.573 44.3252 206.472 43.9306 206.472C43.6426 206.472 43.3599 206.547 43.0826 206.696C42.8052 206.835 42.5119 207.053 42.2026 207.352V211.016C42.4799 211.251 42.7572 211.421 43.0346 211.528C43.3119 211.624 43.5626 211.672 43.7866 211.672ZM52.4182 213.192C51.7675 213.192 51.1595 213.032 50.5942 212.712C50.0289 212.381 49.5702 211.912 49.2182 211.304C48.8662 210.685 48.6902 209.944 48.6902 209.08C48.6902 208.205 48.8662 207.464 49.2182 206.856C49.5702 206.237 50.0289 205.768 50.5942 205.448C51.1595 205.117 51.7675 204.952 52.4182 204.952C53.0795 204.952 53.6929 205.117 54.2582 205.448C54.8235 205.768 55.2822 206.237 55.6342 206.856C55.9862 207.464 56.1622 208.205 56.1622 209.08C56.1622 209.944 55.9862 210.685 55.6342 211.304C55.2822 211.912 54.8235 212.381 54.2582 212.712C53.6929 213.032 53.0795 213.192 52.4182 213.192ZM52.4182 211.688C52.8022 211.688 53.1329 211.581 53.4102 211.368C53.6875 211.155 53.9009 210.851 54.0502 210.456C54.1995 210.061 54.2742 209.603 54.2742 209.08C54.2742 208.557 54.1995 208.099 54.0502 207.704C53.9009 207.309 53.6875 207.005 53.4102 206.792C53.1329 206.568 52.8022 206.456 52.4182 206.456C52.0342 206.456 51.7035 206.568 51.4262 206.792C51.1595 207.005 50.9515 207.309 50.8022 207.704C50.6529 208.099 50.5782 208.557 50.5782 209.08C50.5782 209.603 50.6529 210.061 50.8022 210.456C50.9515 210.851 51.1595 211.155 51.4262 211.368C51.7035 211.581 52.0342 211.688 52.4182 211.688ZM61.6154 213.192C61.2634 213.192 60.9008 213.107 60.5274 212.936C60.1648 212.755 59.8128 212.499 59.4714 212.168H59.4234L59.2634 213H57.8074V201.704H59.6474V204.616L59.5994 205.928C59.9301 205.64 60.2874 205.405 60.6714 205.224C61.0661 205.043 61.4661 204.952 61.8714 204.952C62.5221 204.952 63.0768 205.117 63.5354 205.448C64.0048 205.779 64.3621 206.243 64.6074 206.84C64.8528 207.427 64.9754 208.125 64.9754 208.936C64.9754 209.832 64.8154 210.6 64.4954 211.24C64.1754 211.869 63.7594 212.355 63.2474 212.696C62.7461 213.027 62.2021 213.192 61.6154 213.192ZM61.2314 211.672C61.5834 211.672 61.8981 211.571 62.1754 211.368C62.4528 211.165 62.6714 210.867 62.8314 210.472C62.9914 210.067 63.0714 209.565 63.0714 208.968C63.0714 208.445 63.0128 207.997 62.8954 207.624C62.7781 207.251 62.5914 206.968 62.3354 206.776C62.0901 206.573 61.7701 206.472 61.3754 206.472C61.0874 206.472 60.8048 206.547 60.5274 206.696C60.2501 206.835 59.9568 207.053 59.6474 207.352V211.016C59.9248 211.251 60.2021 211.421 60.4794 211.528C60.7568 211.624 61.0074 211.672 61.2314 211.672ZM72.1351 215.624C71.3457 215.624 70.5991 215.501 69.8951 215.256C69.1911 215.011 68.5671 214.637 68.0231 214.136C67.4791 213.645 67.0524 213.032 66.7431 212.296C66.4337 211.56 66.2791 210.707 66.2791 209.736C66.2791 208.637 66.4604 207.645 66.8231 206.76C67.1964 205.864 67.7031 205.096 68.3431 204.456C68.9831 203.816 69.7191 203.325 70.5511 202.984C71.3937 202.643 72.2844 202.472 73.2231 202.472C74.3431 202.472 75.3084 202.707 76.1191 203.176C76.9404 203.635 77.5751 204.28 78.0231 205.112C78.4711 205.933 78.6951 206.888 78.6951 207.976C78.6951 208.701 78.5937 209.341 78.3911 209.896C78.1884 210.44 77.9217 210.899 77.5911 211.272C77.2604 211.635 76.8924 211.907 76.4871 212.088C76.0817 212.269 75.6764 212.36 75.2711 212.36C74.8124 212.36 74.4177 212.253 74.0871 212.04C73.7671 211.827 73.5751 211.507 73.5111 211.08H73.4791C73.2551 211.443 72.9617 211.725 72.5991 211.928C72.2364 212.131 71.8791 212.232 71.5271 212.232C70.9297 212.232 70.4337 212.019 70.0391 211.592C69.6444 211.165 69.4471 210.579 69.4471 209.832C69.4471 209.363 69.5271 208.904 69.6871 208.456C69.8471 207.997 70.0711 207.581 70.3591 207.208C70.6471 206.824 70.9884 206.52 71.3831 206.296C71.7777 206.072 72.2097 205.96 72.6791 205.96C72.9564 205.96 73.1964 206.029 73.3991 206.168C73.6124 206.296 73.7884 206.504 73.9271 206.792H73.9591L74.1671 206.12H75.3351L74.6631 209.512C74.5564 210.067 74.5671 210.467 74.6951 210.712C74.8231 210.957 75.0684 211.08 75.4311 211.08C75.7404 211.08 76.0337 210.957 76.3111 210.712C76.5991 210.456 76.8337 210.104 77.0151 209.656C77.1964 209.197 77.2871 208.659 77.2871 208.04C77.2871 207.464 77.2017 206.925 77.0311 206.424C76.8711 205.912 76.6151 205.464 76.2631 205.08C75.9217 204.696 75.4844 204.397 74.9511 204.184C74.4284 203.96 73.8044 203.848 73.0791 203.848C72.4071 203.848 71.7511 203.987 71.1111 204.264C70.4817 204.531 69.9111 204.92 69.3991 205.432C68.8977 205.944 68.4977 206.557 68.1991 207.272C67.9004 207.987 67.7511 208.787 67.7511 209.672C67.7511 210.419 67.8684 211.08 68.1031 211.656C68.3377 212.221 68.6577 212.696 69.0631 213.08C69.4791 213.475 69.9591 213.768 70.5031 213.96C71.0577 214.152 71.6444 214.248 72.2631 214.248C72.7111 214.248 73.1431 214.195 73.5591 214.088C73.9857 213.981 74.3751 213.843 74.7271 213.672L75.2231 214.824C74.7324 215.08 74.2364 215.277 73.7351 215.416C73.2337 215.555 72.7004 215.624 72.1351 215.624ZM71.9271 210.92C72.1191 210.92 72.3164 210.861 72.5191 210.744C72.7324 210.616 72.9564 210.408 73.1911 210.12L73.6071 207.784C73.5004 207.603 73.3724 207.475 73.2231 207.4C73.0737 207.315 72.9084 207.272 72.7271 207.272C72.3751 207.272 72.0711 207.405 71.8151 207.672C71.5591 207.928 71.3617 208.243 71.2231 208.616C71.0844 208.989 71.0151 209.357 71.0151 209.72C71.0151 210.136 71.0951 210.44 71.2551 210.632C71.4257 210.824 71.6497 210.92 71.9271 210.92ZM82.3751 213.192C81.9164 213.192 81.5111 213.096 81.1591 212.904C80.8071 212.712 80.5297 212.445 80.3271 212.104C80.1351 211.752 80.0391 211.347 80.0391 210.888C80.0391 210.003 80.4071 209.336 81.1431 208.888C81.8897 208.429 83.0684 208.115 84.6791 207.944C84.6684 207.677 84.6151 207.432 84.5191 207.208C84.4337 206.984 84.2844 206.808 84.0711 206.68C83.8684 206.541 83.5911 206.472 83.2391 206.472C82.8551 206.472 82.4764 206.541 82.1031 206.68C81.7404 206.819 81.3831 206.995 81.0311 207.208L80.3591 205.96C80.6471 205.779 80.9617 205.613 81.3031 205.464C81.6444 205.304 82.0071 205.181 82.3911 205.096C82.7751 205 83.1751 204.952 83.5911 204.952C84.2417 204.952 84.7804 205.085 85.2071 205.352C85.6444 205.608 85.9697 205.992 86.1831 206.504C86.4071 207.005 86.5191 207.624 86.5191 208.36V213H84.9991L84.8711 212.136H84.8071C84.4444 212.435 84.0657 212.685 83.6711 212.888C83.2764 213.091 82.8444 213.192 82.3751 213.192ZM82.9511 211.688C83.2711 211.688 83.5644 211.624 83.8311 211.496C84.1084 211.357 84.3911 211.155 84.6791 210.888V209.224C83.9644 209.309 83.3991 209.421 82.9831 209.56C82.5671 209.699 82.2684 209.869 82.0871 210.072C81.9164 210.264 81.8311 210.493 81.8311 210.76C81.8311 211.091 81.9377 211.331 82.1511 211.48C82.3644 211.619 82.6311 211.688 82.9511 211.688ZM91.8571 213.192C91.1317 213.192 90.4811 213.032 89.9051 212.712C89.3291 212.381 88.8704 211.912 88.5291 211.304C88.1984 210.685 88.0331 209.944 88.0331 209.08C88.0331 208.205 88.2144 207.464 88.5771 206.856C88.9397 206.237 89.4197 205.768 90.0171 205.448C90.6251 205.117 91.2757 204.952 91.9691 204.952C92.4704 204.952 92.9077 205.037 93.2811 205.208C93.6651 205.368 93.9957 205.576 94.2731 205.832L93.3931 206.984C93.2224 206.824 93.0251 206.696 92.8011 206.6C92.5877 206.504 92.3424 206.456 92.0651 206.456C91.6491 206.456 91.2811 206.568 90.9611 206.792C90.6411 207.005 90.3851 207.309 90.1931 207.704C90.0117 208.088 89.9211 208.547 89.9211 209.08C89.9211 209.603 90.0117 210.061 90.1931 210.456C90.3744 210.84 90.6197 211.144 90.9291 211.368C91.2491 211.581 91.6171 211.688 92.0331 211.688C92.3424 211.688 92.6304 211.629 92.8971 211.512C93.1744 211.395 93.4197 211.245 93.6331 211.064L94.3851 212.2C94.0544 212.499 93.6704 212.739 93.2331 212.92C92.8064 213.101 92.3477 213.192 91.8571 213.192ZM95.7597 213V205.144H97.2797L97.4077 206.216H97.4717C97.8024 205.864 98.1597 205.565 98.5437 205.32C98.9384 205.075 99.381 204.952 99.8717 204.952C100.458 204.952 100.922 205.075 101.264 205.32C101.605 205.565 101.866 205.912 102.048 206.36C102.421 205.955 102.81 205.619 103.216 205.352C103.621 205.085 104.074 204.952 104.576 204.952C105.408 204.952 106.021 205.224 106.416 205.768C106.81 206.312 107.008 207.08 107.008 208.072V213H105.152V208.312C105.152 207.661 105.056 207.203 104.864 206.936C104.672 206.669 104.368 206.536 103.952 206.536C103.696 206.536 103.434 206.616 103.168 206.776C102.901 206.936 102.613 207.181 102.304 207.512V213H100.464V208.312C100.464 207.661 100.362 207.203 100.16 206.936C99.9677 206.669 99.6637 206.536 99.2477 206.536C98.757 206.536 98.2077 206.861 97.5997 207.512V213H95.7597ZM112.444 213.192C111.708 213.192 111.041 213.032 110.444 212.712C109.857 212.381 109.393 211.912 109.052 211.304C108.711 210.685 108.54 209.939 108.54 209.064C108.54 208.211 108.716 207.48 109.068 206.872C109.42 206.253 109.873 205.779 110.428 205.448C110.983 205.117 111.569 204.952 112.188 204.952C112.903 204.952 113.5 205.112 113.98 205.432C114.46 205.752 114.817 206.195 115.052 206.76C115.297 207.315 115.42 207.955 115.42 208.68C115.42 208.851 115.409 209.016 115.388 209.176C115.377 209.336 115.356 209.491 115.324 209.64H109.916V208.232H113.788C113.788 207.667 113.66 207.224 113.404 206.904C113.148 206.573 112.753 206.408 112.22 206.408C111.921 206.408 111.628 206.488 111.34 206.648C111.063 206.808 110.828 207.08 110.636 207.464C110.455 207.848 110.364 208.381 110.364 209.064C110.364 209.683 110.471 210.189 110.684 210.584C110.897 210.968 111.18 211.256 111.532 211.448C111.884 211.629 112.263 211.72 112.668 211.72C113.009 211.72 113.329 211.672 113.628 211.576C113.937 211.48 114.225 211.347 114.492 211.176L115.132 212.36C114.769 212.616 114.353 212.819 113.884 212.968C113.425 213.117 112.945 213.192 112.444 213.192ZM118.041 213.192C117.711 213.192 117.428 213.075 117.193 212.84C116.959 212.595 116.841 212.296 116.841 211.944C116.841 211.581 116.959 211.283 117.193 211.048C117.428 210.813 117.711 210.696 118.041 210.696C118.383 210.696 118.665 210.813 118.889 211.048C119.113 211.283 119.225 211.581 119.225 211.944C119.225 212.296 119.113 212.595 118.889 212.84C118.665 213.075 118.383 213.192 118.041 213.192ZM124.372 213.192C123.646 213.192 122.996 213.032 122.42 212.712C121.844 212.381 121.385 211.912 121.044 211.304C120.713 210.685 120.548 209.944 120.548 209.08C120.548 208.205 120.729 207.464 121.092 206.856C121.454 206.237 121.934 205.768 122.532 205.448C123.14 205.117 123.79 204.952 124.484 204.952C124.985 204.952 125.422 205.037 125.796 205.208C126.18 205.368 126.51 205.576 126.788 205.832L125.908 206.984C125.737 206.824 125.54 206.696 125.316 206.6C125.102 206.504 124.857 206.456 124.58 206.456C124.164 206.456 123.796 206.568 123.476 206.792C123.156 207.005 122.9 207.309 122.708 207.704C122.526 208.088 122.436 208.547 122.436 209.08C122.436 209.603 122.526 210.061 122.708 210.456C122.889 210.84 123.134 211.144 123.444 211.368C123.764 211.581 124.132 211.688 124.548 211.688C124.857 211.688 125.145 211.629 125.412 211.512C125.689 211.395 125.934 211.245 126.148 211.064L126.9 212.2C126.569 212.499 126.185 212.739 125.748 212.92C125.321 213.101 124.862 213.192 124.372 213.192ZM131.1 213.192C130.449 213.192 129.841 213.032 129.276 212.712C128.71 212.381 128.252 211.912 127.9 211.304C127.548 210.685 127.372 209.944 127.372 209.08C127.372 208.205 127.548 207.464 127.9 206.856C128.252 206.237 128.71 205.768 129.276 205.448C129.841 205.117 130.449 204.952 131.1 204.952C131.761 204.952 132.374 205.117 132.94 205.448C133.505 205.768 133.964 206.237 134.316 206.856C134.668 207.464 134.844 208.205 134.844 209.08C134.844 209.944 134.668 210.685 134.316 211.304C133.964 211.912 133.505 212.381 132.94 212.712C132.374 213.032 131.761 213.192 131.1 213.192ZM131.1 211.688C131.484 211.688 131.814 211.581 132.092 211.368C132.369 211.155 132.582 210.851 132.732 210.456C132.881 210.061 132.956 209.603 132.956 209.08C132.956 208.557 132.881 208.099 132.732 207.704C132.582 207.309 132.369 207.005 132.092 206.792C131.814 206.568 131.484 206.456 131.1 206.456C130.716 206.456 130.385 206.568 130.108 206.792C129.841 207.005 129.633 207.309 129.484 207.704C129.334 208.099 129.26 208.557 129.26 209.08C129.26 209.603 129.334 210.061 129.484 210.456C129.633 210.851 129.841 211.155 130.108 211.368C130.385 211.581 130.716 211.688 131.1 211.688ZM136.489 213V205.144H138.009L138.137 206.216H138.201C138.532 205.864 138.889 205.565 139.273 205.32C139.668 205.075 140.11 204.952 140.601 204.952C141.188 204.952 141.652 205.075 141.993 205.32C142.334 205.565 142.596 205.912 142.777 206.36C143.15 205.955 143.54 205.619 143.945 205.352C144.35 205.085 144.804 204.952 145.305 204.952C146.137 204.952 146.75 205.224 147.145 205.768C147.54 206.312 147.737 207.08 147.737 208.072V213H145.881V208.312C145.881 207.661 145.785 207.203 145.593 206.936C145.401 206.669 145.097 206.536 144.681 206.536C144.425 206.536 144.164 206.616 143.897 206.776C143.63 206.936 143.342 207.181 143.033 207.512V213H141.193V208.312C141.193 207.661 141.092 207.203 140.889 206.936C140.697 206.669 140.393 206.536 139.977 206.536C139.486 206.536 138.937 206.861 138.329 207.512V213H136.489Z" fill="#1B140E"/>
<rect x="2" y="128" width="184" height="32" rx="3" fill="#ECE5FF" stroke="#D2A8FF" stroke-width="4" stroke-linecap="round"/>
<path d="M39.9035 149.192C39.4448 149.192 39.0395 149.096 38.6875 148.904C38.3355 148.712 38.0582 148.445 37.8555 148.104C37.6635 147.752 37.5675 147.347 37.5675 146.888C37.5675 146.003 37.9355 145.336 38.6715 144.888C39.4182 144.429 40.5968 144.115 42.2075 143.944C42.1968 143.677 42.1435 143.432 42.0475 143.208C41.9622 142.984 41.8128 142.808 41.5995 142.68C41.3968 142.541 41.1195 142.472 40.7675 142.472C40.3835 142.472 40.0048 142.541 39.6315 142.68C39.2688 142.819 38.9115 142.995 38.5595 143.208L37.8875 141.96C38.1755 141.779 38.4902 141.613 38.8315 141.464C39.1728 141.304 39.5355 141.181 39.9195 141.096C40.3035 141 40.7035 140.952 41.1195 140.952C41.7702 140.952 42.3088 141.085 42.7355 141.352C43.1728 141.608 43.4982 141.992 43.7115 142.504C43.9355 143.005 44.0475 143.624 44.0475 144.36V149H42.5275L42.3995 148.136H42.3355C41.9728 148.435 41.5942 148.685 41.1995 148.888C40.8048 149.091 40.3728 149.192 39.9035 149.192ZM40.4795 147.688C40.7995 147.688 41.0928 147.624 41.3595 147.496C41.6368 147.357 41.9195 147.155 42.2075 146.888V145.224C41.4928 145.309 40.9275 145.421 40.5115 145.56C40.0955 145.699 39.7968 145.869 39.6155 146.072C39.4448 146.264 39.3595 146.493 39.3595 146.76C39.3595 147.091 39.4662 147.331 39.6795 147.48C39.8928 147.619 40.1595 147.688 40.4795 147.688ZM47.8655 149.16C47.4282 149.16 47.0762 149.075 46.8095 148.904C46.5535 148.723 46.3668 148.467 46.2495 148.136C46.1322 147.805 46.0735 147.411 46.0735 146.952V137.704H47.9135V147.048C47.9135 147.283 47.9562 147.443 48.0415 147.528C48.1268 147.613 48.2228 147.656 48.3295 147.656C48.3722 147.656 48.4095 147.656 48.4415 147.656C48.4842 147.645 48.5375 147.635 48.6015 147.624L48.8415 149C48.7348 149.043 48.5962 149.08 48.4255 149.112C48.2655 149.144 48.0788 149.16 47.8655 149.16ZM50.2412 149V141.144H52.0812V149H50.2412ZM51.1532 139.768C50.8332 139.768 50.5666 139.672 50.3532 139.48C50.1506 139.288 50.0492 139.032 50.0492 138.712C50.0492 138.392 50.1506 138.141 50.3532 137.96C50.5666 137.768 50.8332 137.672 51.1532 137.672C51.4839 137.672 51.7506 137.768 51.9532 137.96C52.1559 138.141 52.2573 138.392 52.2573 138.712C52.2573 139.032 52.1559 139.288 51.9532 139.48C51.7506 139.672 51.4839 139.768 51.1532 139.768ZM57.5648 149.192C56.8394 149.192 56.1888 149.032 55.6128 148.712C55.0368 148.381 54.5781 147.912 54.2368 147.304C53.9061 146.685 53.7408 145.944 53.7408 145.08C53.7408 144.205 53.9221 143.464 54.2848 142.856C54.6474 142.237 55.1274 141.768 55.7248 141.448C56.3328 141.117 56.9834 140.952 57.6768 140.952C58.1781 140.952 58.6154 141.037 58.9888 141.208C59.3728 141.368 59.7034 141.576 59.9808 141.832L59.1008 142.984C58.9301 142.824 58.7328 142.696 58.5088 142.6C58.2954 142.504 58.0501 142.456 57.7728 142.456C57.3568 142.456 56.9888 142.568 56.6688 142.792C56.3488 143.005 56.0928 143.309 55.9008 143.704C55.7194 144.088 55.6288 144.547 55.6288 145.08C55.6288 145.603 55.7194 146.061 55.9008 146.456C56.0821 146.84 56.3274 147.144 56.6368 147.368C56.9568 147.581 57.3248 147.688 57.7408 147.688C58.0501 147.688 58.3381 147.629 58.6048 147.512C58.8821 147.395 59.1274 147.245 59.3408 147.064L60.0928 148.2C59.7621 148.499 59.3781 148.739 58.9408 148.92C58.5141 149.101 58.0554 149.192 57.5648 149.192ZM64.4528 149.192C63.7168 149.192 63.0501 149.032 62.4528 148.712C61.8661 148.381 61.4021 147.912 61.0608 147.304C60.7194 146.685 60.5488 145.939 60.5488 145.064C60.5488 144.211 60.7248 143.48 61.0768 142.872C61.4288 142.253 61.8821 141.779 62.4368 141.448C62.9914 141.117 63.5781 140.952 64.1968 140.952C64.9114 140.952 65.5088 141.112 65.9888 141.432C66.4688 141.752 66.8261 142.195 67.0608 142.76C67.3061 143.315 67.4288 143.955 67.4288 144.68C67.4288 144.851 67.4181 145.016 67.3968 145.176C67.3861 145.336 67.3648 145.491 67.3328 145.64H61.9248V144.232H65.7968C65.7968 143.667 65.6688 143.224 65.4128 142.904C65.1568 142.573 64.7621 142.408 64.2288 142.408C63.9301 142.408 63.6368 142.488 63.3488 142.648C63.0714 142.808 62.8368 143.08 62.6448 143.464C62.4634 143.848 62.3728 144.381 62.3728 145.064C62.3728 145.683 62.4794 146.189 62.6928 146.584C62.9061 146.968 63.1888 147.256 63.5408 147.448C63.8928 147.629 64.2714 147.72 64.6768 147.72C65.0181 147.72 65.3381 147.672 65.6368 147.576C65.9461 147.48 66.2341 147.347 66.5008 147.176L67.1408 148.36C66.7781 148.616 66.3621 148.819 65.8928 148.968C65.4341 149.117 64.9541 149.192 64.4528 149.192ZM74.4981 151.624C73.7088 151.624 72.9621 151.501 72.2581 151.256C71.5541 151.011 70.9301 150.637 70.3861 150.136C69.8421 149.645 69.4155 149.032 69.1061 148.296C68.7968 147.56 68.6421 146.707 68.6421 145.736C68.6421 144.637 68.8235 143.645 69.1861 142.76C69.5595 141.864 70.0661 141.096 70.7061 140.456C71.3461 139.816 72.0821 139.325 72.9141 138.984C73.7568 138.643 74.6475 138.472 75.5861 138.472C76.7061 138.472 77.6715 138.707 78.4821 139.176C79.3035 139.635 79.9381 140.28 80.3861 141.112C80.8341 141.933 81.0581 142.888 81.0581 143.976C81.0581 144.701 80.9568 145.341 80.7541 145.896C80.5515 146.44 80.2848 146.899 79.9541 147.272C79.6235 147.635 79.2555 147.907 78.8501 148.088C78.4448 148.269 78.0395 148.36 77.6341 148.36C77.1755 148.36 76.7808 148.253 76.4501 148.04C76.1301 147.827 75.9381 147.507 75.8741 147.08H75.8421C75.6181 147.443 75.3248 147.725 74.9621 147.928C74.5995 148.131 74.2421 148.232 73.8901 148.232C73.2928 148.232 72.7968 148.019 72.4021 147.592C72.0075 147.165 71.8101 146.579 71.8101 145.832C71.8101 145.363 71.8901 144.904 72.0501 144.456C72.2101 143.997 72.4341 143.581 72.7221 143.208C73.0101 142.824 73.3515 142.52 73.7461 142.296C74.1408 142.072 74.5728 141.96 75.0421 141.96C75.3195 141.96 75.5595 142.029 75.7621 142.168C75.9755 142.296 76.1515 142.504 76.2901 142.792H76.3221L76.5301 142.12H77.6981L77.0261 145.512C76.9195 146.067 76.9301 146.467 77.0581 146.712C77.1861 146.957 77.4315 147.08 77.7941 147.08C78.1035 147.08 78.3968 146.957 78.6741 146.712C78.9621 146.456 79.1968 146.104 79.3781 145.656C79.5595 145.197 79.6501 144.659 79.6501 144.04C79.6501 143.464 79.5648 142.925 79.3941 142.424C79.2341 141.912 78.9781 141.464 78.6261 141.08C78.2848 140.696 77.8475 140.397 77.3141 140.184C76.7915 139.96 76.1675 139.848 75.4421 139.848C74.7701 139.848 74.1141 139.987 73.4741 140.264C72.8448 140.531 72.2741 140.92 71.7621 141.432C71.2608 141.944 70.8608 142.557 70.5621 143.272C70.2635 143.987 70.1141 144.787 70.1141 145.672C70.1141 146.419 70.2315 147.08 70.4661 147.656C70.7008 148.221 71.0208 148.696 71.4261 149.08C71.8421 149.475 72.3221 149.768 72.8661 149.96C73.4208 150.152 74.0075 150.248 74.6261 150.248C75.0741 150.248 75.5061 150.195 75.9221 150.088C76.3488 149.981 76.7381 149.843 77.0901 149.672L77.5861 150.824C77.0955 151.08 76.5995 151.277 76.0981 151.416C75.5968 151.555 75.0635 151.624 74.4981 151.624ZM74.2901 146.92C74.4821 146.92 74.6795 146.861 74.8821 146.744C75.0955 146.616 75.3195 146.408 75.5541 146.12L75.9701 143.784C75.8635 143.603 75.7355 143.475 75.5861 143.4C75.4368 143.315 75.2715 143.272 75.0901 143.272C74.7381 143.272 74.4341 143.405 74.1781 143.672C73.9221 143.928 73.7248 144.243 73.5861 144.616C73.4475 144.989 73.3781 145.357 73.3781 145.72C73.3781 146.136 73.4581 146.44 73.6181 146.632C73.7888 146.824 74.0128 146.92 74.2901 146.92ZM84.7381 149.192C84.2795 149.192 83.8741 149.096 83.5221 148.904C83.1701 148.712 82.8928 148.445 82.6901 148.104C82.4981 147.752 82.4021 147.347 82.4021 146.888C82.4021 146.003 82.7701 145.336 83.5061 144.888C84.2528 144.429 85.4315 144.115 87.0421 143.944C87.0315 143.677 86.9781 143.432 86.8821 143.208C86.7968 142.984 86.6475 142.808 86.4341 142.68C86.2315 142.541 85.9541 142.472 85.6021 142.472C85.2181 142.472 84.8395 142.541 84.4661 142.68C84.1035 142.819 83.7461 142.995 83.3941 143.208L82.7221 141.96C83.0101 141.779 83.3248 141.613 83.6661 141.464C84.0075 141.304 84.3701 141.181 84.7541 141.096C85.1381 141 85.5381 140.952 85.9541 140.952C86.6048 140.952 87.1435 141.085 87.5701 141.352C88.0075 141.608 88.3328 141.992 88.5461 142.504C88.7701 143.005 88.8821 143.624 88.8821 144.36V149H87.3621L87.2341 148.136H87.1701C86.8075 148.435 86.4288 148.685 86.0341 148.888C85.6395 149.091 85.2075 149.192 84.7381 149.192ZM85.3141 147.688C85.6341 147.688 85.9275 147.624 86.1941 147.496C86.4715 147.357 86.7541 147.155 87.0421 146.888V145.224C86.3275 145.309 85.7621 145.421 85.3461 145.56C84.9301 145.699 84.6315 145.869 84.4501 146.072C84.2795 146.264 84.1941 146.493 84.1941 146.76C84.1941 147.091 84.3008 147.331 84.5141 147.48C84.7275 147.619 84.9941 147.688 85.3141 147.688ZM94.2201 149.192C93.4948 149.192 92.8441 149.032 92.2681 148.712C91.6921 148.381 91.2335 147.912 90.8921 147.304C90.5615 146.685 90.3961 145.944 90.3961 145.08C90.3961 144.205 90.5775 143.464 90.9401 142.856C91.3028 142.237 91.7828 141.768 92.3801 141.448C92.9881 141.117 93.6388 140.952 94.3321 140.952C94.8335 140.952 95.2708 141.037 95.6441 141.208C96.0281 141.368 96.3588 141.576 96.6361 141.832L95.7561 142.984C95.5855 142.824 95.3881 142.696 95.1641 142.6C94.9508 142.504 94.7055 142.456 94.4281 142.456C94.0121 142.456 93.6441 142.568 93.3241 142.792C93.0041 143.005 92.7481 143.309 92.5561 143.704C92.3748 144.088 92.2841 144.547 92.2841 145.08C92.2841 145.603 92.3748 146.061 92.5561 146.456C92.7375 146.84 92.9828 147.144 93.2921 147.368C93.6121 147.581 93.9801 147.688 94.3961 147.688C94.7055 147.688 94.9935 147.629 95.2601 147.512C95.5375 147.395 95.7828 147.245 95.9961 147.064L96.7481 148.2C96.4175 148.499 96.0335 148.739 95.5961 148.92C95.1695 149.101 94.7108 149.192 94.2201 149.192ZM98.1228 149V141.144H99.6428L99.7708 142.216H99.8348C100.165 141.864 100.523 141.565 100.907 141.32C101.301 141.075 101.744 140.952 102.235 140.952C102.821 140.952 103.285 141.075 103.627 141.32C103.968 141.565 104.229 141.912 104.411 142.36C104.784 141.955 105.173 141.619 105.579 141.352C105.984 141.085 106.437 140.952 106.939 140.952C107.771 140.952 108.384 141.224 108.779 141.768C109.173 142.312 109.371 143.08 109.371 144.072V149H107.515V144.312C107.515 143.661 107.419 143.203 107.227 142.936C107.035 142.669 106.731 142.536 106.315 142.536C106.059 142.536 105.797 142.616 105.531 142.776C105.264 142.936 104.976 143.181 104.667 143.512V149H102.827V144.312C102.827 143.661 102.725 143.203 102.523 142.936C102.331 142.669 102.027 142.536 101.611 142.536C101.12 142.536 100.571 142.861 99.9628 143.512V149H98.1228ZM114.807 149.192C114.071 149.192 113.404 149.032 112.807 148.712C112.22 148.381 111.756 147.912 111.415 147.304C111.074 146.685 110.903 145.939 110.903 145.064C110.903 144.211 111.079 143.48 111.431 142.872C111.783 142.253 112.236 141.779 112.791 141.448C113.346 141.117 113.932 140.952 114.551 140.952C115.266 140.952 115.863 141.112 116.343 141.432C116.823 141.752 117.18 142.195 117.415 142.76C117.66 143.315 117.783 143.955 117.783 144.68C117.783 144.851 117.772 145.016 117.751 145.176C117.74 145.336 117.719 145.491 117.687 145.64H112.279V144.232H116.151C116.151 143.667 116.023 143.224 115.767 142.904C115.511 142.573 115.116 142.408 114.583 142.408C114.284 142.408 113.991 142.488 113.703 142.648C113.426 142.808 113.191 143.08 112.999 143.464C112.818 143.848 112.727 144.381 112.727 145.064C112.727 145.683 112.834 146.189 113.047 146.584C113.26 146.968 113.543 147.256 113.895 147.448C114.247 147.629 114.626 147.72 115.031 147.72C115.372 147.72 115.692 147.672 115.991 147.576C116.3 147.48 116.588 147.347 116.855 147.176L117.495 148.36C117.132 148.616 116.716 148.819 116.247 148.968C115.788 149.117 115.308 149.192 114.807 149.192ZM120.405 149.192C120.074 149.192 119.791 149.075 119.557 148.84C119.322 148.595 119.205 148.296 119.205 147.944C119.205 147.581 119.322 147.283 119.557 147.048C119.791 146.813 120.074 146.696 120.405 146.696C120.746 146.696 121.029 146.813 121.253 147.048C121.477 147.283 121.589 147.581 121.589 147.944C121.589 148.296 121.477 148.595 121.253 148.84C121.029 149.075 120.746 149.192 120.405 149.192ZM126.735 149.192C126.01 149.192 125.359 149.032 124.783 148.712C124.207 148.381 123.748 147.912 123.407 147.304C123.076 146.685 122.911 145.944 122.911 145.08C122.911 144.205 123.092 143.464 123.455 142.856C123.818 142.237 124.298 141.768 124.895 141.448C125.503 141.117 126.154 140.952 126.847 140.952C127.348 140.952 127.786 141.037 128.159 141.208C128.543 141.368 128.874 141.576 129.151 141.832L128.271 142.984C128.1 142.824 127.903 142.696 127.679 142.6C127.466 142.504 127.22 142.456 126.943 142.456C126.527 142.456 126.159 142.568 125.839 142.792C125.519 143.005 125.263 143.309 125.071 143.704C124.89 144.088 124.799 144.547 124.799 145.08C124.799 145.603 124.89 146.061 125.071 146.456C125.252 146.84 125.498 147.144 125.807 147.368C126.127 147.581 126.495 147.688 126.911 147.688C127.22 147.688 127.508 147.629 127.775 147.512C128.052 147.395 128.298 147.245 128.511 147.064L129.263 148.2C128.932 148.499 128.548 148.739 128.111 148.92C127.684 149.101 127.226 149.192 126.735 149.192ZM133.463 149.192C132.812 149.192 132.204 149.032 131.639 148.712C131.074 148.381 130.615 147.912 130.263 147.304C129.911 146.685 129.735 145.944 129.735 145.08C129.735 144.205 129.911 143.464 130.263 142.856C130.615 142.237 131.074 141.768 131.639 141.448C132.204 141.117 132.812 140.952 133.463 140.952C134.124 140.952 134.738 141.117 135.303 141.448C135.868 141.768 136.327 142.237 136.679 142.856C137.031 143.464 137.207 144.205 137.207 145.08C137.207 145.944 137.031 146.685 136.679 147.304C136.327 147.912 135.868 148.381 135.303 148.712C134.738 149.032 134.124 149.192 133.463 149.192ZM133.463 147.688C133.847 147.688 134.178 147.581 134.455 147.368C134.732 147.155 134.946 146.851 135.095 146.456C135.244 146.061 135.319 145.603 135.319 145.08C135.319 144.557 135.244 144.099 135.095 143.704C134.946 143.309 134.732 143.005 134.455 142.792C134.178 142.568 133.847 142.456 133.463 142.456C133.079 142.456 132.748 142.568 132.471 142.792C132.204 143.005 131.996 143.309 131.847 143.704C131.698 144.099 131.623 144.557 131.623 145.08C131.623 145.603 131.698 146.061 131.847 146.456C131.996 146.851 132.204 147.155 132.471 147.368C132.748 147.581 133.079 147.688 133.463 147.688ZM138.852 149V141.144H140.372L140.5 142.216H140.564C140.895 141.864 141.252 141.565 141.636 141.32C142.031 141.075 142.473 140.952 142.964 140.952C143.551 140.952 144.015 141.075 144.356 141.32C144.697 141.565 144.959 141.912 145.14 142.36C145.513 141.955 145.903 141.619 146.308 141.352C146.713 141.085 147.167 140.952 147.668 140.952C148.5 140.952 149.113 141.224 149.508 141.768C149.903 142.312 150.1 143.08 150.1 144.072V149H148.244V144.312C148.244 143.661 148.148 143.203 147.956 142.936C147.764 142.669 147.46 142.536 147.044 142.536C146.788 142.536 146.527 142.616 146.26 142.776C145.993 142.936 145.705 143.181 145.396 143.512V149H143.556V144.312C143.556 143.661 143.455 143.203 143.252 142.936C143.06 142.669 142.756 142.536 142.34 142.536C141.849 142.536 141.3 142.861 140.692 143.512V149H138.852Z" fill="#1B140E"/>
<rect x="2" y="32" width="184" height="32" rx="3" fill="#1B140E" stroke="#1B140E" stroke-width="4" stroke-linecap="round"/>
<path d="M27.4489 53V45.144H28.9689L29.0969 46.216H29.1609C29.4916 45.864 29.8489 45.5653 30.2329 45.32C30.6276 45.0747 31.0703 44.952 31.5609 44.952C32.1476 44.952 32.6116 45.0747 32.9529 45.32C33.2943 45.5653 33.5556 45.912 33.7369 46.36C34.1103 45.9547 34.4996 45.6187 34.9049 45.352C35.3103 45.0853 35.7636 44.952 36.2649 44.952C37.0969 44.952 37.7103 45.224 38.1049 45.768C38.4996 46.312 38.6969 47.08 38.6969 48.072V53H36.8409V48.312C36.8409 47.6613 36.7449 47.2027 36.5529 46.936C36.3609 46.6693 36.0569 46.536 35.6409 46.536C35.3849 46.536 35.1236 46.616 34.8569 46.776C34.5903 46.936 34.3023 47.1813 33.9929 47.512V53H32.1529V48.312C32.1529 47.6613 32.0516 47.2027 31.8489 46.936C31.6569 46.6693 31.3529 46.536 30.9369 46.536C30.4463 46.536 29.8969 46.8613 29.2889 47.512V53H27.4489ZM42.6613 53.192C42.2026 53.192 41.7973 53.096 41.4453 52.904C41.0933 52.712 40.816 52.4453 40.6133 52.104C40.4213 51.752 40.3253 51.3467 40.3253 50.888C40.3253 50.0027 40.6933 49.336 41.4293 48.888C42.176 48.4293 43.3546 48.1147 44.9653 47.944C44.9546 47.6773 44.9013 47.432 44.8053 47.208C44.72 46.984 44.5706 46.808 44.3573 46.68C44.1546 46.5413 43.8773 46.472 43.5253 46.472C43.1413 46.472 42.7626 46.5413 42.3893 46.68C42.0266 46.8187 41.6693 46.9947 41.3173 47.208L40.6453 45.96C40.9333 45.7787 41.248 45.6133 41.5893 45.464C41.9306 45.304 42.2933 45.1813 42.6773 45.096C43.0613 45 43.4613 44.952 43.8773 44.952C44.528 44.952 45.0666 45.0853 45.4933 45.352C45.9306 45.608 46.256 45.992 46.4693 46.504C46.6933 47.0053 46.8053 47.624 46.8053 48.36V53H45.2853L45.1573 52.136H45.0933C44.7306 52.4347 44.352 52.6853 43.9573 52.888C43.5626 53.0907 43.1306 53.192 42.6613 53.192ZM43.2373 51.688C43.5573 51.688 43.8506 51.624 44.1173 51.496C44.3946 51.3573 44.6773 51.1547 44.9653 50.888V49.224C44.2506 49.3093 43.6853 49.4213 43.2693 49.56C42.8533 49.6987 42.5546 49.8693 42.3733 50.072C42.2026 50.264 42.1173 50.4933 42.1173 50.76C42.1173 51.0907 42.224 51.3307 42.4373 51.48C42.6506 51.6187 42.9173 51.688 43.2373 51.688ZM50.6233 53.16C50.186 53.16 49.834 53.0747 49.5673 52.904C49.3113 52.7227 49.1246 52.4667 49.0073 52.136C48.89 51.8053 48.8313 51.4107 48.8313 50.952V41.704H50.6713V51.048C50.6713 51.2827 50.714 51.4427 50.7993 51.528C50.8846 51.6133 50.9806 51.656 51.0873 51.656C51.13 51.656 51.1673 51.656 51.1993 51.656C51.242 51.6453 51.2953 51.6347 51.3593 51.624L51.5993 53C51.4926 53.0427 51.354 53.08 51.1833 53.112C51.0233 53.144 50.8366 53.16 50.6233 53.16ZM54.7911 53.16C54.3537 53.16 54.0017 53.0747 53.7351 52.904C53.4791 52.7227 53.2924 52.4667 53.1751 52.136C53.0577 51.8053 52.9991 51.4107 52.9991 50.952V41.704H54.8391V51.048C54.8391 51.2827 54.8817 51.4427 54.9671 51.528C55.0524 51.6133 55.1484 51.656 55.2551 51.656C55.2977 51.656 55.3351 51.656 55.3671 51.656C55.4097 51.6453 55.4631 51.6347 55.5271 51.624L55.7671 53C55.6604 53.0427 55.5217 53.08 55.3511 53.112C55.1911 53.144 55.0044 53.16 54.7911 53.16ZM60.3828 53.192C59.7321 53.192 59.1241 53.032 58.5588 52.712C57.9935 52.3813 57.5348 51.912 57.1828 51.304C56.8308 50.6853 56.6548 49.944 56.6548 49.08C56.6548 48.2053 56.8308 47.464 57.1828 46.856C57.5348 46.2373 57.9935 45.768 58.5588 45.448C59.1241 45.1173 59.7321 44.952 60.3828 44.952C61.0441 44.952 61.6575 45.1173 62.2228 45.448C62.7881 45.768 63.2468 46.2373 63.5988 46.856C63.9508 47.464 64.1268 48.2053 64.1268 49.08C64.1268 49.944 63.9508 50.6853 63.5988 51.304C63.2468 51.912 62.7881 52.3813 62.2228 52.712C61.6575 53.032 61.0441 53.192 60.3828 53.192ZM60.3828 51.688C60.7668 51.688 61.0975 51.5813 61.3748 51.368C61.6521 51.1547 61.8655 50.8507 62.0148 50.456C62.1641 50.0613 62.2388 49.6027 62.2388 49.08C62.2388 48.5573 62.1641 48.0987 62.0148 47.704C61.8655 47.3093 61.6521 47.0053 61.3748 46.792C61.0975 46.568 60.7668 46.456 60.3828 46.456C59.9988 46.456 59.6681 46.568 59.3908 46.792C59.1241 47.0053 58.9161 47.3093 58.7668 47.704C58.6175 48.0987 58.5428 48.5573 58.5428 49.08C58.5428 49.6027 58.6175 50.0613 58.7668 50.456C58.9161 50.8507 59.1241 51.1547 59.3908 51.368C59.6681 51.5813 59.9988 51.688 60.3828 51.688ZM65.7721 53V45.144H67.2921L67.4201 46.536H67.4841C67.7614 46.024 68.0921 45.6347 68.4761 45.368C68.8707 45.0907 69.2814 44.952 69.7081 44.952C69.9107 44.952 70.0814 44.9627 70.2201 44.984C70.3587 45.0053 70.4867 45.048 70.6041 45.112L70.2361 46.68C70.1081 46.648 69.9907 46.6267 69.8841 46.616C69.7774 46.5947 69.6387 46.584 69.4681 46.584C69.1587 46.584 68.8334 46.7067 68.4921 46.952C68.1507 47.1867 67.8574 47.6027 67.6121 48.2V53H65.7721ZM72.3428 56.232C72.1295 56.232 71.9375 56.216 71.7668 56.184C71.6068 56.152 71.4575 56.104 71.3188 56.04L71.6708 54.664C71.7775 54.696 71.8735 54.7173 71.9588 54.728C72.0441 54.7387 72.1295 54.744 72.2148 54.744C72.6308 54.744 72.9615 54.616 73.2068 54.36C73.4628 54.104 73.6548 53.784 73.7828 53.4L73.9268 52.904L70.8388 45.144H72.7108L74.0708 49C74.1881 49.3413 74.3001 49.704 74.4068 50.088C74.5241 50.4613 74.6415 50.8347 74.7588 51.208H74.8228C74.9188 50.8453 75.0148 50.4773 75.1108 50.104C75.2175 49.72 75.3188 49.352 75.4148 49L76.5988 45.144H78.3748L75.5268 53.352C75.3135 53.9387 75.0681 54.4453 74.7908 54.872C74.5135 55.3093 74.1775 55.6453 73.7828 55.88C73.3881 56.1147 72.9081 56.232 72.3428 56.232ZM85.0487 55.624C84.2594 55.624 83.5127 55.5013 82.8087 55.256C82.1047 55.0107 81.4807 54.6373 80.9367 54.136C80.3927 53.6453 79.966 53.032 79.6567 52.296C79.3474 51.56 79.1927 50.7067 79.1927 49.736C79.1927 48.6373 79.374 47.6453 79.7367 46.76C80.11 45.864 80.6167 45.096 81.2567 44.456C81.8967 43.816 82.6327 43.3253 83.4647 42.984C84.3074 42.6427 85.198 42.472 86.1367 42.472C87.2567 42.472 88.222 42.7067 89.0327 43.176C89.854 43.6347 90.4887 44.28 90.9367 45.112C91.3847 45.9333 91.6087 46.888 91.6087 47.976C91.6087 48.7013 91.5074 49.3413 91.3047 49.896C91.102 50.44 90.8354 50.8987 90.5047 51.272C90.174 51.6347 89.806 51.9067 89.4007 52.088C88.9954 52.2693 88.59 52.36 88.1847 52.36C87.726 52.36 87.3314 52.2533 87.0007 52.04C86.6807 51.8267 86.4887 51.5067 86.4247 51.08H86.3927C86.1687 51.4427 85.8754 51.7253 85.5127 51.928C85.15 52.1307 84.7927 52.232 84.4407 52.232C83.8434 52.232 83.3474 52.0187 82.9527 51.592C82.558 51.1653 82.3607 50.5787 82.3607 49.832C82.3607 49.3627 82.4407 48.904 82.6007 48.456C82.7607 47.9973 82.9847 47.5813 83.2727 47.208C83.5607 46.824 83.902 46.52 84.2967 46.296C84.6914 46.072 85.1234 45.96 85.5927 45.96C85.87 45.96 86.11 46.0293 86.3127 46.168C86.526 46.296 86.702 46.504 86.8407 46.792H86.8727L87.0807 46.12H88.2487L87.5767 49.512C87.47 50.0667 87.4807 50.4667 87.6087 50.712C87.7367 50.9573 87.982 51.08 88.3447 51.08C88.654 51.08 88.9474 50.9573 89.2247 50.712C89.5127 50.456 89.7474 50.104 89.9287 49.656C90.11 49.1973 90.2007 48.6587 90.2007 48.04C90.2007 47.464 90.1154 46.9253 89.9447 46.424C89.7847 45.912 89.5287 45.464 89.1767 45.08C88.8354 44.696 88.398 44.3973 87.8647 44.184C87.342 43.96 86.718 43.848 85.9927 43.848C85.3207 43.848 84.6647 43.9867 84.0247 44.264C83.3954 44.5307 82.8247 44.92 82.3127 45.432C81.8114 45.944 81.4114 46.5573 81.1127 47.272C80.814 47.9867 80.6647 48.7867 80.6647 49.672C80.6647 50.4187 80.782 51.08 81.0167 51.656C81.2514 52.2213 81.5714 52.696 81.9767 53.08C82.3927 53.4747 82.8727 53.768 83.4167 53.96C83.9714 54.152 84.558 54.248 85.1767 54.248C85.6247 54.248 86.0567 54.1947 86.4727 54.088C86.8994 53.9813 87.2887 53.8427 87.6407 53.672L88.1367 54.824C87.646 55.08 87.15 55.2773 86.6487 55.416C86.1474 55.5547 85.614 55.624 85.0487 55.624ZM84.8407 50.92C85.0327 50.92 85.23 50.8613 85.4327 50.744C85.646 50.616 85.87 50.408 86.1047 50.12L86.5207 47.784C86.414 47.6027 86.286 47.4747 86.1367 47.4C85.9874 47.3147 85.822 47.272 85.6407 47.272C85.2887 47.272 84.9847 47.4053 84.7287 47.672C84.4727 47.928 84.2754 48.2427 84.1367 48.616C83.998 48.9893 83.9287 49.3573 83.9287 49.72C83.9287 50.136 84.0087 50.44 84.1687 50.632C84.3394 50.824 84.5634 50.92 84.8407 50.92ZM95.2887 53.192C94.83 53.192 94.4247 53.096 94.0727 52.904C93.7207 52.712 93.4434 52.4453 93.2407 52.104C93.0487 51.752 92.9527 51.3467 92.9527 50.888C92.9527 50.0027 93.3207 49.336 94.0567 48.888C94.8034 48.4293 95.982 48.1147 97.5927 47.944C97.582 47.6773 97.5287 47.432 97.4327 47.208C97.3474 46.984 97.198 46.808 96.9847 46.68C96.782 46.5413 96.5047 46.472 96.1527 46.472C95.7687 46.472 95.39 46.5413 95.0167 46.68C94.654 46.8187 94.2967 46.9947 93.9447 47.208L93.2727 45.96C93.5607 45.7787 93.8754 45.6133 94.2167 45.464C94.558 45.304 94.9207 45.1813 95.3047 45.096C95.6887 45 96.0887 44.952 96.5047 44.952C97.1554 44.952 97.694 45.0853 98.1207 45.352C98.558 45.608 98.8834 45.992 99.0967 46.504C99.3207 47.0053 99.4327 47.624 99.4327 48.36V53H97.9127L97.7847 52.136H97.7207C97.358 52.4347 96.9794 52.6853 96.5847 52.888C96.19 53.0907 95.758 53.192 95.2887 53.192ZM95.8647 51.688C96.1847 51.688 96.478 51.624 96.7447 51.496C97.022 51.3573 97.3047 51.1547 97.5927 50.888V49.224C96.878 49.3093 96.3127 49.4213 95.8967 49.56C95.4807 49.6987 95.182 49.8693 95.0007 50.072C94.83 50.264 94.7447 50.4933 94.7447 50.76C94.7447 51.0907 94.8514 51.3307 95.0647 51.48C95.278 51.6187 95.5447 51.688 95.8647 51.688ZM104.771 53.192C104.045 53.192 103.395 53.032 102.819 52.712C102.243 52.3813 101.784 51.912 101.443 51.304C101.112 50.6853 100.947 49.944 100.947 49.08C100.947 48.2053 101.128 47.464 101.491 46.856C101.853 46.2373 102.333 45.768 102.931 45.448C103.539 45.1173 104.189 44.952 104.883 44.952C105.384 44.952 105.821 45.0373 106.195 45.208C106.579 45.368 106.909 45.576 107.187 45.832L106.307 46.984C106.136 46.824 105.939 46.696 105.715 46.6C105.501 46.504 105.256 46.456 104.979 46.456C104.563 46.456 104.195 46.568 103.875 46.792C103.555 47.0053 103.299 47.3093 103.107 47.704C102.925 48.088 102.835 48.5467 102.835 49.08C102.835 49.6027 102.925 50.0613 103.107 50.456C103.288 50.84 103.533 51.144 103.843 51.368C104.163 51.5813 104.531 51.688 104.947 51.688C105.256 51.688 105.544 51.6293 105.811 51.512C106.088 51.3947 106.333 51.2453 106.547 51.064L107.299 52.2C106.968 52.4987 106.584 52.7387 106.147 52.92C105.72 53.1013 105.261 53.192 104.771 53.192ZM108.673 53V45.144H110.193L110.321 46.216H110.385C110.716 45.864 111.073 45.5653 111.457 45.32C111.852 45.0747 112.295 44.952 112.785 44.952C113.372 44.952 113.836 45.0747 114.177 45.32C114.519 45.5653 114.78 45.912 114.961 46.36C115.335 45.9547 115.724 45.6187 116.129 45.352C116.535 45.0853 116.988 44.952 117.489 44.952C118.321 44.952 118.935 45.224 119.329 45.768C119.724 46.312 119.921 47.08 119.921 48.072V53H118.065V48.312C118.065 47.6613 117.969 47.2027 117.777 46.936C117.585 46.6693 117.281 46.536 116.865 46.536C116.609 46.536 116.348 46.616 116.081 46.776C115.815 46.936 115.527 47.1813 115.217 47.512V53H113.377V48.312C113.377 47.6613 113.276 47.2027 113.073 46.936C112.881 46.6693 112.577 46.536 112.161 46.536C111.671 46.536 111.121 46.8613 110.513 47.512V53H108.673ZM125.358 53.192C124.622 53.192 123.955 53.032 123.358 52.712C122.771 52.3813 122.307 51.912 121.966 51.304C121.624 50.6853 121.454 49.9387 121.454 49.064C121.454 48.2107 121.63 47.48 121.982 46.872C122.334 46.2533 122.787 45.7787 123.342 45.448C123.896 45.1173 124.483 44.952 125.102 44.952C125.816 44.952 126.414 45.112 126.894 45.432C127.374 45.752 127.731 46.1947 127.966 46.76C128.211 47.3147 128.334 47.9547 128.334 48.68C128.334 48.8507 128.323 49.016 128.302 49.176C128.291 49.336 128.27 49.4907 128.238 49.64H122.83V48.232H126.702C126.702 47.6667 126.574 47.224 126.318 46.904C126.062 46.5733 125.667 46.408 125.134 46.408C124.835 46.408 124.542 46.488 124.254 46.648C123.976 46.808 123.742 47.08 123.55 47.464C123.368 47.848 123.278 48.3813 123.278 49.064C123.278 49.6827 123.384 50.1893 123.598 50.584C123.811 50.968 124.094 51.256 124.446 51.448C124.798 51.6293 125.176 51.72 125.582 51.72C125.923 51.72 126.243 51.672 126.542 51.576C126.851 51.48 127.139 51.3467 127.406 51.176L128.046 52.36C127.683 52.616 127.267 52.8187 126.798 52.968C126.339 53.1173 125.859 53.192 125.358 53.192ZM130.955 53.192C130.624 53.192 130.342 53.0747 130.107 52.84C129.872 52.5947 129.755 52.296 129.755 51.944C129.755 51.5813 129.872 51.2827 130.107 51.048C130.342 50.8133 130.624 50.696 130.955 50.696C131.296 50.696 131.579 50.8133 131.803 51.048C132.027 51.2827 132.139 51.5813 132.139 51.944C132.139 52.296 132.027 52.5947 131.803 52.84C131.579 53.0747 131.296 53.192 130.955 53.192ZM137.285 53.192C136.56 53.192 135.909 53.032 135.333 52.712C134.757 52.3813 134.299 51.912 133.957 51.304C133.627 50.6853 133.461 49.944 133.461 49.08C133.461 48.2053 133.643 47.464 134.005 46.856C134.368 46.2373 134.848 45.768 135.445 45.448C136.053 45.1173 136.704 44.952 137.397 44.952C137.899 44.952 138.336 45.0373 138.709 45.208C139.093 45.368 139.424 45.576 139.701 45.832L138.821 46.984C138.651 46.824 138.453 46.696 138.229 46.6C138.016 46.504 137.771 46.456 137.493 46.456C137.077 46.456 136.709 46.568 136.389 46.792C136.069 47.0053 135.813 47.3093 135.621 47.704C135.44 48.088 135.349 48.5467 135.349 49.08C135.349 49.6027 135.44 50.0613 135.621 50.456C135.803 50.84 136.048 51.144 136.357 51.368C136.677 51.5813 137.045 51.688 137.461 51.688C137.771 51.688 138.059 51.6293 138.325 51.512C138.603 51.3947 138.848 51.2453 139.061 51.064L139.813 52.2C139.483 52.4987 139.099 52.7387 138.661 52.92C138.235 53.1013 137.776 53.192 137.285 53.192ZM144.013 53.192C143.363 53.192 142.755 53.032 142.189 52.712C141.624 52.3813 141.165 51.912 140.813 51.304C140.461 50.6853 140.285 49.944 140.285 49.08C140.285 48.2053 140.461 47.464 140.813 46.856C141.165 46.2373 141.624 45.768 142.189 45.448C142.755 45.1173 143.363 44.952 144.013 44.952C144.675 44.952 145.288 45.1173 145.853 45.448C146.419 45.768 146.877 46.2373 147.229 46.856C147.581 47.464 147.757 48.2053 147.757 49.08C147.757 49.944 147.581 50.6853 147.229 51.304C146.877 51.912 146.419 52.3813 145.853 52.712C145.288 53.032 144.675 53.192 144.013 53.192ZM144.013 51.688C144.397 51.688 144.728 51.5813 145.005 51.368C145.283 51.1547 145.496 50.8507 145.645 50.456C145.795 50.0613 145.869 49.6027 145.869 49.08C145.869 48.5573 145.795 48.0987 145.645 47.704C145.496 47.3093 145.283 47.0053 145.005 46.792C144.728 46.568 144.397 46.456 144.013 46.456C143.629 46.456 143.299 46.568 143.021 46.792C142.755 47.0053 142.547 47.3093 142.397 47.704C142.248 48.0987 142.173 48.5573 142.173 49.08C142.173 49.6027 142.248 50.0613 142.397 50.456C142.547 50.8507 142.755 51.1547 143.021 51.368C143.299 51.5813 143.629 51.688 144.013 51.688ZM149.403 53V45.144H150.923L151.051 46.216H151.115C151.445 45.864 151.803 45.5653 152.187 45.32C152.581 45.0747 153.024 44.952 153.515 44.952C154.101 44.952 154.565 45.0747 154.907 45.32C155.248 45.5653 155.509 45.912 155.691 46.36C156.064 45.9547 156.453 45.6187 156.859 45.352C157.264 45.0853 157.717 44.952 158.219 44.952C159.051 44.952 159.664 45.224 160.059 45.768C160.453 46.312 160.651 47.08 160.651 48.072V53H158.795V48.312C158.795 47.6613 158.699 47.2027 158.507 46.936C158.315 46.6693 158.011 46.536 157.595 46.536C157.339 46.536 157.077 46.616 156.811 46.776C156.544 46.936 156.256 47.1813 155.947 47.512V53H154.107V48.312C154.107 47.6613 154.005 47.2027 153.803 46.936C153.611 46.6693 153.307 46.536 152.891 46.536C152.4 46.536 151.851 46.8613 151.243 47.512V53H149.403Z" fill="#FCFCFC"/>
<path d="M190 48H426C439.255 48 450 58.7452 450 72V96C450 109.255 460.745 120 474 120H510" stroke="#A7A3A0" stroke-width="3" stroke-linecap="round" stroke-linejoin="bevel" stroke-dasharray="16 10"/>
<rect x="291" y="123" width="117.6" height="106.909" rx="6" fill="#EBEBEA"/>
<path d="M354.5 154.5V150.75C354.5 149.557 354.026 148.412 353.182 147.568C352.338 146.724 351.193 146.25 350 146.25C348.807 146.25 347.662 146.724 346.818 147.568C345.974 148.412 345.5 149.557 345.5 150.75V154.5M344.75 165.75H355.25C355.847 165.75 356.419 165.513 356.841 165.091C357.263 164.669 357.5 164.097 357.5 163.5V156.75C357.5 156.153 357.263 155.581 356.841 155.159C356.419 154.737 355.847 154.5 355.25 154.5H344.75C344.153 154.5 343.581 154.737 343.159 155.159C342.737 155.581 342.5 156.153 342.5 156.75V163.5C342.5 164.097 342.737 164.669 343.159 165.091C343.581 165.513 344.153 165.75 344.75 165.75Z" stroke="#1B140E" stroke-width="1.5" stroke-linecap="round" stroke-linejoin="round"/>
<path d="M338.136 197L334.936 186.536H336.904L338.312 191.8C338.419 192.195 338.52 192.579 338.616 192.952C338.712 193.315 338.808 193.683 338.904 194.056C339.011 194.419 339.123 194.797 339.24 195.192H339.304C339.411 194.797 339.512 194.419 339.608 194.056C339.704 193.683 339.8 193.315 339.896 192.952C340.003 192.579 340.109 192.195 340.216 191.8L341.736 186.536H343.64L340.328 197H338.136ZM344.73 197V186.536H348.026C348.805 186.536 349.498 186.637 350.106 186.84C350.714 187.043 351.194 187.379 351.546 187.848C351.898 188.317 352.074 188.957 352.074 189.768C352.074 190.536 351.898 191.171 351.546 191.672C351.205 192.173 350.73 192.547 350.122 192.792C349.525 193.037 348.847 193.16 348.09 193.16H346.586V197H344.73ZM346.586 191.672H347.946C348.725 191.672 349.301 191.512 349.674 191.192C350.058 190.872 350.25 190.397 350.25 189.768C350.25 189.107 350.047 188.653 349.642 188.408C349.247 188.152 348.661 188.024 347.882 188.024H346.586V191.672ZM353.867 197V186.536H355.899L359.035 192.296C359.227 192.648 359.408 193.027 359.579 193.432C359.76 193.837 359.931 194.248 360.091 194.664H360.155C360.112 194.099 360.064 193.512 360.011 192.904C359.957 192.285 359.931 191.688 359.931 191.112V186.536H361.707V197H359.675L356.539 191.24C356.347 190.888 356.155 190.509 355.963 190.104C355.781 189.699 355.611 189.288 355.451 188.872H355.387C355.451 189.416 355.509 189.997 355.563 190.616C355.616 191.224 355.643 191.827 355.643 192.424V197H353.867Z" fill="#1B140E"/>
<path d="M400.6 176C400.6 180.418 404.182 184 408.6 184C413.018 184 416.6 180.418 416.6 176C416.6 171.582 413.018 168 408.6 168C404.182 168 400.6 171.582 400.6 176ZM539 182.66C539 183.489 540.015 184.074 540.732 183.66L552.268 177C552.985 176.586 552.985 175.414 552.268 175L540.732 168.34C540.015 167.926 539 168.511 539 169.34V182.66ZM408.6 177.5H540.5V174.5H408.6V177.5Z" fill="#1B140E"/>
<path d="M190 142.5C189.172 142.5 188.5 143.172 188.5 144C188.5 144.828 189.172 145.5 190 145.5V142.5ZM272 183.115C272 183.943 273.015 184.529 273.732 184.115L285.268 177.455C285.985 177.04 285.985 175.869 285.268 175.455L273.732 168.794C273.015 168.38 272 168.966 272 169.794V183.115ZM238.5 160.227H240H238.5ZM238.5 160.227H240H238.5ZM190 145.5H222.273V142.5H190V145.5ZM254.727 177.955H273.5V174.955H254.727V177.955ZM237 160.227C237 170.018 244.937 177.955 254.727 177.955V174.955C246.594 174.955 240 168.361 240 160.227H237ZM222.273 145.5C230.406 145.5 237 152.094 237 160.227H240C240 150.437 232.063 142.5 222.273 142.5V145.5Z" fill="#5E00D6"/>
<path d="M190 206.5C189.172 206.5 188.5 207.172 188.5 208C188.5 208.828 189.172 209.5 190 209.5V206.5ZM272 183.115C272 183.943 273.015 184.529 273.732 184.115L285.268 177.455C285.985 177.04 285.985 175.869 285.268 175.455L273.732 168.794C273.015 168.38 272 168.966 272 169.794V183.115ZM238.5 192.227H240H238.5ZM238.5 192.227H240H238.5ZM190 209.5H222.727V206.5H190V209.5ZM254.273 177.955H273.5V174.955H254.273V177.955ZM240 192.227C240 184.345 246.39 177.955 254.273 177.955V174.955C244.733 174.955 237 182.688 237 192.227H240ZM222.727 209.5C232.267 209.5 240 201.767 240 192.227H237C237 200.11 230.61 206.5 222.727 206.5V209.5Z" fill="#5E00D6"/>
<path d="M750 176.75L752.25 179L756 173.75M762 176C762 177.182 761.767 178.352 761.315 179.444C760.863 180.536 760.2 181.528 759.364 182.364C758.528 183.2 757.536 183.863 756.444 184.315C755.352 184.767 754.182 185 753 185C751.818 185 750.648 184.767 749.556 184.315C748.464 183.863 747.472 183.2 746.636 182.364C745.8 181.528 745.137 180.536 744.685 179.444C744.233 178.352 744 177.182 744 176C744 173.613 744.948 171.324 746.636 169.636C748.324 167.948 750.613 167 753 167C755.387 167 757.676 167.948 759.364 169.636C761.052 171.324 762 173.613 762 176Z" stroke="#1B140E" stroke-width="1.5" stroke-linecap="round" stroke-linejoin="round"/>
<path d="M523.75 117.75L528.25 122.25M528.25 117.75L523.75 122.25M535 120C535 121.182 534.767 122.352 534.315 123.444C533.863 124.536 533.2 125.528 532.364 126.364C531.528 127.2 530.536 127.863 529.444 128.315C528.352 128.767 527.182 129 526 129C524.818 129 523.648 128.767 522.556 128.315C521.464 127.863 520.472 127.2 519.636 126.364C518.8 125.528 518.137 124.536 517.685 123.444C517.233 122.352 517 121.182 517 120C517 117.613 517.948 115.324 519.636 113.636C521.324 111.948 523.613 111 526 111C528.387 111 530.676 111.948 532.364 113.636C534.052 115.324 535 117.613 535 120Z" stroke="#1B140E" stroke-width="1.5" stroke-linecap="round" stroke-linejoin="round"/>
<defs>
<clipPath id="clip0_1038_556">
<rect width="43" height="42.1224" fill="white" transform="translate(624 41)"/>
</clipPath>
</defs>
</svg>
