<svg xmlns="http://www.w3.org/2000/svg" xmlns:xlink="http://www.w3.org/1999/xlink" contentStyleType="text/css" height="335px" preserveAspectRatio="none" style="width:233px;height:335px;background:#FFFFFF;" version="1.1" viewBox="0 0 233 335" width="233px" zoomAndPan="magnify"><defs/><g><ellipse cx="96.85" cy="16" fill="#222222" rx="10" ry="10" style="stroke:#222222;stroke-width:1.0;"/><g id="Sent"><rect fill="#F1F1F1" height="50" rx="12.5" ry="12.5" style="stroke:#181818;stroke-width:0.5;" width="52" x="70.85" y="103"/><line style="stroke:#181818;stroke-width:0.5;" x1="70.85" x2="122.85" y1="129.2969" y2="129.2969"/><text fill="#000000" font-family="sans-serif" font-size="14" lengthAdjust="spacing" textLength="32" x="80.85" y="120.9951">Sent</text></g><g id="Received"><rect fill="#F1F1F1" height="64.2344" rx="12.5" ry="12.5" style="stroke:#181818;stroke-width:0.5;" width="129" x="32.35" y="265"/><line style="stroke:#181818;stroke-width:0.5;" x1="32.35" x2="161.35" y1="291.2969" y2="291.2969"/><text fill="#000000" font-family="sans-serif" font-size="14" lengthAdjust="spacing" textLength="64" x="64.85" y="282.9951">Received</text><text fill="#000000" font-family="sans-serif" font-size="12" lengthAdjust="spacing" textLength="109" x="37.35" y="307.4355">addr: SocketAddr</text><text fill="#000000" font-family="sans-serif" font-size="12" lengthAdjust="spacing" textLength="65" x="37.35" y="321.4043">at: Instant</text></g><!--link *start* to Sent--><g id="link_*start*_Sent"><path d="M96.85,26.37 C96.85,43.1 96.85,72.59 96.85,96.62 " fill="none" id="*start*-to-Sent" style="stroke:#181818;stroke-width:1.0;"/><polygon fill="#181818" points="96.85,102.62,100.85,93.62,96.85,97.62,92.85,93.62,96.85,102.62" style="stroke:#181818;stroke-width:1.0;"/><text fill="#000000" font-family="sans-serif" font-size="13" lengthAdjust="spacing" textLength="86" x="97.85" y="69.0669">Send request</text></g><!--link Sent to Received--><g id="link_Sent_Received"><path d="M70.42,138.9 C51.74,147.47 28.09,161.84 16.85,183 C6,203.4 6.6,214.28 16.85,235 C22.5,246.43 26.8414,252.4661 36.7214,260.7461 " fill="none" id="Sent-to-Received" style="stroke:#181818;stroke-width:1.0;"/><polygon fill="#181818" points="41.32,264.6,36.9913,255.7534,37.4878,261.3884,31.8528,261.8849,41.32,264.6" style="stroke:#181818;stroke-width:1.0;"/><text fill="#000000" font-family="sans-serif" font-size="13" lengthAdjust="spacing" textLength="112" x="17.85" y="213.5669">Receive response</text></g><!--link Received to Sent--><g id="link_Received_Sent"><path d="M120.96,264.72 C126.64,255.62 131.9,245.33 134.85,235 C141.19,212.77 141.82,205.03 134.85,183 C131.49,172.39 128.7997,166.8852 122.3097,158.1552 " fill="none" id="Received-to-Sent" style="stroke:#181818;stroke-width:1.0;"/><polygon fill="#181818" points="118.73,153.34,120.8894,162.9492,121.7131,157.3527,127.3096,158.1763,118.73,153.34" style="stroke:#181818;stroke-width:1.0;"/><text fill="#000000" font-family="sans-serif" font-size="13" lengthAdjust="spacing" textLength="86" x="139.85" y="196.0669">Send request</text><path d="M147.35,205.1328 L147.35,230.1328 L218.35,230.1328 L218.35,215.1328 L208.35,205.1328 L147.35,205.1328 " fill="#FEFFDD" style="stroke:#181818;stroke-width:0.5;"/><path d="M208.35,205.1328 L208.35,215.1328 L218.35,215.1328 L208.35,205.1328 " fill="#FEFFDD" style="stroke:#181818;stroke-width:0.5;"/><text fill="#000000" font-family="sans-serif" font-size="13" lengthAdjust="spacing" textLength="50" x="153.35" y="222.1997">After 5s</text></g><!--SRC=[YzQALT3LjLC8JiqhiGAHAGf5gOMbgSKbN5mWCGMWN51gScfcMMgA5Om5L59Sa9zNdCg5a4fCIIa26f2Vd9rQuWXa8qi1JVRCAov9p2k1Y-AoD2-_95KXFqyX9pClcqj1mJ6j9BL8mRIO2wG690S0]--></g></svg>