<svg xmlns="http://www.w3.org/2000/svg" xmlns:xlink="http://www.w3.org/1999/xlink" contentStyleType="text/css" height="242px" preserveAspectRatio="none" style="width:307px;height:242px;background:#FFFFFF;" version="1.1" viewBox="0 0 307 242" width="307px" zoomAndPan="magnify"><defs/><g><ellipse cx="33" cy="16" fill="#222222" rx="10" ry="10" style="stroke:#222222;stroke-width:1.0;"/><g id="Sent"><rect fill="#F1F1F1" height="50" rx="12.5" ry="12.5" style="stroke:#181818;stroke-width:0.5;" width="52" x="7" y="103.14"/><line style="stroke:#181818;stroke-width:0.5;" x1="7" x2="59" y1="129.4369" y2="129.4369"/><text fill="#000000" font-family="sans-serif" font-size="14" lengthAdjust="spacing" textLength="32" x="17" y="121.1351">Sent</text></g><g id="Received"><rect fill="#F1F1F1" height="50.2656" rx="12.5" ry="12.5" style="stroke:#181818;stroke-width:0.5;" width="92" x="208" y="103"/><line style="stroke:#181818;stroke-width:0.5;" x1="208" x2="300" y1="129.2969" y2="129.2969"/><text fill="#000000" font-family="sans-serif" font-size="14" lengthAdjust="spacing" textLength="64" x="222" y="120.9951">Received</text><text fill="#000000" font-family="sans-serif" font-size="12" lengthAdjust="spacing" textLength="72" x="213" y="145.4355">SocketAddr</text></g><ellipse cx="254" cy="225.27" fill="none" rx="11" ry="11" style="stroke:#222222;stroke-width:1.0;"/><ellipse cx="254" cy="225.27" fill="#222222" rx="6" ry="6" style="stroke:#222222;stroke-width:1.0;"/><!--link *start* to Sent--><g id="link_*start*_Sent"><path d="M33,26.39 C33,43.14 33,72.67 33,96.73 " fill="none" id="*start*-to-Sent" style="stroke:#181818;stroke-width:1.0;"/><polygon fill="#181818" points="33,102.73,37,93.73,33,97.73,29,93.73,33,102.73" style="stroke:#181818;stroke-width:1.0;"/><text fill="#000000" font-family="sans-serif" font-size="13" lengthAdjust="spacing" textLength="86" x="34" y="69.0669">Send request</text></g><!--link Sent to Received--><g id="link_Sent_Received"><path d="M59.22,128.14 C95.81,128.14 156.75,128.14 201.81,128.14 " fill="none" id="Sent-to-Received" style="stroke:#181818;stroke-width:1.0;"/><polygon fill="#181818" points="207.81,128.14,198.81,124.14,202.81,128.14,198.81,132.14,207.81,128.14" style="stroke:#181818;stroke-width:1.0;"/><text fill="#000000" font-family="sans-serif" font-size="13" lengthAdjust="spacing" textLength="112" x="77.5" y="121.2069">Receive response</text></g><!--link Received to *end*--><g id="link_Received_*end*"><path d="M254,153.64 C254,173.24 254,193.73 254,208.05 " fill="none" id="Received-to-*end*" style="stroke:#181818;stroke-width:1.0;"/><polygon fill="#181818" points="254,214.05,258,205.05,254,209.05,250,205.05,254,214.05" style="stroke:#181818;stroke-width:1.0;"/></g><!--SRC=[YzQALT3LjLC8JiqhiGAHAGf5gOMbgSKbN5mWCGMWN51gScfcMMgA5Om5L59Sa9zNdCg5a0hEJyvEBN5CIIdYWek2JOxMYWK0]--></g></svg>
