<?xml version="1.0" ?><!DOCTYPE svg  PUBLIC '-//W3C//DTD SVG 1.1//EN'  'http://www.w3.org/Graphics/SVG/1.1/DTD/svg11.dtd'><svg height="512px" style="enable-background:new 0 0 512 512;" version="1.1" viewBox="0 0 512 512" width="512px" xml:space="preserve" xmlns="http://www.w3.org/2000/svg" xmlns:xlink="http://www.w3.org/1999/xlink"><g id="_x31_99-like"><g><path d="M133.815,443.378V241.587c0-2.507,0.632-4.962,1.897-7.148l4.141-7.268H33.193    c-7.938,0-14.378,6.46-14.378,14.416v201.791c0,7.953,6.44,14.412,14.378,14.412h114.994    C140.255,457.79,133.815,451.331,133.815,443.378z" style="fill:#2AC276;"/><path d="M435.682,198.344H320.684v-86.483c0-31.798-25.787-57.651-57.494-57.651h-43.132    c-7.93,0-14.368,6.456-14.368,14.408v68.237l-51.463,90.315l-4.141,7.268c-1.265,2.186-1.897,4.642-1.897,7.148v201.791    c0,7.953,6.44,14.412,14.372,14.412h14.38h216.339c22.715,0,43.355-13.46,52.527-34.245l46.111-104.04    c0.838-1.841,1.27-3.834,1.27-5.849V256C493.186,224.199,467.395,198.344,435.682,198.344z" style="fill:#2AC276;"/></g></g><g id="Layer_1"/></svg>
