<svg width="22" height="22" viewBox="0 0 22 22" fill="none" xmlns="http://www.w3.org/2000/svg">
<circle cx="11" cy="11.0001" r="7.75208" stroke="#4C3E33" stroke-width="0.5"/>
<path fill-rule="evenodd" clip-rule="evenodd" d="M11 18.7449C15.2773 18.7449 18.7448 15.2774 18.7448 11.0001C18.7448 6.72281 15.2773 3.25537 11 3.25537C6.72269 3.25537 3.25525 6.72281 3.25525 11.0001C3.25525 15.2774 6.72269 18.7449 11 18.7449ZM14.1783 10.2534C14.5393 7.99141 14.9452 5.44737 13.1852 3.98145C14.0382 5.99452 13.771 7.66609 13.5237 9.21316C13.2629 10.8452 13.0242 12.3386 14.146 13.9483C13.7256 13.0906 13.9423 11.7323 14.1783 10.2534ZM14.7992 8.64771C15.8582 9.33579 15.6202 10.5383 15.4106 11.5972C15.2437 12.4407 15.0947 13.1931 15.6338 13.5219C16.209 13.8727 16.4851 13.3785 16.7893 12.8339C17.1364 12.2128 17.52 11.526 18.4259 11.9526C17.5792 11.6646 17.3055 12.3642 17.0104 13.1186C16.6884 13.9414 16.341 14.8294 15.1967 14.5714C13.7426 14.2436 14.1785 12.7658 14.6064 11.315C14.9171 10.2615 15.2237 9.22211 14.7992 8.64771ZM11.9165 13.7777C9.44546 12.5018 6.29123 10.8732 3.77148 12.8807C6.28007 11.6739 8.48229 12.9917 10.5617 14.236C11.9843 15.0872 13.3495 15.9041 14.7159 15.8546C16.5772 15.7872 17.0157 14.445 17.3726 13.3525C17.6079 12.6321 17.8078 12.0202 18.3568 11.954C17.7383 11.9008 17.5107 12.4589 17.2465 13.1069C16.8703 14.0297 16.4197 15.1348 14.66 14.9161C13.9505 14.8279 12.9991 14.3366 11.9165 13.7777Z" fill="#4C3E33"/>
</svg>
