<?xml version="1.0" encoding="UTF-8" standalone="no"?>
<svg
   width="22.212269"
   height="18"
   viewBox="0 0 22.212269 18"
   fill="none"
   version="1.1"
   id="svg200"
   sodipodi:docname="logo-main-connected-dark.svg"
   inkscape:version="1.2.2 (b0a84865, 2022-12-01)"
   xmlns:inkscape="http://www.inkscape.org/namespaces/inkscape"
   xmlns:sodipodi="http://sodipodi.sourceforge.net/DTD/sodipodi-0.dtd"
   xmlns="http://www.w3.org/2000/svg"
   xmlns:svg="http://www.w3.org/2000/svg">
  <defs
     id="defs204" />
  <sodipodi:namedview
     id="namedview202"
     pagecolor="#ffffff"
     bordercolor="#000000"
     borderopacity="0.25"
     inkscape:showpageshadow="2"
     inkscape:pageopacity="0.0"
     inkscape:pagecheckerboard="0"
     inkscape:deskcolor="#d1d1d1"
     showgrid="false"
     inkscape:zoom="4.2771739"
     inkscape:cx="68.736976"
     inkscape:cy="40.330369"
     inkscape:window-width="1390"
     inkscape:window-height="891"
     inkscape:window-x="1707"
     inkscape:window-y="71"
     inkscape:window-maximized="0"
     inkscape:current-layer="svg200" />
  <path
     fill-rule="evenodd"
     clip-rule="evenodd"
     d="M 14.268701,0 C 18.680653,3.6746861 14.113158,11.818846 15.724939,15.107266 12.412845,10.354586 16.925459,6.2701756 14.268701,0 Z"
     id="path194"
     style="stroke-width:0.097826;fill:#e6e6e6" />
  <path
     fill-rule="evenodd"
     clip-rule="evenodd"
     d="m 16.715231,7.0730628 c 2.883812,1.8737881 -0.577858,6.2642372 1.264988,7.3880622 1.866324,1.138205 1.655118,-3.592072 4.23205,-2.378638 -2.683073,-0.912815 -1.570009,4.718929 -4.894625,3.969484 -3.80455,-0.857738 0.926999,-6.909341 -0.602413,-8.9789082 z"
     id="path196"
     style="stroke-width:0.097826;fill:#e6e6e6" />
  <path
     fill-rule="evenodd"
     clip-rule="evenodd"
     d="m 0,13.489028 c 5.4924787,-4.3760295 12.973877,2.646291 16.504319,3.085138 4.540299,0.564163 3.330876,-4.685375 5.603374,-4.489723 -2.093965,0.252489 -0.837097,5.742678 -5.518755,5.912309 C 11.490542,18.181545 6.4038059,10.408195 9.3942776e-6,13.489028 Z"
     id="path198"
     style="stroke-width:0.097826;fill:#e6e6e6" />
</svg>
