<svg width="155" height="155" viewBox="0 0 155 155" fill="none" xmlns="http://www.w3.org/2000/svg">
<circle cx="77.5" cy="77.5" r="76" fill="#FCFCFC" stroke="#1B140E" stroke-width="3"/>
<path fill-rule="evenodd" clip-rule="evenodd" d="M94.9399 20C119.967 41.0274 94.0579 87.6301 103.201 106.447C84.4126 79.251 110.011 55.8793 94.9399 20Z" fill="#EF7A30"/>
<path fill-rule="evenodd" clip-rule="evenodd" d="M108.817 60.4737C125.176 71.1959 105.54 96.319 115.993 102.75C126.58 109.263 125.382 82.195 140 89.1387C124.78 83.9152 131.094 116.142 112.235 111.853C90.6532 106.945 117.493 72.3162 108.817 60.4737Z" fill="#8D1E00"/>
<path fill-rule="evenodd" clip-rule="evenodd" d="M14 97.1875C45.1563 72.1467 87.5949 112.33 107.622 114.841C133.376 118.07 126.516 88.0306 139.407 89.1498C127.528 90.5948 134.659 122.011 108.102 122.981C79.1804 124.039 50.3258 79.5581 14 97.1875Z" fill="#331700"/>
</svg>
