<?xml version="1.0" encoding="UTF-8" standalone="no"?>
<svg
   viewBox="0 0 55.744617 27.074409"
   fill="none"
   version="1.1"
   id="svg1"
   width="55.744617"
   height="27.074409"
   xmlns="http://www.w3.org/2000/svg"
   xmlns:svg="http://www.w3.org/2000/svg">
  <defs
     id="defs1" />
  <path
     d="m 55.744579,19.490709 c 0,2.0113 -0.799,3.9403 -2.2212,5.3625 -1.4222,1.4222 -3.3511,2.2212 -5.3624,2.2212 h -2.0851 c -0.2174,-2.5279 -2.8258,-4.6774 -6.5129,-5.6757 0.9298,-0.9174 1.5658,-2.0906 1.8271,-3.3705 0.2614,-1.2798 0.1362,-2.6084 -0.3597,-3.8169 -0.4958,-1.2085 -1.3398,-2.2423 -2.4246,-2.9698 -1.0849,-0.7276 -2.3617,-1.116 -3.6679,-1.116 -1.3063,0 -2.582995,0.3884 -3.667895,1.116 -1.0849,0.7275 -1.9289,1.7613 -2.4247,2.9698 -0.4958,1.2085 -0.621,2.5371 -0.3597,3.8169 0.2613,1.2799 0.8974,2.4531 1.8272,3.3705 -1.7539,0.4194 -3.3841,1.2469 -4.7579,2.4152 -0.867,-0.4971 -1.7953,-0.8788 -2.7613,-1.1352 0.7994,-0.7835 1.3473,-1.7874 1.5739,-2.8836 0.2266,-1.0962 0.1216,-2.2351 -0.3015,-3.2714 -0.4232,-1.0363 -1.1455,-1.923 -2.0746,-2.5473 -0.9292,-0.6242 -2.0232,-0.9576 -3.1426,-0.9576 -1.1194,0 -2.2134,0.3334 -3.1426,0.9576 -0.9291,0.6243 -1.6514,1.511 -2.0745,2.5473 -0.4232,1.0363 -0.5282,2.1752 -0.3016,3.2714 0.2266,1.0962 0.7745,2.1001 1.5739,2.8836 -2.9062,0.8051 -5.0235,2.4152 -5.4744,4.3635 h -2.08508 c -1.96959,-0.0642 -3.83706,-0.8917 -5.20764,-2.3077 C 0.766284,23.318609 0,21.425109 0,19.454509 c 0,-1.9707 0.766284,-3.8641 2.136864,-5.28 1.37058,-1.416 3.23805,-2.2435 5.20764,-2.3077 0.96533,0.0034 1.92138,0.1892 2.81768,0.5475 0.6079,-1.3208 1.5833,-2.4385001 2.8097,-3.2195001 1.2264,-0.78095 2.6519,-1.19208 4.1058,-1.18421 h 0.5474 c 0.3794,-1.9636198 1.3455,-3.7659798 2.7706,-5.1691198 1.4251,-1.40314 3.2423,-2.34106003 5.2115,-2.68991003 1.9693,-0.348853 3.9981,-0.092238 5.8185,0.73597 1.820395,0.82820003 3.346795,2.18904003 4.377595,3.90283003 1.1792,-0.35822 2.4248,-0.44095 3.641,-0.24183 1.2161,0.19912 2.3703,0.67478 3.3737,1.39033 1.0033,0.71555 1.829,1.6518998 2.4133,2.7368798 0.5844,1.08496 0.9119,2.2896601 0.9573,3.5211601 1.1245,-0.3063 2.3045,-0.3486 3.4481,-0.1239 1.1435,0.2248 2.2197,0.7107 3.1446,1.4198 0.925,0.709 1.6736,1.6222 2.1876,2.6681 0.514,1.046 0.7795,2.1966 0.7757,3.362 z"
     fill="#002b49"
     id="path1" />
</svg>
