<svg xmlns="http://www.w3.org/2000/svg" viewBox="0 0 48 48" fill="none">
  <path
    d="M8.5 11.5c0-3.6 6.9-6.5 15.5-6.5s15.5 2.9 15.5 6.5l-4.2 26.2c-.5 3.3-5.4 5.3-11.3 5.3s-10.8-2-11.3-5.3L8.5 11.5z"
    fill="#569A31"
  />
  <ellipse cx="24" cy="11.5" rx="15.5" ry="6.5" fill="#8CC63F" />
  <ellipse cx="24" cy="11.5" rx="10" ry="4" fill="#569A31" />
  <path
    d="M24 26c4.4 0 8-1 8-2.2v4.4c0 1.2-3.6 2.2-8 2.2s-8-1-8-2.2v-4.4c0 1.2 3.6 2.2 8 2.2z"
    fill="#fff"
    opacity=".85"
  />
</svg>
