<svg xmlns="http://www.w3.org/2000/svg" width="64" height="64"><path d="M63.53 25.145c-3.003-13.8-19.55-21.914-36.966-18.13S-2.53 25.06.47 38.854s19.55 21.918 36.962 18.13 29.098-18.027 26.1-31.84zM32.002 44.72a12.72 12.72 0 0 1-8.994-21.714 12.72 12.72 0 0 1 21.714 8.994c0 7.025-5.695 12.72-12.72 12.72z" fill="#008c99"/><path d="M34.813 14.192c-10.086.002-18.26 8.18-18.26 18.266s8.178 18.26 18.264 18.26S53.08 42.54 53.08 32.455c0-4.844-1.925-9.5-5.35-12.915s-8.072-5.35-12.916-5.348zM31.998 43.1a11.11 11.11 0 0 1-7.856-18.966 11.11 11.11 0 0 1 18.966 7.856c0 6.134-4.972 11.108-11.106 11.1z" fill="#70ccd3"/></svg>