<svg width="220" height="220" viewBox="0 0 220 220" fill="none" xmlns="http://www.w3.org/2000/svg">
<g clip-path="url(#clip0_877_548)">
<path fill-rule="evenodd" clip-rule="evenodd" d="M141.858 18C186.958 55.5635 140.268 138.815 156.744 172.43C122.887 123.847 169.016 82.0952 141.858 18Z" fill="#C25700"/>
<path fill-rule="evenodd" clip-rule="evenodd" d="M166.867 90.3025C196.346 109.457 160.96 154.337 179.798 165.825C198.876 177.46 196.717 129.106 223.059 141.51C195.632 132.179 207.01 189.748 173.025 182.087C134.134 173.319 182.501 111.458 166.867 90.3025Z" fill="#8D1E00"/>
<path fill-rule="evenodd" clip-rule="evenodd" d="M-4 155.888C52.1454 111.155 128.622 182.939 164.711 187.425C211.123 193.192 198.76 139.53 221.99 141.53C200.585 144.111 213.433 200.233 165.576 201.967C113.459 203.856 61.4612 124.395 -3.9999 155.888H-4Z" fill="#331700"/>
</g>
<defs>
<clipPath id="clip0_877_548">
<rect width="220" height="220" fill="white"/>
</clipPath>
</defs>
</svg>
