<?xml version="1.0" encoding="UTF-8"?>
<svg xmlns="http://www.w3.org/2000/svg" viewBox="0 0 1000 500" preserveAspectRatio="xMidYMid meet">
<g id="land" fill="currentColor">
<path d="M334.5,472.3 L333.7,473.7 L332.9,475.0 L327.1,474.6 L320.9,474.8 L317.4,473.9 L317.4,473.7 L315.9,472.9 L322.1,473.0 L328.1,473.3 L330.2,472.2 L331.6,471.2 L334.5,472.3 Z"/>
<path d="M57.8,470.8 L52.4,471.2 L48.8,470.2 L47.2,469.2 L47.0,469.1 L45.2,468.3 L46.9,467.3 L52.1,467.7 L54.9,468.6 L57.0,469.6 L57.8,470.8 Z"/>
<path d="M374.6,466.8 L378.0,468.0 L379.2,469.7 L379.5,470.9 L379.6,472.3 L375.3,473.2 L370.8,473.9 L365.6,474.5 L359.8,475.1 L353.2,474.9 L349.5,474.0 L350.0,472.8 L356.0,472.1 L358.4,471.1 L360.1,470.0 L361.4,468.9 L363.0,467.9 L364.8,466.8 L366.2,466.8 L370.4,466.2 L374.6,466.8 Z"/>
<path d="M163.3,454.2 L166.9,454.6 L170.2,454.1 L168.6,455.1 L166.0,455.8 L162.2,455.6 L159.4,454.6 L160.0,453.7 L163.3,454.2 Z"/>
<path d="M151.2,454.1 L155.5,455.2 L153.8,455.1 L150.2,454.8 L146.4,454.1 L148.5,453.5 L151.2,454.1 Z"/>
<path d="M225.1,449.8 L228.1,450.2 L231.1,449.9 L232.8,451.4 L230.6,451.2 L227.2,451.3 L223.8,451.2 L220.0,451.4 L217.2,450.8 L215.8,449.7 L217.5,449.2 L221.0,449.6 L225.1,449.8 Z"/>
<path d="M309.9,447.1 L310.2,448.4 L309.7,449.4 L308.9,450.5 L305.7,450.9 L302.6,451.4 L298.9,451.3 L300.3,450.3 L297.0,450.6 L293.9,451.0 L291.8,450.2 L291.6,449.1 L294.7,448.0 L296.6,447.6 L299.8,447.8 L300.6,446.3 L300.8,445.3 L300.7,443.1 L302.3,441.8 L304.9,441.3 L306.3,442.4 L307.0,443.4 L308.2,444.7 L309.1,445.8 L309.9,447.1 Z"/>
<path d="M0.0,485.3 L0.2,485.3 L2.6,483.7 L7.6,484.6 L7.9,484.5 L8.7,484.3 L9.7,484.0 L10.5,483.7 L10.9,483.6 L11.3,483.6 L11.6,483.7 L15.6,484.8 L19.1,483.7 L19.8,483.5 L27.9,483.0 L30.6,483.7 L31.9,484.0 L36.1,484.9 L43.9,485.6 L50.2,486.5 L60.9,487.1 L68.9,486.4 L80.7,486.9 L87.4,487.8 L94.8,487.0 L102.5,486.2 L103.1,484.9 L92.1,484.8 L83.2,484.2 L80.8,483.1 L73.4,482.5 L73.9,481.2 L74.9,480.1 L75.9,479.0 L75.4,477.9 L70.8,477.1 L68.6,476.2 L64.3,475.3 L71.1,475.4 L77.5,475.0 L81.5,475.9 L86.5,475.1 L91.1,474.1 L93.3,473.2 L92.3,472.0 L88.7,471.3 L84.6,470.4 L78.9,470.3 L73.9,469.9 L68.5,469.6 L66.7,468.6 L63.1,467.7 L61.0,466.7 L60.1,463.6 L61.5,463.9 L64.0,464.7 L68.5,464.5 L72.9,464.1 L75.2,465.3 L79.6,465.0 L83.3,464.4 L86.8,463.6 L90.0,462.7 L94.2,462.4 L94.0,461.4 L93.1,460.4 L93.9,459.4 L97.5,458.9 L99.1,459.8 L103.4,459.3 L106.6,458.6 L110.5,458.5 L114.3,458.2 L118.0,457.6 L121.0,457.0 L124.4,456.4 L126.6,456.6 L128.5,456.8 L132.6,456.4 L136.3,456.9 L140.1,456.8 L143.8,456.5 L147.5,456.7 L151.7,457.0 L155.5,456.9 L159.6,456.9 L163.7,457.0 L167.5,456.9 L170.3,456.1 L173.7,455.6 L177.2,456.2 L180.5,455.7 L183.5,454.8 L185.3,455.6 L186.3,456.6 L188.1,457.5 L190.9,456.7 L194.3,457.8 L198.0,458.1 L201.2,458.8 L205.1,458.7 L208.7,458.2 L212.9,458.3 L216.6,458.7 L220.4,459.2 L221.9,458.0 L220.1,457.1 L218.7,456.1 L215.2,455.9 L213.6,454.8 L213.0,453.8 L212.0,451.7 L214.1,452.1 L217.8,452.3 L221.4,452.1 L224.6,452.5 L227.5,453.3 L228.6,454.3 L232.4,454.5 L236.0,454.1 L239.8,453.6 L243.2,453.2 L246.1,453.9 L249.8,453.7 L252.1,451.6 L254.4,452.8 L257.6,453.3 L261.1,453.0 L263.4,454.1 L267.0,454.2 L270.4,454.5 L273.7,455.1 L275.9,454.1 L277.0,453.1 L279.7,454.2 L283.5,453.9 L286.4,454.5 L288.3,455.5 L292.0,455.2 L294.9,454.6 L297.7,453.9 L301.1,453.5 L305.0,453.2 L308.5,452.8 L311.2,452.2 L312.9,451.3 L313.5,450.1 L313.2,449.0 L312.3,447.9 L311.3,446.8 L310.5,445.7 L309.8,444.7 L309.6,443.7 L309.9,442.6 L311.2,441.5 L312.3,440.4 L312.7,439.3 L312.2,438.1 L311.8,437.0 L313.2,435.8 L314.7,435.0 L316.5,433.9 L318.4,433.0 L320.6,432.2 L321.7,431.0 L323.3,430.3 L325.0,429.6 L327.7,429.4 L329.4,428.5 L331.4,428.0 L333.6,427.7 L335.7,427.0 L337.2,426.1 L339.4,425.8 L341.0,426.5 L340.0,427.4 L337.2,428.2 L336.0,428.8 L333.9,428.4 L331.6,428.6 L329.7,429.3 L327.7,430.0 L326.4,430.8 L326.0,431.9 L326.1,432.9 L327.4,433.9 L325.5,434.5 L322.9,434.7 L321.4,435.7 L319.8,436.5 L318.0,437.7 L317.6,438.8 L318.6,439.9 L320.0,440.8 L322.3,441.4 L324.5,442.3 L325.6,443.4 L326.2,444.4 L327.0,445.5 L328.3,446.4 L329.1,447.5 L329.5,450.0 L330.3,451.1 L330.5,452.2 L331.4,453.2 L331.0,454.7 L329.5,455.9 L327.9,456.8 L324.2,457.2 L322.9,458.1 L321.2,459.1 L317.1,460.1 L313.4,460.5 L309.9,461.1 L306.1,461.7 L303.9,462.9 L299.4,463.0 L294.5,462.9 L290.1,463.1 L285.4,463.1 L286.3,464.2 L290.6,464.7 L293.7,465.4 L295.4,466.4 L292.3,467.3 L287.5,467.0 L283.5,467.7 L283.4,468.9 L283.3,470.0 L286.5,470.9 L287.1,471.9 L290.7,472.9 L296.5,473.4 L301.5,474.1 L305.5,475.0 L310.6,475.9 L317.5,476.3 L324.3,477.1 L329.0,477.9 L334.2,478.8 L336.9,480.1 L338.3,481.2 L341.6,480.2 L346.2,479.4 L351.1,478.5 L356.8,477.8 L361.8,477.0 L368.7,477.0 L375.5,477.4 L381.1,478.0 L382.9,476.8 L386.7,476.0 L393.8,475.9 L399.3,475.3 L404.5,474.7 L410.3,474.4 L416.4,473.9 L420.7,473.2 L418.7,472.2 L417.5,471.2 L417.5,470.2 L412.2,470.3 L406.4,470.7 L401.0,470.7 L400.2,469.7 L400.6,467.6 L401.9,467.0 L405.8,466.4 L410.5,465.7 L413.9,464.9 L417.3,464.1 L419.8,463.0 L423.6,462.5 L427.3,462.1 L429.2,461.9 L433.5,461.8 L437.6,461.4 L441.0,460.9 L444.4,460.2 L447.5,459.6 L451.3,458.7 L453.8,457.8 L456.4,456.9 L457.2,455.9 L454.3,455.2 L455.2,454.1 L457.1,453.2 L460.0,452.6 L463.0,452.0 L465.9,451.1 L468.0,450.0 L469.4,448.7 L471.4,448.0 L474.7,448.1 L476.1,449.0 L479.4,449.2 L479.5,448.1 L480.9,447.0 L483.9,447.3 L484.6,448.3 L487.9,448.5 L491.5,448.0 L495.0,447.7 L498.2,447.8 L499.4,449.0 L502.4,448.1 L505.2,447.6 L508.4,447.2 L511.5,446.8 L514.3,446.2 L517.4,445.7 L519.8,445.1 L521.5,444.1 L523.6,444.9 L526.5,444.5 L528.5,445.8 L530.0,446.8 L533.2,446.2 L534.5,445.1 L537.3,444.4 L540.9,444.5 L542.0,445.6 L544.3,444.5 L547.3,444.2 L550.6,444.1 L553.5,444.1 L556.6,444.5 L559.6,444.6 L560.9,445.6 L562.7,446.4 L565.7,445.9 L569.0,445.8 L572.2,445.8 L575.3,445.7 L578.0,445.3 L581.0,445.0 L583.4,444.3 L586.0,443.8 L588.9,443.5 L591.0,442.7 L592.5,441.2 L594.1,440.3 L597.0,440.7 L598.1,441.7 L600.4,442.4 L603.3,442.1 L605.3,443.1 L607.4,443.8 L610.2,443.2 L611.2,442.0 L613.7,441.5 L616.6,440.6 L619.3,440.2 L622.5,439.6 L624.7,439.0 L627.0,438.4 L629.2,437.8 L631.8,438.1 L634.3,437.1 L636.1,436.4 L638.7,436.4 L641.0,435.8 L641.5,434.8 L643.9,434.0 L646.1,433.5 L648.9,433.0 L651.5,432.8 L653.9,433.0 L656.5,433.3 L658.8,434.0 L659.0,435.2 L661.5,436.1 L663.2,436.9 L666.5,437.2 L668.3,438.0 L670.6,438.8 L673.3,438.9 L675.5,438.4 L677.9,437.2 L680.5,437.8 L683.3,438.2 L685.9,438.5 L688.6,438.7 L691.4,438.7 L693.6,441.6 L693.5,442.3 L693.2,443.6 L690.5,444.3 L688.4,445.3 L688.7,446.4 L691.8,446.3 L691.5,447.4 L690.1,448.5 L688.7,449.6 L690.9,450.5 L694.1,450.7 L697.3,450.2 L698.8,449.2 L699.7,448.1 L701.3,447.3 L703.0,446.4 L703.7,445.5 L705.2,444.1 L706.9,443.8 L710.1,443.7 L712.8,443.4 L715.7,443.0 L717.0,441.9 L717.9,440.8 L719.8,439.8 L722.5,439.1 L724.8,438.5 L726.3,437.6 L727.9,437.1 L729.9,436.7 L732.7,437.0 L735.2,436.7 L737.9,436.4 L741.0,436.5 L743.0,435.8 L744.4,433.9 L745.4,434.7 L746.7,436.0 L749.1,436.5 L751.7,436.7 L754.4,436.4 L757.2,436.6 L759.9,436.7 L761.6,436.4 L763.9,436.6 L766.1,437.2 L768.6,436.8 L771.6,436.8 L774.1,436.4 L777.0,436.8 L778.8,435.9 L780.3,435.0 L782.2,434.2 L785.6,432.1 L787.4,432.5 L789.6,433.3 L791.4,434.2 L794.9,435.9 L797.7,436.0 L800.2,436.0 L803.2,435.7 L806.2,435.3 L808.5,434.5 L810.4,433.7 L813.5,433.6 L815.6,433.0 L817.7,433.5 L819.2,434.4 L821.1,435.3 L824.2,435.2 L826.1,435.9 L829.4,436.6 L832.9,436.9 L835.7,436.6 L837.9,435.8 L839.8,434.9 L842.3,434.7 L844.8,435.1 L847.7,435.3 L850.3,434.9 L852.8,434.9 L855.2,435.2 L857.8,435.4 L860.3,435.0 L863.3,434.5 L866.1,434.4 L869.3,434.4 L871.8,434.1 L874.3,433.9 L875.1,432.6 L875.2,431.4 L876.9,432.2 L877.4,433.4 L878.3,434.6 L879.5,435.5 L881.8,436.0 L885.0,435.8 L888.6,435.8 L891.1,435.6 L894.8,435.6 L897.4,435.5 L901.0,435.7 L904.1,435.9 L906.1,436.7 L905.6,437.8 L907.3,438.6 L910.3,439.2 L913.4,440.0 L917.0,440.4 L920.8,440.9 L923.6,441.3 L926.8,441.4 L928.6,440.4 L931.0,441.2 L933.1,442.1 L935.6,442.7 L939.0,443.0 L942.2,443.3 L943.5,444.4 L946.7,445.1 L948.8,446.1 L951.9,446.5 L955.1,446.4 L958.1,446.6 L961.4,446.5 L964.7,446.8 L967.8,447.1 L970.7,447.8 L973.6,448.3 L975.6,449.2 L975.2,450.2 L973.8,451.2 L972.5,452.5 L971.5,453.5 L970.2,454.6 L966.6,455.0 L965.0,456.0 L961.4,456.6 L960.1,457.7 L958.2,458.7 L956.2,459.6 L955.1,460.8 L954.4,461.8 L954.1,463.0 L954.1,464.1 L955.7,465.2 L956.3,466.2 L957.6,467.2 L962.8,467.6 L963.9,468.8 L958.9,469.2 L954.6,469.8 L949.3,469.9 L947.0,471.5 L946.5,472.8 L945.3,473.8 L943.9,474.9 L947.6,475.8 L949.0,476.9 L951.4,477.9 L954.7,478.9 L958.6,479.7 L962.8,480.6 L969.1,481.5 L970.6,482.8 L978.6,483.4 L979.1,483.7 L981.2,484.5 L988.8,483.8 L995.2,484.6 Z"/>
<path d="M311.8,399.6 L315.4,401.3 L319.3,401.9 L318.1,403.3 L315.4,403.5 L314.0,402.5 L313.1,403.6 L310.7,404.5 L307.7,404.2 L305.7,403.3 L302.8,402.9 L299.3,401.4 L296.4,399.9 L292.6,396.8 L294.9,397.4 L298.8,399.2 L302.5,400.2 L303.9,398.9 L304.8,397.0 L307.4,395.9 L309.4,396.2 L310.4,397.5 L311.8,399.6 Z"/>
<path d="M337.4,391.9 L339.6,393.2 L338.8,394.2 L335.0,395.0 L333.8,394.0 L331.4,395.3 L330.0,394.0 L333.3,392.4 L335.7,393.1 L337.4,391.9 Z"/>
<path d="M695.2,388.1 L691.0,388.3 L690.9,386.8 L691.3,385.6 L691.5,385.1 L693.3,385.9 L695.9,386.3 L696.0,386.8 L695.2,388.1 Z"/>
<path d="M903.9,363.3 L906.6,364.3 L908.1,363.9 L910.2,363.4 L911.9,363.5 L912.1,366.8 L911.2,367.8 L910.9,370.0 L909.9,369.3 L908.0,371.2 L907.4,371.1 L905.7,371.0 L904.0,368.6 L903.6,366.8 L902.0,364.3 L902.1,363.1 L903.9,363.3 Z"/>
<path d="M980.6,363.7 L981.2,364.8 L983.2,363.7 L984.0,364.9 L984.0,366.0 L983.0,367.3 L981.2,369.4 L979.7,370.5 L980.8,371.8 L978.6,371.8 L976.3,372.9 L975.5,374.7 L973.9,377.5 L971.7,378.8 L970.4,379.6 L967.8,379.5 L966.0,378.6 L963.0,378.4 L962.5,377.4 L964.0,375.3 L967.5,372.6 L969.3,372.0 L971.3,371.0 L973.7,369.5 L975.3,368.1 L976.6,366.0 L977.6,365.3 L978.0,363.8 L980.0,362.5 L980.6,363.7 Z"/>
<path d="M985.0,350.4 L987.0,353.4 L987.1,351.5 L988.4,352.2 L988.8,354.3 L991.0,355.2 L992.9,355.4 L994.5,354.4 L995.9,354.7 L995.2,357.2 L994.4,358.8 L992.2,358.7 L991.5,359.6 L991.8,360.8 L991.3,361.3 L990.3,362.8 L988.9,364.7 L986.8,365.8 L986.3,365.1 L985.1,364.7 L986.7,362.4 L985.8,360.9 L982.8,359.7 L982.9,358.7 L984.9,357.8 L985.4,355.6 L985.3,353.8 L984.1,352.0 L984.2,351.5 L982.9,350.3 L980.7,347.9 L979.5,345.9 L980.6,345.7 L982.1,347.2 L984.2,348.0 L985.0,350.4 Z"/>
<path d="M964.2,311.6 L963.2,312.2 L961.6,311.5 L959.6,310.2 L957.9,308.7 L956.0,306.8 L955.6,305.8 L956.8,305.9 L958.4,306.8 L959.6,307.8 L960.5,308.6 L962.8,310.3 L964.2,311.6 Z"/>
<path d="M995.5,298.2 L996.4,299.0 L996.0,300.4 L994.3,300.8 L992.7,300.5 L992.5,299.2 L993.5,298.3 L994.8,298.6 L995.5,298.2 Z"/>
<path d="M998.2,296.7 L996.5,297.3 L996.1,296.2 L997.5,295.7 L998.4,295.5 ZM0.0,294.6 L0.6,294.5 L0.2,295.8 L0.0,296.0 Z"/>
<path d="M964.2,291.5 L964.6,293.7 L963.9,293.4 L963.3,293.5 L962.9,292.8 L962.9,290.6 L964.2,291.5 Z"/>
<path d="M639.0,287.7 L639.5,291.0 L640.2,292.3 L639.9,293.6 L639.4,294.4 L638.5,292.8 L638.0,293.6 L638.5,295.7 L638.3,296.9 L637.5,297.5 L637.3,299.9 L636.2,303.1 L634.9,306.9 L633.1,312.2 L632.1,316.1 L630.8,319.3 L628.6,319.9 L626.1,321.1 L624.5,320.4 L622.3,319.4 L621.6,317.9 L621.4,315.5 L620.4,313.3 L620.1,311.3 L620.6,309.3 L621.9,308.8 L621.9,307.9 L623.3,305.8 L623.5,304.0 L622.9,302.7 L622.3,300.9 L622.1,298.4 L623.1,296.8 L623.5,295.0 L624.8,294.9 L626.4,294.4 L627.4,293.9 L628.6,293.8 L630.2,292.3 L632.5,290.5 L633.3,289.1 L633.0,288.0 L634.1,288.3 L635.7,286.4 L635.7,284.7 L636.7,283.4 L637.6,284.6 L638.4,285.8 L639.0,287.7 Z"/>
<path d="M898.8,288.2 L899.8,290.4 L901.6,289.4 L902.5,290.5 L903.8,291.6 L903.5,292.9 L904.1,295.2 L904.5,296.6 L905.2,297.0 L906.0,299.3 L905.7,300.8 L906.6,302.7 L909.6,304.1 L911.6,305.4 L913.5,306.6 L913.1,307.3 L914.7,309.1 L915.8,312.1 L916.9,311.5 L918.0,312.7 L918.7,312.2 L919.2,315.2 L921.1,316.9 L922.4,317.9 L924.6,320.2 L925.4,322.4 L925.4,324.0 L925.3,325.7 L926.6,328.1 L926.4,330.5 L925.9,331.8 L925.2,334.3 L925.2,335.9 L924.7,337.9 L923.5,340.4 L921.4,341.8 L920.4,343.9 L919.5,345.3 L918.6,347.7 L917.6,349.1 L916.9,351.2 L916.5,353.1 L916.7,354.0 L915.1,354.9 L912.0,355.0 L909.4,356.2 L908.1,357.2 L906.4,358.4 L904.1,357.2 L902.4,356.7 L902.9,355.3 L901.3,355.8 L898.9,357.8 L896.5,357.1 L894.9,356.6 L893.3,356.4 L890.7,355.6 L888.9,353.9 L888.3,351.8 L887.7,350.4 L886.3,349.3 L883.7,348.9 L884.6,347.6 L883.9,345.5 L882.5,347.4 L880.1,347.9 L881.5,346.4 L882.0,344.8 L883.0,343.4 L882.8,341.4 L880.5,343.8 L878.8,344.7 L877.7,346.9 L875.6,345.8 L875.7,344.3 L873.9,342.3 L872.5,341.2 L873.0,340.6 L869.4,338.9 L867.5,338.8 L864.8,337.5 L859.8,337.8 L856.2,338.7 L853.1,339.7 L850.4,339.5 L847.5,340.9 L845.1,341.6 L844.5,343.0 L843.5,344.1 L841.1,344.2 L839.4,344.5 L836.9,343.9 L834.9,344.3 L833.0,344.4 L831.4,345.9 L830.6,345.7 L829.2,346.5 L827.8,347.4 L825.8,347.3 L824.0,347.3 L821.0,345.5 L819.5,345.0 L819.6,343.4 L821.0,343.0 L821.4,342.4 L821.3,341.4 L821.7,339.5 L821.4,337.8 L819.9,335.0 L819.4,333.4 L819.6,331.8 L818.4,330.0 L818.4,329.2 L817.1,328.1 L816.8,325.9 L815.2,323.7 L814.8,322.5 L816.0,323.7 L815.1,321.2 L816.5,322.0 L817.3,323.1 L817.3,321.6 L815.9,319.4 L815.6,318.6 L815.0,317.7 L815.3,316.1 L815.8,315.4 L816.2,314.1 L815.9,312.4 L817.1,310.4 L817.3,312.5 L818.5,310.6 L820.7,309.7 L822.1,308.5 L824.2,307.5 L825.5,307.3 L826.2,307.6 L828.4,306.6 L830.1,306.3 L830.5,305.7 L831.3,305.4 L832.8,305.5 L835.7,304.7 L837.2,303.4 L837.9,302.0 L839.6,300.5 L839.7,299.4 L839.8,297.9 L841.7,295.6 L842.9,298.0 L844.1,297.4 L843.1,296.1 L843.9,294.8 L845.2,295.4 L845.5,293.2 L847.0,291.9 L847.7,290.8 L849.1,290.3 L849.1,289.5 L850.3,289.9 L850.4,289.2 L851.6,288.8 L853.0,288.4 L855.0,289.7 L856.6,291.3 L858.3,291.3 L860.1,291.6 L859.5,290.1 L860.8,287.8 L862.1,287.1 L861.6,286.4 L862.8,284.8 L864.5,283.8 L865.9,284.2 L868.3,283.7 L868.2,282.2 L866.2,281.3 L867.7,280.9 L869.5,281.6 L871.0,282.7 L873.3,283.4 L874.1,283.2 L875.8,284.0 L877.4,283.2 L878.5,283.5 L879.1,282.9 L880.4,284.3 L879.7,285.8 L878.6,286.9 L877.7,287.0 L878.0,288.1 L877.2,289.5 L876.2,290.9 L876.4,291.7 L878.6,293.2 L880.7,294.1 L882.2,295.0 L884.2,296.7 L885.0,296.7 L886.4,297.4 L886.8,298.3 L889.5,299.2 L891.3,298.2 L891.9,296.8 L892.4,295.5 L892.8,294.0 L893.6,291.8 L893.2,290.4 L893.4,289.6 L893.1,288.0 L893.5,286.0 L894.0,285.4 L893.6,284.5 L894.2,283.0 L894.8,281.5 L894.8,280.7 L895.9,279.6 L896.7,281.0 L896.8,282.7 L897.5,283.1 L897.7,284.2 L898.7,285.7 L898.9,287.2 L898.8,288.2 Z"/>
<path d="M950.3,279.1 L951.1,280.1 L949.2,280.1 L948.1,278.3 L949.8,279.0 L950.3,279.1 Z"/>
<path d="M835.3,278.4 L834.1,278.5 L830.5,276.5 L833.1,276.0 L834.5,276.8 L835.5,277.7 L835.3,278.4 Z"/>
<path d="M946.8,277.4 L945.7,277.5 L944.0,277.2 L943.4,276.8 L943.6,275.7 L945.4,276.1 L946.4,276.7 L946.8,277.4 Z"/>
<path d="M949.1,276.7 L948.7,277.2 L946.6,274.8 L946.1,273.1 L947.0,273.1 L948.0,275.3 L949.1,276.7 Z"/>
<path d="M845.7,278.2 L843.3,278.8 L842.9,278.4 L843.2,277.5 L844.4,275.8 L847.1,274.7 L847.5,274.0 L849.8,273.4 L851.8,273.3 L852.7,273.0 L853.7,273.3 L852.7,274.1 L849.8,275.3 L847.5,276.1 L845.7,278.2 Z"/>
<path d="M827.5,272.5 L828.5,273.2 L830.2,273.0 L830.9,274.2 L827.7,274.7 L825.8,275.1 L824.3,275.1 L825.2,273.5 L826.8,273.5 L827.5,272.5 Z"/>
<path d="M841.4,272.5 L841.0,274.0 L836.8,274.8 L833.1,274.5 L833.1,273.5 L835.3,272.9 L837.1,273.7 L838.9,273.5 L841.4,272.5 Z"/>
<path d="M944.1,273.2 L944.2,273.7 L942.0,272.5 L940.5,271.5 L939.5,270.6 L939.9,270.3 L941.2,271.0 L943.4,272.3 L944.1,273.2 Z"/>
<path d="M937.6,270.4 L937.0,270.6 L935.8,269.9 L934.7,268.8 L934.8,268.3 L936.5,269.5 L937.6,270.4 Z"/>
<path d="M801.7,268.8 L807.1,269.1 L807.7,268.0 L812.8,269.3 L813.8,271.1 L818.0,271.6 L821.4,273.3 L818.2,274.3 L815.2,273.2 L812.7,273.3 L809.8,273.1 L807.2,272.6 L804.0,271.5 L801.9,271.2 L800.8,271.6 L795.7,270.4 L795.2,269.2 L792.7,269.0 L794.6,266.4 L798.0,266.5 L800.2,267.6 L801.3,267.8 L801.7,268.8 Z"/>
<path d="M874.2,267.3 L872.8,269.2 L872.5,267.1 L873.0,266.1 L873.6,265.1 L874.2,265.9 L874.2,267.3 Z"/>
<path d="M933.0,268.9 L932.2,269.2 L931.0,268.2 L929.8,266.4 L929.2,264.3 L929.6,264.0 L929.9,264.8 L930.7,265.5 L932.1,267.2 L933.4,268.2 L933.0,268.9 Z"/>
<path d="M922.2,265.2 L920.7,265.4 L920.3,266.2 L918.8,266.9 L917.3,267.5 L915.9,267.5 L913.6,266.7 L912.0,266.0 L912.2,265.1 L914.7,265.5 L916.2,265.3 L916.7,264.0 L917.1,263.9 L917.3,265.4 L918.9,265.2 L919.7,264.2 L921.2,263.2 L920.9,261.6 L922.6,261.5 L923.2,262.0 L923.1,263.5 L922.2,265.2 Z"/>
<path d="M853.5,259.6 L852.4,260.5 L850.5,260.0 L850.0,258.8 L852.8,258.7 L853.5,259.6 Z"/>
<path d="M862.4,258.6 L863.4,260.7 L861.1,259.6 L858.8,259.3 L857.2,259.5 L855.3,259.4 L855.9,257.9 L859.4,257.8 L862.4,258.6 Z"/>
<path d="M925.4,262.5 L924.5,263.2 L924.0,261.6 L923.3,260.5 L922.1,259.6 L920.5,258.4 L918.5,257.6 L919.3,256.9 L920.8,257.7 L921.7,258.3 L922.9,259.0 L924.0,260.2 L925.1,261.1 L925.4,262.5 Z"/>
<path d="M872.6,253.2 L873.4,257.7 L876.3,259.4 L878.6,256.4 L881.8,254.7 L884.2,254.7 L886.6,255.7 L888.7,256.7 L891.7,257.2 L896.5,259.1 L901.6,260.7 L903.5,262.1 L905.1,263.5 L905.5,265.2 L910.1,266.9 L910.8,268.4 L908.2,268.7 L908.9,270.5 L911.3,272.3 L913.1,275.3 L914.7,275.2 L914.6,276.4 L916.8,276.9 L915.9,277.4 L918.9,278.6 L918.6,279.4 L916.7,279.6 L916.1,278.9 L913.7,278.6 L910.9,278.1 L908.7,276.4 L907.1,274.8 L905.7,272.4 L902.1,271.2 L899.7,272.0 L898.0,272.9 L898.4,275.0 L896.2,275.9 L894.6,275.4 L891.8,275.3 L889.3,273.0 L886.5,272.5 L885.8,273.3 L882.3,273.4 L883.4,271.1 L885.2,270.3 L884.5,267.3 L883.1,265.0 L877.7,262.6 L875.5,262.4 L871.3,259.8 L870.5,261.2 L869.4,261.4 L868.8,260.4 L868.8,259.2 L866.6,257.8 L869.6,256.8 L871.6,256.9 L871.4,256.2 L867.3,256.1 L866.2,254.5 L863.7,254.0 L862.6,252.6 L866.3,251.9 L867.7,251.0 L872.2,252.2 L872.6,253.2 Z"/>
<path d="M847.9,246.1 L845.7,248.8 L843.6,249.3 L840.9,248.8 L836.3,248.9 L833.8,249.3 L833.4,251.4 L835.9,253.9 L837.4,252.7 L842.6,251.7 L842.4,253.0 L841.2,252.6 L840.0,254.2 L837.5,255.3 L840.1,258.9 L839.6,259.8 L842.1,263.0 L842.1,264.8 L840.6,265.6 L839.5,264.7 L840.9,262.4 L838.2,263.5 L837.5,262.7 L837.8,261.6 L835.8,260.0 L836.0,257.3 L834.2,258.1 L834.4,261.4 L834.5,265.4 L832.8,265.8 L831.6,264.9 L832.4,262.4 L831.9,259.7 L830.8,259.7 L829.9,257.8 L831.1,256.0 L831.5,253.8 L832.8,249.6 L833.4,248.4 L835.8,246.4 L838.0,247.2 L841.5,247.6 L844.7,247.5 L847.4,245.4 L847.9,246.1 Z"/>
<path d="M857.5,246.9 L857.3,249.3 L855.9,249.0 L855.5,250.7 L856.6,252.2 L855.8,252.5 L854.7,250.7 L853.9,247.2 L854.4,245.0 L855.4,244.0 L855.6,245.5 L857.2,245.7 L857.5,246.9 Z"/>
<path d="M793.9,266.3 L790.9,266.3 L788.5,264.0 L785.0,261.7 L783.8,260.0 L781.7,257.8 L780.3,255.7 L778.2,251.8 L775.7,249.5 L774.9,247.1 L773.9,244.9 L771.4,243.2 L769.9,240.8 L767.8,239.3 L764.9,236.2 L764.7,234.8 L766.5,234.9 L770.8,235.4 L773.2,238.1 L775.4,240.0 L776.9,241.2 L779.6,244.2 L782.4,244.2 L784.7,246.1 L786.3,248.4 L788.4,249.7 L787.3,252.0 L788.9,252.9 L789.9,253.0 L790.4,254.9 L791.4,256.5 L793.4,256.7 L794.7,258.5 L794.0,262.0 L793.9,266.3 Z"/>
<path d="M827.4,244.9 L830.5,247.5 L827.3,247.8 L826.3,249.7 L826.4,252.2 L823.8,254.1 L823.7,256.9 L822.6,261.1 L822.2,260.2 L819.1,261.4 L818.0,259.7 L816.0,259.6 L814.6,258.7 L811.3,259.7 L810.3,258.3 L808.5,258.5 L806.2,258.2 L805.7,254.4 L804.4,253.7 L803.0,251.3 L802.6,248.8 L803.0,246.3 L804.6,244.4 L806.7,245.4 L808.8,244.9 L809.4,242.5 L810.5,242.0 L813.9,241.4 L815.9,239.2 L817.2,237.4 L818.3,236.4 L820.7,234.9 L822.8,232.9 L824.2,230.8 L825.4,230.8 L826.8,232.2 L826.9,233.4 L828.7,234.1 L831.1,235.0 L830.9,236.1 L829.0,236.2 L829.5,237.6 L827.4,238.5 L825.9,241.0 L827.9,243.6 L827.4,244.9 Z"/>
<path d="M851.0,226.6 L851.3,228.5 L851.5,230.0 L850.5,232.6 L849.5,229.7 L848.2,231.1 L849.1,233.2 L848.3,234.5 L845.1,232.9 L844.3,230.9 L845.1,229.6 L843.4,228.2 L842.5,229.4 L841.2,229.3 L839.1,230.8 L838.7,230.0 L839.8,227.7 L841.5,226.9 L843.0,225.9 L844.0,227.1 L846.1,226.3 L846.6,225.1 L848.5,225.0 L848.4,222.9 L850.6,224.2 L850.8,225.6 L851.0,226.6 Z"/>
<path d="M725.6,232.8 L723.2,233.4 L721.9,231.2 L721.4,227.2 L722.6,222.7 L724.6,224.3 L725.8,226.2 L727.2,229.1 L726.8,232.0 L725.6,232.8 Z"/>
<path d="M330.7,221.9 L328.4,222.2 L327.9,222.0 L328.7,221.2 L328.7,220.1 L330.3,219.7 L330.8,219.8 L330.7,221.9 Z"/>
<path d="M844.4,221.4 L843.4,222.4 L842.5,224.1 L841.7,224.9 L839.9,223.0 L840.5,222.3 L841.2,221.5 L841.5,219.8 L843.0,219.6 L842.6,221.5 L844.7,218.8 L844.4,221.4 Z"/>
<path d="M829.2,224.1 L825.5,226.8 L826.8,224.8 L828.8,223.1 L830.5,221.2 L832.0,218.4 L832.5,220.7 L830.6,222.2 L829.2,224.1 Z"/>
<path d="M838.6,217.0 L840.2,217.8 L842.0,217.8 L841.9,219.0 L840.7,220.2 L838.9,221.0 L838.8,219.7 L839.0,218.3 L838.6,217.0 Z"/>
<path d="M848.6,216.2 L849.4,219.3 L847.3,218.6 L847.3,219.5 L848.0,221.2 L846.7,221.9 L846.6,219.9 L845.7,219.7 L845.3,218.1 L846.9,218.3 L846.9,217.2 L845.2,215.1 L847.8,215.2 L848.6,216.2 Z"/>
<path d="M837.6,213.7 L836.8,216.1 L835.6,214.7 L834.2,212.6 L836.6,212.7 L837.6,213.7 Z"/>
<path d="M837.0,198.6 L838.7,199.4 L839.6,198.7 L839.8,199.4 L839.4,200.5 L840.3,202.5 L839.6,204.8 L837.9,205.7 L837.5,208.0 L838.1,210.2 L839.6,210.5 L840.8,210.2 L844.3,211.7 L844.0,213.2 L844.9,213.9 L844.7,215.2 L842.5,213.8 L841.5,212.4 L840.8,213.4 L839.0,211.7 L836.5,212.1 L835.1,211.5 L835.2,210.4 L836.1,209.6 L835.3,209.0 L834.9,210.0 L833.5,208.4 L833.1,207.2 L833.0,204.5 L834.1,205.5 L834.4,201.1 L835.3,198.6 L837.0,198.6 Z"/>
<path d="M317.8,199.4 L317.1,200.1 L315.0,200.0 L313.4,200.1 L313.2,199.0 L313.6,198.6 L315.9,198.6 L317.3,198.8 L317.8,199.4 Z"/>
<path d="M286.4,200.4 L285.5,200.8 L284.0,200.4 L282.4,199.4 L282.7,198.7 L283.9,198.5 L284.5,198.6 L286.4,198.9 L287.9,199.6 L288.3,200.3 L286.4,200.4 Z"/>
<path d="M298.4,194.8 L300.8,195.2 L301.1,194.8 L303.3,194.8 L305.0,195.5 L305.7,195.4 L306.2,196.4 L307.7,196.4 L307.6,197.2 L308.9,197.3 L310.2,198.3 L309.2,199.4 L307.9,198.8 L306.6,198.9 L305.7,198.8 L305.2,199.3 L304.1,199.5 L303.7,198.8 L302.8,199.2 L301.7,201.1 L301.0,200.7 L300.8,199.9 L299.0,199.4 L297.7,199.6 L296.0,199.4 L294.7,199.9 L293.2,199.0 L293.4,198.2 L296.0,198.5 L298.1,198.8 L299.1,198.1 L297.8,196.9 L297.8,195.9 L296.1,195.4 L296.7,194.7 L298.4,194.8 Z"/>
<path d="M806.5,198.1 L804.1,199.5 L801.8,198.6 L801.7,196.2 L803.1,194.9 L806.1,194.2 L807.7,194.2 L808.4,195.3 L807.1,196.5 L806.5,198.1 Z"/>
<path d="M67.9,197.0 L67.5,197.5 L66.8,197.1 L66.9,196.3 L66.5,195.3 L66.6,195.0 L67.1,194.5 L66.9,194.0 L67.1,193.7 L67.3,193.8 L68.3,194.2 L68.8,194.5 L69.3,194.8 L70.0,195.8 L69.9,196.0 L68.8,196.6 L67.9,197.0 Z"/>
<path d="M66.5,192.7 L65.5,192.9 L65.0,192.3 L64.7,192.0 L64.7,191.9 L65.0,191.6 L66.0,191.9 L66.7,192.3 L66.5,192.7 Z"/>
<path d="M62.1,190.8 L61.9,190.9 L61.7,190.9 L60.8,190.8 L60.4,190.2 L60.3,190.1 L61.0,189.7 L61.3,189.9 L62.1,190.8 Z"/>
<path d="M57.4,188.9 L57.0,189.2 L56.1,188.7 L56.3,188.5 L56.7,188.2 L57.3,188.3 L57.4,188.9 Z"/>
<path d="M278.7,186.8 L279.8,187.8 L282.4,187.5 L283.4,188.1 L285.7,189.8 L287.4,191.1 L288.4,191.1 L290.0,191.6 L289.8,192.4 L291.9,192.5 L294.0,193.7 L293.6,194.3 L291.8,194.7 L289.9,194.8 L288.0,194.6 L284.0,194.8 L285.9,193.3 L284.7,192.6 L283.0,192.4 L282.0,191.6 L281.3,190.0 L279.8,190.1 L277.2,189.4 L276.3,188.8 L272.7,188.4 L271.8,187.8 L272.8,187.1 L270.1,187.0 L268.1,188.4 L266.9,188.5 L266.5,189.1 L265.1,189.4 L264.0,189.2 L265.4,188.3 L266.0,187.3 L267.3,186.7 L268.7,186.2 L270.8,185.9 L271.5,185.6 L273.9,185.8 L276.1,185.8 L278.7,186.8 Z"/>
<path d="M284.6,184.0 L283.9,184.1 L283.2,182.5 L282.2,181.7 L282.8,180.0 L283.6,180.1 L284.6,182.4 L284.6,184.0 Z"/>
<path d="M836.6,186.7 L835.4,189.0 L833.9,186.6 L833.6,184.6 L835.3,181.8 L837.5,179.7 L838.8,180.6 L838.3,182.2 L836.6,186.7 Z"/>
<path d="M283.8,176.2 L280.8,176.6 L280.6,175.6 L281.9,175.4 L283.8,175.4 L283.8,176.2 Z"/>
<path d="M286.1,176.1 L285.6,178.1 L285.1,177.8 L285.2,176.3 L283.9,175.2 L283.9,174.9 L286.1,176.1 Z"/>
<path d="M874.0,155.1 L874.3,156.1 L872.8,157.8 L871.6,156.9 L870.2,157.5 L869.5,159.2 L867.7,158.4 L867.7,157.0 L869.2,155.4 L870.8,155.7 L872.0,154.5 L874.0,155.1 Z"/>
<path d="M596.0,150.9 L594.2,152.1 L594.4,152.6 L594.5,152.8 L591.6,154.0 L590.2,153.6 L589.6,152.5 L590.9,152.4 L591.1,152.4 L591.5,151.7 L593.5,151.7 L596.0,150.9 Z"/>
<path d="M565.8,150.8 L567.4,151.8 L569.5,151.6 L571.6,151.8 L571.5,152.3 L573.0,151.9 L572.7,152.8 L568.7,153.0 L568.7,152.5 L565.3,152.0 L565.8,150.8 Z"/>
<path d="M543.1,143.8 L542.1,146.0 L542.5,146.9 L541.9,148.3 L539.8,147.2 L538.4,146.9 L534.5,145.5 L534.9,144.1 L538.2,144.3 L541.0,144.0 L543.1,143.8 Z"/>
<path d="M525.6,135.5 L527.2,137.5 L526.9,141.2 L525.6,141.0 L524.5,141.9 L523.4,141.2 L523.3,137.8 L522.7,136.2 L524.2,136.4 L525.6,135.5 Z"/>
<path d="M891.6,146.8 L890.6,149.0 L891.0,150.4 L889.6,152.4 L886.0,153.7 L881.2,153.9 L877.2,157.0 L875.3,156.0 L875.2,153.9 L870.4,154.5 L867.1,155.8 L863.8,155.9 L866.7,157.9 L864.8,162.6 L863.0,163.8 L861.7,162.7 L862.4,160.2 L860.6,159.4 L859.5,157.5 L862.1,156.7 L863.5,154.9 L866.3,153.5 L868.4,151.6 L873.9,150.7 L876.9,151.3 L879.8,146.4 L881.6,147.7 L885.7,144.9 L887.3,143.8 L889.0,140.4 L888.6,137.3 L889.7,135.6 L892.7,135.1 L894.2,138.9 L894.1,141.2 L891.6,144.0 L891.6,146.8 Z"/>
<path d="M526.6,132.9 L525.6,135.1 L524.4,134.5 L523.7,132.6 L524.3,131.6 L526.1,130.5 L526.6,132.9 Z"/>
<path d="M899.7,127.3 L901.7,127.9 L903.7,126.7 L904.3,129.8 L900.2,130.6 L897.7,133.3 L893.4,131.4 L891.8,134.5 L888.8,134.5 L888.4,131.8 L889.8,129.6 L892.7,129.5 L893.5,125.6 L894.4,123.5 L897.6,126.4 L899.7,127.3 Z"/>
<path d="M323.2,120.7 L325.2,121.1 L327.7,121.0 L326.4,122.1 L325.4,122.3 L321.8,121.1 L321.1,120.2 L322.2,119.3 L323.2,120.7 Z"/>
<path d="M328.3,113.6 L327.0,113.6 L323.4,112.8 L320.8,111.5 L321.7,111.2 L325.4,111.9 L328.2,113.1 L328.3,113.6 Z"/>
<path d="M156.9,115.3 L155.5,115.6 L151.0,114.4 L150.1,113.4 L147.6,112.4 L147.1,111.6 L144.3,111.1 L143.2,109.6 L143.5,109.0 L146.4,109.6 L148.1,110.0 L150.7,110.3 L151.6,111.3 L153.0,112.6 L155.8,113.7 L156.9,115.3 Z"/>
<path d="M344.1,109.2 L342.2,111.6 L344.0,110.7 L345.9,111.3 L344.9,112.3 L347.4,113.0 L348.7,112.3 L351.5,113.2 L350.6,115.2 L352.5,114.8 L352.9,116.2 L353.8,118.0 L352.6,120.4 L351.3,120.5 L349.5,120.0 L350.1,117.7 L349.3,117.4 L346.1,119.8 L344.5,119.7 L346.4,118.4 L343.7,117.7 L340.8,117.9 L335.4,117.8 L334.9,116.9 L336.7,116.0 L335.5,115.2 L337.8,113.5 L340.7,109.1 L342.4,107.5 L344.8,106.6 L346.1,106.7 L345.6,107.5 L344.1,109.2 Z"/>
<path d="M131.4,99.9 L134.0,99.7 L133.2,102.8 L135.6,105.1 L134.5,105.0 L132.8,103.8 L131.8,102.5 L130.4,101.6 L129.9,100.4 L130.1,99.5 L131.4,99.9 Z"/>
<path d="M899.0,109.0 L901.8,114.0 L897.7,113.0 L896.0,117.1 L898.7,119.9 L898.6,121.8 L896.5,120.2 L894.7,122.3 L894.2,120.0 L894.5,117.3 L894.2,114.3 L894.8,112.2 L894.9,108.5 L893.3,105.7 L893.6,101.9 L896.1,100.7 L895.0,99.4 L896.3,99.0 L897.0,100.8 L897.9,103.5 L897.9,106.2 L899.0,109.0 Z"/>
<path d="M481.1,104.8 L476.2,106.5 L472.3,106.1 L474.5,103.2 L473.1,100.3 L476.9,98.2 L479.0,96.9 L481.3,96.7 L484.3,98.5 L482.8,100.4 L483.2,102.4 L481.1,104.8 Z"/>
<path d="M535.2,95.5 L533.6,97.8 L530.7,96.2 L530.3,95.1 L534.4,94.1 L535.2,95.5 Z"/>
<path d="M75.0,91.3 L72.2,92.4 L70.8,91.7 L70.4,90.4 L72.9,89.4 L74.4,89.0 L76.2,89.2 L77.4,90.0 L75.0,91.3 Z"/>
<path d="M491.7,87.1 L488.7,90.1 L491.5,89.8 L494.6,89.8 L493.8,92.0 L491.3,94.5 L494.2,94.7 L496.9,98.3 L498.8,98.7 L500.5,101.9 L501.3,103.0 L504.7,103.5 L504.3,105.3 L502.9,106.1 L504.0,107.5 L501.5,109.0 L497.8,109.0 L493.1,109.7 L491.8,109.2 L490.0,110.5 L487.4,110.2 L485.4,111.2 L484.0,110.7 L488.0,107.7 L490.5,107.2 L486.2,106.7 L485.4,105.6 L488.3,104.7 L486.8,103.2 L487.3,101.4 L491.4,101.7 L491.8,100.0 L489.9,98.3 L486.5,97.8 L485.9,97.1 L486.9,95.8 L486.0,95.0 L484.5,96.4 L484.3,93.7 L482.9,92.3 L483.9,89.4 L486.1,87.1 L488.3,87.4 L491.7,87.1 Z"/>
<path d="M40.1,83.6 L38.4,84.0 L36.5,83.5 L34.9,82.7 L37.6,82.3 L39.8,82.5 L40.1,83.6 Z"/>
<path d="M279.8,77.3 L278.7,78.8 L277.5,78.6 L276.8,77.7 L276.9,77.5 L278.0,76.7 L279.1,76.8 L279.8,77.3 Z"/>
<path d="M272.5,75.8 L269.3,77.3 L267.3,77.3 L266.7,76.5 L268.8,75.2 L272.6,75.3 L272.5,75.8 Z"/>
<path d="M23.0,72.8 L24.7,73.4 L26.4,73.1 L28.7,73.8 L31.4,74.2 L31.2,74.5 L29.1,75.1 L27.0,74.5 L25.9,74.0 L23.5,74.1 L22.8,73.9 L23.0,72.8 Z"/>
<path d="M263.4,67.6 L264.0,68.8 L265.4,68.4 L267.0,69.1 L270.0,70.1 L273.2,71.0 L273.5,72.3 L275.5,72.1 L277.5,73.0 L275.0,73.9 L270.7,73.2 L269.1,71.9 L266.4,73.4 L262.4,74.9 L261.5,73.2 L257.7,73.5 L260.1,72.1 L260.5,69.9 L261.4,67.4 L263.4,67.6 Z"/>
<path d="M459.7,65.4 L459.1,67.2 L462.2,69.1 L458.6,71.2 L450.6,73.1 L448.2,73.6 L444.5,73.2 L436.8,72.3 L439.5,71.1 L433.5,69.7 L438.4,69.2 L438.3,68.4 L432.4,67.7 L434.3,65.9 L438.5,65.5 L442.8,67.4 L447.1,65.9 L450.6,66.7 L455.1,65.2 L459.7,65.4 Z"/>
<path d="M289.3,63.5 L286.1,63.6 L285.5,62.3 L286.6,60.7 L289.2,60.3 L291.4,61.1 L291.4,62.3 L291.1,62.7 L289.3,63.5 Z"/>
<path d="M0.0,58.4 L6.8,60.6 L14.1,63.3 L13.9,65.0 L15.7,65.7 L15.1,63.7 L22.6,64.1 L28.1,66.7 L25.3,67.9 L20.8,68.2 L20.7,70.9 L19.6,71.5 L17.0,71.4 L14.9,70.5 L11.2,69.7 L10.5,68.5 L7.7,68.0 L4.6,68.4 L3.1,67.4 L3.7,66.4 L0.3,67.0 L1.6,68.3 L0.0,69.5 ZM1000.0,69.5 L996.4,70.7 L992.8,70.5 L995.3,72.0 L997.0,74.3 L998.2,75.0 L998.6,76.2 L997.9,76.9 L992.7,76.3 L984.9,78.4 L982.4,78.7 L978.2,80.7 L974.2,82.4 L973.1,83.7 L969.2,81.7 L961.9,83.9 L960.7,82.9 L958.0,84.1 L954.3,83.7 L953.4,85.5 L950.0,88.2 L950.1,89.3 L953.3,90.0 L952.9,94.0 L950.4,94.1 L949.2,96.4 L950.3,97.6 L945.5,99.0 L944.5,102.2 L940.4,102.9 L939.5,105.7 L935.5,108.3 L934.5,106.4 L933.3,102.3 L931.8,96.2 L933.1,92.3 L935.4,90.7 L935.6,89.4 L939.9,88.7 L944.9,85.2 L949.6,82.4 L954.6,80.2 L956.9,76.2 L953.5,76.5 L951.8,78.8 L944.8,81.8 L942.5,78.4 L935.3,79.4 L928.4,84.0 L930.7,85.7 L924.5,86.4 L920.2,86.7 L920.4,84.7 L916.1,84.3 L912.6,85.7 L904.1,85.2 L895.0,86.0 L886.0,91.4 L875.3,98.0 L879.7,98.3 L881.1,100.1 L883.8,100.7 L885.6,99.3 L888.6,99.5 L892.6,102.5 L892.7,104.9 L890.5,107.7 L890.3,111.0 L889.1,115.4 L884.9,119.4 L883.9,121.4 L880.2,124.6 L876.4,127.8 L874.6,129.5 L870.9,131.1 L869.2,131.1 L867.4,129.8 L863.7,131.8 L863.3,132.7 L862.2,132.6 L861.0,133.5 L860.2,134.4 L860.3,136.4 L858.9,137.0 L858.4,137.5 L857.3,138.4 L855.5,138.8 L854.3,139.6 L854.2,140.8 L853.8,141.1 L855.0,141.5 L856.5,142.7 L858.9,146.0 L859.6,147.8 L859.6,151.0 L858.6,152.5 L856.1,153.1 L853.8,154.2 L851.3,154.5 L851.0,153.0 L851.6,150.9 L850.3,148.0 L852.4,147.5 L850.5,145.1 L849.1,144.6 L848.8,145.1 L848.0,145.4 L847.9,144.8 L847.2,144.6 L846.4,144.1 L847.2,142.9 L847.8,142.6 L847.6,142.1 L848.3,140.6 L848.1,140.1 L846.5,139.8 L845.2,139.1 L841.3,139.9 L839.3,141.2 L836.3,142.0 L837.7,140.7 L837.2,139.6 L839.4,137.7 L837.9,136.3 L835.5,137.2 L832.3,139.2 L830.6,141.0 L827.9,141.1 L826.5,142.4 L827.9,144.3 L830.2,144.7 L830.3,146.0 L832.5,146.8 L835.6,144.8 L838.1,145.9 L839.9,146.0 L840.3,147.4 L836.4,148.2 L835.1,149.7 L832.4,151.1 L831.0,153.0 L834.0,154.6 L835.1,157.3 L836.7,159.8 L838.6,162.0 L838.6,164.0 L836.8,164.8 L837.5,166.3 L839.1,167.1 L838.7,169.4 L838.0,171.6 L836.5,171.8 L834.4,174.9 L832.2,178.5 L829.6,181.8 L825.8,184.4 L821.9,186.7 L818.8,187.0 L817.1,188.3 L816.1,187.4 L814.6,188.7 L810.7,190.1 L807.7,190.6 L806.8,193.5 L805.2,193.7 L804.5,191.6 L805.2,190.6 L801.4,189.7 L800.1,190.1 L796.4,192.5 L794.1,195.1 L793.5,197.1 L795.6,200.0 L798.2,203.6 L800.7,205.3 L802.4,207.6 L803.7,212.7 L803.3,217.6 L801.0,219.4 L797.8,221.2 L795.6,223.5 L792.1,226.1 L791.1,224.3 L791.9,222.4 L789.8,220.9 L787.5,220.5 L786.4,219.0 L785.0,216.1 L782.5,214.9 L780.1,214.9 L780.5,212.7 L778.0,212.8 L777.8,215.8 L776.3,219.9 L775.4,222.3 L775.6,224.3 L777.4,224.4 L778.6,227.0 L779.1,229.4 L780.6,231.0 L782.3,231.3 L783.7,232.7 L784.4,233.0 L786.0,234.7 L787.2,236.5 L787.3,238.4 L787.0,239.7 L787.3,240.6 L787.5,242.2 L788.5,243.0 L789.6,245.5 L789.5,246.4 L787.6,246.6 L784.9,244.5 L781.6,242.3 L781.3,240.9 L779.7,239.1 L779.3,236.8 L778.3,235.2 L778.6,233.2 L778.0,232.0 L776.9,231.0 L776.4,229.6 L775.0,228.0 L773.6,226.7 L773.2,228.3 L772.6,226.8 L772.9,225.1 L773.8,222.4 L773.5,220.3 L774.3,218.2 L773.4,216.6 L773.6,213.5 L772.5,212.1 L771.6,208.8 L771.1,205.3 L769.9,203.0 L768.1,204.4 L764.9,206.3 L763.4,206.1 L761.6,205.5 L762.6,202.0 L762.0,199.4 L759.8,196.2 L760.2,195.2 L758.5,194.8 L756.6,192.6 L755.8,191.1 L755.6,189.7 L755.1,188.4 L753.9,186.8 L751.4,186.7 L751.6,187.8 L750.8,189.3 L749.6,188.8 L749.2,189.3 L748.4,189.0 L747.3,188.7 L746.9,189.7 L745.0,189.7 L741.6,190.3 L741.8,192.4 L740.3,194.0 L736.3,195.9 L733.2,199.2 L731.1,200.9 L728.3,202.7 L728.3,204.0 L726.9,204.7 L724.4,205.7 L723.1,205.8 L722.3,208.0 L722.9,211.6 L723.0,213.9 L721.8,216.5 L721.8,221.2 L720.4,221.4 L719.1,223.5 L720.0,224.4 L717.4,225.2 L716.5,227.1 L715.4,227.9 L712.8,225.3 L711.5,221.4 L710.4,218.6 L709.4,217.3 L708.0,214.6 L707.3,211.1 L706.8,209.4 L704.3,205.6 L703.1,200.2 L702.3,196.6 L702.3,193.3 L701.7,190.7 L697.7,192.3 L695.7,192.0 L692.1,188.6 L693.5,187.6 L692.6,186.5 L689.4,184.2 L687.3,183.5 L686.5,181.5 L684.4,179.4 L679.2,179.9 L674.7,179.9 L670.8,180.3 L665.6,179.5 L662.6,178.9 L659.4,178.5 L658.3,175.1 L656.9,174.6 L654.8,175.1 L652.0,176.4 L648.6,175.5 L645.8,173.4 L643.1,172.6 L641.3,170.0 L639.2,166.3 L637.7,166.7 L635.9,165.8 L634.9,166.9 L633.3,166.7 L633.8,168.0 L633.6,168.6 L634.5,170.7 L635.6,173.1 L636.9,173.7 L637.4,174.7 L639.3,175.9 L639.5,177.0 L639.2,177.9 L639.6,178.9 L640.4,179.6 L640.7,180.6 L641.1,181.2 L641.0,179.2 L641.7,177.8 L642.5,177.5 L643.3,178.3 L643.4,180.0 L642.7,181.6 L643.3,182.7 L643.8,182.5 L643.9,183.3 L646.0,182.8 L648.3,182.9 L650.0,183.0 L651.9,181.1 L654.0,179.3 L655.8,177.6 L656.6,176.7 L656.9,176.9 L656.6,178.1 L656.3,178.6 L656.7,180.8 L657.9,182.7 L659.5,183.7 L661.5,184.0 L663.1,184.5 L664.4,186.1 L665.1,187.1 L666.1,187.4 L666.1,188.0 L665.1,189.7 L664.7,190.5 L663.5,191.4 L662.5,193.3 L661.2,193.1 L660.6,193.8 L660.2,195.2 L660.5,197.0 L660.3,197.4 L659.0,197.4 L657.2,198.4 L657.0,199.8 L656.3,200.3 L654.6,200.3 L653.5,201.0 L653.5,202.1 L652.2,202.9 L650.7,202.7 L648.8,203.6 L647.5,203.7 L645.5,204.5 L645.0,205.7 L644.9,206.7 L642.1,207.8 L637.7,209.1 L635.2,211.1 L634.0,211.3 L633.2,211.1 L631.5,212.2 L629.8,212.8 L627.4,212.9 L626.7,213.1 L626.1,213.8 L625.4,214.0 L625.0,214.7 L623.6,214.7 L622.7,215.0 L620.8,214.9 L620.1,213.3 L620.1,211.8 L619.7,210.9 L619.1,208.9 L618.3,207.7 L618.9,207.6 L618.6,206.3 L619.0,205.8 L618.8,204.6 L618.5,203.4 L617.6,202.6 L617.4,201.5 L616.0,200.5 L614.5,198.1 L613.7,195.9 L611.8,194.0 L610.6,193.5 L608.7,190.9 L608.4,188.9 L608.5,187.3 L606.9,184.2 L605.6,183.1 L604.1,182.5 L603.2,180.9 L603.4,180.3 L602.6,178.9 L601.8,178.3 L600.7,176.2 L599.0,174.0 L597.6,172.0 L596.2,172.1 L596.6,170.5 L596.8,169.6 L597.1,168.5 L597.0,168.1 L596.2,169.2 L595.6,171.3 L594.9,172.7 L594.2,173.2 L593.3,172.3 L592.0,171.1 L590.1,167.1 L589.8,167.3 L590.9,170.3 L592.6,173.1 L594.7,177.4 L595.8,178.9 L596.7,180.5 L599.1,183.5 L598.6,184.0 L598.7,185.8 L601.9,188.3 L602.4,188.9 L603.3,191.6 L602.7,192.1 L603.1,195.0 L604.1,198.3 L605.2,199.0 L606.7,200.0 L608.3,203.2 L609.1,205.8 L610.6,207.1 L614.4,209.7 L615.9,211.3 L617.4,212.9 L618.3,213.9 L619.7,214.7 L620.3,215.6 L620.2,216.7 L618.7,217.4 L619.8,218.2 L620.8,218.7 L621.3,219.8 L622.5,221.0 L623.9,221.0 L626.5,220.3 L629.6,220.0 L632.0,219.1 L633.4,218.9 L634.4,218.4 L636.0,218.3 L636.9,218.2 L638.1,217.8 L639.6,217.6 L640.9,216.6 L642.0,216.6 L642.0,217.4 L641.8,219.0 L641.8,220.4 L641.2,221.4 L640.4,224.5 L639.1,227.5 L637.4,231.1 L635.0,235.2 L632.6,238.3 L629.3,242.1 L626.6,244.3 L622.4,247.1 L619.8,249.2 L616.8,252.6 L616.1,254.0 L615.5,254.7 L613.6,255.8 L612.9,256.9 L611.8,257.1 L611.4,259.1 L610.6,260.2 L610.0,262.1 L608.9,263.0 L607.6,266.4 L607.8,268.0 L609.6,269.0 L609.6,269.7 L608.9,271.4 L609.0,272.2 L608.9,273.6 L609.8,275.3 L611.0,278.1 L612.0,278.7 L612.4,279.9 L612.3,282.7 L612.7,285.1 L612.8,289.4 L613.3,290.8 L612.4,292.8 L611.4,294.7 L609.6,296.4 L607.0,297.5 L603.9,298.9 L600.8,301.8 L599.7,302.3 L597.8,304.3 L596.6,305.0 L596.4,306.9 L597.7,309.0 L598.3,310.7 L598.3,311.5 L598.8,311.4 L598.7,314.1 L598.3,315.4 L598.9,315.9 L598.5,317.0 L597.3,318.0 L595.0,318.9 L591.7,320.4 L590.5,321.5 L590.7,322.6 L591.4,322.8 L591.2,324.3 L590.5,326.3 L590.2,328.6 L589.5,329.9 L587.6,331.3 L587.0,331.7 L585.8,333.1 L585.1,334.5 L583.5,336.5 L580.3,339.4 L578.4,341.0 L576.3,342.3 L573.4,343.4 L572.0,343.5 L571.6,344.3 L569.9,343.9 L568.5,344.4 L565.5,343.9 L563.9,344.2 L562.7,344.1 L559.8,345.2 L557.5,345.6 L555.8,346.7 L554.5,346.7 L553.3,345.7 L552.4,345.7 L551.2,344.4 L551.0,344.8 L550.7,344.1 L550.7,342.4 L549.8,340.6 L550.7,340.1 L550.6,338.0 L548.8,335.4 L547.4,333.0 L547.4,333.0 L545.4,329.4 L543.3,327.3 L542.3,325.3 L541.6,322.5 L541.0,320.5 L540.0,316.3 L540.0,312.9 L539.6,311.4 L538.5,310.3 L537.1,308.0 L535.6,304.6 L535.0,302.9 L532.8,300.2 L532.6,298.1 L532.3,296.3 L532.7,293.9 L533.7,291.3 L533.8,290.1 L534.7,287.6 L535.4,286.5 L537.0,284.7 L537.9,283.4 L538.2,281.4 L538.0,279.8 L537.2,278.8 L536.4,277.1 L535.8,275.5 L535.9,274.9 L536.8,273.8 L535.9,271.1 L535.4,269.2 L534.0,267.5 L534.2,266.9 L533.8,266.1 L533.1,264.0 L530.8,261.1 L528.0,258.2 L526.1,256.0 L524.4,253.1 L524.5,252.2 L525.1,251.3 L525.8,249.3 L526.4,247.2 L525.8,246.8 L526.8,243.7 L527.2,241.5 L526.1,239.6 L524.9,239.2 L524.3,237.9 L523.6,237.5 L523.6,236.7 L520.7,237.7 L519.7,237.6 L518.6,238.2 L516.4,238.2 L514.9,236.4 L514.0,234.4 L512.0,232.6 L509.9,232.6 L507.5,232.6 L505.2,232.9 L502.9,233.5 L498.6,235.2 L497.0,236.1 L494.5,236.9 L492.1,236.1 L490.8,236.2 L488.9,235.6 L487.1,235.6 L483.8,236.1 L481.9,236.9 L479.1,237.9 L478.6,237.9 L477.8,237.9 L475.0,236.6 L472.5,234.5 L470.1,232.9 L468.2,231.1 L467.5,230.9 L465.5,229.8 L464.0,228.3 L463.5,227.3 L463.2,225.3 L462.0,223.6 L460.9,222.5 L460.2,222.2 L459.5,221.6 L459.2,220.4 L458.8,219.8 L458.0,219.3 L456.5,218.2 L455.3,218.0 L454.7,217.2 L454.7,216.8 L453.9,216.2 L453.7,215.6 L453.2,213.5 L453.6,212.2 L452.4,210.1 L451.0,209.1 L452.3,208.6 L453.6,206.6 L454.3,205.2 L454.0,203.7 L454.8,202.3 L455.1,199.7 L454.8,197.0 L454.5,195.6 L454.8,194.2 L454.1,192.9 L452.6,191.7 L452.7,190.5 L452.9,189.2 L453.9,188.5 L454.8,187.0 L454.6,186.1 L455.6,184.1 L457.2,182.3 L458.1,181.9 L458.8,180.3 L458.9,178.8 L459.9,177.1 L461.7,176.1 L463.5,173.2 L464.9,172.1 L467.5,171.8 L469.7,169.9 L471.1,169.2 L473.4,166.9 L472.7,163.4 L473.8,161.0 L474.2,159.5 L476.0,157.7 L478.7,156.4 L480.8,155.2 L482.7,152.4 L483.5,150.7 L485.6,150.7 L487.2,151.9 L489.9,151.7 L492.8,152.3 L494.0,152.3 L496.6,150.8 L499.6,150.3 L501.4,149.2 L504.1,148.3 L508.8,147.8 L513.4,147.6 L514.8,148.0 L517.4,146.9 L520.4,146.9 L521.5,147.5 L523.4,147.4 L526.4,146.2 L528.4,146.6 L528.3,148.0 L530.6,147.0 L530.8,147.5 L529.4,148.9 L529.4,150.1 L530.4,150.8 L530.0,153.2 L528.2,154.6 L528.7,156.2 L530.2,156.2 L530.9,157.5 L531.9,158.0 L535.2,158.9 L536.3,158.7 L538.7,159.1 L542.3,160.4 L543.6,162.8 L546.1,163.4 L550.1,164.5 L553.0,165.9 L554.4,165.2 L555.7,163.9 L555.1,161.8 L555.9,160.4 L557.9,159.1 L559.8,158.8 L563.6,159.3 L564.5,160.6 L565.6,160.6 L566.5,161.1 L569.2,161.4 L569.9,162.3 L573.6,162.3 L576.3,163.0 L579.0,163.8 L580.3,164.3 L582.5,163.4 L583.6,162.6 L586.0,162.3 L588.0,162.7 L588.8,164.1 L589.4,163.2 L591.6,163.8 L593.8,164.0 L595.2,163.3 L596.0,162.4 L595.8,162.2 L596.5,160.9 L597.1,158.8 L597.5,158.1 L597.6,158.1 L598.6,155.8 L599.9,153.9 L600.0,153.8 L599.7,151.6 L600.4,150.5 L599.4,149.2 L600.4,148.2 L598.8,148.4 L596.4,147.8 L594.5,149.4 L590.3,149.7 L588.1,148.2 L585.1,148.1 L584.4,149.3 L582.5,149.6 L579.8,148.1 L576.8,148.2 L575.1,145.4 L573.1,143.9 L574.5,141.7 L572.7,140.4 L575.8,137.7 L580.1,137.6 L581.2,135.5 L586.5,135.9 L589.9,134.1 L593.1,133.3 L597.7,133.2 L602.5,135.2 L606.5,136.3 L609.8,135.8 L612.1,136.1 L615.4,134.6 L615.8,133.4 L615.1,131.5 L613.5,130.5 L612.0,130.2 L611.0,129.3 L607.4,127.0 L604.3,126.0 L601.9,124.3 L603.9,123.9 L606.2,121.6 L604.6,120.5 L608.7,119.3 L608.7,118.7 L606.2,119.2 L604.0,119.4 L602.1,120.3 L599.5,120.4 L597.1,121.5 L597.3,123.2 L598.6,123.9 L601.5,123.7 L600.9,124.7 L597.9,125.2 L594.1,126.8 L592.6,126.2 L593.2,124.9 L590.1,124.1 L590.6,123.6 L593.3,122.6 L592.5,122.0 L588.2,121.3 L588.0,120.3 L585.4,120.6 L584.4,122.1 L582.2,124.2 L582.3,124.9 L580.9,125.5 L580.1,125.2 L579.3,128.6 L577.9,129.7 L576.9,131.7 L577.8,133.3 L578.1,134.4 L580.5,135.3 L580.0,136.0 L576.7,136.1 L575.5,137.0 L573.2,138.5 L572.3,137.2 L572.4,136.6 L570.7,136.5 L569.2,136.3 L565.9,137.0 L567.8,138.5 L566.4,139.0 L564.8,139.0 L563.4,137.6 L562.9,138.2 L563.5,139.8 L564.9,141.1 L563.8,141.7 L565.4,143.0 L566.7,143.8 L566.8,145.4 L564.2,144.7 L565.0,146.1 L563.3,146.4 L564.3,148.8 L562.5,148.9 L560.2,147.7 L559.2,145.4 L558.7,143.6 L557.6,142.3 L556.2,140.7 L556.0,139.9 L555.5,139.7 L555.4,139.1 L553.9,138.2 L553.7,136.9 L553.9,135.0 L554.3,134.1 L553.8,133.7 L553.2,133.5 L552.4,132.6 L551.2,132.0 L548.6,131.0 L547.0,130.0 L544.5,129.1 L542.2,127.1 L542.7,126.9 L541.4,125.7 L541.4,124.8 L539.6,124.3 L538.8,125.5 L537.9,124.6 L538.0,123.7 L538.1,123.6 L538.7,123.4 L536.5,123.0 L534.2,123.9 L534.4,125.3 L534.1,126.1 L535.0,127.5 L537.6,128.9 L539.0,131.2 L542.1,133.5 L544.2,133.4 L544.9,134.1 L544.1,134.6 L546.6,135.6 L548.7,136.5 L551.0,137.9 L551.3,138.4 L550.8,139.4 L549.3,138.1 L546.9,137.7 L545.7,139.5 L547.7,140.5 L547.4,141.9 L546.2,142.1 L544.7,144.5 L543.6,144.7 L543.6,143.8 L544.1,142.4 L544.7,141.8 L543.7,140.2 L542.8,138.8 L541.7,138.4 L540.8,137.2 L539.1,136.7 L537.9,135.6 L535.8,135.4 L533.6,134.2 L531.1,132.3 L529.2,130.7 L528.3,128.0 L527.0,127.7 L524.7,126.8 L523.4,127.1 L521.8,128.4 L520.7,128.6 L518.1,130.2 L512.7,129.4 L508.6,130.3 L508.3,132.0 L508.4,133.6 L505.8,135.5 L502.3,136.1 L502.0,137.0 L500.3,138.5 L499.2,140.8 L500.3,142.4 L498.7,143.6 L498.1,145.4 L496.0,146.0 L494.0,148.1 L490.5,148.2 L487.9,148.1 L486.1,149.1 L485.1,150.1 L483.7,149.9 L482.7,149.0 L481.9,147.4 L479.3,146.9 L478.2,147.7 L476.7,147.3 L475.3,147.6 L475.7,145.4 L475.4,143.7 L474.2,143.4 L473.5,142.4 L473.8,140.6 L474.9,139.6 L475.1,138.4 L475.6,136.8 L475.6,135.6 L475.0,134.6 L474.9,133.7 L475.0,131.7 L473.9,130.5 L477.8,128.5 L481.2,129.0 L485.0,129.0 L487.9,129.4 L490.2,129.3 L494.7,129.4 L496.2,127.7 L496.7,122.2 L493.8,119.3 L491.8,117.9 L487.5,116.8 L487.2,114.8 L490.8,114.2 L495.5,114.9 L494.6,111.7 L497.3,112.9 L503.7,110.8 L504.6,108.5 L507.0,107.9 L509.2,107.4 L510.6,106.6 L513.1,102.5 L516.9,101.4 L519.2,101.4 L519.7,100.9 L522.0,100.7 L522.6,101.3 L524.4,99.9 L523.8,98.9 L523.7,97.3 L522.6,95.8 L522.5,92.9 L522.9,92.2 L523.7,91.4 L526.2,91.2 L527.2,90.4 L529.4,89.6 L529.3,91.1 L528.5,92.0 L528.8,92.8 L530.3,93.2 L529.6,94.2 L528.8,93.9 L526.8,95.9 L527.6,97.3 L527.6,98.3 L530.4,99.0 L530.4,100.0 L533.2,99.5 L534.8,98.7 L537.9,99.8 L539.2,100.7 L541.1,99.9 L545.5,98.6 L549.0,97.6 L551.7,98.1 L551.9,98.8 L554.6,98.8 L555.2,97.6 L559.1,96.7 L558.5,94.4 L558.6,92.3 L559.9,90.5 L562.6,89.6 L564.8,91.7 L567.0,91.6 L567.5,89.5 L567.9,87.8 L566.8,88.2 L565.1,87.2 L564.8,85.6 L568.3,84.8 L571.8,84.4 L574.9,84.9 L577.7,84.8 L580.9,83.3 L578.0,81.9 L572.9,82.2 L568.0,83.2 L563.5,83.8 L561.9,82.2 L559.2,81.3 L559.8,78.6 L558.5,76.1 L559.8,74.5 L562.3,72.7 L568.7,69.7 L570.5,69.1 L570.3,68.0 L566.4,66.6 L561.6,67.4 L558.9,69.4 L559.4,71.1 L554.9,73.3 L549.6,75.7 L547.6,79.6 L549.5,81.6 L552.2,83.1 L549.6,86.2 L546.7,86.9 L545.7,91.6 L544.1,94.2 L540.7,93.9 L539.2,96.1 L536.0,96.2 L535.1,93.6 L532.7,90.4 L530.6,86.5 L528.8,84.8 L523.3,88.0 L519.6,88.7 L515.7,87.3 L514.7,84.3 L513.9,77.9 L516.4,76.1 L523.8,73.7 L529.2,70.9 L534.3,67.0 L541.0,61.6 L545.7,59.5 L553.3,56.1 L559.4,54.8 L564.0,55.0 L568.2,52.7 L573.2,52.8 L578.2,52.3 L586.9,54.3 L583.3,55.0 L586.4,56.8 L589.3,55.8 L593.8,57.5 L601.4,58.2 L611.9,61.3 L614.1,62.6 L614.2,64.5 L611.2,65.9 L606.6,66.7 L594.2,64.6 L592.2,64.9 L596.7,66.9 L597.1,71.1 L600.6,71.9 L602.8,72.6 L603.2,71.3 L601.4,70.1 L603.3,69.0 L610.0,70.8 L612.3,70.1 L610.5,68.1 L616.9,65.3 L619.5,65.5 L622.1,66.5 L623.7,64.6 L621.4,62.9 L622.7,61.2 L620.7,59.5 L628.5,60.4 L630.1,62.0 L626.5,62.3 L626.6,63.9 L628.7,64.8 L633.0,64.2 L633.7,62.4 L639.5,61.1 L649.2,58.7 L651.3,58.9 L648.6,60.6 L652.0,60.8 L654.0,59.9 L659.2,59.8 L663.3,58.7 L666.5,60.3 L669.7,58.5 L666.7,56.9 L668.2,56.0 L676.4,56.8 L680.2,57.7 L690.3,60.9 L692.2,59.4 L689.3,57.9 L689.3,57.3 L685.9,57.1 L686.8,55.8 L685.3,53.6 L685.3,52.7 L690.4,50.2 L692.2,47.7 L694.3,47.1 L701.6,47.8 L702.2,49.4 L699.6,51.6 L701.3,52.5 L702.2,54.5 L701.6,58.3 L704.6,60.0 L703.4,61.8 L698.0,65.8 L701.2,66.2 L702.3,65.2 L705.3,64.5 L706.1,63.1 L708.5,61.8 L706.9,60.2 L708.2,58.4 L705.1,58.1 L704.4,56.6 L706.7,53.8 L703.1,51.5 L708.0,49.7 L707.4,47.7 L708.8,47.6 L710.2,49.2 L709.1,51.8 L712.1,52.4 L710.8,50.4 L715.5,49.3 L721.3,49.1 L726.4,50.7 L723.9,48.4 L723.6,45.4 L728.5,44.9 L735.2,45.0 L741.2,44.6 L738.9,43.2 L742.1,41.3 L745.3,41.3 L750.7,39.9 L758.1,39.5 L759.0,38.8 L766.3,38.5 L768.5,39.1 L774.8,37.6 L779.9,37.7 L780.7,36.5 L783.3,35.3 L789.9,34.2 L794.6,35.1 L790.8,35.8 L797.1,36.2 L797.9,37.6 L800.4,36.9 L808.5,36.9 L814.8,38.3 L817.0,39.3 L816.3,40.8 L813.3,41.6 L806.0,43.1 L803.9,43.9 L807.3,44.3 L811.4,45.0 L813.9,44.5 L815.4,46.3 L816.6,45.6 L821.0,45.1 L829.9,45.6 L830.6,46.9 L842.2,47.3 L842.4,45.2 L848.3,45.7 L852.7,45.7 L857.2,47.1 L858.5,48.9 L856.8,50.1 L860.3,52.2 L864.7,53.4 L867.4,50.5 L871.8,51.7 L876.6,51.0 L881.9,51.8 L884.0,51.0 L888.5,51.4 L886.5,48.8 L890.2,47.6 L915.3,49.4 L917.6,51.1 L924.9,53.2 L936.1,52.7 L941.7,53.1 L944.0,54.3 L943.6,56.3 L947.1,57.1 L950.8,56.5 L955.7,56.5 L960.9,57.0 L966.2,56.7 L971.0,59.2 L974.5,58.3 L972.2,56.5 L973.5,55.3 L982.3,56.1 L988.1,55.9 L996.1,57.2 Z"/>
<path d="M636.4,135.3 L637.8,137.3 L639.1,137.4 L640.0,138.2 L637.7,138.4 L637.2,140.6 L636.7,141.5 L635.7,142.2 L635.8,143.6 L636.7,145.6 L639.3,146.2 L641.2,147.6 L645.2,148.1 L649.5,147.3 L649.8,146.7 L649.3,144.7 L649.7,141.8 L647.5,140.9 L648.2,139.0 L646.4,138.8 L647.0,136.5 L649.6,137.1 L652.0,136.2 L650.0,134.6 L649.2,133.0 L647.0,133.7 L646.7,135.7 L645.8,133.9 L645.7,133.3 L646.4,132.1 L645.8,131.1 L642.6,130.2 L641.4,127.7 L639.8,127.0 L639.7,126.1 L642.4,126.3 L642.5,124.3 L644.9,123.9 L647.3,124.3 L647.8,121.6 L647.3,119.9 L644.6,120.0 L642.2,119.3 L639.0,120.5 L636.4,121.1 L635.1,122.8 L632.4,123.2 L629.7,126.1 L632.2,128.7 L631.9,130.6 L635.0,133.9 L636.4,135.3 Z"/>
<path d="M234.3,58.0 L232.6,59.0 L228.8,58.2 L226.6,58.5 L222.8,57.2 L225.2,56.4 L227.2,55.2 L230.1,55.9 L231.8,56.4 L232.6,57.0 L234.3,58.0 Z"/>
<path d="M0.0,51.3 L0.4,51.2 L2.7,51.2 L6.7,52.0 L6.5,52.4 L3.6,53.1 L0.0,53.2 L0.0,51.3 Z"/>
<path d="M248.5,57.0 L248.5,59.8 L252.2,57.6 L255.5,59.4 L254.7,61.5 L257.4,63.3 L260.3,61.3 L262.3,58.9 L262.4,55.9 L266.4,56.1 L270.5,56.5 L274.2,57.9 L274.4,59.3 L272.3,60.7 L274.3,62.2 L273.9,63.6 L268.5,65.5 L264.6,66.0 L261.8,65.1 L260.9,66.5 L258.2,68.9 L257.4,70.1 L254.2,71.9 L250.2,72.1 L248.0,73.3 L247.9,75.1 L244.6,75.5 L241.2,77.7 L238.2,80.8 L237.1,83.0 L237.0,86.3 L241.1,86.7 L242.3,89.3 L243.6,91.4 L247.5,90.9 L252.7,92.1 L255.4,93.1 L257.4,94.4 L260.9,95.2 L263.9,96.4 L268.4,96.5 L271.5,96.8 L271.0,99.2 L271.9,102.0 L273.9,105.1 L278.0,107.8 L280.2,106.9 L281.7,104.0 L280.2,99.6 L278.3,98.1 L282.7,96.8 L285.8,94.9 L287.4,93.0 L287.2,91.1 L285.3,88.7 L281.9,86.7 L285.2,83.7 L284.0,81.2 L283.0,76.9 L285.0,76.2 L289.7,77.0 L292.6,77.3 L294.9,76.5 L297.5,77.5 L300.9,79.1 L301.7,80.2 L306.7,80.4 L306.6,82.7 L307.5,86.2 L310.1,86.7 L312.1,88.3 L316.1,86.8 L318.8,83.7 L320.6,82.4 L322.8,84.9 L326.4,88.4 L329.5,91.8 L328.3,93.5 L332.0,95.1 L334.5,96.7 L339.0,97.4 L340.7,98.3 L341.8,100.6 L344.0,101.0 L345.1,102.0 L345.3,105.1 L343.3,106.2 L341.3,107.2 L336.7,108.2 L333.2,110.4 L328.5,110.9 L322.6,110.3 L318.4,110.3 L315.6,110.5 L313.2,112.5 L309.7,113.7 L305.7,117.4 L302.5,119.9 L304.8,119.5 L309.3,115.8 L315.1,113.5 L319.3,113.2 L321.7,114.6 L319.1,116.5 L320.0,119.5 L320.9,121.6 L324.5,122.9 L329.1,122.5 L331.9,119.4 L332.1,121.4 L333.9,122.4 L330.4,124.3 L324.3,125.9 L321.5,127.0 L318.4,129.0 L316.3,128.8 L316.2,126.5 L321.0,124.2 L316.6,124.3 L313.5,124.6 L314.0,125.5 L311.0,126.9 L308.2,127.8 L305.2,128.7 L303.6,130.5 L303.3,130.9 L303.3,132.4 L304.2,133.9 L305.3,133.9 L305.0,132.9 L305.9,133.5 L305.7,134.3 L303.8,134.8 L302.4,134.7 L300.4,135.2 L299.2,135.4 L297.6,135.5 L295.3,136.3 L299.3,135.8 L300.2,136.3 L296.3,137.1 L294.5,137.1 L294.6,136.8 L293.7,137.6 L294.6,137.7 L294.0,139.7 L291.9,141.8 L291.7,141.1 L291.1,141.0 L290.2,140.3 L290.8,141.8 L291.4,142.3 L291.5,143.3 L290.6,144.4 L289.1,146.6 L288.8,146.5 L289.7,144.6 L288.2,143.6 L287.9,141.3 L287.4,142.5 L288.0,144.2 L286.2,143.8 L288.1,144.7 L288.2,147.3 L289.0,147.5 L289.3,148.5 L289.6,151.2 L287.9,153.3 L285.0,154.1 L283.2,155.8 L281.8,155.9 L280.4,157.0 L280.0,157.9 L276.9,159.7 L275.4,161.0 L274.1,162.7 L273.6,164.6 L274.1,166.6 L275.1,168.9 L276.3,170.9 L276.3,172.1 L277.6,175.3 L277.5,177.2 L277.4,178.3 L276.7,180.0 L275.9,180.3 L274.5,180.0 L274.1,178.8 L273.0,178.1 L271.6,175.8 L270.3,173.6 L269.8,172.5 L270.4,170.7 L269.6,169.2 L267.5,166.8 L266.4,166.4 L263.6,167.7 L263.1,167.5 L261.7,166.2 L260.0,165.6 L256.9,165.9 L254.4,165.6 L252.3,165.8 L251.1,166.2 L251.6,167.0 L251.6,168.1 L252.2,168.6 L251.6,169.0 L250.6,168.6 L249.6,169.1 L247.6,169.0 L245.5,167.6 L243.1,167.9 L241.0,167.3 L239.3,167.5 L237.0,168.1 L234.4,170.2 L231.7,171.4 L230.2,172.7 L229.5,173.9 L229.5,175.9 L229.6,177.2 L230.2,178.1 L230.2,178.1 L230.2,178.1 L229.1,180.6 L228.6,182.6 L228.4,186.3 L228.1,187.7 L228.6,189.2 L229.5,190.5 L230.0,192.7 L231.9,194.7 L232.5,196.3 L233.6,197.7 L236.6,198.4 L237.7,199.6 L240.1,198.8 L242.3,198.5 L244.3,198.0 L246.1,197.6 L247.9,196.4 L248.5,194.8 L248.7,192.5 L249.2,191.7 L251.1,190.9 L254.0,190.3 L256.5,190.4 L258.2,190.2 L258.9,190.7 L258.8,192.1 L257.3,193.7 L256.6,195.4 L257.1,195.9 L256.7,197.1 L256.0,199.3 L255.3,198.6 L254.7,198.6 L254.7,199.0 L255.3,199.0 L255.2,199.8 L254.8,201.0 L255.0,201.4 L254.7,202.4 L254.9,202.7 L254.6,204.1 L254.0,204.8 L253.5,204.9 L253.0,205.9 L253.9,206.4 L254.1,206.0 L254.9,206.3 L255.2,206.4 L255.8,205.9 L256.6,205.9 L256.9,206.1 L257.3,206.0 L258.6,206.2 L259.9,206.2 L260.8,205.9 L261.1,205.5 L262.0,205.7 L262.7,205.9 L263.4,205.8 L263.9,205.6 L265.2,206.0 L265.6,206.0 L266.5,206.5 L267.3,207.2 L268.3,207.6 L269.0,208.3 L268.8,208.6 L268.7,209.2 L268.9,210.2 L268.3,211.2 L268.0,212.3 L267.9,213.5 L268.1,214.3 L268.1,215.5 L267.7,215.8 L267.4,217.0 L267.6,217.7 L267.1,218.4 L267.2,219.2 L267.6,219.6 L268.3,221.1 L269.4,222.2 L270.7,223.4 L271.7,224.4 L271.6,225.0 L272.8,225.1 L273.0,224.9 L273.8,225.6 L275.1,225.4 L276.3,224.7 L278.0,224.1 L279.0,223.3 L280.5,223.5 L280.4,223.7 L281.9,223.8 L283.2,224.3 L284.1,225.1 L285.1,225.9 L286.6,226.0 L288.7,224.1 L289.8,223.8 L289.8,222.9 L290.3,220.5 L291.9,219.2 L293.7,219.2 L293.9,218.6 L296.1,218.8 L298.3,217.4 L299.3,216.8 L300.7,215.5 L301.7,215.6 L302.4,216.4 L301.9,217.3 L301.8,217.9 L300.1,218.3 L301.1,219.5 L301.0,221.0 L299.8,222.6 L300.8,224.8 L302.0,224.6 L302.7,222.6 L301.8,221.6 L301.7,219.5 L305.1,218.4 L304.7,217.1 L305.7,216.2 L306.7,218.2 L308.7,218.2 L310.5,219.8 L310.6,220.7 L313.1,220.7 L316.0,220.4 L317.6,221.7 L319.8,222.0 L321.3,221.1 L321.3,220.4 L324.8,220.3 L328.1,220.2 L325.8,221.1 L326.7,222.4 L328.9,222.6 L331.0,223.9 L331.5,226.2 L332.9,226.1 L334.0,226.8 L335.8,227.8 L337.5,229.6 L337.6,231.0 L338.7,231.1 L340.2,232.4 L341.3,233.4 L344.6,234.0 L344.9,233.5 L347.1,233.3 L350.1,234.0 L351.1,234.3 L353.1,235.0 L356.0,237.3 L356.5,238.5 L357.5,238.3 L358.1,239.9 L359.7,244.7 L361.2,245.2 L361.3,247.1 L359.2,249.4 L360.0,250.2 L364.9,250.7 L365.0,253.4 L367.2,251.6 L370.6,252.6 L375.3,254.3 L376.6,255.9 L376.2,257.5 L379.4,256.6 L384.8,258.1 L388.9,258.0 L393.1,260.3 L396.6,263.4 L398.7,264.2 L401.1,264.3 L402.1,265.2 L403.1,268.7 L403.5,270.4 L402.4,275.0 L401.0,276.8 L397.1,280.7 L395.3,283.8 L393.3,286.2 L392.6,286.3 L391.8,288.3 L392.0,293.5 L391.2,297.8 L390.9,299.6 L390.0,300.7 L389.6,304.4 L386.7,308.1 L386.3,310.9 L384.0,312.1 L383.4,313.8 L380.3,313.8 L376.0,314.9 L374.0,316.1 L370.9,316.9 L367.6,319.1 L365.3,321.9 L364.9,324.0 L365.3,325.5 L364.8,328.3 L364.2,329.7 L362.3,331.2 L359.2,336.1 L356.7,338.3 L354.8,339.6 L353.6,342.2 L351.7,343.8 L350.5,345.5 L347.4,347.1 L345.4,346.5 L343.8,346.8 L341.3,345.6 L339.4,345.7 L337.7,344.2 L337.5,345.6 L341.0,348.0 L340.7,349.9 L342.4,351.1 L342.3,352.5 L339.6,356.1 L335.5,357.6 L329.9,358.1 L326.8,357.9 L327.4,359.5 L326.9,361.6 L327.4,363.0 L325.7,364.0 L322.9,364.4 L320.2,363.3 L319.1,364.1 L319.5,366.8 L321.4,367.7 L322.9,366.8 L323.7,368.2 L321.2,369.1 L318.9,370.8 L318.5,373.6 L317.9,375.1 L315.3,375.1 L313.1,376.5 L312.3,378.6 L315.0,380.6 L317.7,381.2 L316.7,383.7 L313.4,385.3 L311.6,388.5 L309.1,389.6 L308.0,390.9 L308.8,393.8 L310.7,395.4 L309.5,395.3 L307.1,395.3 L305.7,395.9 L303.2,396.9 L302.8,399.5 L301.6,399.6 L298.5,398.7 L295.3,396.8 L291.8,395.2 L290.9,393.4 L291.7,391.8 L290.3,389.9 L290.0,385.2 L291.2,382.5 L294.1,380.4 L289.9,379.6 L292.5,377.1 L293.5,372.5 L296.6,373.5 L298.0,367.7 L296.1,367.0 L295.3,370.5 L293.5,370.1 L294.4,366.1 L295.3,361.0 L296.6,359.1 L295.8,356.3 L295.6,353.2 L296.8,353.1 L298.5,348.6 L300.4,344.2 L301.6,340.1 L300.9,335.9 L301.8,333.6 L301.4,330.2 L303.0,326.8 L303.5,321.4 L304.4,315.6 L305.3,309.4 L305.1,304.9 L304.5,301.0 L301.7,299.4 L301.5,298.2 L296.0,295.4 L291.0,292.4 L288.9,290.7 L287.7,288.4 L288.2,287.6 L285.8,284.0 L283.1,278.8 L280.5,273.3 L279.3,272.0 L278.4,270.0 L276.3,268.2 L274.3,267.0 L275.2,265.8 L273.9,263.2 L274.7,261.2 L276.9,259.5 L278.4,257.4 L277.8,256.2 L276.8,257.5 L275.1,256.2 L275.7,255.5 L275.2,252.9 L276.2,252.5 L276.7,250.8 L277.7,249.0 L277.5,247.9 L279.1,247.3 L281.0,246.2 L280.6,245.3 L281.6,245.1 L281.5,243.7 L282.1,242.7 L283.5,242.5 L284.7,240.8 L285.8,239.3 L284.7,238.6 L285.3,237.0 L284.6,234.5 L285.2,233.8 L284.8,231.4 L283.7,229.9 L282.7,229.1 L282.1,227.6 L282.8,226.9 L282.1,226.7 L281.6,225.8 L280.2,225.0 L279.0,225.2 L278.4,226.2 L277.3,226.9 L276.7,226.9 L276.4,227.5 L277.8,229.0 L277.0,229.4 L276.6,229.8 L275.3,229.9 L274.8,228.3 L274.5,228.8 L273.6,228.6 L273.0,227.5 L271.9,227.3 L271.1,227.0 L269.9,227.0 L269.9,227.6 L269.5,227.2 L268.0,226.5 L267.5,226.0 L267.8,225.5 L267.7,224.9 L266.9,224.2 L265.8,223.6 L264.9,223.3 L264.7,222.5 L264.0,222.0 L264.1,222.8 L263.6,223.5 L262.9,222.7 L262.1,222.4 L261.7,221.8 L261.7,221.0 L262.1,220.1 L261.3,219.7 L261.9,219.2 L261.0,218.3 L259.7,217.2 L259.0,216.3 L257.9,215.4 L256.5,214.1 L256.8,213.7 L257.2,214.1 L257.5,213.9 L257.0,213.1 L256.1,212.8 L255.8,213.5 L254.2,213.4 L253.2,213.2 L252.1,212.6 L250.5,212.4 L249.7,211.8 L248.3,211.4 L246.6,211.3 L245.3,210.8 L243.8,209.6 L240.7,206.6 L239.2,205.7 L237.0,205.0 L235.4,205.2 L233.2,206.2 L231.8,206.5 L229.8,205.8 L227.7,205.3 L225.1,204.0 L223.1,203.6 L219.9,202.3 L217.6,201.0 L216.9,200.2 L215.3,200.1 L212.5,199.2 L211.3,197.9 L208.4,196.3 L207.0,194.6 L206.3,193.2 L207.2,193.0 L206.9,192.2 L207.6,191.5 L207.6,190.5 L206.7,189.2 L206.4,188.1 L205.5,186.7 L203.0,184.0 L200.2,181.8 L198.9,180.1 L196.5,178.9 L196.0,178.3 L196.4,176.5 L195.0,175.9 L193.4,174.5 L192.7,172.6 L191.2,172.4 L189.6,170.9 L188.3,169.6 L188.1,168.7 L186.6,166.6 L185.7,164.5 L185.7,163.4 L183.7,162.3 L182.8,162.4 L181.2,161.7 L180.7,162.8 L181.2,164.1 L181.5,166.2 L182.4,167.4 L184.5,169.3 L184.9,169.9 L185.4,170.1 L185.7,171.1 L186.2,171.0 L186.8,172.8 L187.6,173.5 L188.2,174.5 L190.0,175.9 L190.9,178.5 L191.7,179.7 L192.5,181.0 L192.6,182.5 L194.0,182.6 L195.1,183.9 L196.1,185.1 L196.0,185.6 L194.9,186.6 L194.4,186.6 L193.6,184.9 L191.8,183.3 L189.8,182.0 L188.4,181.3 L188.5,179.2 L188.1,177.7 L186.7,176.9 L184.8,175.6 L184.5,176.0 L183.8,175.3 L182.0,174.6 L180.4,173.0 L180.6,172.8 L181.8,172.9 L182.8,171.9 L182.9,170.7 L180.7,168.7 L179.1,167.9 L178.1,166.2 L177.1,164.3 L175.8,162.1 L174.6,159.6 L174.2,158.2 L172.4,156.6 L171.1,156.3 L170.8,155.5 L169.2,155.3 L168.2,154.6 L165.6,154.3 L164.9,153.9 L164.6,152.3 L161.9,149.5 L159.6,145.7 L159.7,145.0 L158.5,144.1 L156.3,141.8 L155.9,139.5 L154.5,138.0 L155.1,135.7 L155.0,133.3 L154.1,131.2 L155.2,128.6 L155.8,123.5 L155.3,119.8 L154.5,117.4 L153.7,116.2 L154.0,115.6 L158.0,116.6 L159.5,119.2 L160.2,118.4 L159.7,116.2 L158.8,113.9 L158.4,113.9 L153.0,111.2 L151.0,110.0 L146.0,108.8 L144.5,106.3 L144.9,104.6 L141.3,103.5 L140.8,101.2 L137.5,99.2 L137.4,97.8 L135.9,96.7 L133.4,95.8 L132.6,93.4 L129.1,91.2 L127.6,88.5 L124.9,88.4 L120.5,88.3 L117.2,87.5 L111.5,84.6 L108.8,84.1 L104.0,83.1 L100.1,83.3 L94.7,82.1 L91.4,80.9 L88.3,81.5 L88.8,83.4 L87.3,83.6 L84.1,84.2 L81.6,85.1 L78.6,85.7 L78.2,84.0 L79.4,81.3 L82.4,80.5 L81.6,79.8 L78.1,81.3 L76.2,83.2 L72.2,85.1 L74.2,86.5 L71.6,88.5 L68.6,89.6 L65.8,90.5 L65.1,91.7 L60.8,93.2 L59.9,94.5 L56.7,95.6 L54.8,95.4 L52.2,96.2 L49.3,97.2 L47.0,98.1 L42.3,98.9 L41.8,98.4 L44.9,97.1 L47.6,96.3 L50.5,94.7 L54.0,94.4 L55.4,93.3 L59.2,91.6 L59.8,91.1 L61.9,90.1 L62.4,88.0 L63.8,86.3 L60.6,87.2 L59.7,86.7 L58.2,87.7 L56.4,86.3 L55.6,87.3 L54.6,85.9 L51.8,87.0 L50.1,87.0 L49.9,85.4 L50.4,84.3 L48.6,83.4 L45.0,83.9 L42.6,82.6 L40.7,81.9 L40.7,80.4 L38.6,79.2 L39.6,77.6 L41.9,76.0 L42.9,74.6 L45.1,74.4 L47.0,74.8 L49.3,73.5 L51.3,73.7 L53.4,72.9 L52.9,71.6 L51.3,71.1 L53.4,70.0 L51.7,70.1 L48.7,70.7 L47.9,71.3 L45.7,70.7 L41.8,71.0 L37.7,70.3 L36.5,69.2 L33.0,67.6 L36.9,66.4 L43.1,65.1 L45.4,65.1 L45.0,66.4 L50.9,66.3 L48.6,64.6 L45.2,63.6 L43.3,62.2 L40.6,61.0 L36.8,60.1 L38.3,58.7 L43.3,58.6 L46.8,57.3 L47.4,56.0 L50.3,54.6 L53.0,54.3 L58.2,53.1 L60.8,53.3 L65.1,51.8 L69.3,52.4 L71.3,53.6 L72.5,53.1 L77.2,53.2 L77.0,53.9 L81.3,54.4 L84.1,54.1 L90.0,55.0 L95.3,55.2 L97.4,55.6 L101.1,55.1 L105.4,56.0 L108.4,56.4 L113.6,57.0 L117.9,58.4 L120.8,58.6 L123.3,57.5 L126.6,56.6 L130.8,56.9 L134.9,55.7 L139.5,55.0 L141.4,56.2 L143.4,55.5 L144.1,54.2 L146.0,54.5 L150.7,57.0 L154.4,55.1 L154.8,57.2 L158.2,56.8 L159.2,56.0 L162.6,56.1 L166.8,57.3 L173.3,58.3 L177.2,58.8 L179.9,58.6 L183.6,60.0 L179.7,61.4 L184.7,62.0 L192.2,61.6 L194.6,61.2 L197.6,62.8 L200.6,61.4 L197.7,60.2 L199.5,59.3 L202.9,59.2 L205.1,58.9 L207.4,59.6 L210.2,61.1 L213.3,60.8 L218.2,62.1 L222.5,61.6 L226.5,61.7 L226.2,60.0 L228.7,59.5 L233.0,60.4 L233.0,63.1 L234.8,60.9 L237.0,60.9 L238.2,58.1 L235.3,56.4 L232.0,55.3 L232.2,52.2 L235.5,50.2 L239.2,50.7 L242.0,51.9 L245.8,55.0 L243.3,56.4 L248.5,57.0 Z"/>
<path d="M182.9,46.9 L181.5,48.2 L187.7,47.3 L191.5,48.7 L194.7,47.3 L197.2,48.2 L199.5,51.0 L200.9,49.8 L198.9,47.0 L201.3,46.6 L204.1,47.0 L207.2,48.1 L209.0,50.8 L209.8,52.8 L214.5,54.2 L219.5,55.5 L219.2,56.7 L214.6,56.9 L216.4,58.0 L215.5,59.0 L210.4,58.6 L205.7,57.8 L202.4,58.0 L197.2,58.9 L189.0,59.4 L185.2,59.6 L183.7,58.3 L179.9,57.6 L177.5,57.9 L174.1,55.7 L175.9,55.4 L180.2,54.9 L184.1,55.0 L187.7,54.5 L182.4,53.9 L176.4,54.1 L172.5,54.1 L171.0,53.0 L177.5,51.9 L173.2,52.0 L168.3,51.2 L170.7,49.1 L172.6,48.0 L180.0,46.4 L182.9,46.9 Z"/>
<path d="M209.7,46.1 L207.3,47.9 L202.9,45.9 L203.9,45.6 L207.6,45.4 L209.7,46.1 Z"/>
<path d="M287.9,46.9 L288.2,47.7 L285.2,47.6 L282.2,47.6 L279.2,47.9 L278.4,47.8 L275.3,46.3 L275.5,45.3 L276.8,45.1 L283.2,45.4 L287.9,46.9 Z"/>
<path d="M259.6,46.8 L261.7,48.5 L264.3,46.3 L271.3,45.1 L276.1,48.0 L275.7,49.8 L281.2,49.0 L283.8,47.9 L290.0,49.3 L293.8,50.6 L294.2,51.9 L299.3,51.2 L302.2,53.0 L308.9,54.1 L311.3,55.2 L314.0,57.8 L308.9,59.1 L315.4,60.9 L319.8,61.5 L323.8,64.1 L328.2,64.3 L327.3,66.2 L322.5,69.4 L319.0,68.3 L314.7,65.6 L311.1,65.9 L310.7,67.5 L313.6,69.1 L317.4,70.4 L318.6,71.2 L320.4,73.9 L319.4,75.9 L315.9,75.2 L308.9,72.9 L312.9,75.3 L315.8,77.0 L316.2,78.0 L308.7,76.9 L302.7,75.2 L299.3,73.9 L300.3,73.1 L296.2,71.7 L292.1,70.3 L292.2,71.1 L284.1,71.6 L281.8,70.6 L283.6,68.6 L288.8,68.5 L294.6,68.2 L293.6,67.2 L294.6,65.8 L298.2,63.1 L297.4,61.9 L296.4,60.9 L292.1,59.6 L286.5,58.6 L288.3,57.9 L285.3,56.2 L282.9,56.0 L280.7,55.1 L279.2,55.9 L274.2,56.3 L264.0,55.7 L258.2,54.8 L253.7,54.4 L251.4,53.4 L254.3,52.2 L250.3,52.2 L249.4,49.3 L251.6,46.9 L254.4,45.7 L261.6,45.0 L259.6,46.8 Z"/>
<path d="M221.2,44.9 L224.5,45.5 L229.5,45.1 L230.2,45.9 L227.6,47.2 L231.8,48.4 L231.3,50.9 L226.8,52.0 L224.1,51.8 L222.2,50.7 L215.3,48.6 L215.3,47.7 L221.0,48.0 L217.9,46.2 L221.2,44.9 Z"/>
<path d="M898.9,46.6 L894.7,46.7 L889.0,46.3 L888.5,46.2 L891.1,45.1 L894.6,44.8 L898.6,45.9 L898.9,46.6 Z"/>
<path d="M241.1,47.9 L238.1,49.9 L235.0,49.8 L233.2,47.4 L233.3,46.0 L234.7,44.8 L237.5,44.1 L243.3,44.2 L248.6,44.8 L244.4,47.3 L241.1,47.9 Z"/>
<path d="M165.4,51.7 L158.1,53.1 L156.6,51.8 L150.2,50.4 L151.1,49.5 L153.3,47.2 L155.7,45.3 L153.0,43.6 L162.4,43.2 L166.4,43.8 L173.5,43.9 L176.2,44.7 L179.1,45.9 L175.6,46.6 L168.8,48.6 L165.4,50.5 L165.4,51.7 Z"/>
<path d="M918.7,41.4 L915.5,42.5 L911.0,42.3 L905.9,41.2 L906.5,40.3 L911.7,40.7 L918.7,41.4 Z"/>
<path d="M240.0,41.7 L238.5,42.8 L234.4,42.6 L231.1,41.9 L232.5,40.6 L236.5,39.9 L239.0,40.8 L240.0,41.7 Z"/>
<path d="M903.0,40.1 L900.8,42.2 L890.6,42.1 L886.0,42.7 L880.5,40.9 L882.0,39.0 L885.6,38.5 L893.0,38.6 L903.0,40.1 Z"/>
<path d="M226.4,36.9 L228.5,38.2 L228.6,39.6 L227.3,41.7 L222.8,42.0 L219.8,41.5 L219.8,39.9 L215.3,40.1 L215.1,38.0 L218.1,38.0 L222.3,37.1 L226.2,37.3 L226.4,36.9 Z"/>
<path d="M199.4,38.3 L200.5,39.3 L203.0,38.9 L205.9,39.0 L206.4,40.3 L204.7,41.7 L195.3,42.1 L188.3,43.3 L184.0,43.4 L183.7,42.4 L189.5,41.2 L176.9,41.5 L173.0,41.0 L176.8,38.3 L179.4,37.6 L187.3,38.5 L192.2,40.1 L197.0,40.4 L193.1,37.7 L195.6,36.7 L198.5,37.0 L199.4,38.3 Z"/>
<path d="M659.8,53.6 L658.2,53.8 L649.1,53.4 L648.4,52.2 L643.3,51.5 L642.9,50.0 L645.8,49.4 L645.7,47.8 L651.2,45.5 L648.6,45.1 L655.3,42.7 L654.5,41.4 L660.7,40.0 L669.9,38.2 L679.2,37.7 L683.9,36.6 L689.3,36.3 L691.3,37.4 L689.4,38.2 L679.5,39.6 L671.1,40.9 L662.4,43.6 L658.3,46.3 L653.9,49.0 L654.5,51.3 L659.8,53.6 Z"/>
<path d="M237.0,35.8 L240.1,36.7 L245.5,36.7 L247.9,37.6 L247.3,38.7 L250.5,39.3 L252.3,40.0 L256.0,40.1 L260.1,40.3 L264.5,39.7 L270.1,39.5 L274.6,39.7 L277.6,40.7 L278.2,41.9 L276.5,42.6 L272.4,43.2 L268.8,42.9 L260.8,43.3 L255.1,43.4 L250.7,43.0 L243.3,42.1 L242.3,40.6 L242.0,39.2 L239.2,38.0 L233.4,37.7 L230.2,36.8 L231.3,35.7 L237.0,35.8 Z"/>
<path d="M177.2,34.3 L176.8,36.5 L174.7,37.4 L172.1,37.6 L166.9,38.7 L162.5,39.2 L158.7,38.6 L163.5,36.5 L169.2,34.7 L173.4,34.7 L177.2,34.3 Z"/>
<path d="M239.3,34.7 L238.1,34.7 L232.9,34.6 L232.1,33.8 L237.7,33.8 L239.7,34.3 L239.3,34.7 Z"/>
<path d="M193.9,34.2 L188.7,35.0 L184.6,34.1 L186.9,33.2 L190.9,32.9 L194.9,33.3 L193.9,34.2 Z"/>
<path d="M568.7,33.7 L562.5,34.9 L557.6,34.2 L559.5,33.5 L557.8,32.6 L563.6,32.1 L564.7,33.1 L568.7,33.7 Z"/>
<path d="M195.4,31.7 L192.0,32.2 L187.4,32.2 L187.4,31.8 L190.3,31.0 L191.8,31.1 L195.4,31.7 Z"/>
<path d="M233.8,33.2 L229.7,33.8 L227.4,33.1 L226.2,32.1 L226.0,30.9 L229.6,31.0 L231.2,31.2 L234.6,32.2 L233.8,33.2 Z"/>
<path d="M222.1,32.4 L223.1,33.6 L218.6,33.3 L214.0,32.4 L207.8,32.3 L210.5,31.5 L207.2,30.8 L207.0,29.7 L212.4,30.1 L219.9,31.1 L222.1,32.4 Z"/>
<path d="M791.9,32.5 L776.2,33.6 L781.3,29.9 L783.6,29.6 L785.7,29.8 L792.7,31.4 L791.9,32.5 Z"/>
<path d="M550.7,28.6 L559.8,30.7 L552.9,31.8 L551.3,33.8 L548.9,34.3 L547.6,36.6 L544.2,36.8 L538.2,35.1 L540.7,34.1 L536.6,33.3 L531.2,30.9 L529.0,28.7 L536.6,27.7 L538.1,28.7 L542.1,28.7 L543.1,27.7 L547.2,27.6 L550.7,28.6 Z"/>
<path d="M570.7,26.6 L576.1,27.6 L572.0,29.1 L564.0,29.4 L555.8,29.0 L555.3,28.2 L551.3,28.2 L548.2,26.9 L556.8,26.1 L560.9,26.8 L563.7,26.0 L570.7,26.6 Z"/>
<path d="M642.0,26.3 L638.3,26.6 L635.8,26.8 L635.4,27.3 L632.2,27.8 L629.2,27.1 L630.8,26.2 L624.6,26.1 L630.0,25.6 L634.2,25.6 L634.8,26.4 L636.4,25.7 L639.0,25.2 L643.1,25.8 L642.0,26.3 Z"/>
<path d="M777.6,30.9 L771.5,31.2 L763.8,30.4 L759.2,29.4 L757.1,27.4 L753.3,26.8 L760.5,24.9 L766.5,24.3 L771.9,25.7 L778.3,28.4 L777.6,30.9 Z"/>
<path d="M258.3,28.7 L261.6,29.6 L257.8,30.4 L252.7,32.5 L247.8,32.7 L242.0,32.4 L239.0,31.2 L239.1,30.2 L241.3,29.5 L236.2,29.5 L233.1,28.6 L231.4,27.3 L233.3,26.1 L235.2,25.3 L238.1,25.1 L236.8,24.4 L243.3,24.3 L246.9,25.8 L251.5,26.4 L256.1,26.9 L258.3,28.7 Z"/>
<path d="M309.7,19.1 L317.1,19.4 L323.1,19.7 L328.2,20.5 L328.1,21.2 L321.3,22.4 L314.6,23.0 L312.1,23.6 L318.1,23.6 L311.6,25.3 L307.0,26.1 L302.3,28.3 L296.5,28.8 L294.8,29.4 L286.4,29.7 L290.2,30.0 L288.3,30.5 L290.6,31.9 L287.9,32.8 L283.6,33.6 L282.3,34.7 L278.4,35.5 L278.8,36.2 L283.6,36.0 L283.6,36.7 L276.2,38.4 L269.0,37.6 L260.8,38.1 L256.7,37.7 L251.4,37.6 L251.1,36.2 L256.2,35.6 L254.8,33.6 L256.5,33.4 L264.0,34.6 L260.2,32.8 L255.7,32.3 L257.9,31.2 L262.8,30.6 L263.6,29.6 L259.7,28.5 L258.5,27.1 L266.1,27.2 L268.3,27.5 L272.6,26.5 L266.4,26.2 L256.7,26.3 L251.8,25.4 L249.4,24.3 L246.2,23.5 L245.6,22.5 L249.7,22.0 L253.0,21.9 L258.4,21.4 L262.5,20.4 L265.9,20.6 L268.9,21.3 L271.1,19.8 L274.7,19.4 L279.7,19.1 L288.2,19.0 L289.7,19.3 L297.7,18.8 L303.7,19.0 L309.7,19.1 Z"/>
<path d="M424.7,18.0 L442.1,20.2 L437.0,21.3 L426.3,21.4 L411.4,21.7 L412.8,22.2 L422.6,21.9 L431.0,22.8 L436.4,22.0 L438.7,23.0 L435.6,24.6 L442.7,23.5 L456.2,22.5 L464.5,23.0 L466.1,24.2 L454.8,26.2 L453.2,26.8 L444.3,27.3 L450.7,27.4 L447.5,29.4 L445.3,31.2 L445.4,34.3 L448.7,36.2 L444.3,36.3 L439.8,37.1 L444.9,38.6 L445.6,41.0 L442.6,41.2 L446.2,43.6 L440.0,43.8 L443.2,45.0 L442.3,45.9 L438.4,46.4 L434.5,46.4 L438.0,48.3 L438.1,49.5 L432.6,48.3 L431.1,49.1 L434.9,49.8 L438.5,51.5 L439.6,53.7 L434.6,54.2 L432.5,53.2 L429.0,51.6 L430.0,53.5 L426.8,54.9 L434.1,55.0 L437.9,55.2 L430.5,57.6 L422.9,59.8 L414.8,60.8 L411.7,60.8 L408.9,61.8 L405.0,64.8 L399.0,66.7 L397.1,66.8 L393.4,67.5 L389.4,68.2 L387.0,69.9 L387.0,71.8 L385.6,73.7 L381.1,75.9 L382.2,78.1 L380.9,80.3 L379.5,83.1 L375.6,83.2 L371.5,81.0 L365.9,80.9 L363.2,79.4 L361.4,76.7 L356.6,73.3 L355.2,71.4 L354.8,69.0 L350.9,66.4 L351.9,64.3 L350.1,63.4 L352.8,60.1 L357.0,59.1 L358.1,57.9 L358.7,55.8 L355.5,56.7 L354.0,57.2 L351.5,57.5 L348.1,56.6 L347.9,54.8 L349.0,53.3 L351.6,53.2 L357.3,54.0 L352.5,52.2 L350.0,51.3 L347.2,51.6 L344.9,51.0 L348.0,48.4 L346.3,47.3 L344.1,45.4 L340.8,42.5 L337.2,41.4 L337.3,40.2 L329.8,38.6 L323.9,38.4 L316.5,38.5 L309.7,38.7 L306.5,37.8 L301.7,36.1 L309.0,35.2 L314.5,35.1 L302.7,34.3 L296.4,33.2 L296.8,32.1 L307.3,30.8 L317.5,29.5 L318.5,28.5 L311.0,27.5 L313.5,26.3 L323.1,24.4 L327.1,24.1 L326.0,22.9 L332.6,22.1 L341.1,21.7 L349.6,21.7 L352.7,22.5 L360.0,21.0 L366.7,22.0 L370.6,22.3 L376.3,23.2 L369.7,21.7 L370.1,20.5 L379.4,18.8 L389.2,18.9 L392.7,17.9 L402.5,17.7 L424.7,18.0 Z"/>
</g>
</svg>