<svg xmlns="http://www.w3.org/2000/svg" viewBox="0 0 512 512">
  <title>Apple MacOS</title>
  <path fill="currentColor" stroke="currentColor" stroke-width="1.52252" d="m 299.13901,115.41591 v -6.09009 c -79.17109,0 -7.61261,51.76572 0,6.09009 z m 36.54051,-27.40538 c 10.65764,-31.97294 65.46839,-35.017982 71.55848,4.567562 h -15.22521 c -4.56756,-22.837814 -42.63058,-24.360335 -42.63058,16.747728 0,22.83782 35.01797,36.54051 42.63058,9.13513 H 407.238 c -9.13512,50.24319 -89.82873,31.97294 -71.55848,-30.45042 z M 113.39145,63.650194 h 15.22522 v 13.702689 c 7.6126,-18.270251 41.10806,-19.792772 47.19815,1.522521 10.65764,-22.837814 53.28822,-21.315293 53.28822,10.657647 V 145.86633 H 212.35531 V 94.100613 c 0,-22.837814 -33.49545,-22.837814 -33.49545,1.522521 V 145.86633 H 162.11213 V 92.578092 C 158.38652,78.327296 139.40372,75.480182 131.66171,88.01053 l -3.04504,7.612604 v 50.243196 h -15.22522 z m 35.01799,394.332936 c -71.558493,0 -115.711601,-50.2432 -115.711601,-130.93681 0,-80.6936 44.153108,-129.41428 115.711601,-129.41428 71.55848,0 117.23411,50.24319 117.23411,129.41428 0,79.17109 -44.15311,130.93681 -117.23411,130.93681 z m 133.98184,-312.1168 c -44.1531,10.65764 -50.24319,-45.67563 -4.56756,-47.198154 l 21.31529,-1.522521 V 91.055572 C 300.66154,72.78532 270.21112,71.262799 265.64355,88.01053 h -15.22521 a 21.315293,21.315293 0 0 1 3.04505,-10.657647 C 265.64355,56.03759 315.88675,56.03759 315.88675,89.533051 v 56.333279 h -15.22521 v -13.70269 a 27.405377,27.405377 0 0 1 -18.27026,13.70269 z m 103.53143,312.1168 c -54.81075,-3.04505 -92.87378,-28.9279 -95.91883,-74.60353 h 36.54051 c 35.01798,109.62151 222.28806,-7.61261 38.06303,-45.67563 -28.9279,-6.09008 -50.2432,-19.79277 -59.37833,-36.5405 C 247.3733,188.49691 471.18388,155.00145 477.27396,270.71305 h -35.01797 c -10.65766,-74.60353 -149.20706,-33.49547 -98.96387,18.27025 21.3153,21.31529 65.4684,19.79278 97.44135,33.49546 76.12604,35.01798 39.58554,138.54941 -54.81076,135.50437 z M 148.40944,229.60499 c -48.720679,0 -79.171099,38.06301 -79.171099,97.44133 0,59.37833 30.45042,97.44134 79.171099,97.44134 48.72066,0 80.6936,-36.5405 80.6936,-97.44134 0,-60.90084 -30.45041,-97.44133 -80.6936,-97.44133 z"/>
</svg>
