<svg xmlns="http://www.w3.org/2000/svg" viewBox="-5 0 32 32">
  <title>Ubuntu</title>
  <path fill="currentColor" stroke="currentColor" d="M16.469 9.375c-1.063-0.594-1.406-1.938-0.813-3 0.406-0.719 1.156-1.094 1.906-1.094 0.375 0 0.75 0.094 1.094 0.281 1.063 0.625 1.406 1.969 0.813 3-0.406 0.719-1.156 1.094-1.906 1.094-0.375 0-0.75-0.094-1.094-0.281zM21.938 15.594h-3.625c-0.125-1.688-0.969-3.188-2.25-4.156-0.219-0.156-0.438-0.313-0.688-0.469-0.813-0.438-1.75-0.688-2.75-0.688-1.031 0-1.969 0.25-2.813 0.719l-2-3.031c1.406-0.844 3.031-1.313 4.813-1.313 0.688 0 1.375 0.063 2.063 0.219-0.25 1.219 0.281 2.5 1.406 3.156 0.438 0.25 0.938 0.375 1.469 0.375 0.719 0 1.406-0.25 1.938-0.719 1.438 1.563 2.344 3.625 2.438 5.906zM7.125 8.438l2 3.031c-1.25 0.969-2.094 2.438-2.188 4.125-0.031 0.125-0.031 0.25-0.031 0.406 0 0.125 0 0.281 0.031 0.406 0.125 1.781 1.063 3.313 2.438 4.281l-1.906 3.094c-1.813-1.188-3.188-3-3.813-5.125 0.875-0.5 1.5-1.469 1.5-2.563s-0.625-2.094-1.563-2.594c0.594-2.063 1.844-3.844 3.531-5.063zM2.188 13.906c1.219 0 2.219 0.969 2.219 2.188s-1 2.219-2.219 2.219-2.188-1-2.188-2.219 0.969-2.188 2.188-2.188zM8.188 24.219l1.906-3.125c0.75 0.375 1.625 0.594 2.531 0.594 1 0 1.938-0.25 2.781-0.719 0.25-0.125 0.469-0.281 0.688-0.469 1.25-0.938 2.094-2.406 2.219-4.094h3.625c-0.094 2.375-1.094 4.531-2.656 6.125-0.469-0.344-1.063-0.531-1.656-0.531-0.531 0-1.031 0.125-1.469 0.375-1 0.594-1.531 1.656-1.469 2.719-0.688 0.156-1.375 0.25-2.063 0.25-1.625 0-3.125-0.406-4.438-1.125zM17.625 22.75c0.75 0 1.5 0.375 1.906 1.094 0.594 1.063 0.219 2.438-0.813 3.031-0.344 0.188-0.719 0.281-1.094 0.281-0.781 0-1.5-0.375-1.906-1.094-0.625-1.063-0.25-2.406 0.813-3.031 0.344-0.188 0.719-0.281 1.094-0.281z"/>
</svg>
