<?xml version="1.0" encoding="UTF-8"?>
<svg width="50px" height="80px" viewBox="0 0 50 80" version="1.1" xmlns="http://www.w3.org/2000/svg" xmlns:xlink="http://www.w3.org/1999/xlink">
    <title>Group Copy</title>
    <g id="Page-2" stroke="none" stroke-width="1" fill="none" fill-rule="evenodd">
        <g id="Desktop-L1-Copy-6" transform="translate(-40.000000, -40.000000)" fill="#FFFFFF">
            <g id="Group-Copy" transform="translate(40.000000, 40.000000)">
                <polygon id="Fill-1" points="0.981389474 0.304842105 0.981389474 3.03326316 7.87149474 3.03326316 7.87149474 25.5945263 0.981389474 25.5945263 0.981389474 28.4370526 18.3881263 28.4370526 18.3881263 25.5945263 11.2449684 25.5945263 11.2449684 0.304842105"/>
                <path d="M39.3084656,1.24344979e-13 C45.2301498,1.24344979e-13 49.0250972,3.94863158 49.0250972,12.7924211 C49.0250972,26.9951663 41.6980862,28.4449078 35.4708486,28.5381627 L35.0831544,28.5423279 C35.0188028,28.5427621 34.9545895,28.5430749 34.8905242,28.5432791 L30.3223604,28.5435789 L30.3223604,25.6972632 L35.0419393,25.6972632 C39.2541498,25.6972632 45.5699393,25.1111579 45.5699393,14.5751579 L45.4187814,14.5751579 C44.2040446,16.7002105 41.8520446,17.9536842 38.6996235,17.9536842 C34.7901498,17.9536842 30.0832025,15.4858947 30.0832025,9.18568421 C30.0832025,3.90989474 33.8815183,1.24344979e-13 39.3084656,1.24344979e-13 Z M39.231413,2.88547368 C36.4221498,2.88547368 33.575413,4.74442105 33.575413,9.10989474 C33.575413,13.0193684 36.1964656,15.144 39.3084656,15.144 C42.6865709,15.144 45.1897288,13.0193684 45.1897288,9.10989474 C45.1897288,4.97305263 42.2293077,2.88547368 39.231413,2.88547368 Z" id="Path-2"/>
                <path d="M9.66526316,50.8388632 C15.3136842,50.8388632 18.5730526,54.1744421 18.5730526,58.3811789 C18.5730526,61.8308632 16.3368421,64.2565474 13.9865263,65.0144421 L13.9865263,65.0906526 C16.4126316,65.6586526 19.3684211,67.7811789 19.3684211,72.0266526 C19.3684211,76.5365474 15.9953684,79.8721263 9.66526316,79.9483368 C3.336,80.0241263 -5.15143483e-14,76.6123368 -5.15143483e-14,72.0266526 C-5.15143483e-14,67.7811789 3.03284211,65.6586526 5.38273684,65.0906526 L5.38273684,65.0144421 C3.03284211,64.2565474 0.796631579,61.7925474 0.796631579,58.3811789 C0.796631579,54.1744421 4.01810526,50.8388632 9.66526316,50.8388632 Z M9.66526316,66.4927579 C6.48210526,66.4927579 3.52547368,68.1605474 3.52547368,71.8746526 C3.52547368,75.5891789 6.44421053,77.2194947 9.66526316,77.2194947 C13.0391579,77.2194947 15.8821053,75.5891789 15.8821053,71.8746526 C15.8821053,68.1605474 13.0012632,66.4927579 9.66526316,66.4927579 Z M9.66526316,53.5677053 C6.82315789,53.5677053 4.32126316,55.1976 4.32126316,58.6847579 C4.32126316,62.0961263 6.86105263,63.8013895 9.66526316,63.8013895 C12.4332632,63.8013895 15.0101053,62.0961263 15.0101053,58.6847579 C15.0101053,55.1976 12.4707368,53.5677053 9.66526316,53.5677053 Z" id="Path-3"/>
                <polygon id="Fill-8" points="45.354192 69.5461474 45.354192 57.4695158 42.090613 57.4695158 42.090613 69.5899368 33.3369288 69.5899368 33.3369288 51.2126737 30.0733498 51.2126737 30.0733498 72.4316211 42.090613 72.4316211 42.090613 79.3389895 45.354192 79.3389895 45.354192 72.4316211 49.0350341 72.4316211 49.0350341 69.5461474"/>
            </g>
        </g>
    </g>
</svg>