<?xml version="1.0" encoding="UTF-8"?>
<!-- Generated by Pixelmator Pro 3.5.11 -->
<svg width="2879" height="304" viewBox="0 0 2879 304" xmlns="http://www.w3.org/2000/svg">
    <g id="Layer-1">
        <g id="Group">
            <g id="g1">
                <path id="Path" fill="#5c77b7" stroke="none" d="M 354.765137 186.445282 C 354.352631 226.976318 353.094788 240.770721 347.24585 253.300507 C 336.379303 277.122894 313.81485 288.401733 270.355804 291.329712 C 253.227798 292.999878 219.796814 293.419159 164.22049 293.419159 C 83.990028 293.419159 58.085178 289.659546 35.520481 275.033447 C 7.938441 257.479401 5.6e-05 228.2341 5.6e-05 145.49498 C 5.6e-05 71.952164 8.357803 45.621063 37.609921 28.912415 C 62.676296 14.286346 89.419868 10.526703 167.560883 10.526703 C 271.613617 10.526703 294.17807 12.609283 317.993744 24.31427 C 340.558167 35.59314 351.005371 60.247162 351.005371 101.197464 L 351.005371 110.393753 L 269.943298 110.393753 C 268.273224 79.890656 262.004913 77.381958 188.455261 77.381958 C 119.091347 77.381958 106.554726 79.052139 96.107536 88.248413 C 86.07946 97.437836 83.990028 108.723572 83.990028 153.852737 C 83.990028 220.708008 90.258339 225.725403 171.739761 225.725403 C 234.842224 225.725403 244.031586 225.306137 255.736603 220.295593 C 267.853851 215.278198 272.445221 206.50116 272.445221 186.445282 L 354.765137 186.445282 Z"/>
                <path id="path1" fill="#5c77b7" stroke="none" d="M 723.764587 13.867065 C 766.804321 21.805573 787.691833 43.950897 793.547607 88.667694 C 795.217957 99.946533 796.049561 122.511124 796.049561 156.36145 C 796.049561 223.635925 788.949646 250.798676 765.127136 270.435303 C 748.418457 284.64212 725.01532 291.329712 684.484436 292.999878 C 669.438965 293.838409 632.24823 294.25769 605.085571 294.25769 C 538.6427 294.25769 504.799194 292.999878 488.08371 289.659546 C 457.16153 284.22287 439.195068 272.52475 428.747864 252.049622 C 417.881317 231.574448 415.372528 211.099304 415.372528 150.09314 C 415.372528 103.286896 416.211243 91.588776 421.228607 72.783813 C 429.166992 43.119263 445.463379 27.235382 476.804932 18.045959 C 500.201233 11.358368 525.693848 9.688202 599.236633 9.688202 C 679.467041 9.688202 704.120972 10.526703 723.764587 13.867065 Z M 515.665771 87.829147 C 504.380096 96.606186 501.039703 110.393753 501.039703 150.505524 C 501.039703 191.462677 504.380096 206.50116 514.827271 215.278198 C 526.112915 224.474472 539.900513 226.144638 603.834595 226.144638 C 676.958252 226.144638 692.003662 223.635925 701.612427 210.260773 C 709.550781 200.232834 711.640198 186.026001 711.640198 148.835327 C 711.640198 78.632874 710.389282 77.801224 605.924011 77.801224 C 543.660278 77.801224 526.525452 79.890656 515.665771 87.829147 Z"/>
                <path id="path2" fill="#5c77b7" stroke="none" d="M 862.918396 12.609283 L 1103.19043 12.609283 C 1152.498413 12.609283 1174.231567 16.788177 1190.108521 30.16333 C 1206.404663 43.119263 1213.92395 66.934753 1213.92395 104.544693 C 1213.92395 156.36145 1201.394165 176.836594 1165.873779 184.775116 C 1200.555786 190.624176 1211.00293 205.250244 1210.164429 247.451447 L 1210.164429 291.329712 L 1124.084839 291.329712 L 1124.084839 256.647766 C 1123.665649 226.557037 1115.307983 220.295593 1077.285522 221.127228 L 947.327759 221.127228 L 947.327759 291.329712 L 862.918396 291.329712 L 862.918396 12.609283 Z M 1079.794067 153.014221 C 1120.744629 153.014221 1128.682983 148.003677 1128.682983 120.421692 C 1128.682983 102.455246 1127.012939 94.929138 1121.576294 89.080078 C 1115.307983 82.399353 1108.207764 81.141571 1082.715454 81.141571 L 947.327759 81.141571 L 947.327759 153.014221 L 1079.794067 153.014221 Z"/>
                <path id="path3" fill="#5c77b7" stroke="none" d="M 1282.469971 12.609283 L 1522.742065 12.609283 C 1572.050049 12.609283 1593.776001 16.788177 1609.659912 30.16333 C 1625.956299 43.119263 1633.475586 66.934753 1633.475586 104.544693 C 1633.475586 156.36145 1620.938965 176.836594 1585.425171 184.775116 C 1620.107056 190.624176 1630.554565 205.250244 1629.71582 247.451447 L 1629.71582 291.329712 L 1543.636353 291.329712 L 1543.636353 256.647766 C 1543.217041 226.557037 1534.859253 220.295593 1496.836914 221.127228 L 1366.879272 221.127228 L 1366.879272 291.329712 L 1282.469971 291.329712 L 1282.469971 12.609283 Z M 1499.338867 153.014221 C 1540.289063 153.014221 1548.234619 148.003677 1548.234619 120.421692 C 1548.234619 102.455246 1546.557373 94.929138 1541.127563 89.080078 C 1534.859253 82.399353 1527.759399 81.141571 1502.266724 81.141571 L 1366.879272 81.141571 L 1366.879272 153.014221 L 1499.338867 153.014221 Z"/>
                <path id="path4" fill="#5c77b7" stroke="none" d="M 2211.511475 194.80304 L 2052.301514 12.609283 L 2160.533203 12.609283 L 2254.551025 127.940933 L 2347.737549 12.609283 L 2453.872803 12.609283 L 2296.759277 194.80304 L 2296.759277 291.329712 L 2211.511475 291.329712 L 2211.511475 194.80304 Z"/>
                <path id="path5" fill="#5c77b7" stroke="none" d="M 2498.029297 12.609283 L 2633.004395 12.609283 L 2801.822998 224.474472 L 2799.733643 12.609283 L 2879.964111 12.609283 L 2879.964111 291.329712 L 2743.738037 291.329712 L 2577.428223 81.560837 L 2579.517578 291.329712 L 2498.029297 291.329712 L 2498.029297 12.609283 Z"/>
                <path id="path6" fill="#5c77b7" stroke="none" d="M 2033.651978 106.634125 C 2030.723877 71.113632 2024.455566 53.566452 2008.997925 38.521088 C 1989.77356 19.296875 1962.198486 12.609283 1903.274902 12.609283 L 1697.80249 12.609283 L 1697.80249 36.740082 L 1697.80249 81.980087 L 1697.80249 139.097794 L 1780.803223 139.097794 L 1780.803223 81.980087 L 1891.157593 81.980087 C 1940.046265 81.980087 1950.081177 94.097473 1950.081177 152.594955 C 1950.081177 200.6521 1944.644531 215.278198 1924.169189 221.546509 C 1914.141357 224.886871 1912.471313 224.886871 1889.487305 224.886871 L 1697.80249 224.886871 L 1697.80249 291.329712 L 1914.560791 291.329712 C 1944.225098 291.329712 1956.761719 290.49118 1972.64563 287.150848 C 2003.148682 281.301758 2026.545044 255.389954 2031.143188 221.965759 C 2033.651978 206.081894 2035.322144 177.248993 2035.322144 152.182571 C 2035.322144 138.807404 2034.490356 119.583176 2033.651978 106.634125 Z"/>
            </g>
        </g>
    </g>
</svg>
