<?xml version="1.0" encoding="utf-8"?>
<!-- Generator: Adobe Illustrator 24.0.0, SVG Export Plug-In . SVG Version: 6.00 Build 0)  -->
<svg version="1.1" id="Layer_1" xmlns="http://www.w3.org/2000/svg" xmlns:xlink="http://www.w3.org/1999/xlink" x="0px" y="0px"
	 viewBox="0 0 591 407" style="enable-background:new 0 0 591 407;" xml:space="preserve">
<g>
	<path d="M113.33,305.42c2.29-1.24,3.74-3.49,3.74-6.39c0-4.52-3.62-7.56-10.65-7.56H92.67v29.06h14.55
		c7.39,0.01,11.25-2.9,11.25-7.93C118.48,308.95,116.47,306.46,113.33,305.42z M99.15,296.54h6.47c3.18,0,4.9,1.13,4.9,3.4
		c0,2.28-1.73,3.45-4.9,3.45h-6.47V296.54z M106.74,315.47h-7.6v-7.18h7.6c3.38,0,5.19,1.16,5.19,3.61S110.12,315.47,106.74,315.47z
		"/>
	<path d="M109.9,205.32c4.87,4,10.5,6.97,16.55,8.72l0.01-0.01c11.27,3.24,23.36,2.1,33.82-3.21
		c23.16-11.85,32.34-40.23,20.49-63.39c-4.51-8.82-11.68-15.99-20.49-20.49v0.01c-10.47-5.31-22.55-6.46-33.83-3.21
		c-5.46,1.58-10.59,4.16-15.12,7.6V84.36H92.67v84.53c0,0.79,0.02,1.57,0.06,2.35h-0.06v42.26h16.32L109.9,205.32z M126.45,140.92
		c3.67-1.69,7.65-2.56,11.69-2.56c8.86,0,16.8,4.15,22.14,10.69l0,0c4.56,5.6,7.03,12.61,7,19.84c0.03,7.22-2.45,14.24-7.01,19.84
		c-5.35,6.54-13.28,10.68-22.14,10.68c-4.04,0-8.02-0.87-11.69-2.56c-10.27-4.72-17.45-15.48-17.45-27.96
		S116.19,145.64,126.45,140.92z"/>
	<path d="M132.26,291.48l-5.81,13.45l0,0l-6.73,15.6h6.67l0.06-0.15l2.43-6.08h13.06l2.49,6.23h6.83l-12.58-29.06H132.26z
		 M130.98,309.21l4.45-11.13l4.46,11.13H130.98z"/>
	<polygon points="173.58,309.12 160.29,292.35 159.59,291.48 154.21,291.48 154.21,320.54 160.29,320.54 160.64,320.54 
		160.64,302.89 174.66,320.54 180.01,320.54 180.01,291.48 173.58,291.48 	"/>
	<polygon points="212.1,291.48 204.86,291.48 194.11,303.19 192.4,305.05 192.4,291.48 185.93,291.48 185.93,320.54 192.4,320.54 
		192.4,313.19 194.11,311.34 196.18,309.12 205.18,320.54 212.78,320.54 200.44,304.43 	"/>
	<polygon points="260.97,291.48 260.97,320.54 261.73,320.54 267.48,320.54 267.48,309.95 280.5,309.95 280.5,304.55 267.48,304.55 
		267.48,296.87 282.23,296.87 282.23,291.48 261.73,291.48 	"/>
	<path d="M240.67,290.98c-5.49,0-10.08,2.45-12.78,6.35c-1.74,2.56-2.65,5.58-2.62,8.67c-0.03,3.09,0.88,6.12,2.62,8.67
		c2.7,3.91,7.29,6.35,12.78,6.35c8.84,0.01,15.39-6.35,15.39-15.03S249.51,290.98,240.67,290.98z M241.42,315.31l0.01-0.01
		c-5.03,0-8.8-3.78-8.8-9.29c0-5.51,3.78-9.29,8.8-9.29c5.03,0,8.8,3.78,8.8,9.29C250.23,311.52,246.45,315.31,241.42,315.31z"/>
	<path d="M267.56,173.58c0.04,6.19-2.01,12.21-5.83,17.08c-4.27,5.36-10.52,8.75-17.49,8.75c-6.35,0-12.11-2.82-16.32-7.39
		l-0.03-0.05c-4.3-4.67-6.97-11.19-6.97-18.39v-49.31h-18.65v49.31c-0.02,16.94,10.06,32.26,25.63,38.93
		c10.84,4.61,23.13,4.43,33.83-0.51c14.95-6.95,24.5-21.94,24.48-38.43v-49.31h-18.66L267.56,173.58z"/>
	<polygon points="295.6,296.96 304.6,296.96 304.6,320.54 311.12,320.54 311.12,296.96 320.12,296.96 320.12,291.48 295.6,291.48 	
		"/>
	<polygon points="344.41,302.94 331.63,302.94 331.63,291.48 329.34,291.48 325.12,291.48 325.12,320.54 329.34,320.54 
		331.63,320.54 331.63,308.62 344.41,308.62 344.41,320.54 350.92,320.54 350.92,291.48 344.41,291.48 	"/>
	<polygon points="394.43,291.48 394.43,320.54 396.99,320.54 400.94,320.54 400.94,309.95 413.97,309.95 413.97,304.55 
		400.94,304.55 400.94,296.87 415.69,296.87 415.69,291.48 396.99,291.48 	"/>
	<path d="M363.17,125.25v0.02l-0.01-0.01c-5.16-2.2-10.71-3.34-16.32-3.33c-6.04-0.01-12.02,1.3-17.51,3.84
		c-14.94,6.95-24.49,21.95-24.47,38.43v49.31h18.65v-49.31c-0.04-6.18,2.01-12.19,5.81-17.05v0.01c4.27-5.38,10.54-8.78,17.51-8.78
		c6.35,0,12.12,2.81,16.32,7.39l0.01-0.01c4.31,4.69,6.99,11.22,6.99,18.43v49.31h18.65v-49.31
		C388.83,147.24,378.74,131.92,363.17,125.25z"/>
	<polygon points="363.31,308.41 376.37,308.41 376.37,303.18 363.31,303.18 363.31,296.87 378.1,296.87 378.1,291.48 363.16,291.48 
		356.84,291.48 356.84,320.54 363.16,320.54 378.63,320.54 378.63,315.14 363.31,315.14 	"/>
	<polygon points="456.13,315.14 456.13,308.41 464.6,308.41 469.19,308.41 469.19,303.18 464.6,303.18 456.13,303.18 456.13,296.87 
		464.6,296.87 470.92,296.87 470.92,291.48 464.6,291.48 449.65,291.48 449.65,320.54 464.6,320.54 471.44,320.54 471.44,315.14 
		464.6,315.14 	"/>
	<path d="M444.51,302.02c0-6.52-4.7-10.54-12.22-10.54h-1.51l0,0h-10.66v29.06h6.51v-8.1h4.15l0.01-0.01h1.83l5.43,8.09h6.99
		l-6.31-9.33C442.38,309.58,444.51,306.38,444.51,302.02z M431.93,307.09h-1.15l0,0h-4.15v-10.13h4.15v0h1.16
		c3.98,0,5.99,1.87,5.99,5.07C437.92,305.18,435.91,307.09,431.93,307.09z"/>
	<path d="M498.42,124.27H482.1l-0.9,8.18c-4.88-4-10.52-6.97-16.58-8.72v0.02l-0.01-0.02c-11.28-3.24-23.37-2.09-33.83,3.22v0
		c-23.16,11.86-32.31,40.25-20.44,63.41c4.5,8.79,11.66,15.94,20.44,20.44v0.01c10.46,5.31,22.55,6.46,33.83,3.22l0.01-0.02v0.02
		c5.47-1.58,10.61-4.16,15.15-7.6v46.97h18.65v-84.52c0-0.79-0.02-1.57-0.06-2.35h0.06V124.27z M464.62,196.86L464.62,196.86
		l-0.01,0c-3.66,1.68-7.64,2.55-11.67,2.55c-8.86,0-16.81-4.16-22.15-10.7l-0.01-0.02c-4.54-5.6-7.01-12.59-6.98-19.8
		c-0.03-7.21,2.44-14.21,6.98-19.82l0-0.01c5.35-6.55,13.29-10.7,22.16-10.7c4.03,0,8.01,0.87,11.67,2.55l0.01,0v0
		c10.28,4.72,17.48,15.48,17.48,27.98S474.9,192.14,464.62,196.86z"/>
	<polygon points="483.09,308.41 496.16,308.41 496.16,303.18 483.09,303.18 483.09,296.87 497.89,296.87 497.89,291.48 
		476.62,291.48 476.62,320.54 498.41,320.54 498.41,315.14 483.09,315.14 	"/>
</g>
</svg>
