<svg width="1068" height="1182" viewBox="0 0 1068 1182" fill="none" xmlns="http://www.w3.org/2000/svg">
<path d="M0.62207 767.343H54.0692C92.6119 767.343 121.646 773.767 141.432 788.672C161.99 804.089 173.295 829.269 173.295 860.617C173.295 888.369 164.558 911.495 146.829 927.683C128.328 944.385 99.8069 953.378 55.0969 953.378H0.62207V767.343ZM55.6098 908.668C89.271 908.668 102.89 901.988 110.856 892.48C117.792 884.001 120.362 872.695 120.362 860.617C120.362 843.145 114.966 830.555 104.432 822.589C93.1249 814.11 76.1669 812.053 55.3533 812.053H53.5546V908.668H55.6098Z" fill="#EB7647"/>
<path d="M290.99 764.517C347.005 764.517 390.431 806.657 390.431 860.361C390.431 914.065 347.005 956.205 290.99 956.205C234.974 956.205 191.549 914.065 191.549 860.361C191.549 806.657 234.974 764.517 290.99 764.517ZM290.99 908.668C317.2 908.668 337.498 887.342 337.498 860.361C337.498 833.382 317.2 812.053 290.99 812.053C264.78 812.053 244.481 833.382 244.481 860.361C244.481 887.342 264.78 908.668 290.99 908.668Z" fill="#EB7647"/>
<path d="M586.497 865.244C586.497 893.507 581.101 913.037 570.823 926.656C556.946 945.156 531.509 956.205 500.418 956.205C469.84 956.205 443.117 945.67 428.984 925.884C419.221 912.266 414.337 892.48 414.337 865.244V767.343H467.27V862.16C467.27 880.147 469.327 890.681 474.465 897.876C479.605 905.071 488.598 910.21 501.446 910.21C513.008 910.21 521.488 906.099 526.884 899.418C532.794 892.223 535.62 880.403 535.62 862.16V767.343H586.497V865.244Z" fill="#EB7647"/>
<path d="M616.826 767.343H674.383C703.932 767.343 722.176 770.684 735.024 777.879C748.386 785.331 757.38 797.407 757.38 814.11C757.38 831.583 747.358 842.888 729.115 849.827V850.34C755.066 859.077 765.087 875.522 765.087 896.077C765.087 917.662 754.039 934.363 732.712 943.872C718.579 950.295 699.822 953.378 677.21 953.378H616.826V767.343ZM681.064 841.604C696.996 841.604 704.447 836.721 704.447 825.416C704.447 819.505 702.392 815.138 696.739 812.312C692.884 810.255 686.974 809.485 675.926 809.485H669.758V841.604H681.064ZM677.466 911.238C692.627 911.238 700.335 909.952 704.703 907.641C709.843 904.814 712.155 900.189 712.155 893.507C712.155 880.918 703.419 875.522 686.46 875.522H669.758V911.238H677.466Z" fill="#EB7647"/>
<path d="M786.677 767.343H839.61V908.668H917.21V953.378H786.677V767.343Z" fill="#EB7647"/>
<path d="M943.17 767.343H1064.45V812.053H996.102V835.693H1053.92V877.833H996.102V908.668H1067.54V953.378H943.17V767.343Z" fill="#EB7647"/>
<path d="M35.8289 995.736H157.111V1040.45H88.7614V1064.09H146.575V1106.23H88.7614V1137.06H160.194V1181.77H35.8289V995.736Z" fill="#EB7647"/>
<path d="M191.549 995.736H244.481V1137.06H322.081V1181.77H191.549V995.736Z" fill="#EB7647"/>
<path d="M348.041 995.736H469.323V1040.45H400.974V1064.09H458.788V1106.23H400.974V1137.06H472.406V1181.77H348.041V995.736Z" fill="#EB7647"/>
<path d="M487.314 995.736H544.101L569.796 1068.45C575.192 1083.87 580.332 1098.78 585.213 1113.68H585.728C590.866 1098.52 596.52 1082.59 601.915 1067.94L628.381 995.736H682.856L611.679 1181.77H558.49L487.314 995.736Z" fill="#EB7647"/>
<path d="M698.283 995.736H819.566V1040.45H751.216V1064.09H809.03V1106.23H751.216V1137.06H822.648V1181.77H698.283V995.736Z" fill="#EB7647"/>
<path d="M933.402 1114.45C923.124 1100.57 914.13 1087.98 904.88 1074.62L904.366 1074.88C904.622 1090.55 904.88 1106.48 904.88 1122.16V1181.77H854.003V995.736H903.595L952.93 1063.06C963.209 1076.93 972.201 1089.52 981.453 1102.89L981.966 1102.63C981.709 1086.96 981.453 1071.02 981.453 1055.35V995.736H1032.33V1181.77H982.737L933.402 1114.45Z" fill="#EB7647"/>
<path d="M854.474 148.863H833.223C759.855 148.863 683.587 0.669189 504.546 0.669189C338.99 0.669189 280.395 109.919 213.469 142.16C185.681 155.545 179.716 186.834 192.991 207.382C221.446 261.702 294.853 390.033 260.794 562.573L255.053 584.362C250.724 600.791 260.533 617.618 276.962 621.947L312.861 631.406C329.29 635.735 346.117 625.926 350.446 609.497L359.222 576.19C359.284 575.954 359.314 575.718 359.371 575.481C369.131 539.654 380.547 463.73 360.688 365.485H360.704C360.688 365.394 360.673 365.303 360.673 365.208C360.673 364.393 361.334 363.732 362.149 363.732C362.435 363.732 362.705 363.818 362.934 363.956C455.26 435.01 464.257 640.086 671.035 640.086C757.999 640.086 818.352 581.473 818.352 509.906C818.352 442.907 769.156 389.822 693.721 389.822C691.631 389.822 689.612 389.868 687.627 389.936C687.096 389.954 686.561 389.969 686.036 389.99C684.413 390.061 682.826 390.154 681.273 390.267C680.257 390.339 679.262 390.424 678.273 390.513C677.953 390.543 677.642 390.576 677.326 390.608C667.36 391.569 658.754 393.387 651.366 395.842C639.513 399.658 631.072 404.661 624.885 408.961C623.759 409.695 622.645 410.46 621.559 411.289L618.107 413.921L607.85 421.744C595.582 431.103 593.222 448.634 602.58 460.903L629.109 495.684C638.467 507.952 655.999 510.312 668.268 500.954C676.733 494.497 682.567 490.382 689.396 488.599C690.07 488.432 690.762 488.29 691.461 488.159C691.887 488.08 692.314 488 692.751 487.938C693.3 487.856 693.858 487.789 694.425 487.734C695.487 487.638 696.561 487.56 697.708 487.56C706.291 487.56 721.013 495.357 721.013 509.906C721.013 528.756 705.065 543.04 671.035 543.04C575.055 543.04 556.402 466.046 506.952 385.56C619.636 382.117 687.508 338.434 715.885 320.242C717.896 319.192 719.861 318 721.759 316.64L722.996 315.754C723.145 315.663 723.315 315.556 723.46 315.469C725.947 313.97 728.175 312.343 730.173 310.613L737.775 305.167C749.537 296.742 752.241 280.377 743.815 268.616L717.578 231.991C709.153 220.23 692.788 217.526 681.028 225.951L671.671 232.653C670.976 233.04 670.35 233.45 669.803 233.881C669.269 234.302 668.527 234.875 667.608 235.564L665.011 237.424C664.728 237.627 664.458 237.843 664.18 238.051C644.849 251.704 584.377 288.376 491.525 288.376C447.726 288.376 412.188 278.476 383.48 264.043C380.522 262.408 377.511 260.796 374.431 259.211C345.115 242.69 323.563 221.599 308.049 202.531C305.153 198.972 305.701 193.746 309.232 190.817C333.85 170.408 362.234 146.535 395.535 128.117C395.063 132.249 394.796 136.442 394.796 140.699C394.796 201.313 443.932 250.449 504.546 250.449C565.159 250.449 614.296 201.313 614.296 140.699C614.296 136.793 614.084 132.936 613.686 129.135C687.377 172.153 739.895 244.769 830.498 246.214C831.347 246.258 832.2 246.282 833.059 246.282H854.474C869.639 246.282 881.933 233.988 881.933 218.823V176.322C881.933 161.157 869.639 148.863 854.474 148.863Z" fill="#EB7647"/>
</svg>
