<svg width="2879" height="305" viewBox="0 0 2879 305" fill="none" xmlns="http://www.w3.org/2000/svg">
<g clip-path="url(#clip0_1310_831)">
<path d="M354.765 186.945C354.353 227.476 353.095 241.271 347.246 253.801C336.379 277.623 313.815 288.902 270.356 291.83C253.228 293.5 219.797 293.919 164.22 293.919C83.99 293.919 58.0851 290.16 35.5204 275.534C7.93838 257.98 0 228.734 0 145.995C0 72.4523 8.35775 46.1212 37.6099 29.4126C62.6762 14.7865 89.4198 11.0269 167.561 11.0269C271.614 11.0269 294.178 13.1094 317.994 24.8144C340.558 36.0933 351.005 60.7473 351.005 101.698V110.894H269.943C268.273 80.3908 262.005 77.8821 188.455 77.8821C119.091 77.8821 106.555 79.5523 96.1075 88.7486C86.0794 97.938 83.99 109.224 83.99 154.353C83.99 221.208 90.2583 226.226 171.74 226.226C234.842 226.226 244.032 225.806 255.737 220.796C267.854 215.778 272.445 207.001 272.445 186.945H354.765Z" fill="#F8F7F7"/>
<path d="M723.765 14.3671C766.804 22.3056 787.692 44.4509 793.548 89.1677C795.218 100.447 796.05 123.011 796.05 156.861C796.05 224.136 788.95 251.299 765.127 270.935C748.418 285.142 725.015 291.83 684.484 293.5C669.439 294.338 632.248 294.758 605.086 294.758C538.643 294.758 504.799 293.5 488.084 290.16C457.162 284.723 439.195 273.025 428.748 252.55C417.881 232.074 415.373 211.599 415.373 150.593C415.373 103.787 416.211 92.0888 421.229 73.2838C429.167 43.6193 445.463 27.7354 476.805 18.546C500.201 11.8584 525.694 10.1882 599.237 10.1882C679.467 10.1882 704.121 11.0267 723.765 14.3671ZM515.666 88.3292C504.38 97.1062 501.04 110.894 501.04 151.006C501.04 191.963 504.38 207.001 514.827 215.778C526.113 224.975 539.901 226.645 603.835 226.645C676.958 226.645 692.004 224.136 701.612 210.761C709.551 200.733 711.64 186.526 711.64 149.335C711.64 79.1329 710.389 78.3013 605.924 78.3013C543.66 78.3013 526.525 80.3907 515.666 88.3292Z" fill="#F8F7F7"/>
<path d="M862.918 13.1094H1103.19C1152.5 13.1094 1174.23 17.2883 1190.11 30.6634C1206.4 43.6194 1213.92 67.4348 1213.92 105.045C1213.92 156.862 1201.39 177.337 1165.87 185.275C1200.56 191.124 1211 205.75 1210.16 247.952V291.83H1124.08V257.148C1123.67 227.057 1115.31 220.796 1077.29 221.627H947.328V291.83H862.918V13.1094ZM1079.79 153.514C1120.74 153.514 1128.68 148.504 1128.68 120.922C1128.68 102.955 1127.01 95.4292 1121.58 89.5802C1115.31 82.8994 1108.21 81.6417 1082.72 81.6417H947.328V153.514H1079.79Z" fill="#F8F7F7"/>
<path d="M1282.47 13.1094H1522.74C1572.05 13.1094 1593.78 17.2883 1609.66 30.6634C1625.96 43.6194 1633.48 67.4348 1633.48 105.045C1633.48 156.862 1620.94 177.337 1585.42 185.275C1620.11 191.124 1630.55 205.75 1629.72 247.952V291.83H1543.64V257.148C1543.22 227.057 1534.86 220.796 1496.84 221.627H1366.88V291.83H1282.47V13.1094ZM1499.34 153.514C1540.29 153.514 1548.23 148.504 1548.23 120.922C1548.23 102.955 1546.56 95.4292 1541.13 89.5802C1534.86 82.8994 1527.76 81.6417 1502.27 81.6417H1366.88V153.514H1499.34Z" fill="#F8F7F7"/>
<path d="M2211.51 195.303L2052.3 13.1094H2160.53L2254.55 128.441L2347.74 13.1094H2453.87L2296.76 195.303V291.83H2211.51V195.303Z" fill="#F8F7F7"/>
<path d="M2498.03 13.1094H2633L2801.82 224.975L2799.73 13.1094H2879.96V291.83H2743.74L2577.43 82.0609L2579.52 291.83H2498.03V13.1094Z" fill="#F8F7F7"/>
<path d="M2033.65 107.134C2030.72 71.6137 2024.46 54.0665 2009 39.0212C1989.77 19.797 1962.2 13.1094 1903.28 13.1094H1697.8V37.2402V82.4802V139.598H1780.8V82.4802H1891.16C1940.05 82.4802 1950.08 94.5976 1950.08 153.095C1950.08 201.152 1944.64 215.778 1924.17 222.047C1914.14 225.387 1912.47 225.387 1889.49 225.387H1697.8V291.83H1914.56C1944.23 291.83 1956.76 290.991 1972.65 287.651C2003.15 281.802 2026.55 255.89 2031.14 222.466C2033.65 206.582 2035.32 177.749 2035.32 152.683C2035.32 139.307 2034.49 120.083 2033.65 107.134Z" fill="#F8F7F7"/>
</g>
<defs>
<clipPath id="clip0_1310_831">
<rect width="2879" height="304" fill="white" transform="translate(0 0.5)"/>
</clipPath>
</defs>
</svg>
