<?xml version="1.0" encoding="utf-8"?>
<!-- Generator: Adobe Illustrator 19.2.1, SVG Export Plug-In . SVG Version: 6.00 Build 0)  -->
<svg version="1.1" id="layer" xmlns="http://www.w3.org/2000/svg" xmlns:xlink="http://www.w3.org/1999/xlink" x="0px" y="0px"
	 viewBox="0 0 652 652" style="enable-background:new 0 0 652 652;" xml:space="preserve">
<style type="text/css">
	.st0{fill:#35B5B9;}
	.st1{fill:#0A96AA;}
	.st2{fill:#97BE47;}
	.st3{fill:#34A050;}
	.st4{fill:#068D4C;}
	.st5{fill:#FFFFFF;}
</style>
<g>
	<path class="st0" d="M255.2,229.9c13.5,1.5,26.7,3.8,39.7,6.9c3.6-4,7.2-8.1,11-12c16.4-17.1,34-32.3,52.6-45.5
		c-39-34.5-77.4-67.4-111.3-94.8c-13-11.1-31.4-15.5-49-9.9c-17.6,5.6-30.1,19.8-34.3,36.4c-11.3,40.1-22.5,83.9-33.3,128.9
		C170.1,228.8,212.2,225,255.2,229.9"/>
	<path class="st0" d="M204.5,461.7c-39.8,6.9-80.5,6.7-120.1-0.4c-3,17.1-5.8,33.8-8.3,49.9c-3.1,16.9,2.3,35,15.9,47.4
		c13.7,12.5,32.2,16.2,48.7,11.5v0c22.5-5.7,46.5-12.2,71.5-19.2C205.9,521.6,203.3,491.6,204.5,461.7"/>
	<path class="st1" d="M204.5,461.7c3.2-80,33.3-159.8,90.4-224.8c-12.9-3.1-26.1-5.4-39.7-6.9c-43.1-4.9-85.2-1.1-124.6,10
		c-17.7,73.9-33.9,151.2-46.2,221.4C124,468.3,164.7,468.6,204.5,461.7"/>
	<path class="st2" d="M528.8,446.9c0.8-0.3,1.6-0.6,2.5-0.9c16.2-5.7,29.2-19.5,33.1-37.5c3.9-18-2.1-35.9-14.4-47.9
		c-27-27.9-59.6-59.9-94.7-92.9c-6.3,14-13.6,27.6-21.9,40.7C475.8,345.4,508.9,393.1,528.8,446.9"/>
	<path class="st3" d="M305.9,224.8c-3.8,3.9-7.4,7.9-11,12c52.4,12.6,99.4,37.6,138.5,71.6c8.2-13.1,15.5-26.7,21.9-40.7
		c-31.1-29.3-64.2-59.5-96.8-88.4C339.9,192.6,322.2,207.7,305.9,224.8"/>
	<path class="st3" d="M433.4,308.4c-23.9,38-55.6,71.7-94.8,98.6c-41.5,28.6-87.2,46.6-134,54.7c-1.2,30,1.4,60,7.7,89.2
		c103.2-29.1,222.6-67.7,316.5-104C508.8,393.1,475.8,345.4,433.4,308.4"/>
	<path class="st4" d="M433.4,308.4c-39.1-34-86.1-59-138.5-71.6c-57.1,65-87.1,144.9-90.4,224.8c46.8-8.1,92.5-26.1,134-54.7
		C377.7,380.1,409.4,346.4,433.4,308.4"/>
	<path class="st5" d="M357.9,376.3c-5.3-6.5-17-12.5-27.4-17.8c-7.5-3.8-14.5-7.4-16.4-10c-2-2.7-3-5.5-3-8.8c0-1.6,0.9-7.1,3.8-9.9
		c2.8-2.7,6.3-4.1,10.6-4.1c8.7,0,15.7,4.9,15.9,5.1c0.1,0,0.1,0.2,0.1,0.2l0.8,1.9c0.3,1.1,1.4,1.9,2.5,1.9h11.8
		c1.3,0,2.4-1.1,2.4-2.4v-19.8c0-1.2-0.9-2.3-2-2.6c0,0-12.1-3-16.1-3.6c-5.7-0.9-11.4-1.3-17.2-1.3H323c-12.9,0-22.9,3.4-29.8,10.1
		c-7,6.7-17.6,27.2-4.3,45.8c6.3,8.8,18.1,15.4,29.7,21.1c9.1,4.4,17,8.4,17,17.3c0,10.4-11.6,12-18.6,12c-11.7,0-26.4-6.1-28.1-6.8
		l-1.4-0.6c-1.4-0.6-2.9,0.3-3,1.7c-0.1,0.7-0.9,4.2-1.8,10.2c-1,6.7-0.9,9.3-0.9,9.3c-0.1,1.3,0.8,2.4,1.9,2.7
		c0.9,0.3,21.1,6.6,35.9,6.6c10.7,0,16.2-1.4,22.3-4.1c3.4-1.4,9.7-5.8,10.1-6.1c8.2-6.9,12.4-16.2,12.4-27.6
		C364.6,388.7,362.4,381.8,357.9,376.3"/>
	<path class="st5" d="M471.4,308h-90.7c-2.3,0-4.1,1.9-4.1,4.1v21.6c0,1.2,1,2.2,2.2,2.2h10.8c1,0,2-0.7,2.3-1.7l0.8-2.5h20.5v93.6
		c0,2.1,1.7,3.8,3.8,3.8H435c2.1,0,3.8-1.7,3.8-3.8v-93.6h20.4l0.9,2.5c0.3,1,1.3,1.7,2.3,1.7h10.8c1.2,0,2.3-1,2.3-2.2v-21.6
		C475.6,309.9,473.7,308,471.4,308"/>
	<path class="st5" d="M264.8,312.2c0-2-2-4.1-4-4.1h-26.4c-1.6,0-3.8,1.4-4.6,2.8l-30.5,58.3l-30.4-58.5c-0.8-1.5-2.8-2.6-4.4-2.6
		l-26.8,0c-1.9,0-3.9,2.1-3.9,4.1h0v16.6c0,1.1,0.8,2.1,1.9,2.3l5.1,1v93.4c0,2.1,1.7,3.9,3.8,3.9h17.9c2.1,0,3.8-1.7,3.8-3.9v-70.4
		l18.1,34.8c0.9,2,2.8,2.9,4.8,2.9l0,0h20.2l0,0c2,0,4-1,4.9-3l18.1-34.7v70.5c0,2.1,1.7,3.9,3.8,3.9H254c2.1,0,3.8-1.7,3.8-3.9V332
		l5.1-1c1.1-0.2,1.9-1.2,1.9-2.3V312.2L264.8,312.2z"/>
</g>
</svg>
