<svg width="591" height="408" viewBox="0 0 591 408" fill="none" xmlns="http://www.w3.org/2000/svg">
<path d="M113.33 305.92C115.62 304.68 117.07 302.43 117.07 299.53C117.07 295.01 113.45 291.97 106.42 291.97H92.6699V321.03H107.22C114.61 321.04 118.47 318.13 118.47 313.1C118.48 309.45 116.47 306.96 113.33 305.92ZM99.1499 297.04H105.62C108.8 297.04 110.52 298.17 110.52 300.44C110.52 302.72 108.79 303.89 105.62 303.89H99.1499V297.04ZM106.74 315.97H99.1399V308.79H106.74C110.12 308.79 111.93 309.95 111.93 312.4C111.93 314.85 110.12 315.97 106.74 315.97Z" fill="#F8F7F7"/>
<path d="M109.9 205.82C114.77 209.82 120.4 212.79 126.45 214.54L126.46 214.53C137.73 217.77 149.82 216.63 160.28 211.32C183.44 199.47 192.62 171.09 180.77 147.93C176.26 139.11 169.09 131.94 160.28 127.44V127.45C149.81 122.14 137.73 120.99 126.45 124.24C120.99 125.82 115.86 128.4 111.33 131.84V84.8601H92.6699V169.39C92.6699 170.18 92.6899 170.96 92.7299 171.74H92.6699V214H108.99L109.9 205.82ZM126.45 141.42C130.12 139.73 134.1 138.86 138.14 138.86C147 138.86 154.94 143.01 160.28 149.55C164.84 155.15 167.31 162.16 167.28 169.39C167.31 176.61 164.83 183.63 160.27 189.23C154.92 195.77 146.99 199.91 138.13 199.91C134.09 199.91 130.11 199.04 126.44 197.35C116.17 192.63 108.99 181.87 108.99 169.39C108.99 156.91 116.19 146.14 126.45 141.42Z" fill="#F8F7F7"/>
<path d="M132.26 291.98L126.45 305.43L119.72 321.03H126.39L126.45 320.88L128.88 314.8H141.94L144.43 321.03H151.26L138.68 291.97H132.26V291.98ZM130.98 309.71L135.43 298.58L139.89 309.71H130.98Z" fill="#F8F7F7"/>
<path d="M173.58 309.62L160.29 292.85L159.59 291.98H154.21V321.04H160.29H160.64V303.39L174.66 321.04H180.01V291.98H173.58V309.62Z" fill="#F8F7F7"/>
<path d="M212.1 291.98H204.86L194.11 303.69L192.4 305.55V291.98H185.93V321.04H192.4V313.69L194.11 311.84L196.18 309.62L205.18 321.04H212.78L200.44 304.93L212.1 291.98Z" fill="#F8F7F7"/>
<path d="M260.97 291.98V321.04H261.73H267.48V310.45H280.5V305.05H267.48V297.37H282.23V291.98H261.73H260.97Z" fill="#F8F7F7"/>
<path d="M240.67 291.48C235.18 291.48 230.59 293.93 227.89 297.83C226.15 300.39 225.24 303.41 225.27 306.5C225.24 309.59 226.15 312.62 227.89 315.17C230.59 319.08 235.18 321.52 240.67 321.52C249.51 321.53 256.06 315.17 256.06 306.49C256.06 297.81 249.51 291.48 240.67 291.48ZM241.42 315.81L241.43 315.8C236.4 315.8 232.63 312.02 232.63 306.51C232.63 301 236.41 297.22 241.43 297.22C246.46 297.22 250.23 301 250.23 306.51C250.23 312.02 246.45 315.81 241.42 315.81Z" fill="#F8F7F7"/>
<path d="M267.56 174.08C267.6 180.27 265.55 186.29 261.73 191.16C257.46 196.52 251.21 199.91 244.24 199.91C237.89 199.91 232.13 197.09 227.92 192.52L227.89 192.47C223.59 187.8 220.92 181.28 220.92 174.08V124.77H202.27V174.08C202.25 191.02 212.33 206.34 227.9 213.01C238.74 217.62 251.03 217.44 261.73 212.5C276.68 205.55 286.23 190.56 286.21 174.07V124.76H267.55L267.56 174.08Z" fill="#F8F7F7"/>
<path d="M295.6 297.46H304.6V321.04H311.12V297.46H320.12V291.98H295.6V297.46Z" fill="#F8F7F7"/>
<path d="M344.41 303.44H331.63V291.98H329.34H325.12V321.04H329.34H331.63V309.12H344.41V321.04H350.92V291.98H344.41V303.44Z" fill="#F8F7F7"/>
<path d="M394.43 291.98V321.04H396.99H400.94V310.45H413.97V305.05H400.94V297.37H415.69V291.98H396.99H394.43Z" fill="#F8F7F7"/>
<path d="M363.17 125.75V125.77L363.16 125.76C358 123.56 352.45 122.42 346.84 122.43C340.8 122.42 334.82 123.73 329.33 126.27C314.39 133.22 304.84 148.22 304.86 164.7V214.01H323.51V164.7C323.47 158.52 325.52 152.51 329.32 147.65V147.66C333.59 142.28 339.86 138.88 346.83 138.88C353.18 138.88 358.95 141.69 363.15 146.27L363.16 146.26C367.47 150.95 370.15 157.48 370.15 164.69V214H388.8V164.69C388.83 147.74 378.74 132.42 363.17 125.75Z" fill="#F8F7F7"/>
<path d="M363.31 308.91H376.37V303.68H363.31V297.37H378.1V291.98H363.16H356.84V321.04H363.16H378.63V315.64H363.31V308.91Z" fill="#F8F7F7"/>
<path d="M456.13 315.64V308.91H464.6H469.19V303.68H464.6H456.13V297.37H464.6H470.92V291.98H464.6H449.65V321.04H464.6H471.44V315.64H464.6H456.13Z" fill="#F8F7F7"/>
<path d="M444.51 302.52C444.51 296 439.81 291.98 432.29 291.98H430.78H420.12V321.04H426.63V312.94H430.78L430.79 312.93H432.62L438.05 321.02H445.04L438.73 311.69C442.38 310.08 444.51 306.88 444.51 302.52ZM431.93 307.59H430.78H426.63V297.46H430.78H431.94C435.92 297.46 437.93 299.33 437.93 302.53C437.92 305.68 435.91 307.59 431.93 307.59Z" fill="#F8F7F7"/>
<path d="M498.42 124.77H482.1L481.2 132.95C476.32 128.95 470.68 125.98 464.62 124.23V124.25L464.61 124.23C453.33 120.99 441.24 122.14 430.78 127.45C407.62 139.31 398.47 167.7 410.34 190.86C414.84 199.65 422 206.8 430.78 211.3V211.31C441.24 216.62 453.33 217.77 464.61 214.53L464.62 214.51V214.53C470.09 212.95 475.23 210.37 479.77 206.93V253.9H498.42V169.38C498.42 168.59 498.4 167.81 498.36 167.03H498.42V124.77ZM464.62 197.36H464.61C460.95 199.04 456.97 199.91 452.94 199.91C444.08 199.91 436.13 195.75 430.79 189.21L430.78 189.19C426.24 183.59 423.77 176.6 423.8 169.39C423.77 162.18 426.24 155.18 430.78 149.57V149.56C436.13 143.01 444.07 138.86 452.94 138.86C456.97 138.86 460.95 139.73 464.61 141.41H464.62C474.9 146.13 482.1 156.89 482.1 169.39C482.1 181.89 474.9 192.64 464.62 197.36Z" fill="#F8F7F7"/>
<path d="M483.09 308.91H496.16V303.68H483.09V297.37H497.89V291.98H476.62V321.04H498.41V315.64H483.09V308.91Z" fill="#F8F7F7"/>
</svg>
