<svg width="198" height="157" viewBox="0 0 198 157" fill="none" xmlns="http://www.w3.org/2000/svg">
<path fill-rule="evenodd" clip-rule="evenodd" d="M137.932 58.9576L153.801 41.1529L130.499 36.0727L132.873 12.3396L111.034 21.9255L98.9991 1.33105L86.9719 21.9234L65.1365 12.3314L67.5057 36.0645L44.2008 41.1405L60.0677 58.9494L44.1982 76.7541L67.5006 81.8343L65.1267 105.566L86.9652 95.9805L99.0001 116.575L111.027 95.9835L132.864 105.575L130.495 81.8414L153.799 76.7654L137.932 58.9576ZM145.63 72.3516L131.884 67.6498L122.764 55.7962L134.895 60.3031L145.63 72.3516ZM108.802 93.5227L100.581 107.598V92.6727L109.126 80.204L108.802 93.5227ZM94.4014 35.1674L80.2554 30.1369L71.7914 18.7092L86.6264 25.2256L94.4014 35.1674ZM111.38 25.2286L126.213 18.7164L117.744 30.1369L103.602 35.166L111.38 25.2286ZM127.254 36.7456L119.877 47.2067L120.295 32.0071L128.887 20.4209L127.254 36.7456ZM98.9996 89.386L89.1019 74.9447L98.9996 61.5145L108.897 74.9447L98.9996 89.386ZM81.3971 51.2496L80.9154 33.7277L97.4184 39.5962V56.6478L81.3971 51.2496ZM100.581 39.5962L117.084 33.7277L116.602 51.2496L100.581 56.6478V39.5962ZM70.7513 36.7393L69.1217 20.418L77.7045 32.0062L78.1222 47.2024L70.7513 36.7393ZM96.441 59.6564L86.547 73.0815L69.7385 68.1265L80.4116 54.2554L96.441 59.6564ZM88.8708 80.201L97.4184 92.6728V107.601L89.1903 93.5201L88.8708 80.201ZM101.558 59.6564L117.588 54.2554L128.261 68.1266L111.452 73.0816L101.558 59.6564ZM147.839 43.0902L135.352 57.0992L120.628 51.629L129.474 39.0855L147.839 43.0902ZM99.0001 7.60018L108.473 23.8109L99 35.9145L89.5331 23.8093L99.0001 7.60018ZM50.1632 43.0779L68.5308 39.0786L77.3716 51.6281L62.6482 57.0912L50.1632 43.0779ZM63.1043 60.2951L75.2384 55.7926L66.117 67.6483L52.365 72.3436L63.1043 60.2951ZM53.0598 75.4489L67.1139 70.6505L81.7518 74.9652L69.1395 78.9552L53.0598 75.4489ZM70.6837 81.7828L85.6321 77.0535L86.0133 92.9437L68.812 100.495L70.6837 81.7828ZM111.979 92.9475L112.366 77.0543L127.311 81.7886L129.179 100.502L111.979 92.9475ZM128.856 78.961L116.244 74.966L130.887 70.6501L144.943 75.4581L128.856 78.961Z" fill="#F8F7F7"/>
<path fill-rule="evenodd" clip-rule="evenodd" d="M0 128.686H6.82461L10.0374 146.416L14.7707 128.686H20.7719L26.3907 146.726L29.6772 128.686H36.1621L30.6142 155.215H23.1269L18.1485 138.663L13.0551 155.215H5.20028L0 128.686ZM198 155.215H191.175L187.968 137.421L183.23 155.215H177.227L171.632 137.179L168.324 155.215H161.837L167.386 128.686H174.872L179.85 145.251L184.948 128.686H192.799L198 155.215ZM50.4549 128.227C59.0903 128.227 63.5951 133.437 63.5951 141.95C63.5951 150.388 59.0158 155.669 50.4549 155.669C41.8976 155.669 37.3182 150.388 37.3182 141.95C37.3182 133.437 41.8222 128.227 50.4549 128.227ZM50.4549 150.424C54.6983 150.424 56.3858 146.319 56.3858 141.95C56.3858 137.347 54.6983 133.472 50.4549 133.472C46.2124 133.472 44.524 137.347 44.524 141.95C44.524 146.319 46.2124 150.424 50.4549 150.424ZM67.4995 128.682H74.4829V149.967H85.2942V155.21H67.4995V128.682ZM88.1848 128.682H105.71V133.7H95.1658V139.517H105.26V144.531H95.1658V155.21H88.1848L88.1848 128.682ZM109.361 128.682H121.823C126.479 128.682 130.271 130.809 130.271 135.374C130.271 138.91 128.619 141.264 125.241 142.062V142.139C127.491 142.748 127.644 144.763 128.957 147.994L131.507 155.21H124.226L122.727 150.424C121.298 145.864 120.399 144.722 117.809 144.722H116.342V155.21H109.361V128.682ZM116.342 139.708H118.185C120.435 139.708 123.289 139.63 123.289 136.627C123.289 134.158 120.848 133.7 118.185 133.7H116.342V139.708ZM142.085 128.682H150.646L160.743 155.21H153.085L151.133 149.55H141.3L139.234 155.21H132.137L142.085 128.682ZM146.366 134.158H146.293L142.915 144.531H149.481L146.366 134.158Z" fill="#F8F7F7"/>
</svg>
