<svg width="164" height="32" viewBox="0 0 164 32" fill="none" xmlns="http://www.w3.org/2000/svg">
<g clip-path="url(#clip0_1310_868)">
<path d="M17.36 3.36998L13.67 7.41998C11.72 6.27998 10.32 5.69998 9.47 5.69998C9.14573 5.70294 8.82592 5.77596 8.5325 5.91405C8.23908 6.05213 7.97897 6.252 7.77 6.49998C7.53754 6.73173 7.35401 7.00784 7.23033 7.31189C7.10664 7.61595 7.04532 7.94176 7.05 8.26998C7.05 9.62998 8.28 10.8 10.75 11.8C12.1744 12.37 13.5435 13.0696 14.84 13.89C15.8078 14.5571 16.603 15.4449 17.16 16.48C17.7817 17.5735 18.1026 18.8122 18.09 20.07C18.0878 21.2455 17.831 22.4066 17.3373 23.4734C16.8436 24.5402 16.1247 25.4875 15.23 26.25C13.3981 27.9675 10.9709 28.9069 8.46 28.87C5.6 28.87 2.79 27.52 0 24.87L3.91 20.31C5.65 22.11 7.29 23.02 8.81 23.02C9.20384 22.9976 9.58939 22.8977 9.94459 22.7261C10.2998 22.5545 10.6177 22.3146 10.88 22.02C11.1756 21.7736 11.417 21.4687 11.5891 21.1245C11.7612 20.7804 11.8603 20.4043 11.88 20.02C11.88 18.58 10.3633 17.3133 7.33 16.22C6.01823 15.8058 4.77232 15.2064 3.63 14.44C2.82971 13.8007 2.20086 12.9726 1.8 12.03C1.28347 11.0132 1.00964 9.89044 1 8.74998C0.951959 7.6378 1.14011 6.52807 1.55206 5.49388C1.96401 4.45969 2.59042 3.52452 3.39 2.74998C4.23756 1.97762 5.22991 1.38106 6.30959 0.994849C7.38928 0.608632 8.53486 0.44043 9.68 0.499981C12.5167 0.41645 15.2733 1.44661 17.36 3.36998ZM45.47 24.74L48.87 28.65L44.87 31.19L41.78 27.5C39.7899 28.2852 37.6785 28.7183 35.54 28.78C33.6818 28.8409 31.8316 28.511 30.109 27.8117C28.3863 27.1123 26.8298 26.059 25.54 24.72C24.218 23.3259 23.1884 21.6813 22.5117 19.8832C21.8351 18.0851 21.5251 16.1697 21.6 14.25C21.6114 10.7191 22.9748 7.32672 25.41 4.76998C26.6762 3.36242 28.2364 2.25035 29.98 1.51248C31.7236 0.7746 33.608 0.428948 35.5 0.499981C37.3345 0.453968 39.159 0.785263 40.8602 1.47333C42.5615 2.1614 44.1033 3.19157 45.39 4.49998C46.6991 5.79459 47.7293 7.34345 48.4172 9.05121C49.1051 10.759 49.4362 12.5895 49.39 14.43C49.4644 18.2382 48.026 21.9206 45.39 24.67L45.47 24.74ZM37.89 22.94L35 19.5L38.9 16.95L41.57 20.11C42.7546 18.6119 43.336 16.725 43.2 14.82C43.3277 12.5018 42.5779 10.2205 41.1 8.42998C40.4068 7.63561 39.5431 7.00807 38.5735 6.59423C37.6038 6.18038 36.5532 5.99092 35.5 6.03998C34.467 6.01127 33.4401 6.20746 32.4904 6.61496C31.5407 7.02246 30.691 7.63153 30 8.39998C28.5243 10.081 27.751 12.2649 27.84 14.5C27.7508 16.7588 28.4786 18.9741 29.89 20.74C30.5114 21.5216 31.3048 22.1494 32.2085 22.5743C33.1121 22.9993 34.1016 23.2099 35.1 23.19C36.0351 23.1792 36.9679 23.0957 37.89 22.94ZM54.48 0.869981H60.33V17.73C60.2672 19.1081 60.7361 20.4578 61.64 21.5C62.0721 21.9723 62.6019 22.3448 63.1925 22.5918C63.783 22.8387 64.4203 22.9541 65.06 22.93C65.7553 22.9722 66.4517 22.8666 67.1033 22.6201C67.7548 22.3736 68.3467 21.9919 68.84 21.5C69.7965 20.3718 70.277 18.9159 70.18 17.44V0.869981H76V18.72C75.9714 20.4161 75.5612 22.084 74.8 23.6C74.0162 25.2793 72.6973 26.651 71.05 27.5C69.3052 28.4142 67.3596 28.8782 65.39 28.85C61.62 28.85 58.85 27.8 57.1 25.69C55.4601 23.8616 54.5304 21.5056 54.48 19.05V0.869981ZM89.8 0.869981H94.39L105.65 28.44H99.65L97.39 23.02H86.87L84.71 28.44H78.77L89.8 0.869981ZM92.1 9.86998L88.89 18H95.42L92.1 9.89998V9.86998ZM109.93 0.869981H119C121.379 0.74194 123.718 1.52504 125.54 3.05998C126.345 3.80998 126.976 4.72634 127.391 5.74528C127.805 6.76421 127.993 7.86123 127.94 8.95998C127.909 10.4908 127.533 11.9948 126.84 13.36C125.97 15.012 124.526 16.2888 122.78 16.95L130.48 28.44H123.68L116.54 17.78H115.87V28.44H109.93V0.869981ZM115.93 5.78998V12.97H117.21C120.303 12.97 121.85 11.7033 121.85 9.16998C121.867 8.69056 121.765 8.21439 121.554 7.78359C121.343 7.35279 121.029 6.98062 120.64 6.69998C119.653 6.03758 118.476 5.71784 117.29 5.78998H115.93ZM135.23 0.869981H150.75V6.32998H141.17V22.98H154.77V28.44H135.23V0.869981ZM152.23 11.97H146.85V17.34H152.23V11.97Z" fill="#F8F7F7"/>
<path d="M154.45 0.870117H163.82V28.4401H157.97V6.33012H153.43L154.45 0.870117Z" fill="#F8F7F7"/>
</g>
<defs>
<clipPath id="clip0_1310_868">
<rect width="163.82" height="30.69" fill="white" transform="translate(0 0.5)"/>
</clipPath>
</defs>
</svg>
