<svg width="800" height="971" viewBox="0 0 800 971" fill="none" xmlns="http://www.w3.org/2000/svg">
<line x1="402.5" y1="171" x2="402.5" y2="742" stroke="#5E00D6" stroke-width="5"/>
<rect x="146" y="386" width="507" height="507" stroke="#FF7300" stroke-width="8" stroke-dasharray="20 10"/>
<g clip-path="url(#clip0_2_246)">
<g filter="url(#filter0_i_2_246)">
<circle cx="400" cy="515.344" r="44" fill="white"/>
</g>
<circle cx="400" cy="515.344" r="43" stroke="#1B140E" stroke-width="2"/>
<path fill-rule="evenodd" clip-rule="evenodd" d="M410.951 483.375C426.454 496.287 410.405 524.905 416.068 536.46C404.43 519.76 420.287 505.408 410.951 483.375Z" fill="#EF7A30"/>
<path fill-rule="evenodd" clip-rule="evenodd" d="M419.548 508.229C429.682 514.813 417.517 530.241 423.993 534.19C430.551 538.189 429.809 521.568 438.864 525.832C429.436 522.624 433.347 542.413 421.665 539.78C408.296 536.766 424.922 515.501 419.548 508.229Z" fill="#7F3900"/>
<path fill-rule="evenodd" clip-rule="evenodd" d="M360.812 530.774C380.112 515.397 406.401 540.073 418.807 541.615C434.761 543.597 430.511 525.151 438.497 525.838C431.138 526.726 435.555 546.017 419.104 546.614C401.189 547.263 383.315 519.948 360.813 530.774H360.812Z" fill="#331700"/>
</g>
<path d="M191.591 508.68V503.864H210.551V508.68H203.831V527H198.359V508.68H191.591ZM223.302 503.544C225.094 503.544 226.689 503.901 228.086 504.616C229.494 505.32 230.63 506.296 231.494 507.544C232.358 508.781 232.875 510.195 233.046 511.784H227.334C227.206 511.016 226.961 510.349 226.598 509.784C226.246 509.208 225.777 508.76 225.19 508.44C224.614 508.12 223.926 507.96 223.126 507.96C222.198 507.96 221.387 508.195 220.694 508.664C220.001 509.123 219.462 509.891 219.078 510.968C218.705 512.035 218.518 513.464 218.518 515.256C218.518 517.987 218.934 519.944 219.766 521.128C220.609 522.312 221.729 522.904 223.126 522.904C223.926 522.904 224.614 522.712 225.19 522.328C225.777 521.944 226.246 521.432 226.598 520.792C226.961 520.141 227.206 519.437 227.334 518.68H233.046C232.897 519.821 232.625 520.915 232.23 521.96C231.846 522.995 231.286 523.917 230.55 524.728C229.814 525.539 228.854 526.173 227.67 526.632C226.497 527.091 225.041 527.32 223.302 527.32C221.105 527.32 219.201 526.808 217.59 525.784C215.979 524.749 214.731 523.32 213.846 521.496C212.961 519.672 212.518 517.565 212.518 515.176C212.518 512.797 212.955 510.739 213.83 509C214.705 507.261 215.947 505.917 217.558 504.968C219.179 504.019 221.094 503.544 223.302 503.544ZM236.852 527V503.864H245.7C247.386 503.864 248.906 504.163 250.26 504.76C251.615 505.357 252.682 506.232 253.46 507.384C254.25 508.525 254.644 509.923 254.644 511.576C254.644 513.101 254.303 514.413 253.62 515.512C252.948 516.6 251.994 517.437 250.756 518.024C249.53 518.6 248.079 518.888 246.404 518.888H242.324V527H236.852ZM242.276 514.76H246.244C247.215 514.76 248.015 514.419 248.644 513.736C249.284 513.043 249.604 512.227 249.604 511.288C249.604 510.317 249.263 509.523 248.58 508.904C247.908 508.275 247.114 507.96 246.196 507.96H242.276V514.76ZM255.93 527.288L264.042 503.864H267.738L259.61 527.288H255.93ZM269.915 527V524.472V523.176C269.915 522.003 270.134 520.995 270.571 520.152C271.008 519.299 271.584 518.557 272.299 517.928C273.014 517.299 273.798 516.749 274.651 516.28C275.515 515.8 276.374 515.363 277.227 514.968C278.091 514.563 278.88 514.163 279.595 513.768C280.31 513.363 280.886 512.925 281.323 512.456C281.76 511.976 281.979 511.411 281.979 510.76C281.979 509.96 281.696 509.299 281.131 508.776C280.566 508.253 279.792 507.992 278.811 507.992C277.808 507.992 276.923 508.291 276.155 508.888C275.398 509.475 274.912 510.424 274.699 511.736H269.531C269.542 510.2 269.888 508.813 270.571 507.576C271.264 506.339 272.304 505.357 273.691 504.632C275.078 503.907 276.827 503.544 278.939 503.544C280.752 503.544 282.31 503.848 283.611 504.456C284.923 505.053 285.931 505.891 286.635 506.968C287.339 508.045 287.691 509.293 287.691 510.712C287.691 511.875 287.478 512.872 287.051 513.704C286.635 514.536 286.075 515.251 285.371 515.848C284.678 516.435 283.915 516.941 283.083 517.368C282.262 517.795 281.435 518.184 280.603 518.536C279.771 518.888 279.003 519.24 278.299 519.592C277.606 519.944 277.046 520.339 276.619 520.776C276.203 521.213 275.995 521.741 275.995 522.36V522.472H287.611V527H269.915ZM290.79 527V524.472V523.176C290.79 522.003 291.009 520.995 291.446 520.152C291.883 519.299 292.459 518.557 293.174 517.928C293.889 517.299 294.673 516.749 295.526 516.28C296.39 515.8 297.249 515.363 298.102 514.968C298.966 514.563 299.755 514.163 300.47 513.768C301.185 513.363 301.761 512.925 302.198 512.456C302.635 511.976 302.854 511.411 302.854 510.76C302.854 509.96 302.571 509.299 302.006 508.776C301.441 508.253 300.667 507.992 299.686 507.992C298.683 507.992 297.798 508.291 297.03 508.888C296.273 509.475 295.787 510.424 295.574 511.736H290.406C290.417 510.2 290.763 508.813 291.446 507.576C292.139 506.339 293.179 505.357 294.566 504.632C295.953 503.907 297.702 503.544 299.814 503.544C301.627 503.544 303.185 503.848 304.486 504.456C305.798 505.053 306.806 505.891 307.51 506.968C308.214 508.045 308.566 509.293 308.566 510.712C308.566 511.875 308.353 512.872 307.926 513.704C307.51 514.536 306.95 515.251 306.246 515.848C305.553 516.435 304.79 516.941 303.958 517.368C303.137 517.795 302.31 518.184 301.478 518.536C300.646 518.888 299.878 519.24 299.174 519.592C298.481 519.944 297.921 520.339 297.494 520.776C297.078 521.213 296.87 521.741 296.87 522.36V522.472H308.486V527H290.79Z" fill="#1B140E"/>
<circle cx="405" cy="381" r="24" fill="white"/>
<path fill-rule="evenodd" clip-rule="evenodd" d="M406.5 342.409C405.96 341.897 405.244 341.612 404.5 341.612C403.756 341.612 403.04 341.897 402.501 342.409C394.275 350.22 383.32 354.504 371.977 354.344C371.359 354.336 370.755 354.525 370.252 354.884C369.749 355.243 369.373 355.752 369.179 356.339C367.544 361.323 366.713 366.536 366.719 371.781C366.719 394.806 382.467 414.147 403.775 419.63C404.251 419.752 404.749 419.752 405.225 419.63C426.533 414.147 442.281 394.806 442.281 371.781C442.281 366.395 441.417 361.202 439.821 356.339C439.628 355.752 439.252 355.241 438.749 354.881C438.246 354.522 437.641 354.332 437.023 354.34L436.469 354.344C424.859 354.344 414.315 349.81 406.5 342.409ZM418.489 373.471C418.721 373.161 418.889 372.808 418.984 372.432C419.078 372.056 419.096 371.666 419.037 371.283C418.977 370.9 418.842 370.533 418.639 370.203C418.436 369.873 418.169 369.587 417.854 369.362C417.539 369.137 417.182 368.977 416.804 368.891C416.427 368.806 416.035 368.797 415.654 368.865C415.273 368.933 414.909 369.077 414.584 369.287C414.259 369.498 413.979 369.771 413.761 370.092L401.222 387.645L394.929 381.352C394.378 380.839 393.649 380.56 392.896 380.573C392.143 380.586 391.425 380.891 390.892 381.424C390.36 381.956 390.055 382.675 390.042 383.427C390.028 384.18 390.308 384.909 390.821 385.46L399.54 394.179C399.838 394.477 400.198 394.706 400.594 394.852C400.99 394.997 401.413 395.054 401.833 395.019C402.253 394.985 402.661 394.859 403.028 394.651C403.395 394.443 403.712 394.157 403.958 393.814L418.489 373.471Z" fill="#5E00D6"/>
<defs>
<filter id="filter0_i_2_246" x="356" y="471.344" width="88" height="88" filterUnits="userSpaceOnUse" color-interpolation-filters="sRGB">
<feFlood flood-opacity="0" result="BackgroundImageFix"/>
<feBlend mode="normal" in="SourceGraphic" in2="BackgroundImageFix" result="shape"/>
<feColorMatrix in="SourceAlpha" type="matrix" values="0 0 0 0 0 0 0 0 0 0 0 0 0 0 0 0 0 0 127 0" result="hardAlpha"/>
<feOffset/>
<feGaussianBlur stdDeviation="5"/>
<feComposite in2="hardAlpha" operator="arithmetic" k2="-1" k3="1"/>
<feColorMatrix type="matrix" values="0 0 0 0 0 0 0 0 0 0 0 0 0 0 0 0 0 0 0.1 0"/>
<feBlend mode="normal" in2="shape" result="effect1_innerShadow_2_246"/>
</filter>
<clipPath id="clip0_2_246">
<rect width="88" height="88" fill="white" transform="translate(356 471)"/>
</clipPath>
</defs>
</svg>
