<svg width="800" height="971" viewBox="0 0 800 971" fill="none" xmlns="http://www.w3.org/2000/svg">
<line x1="402.5" y1="171" x2="402.5" y2="742" stroke="#5E00D6" stroke-width="5"/>
<rect x="146" y="386" width="507" height="507" stroke="#FF7300" stroke-width="8" stroke-dasharray="20 10"/>
<g clip-path="url(#clip0_2_246)">
<g filter="url(#filter0_i_2_246)">
<circle cx="400" cy="515.344" r="44" fill="white"/>
</g>
<circle cx="400" cy="515.344" r="43" stroke="#1B140E" stroke-width="2"/>
<path fill-rule="evenodd" clip-rule="evenodd" d="M410.951 483.375C426.454 496.287 410.405 524.905 416.068 536.46C404.43 519.76 420.287 505.408 410.951 483.375Z" fill="#EF7A30"/>
<path fill-rule="evenodd" clip-rule="evenodd" d="M419.548 508.229C429.682 514.813 417.517 530.241 423.993 534.19C430.551 538.189 429.809 521.568 438.864 525.832C429.436 522.624 433.347 542.413 421.665 539.78C408.296 536.766 424.922 515.501 419.548 508.229Z" fill="#7F3900"/>
<path fill-rule="evenodd" clip-rule="evenodd" d="M360.812 530.774C380.112 515.397 406.401 540.073 418.807 541.615C434.761 543.597 430.511 525.151 438.497 525.838C431.138 526.726 435.555 546.017 419.104 546.614C401.189 547.263 383.315 519.948 360.813 530.774H360.812Z" fill="#331700"/>
</g>
<path d="M191.591 508.68V503.864H210.551V508.68H203.831V527H198.359V508.68H191.591ZM223.302 503.544C225.094 503.544 226.689 503.901 228.086 504.616C229.494 505.32 230.63 506.296 231.494 507.544C232.358 508.781 232.875 510.195 233.046 511.784H227.334C227.206 511.016 226.961 510.349 226.598 509.784C226.246 509.208 225.777 508.76 225.19 508.44C224.614 508.12 223.926 507.96 223.126 507.96C222.198 507.96 221.387 508.195 220.694 508.664C220.001 509.123 219.462 509.891 219.078 510.968C218.705 512.035 218.518 513.464 218.518 515.256C218.518 517.987 218.934 519.944 219.766 521.128C220.609 522.312 221.729 522.904 223.126 522.904C223.926 522.904 224.614 522.712 225.19 522.328C225.777 521.944 226.246 521.432 226.598 520.792C226.961 520.141 227.206 519.437 227.334 518.68H233.046C232.897 519.821 232.625 520.915 232.23 521.96C231.846 522.995 231.286 523.917 230.55 524.728C229.814 525.539 228.854 526.173 227.67 526.632C226.497 527.091 225.041 527.32 223.302 527.32C221.105 527.32 219.201 526.808 217.59 525.784C215.979 524.749 214.731 523.32 213.846 521.496C212.961 519.672 212.518 517.565 212.518 515.176C212.518 512.797 212.955 510.739 213.83 509C214.705 507.261 215.947 505.917 217.558 504.968C219.179 504.019 221.094 503.544 223.302 503.544ZM236.852 527V503.864H245.7C247.386 503.864 248.906 504.163 250.26 504.76C251.615 505.357 252.682 506.232 253.46 507.384C254.25 508.525 254.644 509.923 254.644 511.576C254.644 513.101 254.303 514.413 253.62 515.512C252.948 516.6 251.994 517.437 250.756 518.024C249.53 518.6 248.079 518.888 246.404 518.888H242.324V527H236.852ZM242.276 514.76H246.244C247.215 514.76 248.015 514.419 248.644 513.736C249.284 513.043 249.604 512.227 249.604 511.288C249.604 510.317 249.263 509.523 248.58 508.904C247.908 508.275 247.114 507.96 246.196 507.96H242.276V514.76ZM255.93 527.288L264.042 503.864H267.738L259.61 527.288H255.93ZM269.915 527V524.472V523.176C269.915 522.003 270.134 520.995 270.571 520.152C271.008 519.299 271.584 518.557 272.299 517.928C273.014 517.299 273.798 516.749 274.651 516.28C275.515 515.8 276.374 515.363 277.227 514.968C278.091 514.563 278.88 514.163 279.595 513.768C280.31 513.363 280.886 512.925 281.323 512.456C281.76 511.976 281.979 511.411 281.979 510.76C281.979 509.96 281.696 509.299 281.131 508.776C280.566 508.253 279.792 507.992 278.811 507.992C277.808 507.992 276.923 508.291 276.155 508.888C275.398 509.475 274.912 510.424 274.699 511.736H269.531C269.542 510.2 269.888 508.813 270.571 507.576C271.264 506.339 272.304 505.357 273.691 504.632C275.078 503.907 276.827 503.544 278.939 503.544C280.752 503.544 282.31 503.848 283.611 504.456C284.923 505.053 285.931 505.891 286.635 506.968C287.339 508.045 287.691 509.293 287.691 510.712C287.691 511.875 287.478 512.872 287.051 513.704C286.635 514.536 286.075 515.251 285.371 515.848C284.678 516.435 283.915 516.941 283.083 517.368C282.262 517.795 281.435 518.184 280.603 518.536C279.771 518.888 279.003 519.24 278.299 519.592C277.606 519.944 277.046 520.339 276.619 520.776C276.203 521.213 275.995 521.741 275.995 522.36V522.472H287.611V527H269.915ZM290.79 527V524.472V523.176C290.79 522.003 291.009 520.995 291.446 520.152C291.883 519.299 292.459 518.557 293.174 517.928C293.889 517.299 294.673 516.749 295.526 516.28C296.39 515.8 297.249 515.363 298.102 514.968C298.966 514.563 299.755 514.163 300.47 513.768C301.185 513.363 301.761 512.925 302.198 512.456C302.635 511.976 302.854 511.411 302.854 510.76C302.854 509.96 302.571 509.299 302.006 508.776C301.441 508.253 300.667 507.992 299.686 507.992C298.683 507.992 297.798 508.291 297.03 508.888C296.273 509.475 295.787 510.424 295.574 511.736H290.406C290.417 510.2 290.763 508.813 291.446 507.576C292.139 506.339 293.179 505.357 294.566 504.632C295.953 503.907 297.702 503.544 299.814 503.544C301.627 503.544 303.185 503.848 304.486 504.456C305.798 505.053 306.806 505.891 307.51 506.968C308.214 508.045 308.566 509.293 308.566 510.712C308.566 511.875 308.353 512.872 307.926 513.704C307.51 514.536 306.95 515.251 306.246 515.848C305.553 516.435 304.79 516.941 303.958 517.368C303.137 517.795 302.31 518.184 301.478 518.536C300.646 518.888 299.878 519.24 299.174 519.592C298.481 519.944 297.921 520.339 297.494 520.776C297.078 521.213 296.87 521.741 296.87 522.36V522.472H308.486V527H290.79Z" fill="#1B140E"/>
<circle cx="405" cy="381" r="24" fill="white"/>
<path fill-rule="evenodd" clip-rule="evenodd" d="M406.5 342.409C405.96 341.897 405.244 341.612 404.5 341.612C403.756 341.612 403.04 341.897 402.501 342.409C394.275 350.22 383.32 354.504 371.977 354.344C371.359 354.336 370.755 354.525 370.252 354.884C369.749 355.243 369.373 355.752 369.179 356.339C367.544 361.323 366.713 366.536 366.719 371.781C366.719 394.806 382.467 414.147 403.775 419.63C404.251 419.752 404.749 419.752 405.225 419.63C426.533 414.147 442.281 394.806 442.281 371.781C442.281 366.395 441.417 361.202 439.821 356.339C439.628 355.752 439.252 355.241 438.749 354.881C438.246 354.522 437.641 354.332 437.023 354.34L436.469 354.344C424.859 354.344 414.315 349.81 406.5 342.409ZM418.489 373.471C418.721 373.161 418.889 372.808 418.984 372.432C419.078 372.056 419.096 371.666 419.037 371.283C418.977 370.9 418.842 370.533 418.639 370.203C418.436 369.873 418.169 369.587 417.854 369.362C417.539 369.137 417.182 368.977 416.804 368.891C416.427 368.806 416.035 368.797 415.654 368.865C415.273 368.933 414.909 369.077 414.584 369.287C414.259 369.498 413.979 369.771 413.761 370.092L401.222 387.645L394.929 381.352C394.378 380.839 393.649 380.56 392.896 380.573C392.143 380.586 391.425 380.891 390.892 381.424C390.36 381.956 390.055 382.675 390.042 383.427C390.028 384.18 390.308 384.909 390.821 385.46L399.54 394.179C399.838 394.477 400.198 394.706 400.594 394.852C400.99 394.997 401.413 395.054 401.833 395.019C402.253 394.985 402.661 394.859 403.028 394.651C403.395 394.443 403.712 394.157 403.958 393.814L418.489 373.471Z" fill="#5E00D6"/>
<g clip-path="url(#clip1_2_246)">
<mask id="mask0_2_246" style="mask-type:alpha" maskUnits="userSpaceOnUse" x="261" y="35" width="278" height="210">
<rect x="261" y="35" width="278" height="210" rx="16" fill="#1B140E"/>
</mask>
<g mask="url(#mask0_2_246)">
<rect x="261" y="35" width="278" height="210" rx="16" fill="#1B140E"/>
<g filter="url(#filter1_i_2_246)">
<path d="M269.357 35H530.643C532.86 35 534.985 36.6607 536.552 39.6168C538.12 42.5729 539 46.5822 539 50.7627V66H261V50.7627C261 46.5822 261.88 42.5729 263.448 39.6168C265.015 36.6607 267.14 35 269.357 35V35Z" fill="#F8F7F7"/>
</g>
</g>
<path d="M283.315 58.114C286.649 58.114 289.353 55.4093 289.353 52.0729C289.353 48.7364 286.649 46.0317 283.315 46.0317C279.98 46.0317 277.277 48.7364 277.277 52.0729C277.277 55.4093 279.98 58.114 283.315 58.114Z" fill="#A7A3A0"/>
<path d="M303.792 58.114C307.126 58.114 309.83 55.4093 309.83 52.0729C309.83 48.7364 307.126 46.0317 303.792 46.0317C300.457 46.0317 297.754 48.7364 297.754 52.0729C297.754 55.4093 300.457 58.114 303.792 58.114Z" fill="#A7A3A0"/>
<path d="M324.269 58.114C327.603 58.114 330.307 55.4093 330.307 52.0729C330.307 48.7364 327.603 46.0317 324.269 46.0317C320.934 46.0317 318.23 48.7364 318.23 52.0729C318.23 55.4093 320.934 58.114 324.269 58.114Z" fill="#A7A3A0"/>
<path d="M290.123 108.226L297.704 105.15L290.123 101.695V98.0698L302.477 104.247V106.346L290.123 111.827V108.226ZM322.069 109.752C322.069 110.631 321.874 111.408 321.483 112.083C321.092 112.759 320.466 113.288 319.603 113.67C318.749 114.053 317.621 114.244 316.222 114.244C315.237 114.244 314.354 114.191 313.573 114.085C312.8 113.98 312.014 113.776 311.217 113.475V109.654C312.088 110.053 312.975 110.342 313.878 110.521C314.781 110.692 315.493 110.777 316.014 110.777C316.551 110.777 316.942 110.72 317.186 110.606C317.438 110.484 317.564 110.305 317.564 110.069C317.564 109.866 317.479 109.695 317.308 109.557C317.145 109.41 316.848 109.243 316.417 109.056C315.994 108.869 315.396 108.617 314.623 108.299C313.858 107.982 313.219 107.636 312.706 107.262C312.201 106.887 311.823 106.44 311.571 105.919C311.319 105.398 311.192 104.759 311.192 104.002C311.192 102.652 311.713 101.634 312.755 100.951C313.797 100.267 315.176 99.9253 316.893 99.9253C317.805 99.9253 318.663 100.027 319.469 100.23C320.274 100.426 321.109 100.715 321.971 101.097L320.665 104.173C319.981 103.864 319.29 103.616 318.59 103.429C317.89 103.242 317.333 103.148 316.917 103.148C316.543 103.148 316.254 103.197 316.051 103.294C315.847 103.392 315.746 103.535 315.746 103.722C315.746 103.893 315.815 104.043 315.953 104.173C316.1 104.304 316.372 104.454 316.771 104.625C317.17 104.796 317.752 105.036 318.517 105.345C319.322 105.671 319.986 106.021 320.506 106.395C321.035 106.761 321.426 107.209 321.678 107.738C321.939 108.267 322.069 108.938 322.069 109.752ZM335.008 109.752C335.008 110.631 334.813 111.408 334.422 112.083C334.032 112.759 333.405 113.288 332.542 113.67C331.688 114.053 330.561 114.244 329.161 114.244C328.176 114.244 327.293 114.191 326.512 114.085C325.739 113.98 324.954 113.776 324.156 113.475V109.654C325.027 110.053 325.914 110.342 326.817 110.521C327.721 110.692 328.433 110.777 328.954 110.777C329.491 110.777 329.881 110.72 330.125 110.606C330.378 110.484 330.504 110.305 330.504 110.069C330.504 109.866 330.418 109.695 330.248 109.557C330.085 109.41 329.788 109.243 329.356 109.056C328.933 108.869 328.335 108.617 327.562 108.299C326.797 107.982 326.158 107.636 325.646 107.262C325.141 106.887 324.763 106.44 324.51 105.919C324.258 105.398 324.132 104.759 324.132 104.002C324.132 102.652 324.653 101.634 325.694 100.951C326.736 100.267 328.115 99.9253 329.833 99.9253C330.744 99.9253 331.603 100.027 332.408 100.23C333.214 100.426 334.048 100.715 334.911 101.097L333.604 104.173C332.921 103.864 332.229 103.616 331.529 103.429C330.829 103.242 330.272 103.148 329.857 103.148C329.483 103.148 329.194 103.197 328.99 103.294C328.787 103.392 328.685 103.535 328.685 103.722C328.685 103.893 328.754 104.043 328.893 104.173C329.039 104.304 329.312 104.454 329.71 104.625C330.109 104.796 330.691 105.036 331.456 105.345C332.262 105.671 332.925 106.021 333.446 106.395C333.975 106.761 334.365 107.209 334.618 107.738C334.878 108.267 335.008 108.938 335.008 109.752ZM342.442 95.0059V97.7036C342.442 98.729 342.418 99.5916 342.369 100.292C342.328 100.983 342.288 101.512 342.247 101.878H342.467C342.768 101.398 343.11 101.016 343.492 100.731C343.875 100.446 344.298 100.243 344.762 100.121C345.226 99.9904 345.73 99.9253 346.275 99.9253C347.187 99.9253 348.009 100.1 348.741 100.45C349.482 100.8 350.072 101.349 350.511 102.098C350.951 102.839 351.17 103.807 351.17 105.003V114H346.373V106.456C346.373 105.536 346.239 104.845 345.97 104.381C345.702 103.909 345.287 103.673 344.725 103.673C344.147 103.673 343.692 103.84 343.358 104.173C343.024 104.499 342.788 104.979 342.65 105.614C342.512 106.24 342.442 107.009 342.442 107.921V114H337.669V95.0059H342.442ZM370.763 114H365.868V105.174C365.868 105.012 365.868 104.715 365.868 104.283C365.868 103.844 365.872 103.36 365.88 102.831C365.896 102.302 365.917 101.826 365.941 101.402C365.729 101.655 365.53 101.87 365.343 102.049C365.164 102.228 364.989 102.395 364.818 102.55L362.792 104.222L360.289 101.146L366.417 96.1533H370.763V114ZM387.682 105.101C387.682 106.533 387.568 107.815 387.34 108.946C387.112 110.069 386.746 111.026 386.241 111.815C385.745 112.604 385.086 113.207 384.264 113.622C383.442 114.037 382.433 114.244 381.236 114.244C379.747 114.244 378.526 113.882 377.574 113.158C376.622 112.425 375.918 111.38 375.462 110.021C375.015 108.653 374.791 107.014 374.791 105.101C374.791 103.172 374.994 101.524 375.401 100.157C375.816 98.7819 376.496 97.728 377.44 96.9956C378.384 96.2632 379.649 95.897 381.236 95.897C382.726 95.897 383.942 96.2632 384.886 96.9956C385.838 97.7199 386.542 98.7697 386.998 100.145C387.454 101.512 387.682 103.164 387.682 105.101ZM379.588 105.101C379.588 106.265 379.629 107.241 379.71 108.031C379.8 108.82 379.963 109.414 380.199 109.813C380.443 110.204 380.789 110.399 381.236 110.399C381.684 110.399 382.026 110.204 382.262 109.813C382.498 109.414 382.66 108.824 382.75 108.043C382.84 107.254 382.884 106.273 382.884 105.101C382.884 103.921 382.84 102.936 382.75 102.147C382.66 101.358 382.498 100.764 382.262 100.365C382.026 99.9578 381.684 99.7544 381.236 99.7544C380.789 99.7544 380.443 99.9578 380.199 100.365C379.963 100.764 379.8 101.358 379.71 102.147C379.629 102.936 379.588 103.921 379.588 105.101ZM389.61 111.974C389.61 111.111 389.863 110.505 390.367 110.155C390.88 109.805 391.494 109.63 392.21 109.63C392.886 109.63 393.472 109.805 393.968 110.155C394.465 110.505 394.713 111.111 394.713 111.974C394.713 112.796 394.465 113.39 393.968 113.756C393.472 114.122 392.886 114.305 392.21 114.305C391.494 114.305 390.88 114.122 390.367 113.756C389.863 113.39 389.61 112.796 389.61 111.974ZM407.286 114H402.391V105.174C402.391 105.012 402.391 104.715 402.391 104.283C402.391 103.844 402.395 103.36 402.403 102.831C402.42 102.302 402.44 101.826 402.464 101.402C402.253 101.655 402.053 101.87 401.866 102.049C401.687 102.228 401.512 102.395 401.341 102.55L399.315 104.222L396.812 101.146L402.94 96.1533H407.286V114ZM424.205 105.101C424.205 106.533 424.091 107.815 423.863 108.946C423.635 110.069 423.269 111.026 422.765 111.815C422.268 112.604 421.609 113.207 420.787 113.622C419.965 114.037 418.956 114.244 417.76 114.244C416.271 114.244 415.05 113.882 414.098 113.158C413.146 112.425 412.442 111.38 411.986 110.021C411.538 108.653 411.314 107.014 411.314 105.101C411.314 103.172 411.518 101.524 411.925 100.157C412.34 98.7819 413.019 97.728 413.963 96.9956C414.907 96.2632 416.173 95.897 417.76 95.897C419.249 95.897 420.466 96.2632 421.41 96.9956C422.362 97.7199 423.066 98.7697 423.521 100.145C423.977 101.512 424.205 103.164 424.205 105.101ZM416.112 105.101C416.112 106.265 416.153 107.241 416.234 108.031C416.323 108.82 416.486 109.414 416.722 109.813C416.966 110.204 417.312 110.399 417.76 110.399C418.207 110.399 418.549 110.204 418.785 109.813C419.021 109.414 419.184 108.824 419.273 108.043C419.363 107.254 419.408 106.273 419.408 105.101C419.408 103.921 419.363 102.936 419.273 102.147C419.184 101.358 419.021 100.764 418.785 100.365C418.549 99.9578 418.207 99.7544 417.76 99.7544C417.312 99.7544 416.966 99.9578 416.722 100.365C416.486 100.764 416.323 101.358 416.234 102.147C416.153 102.936 416.112 103.921 416.112 105.101ZM426.134 111.974C426.134 111.111 426.386 110.505 426.891 110.155C427.403 109.805 428.018 109.63 428.734 109.63C429.409 109.63 429.995 109.805 430.492 110.155C430.988 110.505 431.236 111.111 431.236 111.974C431.236 112.796 430.988 113.39 430.492 113.756C429.995 114.122 429.409 114.305 428.734 114.305C428.018 114.305 427.403 114.122 426.891 113.756C426.386 113.39 426.134 112.796 426.134 111.974ZM443.81 114H438.915V105.174C438.915 105.012 438.915 104.715 438.915 104.283C438.915 103.844 438.919 103.36 438.927 102.831C438.943 102.302 438.963 101.826 438.988 101.402C438.776 101.655 438.577 101.87 438.39 102.049C438.211 102.228 438.036 102.395 437.865 102.55L435.838 104.222L433.336 101.146L439.464 96.1533H443.81V114ZM460.729 105.101C460.729 106.533 460.615 107.815 460.387 108.946C460.159 110.069 459.793 111.026 459.288 111.815C458.792 112.604 458.132 113.207 457.311 113.622C456.489 114.037 455.479 114.244 454.283 114.244C452.794 114.244 451.573 113.882 450.621 113.158C449.669 112.425 448.965 111.38 448.509 110.021C448.062 108.653 447.838 107.014 447.838 105.101C447.838 103.172 448.041 101.524 448.448 100.157C448.863 98.7819 449.543 97.728 450.487 96.9956C451.431 96.2632 452.696 95.897 454.283 95.897C455.772 95.897 456.989 96.2632 457.933 96.9956C458.885 97.7199 459.589 98.7697 460.045 100.145C460.501 101.512 460.729 103.164 460.729 105.101ZM452.635 105.101C452.635 106.265 452.676 107.241 452.757 108.031C452.847 108.82 453.01 109.414 453.246 109.813C453.49 110.204 453.836 110.399 454.283 110.399C454.731 110.399 455.073 110.204 455.309 109.813C455.545 109.414 455.707 108.824 455.797 108.043C455.886 107.254 455.931 106.273 455.931 105.101C455.931 103.921 455.886 102.936 455.797 102.147C455.707 101.358 455.545 100.764 455.309 100.365C455.073 99.9578 454.731 99.7544 454.283 99.7544C453.836 99.7544 453.49 99.9578 453.246 100.365C453.01 100.764 452.847 101.358 452.757 102.147C452.676 102.936 452.635 103.921 452.635 105.101ZM462.657 111.974C462.657 111.111 462.91 110.505 463.414 110.155C463.927 109.805 464.541 109.63 465.257 109.63C465.933 109.63 466.519 109.805 467.015 110.155C467.512 110.505 467.76 111.111 467.76 111.974C467.76 112.796 467.512 113.39 467.015 113.756C466.519 114.122 465.933 114.305 465.257 114.305C464.541 114.305 463.927 114.122 463.414 113.756C462.91 113.39 462.657 112.796 462.657 111.974ZM482.53 114H469.579V110.826L473.937 106.419C474.84 105.475 475.54 104.719 476.036 104.149C476.541 103.579 476.895 103.095 477.098 102.696C477.302 102.298 477.403 101.882 477.403 101.451C477.403 100.922 477.232 100.54 476.891 100.304C476.549 100.068 476.146 99.9497 475.682 99.9497C475.121 99.9497 474.551 100.112 473.973 100.438C473.403 100.755 472.757 101.227 472.032 101.854L469.383 98.7534C469.92 98.2733 470.49 97.8175 471.092 97.3862C471.694 96.9468 472.407 96.5887 473.229 96.312C474.05 96.0353 475.051 95.897 476.231 95.897C477.444 95.897 478.494 96.1086 479.381 96.5317C480.276 96.9549 480.968 97.5368 481.456 98.2773C481.944 99.0098 482.188 99.8439 482.188 100.78C482.188 101.813 481.997 102.737 481.615 103.551C481.24 104.356 480.675 105.166 479.918 105.98C479.161 106.786 478.217 107.701 477.086 108.727L475.78 109.898V110.021H482.53V114Z" fill="#F8F7F7"/>
</g>
<defs>
<filter id="filter0_i_2_246" x="356" y="471.344" width="88" height="88" filterUnits="userSpaceOnUse" color-interpolation-filters="sRGB">
<feFlood flood-opacity="0" result="BackgroundImageFix"/>
<feBlend mode="normal" in="SourceGraphic" in2="BackgroundImageFix" result="shape"/>
<feColorMatrix in="SourceAlpha" type="matrix" values="0 0 0 0 0 0 0 0 0 0 0 0 0 0 0 0 0 0 127 0" result="hardAlpha"/>
<feOffset/>
<feGaussianBlur stdDeviation="5"/>
<feComposite in2="hardAlpha" operator="arithmetic" k2="-1" k3="1"/>
<feColorMatrix type="matrix" values="0 0 0 0 0 0 0 0 0 0 0 0 0 0 0 0 0 0 0.1 0"/>
<feBlend mode="normal" in2="shape" result="effect1_innerShadow_2_246"/>
</filter>
<filter id="filter1_i_2_246" x="261" y="35" width="278" height="32" filterUnits="userSpaceOnUse" color-interpolation-filters="sRGB">
<feFlood flood-opacity="0" result="BackgroundImageFix"/>
<feBlend mode="normal" in="SourceGraphic" in2="BackgroundImageFix" result="shape"/>
<feColorMatrix in="SourceAlpha" type="matrix" values="0 0 0 0 0 0 0 0 0 0 0 0 0 0 0 0 0 0 127 0" result="hardAlpha"/>
<feOffset dy="1"/>
<feGaussianBlur stdDeviation="7.5"/>
<feComposite in2="hardAlpha" operator="arithmetic" k2="-1" k3="1"/>
<feColorMatrix type="matrix" values="0 0 0 0 0 0 0 0 0 0 0 0 0 0 0 0 0 0 0.05 0"/>
<feBlend mode="normal" in2="shape" result="effect1_innerShadow_2_246"/>
</filter>
<clipPath id="clip0_2_246">
<rect width="88" height="88" fill="white" transform="translate(356 471)"/>
</clipPath>
<clipPath id="clip1_2_246">
<rect width="278" height="210" fill="white" transform="translate(261 35)"/>
</clipPath>
</defs>
</svg>
