<svg width="65" height="65" viewBox="0 0 65 65" fill="none" xmlns="http://www.w3.org/2000/svg">
<g clip-path="url(#clip0_840_465)">
<circle cx="32.5" cy="32.5" r="31.5" stroke="#1B140E" stroke-width="2"/>
<path d="M26.1056 12.2498C28.1354 10.2969 30.4909 9.18081 32.9216 9.02018C35.3524 8.85955 37.7676 9.66036 39.9107 11.3375C42.0538 13.0147 43.8446 15.5055 45.0928 18.5453C46.3411 21.5851 47.0002 25.0603 47 28.6016C47 36.2326 46.0016 43.5212 44.1844 50.2088M22.2952 17.7927C20.8364 20.9972 20.0605 24.7575 20.065 28.6016C20.0692 32.2943 19.3532 35.9129 18 39.0367M21.5716 48.3376C24.9421 42.936 26.8061 35.8981 26.7988 28.6016C26.7988 26.0024 27.5082 23.5097 28.771 21.6718C30.0339 19.834 31.7466 18.8015 33.5325 18.8015C35.3184 18.8015 37.0312 19.834 38.294 21.6718C39.5568 23.5097 40.2663 26.0024 40.2663 28.6016C40.2663 29.9788 40.2285 31.343 40.1513 32.6915M33.5325 28.6016C33.5425 37.9472 31.2488 46.9881 27.0681 54.0818M38.9788 42.0708C38.0064 47.0279 36.5003 51.7292 34.5165 56" stroke="#1B140E" stroke-width="3" stroke-linecap="round" stroke-linejoin="round"/>
<path fill-rule="evenodd" clip-rule="evenodd" d="M49 57C49 52.5815 52.5815 49 57 49C61.4185 49 65 52.5815 65 57C65 61.4185 61.4185 65 57 65C52.5815 65 49 61.4185 49 57ZM59.9621 55.5116C60.0113 55.446 60.0469 55.3712 60.0668 55.2917C60.0867 55.2121 60.0906 55.1293 60.078 55.0483C60.0655 54.9672 60.0369 54.8895 59.9939 54.8196C59.9509 54.7498 59.8944 54.6893 59.8277 54.6416C59.761 54.5939 59.6854 54.56 59.6054 54.5419C59.5254 54.5239 59.4426 54.522 59.3618 54.5364C59.2811 54.5508 59.204 54.5812 59.1352 54.6258C59.0664 54.6704 59.0072 54.7283 58.961 54.7961L56.3058 58.513L54.9733 57.1805C54.8567 57.0718 54.7024 57.0126 54.543 57.0154C54.3835 57.0183 54.2314 57.0828 54.1187 57.1956C54.0059 57.3083 53.9413 57.4605 53.9385 57.6199C53.9357 57.7793 53.9949 57.9336 54.1036 58.0503L55.9497 59.8964C56.0129 59.9595 56.0891 60.0082 56.1729 60.0389C56.2568 60.0696 56.3463 60.0817 56.4353 60.0744C56.5243 60.0671 56.6106 60.0404 56.6883 59.9964C56.766 59.9523 56.8332 59.8919 56.8851 59.8193L59.9621 55.5116Z" fill="#4805FF"/>
</g>
<defs>
<clipPath id="clip0_840_465">
<rect width="65" height="65" fill="white"/>
</clipPath>
</defs>
</svg>
