<svg width="349" height="110" viewBox="0 0 349 110" fill="none" xmlns="http://www.w3.org/2000/svg">
<g clip-path="url(#clip0_415_814)">
<path fill-rule="evenodd" clip-rule="evenodd" d="M78.2375 14C98.1001 30.5434 77.5376 67.2083 84.7938 82.0126C69.8826 60.6161 90.1985 42.2283 78.2375 14Z" fill="#C25700"/>
<path fill-rule="evenodd" clip-rule="evenodd" d="M89.2523 45.843C102.235 54.2788 86.6509 74.0445 94.9475 79.104C103.35 84.2283 102.399 62.9324 114 68.3954C101.921 64.2858 106.932 89.6401 91.9646 86.2659C74.8363 82.4046 96.1376 55.1602 89.2523 45.843Z" fill="#8D1E00"/>
<path fill-rule="evenodd" clip-rule="evenodd" d="M14 74.7276C38.7271 55.0266 72.4083 86.6411 88.3024 88.6166C108.743 91.1568 103.298 67.5234 113.529 68.4039C104.101 69.5408 109.76 94.2573 88.6835 95.0211C65.7302 95.853 42.8299 60.8576 14 74.7276Z" fill="#1B140E"/>
<path d="M140.312 81V39.144H165.592V45.416H147.736V57.256H162.968V63.528H147.736V81H140.312ZM169.097 81V49.576H176.457V81H169.097ZM172.745 44.072C171.465 44.072 170.398 43.688 169.545 42.92C168.734 42.152 168.329 41.128 168.329 39.848C168.329 38.568 168.734 37.5653 169.545 36.84C170.398 36.072 171.465 35.688 172.745 35.688C174.068 35.688 175.134 36.072 175.945 36.84C176.756 37.5653 177.161 38.568 177.161 39.848C177.161 41.128 176.756 42.152 175.945 42.92C175.134 43.688 174.068 44.072 172.745 44.072ZM182.647 81V49.576H188.727L189.239 55.144H189.495C190.604 53.096 191.927 51.5387 193.463 50.472C195.042 49.3627 196.684 48.808 198.391 48.808C199.202 48.808 199.884 48.8507 200.439 48.936C200.994 49.0213 201.506 49.192 201.975 49.448L200.503 55.72C199.991 55.592 199.522 55.5067 199.095 55.464C198.668 55.3787 198.114 55.336 197.431 55.336C196.194 55.336 194.892 55.8267 193.527 56.808C192.162 57.7467 190.988 59.4107 190.007 61.8V81H182.647ZM216.201 81.768C213.257 81.768 210.59 81.128 208.201 79.848C205.854 78.5253 203.998 76.648 202.633 74.216C201.268 71.7413 200.585 68.7547 200.585 65.256C200.585 61.8427 201.289 58.92 202.697 56.488C204.105 54.0133 205.918 52.1147 208.137 50.792C210.356 49.4693 212.702 48.808 215.177 48.808C218.036 48.808 220.425 49.448 222.345 50.728C224.265 52.008 225.694 53.7787 226.633 56.04C227.614 58.2587 228.105 60.8187 228.105 63.72C228.105 64.4027 228.062 65.064 227.977 65.704C227.934 66.344 227.849 66.9627 227.721 67.56H206.089V61.928H221.577C221.577 59.6667 221.065 57.896 220.041 56.616C219.017 55.2933 217.438 54.632 215.305 54.632C214.11 54.632 212.937 54.952 211.785 55.592C210.676 56.232 209.737 57.32 208.969 58.856C208.244 60.392 207.881 62.5253 207.881 65.256C207.881 67.7307 208.308 69.7573 209.161 71.336C210.014 72.872 211.145 74.024 212.553 74.792C213.961 75.5173 215.476 75.88 217.097 75.88C218.462 75.88 219.742 75.688 220.937 75.304C222.174 74.92 223.326 74.3867 224.393 73.704L226.953 78.44C225.502 79.464 223.838 80.2747 221.961 80.872C220.126 81.4693 218.206 81.768 216.201 81.768ZM229.188 81V77.032L244.036 55.4H230.852V49.576H253.252V53.48L238.468 75.112H253.764V81H229.188ZM269.099 81.768C266.496 81.768 264.064 81.128 261.803 79.848C259.541 78.5253 257.707 76.648 256.299 74.216C254.891 71.7413 254.187 68.776 254.187 65.32C254.187 61.8213 254.891 58.856 256.299 56.424C257.707 53.9493 259.541 52.072 261.803 50.792C264.064 49.4693 266.496 48.808 269.099 48.808C271.744 48.808 274.197 49.4693 276.459 50.792C278.72 52.072 280.555 53.9493 281.963 56.424C283.371 58.856 284.075 61.8213 284.075 65.32C284.075 68.776 283.371 71.7413 281.963 74.216C280.555 76.648 278.72 78.5253 276.459 79.848C274.197 81.128 271.744 81.768 269.099 81.768ZM269.099 75.752C270.635 75.752 271.957 75.3253 273.067 74.472C274.176 73.6187 275.029 72.4027 275.627 70.824C276.224 69.2453 276.523 67.4107 276.523 65.32C276.523 63.2293 276.224 61.3947 275.627 59.816C275.029 58.2373 274.176 57.0213 273.067 56.168C271.957 55.272 270.635 54.824 269.099 54.824C267.563 54.824 266.24 55.272 265.131 56.168C264.064 57.0213 263.232 58.2373 262.635 59.816C262.037 61.3947 261.739 63.2293 261.739 65.32C261.739 67.4107 262.037 69.2453 262.635 70.824C263.232 72.4027 264.064 73.6187 265.131 74.472C266.24 75.3253 267.563 75.752 269.099 75.752ZM288.16 81V49.576H294.24L294.752 53.8H295.008C296.416 52.4347 297.952 51.2613 299.616 50.28C301.28 49.2987 303.178 48.808 305.312 48.808C308.682 48.808 311.136 49.896 312.672 52.072C314.208 54.248 314.976 57.32 314.976 61.288V81H307.616V62.248C307.616 59.6453 307.232 57.8107 306.464 56.744C305.696 55.6773 304.437 55.144 302.688 55.144C301.322 55.144 300.106 55.4853 299.04 56.168C298.016 56.808 296.842 57.768 295.52 59.048V81H288.16ZM334.276 81.768C331.332 81.768 328.665 81.128 326.276 79.848C323.929 78.5253 322.073 76.648 320.708 74.216C319.343 71.7413 318.66 68.7547 318.66 65.256C318.66 61.8427 319.364 58.92 320.772 56.488C322.18 54.0133 323.993 52.1147 326.212 50.792C328.431 49.4693 330.777 48.808 333.252 48.808C336.111 48.808 338.5 49.448 340.42 50.728C342.34 52.008 343.769 53.7787 344.708 56.04C345.689 58.2587 346.18 60.8187 346.18 63.72C346.18 64.4027 346.137 65.064 346.052 65.704C346.009 66.344 345.924 66.9627 345.796 67.56H324.164V61.928H339.652C339.652 59.6667 339.14 57.896 338.116 56.616C337.092 55.2933 335.513 54.632 333.38 54.632C332.185 54.632 331.012 54.952 329.86 55.592C328.751 56.232 327.812 57.32 327.044 58.856C326.319 60.392 325.956 62.5253 325.956 65.256C325.956 67.7307 326.383 69.7573 327.236 71.336C328.089 72.872 329.22 74.024 330.628 74.792C332.036 75.5173 333.551 75.88 335.172 75.88C336.537 75.88 337.817 75.688 339.012 75.304C340.249 74.92 341.401 74.3867 342.468 73.704L345.028 78.44C343.577 79.464 341.913 80.2747 340.036 80.872C338.201 81.4693 336.281 81.768 334.276 81.768Z" fill="#1B140E"/>
</g>
<defs>
<clipPath id="clip0_415_814">
<rect width="349" height="110" fill="white"/>
</clipPath>
</defs>
</svg>
