<svg width="425" height="80" viewBox="0 0 425 80" fill="none" xmlns="http://www.w3.org/2000/svg">
<path d="M112 70.9658H134.149V62.1751H128.978V35.7168H145.439V62.1751H140.268V70.9658H162.331V62.1751H154.402V26.9261H128.978V23.3926C128.978 19.6005 132.339 18.2216 136.304 18.2216C139.665 18.2216 142.811 18.4802 145.439 18.7818C146.516 20.0315 148.068 20.8071 149.834 20.8071C153.196 20.8071 155.781 18.1354 155.781 14.8605C155.781 11.5855 153.196 9 149.834 9C147.852 9 146.129 9.94802 145.051 11.4131C141.432 10.3789 138.415 9.60328 134.149 9.60328C127.427 9.60328 120.015 11.6717 120.015 21.4966V26.9261H112V35.7168H120.015V62.1751H112V70.9658ZM159.506 70.9658H191.049V62.2613H178.725V48.041C178.725 40.026 182.948 35.0274 193.807 35.0274V44.5075H203.459V28.2189C201.218 27.0123 197.771 25.8919 193.376 25.8919C186.05 25.8919 180.233 29.2962 178.035 33.9932V26.9261H159.506V35.6306H168.813V62.2613H159.506V70.9658ZM227.091 72C233.899 72 239.156 69.2421 242.862 65.1915L236.916 58.9001C234.158 61.9165 231.055 63.2093 227.177 63.2093C221.058 63.2093 217.093 59.2018 215.973 52.7811H245.879C246.223 50.5403 246.223 48.2996 246.223 46.7483C246.223 32.4419 237.691 25.8919 227.091 25.8919C214.249 25.8919 206.062 34.5964 206.062 48.9029C206.062 62.8646 213.991 72 227.091 72ZM227.091 34.5964C231.658 34.5964 235.881 37.5267 236.485 44.3352H215.973C217.007 38.2161 220.455 34.5964 227.091 34.5964ZM252.533 70.9658H288.644V62.0889H265.202L288.73 34.2517V26.9261H254.171V35.803H276.061L252.533 63.4678V70.9658ZM315.121 72C328.221 72 336.236 63.1231 336.236 48.9891C336.236 34.855 328.221 25.8919 315.121 25.8919C302.107 25.8919 294.006 34.9412 294.006 48.9891C294.006 63.2093 302.107 72 315.121 72ZM315.121 62.5198C307.968 62.5198 304.003 57.1765 304.003 48.9891C304.003 40.7155 307.968 35.2859 315.121 35.2859C322.447 35.2859 326.239 40.8016 326.239 48.9891C326.239 57.1765 322.361 62.5198 315.121 62.5198ZM340.304 70.9658H350.215V45.9726C350.215 37.7852 354.697 35.2859 359.954 35.2859C364.952 35.2859 369.089 38.0438 369.089 46.145V70.9658H379V44.0766C379 30.5458 371.502 25.8919 362.712 25.8919C357.153 25.8919 352.413 28.3482 350.215 31.1491V26.9261H340.304V70.9658ZM405.046 72C411.855 72 417.112 69.2421 420.818 65.1915L414.871 58.9001C412.113 61.9165 409.011 63.2093 405.132 63.2093C399.013 63.2093 395.049 59.2018 393.929 52.7811H423.834C424.179 50.5403 424.179 48.2996 424.179 46.7483C424.179 32.4419 415.647 25.8919 405.046 25.8919C392.205 25.8919 384.018 34.5964 384.018 48.9029C384.018 62.8646 391.946 72 405.046 72ZM405.046 34.5964C409.614 34.5964 413.837 37.5267 414.44 44.3352H393.929C394.963 38.2161 398.41 34.5964 405.046 34.5964Z" fill="#281303"/>
<path fill-rule="evenodd" clip-rule="evenodd" d="M64 0C81.8028 16.5403 63.3724 53.1983 69.8761 68C56.5114 46.6075 74.7204 28.223 64 0Z" fill="#FF7300"/>
<path fill-rule="evenodd" clip-rule="evenodd" d="M74.1441 31C87.1838 39.491 71.5312 59.3863 79.864 64.4789C88.3029 69.6367 87.3479 48.2015 99 53.7001C86.868 49.5637 91.9009 75.0839 76.868 71.6878C59.665 67.801 81.0596 40.3782 74.1441 31Z" fill="#7F3900"/>
<path fill-rule="evenodd" clip-rule="evenodd" d="M0 60.2584C24.3473 41.1074 57.5112 71.8395 73.1611 73.7601C93.2875 76.229 87.9264 53.2552 98 54.1115C88.7178 55.2165 94.2893 79.2434 73.5362 79.9858C50.9358 80.7945 28.387 46.7756 0 60.2584Z" fill="#331700"/>
</svg>
