<svg width="325" height="89" viewBox="0 0 325 89" fill="none" xmlns="http://www.w3.org/2000/svg">
<g clip-path="url(#clip0_418_842)">
<path fill-rule="evenodd" clip-rule="evenodd" d="M58.9379 8C77.1618 23.0395 58.2957 56.3712 64.9533 69.8296C51.2723 50.3783 69.9121 33.6621 58.9379 8Z" fill="#C25700"/>
<path fill-rule="evenodd" clip-rule="evenodd" d="M69.044 36.9481C80.9556 44.617 66.6572 62.5858 74.2693 67.1854C81.9786 71.8438 81.1061 52.4839 91.75 57.4503C80.6675 53.7143 85.2651 76.7637 71.5325 73.6962C55.8173 70.1859 75.3612 45.4183 69.044 36.9481Z" fill="#8D1E00"/>
<path fill-rule="evenodd" clip-rule="evenodd" d="M0 63.2069C22.6871 45.2969 53.5896 74.0374 68.1725 75.8333C86.9267 78.1425 81.9309 56.6576 91.3179 57.4581C82.6677 58.4916 87.8598 80.9612 68.5221 81.6555C47.4625 82.4118 26.4514 50.5978 0 63.2069Z" fill="#1B140E"/>
<path d="M111.312 64V22.144H136.592V28.416H118.736V40.256H133.968V46.528H118.736V64H111.312ZM140.097 64V32.576H147.457V64H140.097ZM143.745 27.072C142.465 27.072 141.398 26.688 140.545 25.92C139.734 25.152 139.329 24.128 139.329 22.848C139.329 21.568 139.734 20.5653 140.545 19.84C141.398 19.072 142.465 18.688 143.745 18.688C145.068 18.688 146.134 19.072 146.945 19.84C147.756 20.5653 148.161 21.568 148.161 22.848C148.161 24.128 147.756 25.152 146.945 25.92C146.134 26.688 145.068 27.072 143.745 27.072ZM153.647 64V32.576H159.727L160.239 38.144H160.495C161.604 36.096 162.927 34.5387 164.463 33.472C166.042 32.3627 167.684 31.808 169.391 31.808C170.202 31.808 170.884 31.8507 171.439 31.936C171.994 32.0213 172.506 32.192 172.975 32.448L171.503 38.72C170.991 38.592 170.522 38.5067 170.095 38.464C169.668 38.3787 169.114 38.336 168.431 38.336C167.194 38.336 165.892 38.8267 164.527 39.808C163.162 40.7467 161.988 42.4107 161.007 44.8V64H153.647ZM187.201 64.768C184.257 64.768 181.59 64.128 179.201 62.848C176.854 61.5253 174.998 59.648 173.633 57.216C172.268 54.7413 171.585 51.7547 171.585 48.256C171.585 44.8427 172.289 41.92 173.697 39.488C175.105 37.0133 176.918 35.1147 179.137 33.792C181.356 32.4693 183.702 31.808 186.177 31.808C189.036 31.808 191.425 32.448 193.345 33.728C195.265 35.008 196.694 36.7787 197.633 39.04C198.614 41.2587 199.105 43.8187 199.105 46.72C199.105 47.4027 199.062 48.064 198.977 48.704C198.934 49.344 198.849 49.9627 198.721 50.56H177.089V44.928H192.577C192.577 42.6667 192.065 40.896 191.041 39.616C190.017 38.2933 188.438 37.632 186.305 37.632C185.11 37.632 183.937 37.952 182.785 38.592C181.676 39.232 180.737 40.32 179.969 41.856C179.244 43.392 178.881 45.5253 178.881 48.256C178.881 50.7307 179.308 52.7573 180.161 54.336C181.014 55.872 182.145 57.024 183.553 57.792C184.961 58.5173 186.476 58.88 188.097 58.88C189.462 58.88 190.742 58.688 191.937 58.304C193.174 57.92 194.326 57.3867 195.393 56.704L197.953 61.44C196.502 62.464 194.838 63.2747 192.961 63.872C191.126 64.4693 189.206 64.768 187.201 64.768ZM200.188 64V60.032L215.036 38.4H201.852V32.576H224.252V36.48L209.468 58.112H224.764V64H200.188ZM240.099 64.768C237.496 64.768 235.064 64.128 232.803 62.848C230.541 61.5253 228.707 59.648 227.299 57.216C225.891 54.7413 225.187 51.776 225.187 48.32C225.187 44.8213 225.891 41.856 227.299 39.424C228.707 36.9493 230.541 35.072 232.803 33.792C235.064 32.4693 237.496 31.808 240.099 31.808C242.744 31.808 245.197 32.4693 247.459 33.792C249.72 35.072 251.555 36.9493 252.963 39.424C254.371 41.856 255.075 44.8213 255.075 48.32C255.075 51.776 254.371 54.7413 252.963 57.216C251.555 59.648 249.72 61.5253 247.459 62.848C245.197 64.128 242.744 64.768 240.099 64.768ZM240.099 58.752C241.635 58.752 242.957 58.3253 244.067 57.472C245.176 56.6187 246.029 55.4027 246.627 53.824C247.224 52.2453 247.523 50.4107 247.523 48.32C247.523 46.2293 247.224 44.3947 246.627 42.816C246.029 41.2373 245.176 40.0213 244.067 39.168C242.957 38.272 241.635 37.824 240.099 37.824C238.563 37.824 237.24 38.272 236.131 39.168C235.064 40.0213 234.232 41.2373 233.635 42.816C233.037 44.3947 232.739 46.2293 232.739 48.32C232.739 50.4107 233.037 52.2453 233.635 53.824C234.232 55.4027 235.064 56.6187 236.131 57.472C237.24 58.3253 238.563 58.752 240.099 58.752ZM259.16 64V32.576H265.24L265.752 36.8H266.008C267.416 35.4347 268.952 34.2613 270.616 33.28C272.28 32.2987 274.178 31.808 276.312 31.808C279.682 31.808 282.136 32.896 283.672 35.072C285.208 37.248 285.976 40.32 285.976 44.288V64H278.616V45.248C278.616 42.6453 278.232 40.8107 277.464 39.744C276.696 38.6773 275.437 38.144 273.688 38.144C272.322 38.144 271.106 38.4853 270.04 39.168C269.016 39.808 267.842 40.768 266.52 42.048V64H259.16ZM305.276 64.768C302.332 64.768 299.665 64.128 297.276 62.848C294.929 61.5253 293.073 59.648 291.708 57.216C290.343 54.7413 289.66 51.7547 289.66 48.256C289.66 44.8427 290.364 41.92 291.772 39.488C293.18 37.0133 294.993 35.1147 297.212 33.792C299.431 32.4693 301.777 31.808 304.252 31.808C307.111 31.808 309.5 32.448 311.42 33.728C313.34 35.008 314.769 36.7787 315.708 39.04C316.689 41.2587 317.18 43.8187 317.18 46.72C317.18 47.4027 317.137 48.064 317.052 48.704C317.009 49.344 316.924 49.9627 316.796 50.56H295.164V44.928H310.652C310.652 42.6667 310.14 40.896 309.116 39.616C308.092 38.2933 306.513 37.632 304.38 37.632C303.185 37.632 302.012 37.952 300.86 38.592C299.751 39.232 298.812 40.32 298.044 41.856C297.319 43.392 296.956 45.5253 296.956 48.256C296.956 50.7307 297.383 52.7573 298.236 54.336C299.089 55.872 300.22 57.024 301.628 57.792C303.036 58.5173 304.551 58.88 306.172 58.88C307.537 58.88 308.817 58.688 310.012 58.304C311.249 57.92 312.401 57.3867 313.468 56.704L316.028 61.44C314.577 62.464 312.913 63.2747 311.036 63.872C309.201 64.4693 307.281 64.768 305.276 64.768Z" fill="#1B140E"/>
</g>
<defs>
<clipPath id="clip0_418_842">
<rect width="325" height="89" fill="white"/>
</clipPath>
</defs>
</svg>
