<svg width="325" height="89" viewBox="0 0 325 89" fill="none" xmlns="http://www.w3.org/2000/svg">
<path fill-rule="evenodd" clip-rule="evenodd" d="M58.9379 8C77.1618 23.0395 58.2957 56.3712 64.9533 69.8296C51.2723 50.3783 69.9121 33.6621 58.9379 8Z" fill="#C25700"/>
<path fill-rule="evenodd" clip-rule="evenodd" d="M69.044 36.9481C80.9556 44.617 66.6572 62.5858 74.2693 67.1854C81.9786 71.8438 81.1061 52.4839 91.75 57.4503C80.6675 53.7143 85.2651 76.7637 71.5325 73.6962C55.8173 70.1859 75.3612 45.4183 69.044 36.9481Z" fill="#8D1E00"/>
<path fill-rule="evenodd" clip-rule="evenodd" d="M0 63.2069C22.6871 45.2969 53.5896 74.0374 68.1725 75.8333C86.9267 78.1425 81.9309 56.6576 91.3179 57.4581C82.6677 58.4916 87.8598 80.9612 68.5221 81.6555C47.4625 82.4118 26.4514 50.5978 0 63.2069Z" fill="#1B140E"/>
<path d="M111.312 67V25.144H136.592V31.416H118.736V43.256H133.968V49.528H118.736V67H111.312ZM140.097 67V35.576H147.457V67H140.097ZM143.809 30.072C142.486 30.072 141.42 29.688 140.609 28.92C139.798 28.152 139.393 27.128 139.393 25.848C139.393 24.6107 139.798 23.608 140.609 22.84C141.42 22.072 142.486 21.688 143.809 21.688C145.132 21.688 146.198 22.072 147.009 22.84C147.82 23.608 148.225 24.6107 148.225 25.848C148.225 27.128 147.82 28.152 147.009 28.92C146.198 29.688 145.132 30.072 143.809 30.072ZM153.647 67V35.576H159.727L160.239 41.144H160.495C161.604 39.096 162.948 37.5387 164.527 36.472C166.106 35.3627 167.727 34.808 169.391 34.808C170.884 34.808 172.079 35.0213 172.975 35.448L171.695 41.848C171.14 41.6773 170.628 41.5493 170.159 41.464C169.69 41.3787 169.114 41.336 168.431 41.336C167.194 41.336 165.892 41.8267 164.527 42.808C163.162 43.7467 161.988 45.4107 161.007 47.8V67H153.647ZM187.137 67.768C184.236 67.768 181.612 67.128 179.265 65.848C176.918 64.5253 175.062 62.648 173.697 60.216C172.332 57.7413 171.649 54.776 171.649 51.32C171.649 47.9067 172.332 44.9627 173.697 42.488C175.105 40.0133 176.918 38.1147 179.137 36.792C181.356 35.4693 183.681 34.808 186.113 34.808C188.972 34.808 191.361 35.448 193.281 36.728C195.201 37.9653 196.652 39.7147 197.633 41.976C198.614 44.1947 199.105 46.776 199.105 49.72C199.105 51.256 198.998 52.4507 198.785 53.304H178.817C179.158 56.0773 180.161 58.232 181.825 59.768C183.489 61.304 185.58 62.072 188.097 62.072C189.462 62.072 190.721 61.88 191.873 61.496C193.068 61.0693 194.241 60.4933 195.393 59.768L197.889 64.376C196.396 65.3573 194.732 66.168 192.897 66.808C191.062 67.448 189.142 67.768 187.137 67.768ZM178.753 48.312H192.705C192.705 45.88 192.172 43.9813 191.105 42.616C190.038 41.208 188.438 40.504 186.305 40.504C184.47 40.504 182.828 41.1867 181.377 42.552C179.969 43.8747 179.094 45.7947 178.753 48.312ZM200.188 67V63.032L215.036 41.4H201.852V35.576H224.252V39.48L209.468 61.112H224.764V67H200.188ZM240.099 67.768C237.496 67.768 235.064 67.128 232.803 65.848C230.541 64.5253 228.707 62.648 227.299 60.216C225.891 57.7413 225.187 54.776 225.187 51.32C225.187 47.8213 225.891 44.856 227.299 42.424C228.707 39.9493 230.541 38.072 232.803 36.792C235.064 35.4693 237.496 34.808 240.099 34.808C242.744 34.808 245.197 35.4693 247.459 36.792C249.72 38.072 251.555 39.9493 252.963 42.424C254.371 44.856 255.075 47.8213 255.075 51.32C255.075 54.776 254.371 57.7413 252.963 60.216C251.555 62.648 249.72 64.5253 247.459 65.848C245.197 67.128 242.744 67.768 240.099 67.768ZM240.099 61.752C242.403 61.752 244.216 60.792 245.539 58.872C246.861 56.952 247.523 54.4347 247.523 51.32C247.523 48.1627 246.861 45.624 245.539 43.704C244.216 41.784 242.403 40.824 240.099 40.824C237.795 40.824 235.981 41.784 234.659 43.704C233.379 45.624 232.739 48.1627 232.739 51.32C232.739 54.4347 233.379 56.952 234.659 58.872C235.981 60.792 237.795 61.752 240.099 61.752ZM259.16 67V35.576H265.24L265.752 39.8H266.008C267.416 38.4347 268.952 37.2613 270.616 36.28C272.28 35.2987 274.178 34.808 276.312 34.808C279.682 34.808 282.136 35.896 283.672 38.072C285.208 40.248 285.976 43.32 285.976 47.288V67H278.616V48.248C278.616 45.6453 278.232 43.8107 277.464 42.744C276.696 41.6773 275.437 41.144 273.688 41.144C272.322 41.144 271.106 41.4853 270.04 42.168C269.016 42.808 267.842 43.768 266.52 45.048V67H259.16ZM305.212 67.768C302.311 67.768 299.687 67.128 297.34 65.848C294.993 64.5253 293.137 62.648 291.772 60.216C290.407 57.7413 289.724 54.776 289.724 51.32C289.724 47.9067 290.407 44.9627 291.772 42.488C293.18 40.0133 294.993 38.1147 297.212 36.792C299.431 35.4693 301.756 34.808 304.188 34.808C307.047 34.808 309.436 35.448 311.356 36.728C313.276 37.9653 314.727 39.7147 315.708 41.976C316.689 44.1947 317.18 46.776 317.18 49.72C317.18 51.256 317.073 52.4507 316.86 53.304H296.892C297.233 56.0773 298.236 58.232 299.9 59.768C301.564 61.304 303.655 62.072 306.172 62.072C307.537 62.072 308.796 61.88 309.948 61.496C311.143 61.0693 312.316 60.4933 313.468 59.768L315.964 64.376C314.471 65.3573 312.807 66.168 310.972 66.808C309.137 67.448 307.217 67.768 305.212 67.768ZM296.828 48.312H310.78C310.78 45.88 310.247 43.9813 309.18 42.616C308.113 41.208 306.513 40.504 304.38 40.504C302.545 40.504 300.903 41.1867 299.452 42.552C298.044 43.8747 297.169 45.7947 296.828 48.312Z" fill="#1B140E"/>
</svg>
