<svg width="256" height="256" viewBox="0 0 256 256" fill="none" xmlns="http://www.w3.org/2000/svg">
<path fill-rule="evenodd" clip-rule="evenodd" d="M159.858 36C204.958 73.5635 158.268 156.815 174.744 190.43C140.887 141.847 187.016 100.095 159.858 36Z" fill="#C25700"/>
<path fill-rule="evenodd" clip-rule="evenodd" d="M184.867 108.302C214.346 127.457 178.96 172.337 197.798 183.825C216.876 195.46 214.717 147.106 241.059 159.51C213.632 150.179 225.01 207.748 191.025 200.087C152.134 191.319 200.501 129.458 184.867 108.302Z" fill="#8D1E00"/>
<path fill-rule="evenodd" clip-rule="evenodd" d="M14 173.888C70.1454 129.155 146.622 200.939 182.711 205.425C229.123 211.192 216.76 157.53 239.99 159.53C218.585 162.111 231.433 218.233 183.576 219.967C131.459 221.856 79.4612 142.395 14.0001 173.888H14Z" fill="#331700"/>
</svg>
