<svg width="294" height="184" viewBox="0 0 294 184" fill="none" xmlns="http://www.w3.org/2000/svg">
<path fill-rule="evenodd" clip-rule="evenodd" d="M146.5 0C191.799 37.5635 144.904 120.815 161.453 154.43C127.446 105.847 173.779 64.0952 146.5 0Z" fill="#FFF9F5"/>
<path fill-rule="evenodd" clip-rule="evenodd" d="M171.62 72.3025C201.229 91.4568 165.687 136.337 184.608 147.825C203.77 159.46 201.602 111.106 228.06 123.51C200.512 114.179 211.94 171.748 177.805 164.087C138.742 155.319 187.323 93.4581 171.62 72.3025Z" fill="#FFF9F5"/>
<path fill-rule="evenodd" clip-rule="evenodd" d="M0 137.888C56.3928 93.1552 133.206 164.939 169.455 169.425C216.071 175.192 203.653 121.53 226.986 123.53C205.486 126.111 218.392 182.233 170.324 183.967C117.976 185.856 65.7497 106.395 9.64537e-05 137.888H0Z" fill="#FFF9F5"/>
</svg>
