<svg width="349" height="110" viewBox="0 0 349 110" fill="none" xmlns="http://www.w3.org/2000/svg">
<g clip-path="url(#clip0_415_820)">
<path fill-rule="evenodd" clip-rule="evenodd" d="M78.2375 14C98.1001 30.5434 77.5376 67.2083 84.7938 82.0126C69.8826 60.6161 90.1985 42.2283 78.2375 14Z" fill="#C25700"/>
<path fill-rule="evenodd" clip-rule="evenodd" d="M89.2523 45.843C102.235 54.2788 86.6509 74.0445 94.9475 79.104C103.35 84.2283 102.399 62.9324 114 68.3954C101.921 64.2858 106.932 89.6401 91.9646 86.2659C74.8363 82.4046 96.1376 55.1602 89.2523 45.843Z" fill="#C25700"/>
<path fill-rule="evenodd" clip-rule="evenodd" d="M14 74.7275C38.7271 55.0265 72.4083 86.641 88.3024 88.6165C108.743 91.1567 103.298 67.5233 113.529 68.4038C104.101 69.5407 109.76 94.2572 88.6835 95.021C65.7302 95.8529 42.8299 60.8575 14 74.7275Z" fill="#C25700"/>
<path d="M140.312 82V40.144H165.592V46.416H147.736V58.256H162.968V64.528H147.736V82H140.312ZM169.097 82V50.576H176.457V82H169.097ZM172.745 45.072C171.465 45.072 170.398 44.688 169.545 43.92C168.734 43.152 168.329 42.128 168.329 40.848C168.329 39.568 168.734 38.5653 169.545 37.84C170.398 37.072 171.465 36.688 172.745 36.688C174.068 36.688 175.134 37.072 175.945 37.84C176.756 38.5653 177.161 39.568 177.161 40.848C177.161 42.128 176.756 43.152 175.945 43.92C175.134 44.688 174.068 45.072 172.745 45.072ZM182.647 82V50.576H188.727L189.239 56.144H189.495C190.604 54.096 191.927 52.5387 193.463 51.472C195.042 50.3627 196.684 49.808 198.391 49.808C199.202 49.808 199.884 49.8507 200.439 49.936C200.994 50.0213 201.506 50.192 201.975 50.448L200.503 56.72C199.991 56.592 199.522 56.5067 199.095 56.464C198.668 56.3787 198.114 56.336 197.431 56.336C196.194 56.336 194.892 56.8267 193.527 57.808C192.162 58.7467 190.988 60.4107 190.007 62.8V82H182.647ZM216.201 82.768C213.257 82.768 210.59 82.128 208.201 80.848C205.854 79.5253 203.998 77.648 202.633 75.216C201.268 72.7413 200.585 69.7547 200.585 66.256C200.585 62.8427 201.289 59.92 202.697 57.488C204.105 55.0133 205.918 53.1147 208.137 51.792C210.356 50.4693 212.702 49.808 215.177 49.808C218.036 49.808 220.425 50.448 222.345 51.728C224.265 53.008 225.694 54.7787 226.633 57.04C227.614 59.2587 228.105 61.8187 228.105 64.72C228.105 65.4027 228.062 66.064 227.977 66.704C227.934 67.344 227.849 67.9627 227.721 68.56H206.089V62.928H221.577C221.577 60.6667 221.065 58.896 220.041 57.616C219.017 56.2933 217.438 55.632 215.305 55.632C214.11 55.632 212.937 55.952 211.785 56.592C210.676 57.232 209.737 58.32 208.969 59.856C208.244 61.392 207.881 63.5253 207.881 66.256C207.881 68.7307 208.308 70.7573 209.161 72.336C210.014 73.872 211.145 75.024 212.553 75.792C213.961 76.5173 215.476 76.88 217.097 76.88C218.462 76.88 219.742 76.688 220.937 76.304C222.174 75.92 223.326 75.3867 224.393 74.704L226.953 79.44C225.502 80.464 223.838 81.2747 221.961 81.872C220.126 82.4693 218.206 82.768 216.201 82.768ZM229.188 82V78.032L244.036 56.4H230.852V50.576H253.252V54.48L238.468 76.112H253.764V82H229.188ZM269.099 82.768C266.496 82.768 264.064 82.128 261.803 80.848C259.541 79.5253 257.707 77.648 256.299 75.216C254.891 72.7413 254.187 69.776 254.187 66.32C254.187 62.8213 254.891 59.856 256.299 57.424C257.707 54.9493 259.541 53.072 261.803 51.792C264.064 50.4693 266.496 49.808 269.099 49.808C271.744 49.808 274.197 50.4693 276.459 51.792C278.72 53.072 280.555 54.9493 281.963 57.424C283.371 59.856 284.075 62.8213 284.075 66.32C284.075 69.776 283.371 72.7413 281.963 75.216C280.555 77.648 278.72 79.5253 276.459 80.848C274.197 82.128 271.744 82.768 269.099 82.768ZM269.099 76.752C270.635 76.752 271.957 76.3253 273.067 75.472C274.176 74.6187 275.029 73.4027 275.627 71.824C276.224 70.2453 276.523 68.4107 276.523 66.32C276.523 64.2293 276.224 62.3947 275.627 60.816C275.029 59.2373 274.176 58.0213 273.067 57.168C271.957 56.272 270.635 55.824 269.099 55.824C267.563 55.824 266.24 56.272 265.131 57.168C264.064 58.0213 263.232 59.2373 262.635 60.816C262.037 62.3947 261.739 64.2293 261.739 66.32C261.739 68.4107 262.037 70.2453 262.635 71.824C263.232 73.4027 264.064 74.6187 265.131 75.472C266.24 76.3253 267.563 76.752 269.099 76.752ZM288.16 82V50.576H294.24L294.752 54.8H295.008C296.416 53.4347 297.952 52.2613 299.616 51.28C301.28 50.2987 303.178 49.808 305.312 49.808C308.682 49.808 311.136 50.896 312.672 53.072C314.208 55.248 314.976 58.32 314.976 62.288V82H307.616V63.248C307.616 60.6453 307.232 58.8107 306.464 57.744C305.696 56.6773 304.437 56.144 302.688 56.144C301.322 56.144 300.106 56.4853 299.04 57.168C298.016 57.808 296.842 58.768 295.52 60.048V82H288.16ZM334.276 82.768C331.332 82.768 328.665 82.128 326.276 80.848C323.929 79.5253 322.073 77.648 320.708 75.216C319.343 72.7413 318.66 69.7547 318.66 66.256C318.66 62.8427 319.364 59.92 320.772 57.488C322.18 55.0133 323.993 53.1147 326.212 51.792C328.431 50.4693 330.777 49.808 333.252 49.808C336.111 49.808 338.5 50.448 340.42 51.728C342.34 53.008 343.769 54.7787 344.708 57.04C345.689 59.2587 346.18 61.8187 346.18 64.72C346.18 65.4027 346.137 66.064 346.052 66.704C346.009 67.344 345.924 67.9627 345.796 68.56H324.164V62.928H339.652C339.652 60.6667 339.14 58.896 338.116 57.616C337.092 56.2933 335.513 55.632 333.38 55.632C332.185 55.632 331.012 55.952 329.86 56.592C328.751 57.232 327.812 58.32 327.044 59.856C326.319 61.392 325.956 63.5253 325.956 66.256C325.956 68.7307 326.383 70.7573 327.236 72.336C328.089 73.872 329.22 75.024 330.628 75.792C332.036 76.5173 333.551 76.88 335.172 76.88C336.537 76.88 337.817 76.688 339.012 76.304C340.249 75.92 341.401 75.3867 342.468 74.704L345.028 79.44C343.577 80.464 341.913 81.2747 340.036 81.872C338.201 82.4693 336.281 82.768 334.276 82.768Z" fill="#FCFCFC"/>
</g>
<defs>
<clipPath id="clip0_415_820">
<rect width="349" height="110" fill="white"/>
</clipPath>
</defs>
</svg>
