<svg width="157" height="41" viewBox="0 0 157 41" fill="none" xmlns="http://www.w3.org/2000/svg">
<g opacity="0.87" clip-path="url(#clip0_1_49)">
<mask id="mask0_1_49" style="mask-type:luminance" maskUnits="userSpaceOnUse" x="0" y="0" width="157" height="41">
<path d="M157 0H0V41H157V0Z" fill="white"/>
</mask>
<g mask="url(#mask0_1_49)">
<path fill-rule="evenodd" clip-rule="evenodd" d="M28.4716 3.68539C37.2751 10.6137 28.1613 25.9688 31.3775 32.1687C24.7685 23.208 33.7729 15.5073 28.4716 3.68539Z" fill="white"/>
<path fill-rule="evenodd" clip-rule="evenodd" d="M33.3536 17.021C39.1078 20.5539 32.2006 28.8317 35.8778 30.9506C39.602 33.0966 39.1805 24.178 44.3223 26.4659C38.9686 24.7448 41.1896 35.363 34.5557 33.9499C26.9641 32.3328 36.4053 20.923 33.3536 17.021Z" fill="white"/>
<path fill-rule="evenodd" clip-rule="evenodd" d="M0 29.1178C10.9596 20.8671 25.8879 34.1071 32.9326 34.9344C41.9923 35.9982 39.5789 26.1007 44.1136 26.4695C39.9349 26.9456 42.443 37.2967 33.1014 37.6166C22.928 37.965 12.7781 23.3091 0 29.1178Z" fill="white"/>
<path d="M53.7723 29.4831V10.2012H65.9845V13.0905H57.3586V18.5449H64.7169V21.4342H57.3586V29.4831H53.7723ZM67.6776 29.4831V15.0069H71.2331V29.4831H67.6776ZM69.4399 12.4714C68.8216 12.4714 68.3061 12.2945 67.8941 11.9407C67.5023 11.5869 67.3066 11.1151 67.3066 10.5255C67.3066 9.93581 67.5023 9.47389 67.8941 9.13977C68.3061 8.78597 68.8216 8.60907 69.4399 8.60907C70.079 8.60907 70.594 8.78597 70.9858 9.13977C71.3775 9.47389 71.5732 9.93581 71.5732 10.5255C71.5732 11.1151 71.3775 11.5869 70.9858 11.9407C70.594 12.2945 70.079 12.4714 69.4399 12.4714ZM74.2233 29.4831V15.0069H77.1604L77.4078 17.5719H77.5314C78.0672 16.6285 78.7063 15.9111 79.4483 15.4197C80.2111 14.9087 81.0043 14.6531 81.8289 14.6531C82.2207 14.6531 82.5501 14.6728 82.8182 14.7121C83.0863 14.7514 83.3337 14.83 83.5603 14.9479L82.8492 17.8373C82.6018 17.7783 82.3753 17.739 82.169 17.7194C81.9627 17.6801 81.6951 17.6604 81.3651 17.6604C80.7676 17.6604 80.1386 17.8864 79.4792 18.3385C78.8198 18.7709 78.2527 19.5375 77.7788 20.6382V29.4831H74.2233ZM90.4325 29.8369C89.0103 29.8369 87.722 29.5421 86.5679 28.9524C85.4341 28.3431 84.5375 27.4783 83.8781 26.3579C83.2187 25.2179 82.8888 23.842 82.8888 22.2303C82.8888 20.6579 83.2289 19.3115 83.909 18.1911C84.5892 17.0511 85.465 16.1764 86.537 15.5671C87.6089 14.9578 88.7422 14.6531 89.9378 14.6531C91.319 14.6531 92.473 14.9479 93.4005 15.5376C94.328 16.1273 95.0183 16.943 95.472 17.9847C95.9459 19.0068 96.183 20.1861 96.183 21.5227C96.183 21.8372 96.1623 22.1418 96.1212 22.4367C96.1004 22.7315 96.0594 23.0165 95.9975 23.2917H85.5476V20.6972H93.0295C93.0295 19.6554 92.7822 18.8397 92.2875 18.2501C91.7928 17.6407 91.0301 17.3361 89.9997 17.3361C89.4224 17.3361 88.8557 17.4835 88.2992 17.7783C87.7635 18.0732 87.3099 18.5744 86.9389 19.282C86.5887 19.9896 86.4133 20.9723 86.4133 22.2303C86.4133 23.3703 86.6196 24.3039 87.0316 25.0312C87.4437 25.7388 87.9901 26.2695 88.6702 26.6233C89.3504 26.9574 90.0823 27.1245 90.8653 27.1245C91.5247 27.1245 92.1431 27.036 92.7204 26.8591C93.3179 26.6822 93.8744 26.4366 94.3899 26.1221L95.6265 28.3038C94.9256 28.7755 94.1218 29.149 93.215 29.4242C92.3286 29.6993 91.4011 29.8369 90.4325 29.8369ZM96.7062 29.4831V27.6552L103.879 17.6899H97.5101V15.0069H108.331V16.8054L101.189 26.7707H108.578V29.4831H96.7062ZM115.986 29.8369C114.729 29.8369 113.554 29.5421 112.462 28.9524C111.369 28.3431 110.483 27.4783 109.803 26.3579C109.123 25.2179 108.783 23.8519 108.783 22.2598C108.783 20.648 109.123 19.282 109.803 18.1616C110.483 17.0216 111.369 16.1568 112.462 15.5671C113.554 14.9578 114.729 14.6531 115.986 14.6531C117.264 14.6531 118.449 14.9578 119.542 15.5671C120.634 16.1568 121.52 17.0216 122.201 18.1616C122.881 19.282 123.221 20.648 123.221 22.2598C123.221 23.8519 122.881 25.2179 122.201 26.3579C121.52 27.4783 120.634 28.3431 119.542 28.9524C118.449 29.5421 117.264 29.8369 115.986 29.8369ZM115.986 27.0655C116.728 27.0655 117.367 26.8689 117.903 26.4759C118.439 26.0828 118.851 25.5226 119.14 24.7953C119.428 24.0681 119.573 23.2229 119.573 22.2598C119.573 21.2966 119.428 20.4515 119.14 19.7242C118.851 18.997 118.439 18.4368 117.903 18.0437C117.367 17.6309 116.728 17.4245 115.986 17.4245C115.244 17.4245 114.605 17.6309 114.069 18.0437C113.554 18.4368 113.152 18.997 112.864 19.7242C112.575 20.4515 112.431 21.2966 112.431 22.2598C112.431 23.2229 112.575 24.0681 112.864 24.7953C113.152 25.5226 113.554 26.0828 114.069 26.4759C114.605 26.8689 115.244 27.0655 115.986 27.0655ZM125.194 29.4831V15.0069H128.131L128.379 16.9528H128.502C129.183 16.3238 129.925 15.7833 130.728 15.3312C131.532 14.8792 132.449 14.6531 133.48 14.6531C135.108 14.6531 136.293 15.1543 137.035 16.1568C137.777 17.1592 138.148 18.5744 138.148 20.4023V29.4831H134.593V20.8446C134.593 19.6456 134.407 18.8004 134.036 18.309C133.665 17.8176 133.057 17.5719 132.212 17.5719C131.552 17.5719 130.965 17.7292 130.45 18.0437C129.955 18.3385 129.388 18.7808 128.75 19.3704V29.4831H125.194ZM147.472 29.8369C146.05 29.8369 144.761 29.5421 143.607 28.9524C142.473 28.3431 141.577 27.4783 140.917 26.3579C140.258 25.2179 139.928 23.842 139.928 22.2303C139.928 20.6579 140.268 19.3115 140.948 18.1911C141.629 17.0511 142.504 16.1764 143.576 15.5671C144.648 14.9578 145.782 14.6531 146.977 14.6531C148.358 14.6531 149.512 14.9479 150.44 15.5376C151.367 16.1273 152.058 16.943 152.511 17.9847C152.985 19.0068 153.222 20.1861 153.222 21.5227C153.222 21.8372 153.202 22.1418 153.161 22.4367C153.14 22.7315 153.099 23.0165 153.037 23.2917H142.587V20.6972H150.069C150.069 19.6554 149.821 18.8397 149.327 18.2501C148.832 17.6407 148.069 17.3361 147.039 17.3361C146.462 17.3361 145.895 17.4835 145.339 17.7783C144.803 18.0732 144.349 18.5744 143.978 19.282C143.628 19.9896 143.453 20.9723 143.453 22.2303C143.453 23.3703 143.659 24.3039 144.071 25.0312C144.483 25.7388 145.029 26.2695 145.71 26.6233C146.39 26.9574 147.122 27.1245 147.905 27.1245C148.564 27.1245 149.182 27.036 149.76 26.8591C150.357 26.6822 150.914 26.4366 151.429 26.1221L152.666 28.3038C151.965 28.7755 151.161 29.149 150.254 29.4242C149.368 29.6993 148.44 29.8369 147.472 29.8369Z" fill="white"/>
</g>
</g>
<defs>
<clipPath id="clip0_1_49">
<rect width="157" height="41" fill="white"/>
</clipPath>
</defs>
</svg>
