<svg width="349" height="110" viewBox="0 0 349 110" fill="none" xmlns="http://www.w3.org/2000/svg">
<g clip-path="url(#clip0_415_820)">
<path fill-rule="evenodd" clip-rule="evenodd" d="M78.2375 14C98.1001 30.5434 77.5376 67.2083 84.7938 82.0126C69.8826 60.6161 90.1985 42.2283 78.2375 14Z" fill="#C25700"/>
<path fill-rule="evenodd" clip-rule="evenodd" d="M89.2523 45.843C102.235 54.2788 86.6509 74.0445 94.9475 79.104C103.35 84.2283 102.399 62.9324 114 68.3954C101.921 64.2858 106.932 89.6401 91.9646 86.2659C74.8363 82.4046 96.1376 55.1602 89.2523 45.843Z" fill="#C25700"/>
<path fill-rule="evenodd" clip-rule="evenodd" d="M14 74.7275C38.7271 55.0265 72.4083 86.641 88.3024 88.6165C108.743 91.1567 103.298 67.5233 113.529 68.4038C104.101 69.5407 109.76 94.2572 88.6835 95.021C65.7302 95.8529 42.8299 60.8575 14 74.7275Z" fill="#C25700"/>
<path d="M140.312 75V33.144H165.592V39.416H147.736V51.256H162.968V57.528H147.736V75H140.312ZM169.097 75V43.576H176.457V75H169.097ZM172.745 38.072C171.465 38.072 170.398 37.688 169.545 36.92C168.734 36.152 168.329 35.128 168.329 33.848C168.329 32.568 168.734 31.5653 169.545 30.84C170.398 30.072 171.465 29.688 172.745 29.688C174.068 29.688 175.134 30.072 175.945 30.84C176.756 31.5653 177.161 32.568 177.161 33.848C177.161 35.128 176.756 36.152 175.945 36.92C175.134 37.688 174.068 38.072 172.745 38.072ZM182.647 75V43.576H188.727L189.239 49.144H189.495C190.604 47.096 191.927 45.5387 193.463 44.472C195.042 43.3627 196.684 42.808 198.391 42.808C199.202 42.808 199.884 42.8507 200.439 42.936C200.994 43.0213 201.506 43.192 201.975 43.448L200.503 49.72C199.991 49.592 199.522 49.5067 199.095 49.464C198.668 49.3787 198.114 49.336 197.431 49.336C196.194 49.336 194.892 49.8267 193.527 50.808C192.162 51.7467 190.988 53.4107 190.007 55.8V75H182.647ZM216.201 75.768C213.257 75.768 210.59 75.128 208.201 73.848C205.854 72.5253 203.998 70.648 202.633 68.216C201.268 65.7413 200.585 62.7547 200.585 59.256C200.585 55.8427 201.289 52.92 202.697 50.488C204.105 48.0133 205.918 46.1147 208.137 44.792C210.356 43.4693 212.702 42.808 215.177 42.808C218.036 42.808 220.425 43.448 222.345 44.728C224.265 46.008 225.694 47.7787 226.633 50.04C227.614 52.2587 228.105 54.8187 228.105 57.72C228.105 58.4027 228.062 59.064 227.977 59.704C227.934 60.344 227.849 60.9627 227.721 61.56H206.089V55.928H221.577C221.577 53.6667 221.065 51.896 220.041 50.616C219.017 49.2933 217.438 48.632 215.305 48.632C214.11 48.632 212.937 48.952 211.785 49.592C210.676 50.232 209.737 51.32 208.969 52.856C208.244 54.392 207.881 56.5253 207.881 59.256C207.881 61.7307 208.308 63.7573 209.161 65.336C210.014 66.872 211.145 68.024 212.553 68.792C213.961 69.5173 215.476 69.88 217.097 69.88C218.462 69.88 219.742 69.688 220.937 69.304C222.174 68.92 223.326 68.3867 224.393 67.704L226.953 72.44C225.502 73.464 223.838 74.2747 221.961 74.872C220.126 75.4693 218.206 75.768 216.201 75.768ZM229.188 75V71.032L244.036 49.4H230.852V43.576H253.252V47.48L238.468 69.112H253.764V75H229.188ZM269.099 75.768C266.496 75.768 264.064 75.128 261.803 73.848C259.541 72.5253 257.707 70.648 256.299 68.216C254.891 65.7413 254.187 62.776 254.187 59.32C254.187 55.8213 254.891 52.856 256.299 50.424C257.707 47.9493 259.541 46.072 261.803 44.792C264.064 43.4693 266.496 42.808 269.099 42.808C271.744 42.808 274.197 43.4693 276.459 44.792C278.72 46.072 280.555 47.9493 281.963 50.424C283.371 52.856 284.075 55.8213 284.075 59.32C284.075 62.776 283.371 65.7413 281.963 68.216C280.555 70.648 278.72 72.5253 276.459 73.848C274.197 75.128 271.744 75.768 269.099 75.768ZM269.099 69.752C270.635 69.752 271.957 69.3253 273.067 68.472C274.176 67.6187 275.029 66.4027 275.627 64.824C276.224 63.2453 276.523 61.4107 276.523 59.32C276.523 57.2293 276.224 55.3947 275.627 53.816C275.029 52.2373 274.176 51.0213 273.067 50.168C271.957 49.272 270.635 48.824 269.099 48.824C267.563 48.824 266.24 49.272 265.131 50.168C264.064 51.0213 263.232 52.2373 262.635 53.816C262.037 55.3947 261.739 57.2293 261.739 59.32C261.739 61.4107 262.037 63.2453 262.635 64.824C263.232 66.4027 264.064 67.6187 265.131 68.472C266.24 69.3253 267.563 69.752 269.099 69.752ZM288.16 75V43.576H294.24L294.752 47.8H295.008C296.416 46.4347 297.952 45.2613 299.616 44.28C301.28 43.2987 303.178 42.808 305.312 42.808C308.682 42.808 311.136 43.896 312.672 46.072C314.208 48.248 314.976 51.32 314.976 55.288V75H307.616V56.248C307.616 53.6453 307.232 51.8107 306.464 50.744C305.696 49.6773 304.437 49.144 302.688 49.144C301.322 49.144 300.106 49.4853 299.04 50.168C298.016 50.808 296.842 51.768 295.52 53.048V75H288.16ZM334.276 75.768C331.332 75.768 328.665 75.128 326.276 73.848C323.929 72.5253 322.073 70.648 320.708 68.216C319.343 65.7413 318.66 62.7547 318.66 59.256C318.66 55.8427 319.364 52.92 320.772 50.488C322.18 48.0133 323.993 46.1147 326.212 44.792C328.431 43.4693 330.777 42.808 333.252 42.808C336.111 42.808 338.5 43.448 340.42 44.728C342.34 46.008 343.769 47.7787 344.708 50.04C345.689 52.2587 346.18 54.8187 346.18 57.72C346.18 58.4027 346.137 59.064 346.052 59.704C346.009 60.344 345.924 60.9627 345.796 61.56H324.164V55.928H339.652C339.652 53.6667 339.14 51.896 338.116 50.616C337.092 49.2933 335.513 48.632 333.38 48.632C332.185 48.632 331.012 48.952 329.86 49.592C328.751 50.232 327.812 51.32 327.044 52.856C326.319 54.392 325.956 56.5253 325.956 59.256C325.956 61.7307 326.383 63.7573 327.236 65.336C328.089 66.872 329.22 68.024 330.628 68.792C332.036 69.5173 333.551 69.88 335.172 69.88C336.537 69.88 337.817 69.688 339.012 69.304C340.249 68.92 341.401 68.3867 342.468 67.704L345.028 72.44C343.577 73.464 341.913 74.2747 340.036 74.872C338.201 75.4693 336.281 75.768 334.276 75.768Z" fill="#FCFCFC"/>
</g>
<defs>
<clipPath id="clip0_415_820">
<rect width="349" height="110" fill="white"/>
</clipPath>
</defs>
</svg>
