<svg width="325" height="89" viewBox="0 0 325 89" fill="none" xmlns="http://www.w3.org/2000/svg">
<g clip-path="url(#clip0_418_842)">
<path fill-rule="evenodd" clip-rule="evenodd" d="M58.9379 8C77.1618 23.0395 58.2957 56.3712 64.9533 69.8296C51.2723 50.3783 69.9121 33.6621 58.9379 8Z" fill="#C25700"/>
<path fill-rule="evenodd" clip-rule="evenodd" d="M69.044 36.9481C80.9556 44.617 66.6572 62.5858 74.2693 67.1854C81.9786 71.8438 81.1061 52.4839 91.75 57.4503C80.6675 53.7143 85.2651 76.7637 71.5325 73.6962C55.8173 70.1859 75.3612 45.4183 69.044 36.9481Z" fill="#8D1E00"/>
<path fill-rule="evenodd" clip-rule="evenodd" d="M0 63.2069C22.6871 45.2969 53.5896 74.0374 68.1725 75.8333C86.9267 78.1425 81.9309 56.6576 91.3179 57.4581C82.6677 58.4916 87.8598 80.9612 68.5221 81.6555C47.4625 82.4118 26.4514 50.5978 0 63.2069Z" fill="#1B140E"/>
<path d="M110.98 63V23.76H134.68V29.64H117.94V40.74H132.22V46.62H117.94V63H110.98ZM137.966 63V33.54H144.866V63H137.966ZM141.386 28.38C140.186 28.38 139.186 28.02 138.386 27.3C137.626 26.58 137.246 25.62 137.246 24.42C137.246 23.22 137.626 22.28 138.386 21.6C139.186 20.88 140.186 20.52 141.386 20.52C142.626 20.52 143.626 20.88 144.386 21.6C145.146 22.28 145.526 23.22 145.526 24.42C145.526 25.62 145.146 26.58 144.386 27.3C143.626 28.02 142.626 28.38 141.386 28.38ZM150.669 63V33.54H156.369L156.849 38.76H157.089C158.129 36.84 159.369 35.38 160.809 34.38C162.289 33.34 163.829 32.82 165.429 32.82C166.189 32.82 166.829 32.86 167.349 32.94C167.869 33.02 168.349 33.18 168.789 33.42L167.409 39.3C166.929 39.18 166.489 39.1 166.089 39.06C165.689 38.98 165.169 38.94 164.529 38.94C163.369 38.94 162.149 39.4 160.869 40.32C159.589 41.2 158.489 42.76 157.569 45V63H150.669ZM182.126 63.72C179.366 63.72 176.866 63.12 174.626 61.92C172.426 60.68 170.686 58.92 169.406 56.64C168.126 54.32 167.486 51.52 167.486 48.24C167.486 45.04 168.146 42.3 169.466 40.02C170.786 37.7 172.486 35.92 174.566 34.68C176.646 33.44 178.846 32.82 181.166 32.82C183.846 32.82 186.086 33.42 187.886 34.62C189.686 35.82 191.026 37.48 191.906 39.6C192.826 41.68 193.286 44.08 193.286 46.8C193.286 47.44 193.246 48.06 193.166 48.66C193.126 49.26 193.046 49.84 192.926 50.4H172.646V45.12H187.166C187.166 43 186.686 41.34 185.726 40.14C184.766 38.9 183.286 38.28 181.286 38.28C180.166 38.28 179.066 38.58 177.986 39.18C176.946 39.78 176.066 40.8 175.346 42.24C174.666 43.68 174.326 45.68 174.326 48.24C174.326 50.56 174.726 52.46 175.526 53.94C176.326 55.38 177.386 56.46 178.706 57.18C180.026 57.86 181.446 58.2 182.966 58.2C184.246 58.2 185.446 58.02 186.566 57.66C187.726 57.3 188.806 56.8 189.806 56.16L192.206 60.6C190.846 61.56 189.286 62.32 187.526 62.88C185.806 63.44 184.006 63.72 182.126 63.72ZM194.302 63V59.28L208.222 39H195.862V33.54H216.862V37.2L203.002 57.48H217.342V63H194.302ZM231.717 63.72C229.277 63.72 226.997 63.12 224.877 61.92C222.757 60.68 221.037 58.92 219.717 56.64C218.397 54.32 217.737 51.54 217.737 48.3C217.737 45.02 218.397 42.24 219.717 39.96C221.037 37.64 222.757 35.88 224.877 34.68C226.997 33.44 229.277 32.82 231.717 32.82C234.197 32.82 236.497 33.44 238.617 34.68C240.737 35.88 242.457 37.64 243.777 39.96C245.097 42.24 245.757 45.02 245.757 48.3C245.757 51.54 245.097 54.32 243.777 56.64C242.457 58.92 240.737 60.68 238.617 61.92C236.497 63.12 234.197 63.72 231.717 63.72ZM231.717 58.08C233.157 58.08 234.397 57.68 235.437 56.88C236.477 56.08 237.277 54.94 237.837 53.46C238.397 51.98 238.677 50.26 238.677 48.3C238.677 46.34 238.397 44.62 237.837 43.14C237.277 41.66 236.477 40.52 235.437 39.72C234.397 38.88 233.157 38.46 231.717 38.46C230.277 38.46 229.037 38.88 227.997 39.72C226.997 40.52 226.217 41.66 225.657 43.14C225.097 44.62 224.817 46.34 224.817 48.3C224.817 50.26 225.097 51.98 225.657 53.46C226.217 54.94 226.997 56.08 227.997 56.88C229.037 57.68 230.277 58.08 231.717 58.08ZM249.587 63V33.54H255.287L255.767 37.5H256.007C257.327 36.22 258.767 35.12 260.327 34.2C261.887 33.28 263.667 32.82 265.667 32.82C268.827 32.82 271.127 33.84 272.567 35.88C274.007 37.92 274.727 40.8 274.727 44.52V63H267.827V45.42C267.827 42.98 267.467 41.26 266.747 40.26C266.027 39.26 264.847 38.76 263.207 38.76C261.927 38.76 260.787 39.08 259.787 39.72C258.827 40.32 257.727 41.22 256.487 42.42V63H249.587ZM292.821 63.72C290.061 63.72 287.561 63.12 285.321 61.92C283.121 60.68 281.381 58.92 280.101 56.64C278.821 54.32 278.181 51.52 278.181 48.24C278.181 45.04 278.841 42.3 280.161 40.02C281.481 37.7 283.181 35.92 285.261 34.68C287.341 33.44 289.541 32.82 291.861 32.82C294.541 32.82 296.781 33.42 298.581 34.62C300.381 35.82 301.721 37.48 302.601 39.6C303.521 41.68 303.981 44.08 303.981 46.8C303.981 47.44 303.941 48.06 303.861 48.66C303.821 49.26 303.741 49.84 303.621 50.4H283.341V45.12H297.861C297.861 43 297.381 41.34 296.421 40.14C295.461 38.9 293.981 38.28 291.981 38.28C290.861 38.28 289.761 38.58 288.681 39.18C287.641 39.78 286.761 40.8 286.041 42.24C285.361 43.68 285.021 45.68 285.021 48.24C285.021 50.56 285.421 52.46 286.221 53.94C287.021 55.38 288.081 56.46 289.401 57.18C290.721 57.86 292.141 58.2 293.661 58.2C294.941 58.2 296.141 58.02 297.261 57.66C298.421 57.3 299.501 56.8 300.501 56.16L302.901 60.6C301.541 61.56 299.981 62.32 298.221 62.88C296.501 63.44 294.701 63.72 292.821 63.72Z" fill="#1B140E"/>
</g>
<defs>
<clipPath id="clip0_418_842">
<rect width="325" height="89" fill="white"/>
</clipPath>
</defs>
</svg>
