<svg width="425" height="106" viewBox="0 0 425 106" fill="none" xmlns="http://www.w3.org/2000/svg">
<path fill-rule="evenodd" clip-rule="evenodd" d="M17.0724 58.8697C20.9836 56.6115 20.9901 49.3006 17.0869 42.5402C13.1837 35.7799 6.84888 32.1302 2.93767 34.3884C-0.973544 36.6466 -0.980046 43.9576 2.92315 50.7179C6.82634 57.4783 13.1612 61.1279 17.0724 58.8697ZM17.0958 73.3453C20.999 80.1057 20.9925 87.4166 17.0813 89.6748C13.17 91.933 6.83522 88.2833 2.93203 81.523C-0.971167 74.7627 -0.964667 67.4517 2.94655 65.1935C6.85776 62.9353 13.1926 66.585 17.0958 73.3453ZM43.7495 88.7551C47.6527 95.5154 47.6462 102.826 43.735 105.085C39.8238 107.343 33.4889 103.693 29.5857 96.9327C25.6826 90.1724 25.6891 82.8615 29.6003 80.6032C33.5115 78.345 39.8463 81.9947 43.7495 88.7551ZM43.7408 57.9504C47.644 64.7107 47.6375 72.0217 43.7263 74.2799C39.8151 76.5381 33.4803 72.8884 29.5771 66.1281C25.6739 59.3677 25.6804 52.0568 29.5916 49.7986C33.5028 47.5404 39.8377 51.1901 43.7408 57.9504Z" fill="#F26E7E"/>
<path fill-rule="evenodd" clip-rule="evenodd" d="M97.0612 50.7349C100.964 43.9746 100.958 36.6636 97.0467 34.4054C93.1355 32.1472 86.8007 35.7969 82.8975 42.5573C78.9943 49.3176 79.0008 56.6285 82.912 58.8868C86.8232 61.145 93.1581 57.4953 97.0612 50.7349ZM97.062 65.2032C100.973 67.4614 100.98 74.7723 97.0766 81.5327C93.1734 88.293 86.8385 91.9427 82.9273 89.6845C79.0161 87.4263 79.0096 80.1153 82.9128 73.355C86.816 66.5947 93.1508 62.945 97.062 65.2032ZM70.4136 80.5877C74.3249 82.8459 74.3314 90.1568 70.4282 96.9172C66.525 103.677 60.1901 107.327 56.2789 105.069C52.3677 102.811 52.3612 95.4998 56.2644 88.7395C60.1676 81.9791 66.5024 78.3294 70.4136 80.5877ZM70.3986 49.7897C74.3098 52.0479 74.3163 59.3589 70.4131 66.1192C66.5099 72.8796 60.1751 76.5293 56.2638 74.2711C52.3526 72.0129 52.3461 64.7019 56.2493 57.9416C60.1525 51.1812 66.4873 47.5315 70.3986 49.7897Z" fill="#8A3391"/>
<path fill-rule="evenodd" clip-rule="evenodd" d="M64.1222 8.17769C64.1222 12.6941 57.7939 16.3554 49.9875 16.3554C42.1811 16.3554 35.8528 12.6941 35.8528 8.17769C35.8528 3.66127 42.1811 0 49.9875 0C57.7939 0 64.1222 3.66127 64.1222 8.17769ZM37.474 23.5464C37.474 28.0628 31.1457 31.7241 23.3393 31.7241C15.5329 31.7241 9.20459 28.0628 9.20459 23.5464C9.20459 19.03 15.5329 15.3687 23.3393 15.3687C31.1457 15.3687 37.474 19.03 37.474 23.5464ZM76.6705 31.7241C84.4769 31.7241 90.8052 28.0628 90.8052 23.5464C90.8052 19.03 84.4769 15.3687 76.6705 15.3687C68.8641 15.3687 62.5358 19.03 62.5358 23.5464C62.5358 28.0628 68.8641 31.7241 76.6705 31.7241ZM64.1222 38.9496C64.1222 43.466 57.7939 47.1272 49.9875 47.1272C42.1811 47.1272 35.8528 43.466 35.8528 38.9496C35.8528 34.4332 42.1811 30.7719 49.9875 30.7719C57.7939 30.7719 64.1222 34.4332 64.1222 38.9496Z" fill="#F7BF2A"/>
<path fill-rule="evenodd" clip-rule="evenodd" d="M254.218 19H259.473C261.104 19 262.01 19.906 262.01 21.5368V82.5561C262.01 84.187 261.104 85.093 259.473 85.093H254.218C252.587 85.093 251.681 84.187 251.681 82.5561V21.5368C251.681 19.906 252.587 19 254.218 19ZM153.154 85.0927C154.785 85.0927 155.691 84.1867 155.691 82.5559V62.1255H166.336C179.836 62.1255 188.307 54.0621 188.307 41.9217C188.307 29.8265 179.836 21.7178 166.336 21.7178H147.537C145.906 21.7178 145 22.6238 145 24.2546V82.5559C145 84.1867 145.906 85.0927 147.537 85.0927H153.154ZM155.691 30.7325H165.657C173.267 30.7325 177.571 35.1266 177.571 41.9217C177.571 48.762 173.267 53.1561 165.657 53.1561H155.691V30.7325ZM195.918 40.744V67.1087C195.918 78.6603 203.393 86.1348 214.673 86.1348C220.652 86.1348 225.771 83.1903 228.942 78.8868V82.5561C228.942 84.1869 229.848 85.0929 231.479 85.0929H236.779C238.41 85.0929 239.316 84.1869 239.316 82.5561V40.744C239.316 39.1132 238.41 38.2072 236.779 38.2072H231.479C229.848 38.2072 228.942 39.1132 228.942 40.744V63.7565C228.942 71.5481 223.325 77.0294 216.802 77.0294C210.55 77.0294 206.247 72.59 206.247 66.248V40.744C206.247 39.1132 205.341 38.2072 203.71 38.2072H198.455C196.824 38.2072 195.918 39.1132 195.918 40.744ZM273.517 40.744V67.1087C273.517 78.6603 280.991 86.1348 292.271 86.1348C298.251 86.1348 303.37 83.1903 306.541 78.8868V82.5561C306.541 84.1869 307.447 85.0929 309.078 85.0929H314.378C316.009 85.0929 316.915 84.1869 316.915 82.5561V40.744C316.915 39.1132 316.009 38.2072 314.378 38.2072H309.078C307.447 38.2072 306.541 39.1132 306.541 40.744V63.7565C306.541 71.5481 300.924 77.0294 294.4 77.0294C288.149 77.0294 283.845 72.59 283.845 66.248V40.744C283.845 39.1132 282.939 38.2072 281.309 38.2072H276.054C274.423 38.2072 273.517 39.1132 273.517 40.744ZM401.897 56.1915V82.6015C401.897 84.2323 400.991 85.1383 399.361 85.1383H394.061C392.43 85.1383 391.524 84.2323 391.524 82.6015V57.0975C391.524 50.7555 387.583 46.3161 381.784 46.3161C375.94 46.3161 370.414 52.2051 370.414 59.3172V82.6015C370.414 84.2323 369.508 85.1383 367.877 85.1383H362.577C360.946 85.1383 360.04 84.2323 360.04 82.6015V57.0975C360.04 50.7555 356.099 46.3161 350.301 46.3161C344.729 46.3161 338.93 51.6615 338.93 59.3172V82.6015C338.93 84.2323 338.024 85.1383 336.393 85.1383H331.093C329.463 85.1383 328.557 84.2323 328.557 82.6015V40.7442C328.557 39.1133 329.463 38.2073 331.093 38.2073H336.393C338.024 38.2073 338.93 39.1133 338.93 40.7442V44.3229C342.237 39.974 346.994 37.1201 352.475 37.1201C359.542 37.1201 365.476 40.7894 368.421 46.8597C371.501 40.9706 377.209 37.1201 383.913 37.1201C394.106 37.1201 401.897 44.64 401.897 56.1915ZM425 25.4328C425 21.8541 422.191 19.0908 418.567 19.0908C414.943 19.0908 412.18 21.8541 412.18 25.4328C412.18 28.9662 414.943 31.7295 418.567 31.7295C422.191 31.7295 425 28.9662 425 25.4328ZM423.732 40.7442C423.732 39.1134 422.826 38.2074 421.195 38.2074H415.94C414.309 38.2074 413.403 39.1134 413.403 40.7442V82.5563C413.403 84.1871 414.309 85.0931 415.94 85.0931H421.195C422.826 85.0931 423.732 84.1871 423.732 82.5563V40.7442Z" fill="black"/>
</svg>
