<svg width="1282" height="722" viewBox="0 0 1282 722" style="opacity: 0.375" fill="none" xmlns="http://www.w3.org/2000/svg">
<path d="M89.008 721C126.541 571.325 324.559 402.175 639.059 352.097M639.059 352.097C953.558 302.02 1208.52 1.55641 1208.52 1.55641M639.059 352.097C324.559 402.175 165.368 571.325 127.835 721M639.059 352.097C953.558 302.02 1174.87 1.55641 1174.87 1.55641M639.059 352.097C324.559 402.175 200.312 571.325 162.779 721M639.059 352.097C953.558 302.02 1247.35 1.55641 1247.35 1.55641M639.059 352.097C324.559 402.175 90.3022 571.325 52.7694 721M639.059 352.097C953.558 302.02 1138.63 1.55641 1138.63 1.55641M639.059 352.097C324.559 402.175 236.551 571.325 199.018 721M639.059 352.097C953.558 302.02 1107.57 1.55641 1107.57 1.55641M639.059 352.097C324.559 402.175 270.201 571.325 232.668 721M639.059 352.097C953.558 302.02 1077.8 1.55641 1077.8 1.55641M639.059 352.097C324.559 402.175 306.44 571.325 268.907 721M639.059 352.097C953.558 302.02 1045.45 1.5564 1045.45 1.5564M639.059 352.097C953.558 302.02 1281 1.55641 1281 1.55641M639.059 352.097C324.559 402.175 55.3579 571.325 17.825 721M639.059 352.097C324.559 402.175 109.716 571.325 72.1829 721M639.059 352.097C324.559 402.175 144.66 571.325 107.127 721M639.059 352.097C324.559 402.175 183.487 571.325 145.954 721M639.059 352.097C324.559 402.175 73.4772 571.325 35.9443 721M639.059 352.097C324.559 402.175 219.726 571.325 182.193 721M639.059 352.097C324.559 402.175 253.376 571.325 215.843 721M639.059 352.097C324.559 402.175 289.615 571.325 252.082 721M639.059 352.097C324.559 402.175 38.5328 571.325 0.999912 721M639.059 352.097C953.558 302.02 1191.69 1.55641 1191.69 1.55641M639.059 352.097C953.558 302.02 1158.05 0.999995 1158.05 0.999995M639.059 352.097C953.558 302.02 1227.94 1.55641 1227.94 1.55641M639.059 352.097C953.558 302.02 1123.1 1.55641 1123.1 1.55641M639.059 352.097C953.558 302.02 1090.75 1.55641 1090.75 1.55641M639.059 352.097C953.558 302.02 1060.98 1.5564 1060.98 1.5564M639.059 352.097C953.558 302.02 1028.62 1.5564 1028.62 1.5564M639.059 352.097C953.558 302.02 1264.17 1.55641 1264.17 1.55641" stroke="#FF7300"/>
</svg>
