<svg width="802" height="402" viewBox="0 0 802 402" fill="none" xmlns="http://www.w3.org/2000/svg">
<path d="M72.3939 401C93.1661 337.41 219.608 158.466 411.93 196.008M411.93 196.008C604.251 233.55 743.442 0.999999 743.442 0.999999M411.93 196.008C219.608 158.466 113.92 337.41 93.148 401M411.93 196.008C604.251 233.55 713.556 0.999999 713.556 0.999999M411.93 196.008C219.608 158.466 139.932 337.41 119.16 401M411.93 196.008C604.251 233.55 768.347 1 768.347 1M411.93 196.008C219.608 158.466 73.2423 337.41 52.47 401M411.93 196.008C604.251 233.55 697.783 1.00055 697.783 1.00055M411.93 196.008C219.608 158.466 163.453 337.41 142.681 401M411.93 196.008C604.251 233.55 678.136 0.999999 678.136 0.999999M411.93 196.008C219.608 158.466 209.112 337.41 188.34 401M411.93 196.008C604.251 233.55 643.269 1.00055 643.269 1.00055M411.93 196.008C219.608 158.466 258.092 337.41 237.32 401M411.93 196.008C604.251 233.55 597.667 0.999996 597.667 0.999996M411.93 196.008C604.251 233.55 801 1 801 1M411.93 196.008C219.608 158.466 53.3183 337.41 32.546 401M411.93 196.008C219.608 158.466 82.0973 337.41 61.3251 401M411.93 196.008C219.608 158.466 103.128 337.41 82.3558 401M411.93 196.008C219.608 158.466 126.096 337.41 105.324 401M411.93 196.008C219.608 158.466 60.5336 337.41 39.7613 401M411.93 196.008C219.608 158.466 145.466 337.41 124.694 401M411.93 196.008C219.608 158.466 183.654 337.41 162.882 401M411.93 196.008C219.608 158.466 229.313 337.41 208.541 401M411.93 196.008C219.608 158.466 36.9918 337.41 16.2195 401M411.93 196.008C604.251 233.55 731.543 0.999999 731.543 0.999999M411.93 196.008C604.251 233.55 708.022 0.999999 708.022 0.999999M411.93 196.008C604.251 233.55 752.574 0.999999 752.574 0.999999M411.93 196.008C604.251 233.55 688.375 1.00055 688.375 1.00055M411.93 196.008C604.251 233.55 658.778 1.00055 658.778 1.00055M411.93 196.008C604.251 233.55 626.833 0.999996 626.833 0.999996M411.93 196.008C604.251 233.55 557.111 1.00052 557.111 1.00052M411.93 196.008C604.251 233.55 779.692 1 779.692 1M411.93 196.008C219.608 158.466 21.7722 337.41 0.999944 401M411.93 196.008C219.608 158.466 29.2437 337.41 8.47139 401M411.93 196.008C219.608 158.466 41.1427 337.41 20.3704 401M411.93 196.008C219.608 158.466 55.5834 337.41 34.8112 401M411.93 196.008C219.608 158.466 241.489 337.41 220.716 401M411.93 196.008C219.608 158.466 223.225 337.41 202.453 401M411.93 196.008C219.608 158.466 197.49 337.41 176.718 401M411.93 196.008C219.608 158.466 169.541 337.41 148.769 401M411.93 196.008C219.608 158.466 160.409 337.41 139.637 401M411.93 196.008C219.608 158.466 141.592 337.41 120.82 401M411.93 196.008C219.608 158.466 129.693 337.41 108.921 401M411.93 196.008C219.608 158.466 116.462 337.41 95.6897 401M411.93 196.008C219.608 158.466 105.67 337.41 84.8975 401M411.93 196.008C219.608 158.466 95.4311 337.41 74.6589 401M411.93 196.008C219.608 158.466 64.7153 337.41 43.943 401M411.93 196.008C219.608 158.466 75.5073 337.41 54.735 401M411.93 196.008C219.608 158.466 84.9158 337.41 64.1435 401M411.93 196.008C604.251 233.55 574.611 1.00055 574.611 1.00055M411.93 196.008C604.251 233.55 615.444 0.999996 615.444 0.999996M411.93 196.008C604.251 233.55 638.011 1.00055 638.011 1.00055M411.93 196.008C604.251 233.55 647.973 0.999998 647.973 0.999998M411.93 196.008C604.251 233.55 668.451 1.00055 668.451 1.00055M411.93 196.008C604.251 233.55 680.626 1.00055 680.626 1.00055M411.93 196.008C604.251 233.55 696.4 0.999999 696.4 0.999999M411.93 196.008C604.251 233.55 703.594 1.00055 703.594 1.00055M411.93 196.008C604.251 233.55 711.066 0.999999 711.066 0.999999M411.93 196.008C604.251 233.55 723.518 0.999999 723.518 0.999999M411.93 196.008C604.251 233.55 741.228 0.999999 741.228 0.999999M411.93 196.008C604.251 233.55 745.656 0.999999 745.656 0.999999M411.93 196.008C604.251 233.55 754.788 1 754.788 1M411.93 196.008C604.251 233.55 772.221 1 772.221 1M411.93 196.008C604.251 233.55 786.334 1 786.334 1M411.93 196.008C604.251 233.55 565.167 0.999995 565.167 0.999995" stroke="#FF7300" stroke-opacity="0.25"/>
</svg>
