<svg width="260" height="56" viewBox="0 0 260 56" fill="none" xmlns="http://www.w3.org/2000/svg">
<path d="M50 28C50 18.0589 41.9411 10 32 10C22.0589 10 14 18.0589 14 28C14 37.9411 22.0589 46 32 46C41.9411 46 50 37.9411 50 28Z" fill="#E74A36"/>
<path d="M24.6711 29.078C25.3171 27.943 26.1191 26.971 27.2301 26.302C27.3571 26.224 27.5901 26.256 27.7401 26.31C29.8261 27.119 31.8601 27.002 33.8331 25.952C34.7561 25.462 35.4911 24.762 35.8731 23.72C35.9861 23.409 35.9491 23.222 35.6711 23.012C33.9611 21.736 32.0991 21.565 30.1331 22.164C25.8041 23.479 22.8561 26.388 21.1141 30.657C21.0621 30.79 21.0161 30.93 20.9571 31.054C20.7621 31.458 20.4321 31.645 20.1171 31.536C19.8091 31.428 19.5691 31.006 19.6371 30.619C19.7041 30.253 19.7871 29.879 19.8991 29.529C20.6051 27.289 21.8651 25.384 23.2831 23.572C25.1811 21.169 27.6051 19.699 30.5311 19.17C33.9301 18.556 36.8641 19.629 39.4001 22C39.5131 22.11 39.5801 22.351 39.5581 22.507C39.2731 24.56 38.3801 26.247 36.7141 27.461C35.3561 28.449 33.9151 29.226 32.2571 29.475C31.7391 29.553 31.2071 29.506 30.6891 29.522H30.0961C30.2241 29.662 30.2841 29.748 30.3661 29.817C32.3251 31.505 34.5081 32.75 37.0141 33.309C37.7734 33.4871 38.5651 33.4741 39.3181 33.271C39.5801 33.201 39.8431 33.091 40.0831 32.96C41.4261 32.213 41.6811 31.178 40.8111 29.887C40.5031 29.437 40.1281 29.032 39.7451 28.565C39.9331 28.293 40.1501 27.982 40.3611 27.671C42.0191 28.34 43.2721 30.121 43.2501 31.785C43.2341 33.216 42.5441 34.266 41.4121 35.02C40.3381 35.728 39.1221 35.915 37.8851 35.868C32.5951 35.674 28.3251 33.294 24.8211 29.281C24.7691 29.219 24.7311 29.156 24.6711 29.078Z" fill="#FCFCFC"/>
<path d="M63.0108 26.0001V14.3641H67.6018C68.4818 14.3641 69.2318 14.5211 69.8518 14.8351C70.4768 15.1451 70.9518 15.5871 71.2778 16.1591C71.6078 16.7271 71.7728 17.3961 71.7728 18.1651C71.7728 18.9381 71.6058 19.6021 71.2728 20.1591C70.9388 20.7121 70.4558 21.1361 69.8228 21.4321C69.1948 21.7271 68.4328 21.8751 67.5398 21.8751H64.4658V19.8981H67.1418C67.6118 19.8981 68.0018 19.8331 68.3118 19.7041C68.6011 19.5938 68.8454 19.39 69.0058 19.1251C69.1608 18.8671 69.2388 18.5471 69.2388 18.1651C69.2388 17.7781 69.1608 17.4531 69.0058 17.1881C68.8457 16.9151 68.5995 16.703 68.3058 16.5851C67.9958 16.4451 67.6038 16.3751 67.1308 16.3751H65.4708V26.0001H63.0108ZM69.2958 20.7041L72.1868 26.0001H69.4718L66.6418 20.7041H69.2958ZM83.8838 20.1821C83.8838 21.4511 83.6438 22.5301 83.1628 23.4211C82.6858 24.3111 82.0338 24.9911 81.2078 25.4611C80.3858 25.9261 79.4618 26.1591 78.4358 26.1591C77.4018 26.1591 76.4738 25.9241 75.6518 25.4551C74.8298 24.9851 74.1798 24.3051 73.7018 23.4151C73.2248 22.5251 72.9868 21.4471 72.9868 20.1821C72.9868 18.9121 73.2258 17.8331 73.7028 16.9431C74.1798 16.0531 74.8298 15.3751 75.6518 14.9091C76.4738 14.4391 77.4018 14.2041 78.4358 14.2041C79.4618 14.2041 80.3858 14.4391 81.2078 14.9091C82.0338 15.3751 82.6858 16.0531 83.1628 16.9431C83.6438 17.8331 83.8838 18.9131 83.8838 20.1821ZM81.3898 20.1821C81.3898 19.3601 81.2668 18.6671 81.0198 18.1021C80.7778 17.5381 80.4358 17.1101 79.9928 16.8181C79.5488 16.5261 79.0298 16.3811 78.4358 16.3811C77.8408 16.3811 77.3218 16.5261 76.8788 16.8181C76.4358 17.1101 76.0908 17.5381 75.8448 18.1021C75.6018 18.6671 75.4808 19.3601 75.4808 20.1821C75.4808 21.0041 75.6018 21.6971 75.8448 22.2621C76.0908 22.8261 76.4348 23.2541 76.8788 23.5461C77.3218 23.8371 77.8408 23.9831 78.4358 23.9831C79.0298 23.9831 79.5488 23.8371 79.9918 23.5451C80.4358 23.2541 80.7778 22.8251 81.0208 22.2611C81.2668 21.6971 81.3908 21.0041 81.3908 20.1811L81.3898 20.1821ZM91.6998 17.7101C91.6538 17.2521 91.4588 16.8961 91.1138 16.6421C90.7698 16.3881 90.3018 16.2621 89.7108 16.2621C89.3088 16.2621 88.9708 16.3181 88.6938 16.4321C88.4168 16.5421 88.2048 16.6951 88.0568 16.8921C87.9128 17.0891 87.8408 17.3121 87.8408 17.5621C87.8289 17.7531 87.8745 17.9433 87.9718 18.1081C88.0708 18.2631 88.2048 18.3981 88.3758 18.5111C88.5458 18.6211 88.7428 18.7181 88.9658 18.8011C89.1898 18.8811 89.4288 18.9491 89.6818 19.0061L90.7278 19.2561C91.2077 19.3605 91.6761 19.5126 92.1258 19.7101C92.5498 19.9001 92.9168 20.1331 93.2278 20.4101C93.5378 20.6861 93.7788 21.0111 93.9498 21.3861C94.1238 21.7611 94.2128 22.1911 94.2158 22.6761C94.2128 23.3881 94.0308 24.0061 93.6708 24.5281C93.3148 25.0481 92.7998 25.4511 92.1258 25.7381C91.4558 26.0231 90.6458 26.1651 89.6988 26.1651C88.7598 26.1651 87.9418 26.0211 87.2448 25.7331C86.5518 25.4451 86.0098 25.0191 85.6198 24.4541C85.2338 23.8861 85.0298 23.1841 85.0118 22.3471H87.3918C87.4188 22.7371 87.5308 23.0621 87.7278 23.3241C87.9278 23.5811 88.1958 23.7761 88.5288 23.9091C88.8658 24.0381 89.2468 24.1021 89.6708 24.1021C90.0878 24.1021 90.4488 24.0421 90.7558 23.9211C91.0658 23.7991 91.3068 23.6311 91.4778 23.4151C91.6464 23.2041 91.7369 22.9412 91.7338 22.6711C91.7412 22.4297 91.6581 22.1943 91.5008 22.0111C91.3488 21.8331 91.1258 21.6811 90.8308 21.5571C90.4825 21.414 90.1229 21.2999 89.7558 21.2161L88.4888 20.8981C87.5088 20.6591 86.7338 20.2861 86.1648 19.7781C85.5968 19.2711 85.3148 18.5881 85.3188 17.7281C85.3148 17.0231 85.5018 16.4081 85.8808 15.8811C86.2638 15.3541 86.7878 14.9431 87.4548 14.6481C88.1218 14.3521 88.8788 14.2041 89.7278 14.2041C90.5918 14.2041 91.3448 14.3521 91.9888 14.6481C92.6368 14.9431 93.1408 15.3541 93.5008 15.8811C93.8608 16.4071 94.0458 17.0171 94.0568 17.7111H91.6998V17.7101ZM101.864 17.7101C101.818 17.2521 101.623 16.8961 101.279 16.6421C100.934 16.3881 100.466 16.2621 99.8748 16.2621C99.4738 16.2621 99.1348 16.3181 98.8578 16.4321C98.607 16.5231 98.3867 16.6824 98.2218 16.8921C98.0778 17.0891 98.0058 17.3121 98.0058 17.5621C97.9936 17.753 98.0389 17.9432 98.1358 18.1081C98.2358 18.2631 98.3698 18.3981 98.5398 18.5111C98.7098 18.6211 98.9068 18.7181 99.1298 18.8011C99.3538 18.8811 99.5928 18.9491 99.8468 19.0061L100.892 19.2561C101.4 19.3691 101.866 19.5211 102.29 19.7101C102.714 19.9001 103.082 20.1331 103.392 20.4101C103.703 20.6861 103.943 21.0111 104.114 21.3861C104.288 21.7611 104.377 22.1911 104.381 22.6761C104.377 23.3881 104.195 24.0061 103.835 24.5281C103.479 25.0481 102.964 25.4511 102.29 25.7381C101.62 26.0231 100.811 26.1651 99.8638 26.1651C98.9238 26.1651 98.1058 26.0211 97.4088 25.7331C96.7158 25.4451 96.1738 25.0191 95.7838 24.4541C95.3978 23.8861 95.1948 23.1841 95.1758 22.3471H97.5568C97.5838 22.7371 97.6948 23.0621 97.8918 23.3241C98.0928 23.5811 98.3598 23.7761 98.6928 23.9091C99.0584 24.0428 99.4455 24.1082 99.8348 24.1021C100.252 24.1021 100.614 24.0421 100.921 23.9211C101.231 23.7991 101.472 23.6311 101.642 23.4151C101.813 23.1991 101.898 22.9511 101.898 22.6711C101.905 22.4297 101.822 22.1943 101.665 22.0111C101.513 21.8331 101.29 21.6811 100.995 21.5571C100.647 21.4141 100.288 21.3 99.9208 21.2161L98.6538 20.8981C97.6728 20.6591 96.8978 20.2861 96.3298 19.7781C95.7618 19.2711 95.4798 18.5881 95.4828 17.7281C95.4788 17.0231 95.6668 16.4081 96.0458 15.8811C96.4278 15.3541 96.9528 14.9431 97.6188 14.6481C98.2858 14.3521 99.0438 14.2041 99.8918 14.2041C100.756 14.2041 101.51 14.3521 102.154 14.6481C102.801 14.9431 103.305 15.3541 103.665 15.8811C104.025 16.4071 104.21 17.0171 104.222 17.7111H101.864V17.7101ZM111.559 14.3641V26.0001H109.099V14.3641H111.559ZM115.638 20.9541V26.0001H113.218V17.2731H115.525V18.8131H115.627C115.82 18.3051 116.144 17.9031 116.598 17.6081C117.053 17.3081 117.604 17.1591 118.252 17.1591C118.858 17.1591 119.386 17.2921 119.837 17.5571C120.288 17.8221 120.638 18.2011 120.888 18.6931C121.138 19.1821 121.263 19.7651 121.263 20.4431V26.0001H118.843V20.8751C118.847 20.3411 118.71 19.9251 118.434 19.6251C118.157 19.3221 117.776 19.1711 117.292 19.1711C116.966 19.1711 116.678 19.2411 116.428 19.3811C116.179 19.5244 115.977 19.7375 115.848 19.9941C115.712 20.2591 115.642 20.5791 115.638 20.9541ZM126.067 26.1421C125.404 26.1421 124.804 25.9721 124.266 25.6311C123.732 25.2861 123.307 24.7811 122.993 24.1141C122.682 23.4441 122.527 22.6211 122.527 21.6481C122.527 20.6481 122.688 19.8161 123.01 19.1531C123.332 18.4871 123.76 17.9891 124.294 17.6591C124.823 17.3282 125.436 17.1547 126.061 17.1591C126.55 17.1591 126.957 17.2421 127.283 17.4091C127.612 17.5721 127.877 17.7761 128.078 18.0231C128.283 18.2651 128.438 18.5031 128.544 18.7391H128.618V14.3641H131.033V26.0001H128.646V24.6021H128.544C128.417 24.864 128.254 25.1069 128.061 25.3241C127.838 25.573 127.565 25.7723 127.26 25.9091C126.934 26.0641 126.537 26.1421 126.067 26.1421ZM126.834 24.2161C127.224 24.2161 127.554 24.1101 127.822 23.8981C128.095 23.6821 128.304 23.3811 128.447 22.9941C128.595 22.6081 128.669 22.1551 128.669 21.6361C128.669 21.1171 128.597 20.6661 128.453 20.2841C128.309 19.9011 128.101 19.6061 127.828 19.3981C127.555 19.1891 127.224 19.0851 126.834 19.0851C126.436 19.0851 126.101 19.1931 125.828 19.4091C125.555 19.6251 125.349 19.9241 125.209 20.3071C125.069 20.6891 124.999 21.1331 124.999 21.6371C124.999 22.1441 125.069 22.5931 125.209 22.9831C125.353 23.3691 125.559 23.6731 125.828 23.8921C126.101 24.1081 126.436 24.2161 126.834 24.2161ZM136.68 26.1701C135.782 26.1701 135.01 25.9891 134.362 25.6251C133.723 25.2634 133.206 24.7219 132.873 24.0681C132.525 23.3941 132.351 22.5971 132.351 21.6761C132.351 20.7781 132.525 19.9911 132.873 19.3131C133.202 18.6551 133.713 18.1049 134.345 17.7271C134.981 17.3491 135.727 17.1591 136.583 17.1591C137.159 17.1591 137.695 17.2521 138.191 17.4381C138.691 17.6191 139.127 17.8941 139.498 18.2611C139.873 18.6291 140.165 19.0911 140.373 19.6481C140.582 20.2011 140.686 20.8481 140.686 21.5911V22.2561H133.316V20.7561H138.407C138.413 20.4326 138.335 20.1129 138.18 19.8291C138.032 19.5644 137.814 19.3462 137.549 19.1991C137.267 19.0393 136.947 18.9588 136.623 18.9661C136.256 18.9661 135.93 19.0511 135.646 19.2221C135.366 19.3881 135.146 19.6141 134.987 19.8981C134.828 20.1781 134.746 20.4911 134.743 20.8351V22.2611C134.743 22.6931 134.822 23.0661 134.981 23.3811C135.144 23.6951 135.373 23.9371 135.669 24.1081C135.964 24.2781 136.315 24.3641 136.72 24.3641C136.989 24.3641 137.235 24.3261 137.458 24.2501C137.672 24.1816 137.868 24.0651 138.031 23.9095C138.193 23.7539 138.318 23.5632 138.396 23.3521L140.635 23.5001C140.529 24.023 140.288 24.509 139.936 24.9101C139.587 25.3071 139.136 25.6171 138.583 25.8401C138.034 26.0601 137.4 26.1701 136.68 26.1701ZM143.812 17.2731L145.414 20.3231L147.056 17.2731H149.539L147.011 21.6361L149.607 26.0001H147.136L145.414 22.9831L143.721 26.0001H141.221L143.812 21.6361L141.312 17.2731H143.812ZM62.5308 34.8601V34.0001H68.5308V34.8601H66.0158V42.0001H65.0458V34.8601H62.5308ZM71.4138 42.1251C70.8718 42.1251 70.3968 41.9961 69.9878 41.7381C69.5754 41.4734 69.2453 41.0986 69.0348 40.6561C68.8078 40.1931 68.6948 39.6511 68.6948 39.0311C68.6948 38.4061 68.8078 37.8611 69.0348 37.3951C69.2638 36.9281 69.5818 36.5661 69.9878 36.3091C70.3968 36.0511 70.8718 35.9221 71.4138 35.9221C71.9548 35.9221 72.4288 36.0511 72.8358 36.3091C73.2448 36.5661 73.5618 36.9291 73.7888 37.3951C74.0178 37.8611 74.1318 38.4061 74.1318 39.0311C74.1318 39.6511 74.0178 40.1931 73.7888 40.6561C73.5799 41.0997 73.2494 41.4749 72.8358 41.7381C72.4288 41.9961 71.9558 42.1251 71.4138 42.1251ZM71.4138 41.2971C71.8248 41.2971 72.1638 41.1911 72.4288 40.9811C72.6948 40.7691 72.8918 40.4921 73.0188 40.1481C73.1468 39.8051 73.2108 39.4321 73.2108 39.0311C73.2108 38.6311 73.1468 38.2571 73.0188 37.9111C72.9034 37.582 72.6992 37.2913 72.4288 37.0711C72.1638 36.8571 71.8248 36.7501 71.4138 36.7501C71.0018 36.7501 70.6638 36.8571 70.3978 37.0701C70.1274 37.2903 69.9232 37.581 69.8078 37.9101C69.6808 38.2571 69.6168 38.6301 69.6168 39.0311C69.6168 39.4321 69.6808 39.8051 69.8078 40.1481C69.9358 40.4921 70.1318 40.7691 70.3978 40.9801C70.6638 41.1911 71.0018 41.2971 71.4138 41.2971ZM75.4838 44.2501V36.0001H76.3748V36.9531H76.4848C76.5518 36.8491 76.6458 36.7161 76.7658 36.5551C76.8878 36.3911 77.0628 36.2451 77.2888 36.1171C77.5188 35.9871 77.8288 35.9221 78.2188 35.9221C78.7238 35.9221 79.1688 36.0481 79.5548 36.3011C79.9398 36.5531 80.2408 36.9111 80.4568 37.3751C80.6738 37.8391 80.7818 38.3851 80.7818 39.0151C80.7818 39.6511 80.6738 40.2021 80.4568 40.6681C80.2637 41.1041 79.9527 41.4774 79.5588 41.7461C79.1652 42.0019 78.7041 42.1339 78.2348 42.1251C77.8488 42.1251 77.5408 42.0611 77.3088 41.9341C77.1022 41.8247 76.9202 41.6743 76.7738 41.4921C76.6712 41.3583 76.5745 41.2202 76.4838 41.0781H76.4068V44.2501H75.4838ZM76.3908 39.0001C76.3908 39.4531 76.4568 39.8531 76.5908 40.2001C76.7228 40.5431 76.9168 40.8121 77.1718 41.0081C77.4268 41.2001 77.7398 41.2971 78.1098 41.2971C78.4948 41.2971 78.8168 41.1951 79.0748 40.9921C79.3348 40.7861 79.5298 40.5101 79.6598 40.1641C79.7928 39.8151 79.8598 39.4271 79.8598 39.0001C79.8598 38.5781 79.7948 38.1981 79.6638 37.8601C79.5518 37.5397 79.3497 37.2584 79.0818 37.0501C78.8248 36.8501 78.4998 36.7501 78.1098 36.7501C77.7348 36.7501 77.4198 36.8451 77.1638 37.0351C76.9088 37.2231 76.7158 37.4851 76.5858 37.8251C76.4487 38.2014 76.3826 38.5997 76.3908 39.0001ZM85.5708 38.1401V39.0001H82.0708V38.1401H85.5708ZM86.7448 42.0001V41.2971L89.3848 38.4071C89.6948 38.0671 89.9508 37.7731 90.1508 37.5231C90.3508 37.2711 90.4998 37.0331 90.5958 36.8131C90.6958 36.5891 90.7448 36.3541 90.7448 36.1091C90.7448 35.8291 90.6768 35.5851 90.5418 35.3791C90.4077 35.172 90.2181 35.0068 89.9948 34.9021C89.7506 34.7875 89.4835 34.73 89.2138 34.7341C88.9058 34.7341 88.6378 34.7981 88.4088 34.9261C88.1818 35.0511 88.0058 35.2261 87.8808 35.4531C87.7539 35.6992 87.691 35.9733 87.6978 36.2501H86.7758C86.7758 35.7811 86.8838 35.3701 87.0998 35.0161C87.3158 34.6611 87.6098 34.3861 87.9828 34.1881C88.3725 33.9866 88.806 33.8845 89.2448 33.8911C89.7138 33.8911 90.1288 33.9901 90.4908 34.1881C90.8528 34.3851 91.1368 34.6521 91.3428 34.9881C91.5478 35.3241 91.6508 35.6981 91.6508 36.1091C91.6508 36.4041 91.5978 36.6911 91.4908 36.9731C91.3868 37.2511 91.2038 37.5631 90.9438 37.9061C90.6858 38.2471 90.3278 38.6641 89.8698 39.1561L88.0728 41.0781V41.1411H91.7918V42.0001H86.7448ZM95.9588 42.1101C95.3708 42.1101 94.8688 41.9501 94.4548 41.6291C94.0408 41.3061 93.7248 40.8391 93.5058 40.2271C93.2868 39.6121 93.1778 38.8701 93.1778 38.0001C93.1778 37.1351 93.2878 36.3971 93.5058 35.7851C93.7278 35.1711 94.0458 34.7021 94.4588 34.3791C94.8758 34.0531 95.3758 33.8911 95.9588 33.8911C96.5428 33.8911 97.0408 34.0531 97.4548 34.3791C97.8718 34.7021 98.1898 35.1711 98.4088 35.7851C98.6288 36.3971 98.7408 37.1351 98.7408 38.0001C98.7408 38.8701 98.6308 39.6121 98.4118 40.2271C98.1938 40.8391 97.8768 41.3061 97.4628 41.6291C97.0488 41.9491 96.5478 42.1101 95.9588 42.1101ZM95.9588 41.2501C96.5428 41.2501 96.9958 40.9691 97.3188 40.4061C97.6418 39.8441 97.8028 39.0421 97.8028 38.0001C97.8028 37.3071 97.7288 36.7171 97.5798 36.2301C97.4348 35.7441 97.2238 35.3721 96.9478 35.1171C96.6813 34.8644 96.326 34.7268 95.9588 34.7341C95.3808 34.7341 94.9288 35.0191 94.6038 35.5901C94.2778 36.1581 94.1158 36.9601 94.1158 38.0001C94.1158 38.6931 94.1878 39.2811 94.3338 39.7661C94.4798 40.2501 94.6898 40.6181 94.9638 40.8711C95.2388 41.1241 95.5708 41.2501 95.9588 41.2501ZM105.896 36.0001V36.7811H102.662V36.0001H105.896ZM103.631 42.0001V35.1721C103.631 34.8281 103.711 34.5421 103.873 34.3121C104.031 34.0858 104.249 33.9076 104.502 33.7971C104.76 33.6821 105.032 33.6251 105.318 33.6251C105.617 33.6154 105.915 33.6685 106.193 33.7811L105.927 34.5781C105.862 34.5569 105.797 34.5373 105.732 34.5191C105.627 34.4929 105.52 34.4811 105.412 34.4841C105.107 34.4841 104.887 34.5611 104.752 34.7141C104.619 34.8681 104.552 35.0941 104.552 35.3911V42.0001H103.631ZM108.727 42.1401C108.347 42.1401 108.002 42.0691 107.692 41.9261C107.392 41.7888 107.136 41.5706 106.954 41.2961C106.771 41.0211 106.68 40.6881 106.68 40.2961C106.68 39.9531 106.748 39.6751 106.883 39.4611C107.016 39.2471 107.203 39.072 107.426 38.9531C107.653 38.8311 107.903 38.7401 108.176 38.6801C108.452 38.6171 108.73 38.5681 109.008 38.5311C109.373 38.4841 109.668 38.4491 109.895 38.4261C110.124 38.4001 110.291 38.3561 110.395 38.2961C110.502 38.2371 110.555 38.1331 110.555 37.9841V37.9541C110.555 37.5681 110.45 37.2681 110.239 37.0541C110.03 36.8411 109.714 36.7341 109.289 36.7341C108.849 36.7341 108.504 36.8311 108.254 37.0241C108.004 37.2161 107.829 37.4221 107.727 37.6411L106.852 37.3281C107.008 36.9641 107.217 36.6801 107.477 36.4771C107.74 36.2711 108.026 36.1271 108.336 36.0471C108.636 35.9654 108.946 35.9234 109.258 35.9221C109.451 35.9221 109.672 35.9451 109.922 35.9921C110.175 36.0361 110.418 36.1291 110.653 36.2701C110.89 36.4101 111.086 36.6221 111.243 36.9061C111.399 37.1901 111.477 37.5701 111.477 38.0461V42.0001H110.555V41.1871H110.508C110.427 41.3427 110.322 41.4842 110.196 41.6061C110.028 41.7685 109.83 41.8968 109.614 41.9841C109.372 42.0891 109.076 42.1401 108.727 42.1401ZM108.868 41.3121C109.232 41.3121 109.539 41.2411 109.789 41.0981C110.018 40.9736 110.21 40.7903 110.344 40.5671C110.479 40.3439 110.552 40.0888 110.555 39.8281V38.9841C110.516 39.0311 110.43 39.0741 110.297 39.1141C110.167 39.1501 110.016 39.1821 109.844 39.2111C109.55 39.2568 109.256 39.2958 108.961 39.3281C108.732 39.3569 108.507 39.4078 108.289 39.4801C108.098 39.5388 107.926 39.6455 107.789 39.7901C107.664 39.9251 107.602 40.1101 107.602 40.3441C107.602 40.6641 107.72 40.9061 107.957 41.0701C108.197 41.2321 108.5 41.3121 108.868 41.3121ZM117.355 37.3441L116.526 37.5781C116.47 37.4332 116.392 37.2976 116.296 37.1761C116.188 37.0362 116.049 36.9238 115.89 36.8481C115.718 36.7621 115.498 36.7181 115.23 36.7181C114.862 36.7181 114.556 36.8031 114.312 36.9731C114.069 37.1391 113.948 37.3521 113.948 37.6091C113.948 37.8391 114.032 38.0191 114.198 38.1521C114.365 38.2851 114.625 38.3961 114.98 38.4841L115.87 38.7041C116.407 38.8341 116.806 39.0331 117.069 39.3011C117.332 39.5661 117.464 39.9091 117.464 40.3281C117.464 40.6721 117.365 40.9791 117.167 41.2501C116.956 41.533 116.672 41.7541 116.347 41.8901C115.995 42.0471 115.586 42.1251 115.12 42.1251C114.508 42.1251 114.002 41.9921 113.601 41.7271C113.2 41.4611 112.946 41.0731 112.839 40.5631L113.714 40.3431C113.797 40.6671 113.955 40.9091 114.187 41.0701C114.421 41.2321 114.727 41.3121 115.105 41.3121C115.534 41.3121 115.875 41.2221 116.128 41.0391C116.383 40.8541 116.511 40.6331 116.511 40.3751C116.513 40.2774 116.495 40.1804 116.457 40.0903C116.419 40.0002 116.363 39.9191 116.292 39.8521C116.146 39.7081 115.922 39.6021 115.62 39.5321L114.62 39.2971C114.071 39.1671 113.667 38.9651 113.409 38.6911C113.154 38.4151 113.026 38.0711 113.026 37.6561C113.026 37.3181 113.122 37.0181 113.312 36.7581C113.504 36.4981 113.766 36.2931 114.097 36.1441C114.455 35.991 114.841 35.9153 115.23 35.9221C115.823 35.9221 116.289 36.0521 116.628 36.3121C116.969 36.5721 117.211 36.9171 117.355 37.3441ZM121.407 36.0001V36.7811H118.298V36.0001H121.407ZM119.204 34.5621H120.126V40.2821C120.126 40.5421 120.164 40.7371 120.239 40.8671C120.305 40.9848 120.41 41.0759 120.536 41.1251C120.658 41.1671 120.787 41.1881 120.923 41.1881C121.024 41.1881 121.108 41.1821 121.173 41.1721L121.329 41.1411L121.516 41.9691C121.431 41.9988 121.343 42.0222 121.255 42.0391C121.115 42.0682 120.972 42.0816 120.829 42.0791C120.568 42.0791 120.313 42.0221 120.063 41.9101C119.815 41.7976 119.602 41.6208 119.446 41.3981C119.285 41.1691 119.204 40.8801 119.204 40.5311V34.5621ZM125.19 42.1251C124.612 42.1251 124.113 41.9971 123.694 41.7421C123.276 41.4826 122.941 41.1084 122.729 40.6641C122.505 40.2001 122.393 39.6611 122.393 39.0471C122.393 38.4321 122.505 37.8911 122.729 37.4221C122.935 36.9743 123.263 36.5927 123.674 36.3201C124.081 36.0551 124.555 35.9221 125.096 35.9221C125.409 35.9221 125.717 35.9741 126.022 36.0781C126.327 36.1821 126.604 36.3521 126.854 36.5861C127.104 36.8181 127.303 37.1251 127.452 37.5081C127.6 37.8911 127.674 38.3621 127.674 38.9221V39.3121H123.049V38.5161H126.737C126.737 38.1771 126.669 37.8751 126.534 37.6091C126.407 37.3497 126.209 37.1316 125.963 36.9801C125.702 36.822 125.401 36.7421 125.096 36.7501C124.729 36.7501 124.411 36.8411 124.143 37.0231C123.877 37.2031 123.673 37.4371 123.53 37.7271C123.387 38.0161 123.313 38.3346 123.315 38.6571V39.1871C123.315 39.6411 123.393 40.0251 123.549 40.3401C123.708 40.6521 123.928 40.8901 124.209 41.0551C124.491 41.2161 124.818 41.2971 125.19 41.2971C125.432 41.2971 125.651 41.2631 125.846 41.1951C126.044 41.1251 126.215 41.0211 126.358 40.8831C126.501 40.7431 126.612 40.5681 126.69 40.3591L127.581 40.6091C127.488 40.9084 127.326 41.1816 127.108 41.4061C126.876 41.64 126.596 41.8215 126.288 41.9381C125.936 42.0674 125.564 42.1308 125.19 42.1251ZM133.272 37.3441L132.444 37.5781C132.387 37.4333 132.309 37.2978 132.213 37.1761C132.105 37.0362 131.966 36.9238 131.807 36.8481C131.635 36.7621 131.415 36.7181 131.147 36.7181C130.779 36.7181 130.473 36.8031 130.229 36.9731C129.986 37.1391 129.865 37.3521 129.865 37.6091C129.865 37.8391 129.949 38.0191 130.115 38.1521C130.282 38.2851 130.542 38.3961 130.897 38.4841L131.787 38.7041C132.324 38.8341 132.723 39.0331 132.986 39.3011C133.25 39.5661 133.381 39.9091 133.381 40.3281C133.381 40.6721 133.282 40.9791 133.084 41.2501C132.873 41.533 132.59 41.7541 132.264 41.8901C131.912 42.0471 131.503 42.1251 131.037 42.1251C130.425 42.1251 129.919 41.9921 129.518 41.7271C129.117 41.4611 128.863 41.0731 128.756 40.5631L129.631 40.3431C129.714 40.6671 129.872 40.9091 130.104 41.0701C130.338 41.2321 130.644 41.3121 131.022 41.3121C131.451 41.3121 131.792 41.2221 132.045 41.0391C132.3 40.8541 132.428 40.6331 132.428 40.3751C132.43 40.2774 132.412 40.1804 132.374 40.0903C132.336 40.0002 132.28 39.9191 132.209 39.8521C132.063 39.7081 131.839 39.6021 131.537 39.5321L130.537 39.2971C129.988 39.1671 129.584 38.9651 129.326 38.6911C129.071 38.4151 128.944 38.0711 128.944 37.6561C128.944 37.3181 129.039 37.0181 129.229 36.7581C129.421 36.4981 129.683 36.2931 130.014 36.1441C130.372 35.991 130.758 35.9153 131.147 35.9221C131.74 35.9221 132.207 36.0521 132.545 36.3121C132.886 36.5721 133.128 36.9171 133.272 37.3441ZM137.323 36.0001V36.7811H134.214V36.0001H137.323ZM135.12 34.5621H136.042V40.2821C136.042 40.5421 136.08 40.7371 136.155 40.8671C136.221 40.9848 136.326 41.0759 136.452 41.1251C136.574 41.1671 136.703 41.1881 136.839 41.1881C136.94 41.1881 137.024 41.1821 137.089 41.1721L137.245 41.1411L137.432 41.9691C137.347 41.9988 137.259 42.0222 137.171 42.0391C137.031 42.0682 136.888 42.0816 136.745 42.0791C136.48 42.0779 136.219 42.0202 135.979 41.9101C135.731 41.7976 135.518 41.6208 135.362 41.3981C135.201 41.1691 135.12 40.8801 135.12 40.5311V34.5621ZM141.877 38.1411V39.0001H138.377V38.1401L141.877 38.1411ZM145.866 44.3751C145.421 44.3751 145.038 44.3181 144.718 44.2031C144.425 44.1065 144.153 43.9556 143.917 43.7581C143.719 43.5908 143.549 43.393 143.413 43.1721L144.148 42.6561C144.231 42.7661 144.336 42.8911 144.464 43.0311C144.592 43.1751 144.766 43.2981 144.988 43.4021C145.211 43.5091 145.504 43.5621 145.866 43.5621C146.351 43.5621 146.751 43.4451 147.066 43.2111C147.381 42.9771 147.538 42.6091 147.538 42.1091V40.8911H147.46C147.37 41.031 147.274 41.1665 147.171 41.2971C147.049 41.4561 146.872 41.5971 146.64 41.7231C146.411 41.8451 146.101 41.9061 145.71 41.9061C145.226 41.9061 144.791 41.7921 144.405 41.5631C144.012 41.3231 143.697 40.9762 143.495 40.5631C143.274 40.1251 143.163 39.5931 143.163 38.9691C143.163 38.3541 143.271 37.8191 143.488 37.3631C143.704 36.9051 144.004 36.5511 144.39 36.3011C144.787 36.0445 145.253 35.9122 145.726 35.9211C146.116 35.9211 146.426 35.9871 146.655 36.1171C146.887 36.2451 147.064 36.3911 147.187 36.5551C147.312 36.7161 147.408 36.8491 147.476 36.9531H147.57V36.0001H148.46V42.1721C148.46 42.6881 148.343 43.1071 148.109 43.4301C147.875 43.7571 147.548 44.0062 147.171 44.1451C146.754 44.303 146.311 44.381 145.866 44.3751ZM145.835 41.0781C146.205 41.0781 146.517 40.9931 146.773 40.8241C147.028 40.6541 147.222 40.4111 147.355 40.0941C147.488 39.7761 147.554 39.3961 147.554 38.9541C147.554 38.5211 147.489 38.1391 147.359 37.8091C147.244 37.4996 147.043 37.2295 146.78 37.0311C146.525 36.8441 146.21 36.7501 145.835 36.7501C145.445 36.7501 145.119 36.8491 144.859 37.0471C144.594 37.2535 144.393 37.5295 144.277 37.8441C144.145 38.1991 144.08 38.5754 144.085 38.9541C144.085 39.3701 144.15 39.7381 144.28 40.0591C144.4 40.3598 144.603 40.62 144.866 40.8091C145.127 40.9891 145.45 41.0781 145.835 41.0781ZM150.093 42.0001V36.0001H150.983V36.9061H151.046C151.155 36.6091 151.353 36.3681 151.64 36.1841C151.926 35.9991 152.249 35.9061 152.608 35.9061C152.676 35.9061 152.761 35.9081 152.862 35.9101C152.964 35.9131 153.041 35.9171 153.093 35.9221V36.8591C153.022 36.8446 152.95 36.833 152.878 36.8241C152.763 36.8056 152.646 36.7965 152.53 36.7971C152.258 36.7924 151.99 36.8556 151.749 36.9811C151.524 37.0955 151.336 37.2707 151.206 37.4868C151.077 37.7029 151.01 37.9511 151.015 38.2031V42.0001H150.093ZM156.385 42.1251C155.844 42.1251 155.368 41.9961 154.96 41.7381C154.547 41.4734 154.217 41.0986 154.006 40.6561C153.78 40.1931 153.667 39.6511 153.667 39.0311C153.667 38.4061 153.78 37.8611 154.006 37.3951C154.236 36.9281 154.553 36.5661 154.96 36.3091C155.368 36.0511 155.844 35.9221 156.385 35.9221C156.927 35.9221 157.401 36.0511 157.807 36.3091C158.216 36.5661 158.534 36.9291 158.76 37.3951C158.989 37.8611 159.104 38.4061 159.104 39.0311C159.104 39.6511 158.989 40.1931 158.76 40.6561C158.551 41.0998 158.221 41.4751 157.807 41.7381C157.401 41.9961 156.927 42.1251 156.385 42.1251ZM156.385 41.2971C156.797 41.2971 157.135 41.1911 157.401 40.9811C157.667 40.7691 157.863 40.4921 157.991 40.1481C158.118 39.8051 158.182 39.4321 158.182 39.0311C158.182 38.6311 158.118 38.2571 157.991 37.9111C157.875 37.582 157.671 37.2913 157.401 37.0711C157.135 36.8571 156.797 36.7501 156.385 36.7501C155.974 36.7501 155.635 36.8571 155.37 37.0701C155.099 37.29 154.895 37.5808 154.78 37.9101C154.652 38.2571 154.588 38.6301 154.588 39.0311C154.588 39.4321 154.652 39.8051 154.78 40.1481C154.907 40.4921 155.104 40.7691 155.37 40.9801C155.635 41.1911 155.974 41.2971 156.385 41.2971ZM161.612 42.0001L159.783 36.0001H160.752L162.049 40.5941H162.112L163.393 36.0001H164.377L165.643 40.5781H165.705L167.002 36.0001H167.971L166.143 42.0001H165.237L163.924 37.3901H163.83L162.518 42.0001H161.612ZM169.135 42.0001V36.0001H170.057V42.0001H169.135ZM169.603 35.0001C169.43 35.0025 169.263 34.9364 169.139 34.8161C169.078 34.7602 169.029 34.6921 168.996 34.6161C168.963 34.5401 168.946 34.458 168.947 34.3751C168.947 34.2031 169.011 34.0561 169.139 33.9341C169.263 33.8138 169.43 33.7477 169.603 33.7501C169.688 33.7485 169.773 33.764 169.852 33.7956C169.931 33.8272 170.003 33.8743 170.064 33.9341C170.195 34.0561 170.26 34.2041 170.26 34.3751C170.261 34.4584 170.243 34.5408 170.21 34.6169C170.176 34.693 170.126 34.7609 170.064 34.8161C170.003 34.8759 169.931 34.923 169.852 34.9546C169.773 34.9862 169.688 35.0017 169.603 35.0001ZM172.612 38.3901V42.0001H171.69V36.0001H172.581V36.9381H172.659C172.799 36.6331 173.013 36.3881 173.299 36.2031C173.586 36.0161 173.956 35.9221 174.409 35.9221C174.815 35.9221 175.171 36.0051 175.475 36.1721C175.78 36.3361 176.017 36.5861 176.186 36.9221C176.355 37.2551 176.44 37.6771 176.44 38.1881V42.0001H175.518V38.2501C175.518 37.7791 175.396 37.4111 175.151 37.1481C174.906 36.8831 174.57 36.7501 174.143 36.7501C173.868 36.7453 173.596 36.8111 173.354 36.9411C173.125 37.0691 172.944 37.2551 172.811 37.5001C172.678 37.7451 172.612 38.0421 172.612 38.3901ZM180.491 44.3751C180.046 44.3751 179.663 44.3181 179.343 44.2031C179.05 44.1065 178.778 43.9556 178.542 43.7581C178.344 43.5908 178.174 43.393 178.038 43.1721L178.773 42.6561C178.856 42.7661 178.962 42.8911 179.089 43.0311C179.217 43.1751 179.391 43.2981 179.613 43.4021C179.837 43.5091 180.13 43.5621 180.491 43.5621C180.976 43.5621 181.376 43.4451 181.691 43.2111C182.006 42.9771 182.163 42.6091 182.163 42.1091V40.8911H182.085C181.995 41.0312 181.899 41.1667 181.796 41.2971C181.674 41.4561 181.497 41.5971 181.265 41.7231C181.036 41.8451 180.726 41.9061 180.335 41.9061C179.877 41.9134 179.426 41.7947 179.031 41.5631C178.638 41.3234 178.322 40.9765 178.12 40.5631C177.899 40.1251 177.788 39.5931 177.788 38.9691C177.788 38.3541 177.896 37.8191 178.113 37.3631C178.329 36.9051 178.63 36.5511 179.015 36.3011C179.412 36.0445 179.878 35.9122 180.351 35.9211C180.741 35.9211 181.051 35.9871 181.281 36.1171C181.512 36.2451 181.689 36.3911 181.812 36.5551C181.937 36.7161 182.033 36.8491 182.101 36.9531H182.195V36.0001H183.085V42.1721C183.085 42.6881 182.968 43.1071 182.734 43.4301C182.5 43.7571 182.173 44.0062 181.796 44.1451C181.406 44.2981 180.971 44.3751 180.491 44.3751ZM180.46 41.0781C180.83 41.0781 181.143 40.9931 181.398 40.8241C181.653 40.6541 181.847 40.4111 181.98 40.0941C182.113 39.7761 182.179 39.3961 182.179 38.9541C182.179 38.5211 182.114 38.1391 181.984 37.8091C181.869 37.4998 181.669 37.2298 181.406 37.0311C181.15 36.8441 180.835 36.7501 180.46 36.7501C180.07 36.7501 179.744 36.8491 179.484 37.0471C179.219 37.2535 179.018 37.5295 178.902 37.8441C178.77 38.1991 178.705 38.5754 178.71 38.9541C178.71 39.3701 178.775 39.7381 178.906 40.0591C179.025 40.3597 179.228 40.6199 179.491 40.8091C179.752 40.9891 180.075 41.0781 180.46 41.0781ZM194.631 38.0001C194.631 38.8441 194.479 39.5731 194.174 40.1881C193.87 40.8021 193.452 41.2761 192.921 41.6091C192.389 41.9431 191.783 42.1091 191.1 42.1091C190.418 42.1091 189.811 41.9431 189.28 41.6091C188.749 41.2761 188.331 40.8021 188.026 40.1871C187.721 39.5731 187.569 38.8441 187.569 38.0001C187.569 37.1561 187.721 36.4271 188.026 35.8121C188.331 35.1981 188.749 34.7241 189.28 34.3911C189.811 34.0571 190.418 33.8911 191.1 33.8911C191.783 33.8911 192.389 34.0571 192.921 34.3911C193.452 34.7241 193.87 35.1981 194.174 35.8131C194.479 36.4271 194.631 37.1561 194.631 38.0001ZM193.694 38.0001C193.694 37.3071 193.578 36.7231 193.346 36.2461C193.117 35.7691 192.806 35.4091 192.413 35.1641C192.019 34.9186 191.564 34.7912 191.1 34.7971C190.635 34.7916 190.179 34.9189 189.784 35.1641C189.393 35.4091 189.082 35.7691 188.85 36.2461C188.621 36.7231 188.506 37.3071 188.506 38.0001C188.506 38.6931 188.621 39.2771 188.85 39.7541C189.082 40.2311 189.393 40.5911 189.784 40.8361C190.179 41.0813 190.635 41.2086 191.1 41.2031C191.564 41.2091 192.019 41.0817 192.413 40.8361C192.806 40.5911 193.117 40.2311 193.346 39.7541C193.578 39.2771 193.694 38.6931 193.694 38.0001ZM200.58 36.0001C200.562 35.813 200.501 35.6325 200.402 35.4726C200.303 35.3127 200.169 35.1778 200.01 35.0781C199.677 34.8591 199.268 34.7501 198.784 34.7501C198.429 34.7501 198.119 34.8071 197.854 34.9221C197.61 35.0221 197.397 35.1853 197.237 35.3951C197.092 35.5929 197.015 35.8327 197.018 36.0781C197.013 36.2725 197.066 36.4639 197.17 36.6281C197.274 36.7801 197.407 36.9061 197.569 37.0081C197.73 37.1071 197.899 37.1881 198.076 37.2541C198.254 37.3161 198.416 37.3671 198.565 37.4061L199.377 37.6251C199.586 37.6801 199.817 37.7551 200.073 37.8521C200.33 37.9481 200.576 38.0791 200.811 38.2461C201.048 38.4101 201.243 38.6211 201.397 38.8791C201.55 39.1371 201.627 39.4531 201.627 39.8291C201.627 40.2601 201.514 40.6511 201.287 41.0001C201.063 41.3491 200.735 41.6261 200.303 41.8321C199.873 42.0381 199.351 42.1411 198.737 42.1411C198.164 42.1411 197.668 42.0481 197.248 41.8631C196.857 41.6979 196.517 41.431 196.264 41.0901C196.024 40.7513 195.884 40.3516 195.862 39.9371H196.862C196.888 40.2401 196.989 40.4901 197.166 40.6871C197.346 40.8831 197.573 41.0291 197.846 41.1251C198.122 41.2191 198.419 41.2651 198.737 41.2651C199.106 41.2651 199.438 41.2051 199.733 41.0851C200.006 40.9795 200.247 40.8048 200.432 40.5781C200.604 40.3591 200.69 40.1041 200.69 39.8121C200.69 39.5471 200.616 39.3311 200.467 39.1641C200.304 38.9872 200.104 38.8486 199.881 38.7581C199.626 38.6492 199.363 38.5576 199.096 38.4841L198.112 38.2041C197.487 38.0241 196.992 37.7671 196.627 37.4341C196.263 37.1001 196.08 36.6641 196.08 36.1251C196.08 35.6771 196.201 35.2861 196.444 34.9531C196.697 34.6104 197.036 34.3409 197.428 34.1721C197.865 33.9799 198.338 33.8841 198.815 33.8911C199.33 33.8911 199.789 33.9831 200.19 34.1681C200.591 34.3501 200.909 34.6001 201.143 34.9181C201.38 35.2361 201.505 35.5961 201.518 36.0001H200.58ZM210.329 37.3441L209.501 37.5781C209.445 37.4331 209.367 37.2976 209.27 37.1761C209.162 37.0362 209.023 36.9238 208.864 36.8481C208.692 36.7621 208.472 36.7181 208.204 36.7181C207.837 36.7181 207.531 36.8031 207.286 36.9731C207.044 37.1391 206.923 37.3521 206.923 37.6091C206.923 37.8391 207.006 38.0191 207.173 38.1521C207.339 38.2851 207.6 38.3961 207.954 38.4841L208.844 38.7041C209.381 38.8341 209.781 39.0331 210.044 39.3011C210.307 39.5661 210.438 39.9091 210.438 40.3281C210.438 40.6721 210.339 40.9791 210.141 41.2501C209.946 41.5201 209.673 41.7341 209.321 41.8901C208.969 42.0471 208.561 42.1251 208.094 42.1251C207.482 42.1251 206.976 41.9921 206.575 41.7271C206.174 41.4611 205.92 41.0731 205.813 40.5631L206.688 40.3431C206.772 40.6671 206.929 40.9091 207.161 41.0701C207.395 41.2321 207.701 41.3121 208.079 41.3121C208.508 41.3121 208.85 41.2221 209.102 41.0391C209.357 40.8541 209.485 40.6331 209.485 40.3751C209.487 40.2774 209.469 40.1804 209.431 40.0903C209.393 40.0002 209.337 39.9191 209.266 39.8521C209.12 39.7081 208.897 39.6021 208.594 39.5321L207.594 39.2971C207.045 39.1671 206.641 38.9651 206.383 38.6911C206.128 38.4151 206.001 38.0711 206.001 37.6561C206.001 37.3181 206.096 37.0181 206.286 36.7581C206.49 36.4889 206.76 36.2773 207.071 36.1441C207.429 35.991 207.815 35.9153 208.204 35.9221C208.798 35.9221 209.264 36.0521 209.602 36.3121C209.943 36.5721 210.186 36.9171 210.329 37.3441ZM214.38 36.0001V36.7811H211.271V36.0001H214.38ZM212.177 34.5621H213.099V40.2821C213.099 40.5421 213.137 40.7371 213.212 40.8671C213.278 40.9848 213.383 41.0759 213.509 41.1251C213.632 41.1671 213.76 41.1881 213.896 41.1881C213.997 41.1881 214.081 41.1821 214.146 41.1721L214.302 41.1411L214.49 41.9691C214.427 41.9921 214.34 42.0161 214.228 42.0391C214.088 42.0682 213.945 42.0816 213.802 42.0791C213.537 42.0779 213.276 42.0202 213.036 41.9101C212.788 41.7976 212.575 41.6208 212.419 41.3981C212.258 41.1691 212.177 40.8801 212.177 40.5311V34.5621ZM217.478 42.1411C217.121 42.1461 216.767 42.0727 216.442 41.9261C216.142 41.7885 215.887 41.5704 215.704 41.2961C215.522 41.0211 215.431 40.6881 215.431 40.2961C215.431 39.9531 215.498 39.6751 215.634 39.4611C215.769 39.2451 215.95 39.0751 216.177 38.9531C216.403 38.8311 216.653 38.7401 216.927 38.6801C217.203 38.6171 217.48 38.5681 217.759 38.5311C218.123 38.4841 218.419 38.4491 218.646 38.4261C218.875 38.4001 219.041 38.3561 219.146 38.2961C219.252 38.2371 219.306 38.1331 219.306 37.9841V37.9541C219.306 37.5681 219.2 37.2681 218.989 37.0541C218.781 36.8411 218.465 36.7341 218.04 36.7341C217.6 36.7341 217.255 36.8311 217.005 37.0241C216.755 37.2161 216.579 37.4221 216.478 37.6411L215.603 37.3281C215.759 36.9641 215.967 36.6801 216.228 36.4771C216.491 36.2711 216.777 36.1271 217.087 36.0471C217.399 35.9641 217.707 35.9221 218.009 35.9221C218.202 35.9221 218.423 35.9451 218.673 35.9921C218.926 36.0361 219.169 36.1291 219.403 36.2701C219.64 36.4101 219.837 36.6221 219.993 36.9061C220.149 37.1901 220.228 37.5701 220.228 38.0461V42.0001H219.306V41.1871H219.259C219.177 41.3425 219.072 41.484 218.946 41.6061C218.778 41.7687 218.58 41.897 218.364 41.9841C218.122 42.0891 217.827 42.1411 217.478 42.1411ZM217.618 41.3131C217.983 41.3131 218.29 41.2411 218.54 41.0981C218.793 40.9541 218.983 40.7701 219.11 40.5431C219.241 40.3161 219.306 40.0781 219.306 39.8281V38.9841C219.267 39.0311 219.181 39.0741 219.048 39.1141C218.918 39.1501 218.767 39.1821 218.595 39.2111C218.301 39.2566 218.007 39.2956 217.712 39.3281C217.472 39.3591 217.248 39.4101 217.04 39.4801C216.849 39.5385 216.677 39.6453 216.54 39.7901C216.415 39.9251 216.353 40.1101 216.353 40.3441C216.353 40.6641 216.471 40.9061 216.708 41.0701C216.948 41.2321 217.251 41.3131 217.618 41.3131ZM221.855 42.0001V36.0001H222.746V36.9061H222.808C222.918 36.6091 223.116 36.3681 223.402 36.1841C223.689 35.9991 224.011 35.9061 224.371 35.9061C224.439 35.9061 224.523 35.9081 224.625 35.9101C224.726 35.9131 224.803 35.9171 224.855 35.9221V36.8591C224.784 36.8446 224.712 36.8329 224.64 36.8241C224.525 36.8056 224.409 36.7965 224.293 36.7971C224.021 36.7922 223.752 36.8555 223.511 36.9811C223.289 37.0964 223.103 37.2691 222.972 37.4811C222.842 37.6911 222.777 37.9321 222.777 38.2031V42.0001H221.855ZM228.878 36.0001V36.7811H225.769V36.0001H228.878ZM226.675 34.5621H227.597V40.2821C227.597 40.5421 227.635 40.7371 227.71 40.8671C227.776 40.9848 227.881 41.0759 228.007 41.1251C228.13 41.1671 228.259 41.1881 228.394 41.1881C228.496 41.1881 228.579 41.1821 228.644 41.1721L228.8 41.1411L228.988 41.9691C228.925 41.9921 228.838 42.0161 228.726 42.0391C228.586 42.0682 228.443 42.0816 228.3 42.0791C228.04 42.0791 227.785 42.0221 227.535 41.9101C227.287 41.7979 227.073 41.6211 226.917 41.3981C226.756 41.1691 226.675 40.8801 226.675 40.5311V34.5621ZM233.991 39.5471V36.0001H234.913V42.0001H233.991V40.9841H233.929C233.782 41.2962 233.555 41.5644 233.273 41.7621C232.976 41.9721 232.601 42.0781 232.148 42.0781C231.773 42.0781 231.439 41.9961 231.148 41.8321C230.848 41.6571 230.608 41.3957 230.46 41.0821C230.293 40.7461 230.21 40.3221 230.21 39.8121V36.0001H231.132V39.7501C231.132 40.1881 231.254 40.5361 231.499 40.7971C231.746 41.0571 232.062 41.1871 232.444 41.1871C232.674 41.1871 232.907 41.1291 233.144 41.0121C233.383 40.8951 233.584 40.7151 233.745 40.4721C233.909 40.2301 233.991 39.9221 233.991 39.5471ZM236.547 44.2501V36.0001H237.437V36.9531H237.547C237.614 36.8491 237.708 36.7161 237.828 36.5551C237.95 36.3911 238.125 36.2451 238.351 36.1171C238.581 35.9871 238.89 35.9221 239.281 35.9221C239.786 35.9221 240.232 36.0481 240.617 36.3011C241.002 36.5531 241.303 36.9111 241.519 37.3751C241.735 37.8391 241.844 38.3851 241.844 39.0151C241.844 39.6511 241.735 40.2021 241.519 40.6681C241.326 41.1042 241.015 41.4776 240.621 41.7461C240.227 42.0019 239.766 42.1339 239.297 42.1251C238.911 42.1251 238.603 42.0611 238.371 41.9341C238.164 41.8248 237.982 41.6744 237.836 41.4921C237.733 41.3585 237.637 41.2203 237.547 41.0781H237.469V44.2501H236.547ZM237.453 39.0001C237.453 39.4531 237.519 39.8531 237.652 40.2001C237.785 40.5431 237.979 40.8121 238.234 41.0081C238.489 41.2001 238.802 41.2971 239.172 41.2971C239.557 41.2971 239.879 41.1951 240.136 40.9921C240.404 40.7757 240.607 40.4891 240.722 40.1641C240.855 39.8151 240.922 39.4271 240.922 39.0001C240.928 38.6112 240.861 38.2247 240.726 37.8601C240.614 37.5395 240.412 37.2581 240.144 37.0501C239.886 36.8501 239.562 36.7501 239.172 36.7501C238.797 36.7501 238.482 36.8451 238.226 37.0351C237.971 37.2231 237.778 37.4851 237.648 37.8251C237.511 38.2014 237.445 38.5997 237.453 39.0001ZM247.445 37.3441L246.617 37.5781C246.561 37.4331 246.483 37.2976 246.386 37.1761C246.278 37.0362 246.139 36.9238 245.98 36.8481C245.808 36.7621 245.588 36.7181 245.32 36.7181C244.953 36.7181 244.647 36.8031 244.402 36.9731C244.16 37.1391 244.039 37.3521 244.039 37.6091C244.039 37.8391 244.122 38.0191 244.289 38.1521C244.455 38.2851 244.716 38.3961 245.07 38.4841L245.96 38.7041C246.497 38.8341 246.897 39.0331 247.16 39.3011C247.423 39.5661 247.554 39.9091 247.554 40.3281C247.554 40.6721 247.455 40.9791 247.257 41.2501C247.062 41.5201 246.789 41.7341 246.437 41.8901C246.085 42.0471 245.677 42.1251 245.21 42.1251C244.598 42.1251 244.092 41.9921 243.691 41.7271C243.29 41.4611 243.036 41.0731 242.929 40.5631L243.804 40.3431C243.887 40.6671 244.045 40.9091 244.277 41.0701C244.511 41.2321 244.817 41.3121 245.195 41.3121C245.624 41.3121 245.966 41.2221 246.218 41.0391C246.473 40.8541 246.601 40.6331 246.601 40.3751C246.603 40.2774 246.585 40.1804 246.547 40.0903C246.509 40.0002 246.453 39.9191 246.382 39.8521C246.236 39.7081 246.012 39.6021 245.71 39.5321L244.71 39.2971C244.161 39.1671 243.757 38.9651 243.499 38.6911C243.244 38.4151 243.117 38.0711 243.117 37.6561C243.117 37.3181 243.212 37.0181 243.402 36.7581C243.606 36.4889 243.876 36.2773 244.187 36.1441C244.545 35.991 244.931 35.9153 245.32 35.9221C245.914 35.9221 246.38 36.0521 246.718 36.3121C247.059 36.5721 247.302 36.9171 247.445 37.3441Z" fill="#1B140E"/>
<path d="M159.006 16.8636L156.193 27.3125H155.273L158.085 16.8636H159.006ZM166.88 23.2727H168.039L169.01 24.5511L169.266 24.892L170.715 26.8182H169.556L168.601 25.5398L168.363 25.2159L166.88 23.2727ZM171.073 21.6364C171.073 22.5568 170.907 23.3523 170.574 24.0227C170.242 24.6932 169.786 25.2102 169.206 25.5739C168.627 25.9375 167.965 26.1193 167.221 26.1193C166.476 26.1193 165.814 25.9375 165.235 25.5739C164.655 25.2102 164.199 24.6932 163.867 24.0227C163.534 23.3523 163.368 22.5568 163.368 21.6364C163.368 20.7159 163.534 19.9205 163.867 19.25C164.199 18.5795 164.655 18.0625 165.235 17.6989C165.814 17.3352 166.476 17.1534 167.221 17.1534C167.965 17.1534 168.627 17.3352 169.206 17.6989C169.786 18.0625 170.242 18.5795 170.574 19.25C170.907 19.9205 171.073 20.7159 171.073 21.6364ZM170.05 21.6364C170.05 20.8807 169.924 20.2429 169.671 19.723C169.421 19.2031 169.081 18.8097 168.652 18.5426C168.226 18.2756 167.749 18.142 167.221 18.142C166.692 18.142 166.213 18.2756 165.784 18.5426C165.358 18.8097 165.019 19.2031 164.766 19.723C164.516 20.2429 164.391 20.8807 164.391 21.6364C164.391 22.392 164.516 23.0298 164.766 23.5497C165.019 24.0696 165.358 24.4631 165.784 24.7301C166.213 24.9972 166.692 25.1307 167.221 25.1307C167.749 25.1307 168.226 24.9972 168.652 24.7301C169.081 24.4631 169.421 24.0696 169.671 23.5497C169.924 23.0298 170.05 22.392 170.05 21.6364ZM172.696 26V25.233L175.577 22.0795C175.915 21.7102 176.194 21.3892 176.412 21.1165C176.631 20.8409 176.793 20.5824 176.898 20.3409C177.006 20.0966 177.06 19.8409 177.06 19.5739C177.06 19.267 176.986 19.0014 176.838 18.777C176.694 18.5526 176.495 18.3793 176.242 18.2571C175.989 18.1349 175.705 18.0739 175.39 18.0739C175.054 18.0739 174.762 18.1435 174.512 18.2827C174.265 18.419 174.073 18.6108 173.936 18.858C173.803 19.1051 173.736 19.3949 173.736 19.7273H172.73C172.73 19.2159 172.848 18.767 173.084 18.3807C173.32 17.9943 173.641 17.6932 174.047 17.4773C174.456 17.2614 174.915 17.1534 175.424 17.1534C175.935 17.1534 176.388 17.2614 176.783 17.4773C177.178 17.6932 177.488 17.9844 177.712 18.3509C177.936 18.7173 178.049 19.125 178.049 19.5739C178.049 19.8949 177.99 20.2088 177.874 20.5156C177.76 20.8196 177.561 21.1591 177.277 21.5341C176.996 21.9062 176.605 22.3608 176.105 22.8977L174.145 24.9943V25.0625H178.202V26H172.696ZM183.337 26V25.233L186.218 22.0795C186.556 21.7102 186.834 21.3892 187.053 21.1165C187.272 20.8409 187.434 20.5824 187.539 20.3409C187.647 20.0966 187.701 19.8409 187.701 19.5739C187.701 19.267 187.627 19.0014 187.479 18.777C187.334 18.5526 187.135 18.3793 186.882 18.2571C186.63 18.1349 186.346 18.0739 186.03 18.0739C185.695 18.0739 185.402 18.1435 185.152 18.2827C184.905 18.419 184.713 18.6108 184.577 18.858C184.444 19.1051 184.377 19.3949 184.377 19.7273H183.371C183.371 19.2159 183.489 18.767 183.725 18.3807C183.961 17.9943 184.282 17.6932 184.688 17.4773C185.097 17.2614 185.556 17.1534 186.064 17.1534C186.576 17.1534 187.029 17.2614 187.424 17.4773C187.819 17.6932 188.128 17.9844 188.353 18.3509C188.577 18.7173 188.689 19.125 188.689 19.5739C188.689 19.8949 188.631 20.2088 188.515 20.5156C188.401 20.8196 188.202 21.1591 187.918 21.5341C187.637 21.9062 187.246 22.3608 186.746 22.8977L184.786 24.9943V25.0625H188.843V26H183.337ZM193.449 26.1193C192.807 26.1193 192.26 25.9446 191.809 25.5952C191.357 25.2429 191.012 24.733 190.773 24.0653C190.534 23.3949 190.415 22.5852 190.415 21.6364C190.415 20.6932 190.534 19.8878 190.773 19.2202C191.015 18.5497 191.361 18.0384 191.813 17.6861C192.267 17.331 192.813 17.1534 193.449 17.1534C194.086 17.1534 194.63 17.331 195.081 17.6861C195.536 18.0384 195.882 18.5497 196.121 19.2202C196.363 19.8878 196.483 20.6932 196.483 21.6364C196.483 22.5852 196.364 23.3949 196.125 24.0653C195.887 24.733 195.542 25.2429 195.09 25.5952C194.638 25.9446 194.091 26.1193 193.449 26.1193ZM193.449 25.1818C194.086 25.1818 194.58 24.875 194.932 24.2614C195.284 23.6477 195.461 22.7727 195.461 21.6364C195.461 20.8807 195.38 20.2372 195.218 19.706C195.059 19.1747 194.828 18.7699 194.527 18.4915C194.229 18.2131 193.87 18.0739 193.449 18.0739C192.819 18.0739 192.326 18.3849 191.971 19.0071C191.615 19.6264 191.438 20.5028 191.438 21.6364C191.438 22.392 191.517 23.0341 191.676 23.5625C191.836 24.0909 192.064 24.4929 192.363 24.7685C192.664 25.044 193.026 25.1818 193.449 25.1818ZM198.103 26V25.233L200.983 22.0795C201.321 21.7102 201.6 21.3892 201.819 21.1165C202.037 20.8409 202.199 20.5824 202.304 20.3409C202.412 20.0966 202.466 19.8409 202.466 19.5739C202.466 19.267 202.392 19.0014 202.245 18.777C202.1 18.5526 201.901 18.3793 201.648 18.2571C201.395 18.1349 201.111 18.0739 200.796 18.0739C200.461 18.0739 200.168 18.1435 199.918 18.2827C199.671 18.419 199.479 18.6108 199.343 18.858C199.209 19.1051 199.142 19.3949 199.142 19.7273H198.137C198.137 19.2159 198.255 18.767 198.49 18.3807C198.726 17.9943 199.047 17.6932 199.453 17.4773C199.863 17.2614 200.321 17.1534 200.83 17.1534C201.341 17.1534 201.794 17.2614 202.189 17.4773C202.584 17.6932 202.894 17.9844 203.118 18.3509C203.343 18.7173 203.455 19.125 203.455 19.5739C203.455 19.8949 203.397 20.2088 203.28 20.5156C203.167 20.8196 202.968 21.1591 202.684 21.5341C202.402 21.9062 202.012 22.3608 201.512 22.8977L199.551 24.9943V25.0625H203.608V26H198.103ZM205.368 26V25.233L208.249 22.0795C208.587 21.7102 208.865 21.3892 209.084 21.1165C209.303 20.8409 209.465 20.5824 209.57 20.3409C209.678 20.0966 209.732 19.8409 209.732 19.5739C209.732 19.267 209.658 19.0014 209.51 18.777C209.365 18.5526 209.167 18.3793 208.914 18.2571C208.661 18.1349 208.377 18.0739 208.061 18.0739C207.726 18.0739 207.434 18.1435 207.184 18.2827C206.936 18.419 206.745 18.6108 206.608 18.858C206.475 19.1051 206.408 19.3949 206.408 19.7273H205.402C205.402 19.2159 205.52 18.767 205.756 18.3807C205.992 17.9943 206.313 17.6932 206.719 17.4773C207.128 17.2614 207.587 17.1534 208.096 17.1534C208.607 17.1534 209.06 17.2614 209.455 17.4773C209.85 17.6932 210.159 17.9844 210.384 18.3509C210.608 18.7173 210.721 19.125 210.721 19.5739C210.721 19.8949 210.662 20.2088 210.546 20.5156C210.432 20.8196 210.233 21.1591 209.949 21.5341C209.668 21.9062 209.277 22.3608 208.777 22.8977L206.817 24.9943V25.0625H210.874V26H205.368Z" fill="#1B140E"/>
</svg>
