<?xml version="1.0" encoding="utf-8"?>
<svg viewBox="15.4407 26.2273 465.3067 465.3062" xmlns="http://www.w3.org/2000/svg">
  <defs>
    <clipPath clipPathUnits="userSpaceOnUse" id="clipPath20">
      <path d="M 3538.44,1850.88 C 3577.53,888.012 2828.66,75.7617 1865.79,36.6602 902.914,-2.42969 90.6602,746.441 51.5664,1709.31 12.4688,2672.18 761.34,3484.44 1724.21,3523.53 c 962.87,39.1 1775.13,-709.77 1814.23,-1672.65 z" id="path18"/>
    </clipPath>
    <linearGradient x1="0" y1="0" x2="1" y2="0" gradientUnits="userSpaceOnUse" gradientTransform="matrix(-3489.8,0,0,3489.8,3539.9,1780.1)" spreadMethod="pad" id="linearGradient26">
      <stop style="stop-opacity:1;stop-color:#345cb2" offset="0" id="stop22"/>
      <stop style="stop-opacity:1;stop-color:#55c3f2" offset="1" id="stop24"/>
    </linearGradient>
    <clipPath clipPathUnits="userSpaceOnUse" id="clipPath36">
      <path d="M 3149.02,1780.1 C 3149.02,1032.29 2542.8,426.082 1795,426.082 c -747.8,0 -1354.02,606.208 -1354.02,1354.018 0,747.8 606.22,1354.02 1354.02,1354.02 747.8,0 1354.02,-606.22 1354.02,-1354.02 z" id="path34"/>
    </clipPath>
    <linearGradient x1="0" y1="0" x2="1" y2="0" gradientUnits="userSpaceOnUse" gradientTransform="matrix(2708.04,0,0,-2708.04,440.98,1780.1)" spreadMethod="pad" id="linearGradient42">
      <stop style="stop-opacity:1;stop-color:#345cb2" offset="0" id="stop38"/>
      <stop style="stop-opacity:1;stop-color:#55c3f2" offset="1" id="stop40"/>
    </linearGradient>
  </defs>
  <g id="g10" transform="matrix(1.3333330154418945, 0, 0, -1.3333330154418945, 8.76037693023693, 496.22637939453125)">
    <g id="g12" transform="scale(0.1)">
      <g id="g14">
        <g id="g16" clip-path="url(#clipPath20)">
          <path d="M 3538.44,1850.88 C 3577.53,888.012 2828.66,75.7617 1865.79,36.6602 902.914,-2.42969 90.6602,746.441 51.5664,1709.31 12.4688,2672.18 761.34,3484.44 1724.21,3523.53 c 962.87,39.1 1775.13,-709.77 1814.23,-1672.65" style="fill:url(#linearGradient26);fill-opacity:1;fill-rule:nonzero;stroke:none" id="path28"/>
        </g>
      </g>
      <g id="g30">
        <g id="g32" clip-path="url(#clipPath36)">
          <path d="M 3149.02,1780.1 C 3149.02,1032.29 2542.8,426.082 1795,426.082 c -747.8,0 -1354.02,606.208 -1354.02,1354.018 0,747.8 606.22,1354.02 1354.02,1354.02 747.8,0 1354.02,-606.22 1354.02,-1354.02" style="fill:url(#linearGradient42);fill-opacity:1;fill-rule:nonzero;stroke:none" id="path44"/>
        </g>
      </g>
      <g id="g46" transform="scale(10)">
        <text transform="matrix(0.718209,-0.695827,-0.695827,-0.718209,64.4938,66.523)" style="font-variant: normal; font-weight: 300; font-size: 17.0223px; font-family: Roboto; writing-mode: lr-tb; fill: rgb(255, 255, 255); fill-opacity: 1; fill-rule: nonzero; stroke: none; white-space: pre;" id="text50"><tspan x="0" y="0" id="tspan48">S</tspan></text>
        <text transform="matrix(0.765411,-0.643542,-0.643542,-0.765411,72.1254,59.1199)" style="font-variant: normal; font-weight: 300; font-size: 17.0224px; font-family: Roboto; writing-mode: lr-tb; fill: rgb(255, 255, 255); fill-opacity: 1; fill-rule: nonzero; stroke: none; white-space: pre;" id="text54"><tspan x="0" y="0" id="tspan52">O</tspan></text>
        <text transform="matrix(0.810688,-0.585479,-0.585479,-0.810688,81.3887,51.3711)" style="font-variant: normal; font-weight: 300; font-size: 17.0223px; font-family: Roboto; writing-mode: lr-tb; fill: rgb(255, 255, 255); fill-opacity: 1; fill-rule: nonzero; stroke: none; white-space: pre;" id="text58"><tspan x="0" y="0" id="tspan56">C</tspan></text>
        <text transform="matrix(0.855777,-0.517344,-0.517344,-0.855777,94.3832,42.3609)" style="font-variant: normal; font-weight: 300; font-size: 17.0223px; font-family: Roboto; writing-mode: lr-tb; fill: rgb(255, 255, 255); fill-opacity: 1; fill-rule: nonzero; stroke: none; white-space: pre;" id="text62"><tspan x="0" y="0" id="tspan60">f</tspan></text>
        <text transform="matrix(0.880425,-0.474186,-0.474186,-0.880425,99.498,39.223)" style="font-variant: normal; font-weight: 300; font-size: 17.0223px; font-family: Roboto; writing-mode: lr-tb; fill: rgb(255, 255, 255); fill-opacity: 1; fill-rule: nonzero; stroke: none; white-space: pre;" id="text66"><tspan x="0" y="0" id="tspan64">o</tspan></text>
        <text transform="matrix(0.903171,-0.42928,-0.42928,-0.903171,108.272,34.5629)" style="font-variant: normal; font-weight: 300; font-size: 17.0224px; font-family: Roboto; writing-mode: lr-tb; fill: rgb(255, 255, 255); fill-opacity: 1; fill-rule: nonzero; stroke: none; white-space: pre;" id="text70"><tspan x="0" y="0" id="tspan68">r</tspan></text>
        <text transform="matrix(0.934383,-0.35627,-0.35627,-0.934383,117.767,30.1629)" style="font-variant: normal; font-weight: 300; font-size: 17.0224px; font-family: Roboto; writing-mode: lr-tb; fill: rgb(255, 255, 255); fill-opacity: 1; fill-rule: nonzero; stroke: none; white-space: pre;" id="text74"><tspan x="0" y="0" id="tspan72">S</tspan></text>
        <text transform="matrix(0.954761,-0.297374,-0.297374,-0.954761,127.636,26.4371)" style="font-variant: normal; font-weight: 300; font-size: 17.0224px; font-family: Roboto; writing-mode: lr-tb; fill: rgb(255, 255, 255); fill-opacity: 1; fill-rule: nonzero; stroke: none; white-space: pre;" id="text78"><tspan x="0" y="0" id="tspan76">e</tspan></text>
        <text transform="matrix(0.967923,-0.251248,-0.251248,-0.967923,136.389,23.7582)" style="font-variant: normal; font-weight: 300; font-size: 17.0223px; font-family: Roboto; writing-mode: lr-tb; fill: rgb(255, 255, 255); fill-opacity: 1; fill-rule: nonzero; stroke: none; white-space: pre;" id="text82"><tspan x="0" y="0" id="tspan80">r</tspan></text>
        <text transform="matrix(0.978666,-0.205457,-0.205457,-0.978666,142.437,22.1719)" style="font-variant: normal; font-weight: 300; font-size: 17.0224px; font-family: Roboto; writing-mode: lr-tb; fill: rgb(255, 255, 255); fill-opacity: 1; fill-rule: nonzero; stroke: none; white-space: pre;" id="text86"><tspan x="0" y="0" id="tspan84">v</tspan></text>
        <text transform="matrix(0.985998,-0.166758,-0.166758,-0.985998,150.729,20.4801)" style="font-variant: normal; font-weight: 300; font-size: 17.0224px; font-family: Roboto; writing-mode: lr-tb; fill: rgb(255, 255, 255); fill-opacity: 1; fill-rule: nonzero; stroke: none; white-space: pre;" id="text90"><tspan x="0" y="0" id="tspan88">i</tspan></text>
        <text transform="matrix(0.992066,-0.125721,-0.125721,-0.992066,154.822,19.743)" style="font-variant: normal; font-weight: 300; font-size: 17.0224px; font-family: Roboto; writing-mode: lr-tb; fill: rgb(255, 255, 255); fill-opacity: 1; fill-rule: nonzero; stroke: none; white-space: pre;" id="text94"><tspan x="0" y="0" id="tspan92">c</tspan></text>
        <text transform="matrix(0.997632,-0.068778,-0.068778,-0.997632,163.94,18.6)" style="font-variant: normal; font-weight: 300; font-size: 17.0223px; font-family: Roboto; writing-mode: lr-tb; fill: rgb(255, 255, 255); fill-opacity: 1; fill-rule: nonzero; stroke: none; white-space: pre;" id="text98"><tspan x="0" y="0" id="tspan96">e</tspan></text>
        <text transform="matrix(0.999727,0.0233508,0.0233508,-0.999727,177.551,17.823)" style="font-variant: normal; font-weight: 300; font-size: 17.0223px; font-family: Roboto; writing-mode: lr-tb; fill: rgb(255, 255, 255); fill-opacity: 1; fill-rule: nonzero; stroke: none; white-space: pre;" id="text102"><tspan x="0" y="0" id="tspan100">O</tspan></text>
        <text transform="matrix(0.996857,0.0792179,0.0792179,-0.996857,189.503,18.1961)" style="font-variant: normal; font-weight: 300; font-size: 17.0223px; font-family: Roboto; writing-mode: lr-tb; fill: rgb(255, 255, 255); fill-opacity: 1; fill-rule: nonzero; stroke: none; white-space: pre;" id="text106"><tspan x="0" y="0" id="tspan104">r</tspan></text>
        <text transform="matrix(0.991843,0.127468,0.127468,-0.991843,195.427,18.6262)" style="font-variant: normal; font-weight: 300; font-size: 17.0224px; font-family: Roboto; writing-mode: lr-tb; fill: rgb(255, 255, 255); fill-opacity: 1; fill-rule: nonzero; stroke: none; white-space: pre;" id="text110"><tspan x="0" y="0" id="tspan108">g</tspan></text>
        <text transform="matrix(0.982244,0.187605,0.187605,-0.982244,205.236,19.9051)" style="font-variant: normal; font-weight: 300; font-size: 17.0223px; font-family: Roboto; writing-mode: lr-tb; fill: rgb(255, 255, 255); fill-opacity: 1; fill-rule: nonzero; stroke: none; white-space: pre;" id="text114"><tspan x="0" y="0" id="tspan112">a</tspan></text>
        <text transform="matrix(0.968992,0.247092,0.247092,-0.968992,214.65,21.7141)" style="font-variant: normal; font-weight: 300; font-size: 17.0223px; font-family: Roboto; writing-mode: lr-tb; fill: rgb(255, 255, 255); fill-opacity: 1; fill-rule: nonzero; stroke: none; white-space: pre;" id="text118"><tspan x="0" y="0" id="tspan116">n</tspan></text>
        <text transform="matrix(0.95732,0.289031,0.289031,-0.95732,224.017,24.1719)" style="font-variant: normal; font-weight: 300; font-size: 17.0223px; font-family: Roboto; writing-mode: lr-tb; fill: rgb(255, 255, 255); fill-opacity: 1; fill-rule: nonzero; stroke: none; white-space: pre;" id="text122"><tspan x="0" y="0" id="tspan120">i</tspan></text>
        <text transform="matrix(0.944983,0.327119,0.327119,-0.944983,227.98,25.3289)" style="font-variant: normal; font-weight: 300; font-size: 17.0223px; font-family: Roboto; writing-mode: lr-tb; fill: rgb(255, 255, 255); fill-opacity: 1; fill-rule: nonzero; stroke: none; white-space: pre;" id="text126"><tspan x="0" y="0" id="tspan124">z</tspan></text>
        <text transform="matrix(0.924621,0.380889,0.380889,-0.924621,236.223,28.1828)" style="font-variant: normal; font-weight: 300; font-size: 17.0223px; font-family: Roboto; writing-mode: lr-tb; fill: rgb(255, 255, 255); fill-opacity: 1; fill-rule: nonzero; stroke: none; white-space: pre;" id="text130"><tspan x="0" y="0" id="tspan128">a</tspan></text>
        <text transform="matrix(0.905291,0.424793,0.424793,-0.905291,244.952,31.8352)" style="font-variant: normal; font-weight: 300; font-size: 17.0224px; font-family: Roboto; writing-mode: lr-tb; fill: rgb(255, 255, 255); fill-opacity: 1; fill-rule: nonzero; stroke: none; white-space: pre;" id="text134"><tspan x="0" y="0" id="tspan132">t</tspan></text>
        <text transform="matrix(0.89185,0.452332,0.452332,-0.89185,250.116,34.2762)" style="font-variant: normal; font-weight: 300; font-size: 17.0224px; font-family: Roboto; writing-mode: lr-tb; fill: rgb(255, 255, 255); fill-opacity: 1; fill-rule: nonzero; stroke: none; white-space: pre;" id="text138"><tspan x="0" y="0" id="tspan136">i</tspan></text>
        <text transform="matrix(0.871203,0.490923,0.490923,-0.871203,253.828,36.0969)" style="font-variant: normal; font-weight: 300; font-size: 17.0223px; font-family: Roboto; writing-mode: lr-tb; fill: rgb(255, 255, 255); fill-opacity: 1; fill-rule: nonzero; stroke: none; white-space: pre;" id="text142"><tspan x="0" y="0" id="tspan140">o</tspan></text>
        <text transform="matrix(0.839093,0.543988,0.543988,-0.839093,262.551,41.0328)" style="font-variant: normal; font-weight: 300; font-size: 17.0223px; font-family: Roboto; writing-mode: lr-tb; fill: rgb(255, 255, 255); fill-opacity: 1; fill-rule: nonzero; stroke: none; white-space: pre;" id="text146"><tspan x="0" y="0" id="tspan144">n</tspan></text>
        <text transform="matrix(0.805728,0.592285,0.592285,-0.805728,270.753,46.3781)" style="font-variant: normal; font-weight: 300; font-size: 17.0224px; font-family: Roboto; writing-mode: lr-tb; fill: rgb(255, 255, 255); fill-opacity: 1; fill-rule: nonzero; stroke: none; white-space: pre;" id="text150"><tspan x="0" y="0" id="tspan148">s</tspan></text>
        <text transform="matrix(0.746249,0.665667,0.665667,-0.746249,284.628,57.2488)" style="font-variant: normal; font-weight: 300; font-size: 17.0223px; font-family: Roboto; writing-mode: lr-tb; fill: rgb(255, 255, 255); fill-opacity: 1; fill-rule: nonzero; stroke: none; white-space: pre;" id="text154"><tspan x="0" y="0" id="tspan152">|</tspan></text>
        <text transform="matrix(0.676441,0.736497,0.736497,-0.676441,293.964,65.9609)" style="font-variant: normal; font-weight: 500; font-size: 17.0223px; font-family: Roboto; writing-mode: lr-tb; fill: rgb(255, 255, 255); fill-opacity: 1; fill-rule: nonzero; stroke: none; white-space: pre;" id="text158"><tspan x="0" y="0" id="tspan156">S</tspan></text>
        <text transform="matrix(0.628552,0.777768,0.777768,-0.628552,301.211,73.9)" style="font-variant: normal; font-weight: 500; font-size: 17.0223px; font-family: Roboto; writing-mode: lr-tb; fill: rgb(255, 255, 255); fill-opacity: 1; fill-rule: nonzero; stroke: none; white-space: pre;" id="text162"><tspan x="0" y="0" id="tspan160">e</tspan></text>
        <text transform="matrix(0.58926,0.807943,0.807943,-0.58926,307.17,81.3531)" style="font-variant: normal; font-weight: 500; font-size: 17.0224px; font-family: Roboto; writing-mode: lr-tb; fill: rgb(255, 255, 255); fill-opacity: 1; fill-rule: nonzero; stroke: none; white-space: pre;" id="text166"><tspan x="0" y="0" id="tspan164">r</tspan></text>
        <text transform="matrix(0.549801,0.835295,0.835295,-0.549801,311.009,86.5852)" style="font-variant: normal; font-weight: 500; font-size: 17.0224px; font-family: Roboto; writing-mode: lr-tb; fill: rgb(255, 255, 255); fill-opacity: 1; fill-rule: nonzero; stroke: none; white-space: pre;" id="text170"><tspan x="0" y="0" id="tspan168">v</tspan></text>
        <text transform="matrix(0.51442,0.857538,0.857538,-0.51442,315.768,93.9059)" style="font-variant: normal; font-weight: 500; font-size: 17.0223px; font-family: Roboto; writing-mode: lr-tb; fill: rgb(255, 255, 255); fill-opacity: 1; fill-rule: nonzero; stroke: none; white-space: pre;" id="text174"><tspan x="0" y="0" id="tspan172">i</tspan></text>
        <text transform="matrix(0.476677,0.879079,0.879079,-0.476677,318.207,97.8891)" style="font-variant: normal; font-weight: 500; font-size: 17.0224px; font-family: Roboto; writing-mode: lr-tb; fill: rgb(255, 255, 255); fill-opacity: 1; fill-rule: nonzero; stroke: none; white-space: pre;" id="text178"><tspan x="0" y="0" id="tspan176">c</tspan></text>
        <text transform="matrix(0.423576,0.905861,0.905861,-0.423576,322.668,106.138)" style="font-variant: normal; font-weight: 500; font-size: 17.0224px; font-family: Roboto; writing-mode: lr-tb; fill: rgb(255, 255, 255); fill-opacity: 1; fill-rule: nonzero; stroke: none; white-space: pre;" id="text182"><tspan x="0" y="0" id="tspan180">e</tspan></text>
        <text transform="matrix(0.333846,0.942628,0.942628,-0.333846,328.49,119.009)" style="font-variant: normal; font-weight: 500; font-size: 17.0223px; font-family: Roboto; writing-mode: lr-tb; fill: rgb(255, 255, 255); fill-opacity: 1; fill-rule: nonzero; stroke: none; white-space: pre;" id="text186"><tspan x="0" y="0" id="tspan184">O</tspan></text>
        <text transform="matrix(0.278055,0.960565,0.960565,-0.278055,332.469,130.537)" style="font-variant: normal; font-weight: 500; font-size: 17.0224px; font-family: Roboto; writing-mode: lr-tb; fill: rgb(255, 255, 255); fill-opacity: 1; fill-rule: nonzero; stroke: none; white-space: pre;" id="text190"><tspan x="0" y="0" id="tspan188">r</tspan></text>
        <text transform="matrix(0.229102,0.973403,0.973403,-0.229102,334.236,136.493)" style="font-variant: normal; font-weight: 500; font-size: 17.0224px; font-family: Roboto; writing-mode: lr-tb; fill: rgb(255, 255, 255); fill-opacity: 1; fill-rule: nonzero; stroke: none; white-space: pre;" id="text194"><tspan x="0" y="0" id="tspan192">g</tspan></text>
        <text transform="matrix(0.1683,0.985736,0.985736,-0.1683,336.53,146.334)" style="font-variant: normal; font-weight: 500; font-size: 17.0223px; font-family: Roboto; writing-mode: lr-tb; fill: rgb(255, 255, 255); fill-opacity: 1; fill-rule: nonzero; stroke: none; white-space: pre;" id="text198"><tspan x="0" y="0" id="tspan196">a</tspan></text>
        <text transform="matrix(0.107507,0.994204,0.994204,-0.107507,338.151,155.896)" style="font-variant: normal; font-weight: 500; font-size: 17.0224px; font-family: Roboto; writing-mode: lr-tb; fill: rgb(255, 255, 255); fill-opacity: 1; fill-rule: nonzero; stroke: none; white-space: pre;" id="text202"><tspan x="0" y="0" id="tspan200">n</tspan></text>
        <text transform="matrix(0.0626611,0.998035,0.998035,-0.0626611,339.14,165.655)" style="font-variant: normal; font-weight: 500; font-size: 17.0224px; font-family: Roboto; writing-mode: lr-tb; fill: rgb(255, 255, 255); fill-opacity: 1; fill-rule: nonzero; stroke: none; white-space: pre;" id="text206"><tspan x="0" y="0" id="tspan204">i</tspan></text>
        <text transform="matrix(0.0209694,0.99978,0.99978,-0.0209694,339.469,170.307)" style="font-variant: normal; font-weight: 500; font-size: 17.0223px; font-family: Roboto; writing-mode: lr-tb; fill: rgb(255, 255, 255); fill-opacity: 1; fill-rule: nonzero; stroke: none; white-space: pre;" id="text210"><tspan x="0" y="0" id="tspan208">z</tspan></text>
        <text transform="matrix(-0.0358024,0.999359,0.999359,0.0358024,339.656,179.244)" style="font-variant: normal; font-weight: 500; font-size: 17.0223px; font-family: Roboto; writing-mode: lr-tb; fill: rgb(255, 255, 255); fill-opacity: 1; fill-rule: nonzero; stroke: none; white-space: pre;" id="text214"><tspan x="0" y="0" id="tspan212">a</tspan></text>
        <text transform="matrix(-0.0839419,0.996471,0.996471,0.0839419,339.262,188.809)" style="font-variant: normal; font-weight: 500; font-size: 17.0224px; font-family: Roboto; writing-mode: lr-tb; fill: rgb(255, 255, 255); fill-opacity: 1; fill-rule: nonzero; stroke: none; white-space: pre;" id="text218"><tspan x="0" y="0" id="tspan216">t</tspan></text>
        <text transform="matrix(-0.11652,0.993188,0.993188,0.11652,338.75,194.706)" style="font-variant: normal; font-weight: 500; font-size: 17.0224px; font-family: Roboto; writing-mode: lr-tb; fill: rgb(255, 255, 255); fill-opacity: 1; fill-rule: nonzero; stroke: none; white-space: pre;" id="text222"><tspan x="0" y="0" id="tspan220">i</tspan></text>
        <text transform="matrix(-0.162102,0.986774,0.986774,0.162102,338.256,199.376)" style="font-variant: normal; font-weight: 500; font-size: 17.0223px; font-family: Roboto; writing-mode: lr-tb; fill: rgb(255, 255, 255); fill-opacity: 1; fill-rule: nonzero; stroke: none; white-space: pre;" id="text226"><tspan x="0" y="0" id="tspan224">o</tspan></text>
        <text transform="matrix(-0.223969,0.974596,0.974596,0.223969,336.59,209.401)" style="font-variant: normal; font-weight: 500; font-size: 17.0223px; font-family: Roboto; writing-mode: lr-tb; fill: rgb(255, 255, 255); fill-opacity: 1; fill-rule: nonzero; stroke: none; white-space: pre;" id="text230"><tspan x="0" y="0" id="tspan228">n</tspan></text>
        <text transform="matrix(-0.282342,0.959314,0.959314,0.282342,334.343,219.076)" style="font-variant: normal; font-weight: 500; font-size: 17.0224px; font-family: Roboto; writing-mode: lr-tb; fill: rgb(255, 255, 255); fill-opacity: 1; fill-rule: nonzero; stroke: none; white-space: pre;" id="text234"><tspan x="0" y="0" id="tspan232">s</tspan></text>
        <text transform="matrix(1,0,0,-1,80.3824,201.192)" style="font-variant: normal; font-weight: 300; font-size: 76.2788px; font-family: Roboto; writing-mode: lr-tb; fill: rgb(255, 255, 255); fill-opacity: 1; fill-rule: nonzero; stroke: none; white-space: pre;" id="text240"><tspan x="0 46.874496 66.410591 115.18399 156.248" y="0" id="tspan236">AICPA</tspan><tspan x="29.536699 73.952698 124.81207" y="88.074203" id="tspan238">SOC</tspan></text>
      </g>
      <path d="M 798.227,1835.7 H 2865.26" style="fill:none;stroke:#ffffff;stroke-width:9.31588;stroke-linecap:round;stroke-linejoin:round;stroke-miterlimit:10;stroke-dasharray:none;stroke-opacity:1" id="path242"/>
      <g id="g244" transform="scale(10)">
        <text transform="matrix(1,0,0,-1,105.947,81.7148)" style="font-variant: normal; font-weight: normal; font-size: 19.7922px; font-family: Roboto; writing-mode: lr-tb; fill: rgb(255, 255, 255); fill-opacity: 1; fill-rule: nonzero; stroke: none; white-space: pre;" id="text248"><tspan x="0 10.270998 14.579111 24.444334 35.053726 45.324238 50.038593 60.831596 66.850143 77.459541 85.121162 94.8321 105.62513 115.48988 126.10897 135.81992" y="0" id="tspan246">aicpa.org/soc4so</tspan></text>
      </g>
      <g id="g250" transform="scale(10)">
        <text transform="matrix(1,0,0,-1,320.375,22.4891)" style="font-variant: normal; font-weight: normal; font-size: 26.7826px; font-family: MyriadPro; writing-mode: lr-tb; fill: rgb(33, 29, 29); fill-opacity: 1; fill-rule: nonzero; stroke: none; white-space: pre;" id="text254"><tspan x="0" y="0" id="tspan252">™</tspan></text>
      </g>
    </g>
  </g>
</svg>
