<svg width="94" height="17" viewBox="0 0 94 17" fill="none" xmlns="http://www.w3.org/2000/svg">
<g opacity="0.87" clip-path="url(#clip0_149_478)">
<path d="M2.54674 10.7278C3.67712 10.7278 4.59348 9.79876 4.59348 8.65272C4.59348 7.50669 3.67712 6.57764 2.54674 6.57764C1.41636 6.57764 0.5 7.50669 0.5 8.65272C0.5 9.79876 1.41636 10.7278 2.54674 10.7278Z" fill="#242424"/>
<path d="M8.54674 10.7278C9.67712 10.7278 10.5935 9.79876 10.5935 8.65272C10.5935 7.50669 9.67712 6.57764 8.54674 6.57764C7.41636 6.57764 6.5 7.50669 6.5 8.65272C6.5 9.79876 7.41636 10.7278 8.54674 10.7278Z" fill="#242424"/>
<path opacity="0.2" d="M2.54674 16.9566C3.67712 16.9566 4.59348 16.0275 4.59348 14.8815C4.59348 13.7354 3.67712 12.8064 2.54674 12.8064C1.41636 12.8064 0.5 13.7354 0.5 14.8815C0.5 16.0275 1.41636 16.9566 2.54674 16.9566Z" fill="#242424"/>
<path opacity="0.2" d="M14.5467 16.9566C15.6771 16.9566 16.5935 16.0275 16.5935 14.8815C16.5935 13.7354 15.6771 12.8064 14.5467 12.8064C13.4164 12.8064 12.5 13.7354 12.5 14.8815C12.5 16.0275 13.4164 16.9566 14.5467 16.9566Z" fill="#242424"/>
<path d="M8.54674 16.9566C9.67712 16.9566 10.5935 16.0275 10.5935 14.8815C10.5935 13.7354 9.67712 12.8064 8.54674 12.8064C7.41636 12.8064 6.5 13.7354 6.5 14.8815C6.5 16.0275 7.41636 16.9566 8.54674 16.9566Z" fill="#242424"/>
<path d="M14.5467 10.7278C15.6771 10.7278 16.5935 9.79876 16.5935 8.65272C16.5935 7.50669 15.6771 6.57764 14.5467 6.57764C13.4164 6.57764 12.5 7.50669 12.5 8.65272C12.5 9.79876 13.4164 10.7278 14.5467 10.7278Z" fill="#242424"/>
<path opacity="0.2" d="M2.54674 4.5054C3.67712 4.5054 4.59348 3.57635 4.59348 2.43031C4.59348 1.28427 3.67712 0.355225 2.54674 0.355225C1.41636 0.355225 0.5 1.28427 0.5 2.43031C0.5 3.57635 1.41636 4.5054 2.54674 4.5054Z" fill="#242424"/>
<path opacity="0.2" d="M8.54674 4.5054C9.67712 4.5054 10.5935 3.57635 10.5935 2.43031C10.5935 1.28427 9.67712 0.355225 8.54674 0.355225C7.41636 0.355225 6.5 1.28427 6.5 2.43031C6.5 3.57635 7.41636 4.5054 8.54674 4.5054Z" fill="#242424"/>
<path opacity="0.2" d="M14.5467 4.5054C15.6771 4.5054 16.5935 3.57635 16.5935 2.43031C16.5935 1.28427 15.6771 0.355225 14.5467 0.355225C13.4164 0.355225 12.5 1.28427 12.5 2.43031C12.5 3.57635 13.4164 4.5054 14.5467 4.5054Z" fill="#242424"/>
<path d="M29.3707 15.6893C29.9502 15.6893 30.421 15.6343 30.9823 15.5241V13.3946C30.6382 13.5231 30.258 13.5599 29.8959 13.5599C29.0087 13.5599 28.6827 13.1192 28.6827 12.2748V7.94239H30.9823V5.81291H28.6827V2.6554H26.1477V5.81291H24.5V7.94239H26.1477V12.5134C26.1477 14.5328 27.1979 15.6893 29.3707 15.6893Z" fill="#242424"/>
<path d="M34.9222 15.6893C36.2802 15.6893 37.1855 15.2304 37.6382 14.5145C37.6745 14.8266 37.7831 15.2488 37.928 15.5058H40.2094C40.0827 15.0652 39.9921 14.3676 39.9921 13.9087V8.87872C39.9921 6.80429 38.5255 5.62939 36.0448 5.62939C34.1616 5.62939 32.695 6.34535 31.8802 7.39173L33.3288 8.84199C33.9807 8.10768 34.8135 7.72217 35.8275 7.72217C37.0588 7.72217 37.602 8.14439 37.602 8.76855C37.602 9.30091 37.2399 9.66811 35.2843 9.66811C33.4012 9.66811 31.5 10.4574 31.5 12.6604C31.5 14.6981 32.9485 15.6893 34.9222 15.6893ZM35.4292 13.7434C34.4514 13.7434 33.9987 13.3212 33.9987 12.5686C33.9987 11.9077 34.5419 11.4671 35.4473 11.4671C36.8958 11.4671 37.2942 11.3753 37.602 11.0632V11.8526C37.602 12.899 36.7329 13.7434 35.4292 13.7434Z" fill="#242424"/>
<path d="M41.5 4.58295H44.1436V2.1781H41.5V4.58295ZM41.5543 15.5058H44.0893V5.81291H41.5543V15.5058Z" fill="#242424"/>
<path d="M46.5 15.5059H49.0349V2.47192H46.5V15.5059Z" fill="#242424"/>
<path d="M53.8275 15.6893C56.616 15.6893 58.0465 14.2024 58.0465 12.642C58.0465 11.2285 57.3403 10.1821 55.0226 9.75982C53.393 9.46615 52.379 9.09895 52.379 8.52988C52.379 8.03425 52.9585 7.68545 53.9362 7.68545C54.8053 7.68545 55.5296 7.97918 56.0728 8.62167L57.6843 7.24487C56.8695 6.21685 55.5296 5.62939 53.9362 5.62939C51.4918 5.62939 49.9708 6.95115 49.9708 8.5666C49.9708 10.329 51.5641 11.1183 53.2844 11.4304C54.7148 11.6875 55.5115 11.9628 55.5115 12.5869C55.5115 13.1193 54.9502 13.5599 53.8819 13.5599C52.8317 13.5599 52.0169 13.0642 51.6366 12.33L49.5 13.358C50.0251 14.6797 51.8176 15.6893 53.8275 15.6893Z" fill="#242424"/>
<path d="M63.5156 15.6893C65.3263 15.6893 66.63 14.9551 67.6078 13.3029L65.5798 12.2565C65.1995 13.0276 64.584 13.5599 63.5156 13.5599C61.9041 13.5599 61.0349 12.2382 61.0349 10.641C61.0349 9.04395 61.9584 7.75888 63.5156 7.75888C64.4934 7.75888 65.1452 8.29125 65.5255 9.09895L67.5715 7.99754C66.8835 6.47385 65.5255 5.62939 63.5156 5.62939C60.2021 5.62939 58.5 8.08932 58.5 10.641C58.5 13.413 60.5642 15.6893 63.5156 15.6893Z" fill="#242424"/>
<path d="M71.9222 15.6893C73.2802 15.6893 74.1855 15.2304 74.6382 14.5145C74.6745 14.8266 74.7831 15.2488 74.928 15.5058H77.2094C77.0827 15.0652 76.9921 14.3676 76.9921 13.9087V8.87872C76.9921 6.80429 75.5255 5.62939 73.0448 5.62939C71.1617 5.62939 69.6951 6.34535 68.8802 7.39173L70.3288 8.84199C70.9807 8.10768 71.8135 7.72217 72.8275 7.72217C74.0588 7.72217 74.602 8.14439 74.602 8.76855C74.602 9.30091 74.2399 9.66811 72.2843 9.66811C70.4012 9.66811 68.5 10.4574 68.5 12.6604C68.5 14.6981 69.9485 15.6893 71.9222 15.6893ZM72.4292 13.7434C71.4514 13.7434 70.9987 13.3212 70.9987 12.5686C70.9987 11.9077 71.5419 11.4671 72.4473 11.4671C73.8958 11.4671 74.2942 11.3753 74.602 11.0632V11.8526C74.602 12.899 73.7329 13.7434 72.4292 13.7434Z" fill="#242424"/>
<path d="M78.5 15.5059H81.035V2.47192H78.5V15.5059Z" fill="#242424"/>
<path d="M87.3523 15.6893C89.2174 15.6893 90.7204 14.9367 91.5534 13.5966L89.6339 12.3483C89.1271 13.156 88.4572 13.5966 87.3523 13.5966C86.1036 13.5966 85.1979 12.899 84.9628 11.5406H92.1689V10.641C92.1689 8.08932 90.63 5.62939 87.3348 5.62939C84.202 5.62939 82.5 8.10768 82.5 10.6594C82.5 14.2942 85.1979 15.6893 87.3523 15.6893ZM85.0532 9.52123C85.4513 8.29125 86.2843 7.72217 87.3891 7.72217C88.6378 7.72217 89.3989 8.47483 89.6523 9.52123H85.0532Z" fill="#242424"/>
</g>
<defs>
<clipPath id="clip0_149_478">
<rect width="93" height="17" fill="white" transform="translate(0.5)"/>
</clipPath>
</defs>
</svg>
