<svg width="423" height="348" viewBox="0 0 423 348" fill="none" xmlns="http://www.w3.org/2000/svg">
<g filter="url(#filter0_dd_289_828)">
<rect x="18" y="10" width="387" height="312" rx="16" fill="white"/>
<rect x="181.5" y="42" width="60" height="60" rx="30" fill="#ECE5FF"/>
<rect x="204.5" y="57" width="15" height="24" rx="7.5" stroke="#7847FF" stroke-width="2"/>
<rect x="197.5" y="66" width="28" height="18" rx="3" fill="#ECE5FF"/>
<rect x="197.5" y="66" width="28" height="18" rx="3" stroke="#7847FF" stroke-width="2"/>
<circle cx="211.5" cy="75" r="3" fill="#7847FF"/>
<path d="M112.992 135V125.056H109.16V123.48H118.496V125.056H114.664V135H112.992ZM120.663 135L118.023 126.352L119.679 126.36L121.487 132.288L123.311 126.36H124.751L126.575 132.288L128.383 126.36H130.031L127.391 135H126.047L124.031 128.744L122.007 135H120.663ZM134.903 135.24C134.039 135.24 133.29 135.045 132.655 134.656C132.021 134.267 131.53 133.731 131.183 133.048C130.842 132.36 130.671 131.568 130.671 130.672C130.671 129.771 130.847 128.979 131.199 128.296C131.551 127.608 132.045 127.075 132.679 126.696C133.314 126.312 134.055 126.12 134.903 126.12C135.767 126.12 136.517 126.315 137.151 126.704C137.786 127.093 138.277 127.629 138.623 128.312C138.97 128.995 139.143 129.781 139.143 130.672C139.143 131.573 138.967 132.368 138.615 133.056C138.269 133.739 137.778 134.275 137.143 134.664C136.509 135.048 135.762 135.24 134.903 135.24ZM134.903 133.664C135.73 133.664 136.346 133.387 136.751 132.832C137.162 132.272 137.367 131.552 137.367 130.672C137.367 129.771 137.159 129.051 136.743 128.512C136.333 127.968 135.719 127.696 134.903 127.696C134.343 127.696 133.882 127.824 133.519 128.08C133.157 128.331 132.887 128.68 132.711 129.128C132.535 129.571 132.447 130.085 132.447 130.672C132.447 131.579 132.655 132.304 133.071 132.848C133.487 133.392 134.098 133.664 134.903 133.664ZM140.741 130.624V129.28H145.541V130.624H140.741ZM147.62 135V123.48H154.444V125.152H149.292V128.4H153.484V130.08H149.292V135H147.62ZM158.013 135.24C157.373 135.24 156.837 135.123 156.405 134.888C155.973 134.648 155.645 134.333 155.421 133.944C155.202 133.549 155.093 133.117 155.093 132.648C155.093 132.211 155.17 131.827 155.325 131.496C155.48 131.165 155.709 130.885 156.013 130.656C156.317 130.421 156.69 130.232 157.133 130.088C157.517 129.976 157.952 129.877 158.437 129.792C158.922 129.707 159.432 129.627 159.965 129.552C160.504 129.477 161.037 129.403 161.565 129.328L160.957 129.664C160.968 128.987 160.824 128.485 160.525 128.16C160.232 127.829 159.725 127.664 159.005 127.664C158.552 127.664 158.136 127.771 157.757 127.984C157.378 128.192 157.114 128.539 156.965 129.024L155.405 128.544C155.618 127.803 156.024 127.213 156.621 126.776C157.224 126.339 158.024 126.12 159.021 126.12C159.794 126.12 160.466 126.253 161.037 126.52C161.613 126.781 162.034 127.197 162.301 127.768C162.44 128.051 162.525 128.349 162.557 128.664C162.589 128.979 162.605 129.317 162.605 129.68V135H161.125V133.024L161.413 133.28C161.056 133.941 160.6 134.435 160.045 134.76C159.496 135.08 158.818 135.24 158.013 135.24ZM158.309 133.872C158.784 133.872 159.192 133.789 159.533 133.624C159.874 133.453 160.149 133.237 160.357 132.976C160.565 132.715 160.701 132.443 160.765 132.16C160.856 131.904 160.906 131.616 160.917 131.296C160.933 130.976 160.941 130.72 160.941 130.528L161.485 130.728C160.957 130.808 160.477 130.88 160.045 130.944C159.613 131.008 159.221 131.072 158.869 131.136C158.522 131.195 158.213 131.267 157.941 131.352C157.712 131.432 157.506 131.528 157.325 131.64C157.149 131.752 157.008 131.888 156.901 132.048C156.8 132.208 156.749 132.403 156.749 132.632C156.749 132.856 156.805 133.064 156.917 133.256C157.029 133.443 157.2 133.592 157.429 133.704C157.658 133.816 157.952 133.872 158.309 133.872ZM168.379 135.24C167.493 135.24 166.741 135.043 166.123 134.648C165.504 134.253 165.029 133.712 164.699 133.024C164.373 132.336 164.208 131.555 164.203 130.68C164.208 129.789 164.379 129.003 164.715 128.32C165.051 127.632 165.531 127.093 166.155 126.704C166.779 126.315 167.528 126.12 168.403 126.12C169.347 126.12 170.152 126.355 170.819 126.824C171.491 127.293 171.933 127.936 172.147 128.752L170.483 129.232C170.317 128.747 170.045 128.371 169.667 128.104C169.293 127.832 168.864 127.696 168.379 127.696C167.829 127.696 167.379 127.827 167.027 128.088C166.675 128.344 166.413 128.696 166.243 129.144C166.072 129.592 165.984 130.104 165.979 130.68C165.984 131.571 166.187 132.291 166.587 132.84C166.992 133.389 167.589 133.664 168.379 133.664C168.917 133.664 169.352 133.541 169.683 133.296C170.019 133.045 170.275 132.688 170.451 132.224L172.147 132.624C171.864 133.467 171.397 134.115 170.747 134.568C170.096 135.016 169.307 135.24 168.379 135.24ZM178.72 135C178.176 135.107 177.643 135.152 177.12 135.136C176.598 135.12 176.131 135.019 175.72 134.832C175.31 134.645 175 134.352 174.792 133.952C174.606 133.595 174.504 133.232 174.488 132.864C174.478 132.491 174.472 132.069 174.472 131.6V123.96H176.152V131.52C176.152 131.867 176.155 132.168 176.16 132.424C176.171 132.68 176.227 132.896 176.328 133.072C176.52 133.403 176.824 133.592 177.24 133.64C177.662 133.683 178.155 133.664 178.72 133.584V135ZM172.816 127.704V126.36H178.72V127.704H172.816ZM183.903 135.24C183.039 135.24 182.29 135.045 181.655 134.656C181.021 134.267 180.53 133.731 180.183 133.048C179.842 132.36 179.671 131.568 179.671 130.672C179.671 129.771 179.847 128.979 180.199 128.296C180.551 127.608 181.045 127.075 181.679 126.696C182.314 126.312 183.055 126.12 183.903 126.12C184.767 126.12 185.517 126.315 186.151 126.704C186.786 127.093 187.277 127.629 187.623 128.312C187.97 128.995 188.143 129.781 188.143 130.672C188.143 131.573 187.967 132.368 187.615 133.056C187.269 133.739 186.778 134.275 186.143 134.664C185.509 135.048 184.762 135.24 183.903 135.24ZM183.903 133.664C184.73 133.664 185.346 133.387 185.751 132.832C186.162 132.272 186.367 131.552 186.367 130.672C186.367 129.771 186.159 129.051 185.743 128.512C185.333 127.968 184.719 127.696 183.903 127.696C183.343 127.696 182.882 127.824 182.519 128.08C182.157 128.331 181.887 128.68 181.711 129.128C181.535 129.571 181.447 130.085 181.447 130.672C181.447 131.579 181.655 132.304 182.071 132.848C182.487 133.392 183.098 133.664 183.903 133.664ZM189.901 135V126.36H191.389V128.456L191.181 128.184C191.288 127.907 191.427 127.653 191.597 127.424C191.768 127.189 191.965 126.997 192.189 126.848C192.408 126.688 192.651 126.565 192.917 126.48C193.189 126.389 193.467 126.336 193.749 126.32C194.032 126.299 194.304 126.312 194.565 126.36V127.928C194.283 127.853 193.968 127.832 193.621 127.864C193.28 127.896 192.965 128.005 192.677 128.192C192.405 128.368 192.189 128.581 192.029 128.832C191.875 129.083 191.763 129.363 191.693 129.672C191.624 129.976 191.589 130.299 191.589 130.64V135H189.901ZM198.492 135L202.236 123.48H204.644L208.388 135H206.652L203.204 124.488H203.636L200.228 135H198.492ZM200.436 132.4V130.832H206.452V132.4H200.436ZM213.079 135.232C212.482 135.232 211.98 135.136 211.575 134.944C211.17 134.752 210.839 134.501 210.583 134.192C210.332 133.877 210.14 133.536 210.007 133.168C209.874 132.8 209.783 132.44 209.735 132.088C209.687 131.736 209.663 131.427 209.663 131.16V126.36H211.359V130.608C211.359 130.944 211.386 131.291 211.439 131.648C211.498 132 211.604 132.328 211.759 132.632C211.919 132.936 212.14 133.181 212.423 133.368C212.711 133.555 213.084 133.648 213.543 133.648C213.842 133.648 214.124 133.6 214.391 133.504C214.658 133.403 214.89 133.243 215.087 133.024C215.29 132.805 215.447 132.517 215.559 132.16C215.676 131.803 215.735 131.368 215.735 130.856L216.775 131.248C216.775 132.032 216.628 132.725 216.335 133.328C216.042 133.925 215.62 134.392 215.071 134.728C214.522 135.064 213.858 135.232 213.079 135.232ZM215.935 135V132.504H215.735V126.36H217.423V135H215.935ZM224.611 135C224.067 135.107 223.534 135.152 223.011 135.136C222.488 135.12 222.022 135.019 221.611 134.832C221.2 134.645 220.891 134.352 220.683 133.952C220.496 133.595 220.395 133.232 220.379 132.864C220.368 132.491 220.363 132.069 220.363 131.6V123.96H222.043V131.52C222.043 131.867 222.046 132.168 222.051 132.424C222.062 132.68 222.118 132.896 222.219 133.072C222.411 133.403 222.715 133.592 223.131 133.64C223.552 133.683 224.046 133.664 224.611 133.584V135ZM218.707 127.704V126.36H224.611V127.704H218.707ZM232.497 135V130.752C232.497 130.416 232.467 130.072 232.409 129.72C232.355 129.363 232.249 129.032 232.089 128.728C231.934 128.424 231.713 128.179 231.425 127.992C231.142 127.805 230.771 127.712 230.312 127.712C230.014 127.712 229.731 127.763 229.465 127.864C229.198 127.96 228.963 128.117 228.761 128.336C228.563 128.555 228.406 128.843 228.289 129.2C228.177 129.557 228.121 129.992 228.121 130.504L227.081 130.112C227.081 129.328 227.227 128.637 227.521 128.04C227.814 127.437 228.235 126.968 228.785 126.632C229.334 126.296 229.998 126.128 230.777 126.128C231.374 126.128 231.875 126.224 232.281 126.416C232.686 126.608 233.014 126.861 233.265 127.176C233.521 127.485 233.715 127.824 233.849 128.192C233.982 128.56 234.073 128.92 234.121 129.272C234.169 129.624 234.193 129.933 234.193 130.2V135H232.497ZM226.425 135V123.48H227.921V129.696H228.121V135H226.425ZM240.108 135.24C239.25 135.24 238.495 135.053 237.844 134.68C237.199 134.301 236.695 133.776 236.332 133.104C235.975 132.427 235.796 131.643 235.796 130.752C235.796 129.808 235.972 128.989 236.324 128.296C236.682 127.603 237.178 127.067 237.812 126.688C238.447 126.309 239.186 126.12 240.028 126.12C240.908 126.12 241.658 126.325 242.276 126.736C242.895 127.141 243.356 127.72 243.66 128.472C243.97 129.224 244.092 130.117 244.028 131.152H242.356V130.544C242.346 129.541 242.154 128.8 241.78 128.32C241.412 127.84 240.85 127.6 240.092 127.6C239.255 127.6 238.626 127.864 238.204 128.392C237.783 128.92 237.572 129.683 237.572 130.68C237.572 131.629 237.783 132.365 238.204 132.888C238.626 133.405 239.234 133.664 240.028 133.664C240.551 133.664 241.002 133.547 241.38 133.312C241.764 133.072 242.063 132.731 242.276 132.288L243.916 132.808C243.58 133.581 243.071 134.181 242.388 134.608C241.706 135.029 240.946 135.24 240.108 135.24ZM237.028 131.152V129.848H243.196V131.152H237.028ZM251.653 135V130.752C251.653 130.416 251.623 130.072 251.565 129.72C251.511 129.363 251.405 129.032 251.245 128.728C251.09 128.424 250.869 128.179 250.581 127.992C250.298 127.805 249.927 127.712 249.469 127.712C249.17 127.712 248.887 127.763 248.621 127.864C248.354 127.96 248.119 128.117 247.917 128.336C247.719 128.555 247.562 128.843 247.445 129.2C247.333 129.557 247.277 129.992 247.277 130.504L246.237 130.112C246.237 129.328 246.383 128.637 246.677 128.04C246.97 127.437 247.391 126.968 247.941 126.632C248.49 126.296 249.154 126.128 249.933 126.128C250.53 126.128 251.031 126.224 251.437 126.416C251.842 126.608 252.17 126.861 252.421 127.176C252.677 127.485 252.871 127.824 253.005 128.192C253.138 128.56 253.229 128.92 253.277 129.272C253.325 129.624 253.349 129.933 253.349 130.2V135H251.653ZM245.581 135V126.36H247.077V128.856H247.277V135H245.581ZM260.377 135C259.833 135.107 259.299 135.152 258.777 135.136C258.254 135.12 257.787 135.019 257.377 134.832C256.966 134.645 256.657 134.352 256.449 133.952C256.262 133.595 256.161 133.232 256.145 132.864C256.134 132.491 256.129 132.069 256.129 131.6V123.96H257.809V131.52C257.809 131.867 257.811 132.168 257.817 132.424C257.827 132.68 257.883 132.896 257.985 133.072C258.177 133.403 258.481 133.592 258.897 133.64C259.318 133.683 259.811 133.664 260.377 133.584V135ZM254.473 127.704V126.36H260.377V127.704H254.473ZM262.358 124.944V123.32H264.03V124.944H262.358ZM262.358 135V126.36H264.03V135H262.358ZM270.129 135.24C269.243 135.24 268.491 135.043 267.873 134.648C267.254 134.253 266.779 133.712 266.449 133.024C266.123 132.336 265.958 131.555 265.953 130.68C265.958 129.789 266.129 129.003 266.465 128.32C266.801 127.632 267.281 127.093 267.905 126.704C268.529 126.315 269.278 126.12 270.153 126.12C271.097 126.12 271.902 126.355 272.569 126.824C273.241 127.293 273.683 127.936 273.897 128.752L272.233 129.232C272.067 128.747 271.795 128.371 271.417 128.104C271.043 127.832 270.614 127.696 270.129 127.696C269.579 127.696 269.129 127.827 268.777 128.088C268.425 128.344 268.163 128.696 267.993 129.144C267.822 129.592 267.734 130.104 267.729 130.68C267.734 131.571 267.937 132.291 268.337 132.84C268.742 133.389 269.339 133.664 270.129 133.664C270.667 133.664 271.102 133.541 271.433 133.296C271.769 133.045 272.025 132.688 272.201 132.224L273.897 132.624C273.614 133.467 273.147 134.115 272.497 134.568C271.846 135.016 271.057 135.24 270.129 135.24ZM277.857 135.24C277.217 135.24 276.681 135.123 276.249 134.888C275.817 134.648 275.489 134.333 275.265 133.944C275.046 133.549 274.937 133.117 274.937 132.648C274.937 132.211 275.014 131.827 275.169 131.496C275.324 131.165 275.553 130.885 275.857 130.656C276.161 130.421 276.534 130.232 276.977 130.088C277.361 129.976 277.796 129.877 278.281 129.792C278.766 129.707 279.276 129.627 279.809 129.552C280.348 129.477 280.881 129.403 281.409 129.328L280.801 129.664C280.812 128.987 280.668 128.485 280.369 128.16C280.076 127.829 279.569 127.664 278.849 127.664C278.396 127.664 277.98 127.771 277.601 127.984C277.222 128.192 276.958 128.539 276.809 129.024L275.249 128.544C275.462 127.803 275.868 127.213 276.465 126.776C277.068 126.339 277.868 126.12 278.865 126.12C279.638 126.12 280.31 126.253 280.881 126.52C281.457 126.781 281.878 127.197 282.145 127.768C282.284 128.051 282.369 128.349 282.401 128.664C282.433 128.979 282.449 129.317 282.449 129.68V135H280.969V133.024L281.257 133.28C280.9 133.941 280.444 134.435 279.889 134.76C279.34 135.08 278.662 135.24 277.857 135.24ZM278.153 133.872C278.628 133.872 279.036 133.789 279.377 133.624C279.718 133.453 279.993 133.237 280.201 132.976C280.409 132.715 280.545 132.443 280.609 132.16C280.7 131.904 280.75 131.616 280.761 131.296C280.777 130.976 280.785 130.72 280.785 130.528L281.329 130.728C280.801 130.808 280.321 130.88 279.889 130.944C279.457 131.008 279.065 131.072 278.713 131.136C278.366 131.195 278.057 131.267 277.785 131.352C277.556 131.432 277.35 131.528 277.169 131.64C276.993 131.752 276.852 131.888 276.745 132.048C276.644 132.208 276.593 132.403 276.593 132.632C276.593 132.856 276.649 133.064 276.761 133.256C276.873 133.443 277.044 133.592 277.273 133.704C277.502 133.816 277.796 133.872 278.153 133.872ZM289.47 135C288.926 135.107 288.393 135.152 287.87 135.136C287.348 135.12 286.881 135.019 286.47 134.832C286.06 134.645 285.75 134.352 285.542 133.952C285.356 133.595 285.254 133.232 285.238 132.864C285.228 132.491 285.222 132.069 285.222 131.6V123.96H286.902V131.52C286.902 131.867 286.905 132.168 286.91 132.424C286.921 132.68 286.977 132.896 287.078 133.072C287.27 133.403 287.574 133.592 287.99 133.64C288.412 133.683 288.905 133.664 289.47 133.584V135ZM283.566 127.704V126.36H289.47V127.704H283.566ZM291.452 124.944V123.32H293.124V124.944H291.452ZM291.452 135V126.36H293.124V135H291.452ZM299.278 135.24C298.414 135.24 297.665 135.045 297.03 134.656C296.396 134.267 295.905 133.731 295.558 133.048C295.217 132.36 295.046 131.568 295.046 130.672C295.046 129.771 295.222 128.979 295.574 128.296C295.926 127.608 296.42 127.075 297.054 126.696C297.689 126.312 298.43 126.12 299.278 126.12C300.142 126.12 300.892 126.315 301.526 126.704C302.161 127.093 302.652 127.629 302.998 128.312C303.345 128.995 303.518 129.781 303.518 130.672C303.518 131.573 303.342 132.368 302.99 133.056C302.644 133.739 302.153 134.275 301.518 134.664C300.884 135.048 300.137 135.24 299.278 135.24ZM299.278 133.664C300.105 133.664 300.721 133.387 301.126 132.832C301.537 132.272 301.742 131.552 301.742 130.672C301.742 129.771 301.534 129.051 301.118 128.512C300.708 127.968 300.094 127.696 299.278 127.696C298.718 127.696 298.257 127.824 297.894 128.08C297.532 128.331 297.262 128.68 297.086 129.128C296.91 129.571 296.822 130.085 296.822 130.672C296.822 131.579 297.03 132.304 297.446 132.848C297.862 133.392 298.473 133.664 299.278 133.664ZM311.34 135V130.752C311.34 130.416 311.311 130.072 311.252 129.72C311.199 129.363 311.092 129.032 310.932 128.728C310.778 128.424 310.556 128.179 310.268 127.992C309.986 127.805 309.615 127.712 309.156 127.712C308.858 127.712 308.575 127.763 308.308 127.864C308.042 127.96 307.807 128.117 307.604 128.336C307.407 128.555 307.25 128.843 307.132 129.2C307.02 129.557 306.964 129.992 306.964 130.504L305.924 130.112C305.924 129.328 306.071 128.637 306.364 128.04C306.658 127.437 307.079 126.968 307.628 126.632C308.178 126.296 308.842 126.128 309.62 126.128C310.218 126.128 310.719 126.224 311.124 126.416C311.53 126.608 311.858 126.861 312.108 127.176C312.364 127.485 312.559 127.824 312.692 128.192C312.826 128.56 312.916 128.92 312.964 129.272C313.012 129.624 313.036 129.933 313.036 130.2V135H311.34ZM305.268 135V126.36H306.764V128.856H306.964V135H305.268Z" fill="#0F172A"/>
<mask id="path-7-inside-1_289_828" fill="white">
<path d="M59 170H112V216H59V170Z"/>
</mask>
<path d="M112 213H59V219H112V213Z" fill="#CBD5E1" mask="url(#path-7-inside-1_289_828)"/>
<path d="M93.58 182.716L95.092 187.42L85.894 189.31L84.97 186.622L93.58 182.716ZM92.95 194.056L88.918 196.954L84.298 188.806L86.566 187.126L92.95 194.056ZM81.946 196.954L77.914 194.056L84.298 187.126L86.566 188.806L81.946 196.954ZM75.772 187.42L77.284 182.716L85.894 186.622L84.97 189.31L75.772 187.42ZM82.954 178.6H87.91L86.86 187.966H84.004L82.954 178.6Z" fill="black"/>
<mask id="path-10-inside-2_289_828" fill="white">
<path d="M122 170H175V216H122V170Z"/>
</mask>
<path d="M175 213H122V219H175V213Z" fill="#CBD5E1" mask="url(#path-10-inside-2_289_828)"/>
<path d="M156.58 182.716L158.092 187.42L148.894 189.31L147.97 186.622L156.58 182.716ZM155.95 194.056L151.918 196.954L147.298 188.806L149.566 187.126L155.95 194.056ZM144.946 196.954L140.914 194.056L147.298 187.126L149.566 188.806L144.946 196.954ZM138.772 187.42L140.284 182.716L148.894 186.622L147.97 189.31L138.772 187.42ZM145.954 178.6H150.91L149.86 187.966H147.004L145.954 178.6Z" fill="black"/>
<mask id="path-13-inside-3_289_828" fill="white">
<path d="M185 170H238V216H185V170Z"/>
</mask>
<path d="M238 213H185V219H238V213Z" fill="#CBD5E1" mask="url(#path-13-inside-3_289_828)"/>
<path d="M219.58 182.716L221.092 187.42L211.894 189.31L210.97 186.622L219.58 182.716ZM218.95 194.056L214.918 196.954L210.298 188.806L212.566 187.126L218.95 194.056ZM207.946 196.954L203.914 194.056L210.298 187.126L212.566 188.806L207.946 196.954ZM201.772 187.42L203.284 182.716L211.894 186.622L210.97 189.31L201.772 187.42ZM208.954 178.6H213.91L212.86 187.966H210.004L208.954 178.6Z" fill="black"/>
<mask id="path-16-inside-4_289_828" fill="white">
<path d="M248 170H301V216H248V170Z"/>
</mask>
<path d="M301 213H248V219H301V213Z" fill="#CBD5E1" mask="url(#path-16-inside-4_289_828)"/>
<path d="M282.58 182.716L284.092 187.42L274.894 189.31L273.97 186.622L282.58 182.716ZM281.95 194.056L277.918 196.954L273.298 188.806L275.566 187.126L281.95 194.056ZM270.946 196.954L266.914 194.056L273.298 187.126L275.566 188.806L270.946 196.954ZM264.772 187.42L266.284 182.716L274.894 186.622L273.97 189.31L264.772 187.42ZM271.954 178.6H276.91L275.86 187.966H273.004L271.954 178.6Z" fill="black"/>
<mask id="path-19-inside-5_289_828" fill="white">
<path d="M311 170H364V216H311V170Z"/>
</mask>
<path d="M364 213H311V219H364V213Z" fill="#7847FF" mask="url(#path-19-inside-5_289_828)"/>
<rect x="50" y="245" width="323" height="45" rx="8" fill="#7847FF"/>
<path d="M191.634 273.21C190.911 273.21 190.257 273.086 189.674 272.839C189.095 272.587 188.617 272.23 188.239 271.768C187.866 271.301 187.623 270.748 187.511 270.109L189.037 269.878C189.191 270.494 189.513 270.975 190.003 271.32C190.493 271.661 191.065 271.831 191.718 271.831C192.124 271.831 192.497 271.768 192.838 271.642C193.179 271.511 193.452 271.327 193.657 271.089C193.867 270.846 193.972 270.557 193.972 270.221C193.972 270.039 193.939 269.878 193.874 269.738C193.813 269.598 193.727 269.477 193.615 269.374C193.508 269.267 193.375 269.176 193.216 269.101C193.062 269.022 192.892 268.954 192.705 268.898L190.122 268.135C189.87 268.06 189.613 267.965 189.352 267.848C189.091 267.727 188.85 267.57 188.631 267.379C188.416 267.183 188.241 266.943 188.106 266.658C187.971 266.369 187.903 266.019 187.903 265.608C187.903 264.987 188.062 264.462 188.379 264.033C188.701 263.599 189.135 263.272 189.681 263.053C190.227 262.829 190.838 262.717 191.515 262.717C192.196 262.726 192.805 262.848 193.342 263.081C193.883 263.314 194.331 263.65 194.686 264.089C195.045 264.523 195.293 265.05 195.428 265.671L193.86 265.937C193.79 265.559 193.641 265.235 193.412 264.964C193.183 264.689 192.903 264.479 192.572 264.334C192.241 264.185 191.881 264.108 191.494 264.103C191.121 264.094 190.778 264.15 190.465 264.271C190.157 264.392 189.91 264.563 189.723 264.782C189.541 265.001 189.45 265.253 189.45 265.538C189.45 265.818 189.532 266.044 189.695 266.217C189.858 266.39 190.059 266.527 190.297 266.63C190.54 266.728 190.78 266.81 191.018 266.875L192.88 267.4C193.113 267.465 193.377 267.554 193.671 267.666C193.97 267.773 194.257 267.925 194.532 268.121C194.812 268.317 195.043 268.578 195.225 268.905C195.407 269.227 195.498 269.633 195.498 270.123C195.498 270.632 195.395 271.08 195.19 271.467C194.985 271.85 194.702 272.172 194.343 272.433C193.988 272.69 193.578 272.883 193.111 273.014C192.644 273.145 192.152 273.21 191.634 273.21ZM199.839 273.203C199.316 273.203 198.877 273.119 198.523 272.951C198.168 272.783 197.879 272.564 197.655 272.293C197.435 272.018 197.267 271.719 197.151 271.397C197.034 271.075 196.955 270.76 196.913 270.452C196.871 270.144 196.85 269.873 196.85 269.64V265.44H198.334V269.157C198.334 269.451 198.357 269.754 198.404 270.067C198.455 270.375 198.548 270.662 198.684 270.928C198.824 271.194 199.017 271.409 199.265 271.572C199.517 271.735 199.843 271.817 200.245 271.817C200.506 271.817 200.753 271.775 200.987 271.691C201.22 271.602 201.423 271.462 201.596 271.271C201.773 271.08 201.911 270.828 202.009 270.515C202.111 270.202 202.163 269.822 202.163 269.374L203.073 269.717C203.073 270.403 202.944 271.01 202.688 271.537C202.431 272.06 202.062 272.468 201.582 272.762C201.101 273.056 200.52 273.203 199.839 273.203ZM202.338 273V270.816H202.163V265.44H203.64V273H202.338ZM209.152 273.21C208.429 273.21 207.822 273.035 207.332 272.685C206.842 272.33 206.471 271.852 206.219 271.25C205.967 270.648 205.841 269.969 205.841 269.213C205.841 268.457 205.965 267.778 206.212 267.176C206.464 266.574 206.833 266.1 207.318 265.755C207.808 265.405 208.41 265.23 209.124 265.23C209.833 265.23 210.445 265.405 210.958 265.755C211.476 266.1 211.875 266.574 212.155 267.176C212.435 267.773 212.575 268.452 212.575 269.213C212.575 269.969 212.435 270.65 212.155 271.257C211.88 271.859 211.485 272.335 210.972 272.685C210.463 273.035 209.857 273.21 209.152 273.21ZM205.596 273V262.92H207.066V267.561H206.898V273H205.596ZM208.949 271.887C209.416 271.887 209.801 271.768 210.104 271.53C210.412 271.292 210.641 270.972 210.79 270.571C210.944 270.165 211.021 269.712 211.021 269.213C211.021 268.718 210.944 268.27 210.79 267.869C210.641 267.468 210.41 267.148 210.097 266.91C209.784 266.672 209.385 266.553 208.9 266.553C208.443 266.553 208.065 266.665 207.766 266.889C207.472 267.113 207.253 267.426 207.108 267.827C206.968 268.228 206.898 268.69 206.898 269.213C206.898 269.736 206.968 270.198 207.108 270.599C207.248 271 207.47 271.315 207.773 271.544C208.076 271.773 208.468 271.887 208.949 271.887ZM223.179 273L223.186 268.289C223.186 267.743 223.046 267.318 222.766 267.015C222.486 266.707 222.117 266.553 221.66 266.553C221.38 266.553 221.123 266.618 220.89 266.749C220.661 266.875 220.474 267.066 220.33 267.323C220.19 267.575 220.12 267.892 220.12 268.275L219.413 267.918C219.403 267.386 219.515 266.919 219.749 266.518C219.987 266.117 220.309 265.806 220.715 265.587C221.121 265.363 221.576 265.251 222.08 265.251C222.896 265.251 223.529 265.496 223.977 265.986C224.425 266.476 224.649 267.127 224.649 267.939L224.642 273H223.179ZM214.114 273V265.44H215.416V267.624H215.584V273H214.114ZM218.65 273L218.657 268.317C218.657 267.766 218.517 267.335 218.237 267.022C217.961 266.709 217.59 266.553 217.124 266.553C216.662 266.553 216.288 266.712 216.004 267.029C215.724 267.346 215.584 267.762 215.584 268.275L214.884 267.827C214.884 267.332 215.003 266.891 215.241 266.504C215.479 266.117 215.801 265.811 216.207 265.587C216.613 265.363 217.072 265.251 217.586 265.251C218.122 265.251 218.58 265.365 218.958 265.594C219.336 265.818 219.623 266.133 219.819 266.539C220.019 266.945 220.12 267.416 220.12 267.953L220.113 273H218.65ZM226.606 264.201V262.78H228.069V264.201H226.606ZM226.606 273V265.44H228.069V273H226.606ZM234.497 273C234.021 273.093 233.555 273.133 233.097 273.119C232.64 273.105 232.232 273.016 231.872 272.853C231.513 272.69 231.242 272.433 231.06 272.083C230.897 271.77 230.808 271.453 230.794 271.131C230.785 270.804 230.78 270.436 230.78 270.025V263.34H232.25V269.955C232.25 270.258 232.253 270.522 232.257 270.746C232.267 270.97 232.316 271.159 232.404 271.313C232.572 271.602 232.838 271.768 233.202 271.81C233.571 271.847 234.003 271.831 234.497 271.761V273ZM229.331 266.616V265.44H234.497V266.616H229.331Z" fill="white" fill-opacity="0.87"/>
<g filter="url(#filter1_d_289_828)">
<path d="M334.995 276.703C334.127 275.183 335.414 273.342 337.089 273.708L362.77 279.317C364.461 279.687 364.926 281.946 363.52 282.961L354.772 289.272C354.391 289.547 354.119 289.952 354.004 290.415L351.789 299.305C351.353 301.054 349.071 301.366 348.177 299.8L334.995 276.703Z" fill="#333333"/>
<path d="M335.845 276.196C335.411 275.436 336.055 274.516 336.892 274.699L362.573 280.308C363.418 280.493 363.651 281.623 362.948 282.13L354.2 288.442C353.629 288.853 353.221 289.461 353.048 290.156L350.833 299.046C350.615 299.92 349.474 300.076 349.027 299.293L335.845 276.196Z" stroke="white" stroke-width="2"/>
</g>
</g>
<defs>
<filter id="filter0_dd_289_828" x="0" y="0" width="423" height="348" filterUnits="userSpaceOnUse" color-interpolation-filters="sRGB">
<feFlood flood-opacity="0" result="BackgroundImageFix"/>
<feColorMatrix in="SourceAlpha" type="matrix" values="0 0 0 0 0 0 0 0 0 0 0 0 0 0 0 0 0 0 127 0" result="hardAlpha"/>
<feOffset dy="4"/>
<feGaussianBlur stdDeviation="2"/>
<feColorMatrix type="matrix" values="0 0 0 0 0.644444 0 0 0 0 0.57463 0 0 0 0 0.644444 0 0 0 0.2 0"/>
<feBlend mode="normal" in2="BackgroundImageFix" result="effect1_dropShadow_289_828"/>
<feColorMatrix in="SourceAlpha" type="matrix" values="0 0 0 0 0 0 0 0 0 0 0 0 0 0 0 0 0 0 127 0" result="hardAlpha"/>
<feMorphology radius="6" operator="dilate" in="SourceAlpha" result="effect2_dropShadow_289_828"/>
<feOffset dy="8"/>
<feGaussianBlur stdDeviation="6"/>
<feColorMatrix type="matrix" values="0 0 0 0 0.643137 0 0 0 0 0.576471 0 0 0 0 0.643137 0 0 0 0.09 0"/>
<feBlend mode="normal" in2="effect1_dropShadow_289_828" result="effect2_dropShadow_289_828"/>
<feBlend mode="normal" in="SourceGraphic" in2="effect2_dropShadow_289_828" result="shape"/>
</filter>
<filter id="filter1_d_289_828" x="330.716" y="271.661" width="37.6338" height="35.1528" filterUnits="userSpaceOnUse" color-interpolation-filters="sRGB">
<feFlood flood-opacity="0" result="BackgroundImageFix"/>
<feColorMatrix in="SourceAlpha" type="matrix" values="0 0 0 0 0 0 0 0 0 0 0 0 0 0 0 0 0 0 127 0" result="hardAlpha"/>
<feOffset dy="2"/>
<feGaussianBlur stdDeviation="2"/>
<feColorMatrix type="matrix" values="0 0 0 0 0 0 0 0 0 0 0 0 0 0 0 0 0 0 0.28 0"/>
<feBlend mode="normal" in2="BackgroundImageFix" result="effect1_dropShadow_289_828"/>
<feBlend mode="normal" in="SourceGraphic" in2="effect1_dropShadow_289_828" result="shape"/>
</filter>
</defs>
</svg>
