<svg width="387" height="312" viewBox="0 0 387 312" fill="none" xmlns="http://www.w3.org/2000/svg">
<rect width="387" height="312" rx="16" fill="white"/>
<rect x="163.5" y="32" width="60" height="60" rx="30" fill="#ECE5FF"/>
<rect x="186.5" y="47" width="15" height="24" rx="7.5" stroke="#7847FF" stroke-width="2"/>
<rect x="179.5" y="56" width="28" height="18" rx="3" fill="#ECE5FF"/>
<rect x="179.5" y="56" width="28" height="18" rx="3" stroke="#7847FF" stroke-width="2"/>
<circle cx="193.5" cy="65" r="3" fill="#7847FF"/>
<path d="M94.992 125V115.056H91.16V113.48H100.496V115.056H96.664V125H94.992ZM102.663 125L100.023 116.352L101.679 116.36L103.487 122.288L105.311 116.36H106.751L108.575 122.288L110.383 116.36H112.031L109.391 125H108.047L106.031 118.744L104.007 125H102.663ZM116.903 125.24C116.039 125.24 115.29 125.045 114.655 124.656C114.021 124.267 113.53 123.731 113.183 123.048C112.842 122.36 112.671 121.568 112.671 120.672C112.671 119.771 112.847 118.979 113.199 118.296C113.551 117.608 114.045 117.075 114.679 116.696C115.314 116.312 116.055 116.12 116.903 116.12C117.767 116.12 118.517 116.315 119.151 116.704C119.786 117.093 120.277 117.629 120.623 118.312C120.97 118.995 121.143 119.781 121.143 120.672C121.143 121.573 120.967 122.368 120.615 123.056C120.269 123.739 119.778 124.275 119.143 124.664C118.509 125.048 117.762 125.24 116.903 125.24ZM116.903 123.664C117.73 123.664 118.346 123.387 118.751 122.832C119.162 122.272 119.367 121.552 119.367 120.672C119.367 119.771 119.159 119.051 118.743 118.512C118.333 117.968 117.719 117.696 116.903 117.696C116.343 117.696 115.882 117.824 115.519 118.08C115.157 118.331 114.887 118.68 114.711 119.128C114.535 119.571 114.447 120.085 114.447 120.672C114.447 121.579 114.655 122.304 115.071 122.848C115.487 123.392 116.098 123.664 116.903 123.664ZM122.741 120.624V119.28H127.541V120.624H122.741ZM129.62 125V113.48H136.444V115.152H131.292V118.4H135.484V120.08H131.292V125H129.62ZM140.013 125.24C139.373 125.24 138.837 125.123 138.405 124.888C137.973 124.648 137.645 124.333 137.421 123.944C137.202 123.549 137.093 123.117 137.093 122.648C137.093 122.211 137.17 121.827 137.325 121.496C137.48 121.165 137.709 120.885 138.013 120.656C138.317 120.421 138.69 120.232 139.133 120.088C139.517 119.976 139.952 119.877 140.437 119.792C140.922 119.707 141.432 119.627 141.965 119.552C142.504 119.477 143.037 119.403 143.565 119.328L142.957 119.664C142.968 118.987 142.824 118.485 142.525 118.16C142.232 117.829 141.725 117.664 141.005 117.664C140.552 117.664 140.136 117.771 139.757 117.984C139.378 118.192 139.114 118.539 138.965 119.024L137.405 118.544C137.618 117.803 138.024 117.213 138.621 116.776C139.224 116.339 140.024 116.12 141.021 116.12C141.794 116.12 142.466 116.253 143.037 116.52C143.613 116.781 144.034 117.197 144.301 117.768C144.44 118.051 144.525 118.349 144.557 118.664C144.589 118.979 144.605 119.317 144.605 119.68V125H143.125V123.024L143.413 123.28C143.056 123.941 142.6 124.435 142.045 124.76C141.496 125.08 140.818 125.24 140.013 125.24ZM140.309 123.872C140.784 123.872 141.192 123.789 141.533 123.624C141.874 123.453 142.149 123.237 142.357 122.976C142.565 122.715 142.701 122.443 142.765 122.16C142.856 121.904 142.906 121.616 142.917 121.296C142.933 120.976 142.941 120.72 142.941 120.528L143.485 120.728C142.957 120.808 142.477 120.88 142.045 120.944C141.613 121.008 141.221 121.072 140.869 121.136C140.522 121.195 140.213 121.267 139.941 121.352C139.712 121.432 139.506 121.528 139.325 121.64C139.149 121.752 139.008 121.888 138.901 122.048C138.8 122.208 138.749 122.403 138.749 122.632C138.749 122.856 138.805 123.064 138.917 123.256C139.029 123.443 139.2 123.592 139.429 123.704C139.658 123.816 139.952 123.872 140.309 123.872ZM150.379 125.24C149.493 125.24 148.741 125.043 148.123 124.648C147.504 124.253 147.029 123.712 146.699 123.024C146.373 122.336 146.208 121.555 146.203 120.68C146.208 119.789 146.379 119.003 146.715 118.32C147.051 117.632 147.531 117.093 148.155 116.704C148.779 116.315 149.528 116.12 150.403 116.12C151.347 116.12 152.152 116.355 152.819 116.824C153.491 117.293 153.933 117.936 154.147 118.752L152.483 119.232C152.317 118.747 152.045 118.371 151.667 118.104C151.293 117.832 150.864 117.696 150.379 117.696C149.829 117.696 149.379 117.827 149.027 118.088C148.675 118.344 148.413 118.696 148.243 119.144C148.072 119.592 147.984 120.104 147.979 120.68C147.984 121.571 148.187 122.291 148.587 122.84C148.992 123.389 149.589 123.664 150.379 123.664C150.917 123.664 151.352 123.541 151.683 123.296C152.019 123.045 152.275 122.688 152.451 122.224L154.147 122.624C153.864 123.467 153.397 124.115 152.747 124.568C152.096 125.016 151.307 125.24 150.379 125.24ZM160.72 125C160.176 125.107 159.643 125.152 159.12 125.136C158.598 125.12 158.131 125.019 157.72 124.832C157.31 124.645 157 124.352 156.792 123.952C156.606 123.595 156.504 123.232 156.488 122.864C156.478 122.491 156.472 122.069 156.472 121.6V113.96H158.152V121.52C158.152 121.867 158.155 122.168 158.16 122.424C158.171 122.68 158.227 122.896 158.328 123.072C158.52 123.403 158.824 123.592 159.24 123.64C159.662 123.683 160.155 123.664 160.72 123.584V125ZM154.816 117.704V116.36H160.72V117.704H154.816ZM165.903 125.24C165.039 125.24 164.29 125.045 163.655 124.656C163.021 124.267 162.53 123.731 162.183 123.048C161.842 122.36 161.671 121.568 161.671 120.672C161.671 119.771 161.847 118.979 162.199 118.296C162.551 117.608 163.045 117.075 163.679 116.696C164.314 116.312 165.055 116.12 165.903 116.12C166.767 116.12 167.517 116.315 168.151 116.704C168.786 117.093 169.277 117.629 169.623 118.312C169.97 118.995 170.143 119.781 170.143 120.672C170.143 121.573 169.967 122.368 169.615 123.056C169.269 123.739 168.778 124.275 168.143 124.664C167.509 125.048 166.762 125.24 165.903 125.24ZM165.903 123.664C166.73 123.664 167.346 123.387 167.751 122.832C168.162 122.272 168.367 121.552 168.367 120.672C168.367 119.771 168.159 119.051 167.743 118.512C167.333 117.968 166.719 117.696 165.903 117.696C165.343 117.696 164.882 117.824 164.519 118.08C164.157 118.331 163.887 118.68 163.711 119.128C163.535 119.571 163.447 120.085 163.447 120.672C163.447 121.579 163.655 122.304 164.071 122.848C164.487 123.392 165.098 123.664 165.903 123.664ZM171.901 125V116.36H173.389V118.456L173.181 118.184C173.288 117.907 173.427 117.653 173.597 117.424C173.768 117.189 173.965 116.997 174.189 116.848C174.408 116.688 174.651 116.565 174.917 116.48C175.189 116.389 175.467 116.336 175.749 116.32C176.032 116.299 176.304 116.312 176.565 116.36V117.928C176.283 117.853 175.968 117.832 175.621 117.864C175.28 117.896 174.965 118.005 174.677 118.192C174.405 118.368 174.189 118.581 174.029 118.832C173.875 119.083 173.763 119.363 173.693 119.672C173.624 119.976 173.589 120.299 173.589 120.64V125H171.901ZM180.492 125L184.236 113.48H186.644L190.388 125H188.652L185.204 114.488H185.636L182.228 125H180.492ZM182.436 122.4V120.832H188.452V122.4H182.436ZM195.079 125.232C194.482 125.232 193.98 125.136 193.575 124.944C193.17 124.752 192.839 124.501 192.583 124.192C192.332 123.877 192.14 123.536 192.007 123.168C191.874 122.8 191.783 122.44 191.735 122.088C191.687 121.736 191.663 121.427 191.663 121.16V116.36H193.359V120.608C193.359 120.944 193.386 121.291 193.439 121.648C193.498 122 193.604 122.328 193.759 122.632C193.919 122.936 194.14 123.181 194.423 123.368C194.711 123.555 195.084 123.648 195.543 123.648C195.842 123.648 196.124 123.6 196.391 123.504C196.658 123.403 196.89 123.243 197.087 123.024C197.29 122.805 197.447 122.517 197.559 122.16C197.676 121.803 197.735 121.368 197.735 120.856L198.775 121.248C198.775 122.032 198.628 122.725 198.335 123.328C198.042 123.925 197.62 124.392 197.071 124.728C196.522 125.064 195.858 125.232 195.079 125.232ZM197.935 125V122.504H197.735V116.36H199.423V125H197.935ZM206.611 125C206.067 125.107 205.534 125.152 205.011 125.136C204.488 125.12 204.022 125.019 203.611 124.832C203.2 124.645 202.891 124.352 202.683 123.952C202.496 123.595 202.395 123.232 202.379 122.864C202.368 122.491 202.363 122.069 202.363 121.6V113.96H204.043V121.52C204.043 121.867 204.046 122.168 204.051 122.424C204.062 122.68 204.118 122.896 204.219 123.072C204.411 123.403 204.715 123.592 205.131 123.64C205.552 123.683 206.046 123.664 206.611 123.584V125ZM200.707 117.704V116.36H206.611V117.704H200.707ZM214.497 125V120.752C214.497 120.416 214.467 120.072 214.409 119.72C214.355 119.363 214.249 119.032 214.089 118.728C213.934 118.424 213.713 118.179 213.425 117.992C213.142 117.805 212.771 117.712 212.312 117.712C212.014 117.712 211.731 117.763 211.465 117.864C211.198 117.96 210.963 118.117 210.761 118.336C210.563 118.555 210.406 118.843 210.289 119.2C210.177 119.557 210.121 119.992 210.121 120.504L209.081 120.112C209.081 119.328 209.227 118.637 209.521 118.04C209.814 117.437 210.235 116.968 210.785 116.632C211.334 116.296 211.998 116.128 212.777 116.128C213.374 116.128 213.875 116.224 214.281 116.416C214.686 116.608 215.014 116.861 215.265 117.176C215.521 117.485 215.715 117.824 215.849 118.192C215.982 118.56 216.073 118.92 216.121 119.272C216.169 119.624 216.193 119.933 216.193 120.2V125H214.497ZM208.425 125V113.48H209.921V119.696H210.121V125H208.425ZM222.108 125.24C221.25 125.24 220.495 125.053 219.844 124.68C219.199 124.301 218.695 123.776 218.332 123.104C217.975 122.427 217.796 121.643 217.796 120.752C217.796 119.808 217.972 118.989 218.324 118.296C218.682 117.603 219.178 117.067 219.812 116.688C220.447 116.309 221.186 116.12 222.028 116.12C222.908 116.12 223.658 116.325 224.276 116.736C224.895 117.141 225.356 117.72 225.66 118.472C225.97 119.224 226.092 120.117 226.028 121.152H224.356V120.544C224.346 119.541 224.154 118.8 223.78 118.32C223.412 117.84 222.85 117.6 222.092 117.6C221.255 117.6 220.626 117.864 220.204 118.392C219.783 118.92 219.572 119.683 219.572 120.68C219.572 121.629 219.783 122.365 220.204 122.888C220.626 123.405 221.234 123.664 222.028 123.664C222.551 123.664 223.002 123.547 223.38 123.312C223.764 123.072 224.063 122.731 224.276 122.288L225.916 122.808C225.58 123.581 225.071 124.181 224.388 124.608C223.706 125.029 222.946 125.24 222.108 125.24ZM219.028 121.152V119.848H225.196V121.152H219.028ZM233.653 125V120.752C233.653 120.416 233.623 120.072 233.565 119.72C233.511 119.363 233.405 119.032 233.245 118.728C233.09 118.424 232.869 118.179 232.581 117.992C232.298 117.805 231.927 117.712 231.469 117.712C231.17 117.712 230.887 117.763 230.621 117.864C230.354 117.96 230.119 118.117 229.917 118.336C229.719 118.555 229.562 118.843 229.445 119.2C229.333 119.557 229.277 119.992 229.277 120.504L228.237 120.112C228.237 119.328 228.383 118.637 228.677 118.04C228.97 117.437 229.391 116.968 229.941 116.632C230.49 116.296 231.154 116.128 231.933 116.128C232.53 116.128 233.031 116.224 233.437 116.416C233.842 116.608 234.17 116.861 234.421 117.176C234.677 117.485 234.871 117.824 235.005 118.192C235.138 118.56 235.229 118.92 235.277 119.272C235.325 119.624 235.349 119.933 235.349 120.2V125H233.653ZM227.581 125V116.36H229.077V118.856H229.277V125H227.581ZM242.377 125C241.833 125.107 241.299 125.152 240.777 125.136C240.254 125.12 239.787 125.019 239.377 124.832C238.966 124.645 238.657 124.352 238.449 123.952C238.262 123.595 238.161 123.232 238.145 122.864C238.134 122.491 238.129 122.069 238.129 121.6V113.96H239.809V121.52C239.809 121.867 239.811 122.168 239.817 122.424C239.827 122.68 239.883 122.896 239.985 123.072C240.177 123.403 240.481 123.592 240.897 123.64C241.318 123.683 241.811 123.664 242.377 123.584V125ZM236.473 117.704V116.36H242.377V117.704H236.473ZM244.358 114.944V113.32H246.03V114.944H244.358ZM244.358 125V116.36H246.03V125H244.358ZM252.129 125.24C251.243 125.24 250.491 125.043 249.873 124.648C249.254 124.253 248.779 123.712 248.449 123.024C248.123 122.336 247.958 121.555 247.953 120.68C247.958 119.789 248.129 119.003 248.465 118.32C248.801 117.632 249.281 117.093 249.905 116.704C250.529 116.315 251.278 116.12 252.153 116.12C253.097 116.12 253.902 116.355 254.569 116.824C255.241 117.293 255.683 117.936 255.897 118.752L254.233 119.232C254.067 118.747 253.795 118.371 253.417 118.104C253.043 117.832 252.614 117.696 252.129 117.696C251.579 117.696 251.129 117.827 250.777 118.088C250.425 118.344 250.163 118.696 249.993 119.144C249.822 119.592 249.734 120.104 249.729 120.68C249.734 121.571 249.937 122.291 250.337 122.84C250.742 123.389 251.339 123.664 252.129 123.664C252.667 123.664 253.102 123.541 253.433 123.296C253.769 123.045 254.025 122.688 254.201 122.224L255.897 122.624C255.614 123.467 255.147 124.115 254.497 124.568C253.846 125.016 253.057 125.24 252.129 125.24ZM259.857 125.24C259.217 125.24 258.681 125.123 258.249 124.888C257.817 124.648 257.489 124.333 257.265 123.944C257.046 123.549 256.937 123.117 256.937 122.648C256.937 122.211 257.014 121.827 257.169 121.496C257.324 121.165 257.553 120.885 257.857 120.656C258.161 120.421 258.534 120.232 258.977 120.088C259.361 119.976 259.796 119.877 260.281 119.792C260.766 119.707 261.276 119.627 261.809 119.552C262.348 119.477 262.881 119.403 263.409 119.328L262.801 119.664C262.812 118.987 262.668 118.485 262.369 118.16C262.076 117.829 261.569 117.664 260.849 117.664C260.396 117.664 259.98 117.771 259.601 117.984C259.222 118.192 258.958 118.539 258.809 119.024L257.249 118.544C257.462 117.803 257.868 117.213 258.465 116.776C259.068 116.339 259.868 116.12 260.865 116.12C261.638 116.12 262.31 116.253 262.881 116.52C263.457 116.781 263.878 117.197 264.145 117.768C264.284 118.051 264.369 118.349 264.401 118.664C264.433 118.979 264.449 119.317 264.449 119.68V125H262.969V123.024L263.257 123.28C262.9 123.941 262.444 124.435 261.889 124.76C261.34 125.08 260.662 125.24 259.857 125.24ZM260.153 123.872C260.628 123.872 261.036 123.789 261.377 123.624C261.718 123.453 261.993 123.237 262.201 122.976C262.409 122.715 262.545 122.443 262.609 122.16C262.7 121.904 262.75 121.616 262.761 121.296C262.777 120.976 262.785 120.72 262.785 120.528L263.329 120.728C262.801 120.808 262.321 120.88 261.889 120.944C261.457 121.008 261.065 121.072 260.713 121.136C260.366 121.195 260.057 121.267 259.785 121.352C259.556 121.432 259.35 121.528 259.169 121.64C258.993 121.752 258.852 121.888 258.745 122.048C258.644 122.208 258.593 122.403 258.593 122.632C258.593 122.856 258.649 123.064 258.761 123.256C258.873 123.443 259.044 123.592 259.273 123.704C259.502 123.816 259.796 123.872 260.153 123.872ZM271.47 125C270.926 125.107 270.393 125.152 269.87 125.136C269.348 125.12 268.881 125.019 268.47 124.832C268.06 124.645 267.75 124.352 267.542 123.952C267.356 123.595 267.254 123.232 267.238 122.864C267.228 122.491 267.222 122.069 267.222 121.6V113.96H268.902V121.52C268.902 121.867 268.905 122.168 268.91 122.424C268.921 122.68 268.977 122.896 269.078 123.072C269.27 123.403 269.574 123.592 269.99 123.64C270.412 123.683 270.905 123.664 271.47 123.584V125ZM265.566 117.704V116.36H271.47V117.704H265.566ZM273.452 114.944V113.32H275.124V114.944H273.452ZM273.452 125V116.36H275.124V125H273.452ZM281.278 125.24C280.414 125.24 279.665 125.045 279.03 124.656C278.396 124.267 277.905 123.731 277.558 123.048C277.217 122.36 277.046 121.568 277.046 120.672C277.046 119.771 277.222 118.979 277.574 118.296C277.926 117.608 278.42 117.075 279.054 116.696C279.689 116.312 280.43 116.12 281.278 116.12C282.142 116.12 282.892 116.315 283.526 116.704C284.161 117.093 284.652 117.629 284.998 118.312C285.345 118.995 285.518 119.781 285.518 120.672C285.518 121.573 285.342 122.368 284.99 123.056C284.644 123.739 284.153 124.275 283.518 124.664C282.884 125.048 282.137 125.24 281.278 125.24ZM281.278 123.664C282.105 123.664 282.721 123.387 283.126 122.832C283.537 122.272 283.742 121.552 283.742 120.672C283.742 119.771 283.534 119.051 283.118 118.512C282.708 117.968 282.094 117.696 281.278 117.696C280.718 117.696 280.257 117.824 279.894 118.08C279.532 118.331 279.262 118.68 279.086 119.128C278.91 119.571 278.822 120.085 278.822 120.672C278.822 121.579 279.03 122.304 279.446 122.848C279.862 123.392 280.473 123.664 281.278 123.664ZM293.34 125V120.752C293.34 120.416 293.311 120.072 293.252 119.72C293.199 119.363 293.092 119.032 292.932 118.728C292.778 118.424 292.556 118.179 292.268 117.992C291.986 117.805 291.615 117.712 291.156 117.712C290.858 117.712 290.575 117.763 290.308 117.864C290.042 117.96 289.807 118.117 289.604 118.336C289.407 118.555 289.25 118.843 289.132 119.2C289.02 119.557 288.964 119.992 288.964 120.504L287.924 120.112C287.924 119.328 288.071 118.637 288.364 118.04C288.658 117.437 289.079 116.968 289.628 116.632C290.178 116.296 290.842 116.128 291.62 116.128C292.218 116.128 292.719 116.224 293.124 116.416C293.53 116.608 293.858 116.861 294.108 117.176C294.364 117.485 294.559 117.824 294.692 118.192C294.826 118.56 294.916 118.92 294.964 119.272C295.012 119.624 295.036 119.933 295.036 120.2V125H293.34ZM287.268 125V116.36H288.764V118.856H288.964V125H287.268Z" fill="#0F172A"/>
<mask id="path-7-inside-1_289_828" fill="white">
<path d="M41 160H94V206H41V160Z"/>
</mask>
<path d="M94 203H41V209H94V203Z" fill="#CBD5E1" mask="url(#path-7-inside-1_289_828)"/>
<path d="M75.58 172.716L77.092 177.42L67.894 179.31L66.97 176.622L75.58 172.716ZM74.95 184.056L70.918 186.954L66.298 178.806L68.566 177.126L74.95 184.056ZM63.946 186.954L59.914 184.056L66.298 177.126L68.566 178.806L63.946 186.954ZM57.772 177.42L59.284 172.716L67.894 176.622L66.97 179.31L57.772 177.42ZM64.954 168.6H69.91L68.86 177.966H66.004L64.954 168.6Z" fill="black"/>
<mask id="path-10-inside-2_289_828" fill="white">
<path d="M104 160H157V206H104V160Z"/>
</mask>
<path d="M157 203H104V209H157V203Z" fill="#CBD5E1" mask="url(#path-10-inside-2_289_828)"/>
<path d="M138.58 172.716L140.092 177.42L130.894 179.31L129.97 176.622L138.58 172.716ZM137.95 184.056L133.918 186.954L129.298 178.806L131.566 177.126L137.95 184.056ZM126.946 186.954L122.914 184.056L129.298 177.126L131.566 178.806L126.946 186.954ZM120.772 177.42L122.284 172.716L130.894 176.622L129.97 179.31L120.772 177.42ZM127.954 168.6H132.91L131.86 177.966H129.004L127.954 168.6Z" fill="black"/>
<mask id="path-13-inside-3_289_828" fill="white">
<path d="M167 160H220V206H167V160Z"/>
</mask>
<path d="M220 203H167V209H220V203Z" fill="#CBD5E1" mask="url(#path-13-inside-3_289_828)"/>
<path d="M201.58 172.716L203.092 177.42L193.894 179.31L192.97 176.622L201.58 172.716ZM200.95 184.056L196.918 186.954L192.298 178.806L194.566 177.126L200.95 184.056ZM189.946 186.954L185.914 184.056L192.298 177.126L194.566 178.806L189.946 186.954ZM183.772 177.42L185.284 172.716L193.894 176.622L192.97 179.31L183.772 177.42ZM190.954 168.6H195.91L194.86 177.966H192.004L190.954 168.6Z" fill="black"/>
<mask id="path-16-inside-4_289_828" fill="white">
<path d="M230 160H283V206H230V160Z"/>
</mask>
<path d="M283 203H230V209H283V203Z" fill="#CBD5E1" mask="url(#path-16-inside-4_289_828)"/>
<path d="M264.58 172.716L266.092 177.42L256.894 179.31L255.97 176.622L264.58 172.716ZM263.95 184.056L259.918 186.954L255.298 178.806L257.566 177.126L263.95 184.056ZM252.946 186.954L248.914 184.056L255.298 177.126L257.566 178.806L252.946 186.954ZM246.772 177.42L248.284 172.716L256.894 176.622L255.97 179.31L246.772 177.42ZM253.954 168.6H258.91L257.86 177.966H255.004L253.954 168.6Z" fill="black"/>
<mask id="path-19-inside-5_289_828" fill="white">
<path d="M293 160H346V206H293V160Z"/>
</mask>
<path d="M346 203H293V209H346V203Z" fill="#7847FF" mask="url(#path-19-inside-5_289_828)"/>
<rect x="32" y="235" width="323" height="45" rx="8" fill="#7847FF"/>
<path d="M173.634 263.21C172.911 263.21 172.257 263.086 171.674 262.839C171.095 262.587 170.617 262.23 170.239 261.768C169.866 261.301 169.623 260.748 169.511 260.109L171.037 259.878C171.191 260.494 171.513 260.975 172.003 261.32C172.493 261.661 173.065 261.831 173.718 261.831C174.124 261.831 174.497 261.768 174.838 261.642C175.179 261.511 175.452 261.327 175.657 261.089C175.867 260.846 175.972 260.557 175.972 260.221C175.972 260.039 175.939 259.878 175.874 259.738C175.813 259.598 175.727 259.477 175.615 259.374C175.508 259.267 175.375 259.176 175.216 259.101C175.062 259.022 174.892 258.954 174.705 258.898L172.122 258.135C171.87 258.06 171.613 257.965 171.352 257.848C171.091 257.727 170.85 257.57 170.631 257.379C170.416 257.183 170.241 256.943 170.106 256.658C169.971 256.369 169.903 256.019 169.903 255.608C169.903 254.987 170.062 254.462 170.379 254.033C170.701 253.599 171.135 253.272 171.681 253.053C172.227 252.829 172.838 252.717 173.515 252.717C174.196 252.726 174.805 252.848 175.342 253.081C175.883 253.314 176.331 253.65 176.686 254.089C177.045 254.523 177.293 255.05 177.428 255.671L175.86 255.937C175.79 255.559 175.641 255.235 175.412 254.964C175.183 254.689 174.903 254.479 174.572 254.334C174.241 254.185 173.881 254.108 173.494 254.103C173.121 254.094 172.778 254.15 172.465 254.271C172.157 254.392 171.91 254.563 171.723 254.782C171.541 255.001 171.45 255.253 171.45 255.538C171.45 255.818 171.532 256.044 171.695 256.217C171.858 256.39 172.059 256.527 172.297 256.63C172.54 256.728 172.78 256.81 173.018 256.875L174.88 257.4C175.113 257.465 175.377 257.554 175.671 257.666C175.97 257.773 176.257 257.925 176.532 258.121C176.812 258.317 177.043 258.578 177.225 258.905C177.407 259.227 177.498 259.633 177.498 260.123C177.498 260.632 177.395 261.08 177.19 261.467C176.985 261.85 176.702 262.172 176.343 262.433C175.988 262.69 175.578 262.883 175.111 263.014C174.644 263.145 174.152 263.21 173.634 263.21ZM181.839 263.203C181.316 263.203 180.877 263.119 180.523 262.951C180.168 262.783 179.879 262.564 179.655 262.293C179.435 262.018 179.267 261.719 179.151 261.397C179.034 261.075 178.955 260.76 178.913 260.452C178.871 260.144 178.85 259.873 178.85 259.64V255.44H180.334V259.157C180.334 259.451 180.357 259.754 180.404 260.067C180.455 260.375 180.548 260.662 180.684 260.928C180.824 261.194 181.017 261.409 181.265 261.572C181.517 261.735 181.843 261.817 182.245 261.817C182.506 261.817 182.753 261.775 182.987 261.691C183.22 261.602 183.423 261.462 183.596 261.271C183.773 261.08 183.911 260.828 184.009 260.515C184.111 260.202 184.163 259.822 184.163 259.374L185.073 259.717C185.073 260.403 184.944 261.01 184.688 261.537C184.431 262.06 184.062 262.468 183.582 262.762C183.101 263.056 182.52 263.203 181.839 263.203ZM184.338 263V260.816H184.163V255.44H185.64V263H184.338ZM191.152 263.21C190.429 263.21 189.822 263.035 189.332 262.685C188.842 262.33 188.471 261.852 188.219 261.25C187.967 260.648 187.841 259.969 187.841 259.213C187.841 258.457 187.965 257.778 188.212 257.176C188.464 256.574 188.833 256.1 189.318 255.755C189.808 255.405 190.41 255.23 191.124 255.23C191.833 255.23 192.445 255.405 192.958 255.755C193.476 256.1 193.875 256.574 194.155 257.176C194.435 257.773 194.575 258.452 194.575 259.213C194.575 259.969 194.435 260.65 194.155 261.257C193.88 261.859 193.485 262.335 192.972 262.685C192.463 263.035 191.857 263.21 191.152 263.21ZM187.596 263V252.92H189.066V257.561H188.898V263H187.596ZM190.949 261.887C191.416 261.887 191.801 261.768 192.104 261.53C192.412 261.292 192.641 260.972 192.79 260.571C192.944 260.165 193.021 259.712 193.021 259.213C193.021 258.718 192.944 258.27 192.79 257.869C192.641 257.468 192.41 257.148 192.097 256.91C191.784 256.672 191.385 256.553 190.9 256.553C190.443 256.553 190.065 256.665 189.766 256.889C189.472 257.113 189.253 257.426 189.108 257.827C188.968 258.228 188.898 258.69 188.898 259.213C188.898 259.736 188.968 260.198 189.108 260.599C189.248 261 189.47 261.315 189.773 261.544C190.076 261.773 190.468 261.887 190.949 261.887ZM205.179 263L205.186 258.289C205.186 257.743 205.046 257.318 204.766 257.015C204.486 256.707 204.117 256.553 203.66 256.553C203.38 256.553 203.123 256.618 202.89 256.749C202.661 256.875 202.474 257.066 202.33 257.323C202.19 257.575 202.12 257.892 202.12 258.275L201.413 257.918C201.403 257.386 201.515 256.919 201.749 256.518C201.987 256.117 202.309 255.806 202.715 255.587C203.121 255.363 203.576 255.251 204.08 255.251C204.896 255.251 205.529 255.496 205.977 255.986C206.425 256.476 206.649 257.127 206.649 257.939L206.642 263H205.179ZM196.114 263V255.44H197.416V257.624H197.584V263H196.114ZM200.65 263L200.657 258.317C200.657 257.766 200.517 257.335 200.237 257.022C199.961 256.709 199.59 256.553 199.124 256.553C198.662 256.553 198.288 256.712 198.004 257.029C197.724 257.346 197.584 257.762 197.584 258.275L196.884 257.827C196.884 257.332 197.003 256.891 197.241 256.504C197.479 256.117 197.801 255.811 198.207 255.587C198.613 255.363 199.072 255.251 199.586 255.251C200.122 255.251 200.58 255.365 200.958 255.594C201.336 255.818 201.623 256.133 201.819 256.539C202.019 256.945 202.12 257.416 202.12 257.953L202.113 263H200.65ZM208.606 254.201V252.78H210.069V254.201H208.606ZM208.606 263V255.44H210.069V263H208.606ZM216.497 263C216.021 263.093 215.555 263.133 215.097 263.119C214.64 263.105 214.232 263.016 213.872 262.853C213.513 262.69 213.242 262.433 213.06 262.083C212.897 261.77 212.808 261.453 212.794 261.131C212.785 260.804 212.78 260.436 212.78 260.025V253.34H214.25V259.955C214.25 260.258 214.253 260.522 214.257 260.746C214.267 260.97 214.316 261.159 214.404 261.313C214.572 261.602 214.838 261.768 215.202 261.81C215.571 261.847 216.003 261.831 216.497 261.761V263ZM211.331 256.616V255.44H216.497V256.616H211.331Z" fill="white" fill-opacity="0.87"/>
<g filter="url(#filter0_d_289_828)">
<path d="M316.995 266.703C316.127 265.183 317.414 263.342 319.089 263.708L344.77 269.317C346.461 269.686 346.926 271.946 345.52 272.961L336.772 279.272C336.391 279.547 336.119 279.952 336.004 280.415L333.789 289.305C333.353 291.053 331.071 291.366 330.177 289.8L316.995 266.703Z" fill="#333333"/>
<path d="M317.845 266.196C317.411 265.436 318.055 264.516 318.892 264.699L344.573 270.308C345.418 270.493 345.651 271.623 344.948 272.13L336.2 278.442C335.629 278.853 335.221 279.461 335.048 280.156L332.833 289.046C332.615 289.92 331.474 290.076 331.027 289.293L317.845 266.196Z" stroke="white" stroke-width="2"/>
</g>
<defs>
<filter id="filter0_d_289_828" x="312.716" y="261.661" width="37.6338" height="35.1528" filterUnits="userSpaceOnUse" color-interpolation-filters="sRGB">
<feFlood flood-opacity="0" result="BackgroundImageFix"/>
<feColorMatrix in="SourceAlpha" type="matrix" values="0 0 0 0 0 0 0 0 0 0 0 0 0 0 0 0 0 0 127 0" result="hardAlpha"/>
<feOffset dy="2"/>
<feGaussianBlur stdDeviation="2"/>
<feColorMatrix type="matrix" values="0 0 0 0 0 0 0 0 0 0 0 0 0 0 0 0 0 0 0.28 0"/>
<feBlend mode="normal" in2="BackgroundImageFix" result="effect1_dropShadow_289_828"/>
<feBlend mode="normal" in="SourceGraphic" in2="effect1_dropShadow_289_828" result="shape"/>
</filter>
</defs>
</svg>
