<svg width="65" height="65" viewBox="0 0 65 65" fill="none" xmlns="http://www.w3.org/2000/svg">
<path d="M46.2476 41.0717C47.5191 40.2013 49.0104 39.7095 50.549 39.6533C52.0876 39.5971 53.6107 39.9787 54.942 40.754C56.2733 41.5293 57.3584 42.6666 58.0718 44.0344C58.7852 45.4021 59.0978 46.9443 58.9733 48.4827C55.7122 49.6252 52.2483 50.0698 48.8052 49.7878C48.7947 46.6998 47.9076 43.6758 46.2476 41.0744C44.7742 38.7579 42.7417 36.8513 40.3382 35.5312C37.9347 34.211 35.2379 33.5199 32.4972 33.5217C29.757 33.5203 27.0607 34.2117 24.6577 35.5318C22.2548 36.852 20.2227 38.7583 18.7495 41.0744M48.8025 49.7851L48.8052 49.8695C48.8052 50.4826 48.7726 51.0874 48.7047 51.6841C43.7725 54.5208 38.1835 56.0091 32.4972 56C26.5991 56 21.0626 54.4306 16.2897 51.6841C16.2199 51.0536 16.1863 50.4195 16.1892 49.7851M16.1892 49.7851C12.7472 50.0773 9.28518 49.6344 6.02654 48.4854C5.90247 46.9475 6.21515 45.4058 6.92845 44.0385C7.64175 42.6713 8.72652 41.5343 10.0573 40.7591C11.3882 39.9839 12.9107 39.6022 14.4489 39.658C15.9871 39.7137 17.4781 40.2048 18.7495 41.0744M16.1892 49.7851C16.1989 46.6973 17.0905 43.6761 18.7495 41.0744M40.6512 17.1739C40.6512 19.3418 39.7921 21.4208 38.263 22.9537C36.7338 24.4866 34.6598 25.3478 32.4972 25.3478C30.3346 25.3478 28.2606 24.4866 26.7314 22.9537C25.2023 21.4208 24.3432 19.3418 24.3432 17.1739C24.3432 15.0061 25.2023 12.927 26.7314 11.3941C28.2606 9.86118 30.3346 9 32.4972 9C34.6598 9 36.7338 9.86118 38.263 11.3941C39.7921 12.927 40.6512 15.0061 40.6512 17.1739ZM56.9593 25.3478C56.9593 26.1529 56.8011 26.95 56.4937 27.6938C56.1864 28.4376 55.7359 29.1134 55.1681 29.6827C54.6002 30.2519 53.926 30.7035 53.1841 31.0116C52.4421 31.3197 51.6468 31.4782 50.8437 31.4782C50.0406 31.4782 49.2454 31.3197 48.5034 31.0116C47.7615 30.7035 47.0873 30.2519 46.5194 29.6827C45.9515 29.1134 45.5011 28.4376 45.1937 27.6938C44.8864 26.95 44.7282 26.1529 44.7282 25.3478C44.7282 23.7219 45.3725 22.1626 46.5194 21.0129C47.6663 19.8633 49.2218 19.2174 50.8437 19.2174C52.4657 19.2174 54.0212 19.8633 55.1681 21.0129C56.3149 22.1626 56.9593 23.7219 56.9593 25.3478ZM20.2662 25.3478C20.2662 26.1529 20.108 26.95 19.8007 27.6938C19.4933 28.4376 19.0429 29.1134 18.475 29.6827C17.9071 30.2519 17.2329 30.7035 16.491 31.0116C15.749 31.3197 14.9538 31.4782 14.1507 31.4782C13.3476 31.4782 12.5523 31.3197 11.8104 31.0116C11.0684 30.7035 10.3942 30.2519 9.82634 29.6827C9.25846 29.1134 8.808 28.4376 8.50066 27.6938C8.19333 26.95 8.03515 26.1529 8.03515 25.3478C8.03515 23.7219 8.67946 22.1626 9.82634 21.0129C10.9732 19.8633 12.5287 19.2174 14.1507 19.2174C15.7726 19.2174 17.3281 19.8633 18.475 21.0129C19.6219 22.1626 20.2662 23.7219 20.2662 25.3478Z" stroke="black" stroke-width="3" stroke-linecap="round" stroke-linejoin="round"/>
<path fill-rule="evenodd" clip-rule="evenodd" d="M57 65C61.4183 65 65 61.4183 65 57C65 52.5817 61.4183 49 57 49C52.5817 49 49 52.5817 49 57C49 61.4183 52.5817 65 57 65ZM58.2988 54.6508H54.7788C54.8044 53.9719 55.3516 53.3913 56.0933 53.3322C56.2034 53.3238 56.3146 53.3159 56.4257 53.3089C56.5507 53.0818 56.7394 52.8915 56.9713 52.7586C57.2032 52.6258 57.4694 52.5555 57.7407 52.5556H58.4815C58.7528 52.5555 59.019 52.6258 59.2509 52.7586C59.4828 52.8915 59.6715 53.0818 59.7965 53.3089C59.9074 53.316 60.0182 53.3237 60.1289 53.3322C60.8889 53.3923 61.4444 54.0003 61.4444 54.7011V59.1905C61.4444 59.5609 61.2883 59.9162 61.0105 60.1782C60.7327 60.4401 60.3559 60.5873 59.9629 60.5873V56.2222C59.963 55.8059 59.7877 55.4065 59.4757 55.1119C59.1636 54.8172 58.7404 54.6514 58.2988 54.6508ZM57.2169 53.4585C57.3559 53.3276 57.5443 53.254 57.7407 53.254H58.4815C58.6779 53.254 58.8663 53.3276 59.0053 53.4585C59.1442 53.5895 59.2222 53.7672 59.2222 53.9524H57C57 53.7672 57.078 53.5895 57.2169 53.4585ZM53.4815 55.3492C52.9704 55.3492 52.5555 55.7399 52.5555 56.2222V61.4603C52.5555 61.6919 52.6531 61.9139 52.8267 62.0776C53.0004 62.2414 53.2359 62.3333 53.4815 62.3333H58.2963C58.8074 62.3333 59.2222 61.9422 59.2222 61.4603V56.2222C59.2222 55.7403 58.8079 55.3492 58.2963 55.3492H53.4815ZM54.1455 57.1975C54.076 57.263 54.037 57.3518 54.037 57.4444V57.4482C54.037 57.5408 54.076 57.6296 54.1455 57.6951C54.215 57.7606 54.3092 57.7974 54.4074 57.7974H54.4113C54.5096 57.7974 54.6038 57.7606 54.6732 57.6951C54.7427 57.6296 54.7817 57.5408 54.7817 57.4482V57.4444C54.7817 57.3518 54.7427 57.263 54.6732 57.1975C54.6038 57.132 54.5096 57.0952 54.4113 57.0952H54.4074C54.3092 57.0952 54.215 57.132 54.1455 57.1975ZM55.2566 57.1975C55.1872 57.263 55.1481 57.3518 55.1481 57.4444C55.1481 57.5371 55.1872 57.6259 55.2566 57.6914C55.3261 57.7569 55.4203 57.7937 55.5185 57.7937H57.3704C57.4686 57.7937 57.5628 57.7569 57.6322 57.6914C57.7017 57.6259 57.7407 57.5371 57.7407 57.4444C57.7407 57.3518 57.7017 57.263 57.6322 57.1975C57.5628 57.132 57.4686 57.0952 57.3704 57.0952H55.5185C55.4203 57.0952 55.3261 57.132 55.2566 57.1975ZM54.1455 58.5943C54.076 58.6598 54.037 58.7487 54.037 58.8413V58.845C54.037 58.9376 54.076 59.0264 54.1455 59.0919C54.215 59.1574 54.3092 59.1942 54.4074 59.1942H54.4113C54.5096 59.1942 54.6038 59.1574 54.6732 59.0919C54.7427 59.0264 54.7817 58.9376 54.7817 58.845V58.8413C54.7817 58.7487 54.7427 58.6598 54.6732 58.5943C54.6038 58.5289 54.5096 58.4921 54.4113 58.4921H54.4074C54.3092 58.4921 54.215 58.5289 54.1455 58.5943ZM55.2566 58.5943C55.1872 58.6598 55.1481 58.7487 55.1481 58.8413C55.1481 58.9339 55.1872 59.0227 55.2566 59.0882C55.3261 59.1537 55.4203 59.1905 55.5185 59.1905H57.3704C57.4686 59.1905 57.5628 59.1537 57.6322 59.0882C57.7017 59.0227 57.7407 58.9339 57.7407 58.8413C57.7407 58.7487 57.7017 58.6598 57.6322 58.5943C57.5628 58.5289 57.4686 58.4921 57.3704 58.4921H55.5185C55.4203 58.4921 55.3261 58.5289 55.2566 58.5943ZM54.1455 59.9912C54.076 60.0567 54.037 60.1455 54.037 60.2381V60.2418C54.037 60.3344 54.076 60.4233 54.1455 60.4887C54.215 60.5542 54.3092 60.591 54.4074 60.591H54.4113C54.5096 60.591 54.6038 60.5542 54.6732 60.4887C54.7427 60.4233 54.7817 60.3344 54.7817 60.2418V60.2381C54.7817 60.1455 54.7427 60.0567 54.6732 59.9912C54.6038 59.9257 54.5096 59.8889 54.4113 59.8889H54.4074C54.3092 59.8889 54.215 59.9257 54.1455 59.9912ZM55.2566 59.9912C55.1872 60.0567 55.1481 60.1455 55.1481 60.2381C55.1481 60.3307 55.1872 60.4195 55.2566 60.485C55.3261 60.5505 55.4203 60.5873 55.5185 60.5873H57.3704C57.4686 60.5873 57.5628 60.5505 57.6322 60.485C57.7017 60.4195 57.7407 60.3307 57.7407 60.2381C57.7407 60.1455 57.7017 60.0567 57.6322 59.9912C57.5628 59.9257 57.4686 59.8889 57.3704 59.8889H55.5185C55.4203 59.8889 55.3261 59.9257 55.2566 59.9912Z" fill="#4805FF"/>
</svg>
