<svg width="65" height="65" viewBox="0 0 65 65" fill="none" xmlns="http://www.w3.org/2000/svg">
<path d="M46.2476 41.0717C47.5191 40.2013 49.0104 39.7095 50.549 39.6533C52.0876 39.5971 53.6107 39.9787 54.942 40.754C56.2733 41.5293 57.3584 42.6666 58.0718 44.0344C58.7852 45.4021 59.0978 46.9443 58.9733 48.4827C55.7122 49.6252 52.2483 50.0698 48.8052 49.7878C48.7947 46.6998 47.9076 43.6758 46.2476 41.0744C44.7742 38.7579 42.7417 36.8513 40.3382 35.5312C37.9347 34.211 35.2379 33.5199 32.4972 33.5217C29.757 33.5203 27.0607 34.2117 24.6577 35.5318C22.2548 36.852 20.2227 38.7583 18.7495 41.0744M48.8025 49.7851L48.8052 49.8695C48.8052 50.4826 48.7726 51.0874 48.7047 51.6841C43.7725 54.5208 38.1835 56.0091 32.4972 56C26.5991 56 21.0626 54.4306 16.2897 51.6841C16.2199 51.0536 16.1863 50.4195 16.1892 49.7851M16.1892 49.7851C12.7472 50.0773 9.28518 49.6344 6.02654 48.4854C5.90247 46.9475 6.21515 45.4058 6.92845 44.0385C7.64175 42.6713 8.72652 41.5343 10.0573 40.7591C11.3882 39.9839 12.9107 39.6022 14.4489 39.658C15.9871 39.7137 17.4781 40.2048 18.7495 41.0744M16.1892 49.7851C16.1989 46.6973 17.0905 43.6761 18.7495 41.0744M40.6512 17.1739C40.6512 19.3418 39.7921 21.4208 38.263 22.9537C36.7338 24.4866 34.6598 25.3478 32.4972 25.3478C30.3346 25.3478 28.2606 24.4866 26.7314 22.9537C25.2023 21.4208 24.3432 19.3418 24.3432 17.1739C24.3432 15.0061 25.2023 12.927 26.7314 11.3941C28.2606 9.86118 30.3346 9 32.4972 9C34.6598 9 36.7338 9.86118 38.263 11.3941C39.7921 12.927 40.6512 15.0061 40.6512 17.1739ZM56.9593 25.3478C56.9593 26.1529 56.8011 26.95 56.4937 27.6938C56.1864 28.4376 55.7359 29.1134 55.1681 29.6827C54.6002 30.2519 53.926 30.7035 53.1841 31.0116C52.4421 31.3197 51.6468 31.4782 50.8437 31.4782C50.0406 31.4782 49.2454 31.3197 48.5034 31.0116C47.7615 30.7035 47.0873 30.2519 46.5194 29.6827C45.9515 29.1134 45.5011 28.4376 45.1937 27.6938C44.8864 26.95 44.7282 26.1529 44.7282 25.3478C44.7282 23.7219 45.3725 22.1626 46.5194 21.0129C47.6663 19.8633 49.2218 19.2174 50.8437 19.2174C52.4657 19.2174 54.0212 19.8633 55.1681 21.0129C56.3149 22.1626 56.9593 23.7219 56.9593 25.3478ZM20.2662 25.3478C20.2662 26.1529 20.108 26.95 19.8007 27.6938C19.4933 28.4376 19.0429 29.1134 18.475 29.6827C17.9071 30.2519 17.2329 30.7035 16.491 31.0116C15.749 31.3197 14.9538 31.4782 14.1507 31.4782C13.3476 31.4782 12.5523 31.3197 11.8104 31.0116C11.0684 30.7035 10.3942 30.2519 9.82634 29.6827C9.25846 29.1134 8.808 28.4376 8.50066 27.6938C8.19333 26.95 8.03515 26.1529 8.03515 25.3478C8.03515 23.7219 8.67946 22.1626 9.82634 21.0129C10.9732 19.8633 12.5287 19.2174 14.1507 19.2174C15.7726 19.2174 17.3281 19.8633 18.475 21.0129C19.6219 22.1626 20.2662 23.7219 20.2662 25.3478Z" stroke="black" stroke-width="3" stroke-linecap="round" stroke-linejoin="round"/>
<path fill-rule="evenodd" clip-rule="evenodd" d="M57 65C61.4183 65 65 61.4183 65 57C65 52.5817 61.4183 49 57 49C52.5817 49 49 52.5817 49 57C49 61.4183 52.5817 65 57 65ZM56.2635 53.8561C56.7466 53.7147 57.2538 53.7146 57.7369 53.856C58.2205 53.9976 58.6695 54.278 59.0353 54.6776L59.0354 54.6778L59.2976 54.9644H58.7852C58.371 54.9644 58.0352 55.3002 58.0352 55.7144C58.0352 56.1286 58.371 56.4644 58.7852 56.4644H61C61.4143 56.4644 61.75 56.1286 61.75 55.7144V53.2944C61.75 52.8802 61.4143 52.5444 61 52.5444C60.5858 52.5444 60.25 52.8802 60.25 53.2944V53.7832L60.1421 53.6652L60.142 53.665C59.599 53.0718 58.916 52.6382 58.1583 52.4164C57.4 52.1945 56.6002 52.1945 55.8419 52.4166C55.0842 52.6385 54.4013 53.0722 53.8584 53.6655C53.3159 54.2585 52.9311 54.9909 52.7361 55.7865C52.6375 56.1888 52.8838 56.5949 53.2861 56.6935C53.6884 56.7921 54.0944 56.5458 54.193 56.1435C54.3304 55.5828 54.599 55.0782 54.9651 54.6781C55.3308 54.2784 55.7798 53.9978 56.2635 53.8561ZM61.264 58.2135C61.3625 57.8112 61.1163 57.4051 60.714 57.3065C60.3117 57.2079 59.9056 57.4542 59.8071 57.8565C59.6697 58.4172 59.4011 58.9218 59.035 59.3219C58.6693 59.7216 58.2203 60.0022 57.7366 60.1439C57.2535 60.2853 56.7463 60.2854 56.2632 60.144C55.7796 60.0024 55.3306 59.722 54.9649 59.3225L54.9647 59.3222L54.7025 59.0356H55.2153C55.6296 59.0356 55.9653 58.6998 55.9653 58.2856C55.9653 57.8714 55.6296 57.5356 55.2153 57.5356H53.0005C52.5863 57.5356 52.2505 57.8714 52.2505 58.2856V60.7056C52.2505 61.1198 52.5863 61.4556 53.0005 61.4556C53.4147 61.4556 53.7505 61.1198 53.7505 60.7056V60.2172L53.8579 60.3347L53.8581 60.335C54.4011 60.9282 55.084 61.3618 55.8418 61.5836C56.6001 61.8055 57.3999 61.8055 58.1582 61.5834C58.9159 61.3615 59.5988 60.9278 60.1417 60.3345C60.6842 59.7415 61.069 59.0091 61.264 58.2135Z" fill="#4805FF"/>
</svg>
