<svg width="358" height="133" viewBox="0 0 358 133" fill="none" xmlns="http://www.w3.org/2000/svg">
<path d="M130.178 31.768C131.474 31.096 132.266 29.944 132.266 28.36C132.266 25.672 130.01 23.68 127.034 23.68H120.026V40H127.322C130.298 40 132.53 37.984 132.53 35.296C132.53 33.592 131.618 32.416 130.178 31.768ZM127.034 26.08C128.738 26.08 129.746 27.04 129.746 28.36C129.746 29.656 128.714 30.6399 127.034 30.6399H122.546V26.08H127.034ZM127.322 37.5999H122.546V33.04H127.322C129.002 33.04 130.01 33.976 130.01 35.296C130.01 36.616 129.002 37.5999 127.322 37.5999ZM140.55 27.736C138.75 27.736 136.878 28.744 135.846 30.256L137.79 31.624C138.366 30.64 139.542 29.92 140.742 29.92C142.206 29.92 142.926 30.952 143.118 32.08L139.374 32.7999C137.262 33.2079 135.414 34.312 135.414 36.616C135.414 38.92 137.238 40.24 139.35 40.24C141.03 40.24 142.446 39.4 143.166 38.344V40H145.566V32.68C145.566 29.704 143.55 27.736 140.55 27.736ZM139.926 38.032C138.702 38.032 137.814 37.408 137.814 36.52C137.814 35.584 138.798 35.08 139.83 34.84L143.166 34.1679V35.032C143.166 36.88 141.63 38.032 139.926 38.032ZM158.123 36.208C157.379 37.312 156.155 37.9599 154.883 37.9599C152.771 37.9599 151.235 36.208 151.235 33.976C151.235 31.744 152.771 29.992 154.883 29.992C156.155 29.992 157.379 30.6399 158.123 31.7439L160.139 30.568C158.987 28.84 157.043 27.712 154.859 27.712C151.379 27.712 148.835 30.496 148.835 33.976C148.835 37.456 151.379 40.24 154.859 40.24C157.043 40.24 158.987 39.1119 160.139 37.3839L158.123 36.208ZM174.088 28H170.92L165.688 33.448V23.2H163.288V40H165.688V36.448L167.608 34.504L171.28 40H174.088L169.36 32.7519L174.088 28ZM186.545 32.9679C186.137 29.2959 183.617 27.76 181.049 27.76C177.569 27.76 175.265 30.544 175.265 34C175.265 37.456 177.569 40.24 181.049 40.24C183.233 40.24 185.297 39.1119 186.329 37.3839L184.313 36.208C183.737 37.24 182.465 37.9599 181.025 37.9599C179.249 37.9599 178.097 36.904 177.785 35.104H186.545C186.617 34.336 186.617 33.6159 186.545 32.9679ZM180.977 30.04C182.465 30.04 184.073 30.88 184.145 32.944H177.761C178.073 31.144 179.153 30.04 180.977 30.04ZM198.459 23.2V29.728C197.787 28.6 196.515 27.76 194.787 27.76C191.715 27.76 189.387 30.352 189.363 34C189.339 37.72 191.715 40.24 194.763 40.24C196.587 40.24 197.835 39.3279 198.459 38.1279V40H200.859V23.2H198.459ZM195.171 37.9599C193.083 37.9599 191.763 36.256 191.763 34C191.763 31.744 193.083 30.04 195.171 30.04C197.259 30.04 198.579 31.744 198.579 34C198.579 36.256 197.259 37.9599 195.171 37.9599ZM224.47 34C224.446 30.352 222.118 27.76 219.046 27.76C217.318 27.76 216.046 28.6 215.374 29.728V23.2H212.974V40H215.374V38.1279C215.998 39.3279 217.246 40.24 219.07 40.24C222.118 40.24 224.494 37.72 224.47 34ZM218.662 37.9599C216.574 37.9599 215.254 36.256 215.254 34C215.254 31.744 216.574 30.04 218.662 30.04C220.75 30.04 222.07 31.744 222.07 34C222.07 36.256 220.75 37.9599 218.662 37.9599ZM236.419 28L232.915 36.424L229.171 28H226.531L231.643 39.448L229.411 44.7999H231.955L238.891 28H236.419Z" fill="white"/>
<mask id="mask0_1307_787" style="mask-type:luminance" maskUnits="userSpaceOnUse" x="29" y="49" width="301" height="60">
<path d="M329.75 49H29V109H329.75V49Z" fill="white"/>
</mask>
<g mask="url(#mask0_1307_787)">
<path fill-rule="evenodd" clip-rule="evenodd" d="M29 109H89V49H29V109Z" fill="#F05F22"/>
<path fill-rule="evenodd" clip-rule="evenodd" d="M61.4373 81.9812V95.3125H56.3748V81.9812L43.4561 62.6875H49.6248L58.9249 76.9375L68.1873 62.6875H74.3561L61.4373 81.9812Z" fill="white"/>
<path fill-rule="evenodd" clip-rule="evenodd" d="M124.185 69.122C118.635 69.122 114.473 73.4158 114.473 78.9658C114.473 84.5158 118.635 88.847 124.185 88.847C127.748 88.847 130.841 87.0095 132.51 83.9158L137.273 86.747C134.61 91.3033 129.623 94.2658 124.185 94.2658C115.635 94.247 108.848 87.4595 108.848 78.9658C108.848 70.4533 115.635 63.6658 124.185 63.6658C129.679 63.6658 134.61 66.5908 137.273 71.1845L132.51 74.0158C130.823 70.922 127.748 69.122 124.185 69.122Z" fill="white"/>
<path fill-rule="evenodd" clip-rule="evenodd" d="M155.573 82.8283C155.573 79.3595 153.041 76.7345 149.779 76.7345C146.423 76.7345 143.891 79.3595 143.891 82.8283C143.891 86.297 146.423 88.922 149.779 88.922C152.985 88.922 155.573 86.297 155.573 82.8283ZM138.435 82.8283C138.435 76.5658 143.46 71.5408 149.779 71.5408C156.004 71.5408 161.029 76.5658 161.029 82.8283C161.029 89.0908 156.004 94.1158 149.779 94.1158C143.46 94.1158 138.435 89.0908 138.435 82.8283Z" fill="white"/>
<path fill-rule="evenodd" clip-rule="evenodd" d="M196.429 81.0283V93.6283H190.991V81.9845C190.991 78.722 189.398 76.6595 186.998 76.6595C184.541 76.6595 182.741 78.722 182.741 81.9845V93.6283H177.491V81.9845C177.491 78.722 175.841 76.6595 173.423 76.6595C171.004 76.6595 169.241 78.722 169.241 81.9845V93.6283H163.804V72.0658H169.241V74.822C170.573 72.7595 172.635 71.4658 175.166 71.4658C177.923 71.4658 180.098 73.022 181.429 75.4408C182.798 73.2845 185.329 71.4658 188.516 71.4658C193.298 71.4658 196.429 75.6845 196.429 81.0283Z" fill="white"/>
<path fill-rule="evenodd" clip-rule="evenodd" d="M215.76 83.0532C215.76 79.4532 213.529 76.8657 210.398 76.8657C207.341 76.8657 205.035 79.3219 205.035 82.9969C205.035 86.6532 207.398 89.1282 210.491 89.1282C213.529 89.1094 215.76 86.5782 215.76 83.0532ZM211.541 94.1907C208.541 94.1907 206.329 92.8219 205.054 90.9282V93.6282H199.616V63.6282H205.054V74.6907C206.366 72.9282 208.579 71.6532 211.448 71.6532C217.016 71.6532 221.273 76.4532 221.366 82.9219C221.46 89.4657 217.11 94.1907 211.541 94.1907Z" fill="white"/>
<path fill-rule="evenodd" clip-rule="evenodd" d="M223.616 93.6283H229.054V72.0658H223.616V93.6283ZM222.923 65.9533C222.923 64.1158 224.46 62.7283 226.316 62.7283C228.116 62.7283 229.616 64.097 229.616 65.9533C229.616 67.7908 228.116 69.1783 226.316 69.1783C224.479 69.1595 222.923 67.7908 222.923 65.9533Z" fill="white"/>
<path fill-rule="evenodd" clip-rule="evenodd" d="M252.491 81.122V93.6283H247.241V82.2845C247.241 78.8158 245.423 76.6595 242.798 76.6595C239.91 76.6595 237.866 79.2845 237.866 82.3783V93.6283H232.616V72.0658H237.866V74.7845C239.329 72.7595 241.673 71.4658 244.41 71.4658C249.248 71.4658 252.491 75.5908 252.491 81.122Z" fill="white"/>
<path fill-rule="evenodd" clip-rule="evenodd" d="M268.991 84.0656V83.5968L263.498 84.6656C261.66 85.0968 260.535 86.0343 260.535 87.2906C260.535 88.6218 261.754 89.6156 263.76 89.5593C266.648 89.4656 268.991 86.9531 268.991 84.0656ZM274.241 80.6156V93.6281H268.991V91.1343C267.398 92.8593 264.904 94.1343 262.148 94.1906C258.491 94.1906 255.266 91.7906 255.266 87.6656C255.266 83.7656 258.191 81.5343 262.541 80.6718L268.86 79.4718C268.429 77.6718 267.06 76.3031 264.979 76.3031C262.916 76.3031 260.985 77.5968 259.823 79.2281L255.866 76.3593C257.891 73.5281 261.454 71.6343 264.998 71.6343C270.285 71.5968 274.241 75.2531 274.241 80.6156Z" fill="white"/>
<path fill-rule="evenodd" clip-rule="evenodd" d="M285.304 76.9406V85.9781C285.304 87.7406 286.073 88.5468 287.666 88.5468H290.366V93.6093H286.916C282.323 93.6093 280.054 91.3593 280.054 86.6343V76.9406H276.116V72.0656H279.866V66.7406L285.304 65.0718V72.0656H290.366V76.9406H285.304Z" fill="white"/>
<path fill-rule="evenodd" clip-rule="evenodd" d="M309.285 82.8283C309.285 79.3595 306.754 76.7345 303.491 76.7345C300.135 76.7345 297.604 79.3595 297.604 82.8283C297.604 86.297 300.135 88.922 303.491 88.922C306.698 88.922 309.285 86.297 309.285 82.8283ZM292.148 82.8283C292.148 76.5658 297.173 71.5408 303.491 71.5408C309.716 71.5408 314.741 76.5658 314.741 82.8283C314.741 89.0908 309.716 94.1158 303.491 94.1158C297.173 94.1158 292.148 89.0908 292.148 82.8283Z" fill="white"/>
<path fill-rule="evenodd" clip-rule="evenodd" d="M329.741 71.5969V76.8282C324.885 76.8282 322.804 79.1907 322.804 82.2844V93.6282H317.554V72.0657H322.804V74.7657C324.285 72.8344 326.666 71.5969 329.741 71.5969Z" fill="white"/>
</g>
</svg>
