<svg width="358" height="133" viewBox="0 0 358 133" fill="none" xmlns="http://www.w3.org/2000/svg">
<path d="M130.178 31.768C131.474 31.096 132.266 29.944 132.266 28.36C132.266 25.672 130.01 23.68 127.034 23.68H120.026V40H127.322C130.298 40 132.53 37.984 132.53 35.296C132.53 33.592 131.618 32.416 130.178 31.768ZM127.034 26.08C128.738 26.08 129.746 27.04 129.746 28.36C129.746 29.656 128.714 30.6399 127.034 30.6399H122.546V26.08H127.034ZM127.322 37.5999H122.546V33.04H127.322C129.002 33.04 130.01 33.976 130.01 35.296C130.01 36.616 129.002 37.5999 127.322 37.5999ZM140.55 27.736C138.75 27.736 136.878 28.744 135.846 30.256L137.79 31.624C138.366 30.64 139.542 29.92 140.742 29.92C142.206 29.92 142.926 30.952 143.118 32.08L139.374 32.7999C137.262 33.2079 135.414 34.312 135.414 36.616C135.414 38.92 137.238 40.24 139.35 40.24C141.03 40.24 142.446 39.4 143.166 38.344V40H145.566V32.68C145.566 29.704 143.55 27.736 140.55 27.736ZM139.926 38.032C138.702 38.032 137.814 37.408 137.814 36.52C137.814 35.584 138.798 35.08 139.83 34.84L143.166 34.1679V35.032C143.166 36.88 141.63 38.032 139.926 38.032ZM158.123 36.208C157.379 37.312 156.155 37.9599 154.883 37.9599C152.771 37.9599 151.235 36.208 151.235 33.976C151.235 31.744 152.771 29.992 154.883 29.992C156.155 29.992 157.379 30.6399 158.123 31.7439L160.139 30.568C158.987 28.84 157.043 27.712 154.859 27.712C151.379 27.712 148.835 30.496 148.835 33.976C148.835 37.456 151.379 40.24 154.859 40.24C157.043 40.24 158.987 39.1119 160.139 37.3839L158.123 36.208ZM174.088 28H170.92L165.688 33.448V23.2H163.288V40H165.688V36.448L167.608 34.504L171.28 40H174.088L169.36 32.7519L174.088 28ZM186.545 32.9679C186.137 29.2959 183.617 27.76 181.049 27.76C177.569 27.76 175.265 30.544 175.265 34C175.265 37.456 177.569 40.24 181.049 40.24C183.233 40.24 185.297 39.1119 186.329 37.3839L184.313 36.208C183.737 37.24 182.465 37.9599 181.025 37.9599C179.249 37.9599 178.097 36.904 177.785 35.104H186.545C186.617 34.336 186.617 33.6159 186.545 32.9679ZM180.977 30.04C182.465 30.04 184.073 30.88 184.145 32.944H177.761C178.073 31.144 179.153 30.04 180.977 30.04ZM198.459 23.2V29.728C197.787 28.6 196.515 27.76 194.787 27.76C191.715 27.76 189.387 30.352 189.363 34C189.339 37.72 191.715 40.24 194.763 40.24C196.587 40.24 197.835 39.3279 198.459 38.1279V40H200.859V23.2H198.459ZM195.171 37.9599C193.083 37.9599 191.763 36.256 191.763 34C191.763 31.744 193.083 30.04 195.171 30.04C197.259 30.04 198.579 31.744 198.579 34C198.579 36.256 197.259 37.9599 195.171 37.9599ZM224.47 34C224.446 30.352 222.118 27.76 219.046 27.76C217.318 27.76 216.046 28.6 215.374 29.728V23.2H212.974V40H215.374V38.1279C215.998 39.3279 217.246 40.24 219.07 40.24C222.118 40.24 224.494 37.72 224.47 34ZM218.662 37.9599C216.574 37.9599 215.254 36.256 215.254 34C215.254 31.744 216.574 30.04 218.662 30.04C220.75 30.04 222.07 31.744 222.07 34C222.07 36.256 220.75 37.9599 218.662 37.9599ZM236.419 28L232.915 36.424L229.171 28H226.531L231.643 39.448L229.411 44.7999H231.955L238.891 28H236.419Z" fill="#1B140E"/>
<path fill-rule="evenodd" clip-rule="evenodd" d="M35 109H92.2727V49H35V109Z" fill="#FB651E"/>
<path fill-rule="evenodd" clip-rule="evenodd" d="M65.9632 81.9812V95.3125H61.1308V81.9812L48.7993 62.6875H54.6876L63.5649 76.9375L72.4064 62.6875H78.2947L65.9632 81.9812Z" fill="#FCFCFC"/>
<path fill-rule="evenodd" clip-rule="evenodd" d="M125.859 69.1217C120.561 69.1217 116.588 73.4155 116.588 78.9655C116.588 84.5155 120.561 88.8467 125.859 88.8467C129.259 88.8467 132.212 87.0092 133.805 83.9155L138.351 86.7467C135.81 91.303 131.049 94.2655 125.859 94.2655C117.697 94.2467 111.218 87.4592 111.218 78.9655C111.218 70.453 117.697 63.6655 125.859 63.6655C131.103 63.6655 135.81 66.5905 138.351 71.1842L133.805 74.0155C132.194 70.9217 129.259 69.1217 125.859 69.1217Z" fill="#231F20"/>
<path fill-rule="evenodd" clip-rule="evenodd" d="M155.819 82.8283C155.819 79.3595 153.403 76.7345 150.289 76.7345C147.085 76.7345 144.669 79.3595 144.669 82.8283C144.669 86.297 147.085 88.922 150.289 88.922C153.349 88.922 155.819 86.297 155.819 82.8283ZM139.461 82.8283C139.461 76.5658 144.257 71.5408 150.289 71.5408C156.231 71.5408 161.028 76.5658 161.028 82.8283C161.028 89.0908 156.231 94.1158 150.289 94.1158C144.257 94.1158 139.461 89.0908 139.461 82.8283Z" fill="#231F20"/>
<path fill-rule="evenodd" clip-rule="evenodd" d="M194.819 81.0281V93.6281H189.628V81.9843C189.628 78.7218 188.107 76.6593 185.816 76.6593C183.471 76.6593 181.753 78.7218 181.753 81.9843V93.6281H176.742V81.9843C176.742 78.7218 175.167 76.6593 172.858 76.6593C170.549 76.6593 168.867 78.7218 168.867 81.9843V93.6281H163.677V72.0656H168.867V74.8218C170.138 72.7593 172.106 71.4656 174.523 71.4656C177.154 71.4656 179.23 73.0218 180.5 75.4406C181.807 73.2843 184.223 71.4656 187.266 71.4656C191.83 71.4656 194.819 75.6843 194.819 81.0281Z" fill="#231F20"/>
<path fill-rule="evenodd" clip-rule="evenodd" d="M213.271 83.0532C213.271 79.4532 211.141 76.8657 208.152 76.8657C205.235 76.8657 203.034 79.3219 203.034 82.9969C203.034 86.6532 205.289 89.1282 208.242 89.1282C211.141 89.1094 213.271 86.5782 213.271 83.0532ZM209.244 94.1907C206.381 94.1907 204.269 92.8219 203.052 90.9282V93.6282H197.861V63.6282H203.052V74.6907C204.304 72.9282 206.416 71.6532 209.155 71.6532C214.47 71.6532 218.533 76.4532 218.623 82.9219C218.712 89.4657 214.56 94.1907 209.244 94.1907Z" fill="#231F20"/>
<path fill-rule="evenodd" clip-rule="evenodd" d="M220.77 93.628H225.96V72.0655H220.77V93.628ZM220.108 65.953C220.108 64.1155 221.576 62.728 223.347 62.728C225.066 62.728 226.497 64.0967 226.497 65.953C226.497 67.7905 225.066 69.178 223.347 69.178C221.593 69.1592 220.108 67.7905 220.108 65.953Z" fill="#231F20"/>
<path fill-rule="evenodd" clip-rule="evenodd" d="M248.333 81.1218V93.6281H243.321V82.2843C243.321 78.8156 241.585 76.6593 239.08 76.6593C236.323 76.6593 234.373 79.2843 234.373 82.3781V93.6281H229.361V72.0656H234.373V74.7843C235.769 72.7593 238.006 71.4656 240.619 71.4656C245.236 71.4656 248.333 75.5906 248.333 81.1218Z" fill="#231F20"/>
<path fill-rule="evenodd" clip-rule="evenodd" d="M264.083 84.0656V83.5968L258.839 84.6656C257.085 85.0968 256.011 86.0343 256.011 87.2906C256.011 88.6218 257.174 89.6156 259.089 89.5593C261.845 89.4656 264.083 86.9531 264.083 84.0656ZM269.094 80.6156V93.6281H264.083V91.1343C262.561 92.8593 260.181 94.1343 257.55 94.1906C254.06 94.1906 250.982 91.7906 250.982 87.6656C250.982 83.7656 253.774 81.5343 257.926 80.6718L263.957 79.4718C263.546 77.6718 262.239 76.3031 260.253 76.3031C258.284 76.3031 256.44 77.5968 255.331 79.2281L251.554 76.3593C253.487 73.5281 256.888 71.6343 260.27 71.6343C265.318 71.5968 269.094 75.2531 269.094 80.6156Z" fill="#231F20"/>
<path fill-rule="evenodd" clip-rule="evenodd" d="M279.654 76.9406V85.9781C279.654 87.7406 280.388 88.5468 281.909 88.5468H284.486V93.6093H281.193C276.808 93.6093 274.642 91.3593 274.642 86.6343V76.9406H270.884V72.0656H274.463V66.7406L279.654 65.0718V72.0656H284.486V76.9406H279.654Z" fill="#231F20"/>
<path fill-rule="evenodd" clip-rule="evenodd" d="M302.545 82.8283C302.545 79.3595 300.129 76.7345 297.015 76.7345C293.811 76.7345 291.395 79.3595 291.395 82.8283C291.395 86.297 293.811 88.922 297.015 88.922C300.075 88.922 302.545 86.297 302.545 82.8283ZM286.186 82.8283C286.186 76.5658 290.983 71.5408 297.015 71.5408C302.957 71.5408 307.753 76.5658 307.753 82.8283C307.753 89.0908 302.957 94.1158 297.015 94.1158C290.983 94.1158 286.186 89.0908 286.186 82.8283Z" fill="#231F20"/>
<path fill-rule="evenodd" clip-rule="evenodd" d="M322.071 71.5969V76.8282C317.436 76.8282 315.449 79.1907 315.449 82.2844V93.6282H310.438V72.0657H315.449V74.7657C316.863 72.8344 319.136 71.5969 322.071 71.5969Z" fill="#231F20"/>
</svg>
