<svg width="358" height="133" viewBox="0 0 358 133" fill="none" xmlns="http://www.w3.org/2000/svg">
<g filter="url(#filter0_d_1_65)">
<rect x="4" width="350" height="125" rx="10" fill="white"/>
<path d="M130.178 31.768C131.474 31.096 132.266 29.944 132.266 28.36C132.266 25.672 130.01 23.68 127.034 23.68H120.026V40H127.322C130.298 40 132.53 37.984 132.53 35.296C132.53 33.592 131.618 32.416 130.178 31.768ZM127.034 26.08C128.738 26.08 129.746 27.04 129.746 28.36C129.746 29.656 128.714 30.64 127.034 30.64H122.546V26.08H127.034ZM127.322 37.6H122.546V33.04H127.322C129.002 33.04 130.01 33.976 130.01 35.296C130.01 36.616 129.002 37.6 127.322 37.6ZM140.55 27.736C138.75 27.736 136.878 28.744 135.846 30.256L137.79 31.624C138.366 30.64 139.542 29.92 140.742 29.92C142.206 29.92 142.926 30.952 143.118 32.08L139.374 32.8C137.262 33.208 135.414 34.312 135.414 36.616C135.414 38.92 137.238 40.24 139.35 40.24C141.03 40.24 142.446 39.4 143.166 38.344V40H145.566V32.68C145.566 29.704 143.55 27.736 140.55 27.736ZM139.926 38.032C138.702 38.032 137.814 37.408 137.814 36.52C137.814 35.584 138.798 35.08 139.83 34.84L143.166 34.168V35.032C143.166 36.88 141.63 38.032 139.926 38.032ZM158.123 36.208C157.379 37.312 156.155 37.96 154.883 37.96C152.771 37.96 151.235 36.208 151.235 33.976C151.235 31.744 152.771 29.992 154.883 29.992C156.155 29.992 157.379 30.64 158.123 31.744L160.139 30.568C158.987 28.84 157.043 27.712 154.859 27.712C151.379 27.712 148.835 30.496 148.835 33.976C148.835 37.456 151.379 40.24 154.859 40.24C157.043 40.24 158.987 39.112 160.139 37.384L158.123 36.208ZM174.088 28H170.92L165.688 33.448V23.2H163.288V40H165.688V36.448L167.608 34.504L171.28 40H174.088L169.36 32.752L174.088 28ZM186.545 32.968C186.137 29.296 183.617 27.76 181.049 27.76C177.569 27.76 175.265 30.544 175.265 34C175.265 37.456 177.569 40.24 181.049 40.24C183.233 40.24 185.297 39.112 186.329 37.384L184.313 36.208C183.737 37.24 182.465 37.96 181.025 37.96C179.249 37.96 178.097 36.904 177.785 35.104H186.545C186.617 34.336 186.617 33.616 186.545 32.968ZM180.977 30.04C182.465 30.04 184.073 30.88 184.145 32.944H177.761C178.073 31.144 179.153 30.04 180.977 30.04ZM198.459 23.2V29.728C197.787 28.6 196.515 27.76 194.787 27.76C191.715 27.76 189.387 30.352 189.363 34C189.339 37.72 191.715 40.24 194.763 40.24C196.587 40.24 197.835 39.328 198.459 38.128V40H200.859V23.2H198.459ZM195.171 37.96C193.083 37.96 191.763 36.256 191.763 34C191.763 31.744 193.083 30.04 195.171 30.04C197.259 30.04 198.579 31.744 198.579 34C198.579 36.256 197.259 37.96 195.171 37.96ZM224.47 34C224.446 30.352 222.118 27.76 219.046 27.76C217.318 27.76 216.046 28.6 215.374 29.728V23.2H212.974V40H215.374V38.128C215.998 39.328 217.246 40.24 219.07 40.24C222.118 40.24 224.494 37.72 224.47 34ZM218.662 37.96C216.574 37.96 215.254 36.256 215.254 34C215.254 31.744 216.574 30.04 218.662 30.04C220.75 30.04 222.07 31.744 222.07 34C222.07 36.256 220.75 37.96 218.662 37.96ZM236.419 28L232.915 36.424L229.171 28H226.531L231.643 39.448L229.411 44.8H231.955L238.891 28H236.419Z" fill="black"/>
<path fill-rule="evenodd" clip-rule="evenodd" d="M35 109H92.2727V49H35V109Z" fill="#FB651E"/>
<path fill-rule="evenodd" clip-rule="evenodd" d="M65.9631 81.9812V95.3125H61.1307V81.9812L48.7992 62.6875H54.6875L63.5648 76.9375L72.4063 62.6875H78.2946L65.9631 81.9812Z" fill="white"/>
<path fill-rule="evenodd" clip-rule="evenodd" d="M125.859 69.1219C120.561 69.1219 116.588 73.4157 116.588 78.9657C116.588 84.5157 120.561 88.8469 125.859 88.8469C129.259 88.8469 132.212 87.0094 133.805 83.9157L138.351 86.7469C135.81 91.3032 131.049 94.2657 125.859 94.2657C117.697 94.2469 111.218 87.4594 111.218 78.9657C111.218 70.4532 117.697 63.6657 125.859 63.6657C131.103 63.6657 135.81 66.5907 138.351 71.1844L133.805 74.0157C132.194 70.9219 129.259 69.1219 125.859 69.1219Z" fill="#231F20"/>
<path fill-rule="evenodd" clip-rule="evenodd" d="M155.819 82.8282C155.819 79.3594 153.403 76.7344 150.289 76.7344C147.085 76.7344 144.669 79.3594 144.669 82.8282C144.669 86.2969 147.085 88.9219 150.289 88.9219C153.349 88.9219 155.819 86.2969 155.819 82.8282ZM139.461 82.8282C139.461 76.5657 144.257 71.5407 150.289 71.5407C156.231 71.5407 161.028 76.5657 161.028 82.8282C161.028 89.0907 156.231 94.1157 150.289 94.1157C144.257 94.1157 139.461 89.0907 139.461 82.8282Z" fill="#231F20"/>
<path fill-rule="evenodd" clip-rule="evenodd" d="M194.819 81.0282V93.6282H189.628V81.9844C189.628 78.7219 188.107 76.6594 185.816 76.6594C183.471 76.6594 181.753 78.7219 181.753 81.9844V93.6282H176.742V81.9844C176.742 78.7219 175.167 76.6594 172.858 76.6594C170.549 76.6594 168.867 78.7219 168.867 81.9844V93.6282H163.677V72.0657H168.867V74.8219C170.138 72.7594 172.106 71.4657 174.523 71.4657C177.154 71.4657 179.23 73.0219 180.5 75.4407C181.807 73.2844 184.223 71.4657 187.266 71.4657C191.83 71.4657 194.819 75.6844 194.819 81.0282Z" fill="#231F20"/>
<path fill-rule="evenodd" clip-rule="evenodd" d="M213.271 83.0532C213.271 79.4532 211.141 76.8657 208.152 76.8657C205.235 76.8657 203.034 79.3219 203.034 82.9969C203.034 86.6532 205.289 89.1282 208.242 89.1282C211.141 89.1094 213.271 86.5782 213.271 83.0532ZM209.244 94.1907C206.381 94.1907 204.269 92.8219 203.052 90.9282V93.6282H197.861V63.6282H203.052V74.6907C204.304 72.9282 206.416 71.6532 209.155 71.6532C214.47 71.6532 218.533 76.4532 218.623 82.9219C218.712 89.4657 214.56 94.1907 209.244 94.1907Z" fill="#231F20"/>
<path fill-rule="evenodd" clip-rule="evenodd" d="M220.77 93.6282H225.96V72.0657H220.77V93.6282ZM220.108 65.9532C220.108 64.1157 221.576 62.7282 223.347 62.7282C225.066 62.7282 226.497 64.0969 226.497 65.9532C226.497 67.7907 225.066 69.1782 223.347 69.1782C221.593 69.1594 220.108 67.7907 220.108 65.9532Z" fill="#231F20"/>
<path fill-rule="evenodd" clip-rule="evenodd" d="M248.333 81.1219V93.6282H243.321V82.2844C243.321 78.8157 241.585 76.6594 239.08 76.6594C236.323 76.6594 234.373 79.2844 234.373 82.3782V93.6282H229.361V72.0657H234.373V74.7844C235.769 72.7594 238.006 71.4657 240.619 71.4657C245.236 71.4657 248.333 75.5907 248.333 81.1219Z" fill="#231F20"/>
<path fill-rule="evenodd" clip-rule="evenodd" d="M264.083 84.0657V83.5969L258.839 84.6657C257.085 85.0969 256.011 86.0344 256.011 87.2907C256.011 88.6219 257.174 89.6157 259.089 89.5594C261.845 89.4657 264.083 86.9532 264.083 84.0657ZM269.094 80.6157V93.6282H264.083V91.1344C262.561 92.8594 260.181 94.1344 257.55 94.1907C254.06 94.1907 250.982 91.7907 250.982 87.6657C250.982 83.7657 253.774 81.5344 257.926 80.6719L263.957 79.4719C263.546 77.6719 262.239 76.3032 260.253 76.3032C258.284 76.3032 256.44 77.5969 255.331 79.2282L251.554 76.3594C253.487 73.5282 256.888 71.6344 260.27 71.6344C265.318 71.5969 269.094 75.2532 269.094 80.6157Z" fill="#231F20"/>
<path fill-rule="evenodd" clip-rule="evenodd" d="M279.654 76.9407V85.9782C279.654 87.7407 280.388 88.5469 281.909 88.5469H284.486V93.6094H281.193C276.808 93.6094 274.642 91.3594 274.642 86.6344V76.9407H270.884V72.0657H274.463V66.7407L279.654 65.0719V72.0657H284.486V76.9407H279.654Z" fill="#231F20"/>
<path fill-rule="evenodd" clip-rule="evenodd" d="M302.545 82.8282C302.545 79.3594 300.129 76.7344 297.015 76.7344C293.811 76.7344 291.395 79.3594 291.395 82.8282C291.395 86.2969 293.811 88.9219 297.015 88.9219C300.075 88.9219 302.545 86.2969 302.545 82.8282ZM286.186 82.8282C286.186 76.5657 290.983 71.5407 297.015 71.5407C302.957 71.5407 307.753 76.5657 307.753 82.8282C307.753 89.0907 302.957 94.1157 297.015 94.1157C290.983 94.1157 286.186 89.0907 286.186 82.8282Z" fill="#231F20"/>
<path fill-rule="evenodd" clip-rule="evenodd" d="M322.071 71.5969V76.8282C317.436 76.8282 315.449 79.1907 315.449 82.2844V93.6282H310.438V72.0657H315.449V74.7657C316.863 72.8344 319.136 71.5969 322.071 71.5969Z" fill="#231F20"/>
</g>
<defs>
<filter id="filter0_d_1_65" x="0" y="0" width="358" height="133" filterUnits="userSpaceOnUse" color-interpolation-filters="sRGB">
<feFlood flood-opacity="0" result="BackgroundImageFix"/>
<feColorMatrix in="SourceAlpha" type="matrix" values="0 0 0 0 0 0 0 0 0 0 0 0 0 0 0 0 0 0 127 0" result="hardAlpha"/>
<feOffset dy="4"/>
<feGaussianBlur stdDeviation="2"/>
<feComposite in2="hardAlpha" operator="out"/>
<feColorMatrix type="matrix" values="0 0 0 0 0 0 0 0 0 0 0 0 0 0 0 0 0 0 0.25 0"/>
<feBlend mode="normal" in2="BackgroundImageFix" result="effect1_dropShadow_1_65"/>
<feBlend mode="normal" in="SourceGraphic" in2="effect1_dropShadow_1_65" result="shape"/>
</filter>
</defs>
</svg>
