<svg width="40" height="38" viewBox="0 0 40 38" fill="none" xmlns="http://www.w3.org/2000/svg">
<path d="M39.675 1.625L38.775 8.59999C36.575 8.45 34.875 8.85 33.675 9.79999C32.475 10.75 31.675 12.075 31.275 13.775C30.875 15.475 30.8 17.4 31.05 19.55H39.675V37.625H23.1V18.05C23.1 12.15 24.5 7.69999 27.3 4.7C30.15 1.65 34.275 0.624997 39.675 1.625ZM16.575 1.625L15.675 8.59999C13.475 8.45 11.775 8.85 10.575 9.79999C9.375 10.75 8.575 12.075 8.175 13.775C7.775 15.475 7.7 17.4 7.95 19.55H16.575V37.625H8.49366e-07V18.05C8.49366e-07 12.15 1.4 7.69999 4.2 4.7C7.05 1.65 11.175 0.624997 16.575 1.625Z" fill="white" fill-opacity="0.12"/>
</svg>
