<?xml version="1.0" encoding="UTF-8" standalone="no"?>
<svg
   xmlns:dc="http://purl.org/dc/elements/1.1/"
   xmlns:cc="http://creativecommons.org/ns#"
   xmlns:rdf="http://www.w3.org/1999/02/22-rdf-syntax-ns#"
   xmlns:svg="http://www.w3.org/2000/svg"
   xmlns="http://www.w3.org/2000/svg"
   xmlns:sodipodi="http://sodipodi.sourceforge.net/DTD/sodipodi-0.dtd"
   xmlns:inkscape="http://www.inkscape.org/namespaces/inkscape"
   inkscape:version="1.0 (4035a4fb49, 2020-05-01)"
   sodipodi:docname="logo.svg"
   id="svg14"
   version="1.1"
   clip-rule="evenodd"
   fill-rule="evenodd"
   y="0px"
   x="0px"
   viewBox="0 0 23.6446 19.1606"
   style="shape-rendering:geometricPrecision;text-rendering:geometricPrecision;image-rendering:optimizeQuality;"
   xml:space="preserve"
   fill="#000000"
   width="100px"
   height="100px"><metadata
     id="metadata18"><rdf:RDF><cc:Work
         rdf:about=""><dc:format>image/svg+xml</dc:format><dc:type
           rdf:resource="http://purl.org/dc/dcmitype/StillImage" /><dc:title></dc:title></cc:Work></rdf:RDF></metadata><sodipodi:namedview
     inkscape:current-layer="g12"
     inkscape:window-maximized="1"
     inkscape:window-y="0"
     inkscape:window-x="0"
     inkscape:cy="38.095238"
     inkscape:cx="30.902778"
     inkscape:zoom="10.08"
     showgrid="false"
     id="namedview16"
     inkscape:window-height="1440"
     inkscape:window-width="2560"
     inkscape:pageshadow="2"
     inkscape:pageopacity="0"
     guidetolerance="10"
     gridtolerance="10"
     objecttolerance="10"
     borderopacity="1"
     bordercolor="#666666"
     pagecolor="#ffffff" /><defs
     id="defs4"><style
       id="style2"
       type="text/css">

    .fil0 {fill:#000000}

  </style></defs><g
     id="g12"><path
       style="fill:#cf5c00;fill-opacity:1"
       id="path6"
       d="M15.1887 0c4.69642,3.91162 -0.165501,12.5809 1.55021,16.0813 -3.52571,-5.05912 1.27791,-9.40684 -1.55021,-16.0813z"
       class="fil0" /><path
       style="fill:#8d1e00;fill-opacity:1"
       id="path8"
       d="M17.7931 7.52913c3.06981,1.99461 -0.615103,6.66813 1.34661,7.86443 1.98661,1.21161 1.76181,-3.82372 4.50492,-2.53201 -2.85611,-0.971704 -1.67131,5.02322 -5.21022,4.22542 -4.04992,-0.913004 0.986704,-7.35483 -0.641303,-9.55784z"
       class="fil0" /><path
       style="fill:#2b1200;fill-opacity:1"
       id="path10"
       d="M-0 14.3588c5.84662,-4.65822 13.8104,2.81691 17.5685,3.28401 4.83302,0.600603 3.54561,-4.98742 5.96463,-4.77922 -2.22901,0.268801 -0.891004,6.11293 -5.87452,6.29353 -5.42722,0.196701 -10.8419,-8.07783 -17.6586,-4.79832z"
       class="fil0" /></g><g
     inkscape:label="Layer 1"
     id="layer1"
     inkscape:groupmode="layer" /></svg>
