<svg width="652" height="653" viewBox="0 0 652 653" fill="none" xmlns="http://www.w3.org/2000/svg">
<path d="M255.2 230.4C268.7 231.9 281.9 234.2 294.9 237.3C298.5 233.3 302.1 229.2 305.9 225.3C322.3 208.2 339.9 193 358.5 179.8C319.5 145.3 281.1 112.4 247.2 84.9999C234.2 73.8999 215.8 69.4999 198.2 75.0999C180.6 80.6999 168.1 94.8999 163.9 111.5C152.6 151.6 141.4 195.4 130.6 240.4C170.1 229.3 212.2 225.5 255.2 230.4Z" fill="#F8F7F7"/>
<path d="M204.5 462.2C164.7 469.1 124 468.9 84.3998 461.8C81.3998 478.9 78.5998 495.6 76.0998 511.7C72.9998 528.6 78.3998 546.7 91.9998 559.1C105.7 571.6 124.2 575.3 140.7 570.6C163.2 564.9 187.2 558.4 212.2 551.4C205.9 522.1 203.3 492.1 204.5 462.2Z" fill="#F8F7F7"/>
<path d="M204.5 462.2C207.7 382.2 237.8 302.4 294.9 237.4C282 234.3 268.8 232 255.2 230.5C212.1 225.6 170 229.4 130.6 240.5C112.9 314.4 96.6999 391.7 84.3999 461.9C124 468.8 164.7 469.1 204.5 462.2Z" fill="#F8F7F7"/>
<path d="M528.8 447.4C529.6 447.1 530.4 446.8 531.3 446.5C547.5 440.8 560.5 427 564.4 409C568.3 391 562.3 373.1 550 361.1C523 333.2 490.4 301.2 455.3 268.2C449 282.2 441.7 295.8 433.4 308.9C475.8 345.9 508.9 393.6 528.8 447.4Z" fill="#F8F7F7"/>
<path d="M305.9 225.3C302.1 229.2 298.5 233.2 294.9 237.3C347.3 249.9 394.3 274.9 433.4 308.9C441.6 295.8 448.9 282.2 455.3 268.2C424.2 238.9 391.1 208.7 358.5 179.8C339.9 193.1 322.2 208.2 305.9 225.3Z" fill="#F8F7F7"/>
<path d="M433.4 308.9C409.5 346.9 377.8 380.6 338.6 407.5C297.1 436.1 251.4 454.1 204.6 462.2C203.4 492.2 206 522.2 212.3 551.4C315.5 522.3 434.9 483.7 528.8 447.4C508.8 393.6 475.8 345.9 433.4 308.9Z" fill="#F8F7F7"/>
<path d="M433.4 308.9C394.3 274.9 347.3 249.9 294.9 237.3C237.8 302.3 207.8 382.2 204.5 462.1C251.3 454 297 436 338.5 407.4C377.7 380.6 409.4 346.9 433.4 308.9Z" fill="#F8F7F7"/>
<path d="M357.9 376.8C352.6 370.3 340.9 364.3 330.5 359C323 355.2 316 351.6 314.1 349C312.1 346.3 311.1 343.5 311.1 340.2C311.1 338.6 312 333.1 314.9 330.3C317.7 327.6 321.2 326.2 325.5 326.2C334.2 326.2 341.2 331.1 341.4 331.3C341.5 331.3 341.5 331.5 341.5 331.5L342.3 333.4C342.6 334.5 343.7 335.3 344.8 335.3H356.6C357.9 335.3 359 334.2 359 332.9V313.1C359 311.9 358.1 310.8 357 310.5C357 310.5 344.9 307.5 340.9 306.9C335.2 306 329.5 305.6 323.7 305.6H323C310.1 305.6 300.1 309 293.2 315.7C286.2 322.4 275.6 342.9 288.9 361.5C295.2 370.3 307 376.9 318.6 382.6C327.7 387 335.6 391 335.6 399.9C335.6 410.3 324 411.9 317 411.9C305.3 411.9 290.6 405.8 288.9 405.1L287.5 404.5C286.1 403.9 284.6 404.8 284.5 406.2C284.4 406.9 283.6 410.4 282.7 416.4C281.7 423.1 281.8 425.7 281.8 425.7C281.7 427 282.6 428.1 283.7 428.4C284.6 428.7 304.8 435 319.6 435C330.3 435 335.8 433.6 341.9 430.9C345.3 429.5 351.6 425.1 352 424.8C360.2 417.9 364.4 408.6 364.4 397.2C364.6 389.2 362.4 382.3 357.9 376.8Z" fill="white"/>
<path d="M471.4 308.5H380.7C378.4 308.5 376.6 310.4 376.6 312.6V334.2C376.6 335.4 377.6 336.4 378.8 336.4H389.6C390.6 336.4 391.6 335.7 391.9 334.7L392.7 332.2H413.2V425.8C413.2 427.9 414.9 429.6 417 429.6H435C437.1 429.6 438.8 427.9 438.8 425.8V332.2H459.2L460.1 334.7C460.4 335.7 461.4 336.4 462.4 336.4H473.2C474.4 336.4 475.5 335.4 475.5 334.2V312.6C475.6 310.4 473.7 308.5 471.4 308.5Z" fill="white"/>
<path d="M264.8 312.7C264.8 310.7 262.8 308.6 260.8 308.6H234.4C232.8 308.6 230.6 310 229.8 311.4L199.3 369.7L168.9 311.2C168.1 309.7 166.1 308.6 164.5 308.6H137.7C135.8 308.6 133.8 310.7 133.8 312.7V329.3C133.8 330.4 134.6 331.4 135.7 331.6L140.8 332.6V426C140.8 428.1 142.5 429.9 144.6 429.9H162.5C164.6 429.9 166.3 428.2 166.3 426V355.6L184.4 390.4C185.3 392.4 187.2 393.3 189.2 393.3H209.4C211.4 393.3 213.4 392.3 214.3 390.3L232.4 355.6V426.1C232.4 428.2 234.1 430 236.2 430H254C256.1 430 257.8 428.3 257.8 426.1V332.5L262.9 331.5C264 331.3 264.8 330.3 264.8 329.2V312.7Z" fill="white"/>
</svg>
