<svg width="191" height="23" viewBox="0 0 191 23" fill="none" xmlns="http://www.w3.org/2000/svg">
<g clip-path="url(#clip0_1310_883)">
<path d="M10.5 18.2499C10.9218 17.372 11.8815 16.933 13.379 16.933H15.1787C15.8536 16.933 16.3914 16.7708 16.7922 16.4463C17.1929 16.1219 17.3933 15.7115 17.3933 15.2153V13.4976H21V15.2153C21 16.6658 20.4622 17.9064 19.3865 18.937C18.3319 19.9867 16.9187 20.5115 15.147 20.5115H14.0118C13.4001 20.5115 12.9045 20.6356 12.5248 20.8837C12.1663 21.1509 11.987 21.5231 11.987 22.0002H10.5C10.5 20.9508 10.5 20.8837 10.5 18.2499Z" fill="#F8F7F7"/>
<path d="M10.5 18.2487C10.0782 17.3706 9.11849 16.9315 7.62097 16.9315H5.82134C5.1464 16.9315 4.60856 16.7692 4.20782 16.4446C3.80707 16.1201 3.6067 15.7096 3.6067 15.2133V13.4951H0L1.65855e-07 15.2133C2.35842e-07 16.6642 0.537842 17.9051 1.61352 18.936C2.66811 19.986 4.08126 20.511 5.85298 20.511H6.98821C7.59988 20.511 8.09553 20.6351 8.47518 20.8833C8.83375 21.1506 9.01303 21.5228 9.01303 22.0001H10.5C10.5 20.9504 10.5 20.8833 10.5 18.2487Z" fill="#F8F7F7"/>
<path d="M10.5 4.7503C10.0782 5.62823 9.11849 6.0672 7.62097 6.0672H5.82134C5.1464 6.0672 4.60856 6.22942 4.20782 6.55388C3.80707 6.87833 3.6067 7.28867 3.6067 7.78489V9.50259H0V7.78489C-7.00684e-08 6.33439 0.537841 5.09384 1.61352 4.06322C2.66811 3.01352 4.08126 2.48867 5.85298 2.48867H6.98821C7.59988 2.48867 8.09553 2.36461 8.47518 2.1165C8.83375 1.84931 9.01303 1.47714 9.01303 1H10.5C10.5 2.04938 10.5 2.1165 10.5 4.7503Z" fill="#F8F7F7"/>
<path d="M10.5 4.75136C10.9218 5.62954 11.8815 6.06863 13.379 6.06863L15.1787 6.06864C15.8536 6.06864 16.3914 6.23091 16.7922 6.55545C17.1929 6.88 17.3933 7.29045 17.3933 7.78682V9.505H21V7.78682C21 6.33591 20.4622 5.095 19.3865 4.06409C18.3319 3.01409 16.9187 2.48909 15.147 2.48909H14.0118C13.4001 2.48909 12.9045 2.365 12.5248 2.11682C12.1663 1.84955 11.987 1.47727 11.987 1H10.5C10.5 2.04968 10.5 2.11682 10.5 4.75136Z" fill="#F8F7F7"/>
<path d="M42.1811 7.73375V18.1418H38.6107V7.73375H33V4.83887H47.8013V7.73375H42.1811Z" fill="#F8F7F7"/>
<path d="M65.2159 17.4834C64.1316 17.8449 63.0473 18.103 61.9631 18.258C60.8852 18.4193 59.7817 18.5 58.6525 18.5C57.2089 18.5 55.9225 18.3451 54.7934 18.0353C53.6706 17.719 52.7242 17.2639 51.9543 16.6701C51.1844 16.0763 50.5974 15.3502 50.1932 14.4917C49.789 13.6332 49.5869 12.6618 49.5869 11.5775C49.5869 10.5705 49.789 9.63785 50.1932 8.77939C50.6038 7.91448 51.1812 7.16574 51.9255 6.5332C52.6761 5.89419 53.5808 5.39719 54.6394 5.04219C55.698 4.68073 56.8785 4.5 58.1809 4.5C59.3807 4.5 60.4778 4.66459 61.4722 4.99378C62.4731 5.31651 63.3296 5.79737 64.0418 6.43638C64.7604 7.07538 65.3153 7.86284 65.7067 8.79876C66.1045 9.73467 66.3034 10.8126 66.3034 12.0325V12.9232H53.2728C53.3883 13.3428 53.5776 13.7268 53.8406 14.0754C54.1101 14.4239 54.4726 14.7208 54.9281 14.9661C55.3836 15.2114 55.9418 15.4018 56.6026 15.5373C57.2699 15.6729 58.0654 15.7407 58.9893 15.7407C59.6437 15.7407 60.2853 15.7019 60.9141 15.6245C61.5428 15.5406 62.1299 15.4341 62.6752 15.305C63.2206 15.1694 63.7114 15.021 64.1477 14.8596C64.5903 14.6982 64.9464 14.5369 65.2159 14.3755V17.4834ZM62.7522 10.2898C62.7201 9.96058 62.6207 9.62172 62.4539 9.27317C62.2935 8.91816 62.0368 8.59866 61.684 8.31466C61.3311 8.03066 60.8692 7.79829 60.2981 7.61757C59.7271 7.43038 59.015 7.33679 58.1617 7.33679C57.3597 7.33679 56.6668 7.43684 56.0829 7.63693C55.4991 7.83702 55.0083 8.08552 54.6105 8.38243C54.2191 8.67935 53.9144 8.99885 53.6962 9.34094C53.4781 9.68303 53.337 9.99931 53.2728 10.2898H62.7522Z" fill="#F8F7F7"/>
<path d="M81.2152 7.84993C81.119 7.81766 80.9779 7.7757 80.7918 7.72407C80.6121 7.66597 80.4004 7.61111 80.1566 7.55947C79.9128 7.50138 79.6434 7.45297 79.3482 7.41425C79.0595 7.37552 78.7612 7.35615 78.4532 7.35615C77.8116 7.35615 77.2118 7.43684 76.6536 7.5982C76.1018 7.75311 75.5853 7.96289 75.1041 8.22752C74.623 8.48571 74.1739 8.78262 73.7568 9.11826C73.3462 9.44744 72.9677 9.78631 72.6212 10.1349V18.1418H69.0508V4.83887H72.6212V6.99793C73.0511 6.6752 73.4906 6.36538 73.9397 6.06846C74.3952 5.7651 74.8668 5.49723 75.3544 5.26487C75.8484 5.0325 76.3681 4.84855 76.9134 4.713C77.4588 4.571 78.0362 4.5 78.6457 4.5C78.8767 4.5 79.1108 4.51291 79.3482 4.53873C79.592 4.55809 79.8262 4.58391 80.0508 4.61618C80.2817 4.64846 80.4967 4.68396 80.6956 4.72268C80.8944 4.76141 81.0677 4.80014 81.2152 4.83887V7.84993Z" fill="#F8F7F7"/>
<path d="M94.6977 18.1417V16.8346C94.2422 17.0863 93.7514 17.309 93.2253 17.5027C92.7056 17.6963 92.1635 17.8609 91.5989 17.9964C91.0343 18.132 90.4504 18.232 89.8474 18.2966C89.2507 18.3676 88.6476 18.4031 88.0381 18.4031C87.3259 18.4031 86.6362 18.3353 85.969 18.1998C85.3081 18.0642 84.7211 17.8448 84.2078 17.5414C83.6946 17.238 83.2807 16.8411 82.9664 16.3505C82.6584 15.86 82.5044 15.2597 82.5044 14.5497C82.5044 13.6525 82.7482 12.907 83.2358 12.3132C83.7234 11.7129 84.4677 11.2224 85.4685 10.8415C86.4694 10.4607 87.7333 10.167 89.2603 9.96044C90.7937 9.75389 92.6062 9.59253 94.6977 9.47635V9.19557C94.6977 8.97612 94.64 8.75989 94.5245 8.54689C94.409 8.32743 94.1973 8.13702 93.8893 7.97566C93.5878 7.80784 93.1708 7.67229 92.6382 7.56902C92.1121 7.46574 91.4385 7.41411 90.6173 7.41411C89.9693 7.41411 89.3277 7.44961 88.6925 7.52061C88.0637 7.58515 87.4542 7.67552 86.864 7.7917C86.2801 7.90788 85.7252 8.04343 85.1991 8.19834C84.673 8.35325 84.195 8.51461 83.7651 8.68243V5.48741C84.2142 5.37123 84.7179 5.25827 85.2761 5.14855C85.8342 5.03882 86.4149 4.94523 87.018 4.86777C87.6211 4.78386 88.2306 4.71932 88.8465 4.67413C89.4624 4.6225 90.0527 4.59668 90.6173 4.59668C91.7272 4.59668 92.7505 4.69027 93.6872 4.87745C94.6239 5.05818 95.4291 5.34218 96.1028 5.72946C96.7829 6.11673 97.3122 6.60728 97.6907 7.2011C98.0757 7.79493 98.2681 8.5017 98.2681 9.32144V18.1417H94.6977ZM94.6977 12.0711C93.3247 12.1228 92.1571 12.197 91.1947 12.2938C90.2387 12.3906 89.4432 12.5036 88.808 12.6327C88.1728 12.7618 87.6724 12.9005 87.3067 13.049C86.9474 13.1975 86.6779 13.3491 86.4983 13.504C86.3186 13.659 86.2064 13.8139 86.1614 13.9688C86.123 14.1237 86.1037 14.2657 86.1037 14.3948C86.1037 14.5497 86.1454 14.7014 86.2288 14.8498C86.3122 14.9918 86.4566 15.1177 86.6619 15.2274C86.8736 15.3372 87.1527 15.4243 87.4992 15.4888C87.8456 15.5534 88.2819 15.5857 88.808 15.5857C89.3918 15.5857 89.9628 15.5405 90.521 15.4501C91.0792 15.3597 91.6085 15.2371 92.1089 15.0822C92.6094 14.9208 93.0777 14.7336 93.514 14.5206C93.9567 14.3012 94.3513 14.0688 94.6977 13.8236V12.0711Z" fill="#F8F7F7"/>
<path d="M116.51 17.2141C116.049 17.4075 115.586 17.5815 115.119 17.7362C114.653 17.8909 114.17 18.023 113.672 18.1326C113.173 18.2486 112.646 18.3356 112.09 18.3936C111.54 18.4517 110.949 18.4807 110.316 18.4807C108.974 18.4807 107.737 18.3356 106.606 18.0456C105.481 17.7555 104.51 17.3204 103.691 16.7403C102.88 16.1538 102.247 15.4254 101.793 14.5552C101.339 13.6786 101.113 12.657 101.113 11.4903C101.113 10.3237 101.339 9.30525 101.793 8.43508C102.247 7.55847 102.88 6.83011 103.691 6.25C104.51 5.66344 105.481 5.22514 106.606 4.93508C107.737 4.64503 108.974 4.5 110.316 4.5C110.949 4.5 111.54 4.52901 112.09 4.58702C112.646 4.64503 113.173 4.73204 113.672 4.84807C114.17 4.95764 114.653 5.08978 115.119 5.24448C115.586 5.39917 116.049 5.5732 116.51 5.76657V8.99586C116.145 8.79604 115.762 8.59945 115.359 8.40608C114.956 8.20626 114.512 8.02901 114.026 7.87431C113.541 7.71317 113.007 7.58425 112.425 7.48757C111.844 7.38444 111.189 7.33287 110.46 7.33287C109.342 7.33287 108.412 7.4489 107.67 7.68094C106.935 7.91298 106.347 8.22238 105.906 8.60912C105.465 8.99586 105.155 9.44061 104.976 9.94337C104.797 10.4397 104.708 10.9553 104.708 11.4903C104.708 11.8448 104.746 12.1961 104.823 12.5442C104.899 12.8858 105.027 13.2113 105.206 13.5207C105.385 13.8237 105.619 14.1041 105.906 14.3619C106.194 14.6197 106.552 14.8421 106.98 15.029C107.408 15.2159 107.907 15.3642 108.476 15.4738C109.051 15.5769 109.712 15.6285 110.46 15.6285C111.189 15.6285 111.844 15.5833 112.425 15.4931C113.007 15.3964 113.541 15.2707 114.026 15.116C114.512 14.9613 114.956 14.7873 115.359 14.5939C115.762 14.3941 116.145 14.1911 116.51 13.9848V17.2141Z" fill="#F8F7F7"/>
<path d="M123.384 12.4378C123.384 12.9922 123.435 13.4466 123.537 13.8011C123.639 14.1492 123.805 14.4263 124.036 14.6326C124.266 14.8389 124.563 14.9807 124.927 15.058C125.298 15.1354 125.752 15.174 126.289 15.174H133.038V18.1229H125.56C124.524 18.1229 123.642 18.0391 122.914 17.8715C122.192 17.6975 121.6 17.4332 121.14 17.0787C120.68 16.7178 120.344 16.2634 120.134 15.7155C119.929 15.1676 119.827 14.5166 119.827 13.7624V4.83838H123.384V12.4378Z" fill="#F8F7F7"/>
<path d="M152.941 11.4903C152.941 12.6312 152.733 13.64 152.318 14.5166C151.902 15.3867 151.308 16.1151 150.535 16.7017C149.761 17.2882 148.822 17.733 147.716 18.0359C146.617 18.3324 145.38 18.4807 144.006 18.4807C142.632 18.4807 141.388 18.3324 140.276 18.0359C139.171 17.733 138.228 17.2882 137.448 16.7017C136.668 16.1151 136.068 15.3867 135.646 14.5166C135.224 13.64 135.013 12.6312 135.013 11.4903C135.013 10.3495 135.224 9.34392 135.646 8.47376C136.068 7.59715 136.668 6.86556 137.448 6.27901C138.228 5.69245 139.171 5.25092 140.276 4.95442C141.388 4.65147 142.632 4.5 144.006 4.5C145.38 4.5 146.617 4.65147 147.716 4.95442C148.822 5.25092 149.761 5.69245 150.535 6.27901C151.308 6.86556 151.902 7.59715 152.318 8.47376C152.733 9.34392 152.941 10.3495 152.941 11.4903ZM149.346 11.4903C149.346 10.994 149.266 10.5009 149.106 10.0111C148.953 9.51473 148.675 9.06998 148.272 8.6768C147.876 8.28361 147.332 7.96455 146.642 7.71961C145.952 7.47468 145.073 7.35221 144.006 7.35221C143.29 7.35221 142.66 7.41022 142.117 7.52624C141.574 7.63582 141.104 7.79052 140.708 7.99033C140.311 8.19015 139.979 8.42541 139.711 8.69613C139.442 8.96041 139.228 9.24724 139.068 9.55663C138.909 9.85958 138.793 10.1786 138.723 10.5138C138.659 10.8425 138.627 11.168 138.627 11.4903C138.627 11.8191 138.659 12.151 138.723 12.4862C138.793 12.8214 138.909 13.1436 139.068 13.453C139.228 13.756 139.442 14.0396 139.711 14.3039C139.979 14.5681 140.311 14.8002 140.708 15C141.104 15.1934 141.574 15.3481 142.117 15.4641C142.66 15.5737 143.29 15.6285 144.006 15.6285C145.073 15.6285 145.952 15.506 146.642 15.2611C147.332 15.0161 147.876 14.6971 148.272 14.3039C148.675 13.9107 148.953 13.4692 149.106 12.9793C149.266 12.483 149.346 11.9866 149.346 11.4903Z" fill="#F8F7F7"/>
<path d="M159.185 4.83838V12.3218C159.185 12.8181 159.226 13.2693 159.309 13.6754C159.392 14.075 159.546 14.4199 159.77 14.7099C159.993 14.9936 160.306 15.2159 160.709 15.3771C161.112 15.5318 161.636 15.6091 162.281 15.6091C162.767 15.6091 163.275 15.5414 163.806 15.4061C164.343 15.2707 164.873 15.0902 165.397 14.8646C165.921 14.639 166.42 14.3812 166.893 14.0912C167.372 13.7947 167.8 13.4885 168.178 13.1727V4.83838H171.725V18.1229H168.178V16.3052C167.73 16.5631 167.254 16.8241 166.749 17.0884C166.244 17.3462 165.707 17.5815 165.138 17.7942C164.57 18.0005 163.966 18.168 163.326 18.297C162.687 18.4323 162.013 18.5 161.304 18.5C160.415 18.5 159.619 18.3904 158.916 18.1713C158.213 17.9586 157.619 17.6556 157.133 17.2624C156.647 16.8628 156.273 16.3826 156.011 15.8218C155.756 15.2546 155.628 14.6229 155.628 13.9268V4.83838H159.185Z" fill="#F8F7F7"/>
<path d="M191 11.471C191 12.3218 190.907 13.0792 190.722 13.7431C190.537 14.4006 190.275 14.9742 189.936 15.4641C189.603 15.954 189.201 16.3697 188.728 16.7113C188.261 17.0529 187.74 17.3269 187.165 17.5331C186.59 17.7394 185.97 17.8909 185.305 17.9876C184.64 18.0778 183.947 18.1229 183.225 18.1229H174.865V4.83838H183.206C183.928 4.83838 184.621 4.88672 185.286 4.98341C185.951 5.07364 186.571 5.2219 187.146 5.42816C187.728 5.63442 188.255 5.90836 188.728 6.24998C189.201 6.58516 189.603 7.0009 189.936 7.49722C190.275 7.98709 190.537 8.56075 190.722 9.21821C190.907 9.87567 191 10.6266 191 11.471ZM187.414 11.471C187.414 10.8329 187.331 10.2785 187.165 9.80799C187.005 9.33746 186.743 8.95072 186.379 8.64777C186.021 8.33838 185.551 8.10956 184.97 7.96131C184.388 7.80661 183.679 7.72926 182.841 7.72926H178.422V15.232H182.841C183.679 15.232 184.388 15.1579 184.97 15.0097C185.551 14.855 186.021 14.6229 186.379 14.3135C186.743 13.9977 187.005 13.6045 187.165 13.134C187.331 12.6634 187.414 12.1091 187.414 11.471Z" fill="#F8F7F7"/>
</g>
<defs>
<clipPath id="clip0_1310_883">
<rect width="191" height="22" fill="white" transform="translate(0 0.5)"/>
</clipPath>
</defs>
</svg>
