<svg width="3333" height="1667" viewBox="0 0 3333 1667" fill="none" xmlns="http://www.w3.org/2000/svg">
<path d="M948.062 494.041L778.182 620.882C697.972 551.888 594.61 538.322 537.548 538.322C479.835 538.322 419.675 554.819 410.349 596.231C401.317 636.402 438.62 667.637 502.79 685.049C575.959 704.809 642.573 722.221 745.184 751.504C897.782 795.066 1002.12 861.06 1002.12 1014.18C1002.12 1225.21 814.834 1334.57 563.892 1334.57C312.987 1334.57 141.998 1203.82 90.9033 1142.85L270.466 1008.57C396.623 1118.52 484.333 1134.04 557.631 1134.04C641.758 1134.04 720.403 1115.98 730.513 1068.7C738.73 1030.48 707.034 1000.09 635.368 983.464C554.306 964.749 485.865 949.684 409.534 929.601C202.58 875.277 144.216 754.959 144.216 646.903C144.216 498.084 282.76 345.226 536.112 345.226C795.922 345.226 948.062 494.041 948.062 494.041ZM2030.77 360.094H1273.54V1306.53H2044.67V1088.33H1539.46V935.861H1887.5V727.046H1539.46V576.341H2030.77V360.094ZM1077.54 1524.99H1136.36V141.34H1077.54V1524.99ZM2144.12 1524.99H2202.94V141.34H2144.12V1524.99ZM2339.75 1306.53H2947.99C3110.63 1306.53 3242.43 1208.52 3242.43 1051.55C3242.43 929.076 3162.28 847.821 3049.92 812.085C3049.92 812.085 3045.29 810.976 3039.03 810.716C3045.29 810.128 3049.92 808.826 3049.92 808.826C3114.29 783.327 3185.57 715.504 3185.57 600.014C3185.57 453.543 3055.99 360.094 2896.02 360.094H2339.75V1306.53ZM2607 556.906H2819.46C2868.37 556.906 2907.95 595.514 2907.95 639.924C2907.95 684.398 2868.37 723.07 2819.46 723.07H2607V556.906ZM2866.87 1096.15L2607 1096.22V923.601H2866.87C2912.84 923.601 2950.08 960.836 2950.08 1009.87C2950.08 1058.98 2912.84 1096.15 2866.87 1096.15Z" fill="#F8F7F7"/>
</svg>
