<?xml version="1.0" encoding="UTF-8"?>
<!-- Generated by Pixelmator Pro 3.5.11 -->
<svg width="3333" height="1666" viewBox="0 0 3333 1666" xmlns="http://www.w3.org/2000/svg">
    <g id="Lager-1">
        <g id="Group">
            <path id="Path" fill="#1d1d1b" stroke="none" d="M 948.062012 493.541382 L 778.18219 620.382446 C 697.972046 551.387817 594.609497 537.821899 537.547668 537.821899 C 479.834808 537.821899 419.674744 554.319214 410.348969 595.731567 C 401.317261 635.9021 438.619415 667.13739 502.789734 684.549744 C 575.958374 704.309326 642.572754 721.72168 745.184082 751.003906 C 897.781555 794.566467 1002.122131 860.559875 1002.122131 1013.681824 C 1002.122131 1224.710205 814.833496 1334.072266 563.891602 1334.072266 C 312.986664 1334.072266 141.99826 1203.317871 90.903091 1142.346191 L 270.46579 1008.072449 C 396.622742 1118.022461 484.332306 1133.541626 557.631165 1133.541626 C 641.758057 1133.541626 720.402527 1115.478149 730.512695 1068.199219 C 738.729736 1029.982178 707.033569 999.59491 635.367676 982.963806 C 554.305603 964.249329 485.864868 949.184326 409.534271 929.10083 C 202.579498 874.776855 144.215515 754.459656 144.215515 646.402771 C 144.215515 497.584717 282.759613 344.726563 536.111938 344.726563 C 795.921753 344.726563 948.062012 493.541382 948.062012 493.541382 M 2030.773682 359.594727 L 1273.537964 359.594727 L 1273.537964 1306.029175 L 2044.666748 1306.029175 L 2044.666748 1087.828369 L 1539.461304 1087.828369 L 1539.461304 935.361267 L 1887.501465 935.361267 L 1887.501465 726.546387 L 1539.461304 726.546387 L 1539.461304 575.841553 L 2030.773682 575.841553 L 2030.773682 359.594727 Z M 1077.54126 1524.493286 L 1136.362671 1524.493286 L 1136.362671 140.840088 L 1077.54126 140.840088 L 1077.54126 1524.493286 Z M 2144.116211 1524.493286 L 2202.937256 1524.493286 L 2202.937256 140.840088 L 2144.116211 140.840088 L 2144.116211 1524.493286 Z M 2339.751953 1306.029175 L 2947.992676 1306.029175 C 3110.633789 1306.029175 3242.430176 1208.015747 3242.430176 1051.047363 C 3242.430176 928.576538 3162.283203 847.321106 3049.922607 811.5849 C 3049.922607 811.5849 3045.291748 810.476318 3039.03125 810.215881 C 3045.291748 809.628296 3049.922607 808.326111 3049.922607 808.326111 C 3114.286621 782.826904 3185.56543 715.003845 3185.56543 599.514282 C 3185.56543 453.043701 3055.986084 359.594727 2896.019531 359.594727 L 2339.751953 359.594727 L 2339.751953 1306.029175 Z M 2606.997559 556.406128 L 2819.458496 556.406128 C 2868.370117 556.406128 2907.952637 595.013794 2907.952637 639.424561 C 2907.952637 683.898682 2868.370117 722.569824 2819.458496 722.569824 L 2606.997559 722.569824 L 2606.997559 556.406128 Z M 2866.87085 1095.651855 L 2606.997559 1095.718506 L 2606.997559 923.10083 L 2866.87085 923.10083 C 2912.843994 923.10083 2950.07959 960.336182 2950.07959 1009.374634 C 2950.07959 1058.483154 2912.843994 1095.651855 2866.87085 1095.651855 Z"/>
        </g>
    </g>
</svg>
