<svg width="191" height="22" viewBox="0 0 191 22" fill="none" xmlns="http://www.w3.org/2000/svg">
<path d="M10.5 17.7497C10.9218 16.8718 11.8815 16.4328 13.379 16.4328L15.1787 16.4328C15.8536 16.4328 16.3914 16.2706 16.7922 15.9461C17.1929 15.6217 17.3933 15.2113 17.3933 14.7151L17.3933 12.9974L21 12.9974L21 14.7151C21 16.1656 20.4622 17.4062 19.3865 18.4368C18.3319 19.4865 16.9187 20.0113 15.147 20.0113L14.0118 20.0113C13.4001 20.0113 12.9045 20.1354 12.5248 20.3835C12.1663 20.6507 11.987 21.0229 11.987 21.5L10.5 21.5C10.5 20.4506 10.5 20.3835 10.5 17.7497Z" fill="#2A2ADD"/>
<path d="M10.5 17.7486C10.0782 16.8705 9.11849 16.4314 7.62097 16.4314L5.82134 16.4314C5.1464 16.4314 4.60856 16.2691 4.20782 15.9445C3.80707 15.62 3.6067 15.2095 3.6067 14.7132L3.6067 12.995L-8.20982e-07 12.995L-6.55127e-07 14.7132C-5.8514e-07 16.1641 0.537841 17.405 1.61352 18.4359C2.66811 19.4859 4.08126 20.0109 5.85298 20.0109L6.98821 20.0109C7.59988 20.0109 8.09553 20.135 8.47518 20.3832C8.83375 20.6505 9.01303 21.0227 9.01303 21.5L10.5 21.5C10.5 20.4503 10.5 20.3832 10.5 17.7486Z" fill="#2A2ADD"/>
<path d="M10.5 4.2503C10.0782 5.12823 9.11849 5.5672 7.62097 5.5672L5.82134 5.5672C5.1464 5.5672 4.60856 5.72942 4.20782 6.05388C3.80707 6.37833 3.6067 6.78867 3.6067 7.28489L3.6067 9.00259H0L0 7.28489C-7.00684e-08 5.83439 0.537841 4.59384 1.61352 3.56322C2.66811 2.51352 4.08126 1.98867 5.85298 1.98867L6.98821 1.98867C7.59988 1.98867 8.09553 1.86461 8.47518 1.6165C8.83375 1.34931 9.01303 0.977137 9.01303 0.5L10.5 0.5C10.5 1.54938 10.5 1.6165 10.5 4.2503Z" fill="#2A2ADD"/>
<path d="M10.5 4.25136C10.9218 5.12954 11.8815 5.56863 13.379 5.56863L15.1787 5.56864C15.8536 5.56864 16.3914 5.73091 16.7922 6.05545C17.1929 6.38 17.3933 6.79045 17.3933 7.28682V9.005H21V7.28682C21 5.83591 20.4622 4.595 19.3865 3.56409C18.3319 2.51409 16.9187 1.98909 15.147 1.98909L14.0118 1.98909C13.4001 1.98909 12.9045 1.865 12.5248 1.61682C12.1663 1.34955 11.987 0.977273 11.987 0.5L10.5 0.5C10.5 1.54968 10.5 1.61682 10.5 4.25136Z" fill="#2A2ADD"/>
<path d="M42.1811 7.23375V17.6418H38.6107V7.23375H33V4.33887H47.8013V7.23375H42.1811Z" fill="#2A2ADD"/>
<path d="M65.216 16.9834C64.1317 17.3449 63.0474 17.603 61.9632 17.758C60.8853 17.9193 59.7818 18 58.6526 18C57.209 18 55.9226 17.8451 54.7935 17.5353C53.6707 17.219 52.7243 16.7639 51.9544 16.1701C51.1845 15.5763 50.5975 14.8502 50.1933 13.9917C49.7891 13.1332 49.587 12.1618 49.587 11.0775C49.587 10.0705 49.7891 9.13785 50.1933 8.27939C50.6039 7.41448 51.1813 6.66574 51.9256 6.0332C52.6762 5.39419 53.5809 4.89719 54.6395 4.54219C55.6981 4.18073 56.8786 4 58.181 4C59.3808 4 60.4779 4.16459 61.4723 4.49378C62.4732 4.81651 63.3297 5.29737 64.0419 5.93638C64.7605 6.57538 65.3154 7.36284 65.7068 8.29876C66.1046 9.23467 66.3035 10.3126 66.3035 11.5325V12.4232H53.2729C53.3884 12.8428 53.5777 13.2268 53.8407 13.5754C54.1102 13.9239 54.4727 14.2208 54.9282 14.4661C55.3837 14.7114 55.9419 14.9018 56.6027 15.0373C57.27 15.1729 58.0655 15.2407 58.9894 15.2407C59.6438 15.2407 60.2854 15.2019 60.9142 15.1245C61.5429 15.0406 62.13 14.9341 62.6753 14.805C63.2207 14.6694 63.7115 14.521 64.1478 14.3596C64.5904 14.1982 64.9465 14.0369 65.216 13.8755V16.9834ZM62.7523 9.78976C62.7202 9.46058 62.6208 9.12172 62.454 8.77317C62.2936 8.41816 62.0369 8.09866 61.6841 7.81466C61.3312 7.53066 60.8693 7.29829 60.2982 7.11757C59.7272 6.93038 59.0151 6.83679 58.1618 6.83679C57.3598 6.83679 56.6669 6.93684 56.083 7.13693C55.4992 7.33702 55.0084 7.58552 54.6106 7.88243C54.2192 8.17935 53.9145 8.49885 53.6963 8.84094C53.4782 9.18303 53.3371 9.49931 53.2729 9.78976H62.7523Z" fill="#2A2ADD"/>
<path d="M81.215 7.34993C81.1188 7.31766 80.9777 7.2757 80.7916 7.22407C80.6119 7.16597 80.4002 7.11111 80.1564 7.05947C79.9126 7.00138 79.6432 6.95297 79.348 6.91425C79.0593 6.87552 78.761 6.85615 78.453 6.85615C77.8114 6.85615 77.2116 6.93684 76.6534 7.0982C76.1016 7.25311 75.5851 7.46289 75.1039 7.72752C74.6228 7.98571 74.1737 8.28262 73.7566 8.61826C73.346 8.94744 72.9675 9.28631 72.621 9.63486V17.6418H69.0506V4.33887H72.621V6.49793C73.0509 6.1752 73.4904 5.86538 73.9395 5.56846C74.395 5.2651 74.8666 4.99723 75.3542 4.76487C75.8482 4.5325 76.3679 4.34855 76.9132 4.213C77.4586 4.071 78.036 4 78.6455 4C78.8765 4 79.1106 4.01291 79.348 4.03873C79.5918 4.05809 79.826 4.08391 80.0506 4.11618C80.2815 4.14846 80.4965 4.18396 80.6954 4.22268C80.8942 4.26141 81.0675 4.30014 81.215 4.33887V7.34993Z" fill="#2A2ADD"/>
<path d="M94.6979 17.6418V16.3347C94.2424 16.5864 93.7516 16.8091 93.2255 17.0028C92.7058 17.1964 92.1637 17.361 91.5991 17.4965C91.0345 17.6321 90.4506 17.7321 89.8476 17.7967C89.2509 17.8677 88.6478 17.9032 88.0383 17.9032C87.3261 17.9032 86.6364 17.8354 85.9692 17.6999C85.3083 17.5643 84.7213 17.3449 84.208 17.0415C83.6948 16.7381 83.2809 16.3412 82.9666 15.8506C82.6586 15.3601 82.5046 14.7598 82.5046 14.0498C82.5046 13.1526 82.7484 12.4071 83.236 11.8133C83.7236 11.213 84.4679 10.7225 85.4687 10.3416C86.4696 9.96081 87.7335 9.66713 89.2605 9.46058C90.7939 9.25403 92.6064 9.09267 94.6979 8.97649V8.69571C94.6979 8.47626 94.6402 8.26003 94.5247 8.04703C94.4092 7.82757 94.1975 7.63716 93.8895 7.4758C93.588 7.30798 93.171 7.17243 92.6384 7.06916C92.1123 6.96588 91.4387 6.91425 90.6175 6.91425C89.9695 6.91425 89.3279 6.94975 88.6927 7.02075C88.0639 7.08529 87.4544 7.17566 86.8642 7.29184C86.2803 7.40802 85.7254 7.54357 85.1993 7.69848C84.6732 7.85339 84.1952 8.01475 83.7653 8.18257V4.98755C84.2144 4.87137 84.7181 4.75841 85.2763 4.64869C85.8344 4.53896 86.4151 4.44537 87.0182 4.36791C87.6213 4.284 88.2308 4.21946 88.8467 4.17427C89.4626 4.12264 90.0529 4.09682 90.6175 4.09682C91.7274 4.09682 92.7507 4.19041 93.6874 4.37759C94.6241 4.55832 95.4293 4.84232 96.103 5.2296C96.7831 5.61687 97.3124 6.10742 97.6909 6.70124C98.0759 7.29507 98.2683 8.00184 98.2683 8.82158V17.6418H94.6979ZM94.6979 11.5712C93.3249 11.6229 92.1573 11.6971 91.1949 11.7939C90.2389 11.8907 89.4434 12.0037 88.8082 12.1328C88.173 12.2619 87.6726 12.4006 87.3069 12.5491C86.9476 12.6976 86.6781 12.8492 86.4985 13.0041C86.3188 13.1591 86.2066 13.314 86.1616 13.4689C86.1232 13.6238 86.1039 13.7658 86.1039 13.8949C86.1039 14.0498 86.1456 14.2015 86.229 14.3499C86.3124 14.4919 86.4568 14.6178 86.6621 14.7275C86.8738 14.8373 87.1529 14.9244 87.4994 14.9889C87.8458 15.0535 88.2821 15.0858 88.8082 15.0858C89.392 15.0858 89.963 15.0406 90.5212 14.9502C91.0794 14.8598 91.6087 14.7372 92.1091 14.5823C92.6096 14.4209 93.0779 14.2337 93.5142 14.0207C93.9569 13.8013 94.3515 13.5689 94.6979 13.3237V11.5712Z" fill="#2A2ADD"/>
<path d="M116.51 16.7141C116.049 16.9075 115.586 17.0815 115.119 17.2362C114.653 17.3909 114.17 17.523 113.672 17.6326C113.173 17.7486 112.646 17.8356 112.09 17.8936C111.54 17.9517 110.949 17.9807 110.316 17.9807C108.974 17.9807 107.737 17.8356 106.606 17.5456C105.481 17.2555 104.51 16.8204 103.691 16.2403C102.88 15.6538 102.247 14.9254 101.793 14.0552C101.339 13.1786 101.113 12.157 101.113 10.9903C101.113 9.82367 101.339 8.80525 101.793 7.93508C102.247 7.05847 102.88 6.33011 103.691 5.75C104.51 5.16344 105.481 4.72514 106.606 4.43508C107.737 4.14503 108.974 4 110.316 4C110.949 4 111.54 4.02901 112.09 4.08702C112.646 4.14503 113.173 4.23204 113.672 4.34807C114.17 4.45764 114.653 4.58978 115.119 4.74448C115.586 4.89917 116.049 5.0732 116.51 5.26657V8.49586C116.145 8.29604 115.762 8.09945 115.359 7.90608C114.956 7.70626 114.512 7.52901 114.026 7.37431C113.541 7.21317 113.007 7.08425 112.425 6.98757C111.844 6.88444 111.189 6.83287 110.46 6.83287C109.342 6.83287 108.412 6.9489 107.67 7.18094C106.935 7.41298 106.347 7.72238 105.906 8.10912C105.465 8.49586 105.155 8.94061 104.976 9.44337C104.797 9.93969 104.708 10.4553 104.708 10.9903C104.708 11.3448 104.746 11.6961 104.823 12.0442C104.899 12.3858 105.027 12.7113 105.206 13.0207C105.385 13.3237 105.619 13.6041 105.906 13.8619C106.194 14.1197 106.552 14.3421 106.98 14.529C107.408 14.7159 107.907 14.8642 108.476 14.9738C109.051 15.0769 109.712 15.1285 110.46 15.1285C111.189 15.1285 111.844 15.0833 112.425 14.9931C113.007 14.8964 113.541 14.7707 114.026 14.616C114.512 14.4613 114.956 14.2873 115.359 14.0939C115.762 13.8941 116.145 13.6911 116.51 13.4848V16.7141Z" fill="#2A2ADD"/>
<path d="M123.384 11.9378C123.384 12.4922 123.435 12.9466 123.537 13.3011C123.639 13.6492 123.805 13.9263 124.036 14.1326C124.266 14.3389 124.563 14.4807 124.927 14.558C125.298 14.6354 125.752 14.674 126.289 14.674H133.038V17.6229H125.56C124.524 17.6229 123.642 17.5391 122.914 17.3715C122.192 17.1975 121.6 16.9332 121.14 16.5787C120.68 16.2178 120.344 15.7634 120.134 15.2155C119.929 14.6676 119.827 14.0166 119.827 13.2624V4.3384H123.384V11.9378Z" fill="#2A2ADD"/>
<path d="M152.941 10.9903C152.941 12.1312 152.733 13.14 152.318 14.0166C151.902 14.8867 151.308 15.6151 150.535 16.2017C149.761 16.7882 148.822 17.233 147.716 17.5359C146.617 17.8324 145.38 17.9807 144.006 17.9807C142.632 17.9807 141.388 17.8324 140.276 17.5359C139.171 17.233 138.228 16.7882 137.448 16.2017C136.668 15.6151 136.068 14.8867 135.646 14.0166C135.224 13.14 135.013 12.1312 135.013 10.9903C135.013 9.84945 135.224 8.84392 135.646 7.97376C136.068 7.09715 136.668 6.36556 137.448 5.77901C138.228 5.19245 139.171 4.75092 140.276 4.45442C141.388 4.15147 142.632 4 144.006 4C145.38 4 146.617 4.15147 147.716 4.45442C148.822 4.75092 149.761 5.19245 150.535 5.77901C151.308 6.36556 151.902 7.09715 152.318 7.97376C152.733 8.84392 152.941 9.84945 152.941 10.9903ZM149.346 10.9903C149.346 10.494 149.266 10.0009 149.106 9.51105C148.953 9.01473 148.675 8.56998 148.272 8.1768C147.876 7.78361 147.332 7.46455 146.642 7.21961C145.952 6.97468 145.073 6.85221 144.006 6.85221C143.29 6.85221 142.66 6.91022 142.117 7.02624C141.574 7.13582 141.104 7.29052 140.708 7.49033C140.311 7.69015 139.979 7.92541 139.711 8.19613C139.442 8.46041 139.228 8.74724 139.068 9.05663C138.909 9.35958 138.793 9.67864 138.723 10.0138C138.659 10.3425 138.627 10.668 138.627 10.9903C138.627 11.3191 138.659 11.651 138.723 11.9862C138.793 12.3214 138.909 12.6436 139.068 12.953C139.228 13.256 139.442 13.5396 139.711 13.8039C139.979 14.0681 140.311 14.3002 140.708 14.5C141.104 14.6934 141.574 14.8481 142.117 14.9641C142.66 15.0737 143.29 15.1285 144.006 15.1285C145.073 15.1285 145.952 15.006 146.642 14.7611C147.332 14.5161 147.876 14.1971 148.272 13.8039C148.675 13.4107 148.953 12.9692 149.106 12.4793C149.266 11.983 149.346 11.4866 149.346 10.9903Z" fill="#2A2ADD"/>
<path d="M159.185 4.3384V11.8218C159.185 12.3181 159.226 12.7693 159.309 13.1754C159.392 13.575 159.546 13.9199 159.77 14.2099C159.993 14.4936 160.306 14.7159 160.709 14.8771C161.112 15.0318 161.636 15.1091 162.281 15.1091C162.767 15.1091 163.275 15.0414 163.806 14.9061C164.343 14.7707 164.873 14.5902 165.397 14.3646C165.921 14.139 166.42 13.8812 166.893 13.5912C167.372 13.2947 167.8 12.9885 168.178 12.6727V4.3384H171.725V17.6229H168.178V15.8052C167.73 16.0631 167.254 16.3241 166.749 16.5884C166.244 16.8462 165.707 17.0815 165.138 17.2942C164.57 17.5005 163.966 17.668 163.326 17.797C162.687 17.9323 162.013 18 161.304 18C160.415 18 159.619 17.8904 158.916 17.6713C158.213 17.4586 157.619 17.1556 157.133 16.7624C156.647 16.3628 156.273 15.8826 156.011 15.3218C155.756 14.7546 155.628 14.1229 155.628 13.4268V4.3384H159.185Z" fill="#2A2ADD"/>
<path d="M191 10.971C191 11.8218 190.907 12.5792 190.722 13.2431C190.537 13.9006 190.275 14.4742 189.936 14.9641C189.603 15.454 189.201 15.8697 188.728 16.2113C188.261 16.5529 187.74 16.8269 187.165 17.0331C186.59 17.2394 185.97 17.3909 185.305 17.4876C184.64 17.5778 183.947 17.6229 183.225 17.6229H174.865V4.3384H183.206C183.928 4.3384 184.621 4.38674 185.286 4.48343C185.951 4.57366 186.571 4.72192 187.146 4.92818C187.728 5.13444 188.255 5.40838 188.728 5.75C189.201 6.08518 189.603 6.50092 189.936 6.99724C190.275 7.48711 190.537 8.06077 190.722 8.71823C190.907 9.37569 191 10.1266 191 10.971ZM187.414 10.971C187.414 10.3329 187.331 9.77854 187.165 9.30801C187.005 8.83748 186.743 8.45074 186.379 8.14779C186.021 7.8384 185.551 7.60958 184.97 7.46133C184.388 7.30663 183.679 7.22928 182.841 7.22928H178.422V14.732H182.841C183.679 14.732 184.388 14.6579 184.97 14.5097C185.551 14.355 186.021 14.1229 186.379 13.8135C186.743 13.4977 187.005 13.1045 187.165 12.634C187.331 12.1634 187.414 11.6091 187.414 10.971Z" fill="#2A2ADD"/>
</svg>
