<?xml version="1.0" encoding="UTF-8"?>
<svg width="198px" height="156px" viewBox="0 0 198 156" version="1.1" xmlns="http://www.w3.org/2000/svg" xmlns:xlink="http://www.w3.org/1999/xlink">
    <!-- Generator: Sketch 41.2 (35397) - http://www.bohemiancoding.com/sketch -->
    <title>wolframCorporateLogo</title>
    <desc>Created with Sketch.</desc>
    <defs></defs>
    <g id="Page-1" stroke="none" stroke-width="1" fill="none" fill-rule="evenodd">
        <g id="wolframCorporateLogo">
            <g id="corporateSpikey" transform="translate(44.000000, 0.000000)" fill="#DD1100">
                <path d="M93.93215,58.45772 L109.80159,40.653 L86.49928,35.57285 L88.87362,11.83973 L67.03462,21.42563 L54.99923,0.83117 L42.97208,21.42355 L21.13668,11.83148 L23.50587,35.5646 L0.201,40.64064 L16.06785,58.44949 L0.19841,76.25422 L23.50072,81.33437 L21.1269,105.06647 L42.96539,95.48057 L55.00026,116.075 L67.02741,95.48365 L88.86384,105.07465 L86.49516,81.34153 L109.79902,76.26553 L93.93215,58.45772 Z M101.63015,71.85172 L87.8839,67.1499 L78.76381,55.29633 L90.89493,59.80317 L101.63015,71.85172 Z M64.802,93.02285 L56.58091,107.09785 L56.58091,92.17285 L65.12646,79.70408 L64.802,93.02285 Z M50.40155,34.66753 L36.25554,29.637 L27.79154,18.20929 L42.62654,24.72573 L50.40155,34.66753 Z M67.38,24.72874 L82.21359,18.21654 L73.74459,29.63698 L59.60212,34.66611 L67.38,24.72874 Z M83.25407,36.24574 L75.87707,46.70683 L76.29527,31.50722 L84.88715,19.921 L83.25407,36.24574 Z M54.99976,88.88614 L45.10206,74.44477 L54.99974,61.01459 L64.89742,74.44477 L54.99976,88.88614 Z M37.39729,50.74967 L36.91552,33.22783 L53.41852,39.09632 L53.41852,56.14791 L37.39729,50.74967 Z M56.58092,39.09633 L73.08447,33.22784 L72.60219,50.74968 L56.58092,56.14792 L56.58092,39.09633 Z M26.75142,36.23939 L25.12186,19.9181 L33.70466,31.50627 L34.12241,46.70247 L26.75142,36.23939 Z M52.44114,59.1565 L42.54714,72.58166 L25.73869,67.62666 L36.41176,53.75549 L52.44114,59.1565 Z M44.871,79.70108 L53.4186,92.17287 L53.4186,107.10087 L45.1905,93.02017 L44.871,79.70108 Z M57.55835,59.1565 L73.58779,53.7555 L84.26133,67.62672 L67.45233,72.58172 L57.55835,59.1565 Z M103.83923,42.59035 L91.35258,56.59935 L76.62837,51.12911 L85.4738,38.58564 L103.83923,42.59035 Z M55.00023,7.1003 L64.47343,23.311 L55.00013,35.41458 L45.53326,23.30937 L55.00023,7.1003 Z M6.16335,42.578 L24.531,38.57872 L33.37173,51.12817 L18.64839,56.59133 L6.16335,42.578 Z M19.10442,59.79519 L31.23856,55.29273 L22.11719,67.14842 L8.36513,71.84376 L19.10442,59.79519 Z M9.06,74.94905 L23.11406,70.15063 L37.752,74.46529 L25.13969,78.45536 L9.06,74.94905 Z M26.68388,81.2829 L41.6323,76.55365 L42.0135,92.4438 L24.8122,99.99558 L26.68388,81.2829 Z M67.97918,92.44759 L68.36637,76.55441 L83.31165,81.28868 L85.17958,100.00174 L67.97918,92.44759 Z M84.85596,78.46114 L72.24449,74.46614 L86.8868,70.15026 L100.94325,74.9582 L84.85596,78.46114 Z" id="Shape"></path>
            </g>
            <path d="M0,128.186 L6.82461,128.186 L10.03739,145.91637 L14.77073,128.186 L20.77185,128.186 L26.39069,146.22611 L29.67722,128.186 L36.16208,128.186 L30.61418,154.71557 L23.12686,154.71557 L18.14849,138.1637 L13.05508,154.71553 L5.20028,154.71553 L0,128.186 Z M198,154.71557 L191.175,154.71557 L187.96844,136.92128 L183.22967,154.71557 L177.22695,154.71557 L171.63151,136.67946 L168.32357,154.71557 L161.8372,154.71557 L167.3858,128.186 L174.8724,128.186 L179.84988,144.75117 L184.9476,128.186 L192.7993,128.186 L198,154.71557 Z M50.45493,127.72683 C59.09035,127.72683 63.59513,132.93683 63.59513,141.45015 C63.59513,149.88784 59.01582,155.16883 50.45493,155.16883 C41.89756,155.16883 37.31825,149.88783 37.31825,141.45015 C37.31825,132.93688 41.82223,127.72683 50.45493,127.72683 Z M50.45493,149.92451 C54.6983,149.92451 56.38583,145.81959 56.38583,141.45015 C56.38583,136.84751 54.69831,132.97275 50.45493,132.97275 C46.21236,132.97275 44.52403,136.84751 44.52403,141.45015 C44.524,145.81959 46.21236,149.92451 50.45493,149.92451 Z M67.49953,128.182 L74.4829,128.182 L74.4829,149.4677 L85.29421,149.4677 L85.29421,154.7101 L67.49953,154.7101 L67.49953,128.182 Z M88.1848,128.182 L105.70953,128.182 L105.70953,133.20015 L95.16577,133.20015 L95.16577,139.01752 L105.26015,139.01752 L105.26015,144.03136 L95.16577,144.03136 L95.16577,154.71006 L88.18477,154.71006 L88.1848,128.182 Z M109.3608,128.182 L121.82337,128.182 C126.47946,128.182 130.27113,130.30916 130.27113,134.874 C130.27113,138.40978 128.61876,140.76471 125.24059,141.5625 L125.24059,141.63967 C127.49059,142.24827 127.64353,144.26343 128.95733,147.49379 L131.50695,154.71004 L124.22631,154.71004 L122.72685,149.92445 C121.29753,145.36463 120.39877,144.22252 117.80856,144.22252 L116.34185,144.22252 L116.34185,154.7101 L109.3608,154.7101 L109.3608,128.182 Z M116.34185,139.2079 L118.1846,139.2079 C120.4346,139.2079 123.2886,139.13065 123.2886,136.12701 C123.2886,133.65808 120.84819,133.20015 118.1846,133.20015 L116.34185,133.20015 L116.34185,139.2079 Z M142.08458,128.182 L150.64626,128.182 L160.74335,154.71005 L153.08515,154.71005 L151.13315,149.05062 L141.2997,149.05062 L139.23382,154.71005 L132.13733,154.71005 L142.08458,128.182 Z M146.36622,133.65808 L146.29288,133.65808 L142.91472,144.03136 L149.48072,144.03136 L146.36622,133.65808 Z" id="wolframText" fill="#333333"></path>
        </g>
    </g>
</svg>