<svg width="22" height="22" viewBox="0 0 22 22" fill="none" xmlns="http://www.w3.org/2000/svg">
<circle cx="11" cy="11.0001" r="7.50208" stroke="#EBEBEA"/>
<path fill-rule="evenodd" clip-rule="evenodd" d="M13.1852 3.98145C16.0959 6.40578 13.0826 11.7788 14.146 13.9483C11.9608 10.8127 14.938 8.11812 13.1852 3.98145Z" fill="#EBEBEA"/>
<path fill-rule="evenodd" clip-rule="evenodd" d="M14.7992 8.64771C16.7018 9.88392 14.418 12.7805 15.6338 13.5219C16.8651 14.2728 16.7257 11.152 18.4259 11.9526C16.6557 11.3504 17.39 15.0659 15.1967 14.5714C12.6866 14.0056 15.8082 10.0131 14.7992 8.64771Z" fill="#EBEBEA"/>
<path fill-rule="evenodd" clip-rule="evenodd" d="M3.77148 12.8807C7.39508 9.99367 12.3309 14.6266 14.66 14.9161C17.6554 15.2883 16.8575 11.825 18.3568 11.954C16.9753 12.1206 17.8045 15.7427 14.7159 15.8546C11.3522 15.9765 7.99632 10.8482 3.77149 12.8807H3.77148Z" fill="#EBEBEA"/>
</svg>
