<svg width="736" height="64" viewBox="0 0 736 64" fill="none" xmlns="http://www.w3.org/2000/svg">
<rect width="304" height="64" rx="6" fill="white"/>
<path d="M21.1186 38.5C21.06 38.3828 21.0102 38.248 20.9691 38.0957C20.9281 37.9434 20.893 37.7822 20.8637 37.6123C20.7289 37.7588 20.5736 37.8965 20.3979 38.0254C20.2221 38.1543 20.0287 38.2656 19.8178 38.3594C19.601 38.459 19.3637 38.5352 19.1059 38.5879C18.8481 38.6465 18.5697 38.6758 18.2709 38.6758C17.7846 38.6758 17.3363 38.6055 16.9262 38.4648C16.5219 38.3242 16.1732 38.1279 15.8803 37.876C15.5873 37.624 15.3588 37.3252 15.1947 36.9795C15.0307 36.6279 14.9486 36.2471 14.9486 35.8369C14.9486 35.3096 15.0512 34.8438 15.2563 34.4395C15.4613 34.0293 15.769 33.6924 16.1791 33.4287C16.5482 33.1885 17.0023 33.0068 17.5414 32.8838C18.0863 32.7549 18.7104 32.6904 19.4135 32.6904H20.7758V32.1279C20.7758 31.9053 20.7406 31.7061 20.6703 31.5303C20.6 31.3486 20.4945 31.1934 20.3539 31.0645C20.2074 30.9297 20.0229 30.8271 19.8002 30.7568C19.5834 30.6807 19.3285 30.6426 19.0356 30.6426C18.7777 30.6426 18.5551 30.6748 18.3676 30.7393C18.1801 30.7979 18.0277 30.8828 17.9106 30.9941C17.8051 31.0938 17.726 31.2139 17.6732 31.3545C17.6264 31.4951 17.6029 31.6504 17.6029 31.8203H15.1596C15.1596 31.416 15.2475 31.0322 15.4232 30.6689C15.6049 30.3057 15.8686 29.9863 16.2143 29.7109C16.5541 29.4355 16.9701 29.2188 17.4623 29.0605C17.9604 28.8965 18.5287 28.8145 19.1674 28.8145C19.7416 28.8145 20.2748 28.8848 20.767 29.0254C21.265 29.166 21.6957 29.374 22.059 29.6494C22.4223 29.9248 22.7065 30.2734 22.9115 30.6953C23.1166 31.1113 23.2191 31.5947 23.2191 32.1455V36.2236C23.2191 36.7334 23.2514 37.1553 23.3158 37.4893C23.3803 37.8232 23.474 38.1104 23.5971 38.3506V38.5H21.1186ZM18.7895 36.7861C19.0356 36.7861 19.2641 36.7568 19.475 36.6982C19.6859 36.6396 19.8764 36.5635 20.0463 36.4697C20.2162 36.376 20.3627 36.2705 20.4857 36.1533C20.6088 36.0303 20.7055 35.9072 20.7758 35.7842V34.1494H19.5277C19.1469 34.1494 18.8217 34.1875 18.5522 34.2637C18.2826 34.334 18.0629 34.4336 17.893 34.5625C17.7231 34.6973 17.5971 34.8584 17.515 35.0459C17.433 35.2275 17.392 35.4268 17.392 35.6436C17.392 35.8135 17.4213 35.9717 17.4799 36.1182C17.5443 36.2588 17.6352 36.3789 17.7523 36.4785C17.8695 36.5723 18.0131 36.6484 18.183 36.707C18.3588 36.7598 18.5609 36.7861 18.7895 36.7861ZM26.2995 25H31.6168V36.5137H34.3415V38.5H26.2995V36.5137H29.1471V26.9951H26.2995V25ZM37.0526 28.9902H42.2294V36.5137H44.8046V38.5H37.0526V36.5137H39.7597V30.9854H37.0526V28.9902ZM39.5839 26.5557C39.5839 26.3682 39.6161 26.1953 39.6806 26.0371C39.7509 25.873 39.8476 25.7324 39.9706 25.6152C40.0937 25.5039 40.2401 25.416 40.4101 25.3516C40.5858 25.2871 40.7792 25.2549 40.9901 25.2549C41.4237 25.2549 41.7665 25.3779 42.0185 25.624C42.2763 25.8643 42.4052 26.1748 42.4052 26.5557C42.4052 26.9365 42.2763 27.25 42.0185 27.4961C41.7665 27.7363 41.4237 27.8564 40.9901 27.8564C40.7792 27.8564 40.5858 27.8242 40.4101 27.7598C40.2401 27.6953 40.0937 27.6045 39.9706 27.4873C39.8476 27.376 39.7509 27.2412 39.6806 27.083C39.6161 26.9189 39.5839 26.7432 39.5839 26.5557ZM51.2248 36.7246C51.465 36.7246 51.6935 36.6895 51.9103 36.6191C52.1271 36.5488 52.3175 36.4492 52.4816 36.3203C52.6457 36.1914 52.7716 36.0361 52.8595 35.8545C52.9533 35.6729 52.9943 35.4707 52.9826 35.248H55.2853C55.297 35.7402 55.1945 36.1973 54.9777 36.6191C54.7667 37.041 54.4767 37.4043 54.1076 37.709C53.7384 38.0137 53.3078 38.2539 52.8156 38.4297C52.3292 38.5996 51.8136 38.6846 51.2687 38.6846C50.5304 38.6846 49.883 38.5615 49.3263 38.3154C48.7697 38.0635 48.3068 37.7207 47.9376 37.2871C47.5626 36.8535 47.2785 36.3467 47.0851 35.7666C46.8976 35.1807 46.8039 34.5537 46.8039 33.8857V33.6221C46.8039 32.9541 46.8976 32.3301 47.0851 31.75C47.2726 31.1641 47.5539 30.6543 47.9289 30.2207C48.3039 29.7871 48.7667 29.4443 49.3175 29.1924C49.8742 28.9404 50.5187 28.8145 51.2511 28.8145C51.8371 28.8145 52.3791 28.9023 52.8771 29.0781C53.3751 29.2539 53.8058 29.5 54.1691 29.8164C54.5265 30.1387 54.8048 30.5283 55.0041 30.9854C55.2033 31.4365 55.297 31.9434 55.2853 32.5059H52.9826C52.9943 32.2715 52.9591 32.0488 52.8771 31.8379C52.7951 31.627 52.6749 31.4453 52.5167 31.293C52.3585 31.1406 52.1681 31.0205 51.9455 30.9326C51.7228 30.8389 51.4796 30.792 51.216 30.792C50.8292 30.792 50.5099 30.8711 50.258 31.0293C50.006 31.1875 49.8068 31.3984 49.6603 31.6621C49.508 31.9258 49.3996 32.2275 49.3351 32.5674C49.2765 32.9072 49.2472 33.2588 49.2472 33.6221V33.8857C49.2472 34.2549 49.2765 34.6123 49.3351 34.958C49.3937 35.2979 49.4992 35.5967 49.6515 35.8545C49.798 36.1182 49.9972 36.3291 50.2492 36.4873C50.507 36.6455 50.8322 36.7246 51.2248 36.7246ZM62.2416 38.6758C61.5092 38.6758 60.8441 38.5557 60.2465 38.3154C59.6488 38.0752 59.1361 37.7471 58.7084 37.3311C58.2807 36.9209 57.9496 36.4375 57.7152 35.8809C57.4867 35.3184 57.3725 34.7178 57.3725 34.0791V33.7275C57.3725 33.001 57.4867 32.3389 57.7152 31.7412C57.9437 31.1377 58.2631 30.6191 58.6732 30.1855C59.0834 29.752 59.5697 29.415 60.1322 29.1748C60.6947 28.9346 61.307 28.8145 61.9691 28.8145C62.6547 28.8145 63.2641 28.9287 63.7973 29.1572C64.3363 29.3799 64.7934 29.6963 65.1684 30.1064C65.5375 30.5166 65.8187 31.0117 66.0121 31.5918C66.2055 32.166 66.3021 32.8018 66.3021 33.499V34.5361H59.851V34.5625C59.933 34.9434 60.0385 35.251 60.1674 35.4854C60.2963 35.7139 60.4691 35.9219 60.6859 36.1094C60.9086 36.3027 61.1635 36.4521 61.4506 36.5576C61.7377 36.6631 62.0512 36.7158 62.391 36.7158C62.8715 36.7158 63.3373 36.625 63.7885 36.4434C64.2396 36.2617 64.6059 35.9893 64.8871 35.626L66.1088 36.9443C65.7982 37.3838 65.3061 37.7822 64.6322 38.1396C63.9584 38.4971 63.1615 38.6758 62.2416 38.6758ZM61.9516 30.792C61.6762 30.792 61.4242 30.8418 61.1957 30.9414C60.9672 31.0352 60.768 31.1729 60.598 31.3545C60.4223 31.5361 60.2758 31.7529 60.1586 32.0049C60.0414 32.2568 59.9535 32.5381 59.8949 32.8486H63.9027V32.6553C63.9027 32.3975 63.8559 32.1543 63.7621 31.9258C63.6684 31.6973 63.5395 31.498 63.3754 31.3281C63.2113 31.1641 63.0092 31.0352 62.7689 30.9414C62.5346 30.8418 62.2621 30.792 61.9516 30.792ZM70.7096 37.085C70.7096 36.6338 70.859 36.2529 71.1579 35.9424C71.4567 35.626 71.8727 35.4678 72.4059 35.4678C72.9332 35.4678 73.3463 35.623 73.6452 35.9336C73.9498 36.2441 74.1022 36.6279 74.1022 37.085C74.1022 37.542 73.9469 37.9229 73.6364 38.2275C73.3317 38.5264 72.9215 38.6758 72.4059 38.6758C71.8844 38.6758 71.4713 38.5234 71.1666 38.2188C70.862 37.9141 70.7096 37.5361 70.7096 37.085ZM83.0624 36.7246C83.3026 36.7246 83.5311 36.6895 83.7479 36.6191C83.9647 36.5488 84.1552 36.4492 84.3192 36.3203C84.4833 36.1914 84.6093 36.0361 84.6972 35.8545C84.7909 35.6729 84.8319 35.4707 84.8202 35.248H87.1229C87.1347 35.7402 87.0321 36.1973 86.8153 36.6191C86.6044 37.041 86.3143 37.4043 85.9452 37.709C85.5761 38.0137 85.1454 38.2539 84.6532 38.4297C84.1669 38.5996 83.6513 38.6846 83.1063 38.6846C82.3681 38.6846 81.7206 38.5615 81.164 38.3154C80.6073 38.0635 80.1444 37.7207 79.7753 37.2871C79.4003 36.8535 79.1161 36.3467 78.9227 35.7666C78.7352 35.1807 78.6415 34.5537 78.6415 33.8857V33.6221C78.6415 32.9541 78.7352 32.3301 78.9227 31.75C79.1102 31.1641 79.3915 30.6543 79.7665 30.2207C80.1415 29.7871 80.6044 29.4443 81.1552 29.1924C81.7118 28.9404 82.3563 28.8145 83.0888 28.8145C83.6747 28.8145 84.2167 28.9023 84.7147 29.0781C85.2128 29.2539 85.6434 29.5 86.0067 29.8164C86.3642 30.1387 86.6425 30.5283 86.8417 30.9854C87.0409 31.4365 87.1347 31.9434 87.1229 32.5059H84.8202C84.8319 32.2715 84.7968 32.0488 84.7147 31.8379C84.6327 31.627 84.5126 31.4453 84.3544 31.293C84.1962 31.1406 84.0058 31.0205 83.7831 30.9326C83.5604 30.8389 83.3173 30.792 83.0536 30.792C82.6669 30.792 82.3475 30.8711 82.0956 31.0293C81.8436 31.1875 81.6444 31.3984 81.4979 31.6621C81.3456 31.9258 81.2372 32.2275 81.1727 32.5674C81.1142 32.9072 81.0849 33.2588 81.0849 33.6221V33.8857C81.0849 34.2549 81.1142 34.6123 81.1727 34.958C81.2313 35.2979 81.3368 35.5967 81.4892 35.8545C81.6356 36.1182 81.8349 36.3291 82.0868 36.4873C82.3446 36.6455 82.6698 36.7246 83.0624 36.7246ZM89.131 33.6572C89.131 32.9658 89.2306 32.3271 89.4298 31.7412C89.629 31.1494 89.922 30.6367 90.3087 30.2031C90.6896 29.7695 91.1554 29.4297 91.7062 29.1836C92.2628 28.9375 92.8986 28.8145 93.6134 28.8145C94.3283 28.8145 94.964 28.9375 95.5206 29.1836C96.0773 29.4297 96.549 29.7695 96.9357 30.2031C97.3165 30.6367 97.6066 31.1494 97.8058 31.7412C98.005 32.3271 98.1046 32.9658 98.1046 33.6572V33.8418C98.1046 34.5391 98.005 35.1836 97.8058 35.7754C97.6066 36.3613 97.3165 36.8711 96.9357 37.3047C96.5548 37.7383 96.0861 38.0781 95.5294 38.3242C94.9728 38.5645 94.34 38.6846 93.631 38.6846C92.9162 38.6846 92.2775 38.5645 91.715 38.3242C91.1583 38.0781 90.6896 37.7383 90.3087 37.3047C89.922 36.8711 89.629 36.3613 89.4298 35.7754C89.2306 35.1836 89.131 34.5391 89.131 33.8418V33.6572ZM91.5744 33.8418C91.5744 34.2402 91.6124 34.6152 91.6886 34.9668C91.7648 35.3125 91.8849 35.6143 92.049 35.8721C92.213 36.1357 92.424 36.3438 92.6818 36.4961C92.9454 36.6484 93.2619 36.7246 93.631 36.7246C93.9884 36.7246 94.296 36.6484 94.5538 36.4961C94.8117 36.3438 95.0226 36.1357 95.1867 35.8721C95.3449 35.6143 95.4621 35.3125 95.5382 34.9668C95.6144 34.6152 95.6525 34.2402 95.6525 33.8418V33.6572C95.6525 33.2705 95.6144 32.9043 95.5382 32.5586C95.4621 32.2129 95.3449 31.9082 95.1867 31.6445C95.0226 31.3809 94.8117 31.1729 94.5538 31.0205C94.296 30.8682 93.9826 30.792 93.6134 30.792C93.2501 30.792 92.9396 30.8682 92.6818 31.0205C92.424 31.1729 92.213 31.3809 92.049 31.6445C91.8849 31.9082 91.7648 32.2129 91.6886 32.5586C91.6124 32.9043 91.5744 33.2705 91.5744 33.6572V33.8418ZM100.078 38.5V28.9902H102.292L102.442 30.3086C102.565 30.1328 102.7 29.9717 102.846 29.8252C102.993 29.6787 103.148 29.5469 103.312 29.4297C103.593 29.2305 103.901 29.0781 104.235 28.9727C104.569 28.8672 104.923 28.8145 105.298 28.8145C105.779 28.8145 106.218 28.8848 106.617 29.0254C107.015 29.166 107.361 29.3887 107.654 29.6934C107.941 30.0039 108.163 30.4023 108.322 30.8887C108.486 31.3691 108.568 31.9551 108.568 32.6465V38.5H106.124V32.6816C106.124 32.3066 106.08 31.999 105.993 31.7588C105.911 31.5127 105.79 31.3193 105.632 31.1787C105.474 31.0381 105.284 30.9414 105.061 30.8887C104.838 30.8301 104.586 30.8008 104.305 30.8008C104.071 30.8008 103.854 30.8271 103.655 30.8799C103.461 30.9326 103.288 31.0117 103.136 31.1172C103.013 31.1934 102.902 31.2842 102.802 31.3896C102.703 31.4951 102.612 31.6123 102.53 31.7412V38.5H100.078ZM115.173 26.6611V28.9902H118.723V30.792H115.173V34.8789C115.173 35.2246 115.211 35.5146 115.287 35.749C115.369 35.9775 115.483 36.1592 115.63 36.2939C115.776 36.4346 115.952 36.5342 116.157 36.5928C116.368 36.6514 116.602 36.6807 116.86 36.6807C117.048 36.6807 117.238 36.6719 117.431 36.6543C117.631 36.6367 117.821 36.6133 118.003 36.584C118.178 36.5605 118.342 36.5342 118.495 36.5049C118.653 36.4756 118.788 36.4463 118.899 36.417L119.136 38.0957C118.966 38.1953 118.767 38.2832 118.539 38.3594C118.31 38.4297 118.067 38.4883 117.809 38.5352C117.551 38.582 117.282 38.6172 117.001 38.6406C116.725 38.6699 116.453 38.6846 116.183 38.6846C115.662 38.6846 115.187 38.6172 114.759 38.4824C114.338 38.3418 113.977 38.125 113.678 37.832C113.374 37.5449 113.139 37.1787 112.975 36.7334C112.811 36.2822 112.729 35.7432 112.729 35.1162V30.792H110.558V28.9902H112.729V26.6611H115.173ZM128.132 28.8145C128.501 28.8145 128.841 28.8408 129.151 28.8936C129.468 28.9404 129.723 28.9932 129.916 29.0518L129.556 31.4863C129.233 31.4102 128.902 31.3545 128.562 31.3193C128.228 31.2783 127.909 31.2578 127.604 31.2578C127.288 31.2578 127.001 31.2871 126.743 31.3457C126.491 31.3984 126.266 31.4805 126.066 31.5918C125.826 31.7207 125.621 31.8848 125.451 32.084C125.281 32.2832 125.141 32.5176 125.029 32.7871V38.5H122.586V28.9902H124.862L124.959 30.335L124.976 30.5459C125.363 30.0068 125.826 29.585 126.365 29.2803C126.904 28.9697 127.493 28.8145 128.132 28.8145ZM137.857 38.5C137.798 38.3828 137.748 38.248 137.707 38.0957C137.666 37.9434 137.631 37.7822 137.602 37.6123C137.467 37.7588 137.312 37.8965 137.136 38.0254C136.96 38.1543 136.767 38.2656 136.556 38.3594C136.339 38.459 136.102 38.5352 135.844 38.5879C135.586 38.6465 135.308 38.6758 135.009 38.6758C134.523 38.6758 134.074 38.6055 133.664 38.4648C133.26 38.3242 132.911 38.1279 132.618 37.876C132.325 37.624 132.097 37.3252 131.933 36.9795C131.769 36.6279 131.687 36.2471 131.687 35.8369C131.687 35.3096 131.789 34.8438 131.994 34.4395C132.199 34.0293 132.507 33.6924 132.917 33.4287C133.286 33.1885 133.74 33.0068 134.279 32.8838C134.824 32.7549 135.448 32.6904 136.151 32.6904H137.514V32.1279C137.514 31.9053 137.479 31.7061 137.408 31.5303C137.338 31.3486 137.233 31.1934 137.092 31.0645C136.945 30.9297 136.761 30.8271 136.538 30.7568C136.321 30.6807 136.067 30.6426 135.774 30.6426C135.516 30.6426 135.293 30.6748 135.106 30.7393C134.918 30.7979 134.766 30.8828 134.649 30.9941C134.543 31.0938 134.464 31.2139 134.411 31.3545C134.364 31.4951 134.341 31.6504 134.341 31.8203H131.898C131.898 31.416 131.985 31.0322 132.161 30.6689C132.343 30.3057 132.607 29.9863 132.952 29.7109C133.292 29.4355 133.708 29.2188 134.2 29.0605C134.698 28.8965 135.267 28.8145 135.905 28.8145C136.48 28.8145 137.013 28.8848 137.505 29.0254C138.003 29.166 138.434 29.374 138.797 29.6494C139.16 29.9248 139.444 30.2734 139.65 30.6953C139.855 31.1113 139.957 31.5947 139.957 32.1455V36.2236C139.957 36.7334 139.989 37.1553 140.054 37.4893C140.118 37.8232 140.212 38.1104 140.335 38.3506V38.5H137.857ZM135.527 36.7861C135.774 36.7861 136.002 36.7568 136.213 36.6982C136.424 36.6396 136.614 36.5635 136.784 36.4697C136.954 36.376 137.101 36.2705 137.224 36.1533C137.347 36.0303 137.443 35.9072 137.514 35.7842V34.1494H136.266C135.885 34.1494 135.56 34.1875 135.29 34.2637C135.021 34.334 134.801 34.4336 134.631 34.5625C134.461 34.6973 134.335 34.8584 134.253 35.0459C134.171 35.2275 134.13 35.4268 134.13 35.6436C134.13 35.8135 134.159 35.9717 134.218 36.1182C134.282 36.2588 134.373 36.3789 134.49 36.4785C134.608 36.5723 134.751 36.6484 134.921 36.707C135.097 36.7598 135.299 36.7861 135.527 36.7861ZM146.738 36.7246C146.978 36.7246 147.206 36.6895 147.423 36.6191C147.64 36.5488 147.83 36.4492 147.995 36.3203C148.159 36.1914 148.285 36.0361 148.372 35.8545C148.466 35.6729 148.507 35.4707 148.495 35.248H150.798C150.81 35.7402 150.707 36.1973 150.491 36.6191C150.28 37.041 149.99 37.4043 149.62 37.709C149.251 38.0137 148.821 38.2539 148.328 38.4297C147.842 38.5996 147.327 38.6846 146.782 38.6846C146.043 38.6846 145.396 38.5615 144.839 38.3154C144.283 38.0635 143.82 37.7207 143.451 37.2871C143.076 36.8535 142.791 36.3467 142.598 35.7666C142.411 35.1807 142.317 34.5537 142.317 33.8857V33.6221C142.317 32.9541 142.411 32.3301 142.598 31.75C142.786 31.1641 143.067 30.6543 143.442 30.2207C143.817 29.7871 144.28 29.4443 144.83 29.1924C145.387 28.9404 146.032 28.8145 146.764 28.8145C147.35 28.8145 147.892 28.9023 148.39 29.0781C148.888 29.2539 149.319 29.5 149.682 29.8164C150.039 30.1387 150.318 30.5283 150.517 30.9854C150.716 31.4365 150.81 31.9434 150.798 32.5059H148.495C148.507 32.2715 148.472 32.0488 148.39 31.8379C148.308 31.627 148.188 31.4453 148.03 31.293C147.871 31.1406 147.681 31.0205 147.458 30.9326C147.236 30.8389 146.993 30.792 146.729 30.792C146.342 30.792 146.023 30.8711 145.771 31.0293C145.519 31.1875 145.32 31.3984 145.173 31.6621C145.021 31.9258 144.912 32.2275 144.848 32.5674C144.789 32.9072 144.76 33.2588 144.76 33.6221V33.8857C144.76 34.2549 144.789 34.6123 144.848 34.958C144.907 35.2979 145.012 35.5967 145.164 35.8545C145.311 36.1182 145.51 36.3291 145.762 36.4873C146.02 36.6455 146.345 36.7246 146.738 36.7246ZM157.623 26.6611V28.9902H161.173V30.792H157.623V34.8789C157.623 35.2246 157.661 35.5146 157.737 35.749C157.819 35.9775 157.933 36.1592 158.08 36.2939C158.226 36.4346 158.402 36.5342 158.607 36.5928C158.818 36.6514 159.052 36.6807 159.31 36.6807C159.498 36.6807 159.688 36.6719 159.881 36.6543C160.081 36.6367 160.271 36.6133 160.453 36.584C160.629 36.5605 160.793 36.5342 160.945 36.5049C161.103 36.4756 161.238 36.4463 161.349 36.417L161.587 38.0957C161.417 38.1953 161.217 38.2832 160.989 38.3594C160.76 38.4297 160.517 38.4883 160.259 38.5352C160.002 38.582 159.732 38.6172 159.451 38.6406C159.175 38.6699 158.903 38.6846 158.633 38.6846C158.112 38.6846 157.637 38.6172 157.21 38.4824C156.788 38.3418 156.427 38.125 156.129 37.832C155.824 37.5449 155.589 37.1787 155.425 36.7334C155.261 36.2822 155.179 35.7432 155.179 35.1162V30.792H153.008V28.9902H155.179V26.6611H157.623ZM163.419 33.6572C163.419 32.9658 163.518 32.3271 163.718 31.7412C163.917 31.1494 164.21 30.6367 164.597 30.2031C164.977 29.7695 165.443 29.4297 165.994 29.1836C166.551 28.9375 167.186 28.8145 167.901 28.8145C168.616 28.8145 169.252 28.9375 169.808 29.1836C170.365 29.4297 170.837 29.7695 171.224 30.2031C171.604 30.6367 171.894 31.1494 172.094 31.7412C172.293 32.3271 172.392 32.9658 172.392 33.6572V33.8418C172.392 34.5391 172.293 35.1836 172.094 35.7754C171.894 36.3613 171.604 36.8711 171.224 37.3047C170.843 37.7383 170.374 38.0781 169.817 38.3242C169.261 38.5645 168.628 38.6846 167.919 38.6846C167.204 38.6846 166.565 38.5645 166.003 38.3242C165.446 38.0781 164.977 37.7383 164.597 37.3047C164.21 36.8711 163.917 36.3613 163.718 35.7754C163.518 35.1836 163.419 34.5391 163.419 33.8418V33.6572ZM165.862 33.8418C165.862 34.2402 165.9 34.6152 165.976 34.9668C166.053 35.3125 166.173 35.6143 166.337 35.8721C166.501 36.1357 166.712 36.3438 166.97 36.4961C167.233 36.6484 167.55 36.7246 167.919 36.7246C168.276 36.7246 168.584 36.6484 168.842 36.4961C169.099 36.3438 169.31 36.1357 169.474 35.8721C169.633 35.6143 169.75 35.3125 169.826 34.9668C169.902 34.6152 169.94 34.2402 169.94 33.8418V33.6572C169.94 33.2705 169.902 32.9043 169.826 32.5586C169.75 32.2129 169.633 31.9082 169.474 31.6445C169.31 31.3809 169.099 31.1729 168.842 31.0205C168.584 30.8682 168.27 30.792 167.901 30.792C167.538 30.792 167.227 30.8682 166.97 31.0205C166.712 31.1729 166.501 31.3809 166.337 31.6445C166.173 31.9082 166.053 32.2129 165.976 32.5586C165.9 32.9043 165.862 33.2705 165.862 33.6572V33.8418ZM181.194 28.8145C181.564 28.8145 181.903 28.8408 182.214 28.8936C182.53 28.9404 182.785 28.9932 182.979 29.0518L182.618 31.4863C182.296 31.4102 181.965 31.3545 181.625 31.3193C181.291 31.2783 180.972 31.2578 180.667 31.2578C180.351 31.2578 180.064 31.2871 179.806 31.3457C179.554 31.3984 179.328 31.4805 179.129 31.5918C178.889 31.7207 178.684 31.8848 178.514 32.084C178.344 32.2832 178.203 32.5176 178.092 32.7871V38.5H175.649V28.9902H177.925L178.022 30.335L178.039 30.5459C178.426 30.0068 178.889 29.585 179.428 29.2803C179.967 28.9697 180.556 28.8145 181.194 28.8145ZM194.022 31.2666C194.004 31.8174 193.943 32.3652 193.837 32.9102C193.732 33.4492 193.577 33.9326 193.371 34.3604C193.161 34.7939 192.894 35.1455 192.572 35.415C192.249 35.6787 191.863 35.8105 191.411 35.8105C191.242 35.8105 191.08 35.7871 190.928 35.7402C190.776 35.6934 190.638 35.623 190.515 35.5293C190.415 35.459 190.325 35.374 190.243 35.2744C190.161 35.1748 190.087 35.0635 190.023 34.9404C189.947 35.0459 189.865 35.1455 189.777 35.2393C189.689 35.3271 189.598 35.4062 189.504 35.4766C189.364 35.5762 189.214 35.6553 189.056 35.7139C188.898 35.7666 188.731 35.793 188.555 35.793C188.203 35.793 187.896 35.7139 187.632 35.5557C187.369 35.3975 187.155 35.1689 186.991 34.8701C186.827 34.5771 186.712 34.2227 186.648 33.8066C186.589 33.3906 186.583 32.9277 186.63 32.418C186.695 31.8203 186.809 31.2812 186.973 30.8008C187.143 30.3203 187.36 29.9072 187.623 29.5615C187.887 29.2217 188.198 28.9609 188.555 28.7793C188.912 28.5918 189.314 28.498 189.759 28.498C190.21 28.498 190.582 28.5654 190.875 28.7002C191.168 28.8291 191.406 28.9844 191.587 29.166L191.209 33.7979C191.198 33.9678 191.201 34.0996 191.218 34.1934C191.242 34.2871 191.277 34.3574 191.324 34.4043C191.365 34.4512 191.414 34.4805 191.473 34.4922C191.532 34.5039 191.59 34.5098 191.649 34.5098C191.801 34.5098 191.939 34.4307 192.062 34.2725C192.191 34.1143 192.302 33.8945 192.396 33.6133C192.49 33.332 192.56 32.998 192.607 32.6113C192.66 32.2188 192.686 31.791 192.686 31.3281C192.709 30.6133 192.657 29.9951 192.528 29.4736C192.405 28.9463 192.208 28.5127 191.939 28.1729C191.669 27.833 191.332 27.5811 190.928 27.417C190.524 27.2529 190.058 27.1709 189.531 27.1709C188.933 27.1709 188.394 27.3057 187.913 27.5752C187.439 27.8389 187.035 28.208 186.701 28.6826C186.361 29.1572 186.094 29.7227 185.901 30.3789C185.707 31.0293 185.599 31.7441 185.576 32.5234C185.546 33.3086 185.599 33.9941 185.734 34.5801C185.874 35.166 186.091 35.6523 186.384 36.0391C186.671 36.4316 187.035 36.7246 187.474 36.918C187.919 37.1113 188.429 37.208 189.003 37.208C189.185 37.208 189.372 37.1963 189.566 37.1729C189.759 37.1494 189.95 37.1143 190.137 37.0674C190.319 37.0264 190.492 36.9766 190.656 36.918C190.826 36.8594 190.978 36.7949 191.113 36.7246L191.394 37.9111C191.242 38.0225 191.066 38.1191 190.867 38.2012C190.673 38.2832 190.468 38.3506 190.251 38.4033C190.035 38.4619 189.818 38.5029 189.601 38.5264C189.384 38.5557 189.176 38.5703 188.977 38.5703C188.121 38.5703 187.383 38.4297 186.762 38.1484C186.141 37.8672 185.628 37.4658 185.224 36.9443C184.82 36.4229 184.524 35.79 184.336 35.0459C184.155 34.2959 184.078 33.4551 184.108 32.5234C184.137 31.5977 184.289 30.7275 184.565 29.9131C184.846 29.0986 185.23 28.3867 185.716 27.7773C186.197 27.1738 186.768 26.6992 187.43 26.3535C188.092 26.002 188.822 25.8262 189.619 25.8262C190.31 25.8262 190.934 25.958 191.491 26.2217C192.047 26.4795 192.519 26.8457 192.906 27.3203C193.286 27.8008 193.574 28.375 193.767 29.043C193.96 29.7109 194.045 30.4521 194.022 31.2666ZM188.151 32.418C188.133 32.7461 188.136 33.0361 188.16 33.2881C188.189 33.54 188.236 33.748 188.3 33.9121C188.37 34.0938 188.461 34.2285 188.573 34.3164C188.684 34.4043 188.813 34.4482 188.959 34.4482C189.047 34.4482 189.135 34.4365 189.223 34.4131C189.317 34.3838 189.408 34.3369 189.495 34.2725C189.548 34.2314 189.601 34.1816 189.654 34.123C189.706 34.0645 189.759 33.9941 189.812 33.9121L189.821 33.7979L190.155 29.8691C190.125 29.8633 190.09 29.8574 190.049 29.8516C190.008 29.8457 189.953 29.8428 189.882 29.8428C189.624 29.8428 189.396 29.8984 189.197 30.0098C189.003 30.1211 188.836 30.2881 188.696 30.5107C188.555 30.7275 188.438 30.9971 188.344 31.3193C188.256 31.6357 188.192 32.002 188.151 32.418ZM195.344 33.6748C195.344 32.9541 195.432 32.2949 195.608 31.6973C195.79 31.0996 196.047 30.5869 196.381 30.1592C196.715 29.7314 197.12 29.4004 197.594 29.166C198.069 28.9316 198.605 28.8145 199.203 28.8145C199.525 28.8145 199.818 28.8467 200.082 28.9111C200.351 28.9697 200.594 29.0605 200.811 29.1836C200.975 29.2715 201.128 29.377 201.268 29.5C201.409 29.6172 201.538 29.749 201.655 29.8955L201.752 28.9902H203.975V38.1924C203.975 38.8369 203.864 39.4111 203.641 39.915C203.424 40.4189 203.12 40.8438 202.727 41.1895C202.329 41.5352 201.851 41.7959 201.295 41.9717C200.744 42.1533 200.134 42.2441 199.466 42.2441C199.179 42.2441 198.872 42.2148 198.544 42.1562C198.215 42.0977 197.89 42.0068 197.568 41.8838C197.246 41.7607 196.941 41.6025 196.654 41.4092C196.367 41.2217 196.121 40.9961 195.916 40.7324L197.014 39.2471C197.172 39.4287 197.342 39.5869 197.524 39.7217C197.706 39.8623 197.896 39.9766 198.095 40.0645C198.289 40.1523 198.488 40.2168 198.693 40.2578C198.904 40.3047 199.121 40.3281 199.343 40.3281C199.701 40.3281 200.017 40.2783 200.293 40.1787C200.574 40.0791 200.808 39.9326 200.996 39.7393C201.166 39.5635 201.295 39.3467 201.382 39.0889C201.476 38.8311 201.523 38.541 201.523 38.2188V37.6738C201.406 37.8027 201.283 37.9199 201.154 38.0254C201.025 38.1309 200.887 38.2246 200.741 38.3066C200.524 38.4238 200.284 38.5146 200.02 38.5791C199.762 38.6436 199.484 38.6758 199.185 38.6758C198.593 38.6758 198.06 38.5557 197.586 38.3154C197.117 38.0693 196.715 37.7324 196.381 37.3047C196.047 36.877 195.79 36.3701 195.608 35.7842C195.432 35.1924 195.344 34.5508 195.344 33.8594V33.6748ZM197.797 33.8594C197.797 34.2578 197.835 34.6299 197.911 34.9756C197.993 35.3154 198.116 35.6113 198.28 35.8633C198.444 36.1211 198.652 36.3232 198.904 36.4697C199.156 36.6162 199.455 36.6895 199.8 36.6895C200.011 36.6895 200.202 36.6689 200.372 36.6279C200.547 36.5869 200.706 36.5283 200.846 36.4521C200.993 36.3701 201.122 36.2705 201.233 36.1533C201.344 36.0361 201.441 35.9043 201.523 35.7578V31.7324C201.435 31.5684 201.33 31.4248 201.207 31.3018C201.084 31.1787 200.943 31.0791 200.785 31.0029C200.65 30.9385 200.501 30.8887 200.337 30.8535C200.178 30.8184 200.005 30.8008 199.818 30.8008C199.472 30.8008 199.173 30.877 198.922 31.0293C198.67 31.1758 198.462 31.3779 198.297 31.6357C198.128 31.8994 198.002 32.207 197.92 32.5586C197.838 32.9043 197.797 33.2764 197.797 33.6748V33.8594ZM207.724 28.9902L207.794 30.1416C207.975 29.7314 208.224 29.4092 208.541 29.1748C208.863 28.9346 209.253 28.8145 209.71 28.8145C209.932 28.8145 210.132 28.8408 210.307 28.8936C210.483 28.9463 210.636 29.0283 210.765 29.1396C210.864 29.2217 210.949 29.3213 211.019 29.4385C211.096 29.5498 211.16 29.6787 211.213 29.8252C211.295 29.6846 211.386 29.5586 211.485 29.4473C211.591 29.3301 211.705 29.2305 211.828 29.1484C211.98 29.043 212.153 28.9609 212.347 28.9023C212.54 28.8438 212.751 28.8145 212.979 28.8145C213.266 28.8145 213.533 28.8672 213.779 28.9727C214.031 29.0781 214.251 29.2451 214.438 29.4736C214.62 29.708 214.761 30.0098 214.86 30.3789C214.966 30.7422 215.018 31.1875 215.018 31.7148V38.5H212.795V31.7061C212.795 31.5244 212.774 31.375 212.733 31.2578C212.698 31.1406 212.648 31.0469 212.584 30.9766C212.519 30.9121 212.443 30.8682 212.355 30.8447C212.273 30.8154 212.188 30.8008 212.1 30.8008C212.007 30.8008 211.922 30.8125 211.846 30.8359C211.775 30.8594 211.708 30.8916 211.643 30.9326C211.591 30.9736 211.544 31.0205 211.503 31.0732C211.462 31.1201 211.427 31.1758 211.397 31.2402C211.397 31.252 211.397 31.2783 211.397 31.3193C211.397 31.3604 211.397 31.416 211.397 31.4863V38.5H209.244V31.6973C209.244 31.5156 209.226 31.3662 209.191 31.249C209.156 31.1318 209.109 31.041 209.051 30.9766C208.986 30.9121 208.913 30.8682 208.831 30.8447C208.749 30.8154 208.661 30.8008 208.567 30.8008C208.462 30.8008 208.368 30.8184 208.286 30.8535C208.204 30.8887 208.131 30.9385 208.066 31.0029C208.019 31.0498 207.978 31.1055 207.943 31.1699C207.908 31.2344 207.876 31.3047 207.847 31.3809V38.5H205.623V28.9902H207.724ZM222.757 38.5C222.698 38.3828 222.649 38.248 222.608 38.0957C222.567 37.9434 222.531 37.7822 222.502 37.6123C222.367 37.7588 222.212 37.8965 222.036 38.0254C221.86 38.1543 221.667 38.2656 221.456 38.3594C221.239 38.459 221.002 38.5352 220.744 38.5879C220.486 38.6465 220.208 38.6758 219.909 38.6758C219.423 38.6758 218.975 38.6055 218.565 38.4648C218.16 38.3242 217.812 38.1279 217.519 37.876C217.226 37.624 216.997 37.3252 216.833 36.9795C216.669 36.6279 216.587 36.2471 216.587 35.8369C216.587 35.3096 216.69 34.8438 216.895 34.4395C217.1 34.0293 217.407 33.6924 217.818 33.4287C218.187 33.1885 218.641 33.0068 219.18 32.8838C219.725 32.7549 220.349 32.6904 221.052 32.6904H222.414V32.1279C222.414 31.9053 222.379 31.7061 222.309 31.5303C222.238 31.3486 222.133 31.1934 221.992 31.0645C221.846 30.9297 221.661 30.8271 221.439 30.7568C221.222 30.6807 220.967 30.6426 220.674 30.6426C220.416 30.6426 220.193 30.6748 220.006 30.7393C219.818 30.7979 219.666 30.8828 219.549 30.9941C219.443 31.0938 219.364 31.2139 219.312 31.3545C219.265 31.4951 219.241 31.6504 219.241 31.8203H216.798C216.798 31.416 216.886 31.0322 217.062 30.6689C217.243 30.3057 217.507 29.9863 217.853 29.7109C218.193 29.4355 218.609 29.2188 219.101 29.0605C219.599 28.8965 220.167 28.8145 220.806 28.8145C221.38 28.8145 221.913 28.8848 222.405 29.0254C222.903 29.166 223.334 29.374 223.697 29.6494C224.061 29.9248 224.345 30.2734 224.55 30.6953C224.755 31.1113 224.858 31.5947 224.858 32.1455V36.2236C224.858 36.7334 224.89 37.1553 224.954 37.4893C225.019 37.8232 225.112 38.1104 225.235 38.3506V38.5H222.757ZM220.428 36.7861C220.674 36.7861 220.902 36.7568 221.113 36.6982C221.324 36.6396 221.515 36.5635 221.685 36.4697C221.855 36.376 222.001 36.2705 222.124 36.1533C222.247 36.0303 222.344 35.9072 222.414 35.7842V34.1494H221.166C220.785 34.1494 220.46 34.1875 220.191 34.2637C219.921 34.334 219.701 34.4336 219.531 34.5625C219.361 34.6973 219.235 34.8584 219.153 35.0459C219.071 35.2275 219.03 35.4268 219.03 35.6436C219.03 35.8135 219.06 35.9717 219.118 36.1182C219.183 36.2588 219.274 36.3789 219.391 36.4785C219.508 36.5723 219.651 36.6484 219.821 36.707C219.997 36.7598 220.199 36.7861 220.428 36.7861ZM228.078 28.9902H233.255V36.5137H235.83V38.5H228.078V36.5137H230.786V30.9854H228.078V28.9902ZM230.61 26.5557C230.61 26.3682 230.642 26.1953 230.706 26.0371C230.777 25.873 230.873 25.7324 230.996 25.6152C231.119 25.5039 231.266 25.416 231.436 25.3516C231.612 25.2871 231.805 25.2549 232.016 25.2549C232.45 25.2549 232.792 25.3779 233.044 25.624C233.302 25.8643 233.431 26.1748 233.431 26.5557C233.431 26.9365 233.302 27.25 233.044 27.4961C232.792 27.7363 232.45 27.8564 232.016 27.8564C231.805 27.8564 231.612 27.8242 231.436 27.7598C231.266 27.6953 231.119 27.6045 230.996 27.4873C230.873 27.376 230.777 27.2412 230.706 27.083C230.642 26.9189 230.61 26.7432 230.61 26.5557ZM238.55 25H243.868V36.5137H246.592V38.5H238.55V36.5137H241.398V26.9951H238.55V25ZM251.123 37.085C251.123 36.6338 251.272 36.2529 251.571 35.9424C251.87 35.626 252.286 35.4678 252.819 35.4678C253.347 35.4678 253.76 35.623 254.058 35.9336C254.363 36.2441 254.515 36.6279 254.515 37.085C254.515 37.542 254.36 37.9229 254.05 38.2275C253.745 38.5264 253.335 38.6758 252.819 38.6758C252.298 38.6758 251.885 38.5234 251.58 38.2188C251.275 37.9141 251.123 37.5361 251.123 37.085ZM263.476 36.7246C263.716 36.7246 263.944 36.6895 264.161 36.6191C264.378 36.5488 264.568 36.4492 264.733 36.3203C264.897 36.1914 265.023 36.0361 265.11 35.8545C265.204 35.6729 265.245 35.4707 265.234 35.248H267.536C267.548 35.7402 267.445 36.1973 267.229 36.6191C267.018 37.041 266.728 37.4043 266.359 37.709C265.989 38.0137 265.559 38.2539 265.067 38.4297C264.58 38.5996 264.065 38.6846 263.52 38.6846C262.781 38.6846 262.134 38.5615 261.577 38.3154C261.021 38.0635 260.558 37.7207 260.189 37.2871C259.814 36.8535 259.529 36.3467 259.336 35.7666C259.149 35.1807 259.055 34.5537 259.055 33.8857V33.6221C259.055 32.9541 259.149 32.3301 259.336 31.75C259.524 31.1641 259.805 30.6543 260.18 30.2207C260.555 29.7871 261.018 29.4443 261.568 29.1924C262.125 28.9404 262.77 28.8145 263.502 28.8145C264.088 28.8145 264.63 28.9023 265.128 29.0781C265.626 29.2539 266.057 29.5 266.42 29.8164C266.777 30.1387 267.056 30.5283 267.255 30.9854C267.454 31.4365 267.548 31.9434 267.536 32.5059H265.234C265.245 32.2715 265.21 32.0488 265.128 31.8379C265.046 31.627 264.926 31.4453 264.768 31.293C264.609 31.1406 264.419 31.0205 264.196 30.9326C263.974 30.8389 263.731 30.792 263.467 30.792C263.08 30.792 262.761 30.8711 262.509 31.0293C262.257 31.1875 262.058 31.3984 261.911 31.6621C261.759 31.9258 261.65 32.2275 261.586 32.5674C261.527 32.9072 261.498 33.2588 261.498 33.6221V33.8857C261.498 34.2549 261.527 34.6123 261.586 34.958C261.645 35.2979 261.75 35.5967 261.902 35.8545C262.049 36.1182 262.248 36.3291 262.5 36.4873C262.758 36.6455 263.083 36.7246 263.476 36.7246ZM269.544 33.6572C269.544 32.9658 269.644 32.3271 269.843 31.7412C270.042 31.1494 270.335 30.6367 270.722 30.2031C271.103 29.7695 271.569 29.4297 272.12 29.1836C272.676 28.9375 273.312 28.8145 274.027 28.8145C274.742 28.8145 275.377 28.9375 275.934 29.1836C276.491 29.4297 276.962 29.7695 277.349 30.2031C277.73 30.6367 278.02 31.1494 278.219 31.7412C278.418 32.3271 278.518 32.9658 278.518 33.6572V33.8418C278.518 34.5391 278.418 35.1836 278.219 35.7754C278.02 36.3613 277.73 36.8711 277.349 37.3047C276.968 37.7383 276.499 38.0781 275.943 38.3242C275.386 38.5645 274.753 38.6846 274.044 38.6846C273.329 38.6846 272.691 38.5645 272.128 38.3242C271.572 38.0781 271.103 37.7383 270.722 37.3047C270.335 36.8711 270.042 36.3613 269.843 35.7754C269.644 35.1836 269.544 34.5391 269.544 33.8418V33.6572ZM271.988 33.8418C271.988 34.2402 272.026 34.6152 272.102 34.9668C272.178 35.3125 272.298 35.6143 272.462 35.8721C272.626 36.1357 272.837 36.3438 273.095 36.4961C273.359 36.6484 273.675 36.7246 274.044 36.7246C274.402 36.7246 274.709 36.6484 274.967 36.4961C275.225 36.3438 275.436 36.1357 275.6 35.8721C275.758 35.6143 275.875 35.3125 275.952 34.9668C276.028 34.6152 276.066 34.2402 276.066 33.8418V33.6572C276.066 33.2705 276.028 32.9043 275.952 32.5586C275.875 32.2129 275.758 31.9082 275.6 31.6445C275.436 31.3809 275.225 31.1729 274.967 31.0205C274.709 30.8682 274.396 30.792 274.027 30.792C273.663 30.792 273.353 30.8682 273.095 31.0205C272.837 31.1729 272.626 31.3809 272.462 31.6445C272.298 31.9082 272.178 32.2129 272.102 32.5586C272.026 32.9043 271.988 33.2705 271.988 33.6572V33.8418ZM282.011 28.9902L282.082 30.1416C282.263 29.7314 282.512 29.4092 282.829 29.1748C283.151 28.9346 283.541 28.8145 283.998 28.8145C284.22 28.8145 284.42 28.8408 284.595 28.8936C284.771 28.9463 284.923 29.0283 285.052 29.1396C285.152 29.2217 285.237 29.3213 285.307 29.4385C285.383 29.5498 285.448 29.6787 285.501 29.8252C285.583 29.6846 285.673 29.5586 285.773 29.4473C285.879 29.3301 285.993 29.2305 286.116 29.1484C286.268 29.043 286.441 28.9609 286.634 28.9023C286.828 28.8438 287.039 28.8145 287.267 28.8145C287.554 28.8145 287.821 28.8672 288.067 28.9727C288.319 29.0781 288.539 29.2451 288.726 29.4736C288.908 29.708 289.048 30.0098 289.148 30.3789C289.254 30.7422 289.306 31.1875 289.306 31.7148V38.5H287.083V31.7061C287.083 31.5244 287.062 31.375 287.021 31.2578C286.986 31.1406 286.936 31.0469 286.872 30.9766C286.807 30.9121 286.731 30.8682 286.643 30.8447C286.561 30.8154 286.476 30.8008 286.388 30.8008C286.295 30.8008 286.21 30.8125 286.133 30.8359C286.063 30.8594 285.996 30.8916 285.931 30.9326C285.879 30.9736 285.832 31.0205 285.791 31.0732C285.75 31.1201 285.714 31.1758 285.685 31.2402C285.685 31.252 285.685 31.2783 285.685 31.3193C285.685 31.3604 285.685 31.416 285.685 31.4863V38.5H283.532V31.6973C283.532 31.5156 283.514 31.3662 283.479 31.249C283.444 31.1318 283.397 31.041 283.338 30.9766C283.274 30.9121 283.201 30.8682 283.119 30.8447C283.037 30.8154 282.949 30.8008 282.855 30.8008C282.75 30.8008 282.656 30.8184 282.574 30.8535C282.492 30.8887 282.419 30.9385 282.354 31.0029C282.307 31.0498 282.266 31.1055 282.231 31.1699C282.196 31.2344 282.164 31.3047 282.134 31.3809V38.5H279.911V28.9902H282.011Z" fill="black" fill-opacity="0.8"/>
<rect x="432" width="304" height="64" rx="6" fill="white"/>
<path d="M453.119 38.5C453.06 38.3828 453.01 38.248 452.969 38.0957C452.928 37.9434 452.893 37.7822 452.864 37.6123C452.729 37.7588 452.574 37.8965 452.398 38.0254C452.222 38.1543 452.029 38.2656 451.818 38.3594C451.601 38.459 451.364 38.5352 451.106 38.5879C450.848 38.6465 450.57 38.6758 450.271 38.6758C449.785 38.6758 449.336 38.6055 448.926 38.4648C448.522 38.3242 448.173 38.1279 447.88 37.876C447.587 37.624 447.359 37.3252 447.195 36.9795C447.031 36.6279 446.949 36.2471 446.949 35.8369C446.949 35.3096 447.051 34.8438 447.256 34.4395C447.461 34.0293 447.769 33.6924 448.179 33.4287C448.548 33.1885 449.002 33.0068 449.541 32.8838C450.086 32.7549 450.71 32.6904 451.413 32.6904H452.776V32.1279C452.776 31.9053 452.741 31.7061 452.67 31.5303C452.6 31.3486 452.495 31.1934 452.354 31.0645C452.207 30.9297 452.023 30.8271 451.8 30.7568C451.583 30.6807 451.329 30.6426 451.036 30.6426C450.778 30.6426 450.555 30.6748 450.368 30.7393C450.18 30.7979 450.028 30.8828 449.911 30.9941C449.805 31.0938 449.726 31.2139 449.673 31.3545C449.626 31.4951 449.603 31.6504 449.603 31.8203H447.16C447.16 31.416 447.247 31.0322 447.423 30.6689C447.605 30.3057 447.869 29.9863 448.214 29.7109C448.554 29.4355 448.97 29.2188 449.462 29.0605C449.96 28.8965 450.529 28.8145 451.167 28.8145C451.742 28.8145 452.275 28.8848 452.767 29.0254C453.265 29.166 453.696 29.374 454.059 29.6494C454.422 29.9248 454.706 30.2734 454.912 30.6953C455.117 31.1113 455.219 31.5947 455.219 32.1455V36.2236C455.219 36.7334 455.251 37.1553 455.316 37.4893C455.38 37.8232 455.474 38.1104 455.597 38.3506V38.5H453.119ZM450.789 36.7861C451.036 36.7861 451.264 36.7568 451.475 36.6982C451.686 36.6396 451.876 36.5635 452.046 36.4697C452.216 36.376 452.363 36.2705 452.486 36.1533C452.609 36.0303 452.705 35.9072 452.776 35.7842V34.1494H451.528C451.147 34.1494 450.822 34.1875 450.552 34.2637C450.283 34.334 450.063 34.4336 449.893 34.5625C449.723 34.6973 449.597 34.8584 449.515 35.0459C449.433 35.2275 449.392 35.4268 449.392 35.6436C449.392 35.8135 449.421 35.9717 449.48 36.1182C449.544 36.2588 449.635 36.3789 449.752 36.4785C449.87 36.5723 450.013 36.6484 450.183 36.707C450.359 36.7598 450.561 36.7861 450.789 36.7861ZM458.299 25H463.617V36.5137H466.341V38.5H458.299V36.5137H461.147V26.9951H458.299V25ZM469.053 28.9902H474.229V36.5137H476.805V38.5H469.053V36.5137H471.76V30.9854H469.053V28.9902ZM471.584 26.5557C471.584 26.3682 471.616 26.1953 471.681 26.0371C471.751 25.873 471.848 25.7324 471.971 25.6152C472.094 25.5039 472.24 25.416 472.41 25.3516C472.586 25.2871 472.779 25.2549 472.99 25.2549C473.424 25.2549 473.767 25.3779 474.018 25.624C474.276 25.8643 474.405 26.1748 474.405 26.5557C474.405 26.9365 474.276 27.25 474.018 27.4961C473.767 27.7363 473.424 27.8564 472.99 27.8564C472.779 27.8564 472.586 27.8242 472.41 27.7598C472.24 27.6953 472.094 27.6045 471.971 27.4873C471.848 27.376 471.751 27.2412 471.681 27.083C471.616 26.9189 471.584 26.7432 471.584 26.5557ZM483.225 36.7246C483.465 36.7246 483.694 36.6895 483.91 36.6191C484.127 36.5488 484.318 36.4492 484.482 36.3203C484.646 36.1914 484.772 36.0361 484.86 35.8545C484.953 35.6729 484.994 35.4707 484.983 35.248H487.285C487.297 35.7402 487.194 36.1973 486.978 36.6191C486.767 37.041 486.477 37.4043 486.108 37.709C485.738 38.0137 485.308 38.2539 484.816 38.4297C484.329 38.5996 483.814 38.6846 483.269 38.6846C482.53 38.6846 481.883 38.5615 481.326 38.3154C480.77 38.0635 480.307 37.7207 479.938 37.2871C479.563 36.8535 479.278 36.3467 479.085 35.7666C478.898 35.1807 478.804 34.5537 478.804 33.8857V33.6221C478.804 32.9541 478.898 32.3301 479.085 31.75C479.273 31.1641 479.554 30.6543 479.929 30.2207C480.304 29.7871 480.767 29.4443 481.318 29.1924C481.874 28.9404 482.519 28.8145 483.251 28.8145C483.837 28.8145 484.379 28.9023 484.877 29.0781C485.375 29.2539 485.806 29.5 486.169 29.8164C486.527 30.1387 486.805 30.5283 487.004 30.9854C487.203 31.4365 487.297 31.9434 487.285 32.5059H484.983C484.994 32.2715 484.959 32.0488 484.877 31.8379C484.795 31.627 484.675 31.4453 484.517 31.293C484.359 31.1406 484.168 31.0205 483.945 30.9326C483.723 30.8389 483.48 30.792 483.216 30.792C482.829 30.792 482.51 30.8711 482.258 31.0293C482.006 31.1875 481.807 31.3984 481.66 31.6621C481.508 31.9258 481.4 32.2275 481.335 32.5674C481.277 32.9072 481.247 33.2588 481.247 33.6221V33.8857C481.247 34.2549 481.277 34.6123 481.335 34.958C481.394 35.2979 481.499 35.5967 481.652 35.8545C481.798 36.1182 481.997 36.3291 482.249 36.4873C482.507 36.6455 482.832 36.7246 483.225 36.7246ZM494.242 38.6758C493.509 38.6758 492.844 38.5557 492.246 38.3154C491.649 38.0752 491.136 37.7471 490.708 37.3311C490.281 36.9209 489.95 36.4375 489.715 35.8809C489.487 35.3184 489.372 34.7178 489.372 34.0791V33.7275C489.372 33.001 489.487 32.3389 489.715 31.7412C489.944 31.1377 490.263 30.6191 490.673 30.1855C491.083 29.752 491.57 29.415 492.132 29.1748C492.695 28.9346 493.307 28.8145 493.969 28.8145C494.655 28.8145 495.264 28.9287 495.797 29.1572C496.336 29.3799 496.793 29.6963 497.168 30.1064C497.537 30.5166 497.819 31.0117 498.012 31.5918C498.205 32.166 498.302 32.8018 498.302 33.499V34.5361H491.851V34.5625C491.933 34.9434 492.038 35.251 492.167 35.4854C492.296 35.7139 492.469 35.9219 492.686 36.1094C492.909 36.3027 493.163 36.4521 493.451 36.5576C493.738 36.6631 494.051 36.7158 494.391 36.7158C494.871 36.7158 495.337 36.625 495.788 36.4434C496.24 36.2617 496.606 35.9893 496.887 35.626L498.109 36.9443C497.798 37.3838 497.306 37.7822 496.632 38.1396C495.958 38.4971 495.162 38.6758 494.242 38.6758ZM493.952 30.792C493.676 30.792 493.424 30.8418 493.196 30.9414C492.967 31.0352 492.768 31.1729 492.598 31.3545C492.422 31.5361 492.276 31.7529 492.159 32.0049C492.041 32.2568 491.954 32.5381 491.895 32.8486H495.903V32.6553C495.903 32.3975 495.856 32.1543 495.762 31.9258C495.668 31.6973 495.539 31.498 495.375 31.3281C495.211 31.1641 495.009 31.0352 494.769 30.9414C494.535 30.8418 494.262 30.792 493.952 30.792ZM502.71 37.085C502.71 36.6338 502.859 36.2529 503.158 35.9424C503.457 35.626 503.873 35.4678 504.406 35.4678C504.933 35.4678 505.346 35.623 505.645 35.9336C505.95 36.2441 506.102 36.6279 506.102 37.085C506.102 37.542 505.947 37.9229 505.636 38.2275C505.332 38.5264 504.922 38.6758 504.406 38.6758C503.884 38.6758 503.471 38.5234 503.167 38.2188C502.862 37.9141 502.71 37.5361 502.71 37.085ZM515.467 38.6758C514.734 38.6758 514.069 38.5557 513.472 38.3154C512.874 38.0752 512.361 37.7471 511.933 37.3311C511.506 36.9209 511.175 36.4375 510.94 35.8809C510.712 35.3184 510.598 34.7178 510.598 34.0791V33.7275C510.598 33.001 510.712 32.3389 510.94 31.7412C511.169 31.1377 511.488 30.6191 511.898 30.1855C512.308 29.752 512.795 29.415 513.357 29.1748C513.92 28.9346 514.532 28.8145 515.194 28.8145C515.88 28.8145 516.489 28.9287 517.022 29.1572C517.561 29.3799 518.018 29.6963 518.393 30.1064C518.763 30.5166 519.044 31.0117 519.237 31.5918C519.431 32.166 519.527 32.8018 519.527 33.499V34.5361H513.076V34.5625C513.158 34.9434 513.264 35.251 513.392 35.4854C513.521 35.7139 513.694 35.9219 513.911 36.1094C514.134 36.3027 514.389 36.4521 514.676 36.5576C514.963 36.6631 515.276 36.7158 515.616 36.7158C516.097 36.7158 516.562 36.625 517.014 36.4434C517.465 36.2617 517.831 35.9893 518.112 35.626L519.334 36.9443C519.023 37.3838 518.531 37.7822 517.857 38.1396C517.183 38.4971 516.387 38.6758 515.467 38.6758ZM515.177 30.792C514.901 30.792 514.649 30.8418 514.421 30.9414C514.192 31.0352 513.993 31.1729 513.823 31.3545C513.647 31.5361 513.501 31.7529 513.384 32.0049C513.266 32.2568 513.179 32.5381 513.12 32.8486H517.128V32.6553C517.128 32.3975 517.081 32.1543 516.987 31.9258C516.893 31.6973 516.765 31.498 516.6 31.3281C516.436 31.1641 516.234 31.0352 515.994 30.9414C515.76 30.8418 515.487 30.792 515.177 30.792ZM522.985 28.9902L523.056 30.1416C523.237 29.7314 523.486 29.4092 523.803 29.1748C524.125 28.9346 524.515 28.8145 524.972 28.8145C525.194 28.8145 525.394 28.8408 525.569 28.8936C525.745 28.9463 525.898 29.0283 526.027 29.1396C526.126 29.2217 526.211 29.3213 526.281 29.4385C526.358 29.5498 526.422 29.6787 526.475 29.8252C526.557 29.6846 526.648 29.5586 526.747 29.4473C526.853 29.3301 526.967 29.2305 527.09 29.1484C527.242 29.043 527.415 28.9609 527.609 28.9023C527.802 28.8438 528.013 28.8145 528.241 28.8145C528.528 28.8145 528.795 28.8672 529.041 28.9727C529.293 29.0781 529.513 29.2451 529.7 29.4736C529.882 29.708 530.023 30.0098 530.122 30.3789C530.228 30.7422 530.28 31.1875 530.28 31.7148V38.5H528.057V31.7061C528.057 31.5244 528.036 31.375 527.995 31.2578C527.96 31.1406 527.91 31.0469 527.846 30.9766C527.781 30.9121 527.705 30.8682 527.617 30.8447C527.535 30.8154 527.45 30.8008 527.362 30.8008C527.269 30.8008 527.184 30.8125 527.108 30.8359C527.037 30.8594 526.97 30.8916 526.905 30.9326C526.853 30.9736 526.806 31.0205 526.765 31.0732C526.724 31.1201 526.689 31.1758 526.659 31.2402C526.659 31.252 526.659 31.2783 526.659 31.3193C526.659 31.3604 526.659 31.416 526.659 31.4863V38.5H524.506V31.6973C524.506 31.5156 524.488 31.3662 524.453 31.249C524.418 31.1318 524.371 31.041 524.313 30.9766C524.248 30.9121 524.175 30.8682 524.093 30.8447C524.011 30.8154 523.923 30.8008 523.829 30.8008C523.724 30.8008 523.63 30.8184 523.548 30.8535C523.466 30.8887 523.393 30.9385 523.328 31.0029C523.281 31.0498 523.24 31.1055 523.205 31.1699C523.17 31.2344 523.138 31.3047 523.109 31.3809V38.5H520.885V28.9902H522.985ZM532.113 42.1562V28.9902H534.371L534.459 29.9219C534.588 29.7637 534.729 29.623 534.881 29.5C535.034 29.3711 535.198 29.2598 535.373 29.166C535.584 29.0547 535.816 28.9697 536.068 28.9111C536.326 28.8467 536.601 28.8145 536.894 28.8145C537.497 28.8145 538.031 28.9316 538.494 29.166C538.956 29.3945 539.346 29.7197 539.662 30.1416C539.979 30.5693 540.216 31.082 540.374 31.6797C540.538 32.2715 540.62 32.9277 540.62 33.6484V33.833C540.62 34.5244 540.538 35.166 540.374 35.7578C540.216 36.3496 539.982 36.8594 539.671 37.2871C539.355 37.7207 538.965 38.0605 538.502 38.3066C538.039 38.5527 537.509 38.6758 536.912 38.6758C536.595 38.6758 536.302 38.6406 536.033 38.5703C535.769 38.5059 535.523 38.4092 535.294 38.2803C535.16 38.1982 535.031 38.1074 534.908 38.0078C534.785 37.9082 534.667 37.7969 534.556 37.6738V42.1562H532.113ZM538.177 33.6484C538.177 33.25 538.139 32.8779 538.063 32.5322C537.993 32.1807 537.881 31.876 537.729 31.6182C537.571 31.3662 537.369 31.167 537.122 31.0205C536.882 30.874 536.589 30.8008 536.244 30.8008C536.044 30.8008 535.863 30.8213 535.699 30.8623C535.535 30.8975 535.385 30.9502 535.25 31.0205C535.098 31.1025 534.963 31.2051 534.846 31.3281C534.735 31.4512 534.638 31.5947 534.556 31.7588V35.7314C534.632 35.8838 534.723 36.0215 534.829 36.1445C534.94 36.2676 535.066 36.373 535.206 36.4609C535.341 36.543 535.496 36.6074 535.672 36.6543C535.848 36.6953 536.044 36.7158 536.261 36.7158C536.607 36.7158 536.9 36.6396 537.14 36.4873C537.386 36.335 537.585 36.127 537.738 35.8633C537.89 35.5996 538.001 35.2949 538.072 34.9492C538.142 34.5977 538.177 34.2256 538.177 33.833V33.6484ZM543.2 25H548.517V36.5137H551.242V38.5H543.2V36.5137H546.048V26.9951H543.2V25ZM552.969 33.6572C552.969 32.9658 553.068 32.3271 553.267 31.7412C553.467 31.1494 553.76 30.6367 554.146 30.2031C554.527 29.7695 554.993 29.4297 555.544 29.1836C556.1 28.9375 556.736 28.8145 557.451 28.8145C558.166 28.8145 558.802 28.9375 559.358 29.1836C559.915 29.4297 560.387 29.7695 560.773 30.2031C561.154 30.6367 561.444 31.1494 561.643 31.7412C561.843 32.3271 561.942 32.9658 561.942 33.6572V33.8418C561.942 34.5391 561.843 35.1836 561.643 35.7754C561.444 36.3613 561.154 36.8711 560.773 37.3047C560.392 37.7383 559.924 38.0781 559.367 38.3242C558.81 38.5645 558.178 38.6846 557.469 38.6846C556.754 38.6846 556.115 38.5645 555.553 38.3242C554.996 38.0781 554.527 37.7383 554.146 37.3047C553.76 36.8711 553.467 36.3613 553.267 35.7754C553.068 35.1836 552.969 34.5391 552.969 33.8418V33.6572ZM555.412 33.8418C555.412 34.2402 555.45 34.6152 555.526 34.9668C555.602 35.3125 555.723 35.6143 555.887 35.8721C556.051 36.1357 556.262 36.3438 556.519 36.4961C556.783 36.6484 557.099 36.7246 557.469 36.7246C557.826 36.7246 558.134 36.6484 558.391 36.4961C558.649 36.3438 558.86 36.1357 559.024 35.8721C559.183 35.6143 559.3 35.3125 559.376 34.9668C559.452 34.6152 559.49 34.2402 559.49 33.8418V33.6572C559.49 33.2705 559.452 32.9043 559.376 32.5586C559.3 32.2129 559.183 31.9082 559.024 31.6445C558.86 31.3809 558.649 31.1729 558.391 31.0205C558.134 30.8682 557.82 30.792 557.451 30.792C557.088 30.792 556.777 30.8682 556.519 31.0205C556.262 31.1729 556.051 31.3809 555.887 31.6445C555.723 31.9082 555.602 32.2129 555.526 32.5586C555.45 32.9043 555.412 33.2705 555.412 33.6572V33.8418ZM565.418 42.3408C565.184 42.3408 564.979 42.3262 564.803 42.2969C564.633 42.2676 564.443 42.2236 564.232 42.165L564.53 40.3018C564.63 40.3018 564.756 40.3047 564.908 40.3105C565.067 40.3223 565.193 40.3281 565.286 40.3281C565.48 40.3281 565.65 40.2666 565.796 40.1436C565.948 40.0264 566.077 39.8975 566.183 39.7568C566.288 39.6162 566.364 39.5107 566.411 39.4404C566.464 39.3701 566.526 39.2705 566.596 39.1416L567.158 38.0957L563.133 28.9902H565.805L567.985 34.5625L568.248 35.5293L568.609 34.5801L570.779 28.9902H573.478L568.652 39.9238C568.547 40.1641 568.409 40.4248 568.239 40.7061C568.075 40.9873 567.867 41.248 567.615 41.4883C567.363 41.7285 567.056 41.9307 566.693 42.0947C566.335 42.2588 565.91 42.3408 565.418 42.3408ZM579.142 38.6758C578.41 38.6758 577.745 38.5557 577.147 38.3154C576.549 38.0752 576.036 37.7471 575.609 37.3311C575.181 36.9209 574.85 36.4375 574.616 35.8809C574.387 35.3184 574.273 34.7178 574.273 34.0791V33.7275C574.273 33.001 574.387 32.3389 574.616 31.7412C574.844 31.1377 575.163 30.6191 575.574 30.1855C575.984 29.752 576.47 29.415 577.033 29.1748C577.595 28.9346 578.207 28.8145 578.87 28.8145C579.555 28.8145 580.164 28.9287 580.698 29.1572C581.237 29.3799 581.694 29.6963 582.069 30.1064C582.438 30.5166 582.719 31.0117 582.912 31.5918C583.106 32.166 583.203 32.8018 583.203 33.499V34.5361H576.751V34.5625C576.833 34.9434 576.939 35.251 577.068 35.4854C577.197 35.7139 577.37 35.9219 577.586 36.1094C577.809 36.3027 578.064 36.4521 578.351 36.5576C578.638 36.6631 578.952 36.7158 579.291 36.7158C579.772 36.7158 580.238 36.625 580.689 36.4434C581.14 36.2617 581.506 35.9893 581.787 35.626L583.009 36.9443C582.699 37.3838 582.206 37.7822 581.533 38.1396C580.859 38.4971 580.062 38.6758 579.142 38.6758ZM578.852 30.792C578.577 30.792 578.325 30.8418 578.096 30.9414C577.868 31.0352 577.668 31.1729 577.498 31.3545C577.323 31.5361 577.176 31.7529 577.059 32.0049C576.942 32.2568 576.854 32.5381 576.795 32.8486H580.803V32.6553C580.803 32.3975 580.756 32.1543 580.662 31.9258C580.569 31.6973 580.44 31.498 580.276 31.3281C580.112 31.1641 579.91 31.0352 579.669 30.9414C579.435 30.8418 579.162 30.792 578.852 30.792ZM589.755 38.6758C589.022 38.6758 588.357 38.5557 587.759 38.3154C587.162 38.0752 586.649 37.7471 586.221 37.3311C585.794 36.9209 585.463 36.4375 585.228 35.8809C585 35.3184 584.885 34.7178 584.885 34.0791V33.7275C584.885 33.001 585 32.3389 585.228 31.7412C585.457 31.1377 585.776 30.6191 586.186 30.1855C586.596 29.752 587.083 29.415 587.645 29.1748C588.208 28.9346 588.82 28.8145 589.482 28.8145C590.168 28.8145 590.777 28.9287 591.31 29.1572C591.849 29.3799 592.306 29.6963 592.681 30.1064C593.05 30.5166 593.332 31.0117 593.525 31.5918C593.718 32.166 593.815 32.8018 593.815 33.499V34.5361H587.364V34.5625C587.446 34.9434 587.551 35.251 587.68 35.4854C587.809 35.7139 587.982 35.9219 588.199 36.1094C588.422 36.3027 588.676 36.4521 588.964 36.5576C589.251 36.6631 589.564 36.7158 589.904 36.7158C590.384 36.7158 590.85 36.625 591.301 36.4434C591.753 36.2617 592.119 35.9893 592.4 35.626L593.622 36.9443C593.311 37.3838 592.819 37.7822 592.145 38.1396C591.471 38.4971 590.674 38.6758 589.755 38.6758ZM589.464 30.792C589.189 30.792 588.937 30.8418 588.709 30.9414C588.48 31.0352 588.281 31.1729 588.111 31.3545C587.935 31.5361 587.789 31.7529 587.672 32.0049C587.554 32.2568 587.466 32.5381 587.408 32.8486H591.416V32.6553C591.416 32.3975 591.369 32.1543 591.275 31.9258C591.181 31.6973 591.052 31.498 590.888 31.3281C590.724 31.1641 590.522 31.0352 590.282 30.9414C590.047 30.8418 589.775 30.792 589.464 30.792ZM604.797 31.2666C604.779 31.8174 604.718 32.3652 604.612 32.9102C604.507 33.4492 604.351 33.9326 604.146 34.3604C603.935 34.7939 603.669 35.1455 603.347 35.415C603.024 35.6787 602.638 35.8105 602.186 35.8105C602.016 35.8105 601.855 35.7871 601.703 35.7402C601.551 35.6934 601.413 35.623 601.29 35.5293C601.19 35.459 601.099 35.374 601.017 35.2744C600.935 35.1748 600.862 35.0635 600.798 34.9404C600.722 35.0459 600.64 35.1455 600.552 35.2393C600.464 35.3271 600.373 35.4062 600.279 35.4766C600.139 35.5762 599.989 35.6553 599.831 35.7139C599.673 35.7666 599.506 35.793 599.33 35.793C598.978 35.793 598.671 35.7139 598.407 35.5557C598.143 35.3975 597.93 35.1689 597.766 34.8701C597.601 34.5771 597.487 34.2227 597.423 33.8066C597.364 33.3906 597.358 32.9277 597.405 32.418C597.47 31.8203 597.584 31.2812 597.748 30.8008C597.918 30.3203 598.135 29.9072 598.398 29.5615C598.662 29.2217 598.973 28.9609 599.33 28.7793C599.687 28.5918 600.089 28.498 600.534 28.498C600.985 28.498 601.357 28.5654 601.65 28.7002C601.943 28.8291 602.181 28.9844 602.362 29.166L601.984 33.7979C601.973 33.9678 601.975 34.0996 601.993 34.1934C602.016 34.2871 602.052 34.3574 602.099 34.4043C602.14 34.4512 602.189 34.4805 602.248 34.4922C602.307 34.5039 602.365 34.5098 602.424 34.5098C602.576 34.5098 602.714 34.4307 602.837 34.2725C602.966 34.1143 603.077 33.8945 603.171 33.6133C603.265 33.332 603.335 32.998 603.382 32.6113C603.434 32.2188 603.461 31.791 603.461 31.3281C603.484 30.6133 603.432 29.9951 603.303 29.4736C603.18 28.9463 602.983 28.5127 602.714 28.1729C602.444 27.833 602.107 27.5811 601.703 27.417C601.299 27.2529 600.833 27.1709 600.306 27.1709C599.708 27.1709 599.169 27.3057 598.688 27.5752C598.214 27.8389 597.809 28.208 597.475 28.6826C597.136 29.1572 596.869 29.7227 596.676 30.3789C596.482 31.0293 596.374 31.7441 596.35 32.5234C596.321 33.3086 596.374 33.9941 596.509 34.5801C596.649 35.166 596.866 35.6523 597.159 36.0391C597.446 36.4316 597.809 36.7246 598.249 36.918C598.694 37.1113 599.204 37.208 599.778 37.208C599.96 37.208 600.147 37.1963 600.341 37.1729C600.534 37.1494 600.724 37.1143 600.912 37.0674C601.094 37.0264 601.266 36.9766 601.431 36.918C601.6 36.8594 601.753 36.7949 601.888 36.7246L602.169 37.9111C602.016 38.0225 601.841 38.1191 601.641 38.2012C601.448 38.2832 601.243 38.3506 601.026 38.4033C600.809 38.4619 600.593 38.5029 600.376 38.5264C600.159 38.5557 599.951 38.5703 599.752 38.5703C598.896 38.5703 598.158 38.4297 597.537 38.1484C596.916 37.8672 596.403 37.4658 595.999 36.9443C595.595 36.4229 595.299 35.79 595.111 35.0459C594.93 34.2959 594.853 33.4551 594.883 32.5234C594.912 31.5977 595.064 30.7275 595.34 29.9131C595.621 29.0986 596.005 28.3867 596.491 27.7773C596.972 27.1738 597.543 26.6992 598.205 26.3535C598.867 26.002 599.597 25.8262 600.393 25.8262C601.085 25.8262 601.709 25.958 602.266 26.2217C602.822 26.4795 603.294 26.8457 603.681 27.3203C604.061 27.8008 604.349 28.375 604.542 29.043C604.735 29.7109 604.82 30.4521 604.797 31.2666ZM598.926 32.418C598.908 32.7461 598.911 33.0361 598.934 33.2881C598.964 33.54 599.011 33.748 599.075 33.9121C599.145 34.0938 599.236 34.2285 599.348 34.3164C599.459 34.4043 599.588 34.4482 599.734 34.4482C599.822 34.4482 599.91 34.4365 599.998 34.4131C600.092 34.3838 600.182 34.3369 600.27 34.2725C600.323 34.2314 600.376 34.1816 600.429 34.123C600.481 34.0645 600.534 33.9941 600.587 33.9121L600.596 33.7979L600.93 29.8691C600.9 29.8633 600.865 29.8574 600.824 29.8516C600.783 29.8457 600.727 29.8428 600.657 29.8428C600.399 29.8428 600.171 29.8984 599.972 30.0098C599.778 30.1211 599.611 30.2881 599.471 30.5107C599.33 30.7275 599.213 30.9971 599.119 31.3193C599.031 31.6357 598.967 32.002 598.926 32.418ZM610.575 36.7246C610.816 36.7246 611.044 36.6895 611.261 36.6191C611.478 36.5488 611.668 36.4492 611.832 36.3203C611.996 36.1914 612.122 36.0361 612.21 35.8545C612.304 35.6729 612.345 35.4707 612.333 35.248H614.636C614.648 35.7402 614.545 36.1973 614.328 36.6191C614.117 37.041 613.827 37.4043 613.458 37.709C613.089 38.0137 612.658 38.2539 612.166 38.4297C611.68 38.5996 611.164 38.6846 610.619 38.6846C609.881 38.6846 609.234 38.5615 608.677 38.3154C608.12 38.0635 607.657 37.7207 607.288 37.2871C606.913 36.8535 606.629 36.3467 606.436 35.7666C606.248 35.1807 606.154 34.5537 606.154 33.8857V33.6221C606.154 32.9541 606.248 32.3301 606.436 31.75C606.623 31.1641 606.904 30.6543 607.279 30.2207C607.654 29.7871 608.117 29.4443 608.668 29.1924C609.225 28.9404 609.869 28.8145 610.602 28.8145C611.188 28.8145 611.73 28.9023 612.228 29.0781C612.726 29.2539 613.156 29.5 613.52 29.8164C613.877 30.1387 614.155 30.5283 614.355 30.9854C614.554 31.4365 614.648 31.9434 614.636 32.5059H612.333C612.345 32.2715 612.31 32.0488 612.228 31.8379C612.146 31.627 612.026 31.4453 611.867 31.293C611.709 31.1406 611.519 31.0205 611.296 30.9326C611.073 30.8389 610.83 30.792 610.567 30.792C610.18 30.792 609.86 30.8711 609.609 31.0293C609.357 31.1875 609.157 31.3984 609.011 31.6621C608.859 31.9258 608.75 32.2275 608.686 32.5674C608.627 32.9072 608.598 33.2588 608.598 33.6221V33.8857C608.598 34.2549 608.627 34.6123 608.686 34.958C608.744 35.2979 608.85 35.5967 609.002 35.8545C609.149 36.1182 609.348 36.3291 609.6 36.4873C609.858 36.6455 610.183 36.7246 610.575 36.7246ZM616.644 33.6572C616.644 32.9658 616.744 32.3271 616.943 31.7412C617.142 31.1494 617.435 30.6367 617.822 30.2031C618.203 29.7695 618.668 29.4297 619.219 29.1836C619.776 28.9375 620.411 28.8145 621.126 28.8145C621.841 28.8145 622.477 28.9375 623.034 29.1836C623.59 29.4297 624.062 29.7695 624.449 30.2031C624.829 30.6367 625.12 31.1494 625.319 31.7412C625.518 32.3271 625.618 32.9658 625.618 33.6572V33.8418C625.618 34.5391 625.518 35.1836 625.319 35.7754C625.12 36.3613 624.829 36.8711 624.449 37.3047C624.068 37.7383 623.599 38.0781 623.042 38.3242C622.486 38.5645 621.853 38.6846 621.144 38.6846C620.429 38.6846 619.79 38.5645 619.228 38.3242C618.671 38.0781 618.203 37.7383 617.822 37.3047C617.435 36.8711 617.142 36.3613 616.943 35.7754C616.744 35.1836 616.644 34.5391 616.644 33.8418V33.6572ZM619.087 33.8418C619.087 34.2402 619.125 34.6152 619.202 34.9668C619.278 35.3125 619.398 35.6143 619.562 35.8721C619.726 36.1357 619.937 36.3438 620.195 36.4961C620.458 36.6484 620.775 36.7246 621.144 36.7246C621.501 36.7246 621.809 36.6484 622.067 36.4961C622.325 36.3438 622.536 36.1357 622.7 35.8721C622.858 35.6143 622.975 35.3125 623.051 34.9668C623.127 34.6152 623.165 34.2402 623.165 33.8418V33.6572C623.165 33.2705 623.127 32.9043 623.051 32.5586C622.975 32.2129 622.858 31.9082 622.7 31.6445C622.536 31.3809 622.325 31.1729 622.067 31.0205C621.809 30.8682 621.495 30.792 621.126 30.792C620.763 30.792 620.453 30.8682 620.195 31.0205C619.937 31.1729 619.726 31.3809 619.562 31.6445C619.398 31.9082 619.278 32.2129 619.202 32.5586C619.125 32.9043 619.087 33.2705 619.087 33.6572V33.8418ZM629.111 28.9902L629.181 30.1416C629.363 29.7314 629.612 29.4092 629.928 29.1748C630.251 28.9346 630.64 28.8145 631.097 28.8145C631.32 28.8145 631.519 28.8408 631.695 28.8936C631.871 28.9463 632.023 29.0283 632.152 29.1396C632.252 29.2217 632.337 29.3213 632.407 29.4385C632.483 29.5498 632.547 29.6787 632.6 29.8252C632.682 29.6846 632.773 29.5586 632.873 29.4473C632.978 29.3301 633.092 29.2305 633.215 29.1484C633.368 29.043 633.541 28.9609 633.734 28.9023C633.927 28.8438 634.138 28.8145 634.367 28.8145C634.654 28.8145 634.921 28.8672 635.167 28.9727C635.419 29.0781 635.638 29.2451 635.826 29.4736C636.007 29.708 636.148 30.0098 636.248 30.3789C636.353 30.7422 636.406 31.1875 636.406 31.7148V38.5H634.182V31.7061C634.182 31.5244 634.162 31.375 634.121 31.2578C634.086 31.1406 634.036 31.0469 633.971 30.9766C633.907 30.9121 633.831 30.8682 633.743 30.8447C633.661 30.8154 633.576 30.8008 633.488 30.8008C633.394 30.8008 633.309 30.8125 633.233 30.8359C633.163 30.8594 633.095 30.8916 633.031 30.9326C632.978 30.9736 632.931 31.0205 632.89 31.0732C632.849 31.1201 632.814 31.1758 632.785 31.2402C632.785 31.252 632.785 31.2783 632.785 31.3193C632.785 31.3604 632.785 31.416 632.785 31.4863V38.5H630.631V31.6973C630.631 31.5156 630.614 31.3662 630.579 31.249C630.544 31.1318 630.497 31.041 630.438 30.9766C630.374 30.9121 630.3 30.8682 630.218 30.8447C630.136 30.8154 630.048 30.8008 629.955 30.8008C629.849 30.8008 629.755 30.8184 629.673 30.8535C629.591 30.8887 629.518 30.9385 629.454 31.0029C629.407 31.0498 629.366 31.1055 629.331 31.1699C629.296 31.2344 629.263 31.3047 629.234 31.3809V38.5H627.01V28.9902H629.111ZM638.238 42.1562V28.9902H640.497L640.585 29.9219C640.714 29.7637 640.854 29.623 641.007 29.5C641.159 29.3711 641.323 29.2598 641.499 29.166C641.71 29.0547 641.941 28.9697 642.193 28.9111C642.451 28.8467 642.726 28.8145 643.019 28.8145C643.623 28.8145 644.156 28.9316 644.619 29.166C645.082 29.3945 645.472 29.7197 645.788 30.1416C646.104 30.5693 646.342 31.082 646.5 31.6797C646.664 32.2715 646.746 32.9277 646.746 33.6484V33.833C646.746 34.5244 646.664 35.166 646.5 35.7578C646.342 36.3496 646.107 36.8594 645.797 37.2871C645.48 37.7207 645.091 38.0605 644.628 38.3066C644.165 38.5527 643.635 38.6758 643.037 38.6758C642.721 38.6758 642.428 38.6406 642.158 38.5703C641.894 38.5059 641.648 38.4092 641.42 38.2803C641.285 38.1982 641.156 38.1074 641.033 38.0078C640.91 37.9082 640.793 37.7969 640.682 37.6738V42.1562H638.238ZM644.303 33.6484C644.303 33.25 644.265 32.8779 644.188 32.5322C644.118 32.1807 644.007 31.876 643.854 31.6182C643.696 31.3662 643.494 31.167 643.248 31.0205C643.008 30.874 642.715 30.8008 642.369 30.8008C642.17 30.8008 641.988 30.8213 641.824 30.8623C641.66 30.8975 641.511 30.9502 641.376 31.0205C641.224 31.1025 641.089 31.2051 640.972 31.3281C640.86 31.4512 640.764 31.5947 640.682 31.7588V35.7314C640.758 35.8838 640.849 36.0215 640.954 36.1445C641.065 36.2676 641.191 36.373 641.332 36.4609C641.467 36.543 641.622 36.6074 641.798 36.6543C641.974 36.6953 642.17 36.7158 642.387 36.7158C642.732 36.7158 643.025 36.6396 643.266 36.4873C643.512 36.335 643.711 36.127 643.863 35.8633C644.016 35.5996 644.127 35.2949 644.197 34.9492C644.267 34.5977 644.303 34.2256 644.303 33.833V33.6484ZM654.757 38.5C654.698 38.3828 654.649 38.248 654.608 38.0957C654.567 37.9434 654.531 37.7822 654.502 37.6123C654.367 37.7588 654.212 37.8965 654.036 38.0254C653.86 38.1543 653.667 38.2656 653.456 38.3594C653.239 38.459 653.002 38.5352 652.744 38.5879C652.486 38.6465 652.208 38.6758 651.909 38.6758C651.423 38.6758 650.975 38.6055 650.565 38.4648C650.16 38.3242 649.812 38.1279 649.519 37.876C649.226 37.624 648.997 37.3252 648.833 36.9795C648.669 36.6279 648.587 36.2471 648.587 35.8369C648.587 35.3096 648.69 34.8438 648.895 34.4395C649.1 34.0293 649.407 33.6924 649.818 33.4287C650.187 33.1885 650.641 33.0068 651.18 32.8838C651.725 32.7549 652.349 32.6904 653.052 32.6904H654.414V32.1279C654.414 31.9053 654.379 31.7061 654.309 31.5303C654.238 31.3486 654.133 31.1934 653.992 31.0645C653.846 30.9297 653.661 30.8271 653.439 30.7568C653.222 30.6807 652.967 30.6426 652.674 30.6426C652.416 30.6426 652.193 30.6748 652.006 30.7393C651.818 30.7979 651.666 30.8828 651.549 30.9941C651.443 31.0938 651.364 31.2139 651.312 31.3545C651.265 31.4951 651.241 31.6504 651.241 31.8203H648.798C648.798 31.416 648.886 31.0322 649.062 30.6689C649.243 30.3057 649.507 29.9863 649.853 29.7109C650.193 29.4355 650.609 29.2188 651.101 29.0605C651.599 28.8965 652.167 28.8145 652.806 28.8145C653.38 28.8145 653.913 28.8848 654.405 29.0254C654.903 29.166 655.334 29.374 655.697 29.6494C656.061 29.9248 656.345 30.2734 656.55 30.6953C656.755 31.1113 656.858 31.5947 656.858 32.1455V36.2236C656.858 36.7334 656.89 37.1553 656.954 37.4893C657.019 37.8232 657.112 38.1104 657.235 38.3506V38.5H654.757ZM652.428 36.7861C652.674 36.7861 652.902 36.7568 653.113 36.6982C653.324 36.6396 653.515 36.5635 653.685 36.4697C653.855 36.376 654.001 36.2705 654.124 36.1533C654.247 36.0303 654.344 35.9072 654.414 35.7842V34.1494H653.166C652.785 34.1494 652.46 34.1875 652.191 34.2637C651.921 34.334 651.701 34.4336 651.531 34.5625C651.361 34.6973 651.235 34.8584 651.153 35.0459C651.071 35.2275 651.03 35.4268 651.03 35.6436C651.03 35.8135 651.06 35.9717 651.118 36.1182C651.183 36.2588 651.274 36.3789 651.391 36.4785C651.508 36.5723 651.651 36.6484 651.821 36.707C651.997 36.7598 652.199 36.7861 652.428 36.7861ZM659.428 38.5V28.9902H661.643L661.792 30.3086C661.915 30.1328 662.05 29.9717 662.197 29.8252C662.343 29.6787 662.498 29.5469 662.662 29.4297C662.944 29.2305 663.251 29.0781 663.585 28.9727C663.919 28.8672 664.274 28.8145 664.649 28.8145C665.129 28.8145 665.569 28.8848 665.967 29.0254C666.366 29.166 666.711 29.3887 667.004 29.6934C667.291 30.0039 667.514 30.4023 667.672 30.8887C667.836 31.3691 667.918 31.9551 667.918 32.6465V38.5H665.475V32.6816C665.475 32.3066 665.431 31.999 665.343 31.7588C665.261 31.5127 665.141 31.3193 664.983 31.1787C664.825 31.0381 664.634 30.9414 664.411 30.8887C664.189 30.8301 663.937 30.8008 663.656 30.8008C663.421 30.8008 663.204 30.8271 663.005 30.8799C662.812 30.9326 662.639 31.0117 662.487 31.1172C662.364 31.1934 662.252 31.2842 662.153 31.3896C662.053 31.4951 661.962 31.6123 661.88 31.7412V38.5H659.428ZM671.544 42.3408C671.309 42.3408 671.104 42.3262 670.928 42.2969C670.758 42.2676 670.568 42.2236 670.357 42.165L670.656 40.3018C670.755 40.3018 670.881 40.3047 671.034 40.3105C671.192 40.3223 671.318 40.3281 671.412 40.3281C671.605 40.3281 671.775 40.2666 671.921 40.1436C672.074 40.0264 672.203 39.8975 672.308 39.7568C672.414 39.6162 672.49 39.5107 672.537 39.4404C672.589 39.3701 672.651 39.2705 672.721 39.1416L673.284 38.0957L669.258 28.9902H671.93L674.11 34.5625L674.374 35.5293L674.734 34.5801L676.905 28.9902H679.603L674.778 39.9238C674.672 40.1641 674.535 40.4248 674.365 40.7061C674.201 40.9873 673.993 41.248 673.741 41.4883C673.489 41.7285 673.181 41.9307 672.818 42.0947C672.461 42.2588 672.036 42.3408 671.544 42.3408ZM683.123 37.085C683.123 36.6338 683.272 36.2529 683.571 35.9424C683.87 35.626 684.286 35.4678 684.819 35.4678C685.347 35.4678 685.76 35.623 686.058 35.9336C686.363 36.2441 686.515 36.6279 686.515 37.085C686.515 37.542 686.36 37.9229 686.05 38.2275C685.745 38.5264 685.335 38.6758 684.819 38.6758C684.298 38.6758 683.885 38.5234 683.58 38.2188C683.275 37.9141 683.123 37.5361 683.123 37.085ZM695.476 36.7246C695.716 36.7246 695.944 36.6895 696.161 36.6191C696.378 36.5488 696.568 36.4492 696.733 36.3203C696.897 36.1914 697.023 36.0361 697.11 35.8545C697.204 35.6729 697.245 35.4707 697.234 35.248H699.536C699.548 35.7402 699.445 36.1973 699.229 36.6191C699.018 37.041 698.728 37.4043 698.359 37.709C697.989 38.0137 697.559 38.2539 697.067 38.4297C696.58 38.5996 696.065 38.6846 695.52 38.6846C694.781 38.6846 694.134 38.5615 693.577 38.3154C693.021 38.0635 692.558 37.7207 692.189 37.2871C691.814 36.8535 691.529 36.3467 691.336 35.7666C691.149 35.1807 691.055 34.5537 691.055 33.8857V33.6221C691.055 32.9541 691.149 32.3301 691.336 31.75C691.524 31.1641 691.805 30.6543 692.18 30.2207C692.555 29.7871 693.018 29.4443 693.568 29.1924C694.125 28.9404 694.77 28.8145 695.502 28.8145C696.088 28.8145 696.63 28.9023 697.128 29.0781C697.626 29.2539 698.057 29.5 698.42 29.8164C698.777 30.1387 699.056 30.5283 699.255 30.9854C699.454 31.4365 699.548 31.9434 699.536 32.5059H697.234C697.245 32.2715 697.21 32.0488 697.128 31.8379C697.046 31.627 696.926 31.4453 696.768 31.293C696.609 31.1406 696.419 31.0205 696.196 30.9326C695.974 30.8389 695.731 30.792 695.467 30.792C695.08 30.792 694.761 30.8711 694.509 31.0293C694.257 31.1875 694.058 31.3984 693.911 31.6621C693.759 31.9258 693.65 32.2275 693.586 32.5674C693.527 32.9072 693.498 33.2588 693.498 33.6221V33.8857C693.498 34.2549 693.527 34.6123 693.586 34.958C693.645 35.2979 693.75 35.5967 693.902 35.8545C694.049 36.1182 694.248 36.3291 694.5 36.4873C694.758 36.6455 695.083 36.7246 695.476 36.7246ZM701.544 33.6572C701.544 32.9658 701.644 32.3271 701.843 31.7412C702.042 31.1494 702.335 30.6367 702.722 30.2031C703.103 29.7695 703.569 29.4297 704.12 29.1836C704.676 28.9375 705.312 28.8145 706.027 28.8145C706.742 28.8145 707.377 28.9375 707.934 29.1836C708.491 29.4297 708.962 29.7695 709.349 30.2031C709.73 30.6367 710.02 31.1494 710.219 31.7412C710.418 32.3271 710.518 32.9658 710.518 33.6572V33.8418C710.518 34.5391 710.418 35.1836 710.219 35.7754C710.02 36.3613 709.73 36.8711 709.349 37.3047C708.968 37.7383 708.499 38.0781 707.943 38.3242C707.386 38.5645 706.753 38.6846 706.044 38.6846C705.329 38.6846 704.691 38.5645 704.128 38.3242C703.572 38.0781 703.103 37.7383 702.722 37.3047C702.335 36.8711 702.042 36.3613 701.843 35.7754C701.644 35.1836 701.544 34.5391 701.544 33.8418V33.6572ZM703.988 33.8418C703.988 34.2402 704.026 34.6152 704.102 34.9668C704.178 35.3125 704.298 35.6143 704.462 35.8721C704.626 36.1357 704.837 36.3438 705.095 36.4961C705.359 36.6484 705.675 36.7246 706.044 36.7246C706.402 36.7246 706.709 36.6484 706.967 36.4961C707.225 36.3438 707.436 36.1357 707.6 35.8721C707.758 35.6143 707.875 35.3125 707.952 34.9668C708.028 34.6152 708.066 34.2402 708.066 33.8418V33.6572C708.066 33.2705 708.028 32.9043 707.952 32.5586C707.875 32.2129 707.758 31.9082 707.6 31.6445C707.436 31.3809 707.225 31.1729 706.967 31.0205C706.709 30.8682 706.396 30.792 706.027 30.792C705.663 30.792 705.353 30.8682 705.095 31.0205C704.837 31.1729 704.626 31.3809 704.462 31.6445C704.298 31.9082 704.178 32.2129 704.102 32.5586C704.026 32.9043 703.988 33.2705 703.988 33.6572V33.8418ZM714.011 28.9902L714.082 30.1416C714.263 29.7314 714.512 29.4092 714.829 29.1748C715.151 28.9346 715.541 28.8145 715.998 28.8145C716.22 28.8145 716.42 28.8408 716.595 28.8936C716.771 28.9463 716.923 29.0283 717.052 29.1396C717.152 29.2217 717.237 29.3213 717.307 29.4385C717.383 29.5498 717.448 29.6787 717.501 29.8252C717.583 29.6846 717.673 29.5586 717.773 29.4473C717.879 29.3301 717.993 29.2305 718.116 29.1484C718.268 29.043 718.441 28.9609 718.634 28.9023C718.828 28.8438 719.039 28.8145 719.267 28.8145C719.554 28.8145 719.821 28.8672 720.067 28.9727C720.319 29.0781 720.539 29.2451 720.726 29.4736C720.908 29.708 721.048 30.0098 721.148 30.3789C721.254 30.7422 721.306 31.1875 721.306 31.7148V38.5H719.083V31.7061C719.083 31.5244 719.062 31.375 719.021 31.2578C718.986 31.1406 718.936 31.0469 718.872 30.9766C718.807 30.9121 718.731 30.8682 718.643 30.8447C718.561 30.8154 718.476 30.8008 718.388 30.8008C718.295 30.8008 718.21 30.8125 718.133 30.8359C718.063 30.8594 717.996 30.8916 717.931 30.9326C717.879 30.9736 717.832 31.0205 717.791 31.0732C717.75 31.1201 717.714 31.1758 717.685 31.2402C717.685 31.252 717.685 31.2783 717.685 31.3193C717.685 31.3604 717.685 31.416 717.685 31.4863V38.5H715.532V31.6973C715.532 31.5156 715.514 31.3662 715.479 31.249C715.444 31.1318 715.397 31.041 715.338 30.9766C715.274 30.9121 715.201 30.8682 715.119 30.8447C715.037 30.8154 714.949 30.8008 714.855 30.8008C714.75 30.8008 714.656 30.8184 714.574 30.8535C714.492 30.8887 714.419 30.9385 714.354 31.0029C714.307 31.0498 714.266 31.1055 714.231 31.1699C714.196 31.2344 714.164 31.3047 714.134 31.3809V38.5H711.911V28.9902H714.011Z" fill="black" fill-opacity="0.8"/>
<path d="M349.5 33.9166L340 28.375L368.5 11.75L397 28.375V48.5625H392.25V31.1459L387.5 33.9166V49.7768L386.971 50.4302C382.621 55.806 375.962 59.25 368.5 59.25C361.038 59.25 354.379 55.806 350.029 50.4302L349.5 49.7768V33.9166ZM354.25 36.6875V48.0678C357.735 52.0158 362.826 54.5 368.5 54.5C374.174 54.5 379.265 52.0158 382.75 48.0678V36.6875L368.5 45L354.25 36.6875ZM349.427 28.375L368.5 39.5009L387.573 28.375L368.5 17.2491L349.427 28.375Z" fill="black"/>
</svg>
