<svg width="736" height="64" viewBox="0 0 736 64" fill="none" xmlns="http://www.w3.org/2000/svg">
<rect width="304" height="64" rx="6" fill="white"/>
<path d="M31.7311 38.5C31.6725 38.3828 31.6227 38.248 31.5817 38.0957C31.5407 37.9434 31.5055 37.7822 31.4762 37.6123C31.3415 37.7588 31.1862 37.8965 31.0104 38.0254C30.8346 38.1543 30.6413 38.2656 30.4303 38.3594C30.2135 38.459 29.9762 38.5352 29.7184 38.5879C29.4606 38.6465 29.1823 38.6758 28.8834 38.6758C28.3971 38.6758 27.9489 38.6055 27.5387 38.4648C27.1344 38.3242 26.7858 38.1279 26.4928 37.876C26.1999 37.624 25.9713 37.3252 25.8073 36.9795C25.6432 36.6279 25.5612 36.2471 25.5612 35.8369C25.5612 35.3096 25.6637 34.8438 25.8688 34.4395C26.0739 34.0293 26.3815 33.6924 26.7916 33.4287C27.1608 33.1885 27.6149 33.0068 28.154 32.8838C28.6989 32.7549 29.3229 32.6904 30.026 32.6904H31.3883V32.1279C31.3883 31.9053 31.3532 31.7061 31.2829 31.5303C31.2125 31.3486 31.1071 31.1934 30.9665 31.0645C30.82 30.9297 30.6354 30.8271 30.4127 30.7568C30.1959 30.6807 29.9411 30.6426 29.6481 30.6426C29.3903 30.6426 29.1676 30.6748 28.9801 30.7393C28.7926 30.7979 28.6403 30.8828 28.5231 30.9941C28.4176 31.0938 28.3385 31.2139 28.2858 31.3545C28.2389 31.4951 28.2155 31.6504 28.2155 31.8203H25.7721C25.7721 31.416 25.86 31.0322 26.0358 30.6689C26.2174 30.3057 26.4811 29.9863 26.8268 29.7109C27.1666 29.4355 27.5827 29.2188 28.0749 29.0605C28.5729 28.8965 29.1413 28.8145 29.7799 28.8145C30.3541 28.8145 30.8874 28.8848 31.3795 29.0254C31.8776 29.166 32.3083 29.374 32.6715 29.6494C33.0348 29.9248 33.319 30.2734 33.5241 30.6953C33.7291 31.1113 33.8317 31.5947 33.8317 32.1455V36.2236C33.8317 36.7334 33.8639 37.1553 33.9284 37.4893C33.9928 37.8232 34.0866 38.1104 34.2096 38.3506V38.5H31.7311ZM29.402 36.7861C29.6481 36.7861 29.8766 36.7568 30.0875 36.6982C30.2985 36.6396 30.4889 36.5635 30.6588 36.4697C30.8288 36.376 30.9752 36.2705 31.0983 36.1533C31.2213 36.0303 31.318 35.9072 31.3883 35.7842V34.1494H30.1403C29.7594 34.1494 29.4342 34.1875 29.1647 34.2637C28.8952 34.334 28.6754 34.4336 28.5055 34.5625C28.3356 34.6973 28.2096 34.8584 28.1276 35.0459C28.0456 35.2275 28.0045 35.4268 28.0045 35.6436C28.0045 35.8135 28.0338 35.9717 28.0924 36.1182C28.1569 36.2588 28.2477 36.3789 28.3649 36.4785C28.4821 36.5723 28.6256 36.6484 28.7956 36.707C28.9713 36.7598 29.1735 36.7861 29.402 36.7861ZM36.912 25H42.2294V36.5137H44.954V38.5H36.912V36.5137H39.7597V26.9951H36.912V25ZM47.6652 28.9902H52.8419V36.5137H55.4171V38.5H47.6652V36.5137H50.3722V30.9854H47.6652V28.9902ZM50.1964 26.5557C50.1964 26.3682 50.2287 26.1953 50.2931 26.0371C50.3634 25.873 50.4601 25.7324 50.5831 25.6152C50.7062 25.5039 50.8527 25.416 51.0226 25.3516C51.1984 25.2871 51.3917 25.2549 51.6027 25.2549C52.0363 25.2549 52.379 25.3779 52.631 25.624C52.8888 25.8643 53.0177 26.1748 53.0177 26.5557C53.0177 26.9365 52.8888 27.25 52.631 27.4961C52.379 27.7363 52.0363 27.8564 51.6027 27.8564C51.3917 27.8564 51.1984 27.8242 51.0226 27.7598C50.8527 27.6953 50.7062 27.6045 50.5831 27.4873C50.4601 27.376 50.3634 27.2412 50.2931 27.083C50.2287 26.9189 50.1964 26.7432 50.1964 26.5557ZM61.8373 36.7246C62.0775 36.7246 62.306 36.6895 62.5228 36.6191C62.7396 36.5488 62.9301 36.4492 63.0941 36.3203C63.2582 36.1914 63.3842 36.0361 63.4721 35.8545C63.5658 35.6729 63.6068 35.4707 63.5951 35.248H65.8978C65.9096 35.7402 65.807 36.1973 65.5902 36.6191C65.3793 37.041 65.0892 37.4043 64.7201 37.709C64.351 38.0137 63.9203 38.2539 63.4281 38.4297C62.9418 38.5996 62.4262 38.6846 61.8812 38.6846C61.143 38.6846 60.4955 38.5615 59.9389 38.3154C59.3822 38.0635 58.9193 37.7207 58.5502 37.2871C58.1752 36.8535 57.891 36.3467 57.6976 35.7666C57.5101 35.1807 57.4164 34.5537 57.4164 33.8857V33.6221C57.4164 32.9541 57.5101 32.3301 57.6976 31.75C57.8851 31.1641 58.1664 30.6543 58.5414 30.2207C58.9164 29.7871 59.3793 29.4443 59.9301 29.1924C60.4867 28.9404 61.1312 28.8145 61.8637 28.8145C62.4496 28.8145 62.9916 28.9023 63.4896 29.0781C63.9877 29.2539 64.4184 29.5 64.7816 29.8164C65.1391 30.1387 65.4174 30.5283 65.6166 30.9854C65.8158 31.4365 65.9096 31.9434 65.8978 32.5059H63.5951C63.6068 32.2715 63.5717 32.0488 63.4896 31.8379C63.4076 31.627 63.2875 31.4453 63.1293 31.293C62.9711 31.1406 62.7807 31.0205 62.558 30.9326C62.3353 30.8389 62.0922 30.792 61.8285 30.792C61.4418 30.792 61.1225 30.8711 60.8705 31.0293C60.6185 31.1875 60.4193 31.3984 60.2728 31.6621C60.1205 31.9258 60.0121 32.2275 59.9476 32.5674C59.8891 32.9072 59.8598 33.2588 59.8598 33.6221V33.8857C59.8598 34.2549 59.8891 34.6123 59.9476 34.958C60.0062 35.2979 60.1117 35.5967 60.2641 35.8545C60.4105 36.1182 60.6098 36.3291 60.8617 36.4873C61.1195 36.6455 61.4447 36.7246 61.8373 36.7246ZM72.8541 38.6758C72.1217 38.6758 71.4567 38.5557 70.859 38.3154C70.2614 38.0752 69.7487 37.7471 69.3209 37.3311C68.8932 36.9209 68.5621 36.4375 68.3278 35.8809C68.0993 35.3184 67.985 34.7178 67.985 34.0791V33.7275C67.985 33.001 68.0993 32.3389 68.3278 31.7412C68.5563 31.1377 68.8756 30.6191 69.2858 30.1855C69.6959 29.752 70.1823 29.415 70.7448 29.1748C71.3073 28.9346 71.9196 28.8145 72.5817 28.8145C73.2672 28.8145 73.8766 28.9287 74.4098 29.1572C74.9489 29.3799 75.4059 29.6963 75.7809 30.1064C76.15 30.5166 76.4313 31.0117 76.6246 31.5918C76.818 32.166 76.9147 32.8018 76.9147 33.499V34.5361H70.4635V34.5625C70.5455 34.9434 70.651 35.251 70.7799 35.4854C70.9088 35.7139 71.0817 35.9219 71.2985 36.1094C71.5211 36.3027 71.776 36.4521 72.0631 36.5576C72.3502 36.6631 72.6637 36.7158 73.0036 36.7158C73.484 36.7158 73.9498 36.625 74.401 36.4434C74.8522 36.2617 75.2184 35.9893 75.4996 35.626L76.7213 36.9443C76.4108 37.3838 75.9186 37.7822 75.2448 38.1396C74.5709 38.4971 73.7741 38.6758 72.8541 38.6758ZM72.5641 30.792C72.2887 30.792 72.0368 30.8418 71.8082 30.9414C71.5797 31.0352 71.3805 31.1729 71.2106 31.3545C71.0348 31.5361 70.8883 31.7529 70.7711 32.0049C70.6539 32.2568 70.5661 32.5381 70.5075 32.8486H74.5153V32.6553C74.5153 32.3975 74.4684 32.1543 74.3746 31.9258C74.2809 31.6973 74.152 31.498 73.9879 31.3281C73.8239 31.1641 73.6217 31.0352 73.3815 30.9414C73.1471 30.8418 72.8746 30.792 72.5641 30.792ZM81.3222 37.085C81.3222 36.6338 81.4716 36.2529 81.7704 35.9424C82.0692 35.626 82.4852 35.4678 83.0184 35.4678C83.5458 35.4678 83.9589 35.623 84.2577 35.9336C84.5624 36.2441 84.7147 36.6279 84.7147 37.085C84.7147 37.542 84.5595 37.9229 84.2489 38.2275C83.9442 38.5264 83.5341 38.6758 83.0184 38.6758C82.497 38.6758 82.0839 38.5234 81.7792 38.2188C81.4745 37.9141 81.3222 37.5361 81.3222 37.085ZM90.1681 38.5L88.463 28.9902H90.6954L91.4074 34.6416L91.5216 35.5469L91.6886 34.6416L92.7169 28.9902H94.3517L95.38 34.6152L95.547 35.5205L95.6701 34.5977L96.3732 28.9902H98.6144L96.9093 38.5H94.7648L93.7189 33.4199L93.5167 32.4531L93.3234 33.4199L92.3126 38.5H90.1681ZM106.019 38.5C105.96 38.3828 105.911 38.248 105.87 38.0957C105.828 37.9434 105.793 37.7822 105.764 37.6123C105.629 37.7588 105.474 37.8965 105.298 38.0254C105.122 38.1543 104.929 38.2656 104.718 38.3594C104.501 38.459 104.264 38.5352 104.006 38.5879C103.748 38.6465 103.47 38.6758 103.171 38.6758C102.685 38.6758 102.237 38.6055 101.827 38.4648C101.422 38.3242 101.074 38.1279 100.781 37.876C100.488 37.624 100.259 37.3252 100.095 36.9795C99.931 36.6279 99.849 36.2471 99.849 35.8369C99.849 35.3096 99.9515 34.8438 100.157 34.4395C100.362 34.0293 100.669 33.6924 101.079 33.4287C101.449 33.1885 101.903 33.0068 102.442 32.8838C102.987 32.7549 103.611 32.6904 104.314 32.6904H105.676V32.1279C105.676 31.9053 105.641 31.7061 105.571 31.5303C105.5 31.3486 105.395 31.1934 105.254 31.0645C105.108 30.9297 104.923 30.8271 104.701 30.7568C104.484 30.6807 104.229 30.6426 103.936 30.6426C103.678 30.6426 103.455 30.6748 103.268 30.7393C103.08 30.7979 102.928 30.8828 102.811 30.9941C102.705 31.0938 102.626 31.2139 102.574 31.3545C102.527 31.4951 102.503 31.6504 102.503 31.8203H100.06C100.06 31.416 100.148 31.0322 100.324 30.6689C100.505 30.3057 100.769 29.9863 101.115 29.7109C101.454 29.4355 101.87 29.2188 102.363 29.0605C102.861 28.8965 103.429 28.8145 104.068 28.8145C104.642 28.8145 105.175 28.8848 105.667 29.0254C106.165 29.166 106.596 29.374 106.959 29.6494C107.323 29.9248 107.607 30.2734 107.812 30.6953C108.017 31.1113 108.12 31.5947 108.12 32.1455V36.2236C108.12 36.7334 108.152 37.1553 108.216 37.4893C108.281 37.8232 108.374 38.1104 108.497 38.3506V38.5H106.019ZM103.69 36.7861C103.936 36.7861 104.164 36.7568 104.375 36.6982C104.586 36.6396 104.777 36.5635 104.947 36.4697C105.117 36.376 105.263 36.2705 105.386 36.1533C105.509 36.0303 105.606 35.9072 105.676 35.7842V34.1494H104.428C104.047 34.1494 103.722 34.1875 103.453 34.2637C103.183 34.334 102.963 34.4336 102.793 34.5625C102.623 34.6973 102.497 34.8584 102.415 35.0459C102.333 35.2275 102.292 35.4268 102.292 35.6436C102.292 35.8135 102.322 35.9717 102.38 36.1182C102.445 36.2588 102.536 36.3789 102.653 36.4785C102.77 36.5723 102.913 36.6484 103.083 36.707C103.259 36.7598 103.461 36.7861 103.69 36.7861ZM111.2 25H116.517V36.5137H119.242V38.5H111.2V36.5137H114.047V26.9951H111.2V25ZM124.88 34.5713L123.772 35.5996V38.5H121.329V25H123.772V32.7168L124.511 31.873L127.139 28.9902H130.074L126.488 32.9541L130.575 38.5H127.578L124.88 34.5713ZM136.529 38.6758C135.797 38.6758 135.132 38.5557 134.534 38.3154C133.937 38.0752 133.424 37.7471 132.996 37.3311C132.568 36.9209 132.237 36.4375 132.003 35.8809C131.775 35.3184 131.66 34.7178 131.66 34.0791V33.7275C131.66 33.001 131.775 32.3389 132.003 31.7412C132.232 31.1377 132.551 30.6191 132.961 30.1855C133.371 29.752 133.858 29.415 134.42 29.1748C134.983 28.9346 135.595 28.8145 136.257 28.8145C136.943 28.8145 137.552 28.9287 138.085 29.1572C138.624 29.3799 139.081 29.6963 139.456 30.1064C139.825 30.5166 140.107 31.0117 140.3 31.5918C140.493 32.166 140.59 32.8018 140.59 33.499V34.5361H134.139V34.5625C134.221 34.9434 134.326 35.251 134.455 35.4854C134.584 35.7139 134.757 35.9219 134.974 36.1094C135.196 36.3027 135.451 36.4521 135.738 36.5576C136.026 36.6631 136.339 36.7158 136.679 36.7158C137.159 36.7158 137.625 36.625 138.076 36.4434C138.527 36.2617 138.894 35.9893 139.175 35.626L140.397 36.9443C140.086 37.3838 139.594 37.7822 138.92 38.1396C138.246 38.4971 137.449 38.6758 136.529 38.6758ZM136.239 30.792C135.964 30.792 135.712 30.8418 135.484 30.9414C135.255 31.0352 135.056 31.1729 134.886 31.3545C134.71 31.5361 134.564 31.7529 134.446 32.0049C134.329 32.2568 134.241 32.5381 134.183 32.8486H138.191V32.6553C138.191 32.3975 138.144 32.1543 138.05 31.9258C137.956 31.6973 137.827 31.498 137.663 31.3281C137.499 31.1641 137.297 31.0352 137.057 30.9414C136.822 30.8418 136.55 30.792 136.239 30.792ZM149.357 28.8145C149.726 28.8145 150.066 28.8408 150.376 28.8936C150.693 28.9404 150.948 28.9932 151.141 29.0518L150.781 31.4863C150.458 31.4102 150.127 31.3545 149.787 31.3193C149.453 31.2783 149.134 31.2578 148.829 31.2578C148.513 31.2578 148.226 31.2871 147.968 31.3457C147.716 31.3984 147.491 31.4805 147.291 31.5918C147.051 31.7207 146.846 31.8848 146.676 32.084C146.506 32.2832 146.366 32.5176 146.254 32.7871V38.5H143.811V28.9902H146.087L146.184 30.335L146.202 30.5459C146.588 30.0068 147.051 29.585 147.59 29.2803C148.129 28.9697 148.718 28.8145 149.357 28.8145ZM162.184 31.2666C162.167 31.8174 162.105 32.3652 162 32.9102C161.894 33.4492 161.739 33.9326 161.534 34.3604C161.323 34.7939 161.056 35.1455 160.734 35.415C160.412 35.6787 160.025 35.8105 159.574 35.8105C159.404 35.8105 159.243 35.7871 159.09 35.7402C158.938 35.6934 158.8 35.623 158.677 35.5293C158.578 35.459 158.487 35.374 158.405 35.2744C158.323 35.1748 158.25 35.0635 158.185 34.9404C158.109 35.0459 158.027 35.1455 157.939 35.2393C157.851 35.3271 157.76 35.4062 157.667 35.4766C157.526 35.5762 157.377 35.6553 157.218 35.7139C157.06 35.7666 156.893 35.793 156.717 35.793C156.366 35.793 156.058 35.7139 155.795 35.5557C155.531 35.3975 155.317 35.1689 155.153 34.8701C154.989 34.5771 154.875 34.2227 154.81 33.8066C154.752 33.3906 154.746 32.9277 154.793 32.418C154.857 31.8203 154.971 31.2812 155.135 30.8008C155.305 30.3203 155.522 29.9072 155.786 29.5615C156.049 29.2217 156.36 28.9609 156.717 28.7793C157.075 28.5918 157.476 28.498 157.922 28.498C158.373 28.498 158.745 28.5654 159.038 28.7002C159.331 28.8291 159.568 28.9844 159.75 29.166L159.372 33.7979C159.36 33.9678 159.363 34.0996 159.38 34.1934C159.404 34.2871 159.439 34.3574 159.486 34.4043C159.527 34.4512 159.577 34.4805 159.635 34.4922C159.694 34.5039 159.753 34.5098 159.811 34.5098C159.964 34.5098 160.101 34.4307 160.224 34.2725C160.353 34.1143 160.464 33.8945 160.558 33.6133C160.652 33.332 160.722 32.998 160.769 32.6113C160.822 32.2188 160.848 31.791 160.848 31.3281C160.872 30.6133 160.819 29.9951 160.69 29.4736C160.567 28.9463 160.371 28.5127 160.101 28.1729C159.832 27.833 159.495 27.5811 159.09 27.417C158.686 27.2529 158.22 27.1709 157.693 27.1709C157.095 27.1709 156.556 27.3057 156.076 27.5752C155.601 27.8389 155.197 28.208 154.863 28.6826C154.523 29.1572 154.256 29.7227 154.063 30.3789C153.87 31.0293 153.761 31.7441 153.738 32.5234C153.709 33.3086 153.761 33.9941 153.896 34.5801C154.037 35.166 154.254 35.6523 154.547 36.0391C154.834 36.4316 155.197 36.7246 155.636 36.918C156.082 37.1113 156.591 37.208 157.166 37.208C157.347 37.208 157.535 37.1963 157.728 37.1729C157.922 37.1494 158.112 37.1143 158.299 37.0674C158.481 37.0264 158.654 36.9766 158.818 36.918C158.988 36.8594 159.14 36.7949 159.275 36.7246L159.556 37.9111C159.404 38.0225 159.228 38.1191 159.029 38.2012C158.836 38.2832 158.63 38.3506 158.414 38.4033C158.197 38.4619 157.98 38.5029 157.763 38.5264C157.547 38.5557 157.339 38.5703 157.139 38.5703C156.284 38.5703 155.546 38.4297 154.924 38.1484C154.303 37.8672 153.791 37.4658 153.386 36.9443C152.982 36.4229 152.686 35.79 152.499 35.0459C152.317 34.2959 152.241 33.4551 152.27 32.5234C152.299 31.5977 152.452 30.7275 152.727 29.9131C153.008 29.0986 153.392 28.3867 153.879 27.7773C154.359 27.1738 154.93 26.6992 155.592 26.3535C156.255 26.002 156.984 25.8262 157.781 25.8262C158.472 25.8262 159.096 25.958 159.653 26.2217C160.21 26.4795 160.681 26.8457 161.068 27.3203C161.449 27.8008 161.736 28.375 161.929 29.043C162.123 29.7109 162.208 30.4521 162.184 31.2666ZM156.313 32.418C156.296 32.7461 156.298 33.0361 156.322 33.2881C156.351 33.54 156.398 33.748 156.463 33.9121C156.533 34.0938 156.624 34.2285 156.735 34.3164C156.846 34.4043 156.975 34.4482 157.122 34.4482C157.21 34.4482 157.297 34.4365 157.385 34.4131C157.479 34.3838 157.57 34.3369 157.658 34.2725C157.711 34.2314 157.763 34.1816 157.816 34.123C157.869 34.0645 157.922 33.9941 157.974 33.9121L157.983 33.7979L158.317 29.8691C158.288 29.8633 158.253 29.8574 158.212 29.8516C158.171 29.8457 158.115 29.8428 158.045 29.8428C157.787 29.8428 157.558 29.8984 157.359 30.0098C157.166 30.1211 156.999 30.2881 156.858 30.5107C156.717 30.7275 156.6 30.9971 156.506 31.3193C156.419 31.6357 156.354 32.002 156.313 32.418ZM167.963 36.7246C168.203 36.7246 168.432 36.6895 168.648 36.6191C168.865 36.5488 169.056 36.4492 169.22 36.3203C169.384 36.1914 169.51 36.0361 169.598 35.8545C169.691 35.6729 169.732 35.4707 169.721 35.248H172.023C172.035 35.7402 171.932 36.1973 171.716 36.6191C171.505 37.041 171.215 37.4043 170.846 37.709C170.476 38.0137 170.046 38.2539 169.554 38.4297C169.067 38.5996 168.552 38.6846 168.007 38.6846C167.268 38.6846 166.621 38.5615 166.064 38.3154C165.508 38.0635 165.045 37.7207 164.676 37.2871C164.301 36.8535 164.016 36.3467 163.823 35.7666C163.636 35.1807 163.542 34.5537 163.542 33.8857V33.6221C163.542 32.9541 163.636 32.3301 163.823 31.75C164.011 31.1641 164.292 30.6543 164.667 30.2207C165.042 29.7871 165.505 29.4443 166.056 29.1924C166.612 28.9404 167.257 28.8145 167.989 28.8145C168.575 28.8145 169.117 28.9023 169.615 29.0781C170.113 29.2539 170.544 29.5 170.907 29.8164C171.265 30.1387 171.543 30.5283 171.742 30.9854C171.941 31.4365 172.035 31.9434 172.023 32.5059H169.721C169.732 32.2715 169.697 32.0488 169.615 31.8379C169.533 31.627 169.413 31.4453 169.255 31.293C169.097 31.1406 168.906 31.0205 168.683 30.9326C168.461 30.8389 168.218 30.792 167.954 30.792C167.567 30.792 167.248 30.8711 166.996 31.0293C166.744 31.1875 166.545 31.3984 166.398 31.6621C166.246 31.9258 166.138 32.2275 166.073 32.5674C166.015 32.9072 165.985 33.2588 165.985 33.6221V33.8857C165.985 34.2549 166.015 34.6123 166.073 34.958C166.132 35.2979 166.237 35.5967 166.39 35.8545C166.536 36.1182 166.735 36.3291 166.987 36.4873C167.245 36.6455 167.57 36.7246 167.963 36.7246ZM174.031 33.6572C174.031 32.9658 174.131 32.3271 174.33 31.7412C174.529 31.1494 174.822 30.6367 175.209 30.2031C175.59 29.7695 176.056 29.4297 176.607 29.1836C177.163 28.9375 177.799 28.8145 178.514 28.8145C179.229 28.8145 179.864 28.9375 180.421 29.1836C180.978 29.4297 181.449 29.7695 181.836 30.2031C182.217 30.6367 182.507 31.1494 182.706 31.7412C182.905 32.3271 183.005 32.9658 183.005 33.6572V33.8418C183.005 34.5391 182.905 35.1836 182.706 35.7754C182.507 36.3613 182.217 36.8711 181.836 37.3047C181.455 37.7383 180.986 38.0781 180.43 38.3242C179.873 38.5645 179.24 38.6846 178.531 38.6846C177.817 38.6846 177.178 38.5645 176.615 38.3242C176.059 38.0781 175.59 37.7383 175.209 37.3047C174.822 36.8711 174.529 36.3613 174.33 35.7754C174.131 35.1836 174.031 34.5391 174.031 33.8418V33.6572ZM176.475 33.8418C176.475 34.2402 176.513 34.6152 176.589 34.9668C176.665 35.3125 176.785 35.6143 176.949 35.8721C177.113 36.1357 177.324 36.3438 177.582 36.4961C177.846 36.6484 178.162 36.7246 178.531 36.7246C178.889 36.7246 179.196 36.6484 179.454 36.4961C179.712 36.3438 179.923 36.1357 180.087 35.8721C180.245 35.6143 180.362 35.3125 180.439 34.9668C180.515 34.6152 180.553 34.2402 180.553 33.8418V33.6572C180.553 33.2705 180.515 32.9043 180.439 32.5586C180.362 32.2129 180.245 31.9082 180.087 31.6445C179.923 31.3809 179.712 31.1729 179.454 31.0205C179.196 30.8682 178.883 30.792 178.514 30.792C178.151 30.792 177.84 30.8682 177.582 31.0205C177.324 31.1729 177.113 31.3809 176.949 31.6445C176.785 31.9082 176.665 32.2129 176.589 32.5586C176.513 32.9043 176.475 33.2705 176.475 33.6572V33.8418ZM186.498 28.9902L186.569 30.1416C186.75 29.7314 186.999 29.4092 187.316 29.1748C187.638 28.9346 188.028 28.8145 188.485 28.8145C188.707 28.8145 188.907 28.8408 189.082 28.8936C189.258 28.9463 189.411 29.0283 189.539 29.1396C189.639 29.2217 189.724 29.3213 189.794 29.4385C189.87 29.5498 189.935 29.6787 189.988 29.8252C190.07 29.6846 190.161 29.5586 190.26 29.4473C190.366 29.3301 190.48 29.2305 190.603 29.1484C190.755 29.043 190.928 28.9609 191.121 28.9023C191.315 28.8438 191.526 28.8145 191.754 28.8145C192.041 28.8145 192.308 28.8672 192.554 28.9727C192.806 29.0781 193.026 29.2451 193.213 29.4736C193.395 29.708 193.536 30.0098 193.635 30.3789C193.741 30.7422 193.793 31.1875 193.793 31.7148V38.5H191.57V31.7061C191.57 31.5244 191.549 31.375 191.508 31.2578C191.473 31.1406 191.423 31.0469 191.359 30.9766C191.294 30.9121 191.218 30.8682 191.13 30.8447C191.048 30.8154 190.963 30.8008 190.875 30.8008C190.782 30.8008 190.697 30.8125 190.62 30.8359C190.55 30.8594 190.483 30.8916 190.418 30.9326C190.366 30.9736 190.319 31.0205 190.278 31.0732C190.237 31.1201 190.202 31.1758 190.172 31.2402C190.172 31.252 190.172 31.2783 190.172 31.3193C190.172 31.3604 190.172 31.416 190.172 31.4863V38.5H188.019V31.6973C188.019 31.5156 188.001 31.3662 187.966 31.249C187.931 31.1318 187.884 31.041 187.826 30.9766C187.761 30.9121 187.688 30.8682 187.606 30.8447C187.524 30.8154 187.436 30.8008 187.342 30.8008C187.237 30.8008 187.143 30.8184 187.061 30.8535C186.979 30.8887 186.906 30.9385 186.841 31.0029C186.794 31.0498 186.753 31.1055 186.718 31.1699C186.683 31.2344 186.651 31.3047 186.621 31.3809V38.5H184.398V28.9902H186.498ZM195.626 42.1562V28.9902H197.884L197.972 29.9219C198.101 29.7637 198.242 29.623 198.394 29.5C198.547 29.3711 198.711 29.2598 198.886 29.166C199.097 29.0547 199.329 28.9697 199.581 28.9111C199.839 28.8467 200.114 28.8145 200.407 28.8145C201.01 28.8145 201.544 28.9316 202.006 29.166C202.469 29.3945 202.859 29.7197 203.175 30.1416C203.492 30.5693 203.729 31.082 203.887 31.6797C204.051 32.2715 204.133 32.9277 204.133 33.6484V33.833C204.133 34.5244 204.051 35.166 203.887 35.7578C203.729 36.3496 203.495 36.8594 203.184 37.2871C202.868 37.7207 202.478 38.0605 202.015 38.3066C201.552 38.5527 201.022 38.6758 200.424 38.6758C200.108 38.6758 199.815 38.6406 199.546 38.5703C199.282 38.5059 199.036 38.4092 198.807 38.2803C198.672 38.1982 198.544 38.1074 198.421 38.0078C198.297 37.9082 198.18 37.7969 198.069 37.6738V42.1562H195.626ZM201.69 33.6484C201.69 33.25 201.652 32.8779 201.576 32.5322C201.505 32.1807 201.394 31.876 201.242 31.6182C201.084 31.3662 200.881 31.167 200.635 31.0205C200.395 30.874 200.102 30.8008 199.756 30.8008C199.557 30.8008 199.376 30.8213 199.212 30.8623C199.047 30.8975 198.898 30.9502 198.763 31.0205C198.611 31.1025 198.476 31.2051 198.359 31.3281C198.248 31.4512 198.151 31.5947 198.069 31.7588V35.7314C198.145 35.8838 198.236 36.0215 198.341 36.1445C198.453 36.2676 198.579 36.373 198.719 36.4609C198.854 36.543 199.009 36.6074 199.185 36.6543C199.361 36.6953 199.557 36.7158 199.774 36.7158C200.12 36.7158 200.413 36.6396 200.653 36.4873C200.899 36.335 201.098 36.127 201.251 35.8633C201.403 35.5996 201.514 35.2949 201.585 34.9492C201.655 34.5977 201.69 34.2256 201.69 33.833V33.6484ZM212.144 38.5C212.086 38.3828 212.036 38.248 211.995 38.0957C211.954 37.9434 211.919 37.7822 211.89 37.6123C211.755 37.7588 211.599 37.8965 211.424 38.0254C211.248 38.1543 211.055 38.2656 210.844 38.3594C210.627 38.459 210.39 38.5352 210.132 38.5879C209.874 38.6465 209.596 38.6758 209.297 38.6758C208.81 38.6758 208.362 38.6055 207.952 38.4648C207.548 38.3242 207.199 38.1279 206.906 37.876C206.613 37.624 206.385 37.3252 206.221 36.9795C206.057 36.6279 205.974 36.2471 205.974 35.8369C205.974 35.3096 206.077 34.8438 206.282 34.4395C206.487 34.0293 206.795 33.6924 207.205 33.4287C207.574 33.1885 208.028 33.0068 208.567 32.8838C209.112 32.7549 209.736 32.6904 210.439 32.6904H211.802V32.1279C211.802 31.9053 211.766 31.7061 211.696 31.5303C211.626 31.3486 211.52 31.1934 211.38 31.0645C211.233 30.9297 211.049 30.8271 210.826 30.7568C210.609 30.6807 210.354 30.6426 210.061 30.6426C209.804 30.6426 209.581 30.6748 209.393 30.7393C209.206 30.7979 209.054 30.8828 208.936 30.9941C208.831 31.0938 208.752 31.2139 208.699 31.3545C208.652 31.4951 208.629 31.6504 208.629 31.8203H206.185C206.185 31.416 206.273 31.0322 206.449 30.6689C206.631 30.3057 206.894 29.9863 207.24 29.7109C207.58 29.4355 207.996 29.2188 208.488 29.0605C208.986 28.8965 209.555 28.8145 210.193 28.8145C210.767 28.8145 211.301 28.8848 211.793 29.0254C212.291 29.166 212.722 29.374 213.085 29.6494C213.448 29.9248 213.732 30.2734 213.937 30.6953C214.142 31.1113 214.245 31.5947 214.245 32.1455V36.2236C214.245 36.7334 214.277 37.1553 214.342 37.4893C214.406 37.8232 214.5 38.1104 214.623 38.3506V38.5H212.144ZM209.815 36.7861C210.061 36.7861 210.29 36.7568 210.501 36.6982C210.712 36.6396 210.902 36.5635 211.072 36.4697C211.242 36.376 211.389 36.2705 211.512 36.1533C211.635 36.0303 211.731 35.9072 211.802 35.7842V34.1494H210.554C210.173 34.1494 209.848 34.1875 209.578 34.2637C209.308 34.334 209.089 34.4336 208.919 34.5625C208.749 34.6973 208.623 34.8584 208.541 35.0459C208.459 35.2275 208.418 35.4268 208.418 35.6436C208.418 35.8135 208.447 35.9717 208.506 36.1182C208.57 36.2588 208.661 36.3789 208.778 36.4785C208.895 36.5723 209.039 36.6484 209.209 36.707C209.385 36.7598 209.587 36.7861 209.815 36.7861ZM216.816 38.5V28.9902H219.03L219.18 30.3086C219.303 30.1328 219.438 29.9717 219.584 29.8252C219.731 29.6787 219.886 29.5469 220.05 29.4297C220.331 29.2305 220.639 29.0781 220.973 28.9727C221.307 28.8672 221.661 28.8145 222.036 28.8145C222.517 28.8145 222.956 28.8848 223.355 29.0254C223.753 29.166 224.099 29.3887 224.392 29.6934C224.679 30.0039 224.901 30.4023 225.06 30.8887C225.224 31.3691 225.306 31.9551 225.306 32.6465V38.5H222.862V32.6816C222.862 32.3066 222.818 31.999 222.731 31.7588C222.649 31.5127 222.528 31.3193 222.37 31.1787C222.212 31.0381 222.022 30.9414 221.799 30.8887C221.576 30.8301 221.324 30.8008 221.043 30.8008C220.809 30.8008 220.592 30.8271 220.393 30.8799C220.199 30.9326 220.026 31.0117 219.874 31.1172C219.751 31.1934 219.64 31.2842 219.54 31.3896C219.441 31.4951 219.35 31.6123 219.268 31.7412V38.5H216.816ZM228.931 42.3408C228.697 42.3408 228.492 42.3262 228.316 42.2969C228.146 42.2676 227.955 42.2236 227.745 42.165L228.043 40.3018C228.143 40.3018 228.269 40.3047 228.421 40.3105C228.579 40.3223 228.705 40.3281 228.799 40.3281C228.993 40.3281 229.162 40.2666 229.309 40.1436C229.461 40.0264 229.59 39.8975 229.696 39.7568C229.801 39.6162 229.877 39.5107 229.924 39.4404C229.977 39.3701 230.038 39.2705 230.109 39.1416L230.671 38.0957L226.646 28.9902H229.318L231.497 34.5625L231.761 35.5293L232.121 34.5801L234.292 28.9902H236.991L232.165 39.9238C232.06 40.1641 231.922 40.4248 231.752 40.7061C231.588 40.9873 231.38 41.248 231.128 41.4883C230.876 41.7285 230.569 41.9307 230.205 42.0947C229.848 42.2588 229.423 42.3408 228.931 42.3408ZM240.51 37.085C240.51 36.6338 240.66 36.2529 240.959 35.9424C241.257 35.626 241.673 35.4678 242.207 35.4678C242.734 35.4678 243.147 35.623 243.446 35.9336C243.751 36.2441 243.903 36.6279 243.903 37.085C243.903 37.542 243.748 37.9229 243.437 38.2275C243.132 38.5264 242.722 38.6758 242.207 38.6758C241.685 38.6758 241.272 38.5234 240.967 38.2188C240.663 37.9141 240.51 37.5361 240.51 37.085ZM252.863 36.7246C253.103 36.7246 253.332 36.6895 253.549 36.6191C253.765 36.5488 253.956 36.4492 254.12 36.3203C254.284 36.1914 254.41 36.0361 254.498 35.8545C254.592 35.6729 254.633 35.4707 254.621 35.248H256.924C256.935 35.7402 256.833 36.1973 256.616 36.6191C256.405 37.041 256.115 37.4043 255.746 37.709C255.377 38.0137 254.946 38.2539 254.454 38.4297C253.968 38.5996 253.452 38.6846 252.907 38.6846C252.169 38.6846 251.521 38.5615 250.965 38.3154C250.408 38.0635 249.945 37.7207 249.576 37.2871C249.201 36.8535 248.917 36.3467 248.723 35.7666C248.536 35.1807 248.442 34.5537 248.442 33.8857V33.6221C248.442 32.9541 248.536 32.3301 248.723 31.75C248.911 31.1641 249.192 30.6543 249.567 30.2207C249.942 29.7871 250.405 29.4443 250.956 29.1924C251.513 28.9404 252.157 28.8145 252.889 28.8145C253.475 28.8145 254.017 28.9023 254.515 29.0781C255.014 29.2539 255.444 29.5 255.807 29.8164C256.165 30.1387 256.443 30.5283 256.642 30.9854C256.842 31.4365 256.935 31.9434 256.924 32.5059H254.621C254.633 32.2715 254.598 32.0488 254.515 31.8379C254.433 31.627 254.313 31.4453 254.155 31.293C253.997 31.1406 253.806 31.0205 253.584 30.9326C253.361 30.8389 253.118 30.792 252.854 30.792C252.468 30.792 252.148 30.8711 251.896 31.0293C251.644 31.1875 251.445 31.3984 251.299 31.6621C251.146 31.9258 251.038 32.2275 250.973 32.5674C250.915 32.9072 250.886 33.2588 250.886 33.6221V33.8857C250.886 34.2549 250.915 34.6123 250.973 34.958C251.032 35.2979 251.138 35.5967 251.29 35.8545C251.436 36.1182 251.636 36.3291 251.888 36.4873C252.145 36.6455 252.471 36.7246 252.863 36.7246ZM258.932 33.6572C258.932 32.9658 259.031 32.3271 259.231 31.7412C259.43 31.1494 259.723 30.6367 260.109 30.2031C260.49 29.7695 260.956 29.4297 261.507 29.1836C262.064 28.9375 262.699 28.8145 263.414 28.8145C264.129 28.8145 264.765 28.9375 265.321 29.1836C265.878 29.4297 266.35 29.7695 266.736 30.2031C267.117 30.6367 267.407 31.1494 267.607 31.7412C267.806 32.3271 267.905 32.9658 267.905 33.6572V33.8418C267.905 34.5391 267.806 35.1836 267.607 35.7754C267.407 36.3613 267.117 36.8711 266.736 37.3047C266.356 37.7383 265.887 38.0781 265.33 38.3242C264.774 38.5645 264.141 38.6846 263.432 38.6846C262.717 38.6846 262.078 38.5645 261.516 38.3242C260.959 38.0781 260.49 37.7383 260.109 37.3047C259.723 36.8711 259.43 36.3613 259.231 35.7754C259.031 35.1836 258.932 34.5391 258.932 33.8418V33.6572ZM261.375 33.8418C261.375 34.2402 261.413 34.6152 261.489 34.9668C261.566 35.3125 261.686 35.6143 261.85 35.8721C262.014 36.1357 262.225 36.3438 262.483 36.4961C262.746 36.6484 263.063 36.7246 263.432 36.7246C263.789 36.7246 264.097 36.6484 264.355 36.4961C264.612 36.3438 264.823 36.1357 264.987 35.8721C265.146 35.6143 265.263 35.3125 265.339 34.9668C265.415 34.6152 265.453 34.2402 265.453 33.8418V33.6572C265.453 33.2705 265.415 32.9043 265.339 32.5586C265.263 32.2129 265.146 31.9082 264.987 31.6445C264.823 31.3809 264.612 31.1729 264.355 31.0205C264.097 30.8682 263.783 30.792 263.414 30.792C263.051 30.792 262.74 30.8682 262.483 31.0205C262.225 31.1729 262.014 31.3809 261.85 31.6445C261.686 31.9082 261.566 32.2129 261.489 32.5586C261.413 32.9043 261.375 33.2705 261.375 33.6572V33.8418ZM271.399 28.9902L271.469 30.1416C271.651 29.7314 271.9 29.4092 272.216 29.1748C272.538 28.9346 272.928 28.8145 273.385 28.8145C273.608 28.8145 273.807 28.8408 273.983 28.8936C274.159 28.9463 274.311 29.0283 274.44 29.1396C274.539 29.2217 274.624 29.3213 274.695 29.4385C274.771 29.5498 274.835 29.6787 274.888 29.8252C274.97 29.6846 275.061 29.5586 275.16 29.4473C275.266 29.3301 275.38 29.2305 275.503 29.1484C275.656 29.043 275.828 28.9609 276.022 28.9023C276.215 28.8438 276.426 28.8145 276.655 28.8145C276.942 28.8145 277.208 28.8672 277.454 28.9727C277.706 29.0781 277.926 29.2451 278.114 29.4736C278.295 29.708 278.436 30.0098 278.535 30.3789C278.641 30.7422 278.694 31.1875 278.694 31.7148V38.5H276.47V31.7061C276.47 31.5244 276.45 31.375 276.409 31.2578C276.373 31.1406 276.324 31.0469 276.259 30.9766C276.195 30.9121 276.118 30.8682 276.031 30.8447C275.949 30.8154 275.864 30.8008 275.776 30.8008C275.682 30.8008 275.597 30.8125 275.521 30.8359C275.451 30.8594 275.383 30.8916 275.319 30.9326C275.266 30.9736 275.219 31.0205 275.178 31.0732C275.137 31.1201 275.102 31.1758 275.073 31.2402C275.073 31.252 275.073 31.2783 275.073 31.3193C275.073 31.3604 275.073 31.416 275.073 31.4863V38.5H272.919V31.6973C272.919 31.5156 272.902 31.3662 272.867 31.249C272.831 31.1318 272.785 31.041 272.726 30.9766C272.661 30.9121 272.588 30.8682 272.506 30.8447C272.424 30.8154 272.336 30.8008 272.243 30.8008C272.137 30.8008 272.043 30.8184 271.961 30.8535C271.879 30.8887 271.806 30.9385 271.742 31.0029C271.695 31.0498 271.654 31.1055 271.618 31.1699C271.583 31.2344 271.551 31.3047 271.522 31.3809V38.5H269.298V28.9902H271.399Z" fill="black" fill-opacity="0.8"/>
<rect x="432" width="304" height="64" rx="6" fill="white"/>
<path d="M479.65 38.5C479.591 38.3828 479.542 38.248 479.501 38.0957C479.459 37.9434 479.424 37.7822 479.395 37.6123C479.26 37.7588 479.105 37.8965 478.929 38.0254C478.753 38.1543 478.56 38.2656 478.349 38.3594C478.132 38.459 477.895 38.5352 477.637 38.5879C477.379 38.6465 477.101 38.6758 476.802 38.6758C476.316 38.6758 475.868 38.6055 475.458 38.4648C475.053 38.3242 474.705 38.1279 474.412 37.876C474.119 37.624 473.89 37.3252 473.726 36.9795C473.562 36.6279 473.48 36.2471 473.48 35.8369C473.48 35.3096 473.583 34.8438 473.788 34.4395C473.993 34.0293 474.3 33.6924 474.71 33.4287C475.08 33.1885 475.534 33.0068 476.073 32.8838C476.618 32.7549 477.242 32.6904 477.945 32.6904H479.307V32.1279C479.307 31.9053 479.272 31.7061 479.202 31.5303C479.131 31.3486 479.026 31.1934 478.885 31.0645C478.739 30.9297 478.554 30.8271 478.332 30.7568C478.115 30.6807 477.86 30.6426 477.567 30.6426C477.309 30.6426 477.086 30.6748 476.899 30.7393C476.711 30.7979 476.559 30.8828 476.442 30.9941C476.336 31.0938 476.257 31.2139 476.205 31.3545C476.158 31.4951 476.134 31.6504 476.134 31.8203H473.691C473.691 31.416 473.779 31.0322 473.955 30.6689C474.136 30.3057 474.4 29.9863 474.746 29.7109C475.085 29.4355 475.501 29.2188 475.994 29.0605C476.492 28.8965 477.06 28.8145 477.699 28.8145C478.273 28.8145 478.806 28.8848 479.298 29.0254C479.796 29.166 480.227 29.374 480.59 29.6494C480.954 29.9248 481.238 30.2734 481.443 30.6953C481.648 31.1113 481.751 31.5947 481.751 32.1455V36.2236C481.751 36.7334 481.783 37.1553 481.847 37.4893C481.912 37.8232 482.005 38.1104 482.128 38.3506V38.5H479.65ZM477.321 36.7861C477.567 36.7861 477.795 36.7568 478.006 36.6982C478.217 36.6396 478.408 36.5635 478.578 36.4697C478.748 36.376 478.894 36.2705 479.017 36.1533C479.14 36.0303 479.237 35.9072 479.307 35.7842V34.1494H478.059C477.678 34.1494 477.353 34.1875 477.084 34.2637C476.814 34.334 476.594 34.4336 476.424 34.5625C476.254 34.6973 476.128 34.8584 476.046 35.0459C475.964 35.2275 475.923 35.4268 475.923 35.6436C475.923 35.8135 475.953 35.9717 476.011 36.1182C476.076 36.2588 476.167 36.3789 476.284 36.4785C476.401 36.5723 476.544 36.6484 476.714 36.707C476.89 36.7598 477.092 36.7861 477.321 36.7861ZM484.831 25H490.148V36.5137H492.873V38.5H484.831V36.5137H487.678V26.9951H484.831V25ZM495.584 28.9902H500.761V36.5137H503.336V38.5H495.584V36.5137H498.291V30.9854H495.584V28.9902ZM498.115 26.5557C498.115 26.3682 498.147 26.1953 498.212 26.0371C498.282 25.873 498.379 25.7324 498.502 25.6152C498.625 25.5039 498.772 25.416 498.941 25.3516C499.117 25.2871 499.311 25.2549 499.522 25.2549C499.955 25.2549 500.298 25.3779 500.55 25.624C500.808 25.8643 500.937 26.1748 500.937 26.5557C500.937 26.9365 500.808 27.25 500.55 27.4961C500.298 27.7363 499.955 27.8564 499.522 27.8564C499.311 27.8564 499.117 27.8242 498.941 27.7598C498.772 27.6953 498.625 27.6045 498.502 27.4873C498.379 27.376 498.282 27.2412 498.212 27.083C498.147 26.9189 498.115 26.7432 498.115 26.5557ZM509.756 36.7246C509.996 36.7246 510.225 36.6895 510.442 36.6191C510.658 36.5488 510.849 36.4492 511.013 36.3203C511.177 36.1914 511.303 36.0361 511.391 35.8545C511.485 35.6729 511.526 35.4707 511.514 35.248H513.817C513.828 35.7402 513.726 36.1973 513.509 36.6191C513.298 37.041 513.008 37.4043 512.639 37.709C512.27 38.0137 511.839 38.2539 511.347 38.4297C510.861 38.5996 510.345 38.6846 509.8 38.6846C509.062 38.6846 508.414 38.5615 507.858 38.3154C507.301 38.0635 506.838 37.7207 506.469 37.2871C506.094 36.8535 505.81 36.3467 505.616 35.7666C505.429 35.1807 505.335 34.5537 505.335 33.8857V33.6221C505.335 32.9541 505.429 32.3301 505.616 31.75C505.804 31.1641 506.085 30.6543 506.46 30.2207C506.835 29.7871 507.298 29.4443 507.849 29.1924C508.406 28.9404 509.05 28.8145 509.782 28.8145C510.368 28.8145 510.91 28.9023 511.408 29.0781C511.907 29.2539 512.337 29.5 512.7 29.8164C513.058 30.1387 513.336 30.5283 513.535 30.9854C513.735 31.4365 513.828 31.9434 513.817 32.5059H511.514C511.526 32.2715 511.49 32.0488 511.408 31.8379C511.326 31.627 511.206 31.4453 511.048 31.293C510.89 31.1406 510.699 31.0205 510.477 30.9326C510.254 30.8389 510.011 30.792 509.747 30.792C509.361 30.792 509.041 30.8711 508.789 31.0293C508.537 31.1875 508.338 31.3984 508.192 31.6621C508.039 31.9258 507.931 32.2275 507.866 32.5674C507.808 32.9072 507.779 33.2588 507.779 33.6221V33.8857C507.779 34.2549 507.808 34.6123 507.866 34.958C507.925 35.2979 508.031 35.5967 508.183 35.8545C508.329 36.1182 508.529 36.3291 508.781 36.4873C509.038 36.6455 509.364 36.7246 509.756 36.7246ZM520.773 38.6758C520.041 38.6758 519.376 38.5557 518.778 38.3154C518.18 38.0752 517.667 37.7471 517.24 37.3311C516.812 36.9209 516.481 36.4375 516.247 35.8809C516.018 35.3184 515.904 34.7178 515.904 34.0791V33.7275C515.904 33.001 516.018 32.3389 516.247 31.7412C516.475 31.1377 516.794 30.6191 517.205 30.1855C517.615 29.752 518.101 29.415 518.664 29.1748C519.226 28.9346 519.838 28.8145 520.501 28.8145C521.186 28.8145 521.795 28.9287 522.329 29.1572C522.868 29.3799 523.325 29.6963 523.7 30.1064C524.069 30.5166 524.35 31.0117 524.543 31.5918C524.737 32.166 524.834 32.8018 524.834 33.499V34.5361H518.382V34.5625C518.464 34.9434 518.57 35.251 518.699 35.4854C518.828 35.7139 519.001 35.9219 519.217 36.1094C519.44 36.3027 519.695 36.4521 519.982 36.5576C520.269 36.6631 520.583 36.7158 520.922 36.7158C521.403 36.7158 521.869 36.625 522.32 36.4434C522.771 36.2617 523.137 35.9893 523.418 35.626L524.64 36.9443C524.33 37.3838 523.837 37.7822 523.164 38.1396C522.49 38.4971 521.693 38.6758 520.773 38.6758ZM520.483 30.792C520.208 30.792 519.956 30.8418 519.727 30.9414C519.499 31.0352 519.299 31.1729 519.129 31.3545C518.954 31.5361 518.807 31.7529 518.69 32.0049C518.573 32.2568 518.485 32.5381 518.426 32.8486H522.434V32.6553C522.434 32.3975 522.387 32.1543 522.293 31.9258C522.2 31.6973 522.071 31.498 521.907 31.3281C521.743 31.1641 521.541 31.0352 521.3 30.9414C521.066 30.8418 520.793 30.792 520.483 30.792ZM529.241 37.085C529.241 36.6338 529.39 36.2529 529.689 35.9424C529.988 35.626 530.404 35.4678 530.937 35.4678C531.465 35.4678 531.878 35.623 532.177 35.9336C532.481 36.2441 532.634 36.6279 532.634 37.085C532.634 37.542 532.478 37.9229 532.168 38.2275C531.863 38.5264 531.453 38.6758 530.937 38.6758C530.416 38.6758 530.003 38.5234 529.698 38.2188C529.393 37.9141 529.241 37.5361 529.241 37.085ZM537.129 33.6748C537.129 32.9541 537.211 32.2949 537.375 31.6973C537.545 31.0996 537.791 30.5869 538.113 30.1592C538.436 29.7314 538.825 29.4004 539.282 29.166C539.745 28.9316 540.272 28.8145 540.864 28.8145C541.362 28.8145 541.799 28.9053 542.174 29.0869C542.555 29.2627 542.892 29.5146 543.185 29.8428V25H545.637V38.5H543.431L543.308 37.5068C543.009 37.876 542.657 38.1631 542.253 38.3682C541.849 38.5732 541.38 38.6758 540.847 38.6758C540.267 38.6758 539.745 38.5557 539.282 38.3154C538.825 38.0693 538.438 37.7324 538.122 37.3047C537.8 36.877 537.554 36.3701 537.384 35.7842C537.214 35.1924 537.129 34.5508 537.129 33.8594V33.6748ZM539.572 33.8594C539.572 34.2578 539.605 34.6299 539.669 34.9756C539.739 35.3154 539.851 35.6113 540.003 35.8633C540.155 36.1211 540.352 36.3232 540.592 36.4697C540.832 36.6162 541.125 36.6895 541.471 36.6895C541.893 36.6895 542.241 36.5986 542.517 36.417C542.798 36.2354 543.021 35.9863 543.185 35.6699V31.8203C543.021 31.498 542.801 31.249 542.525 31.0732C542.25 30.8916 541.904 30.8008 541.488 30.8008C541.143 30.8008 540.847 30.877 540.601 31.0293C540.36 31.1758 540.164 31.3779 540.012 31.6357C539.859 31.8994 539.748 32.207 539.678 32.5586C539.607 32.9043 539.572 33.2764 539.572 33.6748V33.8594ZM547.662 33.6572C547.662 32.9658 547.762 32.3271 547.961 31.7412C548.16 31.1494 548.453 30.6367 548.84 30.2031C549.221 29.7695 549.687 29.4297 550.238 29.1836C550.794 28.9375 551.43 28.8145 552.145 28.8145C552.86 28.8145 553.495 28.9375 554.052 29.1836C554.609 29.4297 555.08 29.7695 555.467 30.2031C555.848 30.6367 556.138 31.1494 556.337 31.7412C556.536 32.3271 556.636 32.9658 556.636 33.6572V33.8418C556.636 34.5391 556.536 35.1836 556.337 35.7754C556.138 36.3613 555.848 36.8711 555.467 37.3047C555.086 37.7383 554.617 38.0781 554.061 38.3242C553.504 38.5645 552.871 38.6846 552.162 38.6846C551.448 38.6846 550.809 38.5645 550.246 38.3242C549.69 38.0781 549.221 37.7383 548.84 37.3047C548.453 36.8711 548.16 36.3613 547.961 35.7754C547.762 35.1836 547.662 34.5391 547.662 33.8418V33.6572ZM550.106 33.8418C550.106 34.2402 550.144 34.6152 550.22 34.9668C550.296 35.3125 550.416 35.6143 550.58 35.8721C550.744 36.1357 550.955 36.3438 551.213 36.4961C551.477 36.6484 551.793 36.7246 552.162 36.7246C552.52 36.7246 552.827 36.6484 553.085 36.4961C553.343 36.3438 553.554 36.1357 553.718 35.8721C553.876 35.6143 553.993 35.3125 554.07 34.9668C554.146 34.6152 554.184 34.2402 554.184 33.8418V33.6572C554.184 33.2705 554.146 32.9043 554.07 32.5586C553.993 32.2129 553.876 31.9082 553.718 31.6445C553.554 31.3809 553.343 31.1729 553.085 31.0205C552.827 30.8682 552.514 30.792 552.145 30.792C551.782 30.792 551.471 30.8682 551.213 31.0205C550.955 31.1729 550.744 31.3809 550.58 31.6445C550.416 31.9082 550.296 32.2129 550.22 32.5586C550.144 32.9043 550.106 33.2705 550.106 33.6572V33.8418ZM563.223 38.6758C562.491 38.6758 561.826 38.5557 561.228 38.3154C560.63 38.0752 560.118 37.7471 559.69 37.3311C559.262 36.9209 558.931 36.4375 558.697 35.8809C558.468 35.3184 558.354 34.7178 558.354 34.0791V33.7275C558.354 33.001 558.468 32.3389 558.697 31.7412C558.925 31.1377 559.245 30.6191 559.655 30.1855C560.065 29.752 560.551 29.415 561.114 29.1748C561.676 28.9346 562.289 28.8145 562.951 28.8145C563.636 28.8145 564.246 28.9287 564.779 29.1572C565.318 29.3799 565.775 29.6963 566.15 30.1064C566.519 30.5166 566.8 31.0117 566.994 31.5918C567.187 32.166 567.284 32.8018 567.284 33.499V34.5361H560.833V34.5625C560.915 34.9434 561.02 35.251 561.149 35.4854C561.278 35.7139 561.451 35.9219 561.667 36.1094C561.89 36.3027 562.145 36.4521 562.432 36.5576C562.719 36.6631 563.033 36.7158 563.373 36.7158C563.853 36.7158 564.319 36.625 564.77 36.4434C565.221 36.2617 565.587 35.9893 565.869 35.626L567.09 36.9443C566.78 37.3838 566.288 37.7822 565.614 38.1396C564.94 38.4971 564.143 38.6758 563.223 38.6758ZM562.933 30.792C562.658 30.792 562.406 30.8418 562.177 30.9414C561.949 31.0352 561.75 31.1729 561.58 31.3545C561.404 31.5361 561.257 31.7529 561.14 32.0049C561.023 32.2568 560.935 32.5381 560.876 32.8486H564.884V32.6553C564.884 32.3975 564.837 32.1543 564.744 31.9258C564.65 31.6973 564.521 31.498 564.357 31.3281C564.193 31.1641 563.991 31.0352 563.75 30.9414C563.516 30.8418 563.244 30.792 562.933 30.792ZM578.265 31.2666C578.248 31.8174 578.186 32.3652 578.081 32.9102C577.975 33.4492 577.82 33.9326 577.615 34.3604C577.404 34.7939 577.137 35.1455 576.815 35.415C576.493 35.6787 576.106 35.8105 575.655 35.8105C575.485 35.8105 575.324 35.7871 575.172 35.7402C575.019 35.6934 574.882 35.623 574.759 35.5293C574.659 35.459 574.568 35.374 574.486 35.2744C574.404 35.1748 574.331 35.0635 574.266 34.9404C574.19 35.0459 574.108 35.1455 574.02 35.2393C573.932 35.3271 573.842 35.4062 573.748 35.4766C573.607 35.5762 573.458 35.6553 573.3 35.7139C573.141 35.7666 572.974 35.793 572.799 35.793C572.447 35.793 572.139 35.7139 571.876 35.5557C571.612 35.3975 571.398 35.1689 571.234 34.8701C571.07 34.5771 570.956 34.2227 570.891 33.8066C570.833 33.3906 570.827 32.9277 570.874 32.418C570.938 31.8203 571.052 31.2812 571.217 30.8008C571.386 30.3203 571.603 29.9072 571.867 29.5615C572.131 29.2217 572.441 28.9609 572.799 28.7793C573.156 28.5918 573.557 28.498 574.003 28.498C574.454 28.498 574.826 28.5654 575.119 28.7002C575.412 28.8291 575.649 28.9844 575.831 29.166L575.453 33.7979C575.441 33.9678 575.444 34.0996 575.462 34.1934C575.485 34.2871 575.52 34.3574 575.567 34.4043C575.608 34.4512 575.658 34.4805 575.717 34.4922C575.775 34.5039 575.834 34.5098 575.892 34.5098C576.045 34.5098 576.182 34.4307 576.305 34.2725C576.434 34.1143 576.546 33.8945 576.639 33.6133C576.733 33.332 576.803 32.998 576.85 32.6113C576.903 32.2188 576.929 31.791 576.929 31.3281C576.953 30.6133 576.9 29.9951 576.771 29.4736C576.648 28.9463 576.452 28.5127 576.182 28.1729C575.913 27.833 575.576 27.5811 575.172 27.417C574.767 27.2529 574.302 27.1709 573.774 27.1709C573.177 27.1709 572.637 27.3057 572.157 27.5752C571.682 27.8389 571.278 28.208 570.944 28.6826C570.604 29.1572 570.338 29.7227 570.144 30.3789C569.951 31.0293 569.843 31.7441 569.819 32.5234C569.79 33.3086 569.843 33.9941 569.977 34.5801C570.118 35.166 570.335 35.6523 570.628 36.0391C570.915 36.4316 571.278 36.7246 571.718 36.918C572.163 37.1113 572.673 37.208 573.247 37.208C573.428 37.208 573.616 37.1963 573.809 37.1729C574.003 37.1494 574.193 37.1143 574.381 37.0674C574.562 37.0264 574.735 36.9766 574.899 36.918C575.069 36.8594 575.221 36.7949 575.356 36.7246L575.637 37.9111C575.485 38.0225 575.309 38.1191 575.11 38.2012C574.917 38.2832 574.712 38.3506 574.495 38.4033C574.278 38.4619 574.061 38.5029 573.844 38.5264C573.628 38.5557 573.42 38.5703 573.22 38.5703C572.365 38.5703 571.627 38.4297 571.006 38.1484C570.385 37.8672 569.872 37.4658 569.468 36.9443C569.063 36.4229 568.767 35.79 568.58 35.0459C568.398 34.2959 568.322 33.4551 568.351 32.5234C568.381 31.5977 568.533 30.7275 568.808 29.9131C569.09 29.0986 569.473 28.3867 569.96 27.7773C570.44 27.1738 571.011 26.6992 571.674 26.3535C572.336 26.002 573.065 25.8262 573.862 25.8262C574.553 25.8262 575.177 25.958 575.734 26.2217C576.291 26.4795 576.762 26.8457 577.149 27.3203C577.53 27.8008 577.817 28.375 578.011 29.043C578.204 29.7109 578.289 30.4521 578.265 31.2666ZM572.394 32.418C572.377 32.7461 572.38 33.0361 572.403 33.2881C572.432 33.54 572.479 33.748 572.544 33.9121C572.614 34.0938 572.705 34.2285 572.816 34.3164C572.927 34.4043 573.056 34.4482 573.203 34.4482C573.291 34.4482 573.379 34.4365 573.467 34.4131C573.56 34.3838 573.651 34.3369 573.739 34.2725C573.792 34.2314 573.844 34.1816 573.897 34.123C573.95 34.0645 574.003 33.9941 574.055 33.9121L574.064 33.7979L574.398 29.8691C574.369 29.8633 574.334 29.8574 574.293 29.8516C574.252 29.8457 574.196 29.8428 574.126 29.8428C573.868 29.8428 573.639 29.8984 573.44 30.0098C573.247 30.1211 573.08 30.2881 572.939 30.5107C572.799 30.7275 572.681 30.9971 572.588 31.3193C572.5 31.6357 572.435 32.002 572.394 32.418ZM584.044 36.7246C584.284 36.7246 584.513 36.6895 584.729 36.6191C584.946 36.5488 585.137 36.4492 585.301 36.3203C585.465 36.1914 585.591 36.0361 585.679 35.8545C585.772 35.6729 585.813 35.4707 585.802 35.248H588.104C588.116 35.7402 588.014 36.1973 587.797 36.6191C587.586 37.041 587.296 37.4043 586.927 37.709C586.558 38.0137 586.127 38.2539 585.635 38.4297C585.148 38.5996 584.633 38.6846 584.088 38.6846C583.35 38.6846 582.702 38.5615 582.146 38.3154C581.589 38.0635 581.126 37.7207 580.757 37.2871C580.382 36.8535 580.098 36.3467 579.904 35.7666C579.717 35.1807 579.623 34.5537 579.623 33.8857V33.6221C579.623 32.9541 579.717 32.3301 579.904 31.75C580.092 31.1641 580.373 30.6543 580.748 30.2207C581.123 29.7871 581.586 29.4443 582.137 29.1924C582.693 28.9404 583.338 28.8145 584.07 28.8145C584.656 28.8145 585.198 28.9023 585.696 29.0781C586.194 29.2539 586.625 29.5 586.988 29.8164C587.346 30.1387 587.624 30.5283 587.823 30.9854C588.022 31.4365 588.116 31.9434 588.104 32.5059H585.802C585.813 32.2715 585.778 32.0488 585.696 31.8379C585.614 31.627 585.494 31.4453 585.336 31.293C585.178 31.1406 584.987 31.0205 584.765 30.9326C584.542 30.8389 584.299 30.792 584.035 30.792C583.648 30.792 583.329 30.8711 583.077 31.0293C582.825 31.1875 582.626 31.3984 582.479 31.6621C582.327 31.9258 582.219 32.2275 582.154 32.5674C582.096 32.9072 582.066 33.2588 582.066 33.6221V33.8857C582.066 34.2549 582.096 34.6123 582.154 34.958C582.213 35.2979 582.318 35.5967 582.471 35.8545C582.617 36.1182 582.816 36.3291 583.068 36.4873C583.326 36.6455 583.651 36.7246 584.044 36.7246ZM590.113 33.6572C590.113 32.9658 590.212 32.3271 590.411 31.7412C590.611 31.1494 590.904 30.6367 591.29 30.2031C591.671 29.7695 592.137 29.4297 592.688 29.1836C593.244 28.9375 593.88 28.8145 594.595 28.8145C595.31 28.8145 595.946 28.9375 596.502 29.1836C597.059 29.4297 597.531 29.7695 597.917 30.2031C598.298 30.6367 598.588 31.1494 598.787 31.7412C598.987 32.3271 599.086 32.9658 599.086 33.6572V33.8418C599.086 34.5391 598.987 35.1836 598.787 35.7754C598.588 36.3613 598.298 36.8711 597.917 37.3047C597.536 37.7383 597.068 38.0781 596.511 38.3242C595.954 38.5645 595.322 38.6846 594.613 38.6846C593.898 38.6846 593.259 38.5645 592.697 38.3242C592.14 38.0781 591.671 37.7383 591.29 37.3047C590.904 36.8711 590.611 36.3613 590.411 35.7754C590.212 35.1836 590.113 34.5391 590.113 33.8418V33.6572ZM592.556 33.8418C592.556 34.2402 592.594 34.6152 592.67 34.9668C592.746 35.3125 592.866 35.6143 593.031 35.8721C593.195 36.1357 593.406 36.3438 593.663 36.4961C593.927 36.6484 594.243 36.7246 594.613 36.7246C594.97 36.7246 595.278 36.6484 595.535 36.4961C595.793 36.3438 596.004 36.1357 596.168 35.8721C596.326 35.6143 596.444 35.3125 596.52 34.9668C596.596 34.6152 596.634 34.2402 596.634 33.8418V33.6572C596.634 33.2705 596.596 32.9043 596.52 32.5586C596.444 32.2129 596.326 31.9082 596.168 31.6445C596.004 31.3809 595.793 31.1729 595.535 31.0205C595.278 30.8682 594.964 30.792 594.595 30.792C594.232 30.792 593.921 30.8682 593.663 31.0205C593.406 31.1729 593.195 31.3809 593.031 31.6445C592.866 31.9082 592.746 32.2129 592.67 32.5586C592.594 32.9043 592.556 33.2705 592.556 33.6572V33.8418ZM602.58 28.9902L602.65 30.1416C602.832 29.7314 603.081 29.4092 603.397 29.1748C603.719 28.9346 604.109 28.8145 604.566 28.8145C604.789 28.8145 604.988 28.8408 605.164 28.8936C605.339 28.9463 605.492 29.0283 605.621 29.1396C605.72 29.2217 605.805 29.3213 605.875 29.4385C605.952 29.5498 606.016 29.6787 606.069 29.8252C606.151 29.6846 606.242 29.5586 606.341 29.4473C606.447 29.3301 606.561 29.2305 606.684 29.1484C606.836 29.043 607.009 28.9609 607.203 28.9023C607.396 28.8438 607.607 28.8145 607.835 28.8145C608.123 28.8145 608.389 28.8672 608.635 28.9727C608.887 29.0781 609.107 29.2451 609.294 29.4736C609.476 29.708 609.617 30.0098 609.716 30.3789C609.822 30.7422 609.875 31.1875 609.875 31.7148V38.5H607.651V31.7061C607.651 31.5244 607.63 31.375 607.589 31.2578C607.554 31.1406 607.504 31.0469 607.44 30.9766C607.375 30.9121 607.299 30.8682 607.211 30.8447C607.129 30.8154 607.044 30.8008 606.957 30.8008C606.863 30.8008 606.778 30.8125 606.702 30.8359C606.631 30.8594 606.564 30.8916 606.5 30.9326C606.447 30.9736 606.4 31.0205 606.359 31.0732C606.318 31.1201 606.283 31.1758 606.253 31.2402C606.253 31.252 606.253 31.2783 606.253 31.3193C606.253 31.3604 606.253 31.416 606.253 31.4863V38.5H604.1V31.6973C604.1 31.5156 604.083 31.3662 604.047 31.249C604.012 31.1318 603.965 31.041 603.907 30.9766C603.842 30.9121 603.769 30.8682 603.687 30.8447C603.605 30.8154 603.517 30.8008 603.423 30.8008C603.318 30.8008 603.224 30.8184 603.142 30.8535C603.06 30.8887 602.987 30.9385 602.922 31.0029C602.875 31.0498 602.834 31.1055 602.799 31.1699C602.764 31.2344 602.732 31.3047 602.703 31.3809V38.5H600.479V28.9902H602.58ZM611.707 42.1562V28.9902H613.966L614.053 29.9219C614.182 29.7637 614.323 29.623 614.475 29.5C614.628 29.3711 614.792 29.2598 614.968 29.166C615.178 29.0547 615.41 28.9697 615.662 28.9111C615.92 28.8467 616.195 28.8145 616.488 28.8145C617.092 28.8145 617.625 28.9316 618.088 29.166C618.551 29.3945 618.94 29.7197 619.257 30.1416C619.573 30.5693 619.81 31.082 619.969 31.6797C620.133 32.2715 620.215 32.9277 620.215 33.6484V33.833C620.215 34.5244 620.133 35.166 619.969 35.7578C619.81 36.3496 619.576 36.8594 619.265 37.2871C618.949 37.7207 618.559 38.0605 618.096 38.3066C617.634 38.5527 617.103 38.6758 616.506 38.6758C616.189 38.6758 615.896 38.6406 615.627 38.5703C615.363 38.5059 615.117 38.4092 614.888 38.2803C614.754 38.1982 614.625 38.1074 614.502 38.0078C614.379 37.9082 614.261 37.7969 614.15 37.6738V42.1562H611.707ZM617.771 33.6484C617.771 33.25 617.733 32.8779 617.657 32.5322C617.587 32.1807 617.475 31.876 617.323 31.6182C617.165 31.3662 616.963 31.167 616.717 31.0205C616.476 30.874 616.183 30.8008 615.838 30.8008C615.638 30.8008 615.457 30.8213 615.293 30.8623C615.129 30.8975 614.979 30.9502 614.844 31.0205C614.692 31.1025 614.557 31.2051 614.44 31.3281C614.329 31.4512 614.232 31.5947 614.15 31.7588V35.7314C614.226 35.8838 614.317 36.0215 614.423 36.1445C614.534 36.2676 614.66 36.373 614.801 36.4609C614.935 36.543 615.091 36.6074 615.266 36.6543C615.442 36.6953 615.638 36.7158 615.855 36.7158C616.201 36.7158 616.494 36.6396 616.734 36.4873C616.98 36.335 617.179 36.127 617.332 35.8633C617.484 35.5996 617.595 35.2949 617.666 34.9492C617.736 34.5977 617.771 34.2256 617.771 33.833V33.6484ZM628.226 38.5C628.167 38.3828 628.117 38.248 628.076 38.0957C628.035 37.9434 628 37.7822 627.971 37.6123C627.836 37.7588 627.681 37.8965 627.505 38.0254C627.329 38.1543 627.136 38.2656 626.925 38.3594C626.708 38.459 626.471 38.5352 626.213 38.5879C625.955 38.6465 625.677 38.6758 625.378 38.6758C624.892 38.6758 624.443 38.6055 624.033 38.4648C623.629 38.3242 623.28 38.1279 622.987 37.876C622.694 37.624 622.466 37.3252 622.302 36.9795C622.138 36.6279 622.056 36.2471 622.056 35.8369C622.056 35.3096 622.158 34.8438 622.363 34.4395C622.568 34.0293 622.876 33.6924 623.286 33.4287C623.655 33.1885 624.109 33.0068 624.648 32.8838C625.193 32.7549 625.817 32.6904 626.521 32.6904H627.883V32.1279C627.883 31.9053 627.848 31.7061 627.777 31.5303C627.707 31.3486 627.602 31.1934 627.461 31.0645C627.314 30.9297 627.13 30.8271 626.907 30.7568C626.69 30.6807 626.436 30.6426 626.143 30.6426C625.885 30.6426 625.662 30.6748 625.475 30.7393C625.287 30.7979 625.135 30.8828 625.018 30.9941C624.912 31.0938 624.833 31.2139 624.78 31.3545C624.733 31.4951 624.71 31.6504 624.71 31.8203H622.267C622.267 31.416 622.354 31.0322 622.53 30.6689C622.712 30.3057 622.976 29.9863 623.321 29.7109C623.661 29.4355 624.077 29.2188 624.569 29.0605C625.067 28.8965 625.636 28.8145 626.274 28.8145C626.849 28.8145 627.382 28.8848 627.874 29.0254C628.372 29.166 628.803 29.374 629.166 29.6494C629.529 29.9248 629.813 30.2734 630.019 30.6953C630.224 31.1113 630.326 31.5947 630.326 32.1455V36.2236C630.326 36.7334 630.358 37.1553 630.423 37.4893C630.487 37.8232 630.581 38.1104 630.704 38.3506V38.5H628.226ZM625.896 36.7861C626.143 36.7861 626.371 36.7568 626.582 36.6982C626.793 36.6396 626.983 36.5635 627.153 36.4697C627.323 36.376 627.47 36.2705 627.593 36.1533C627.716 36.0303 627.812 35.9072 627.883 35.7842V34.1494H626.635C626.254 34.1494 625.929 34.1875 625.659 34.2637C625.39 34.334 625.17 34.4336 625 34.5625C624.83 34.6973 624.704 34.8584 624.622 35.0459C624.54 35.2275 624.499 35.4268 624.499 35.6436C624.499 35.8135 624.528 35.9717 624.587 36.1182C624.651 36.2588 624.742 36.3789 624.859 36.4785C624.977 36.5723 625.12 36.6484 625.29 36.707C625.466 36.7598 625.668 36.7861 625.896 36.7861ZM632.897 38.5V28.9902H635.112L635.261 30.3086C635.384 30.1328 635.519 29.9717 635.665 29.8252C635.812 29.6787 635.967 29.5469 636.131 29.4297C636.412 29.2305 636.72 29.0781 637.054 28.9727C637.388 28.8672 637.742 28.8145 638.117 28.8145C638.598 28.8145 639.037 28.8848 639.436 29.0254C639.834 29.166 640.18 29.3887 640.473 29.6934C640.76 30.0039 640.983 30.4023 641.141 30.8887C641.305 31.3691 641.387 31.9551 641.387 32.6465V38.5H638.944V32.6816C638.944 32.3066 638.9 31.999 638.812 31.7588C638.73 31.5127 638.61 31.3193 638.451 31.1787C638.293 31.0381 638.103 30.9414 637.88 30.8887C637.657 30.8301 637.406 30.8008 637.124 30.8008C636.89 30.8008 636.673 30.8271 636.474 30.8799C636.281 30.9326 636.108 31.0117 635.955 31.1172C635.832 31.1934 635.721 31.2842 635.621 31.3896C635.522 31.4951 635.431 31.6123 635.349 31.7412V38.5H632.897ZM645.012 42.3408C644.778 42.3408 644.573 42.3262 644.397 42.2969C644.227 42.2676 644.037 42.2236 643.826 42.165L644.125 40.3018C644.224 40.3018 644.35 40.3047 644.502 40.3105C644.661 40.3223 644.787 40.3281 644.88 40.3281C645.074 40.3281 645.244 40.2666 645.39 40.1436C645.542 40.0264 645.671 39.8975 645.777 39.7568C645.882 39.6162 645.958 39.5107 646.005 39.4404C646.058 39.3701 646.12 39.2705 646.19 39.1416L646.752 38.0957L642.727 28.9902H645.399L647.579 34.5625L647.842 35.5293L648.203 34.5801L650.374 28.9902H653.072L648.247 39.9238C648.141 40.1641 648.003 40.4248 647.833 40.7061C647.669 40.9873 647.461 41.248 647.209 41.4883C646.958 41.7285 646.65 41.9307 646.287 42.0947C645.929 42.2588 645.504 42.3408 645.012 42.3408ZM656.592 37.085C656.592 36.6338 656.741 36.2529 657.04 35.9424C657.339 35.626 657.755 35.4678 658.288 35.4678C658.815 35.4678 659.228 35.623 659.527 35.9336C659.832 36.2441 659.984 36.6279 659.984 37.085C659.984 37.542 659.829 37.9229 659.518 38.2275C659.214 38.5264 658.803 38.6758 658.288 38.6758C657.766 38.6758 657.353 38.5234 657.049 38.2188C656.744 37.9141 656.592 37.5361 656.592 37.085ZM668.944 36.7246C669.185 36.7246 669.413 36.6895 669.63 36.6191C669.847 36.5488 670.037 36.4492 670.201 36.3203C670.365 36.1914 670.491 36.0361 670.579 35.8545C670.673 35.6729 670.714 35.4707 670.702 35.248H673.005C673.017 35.7402 672.914 36.1973 672.697 36.6191C672.486 37.041 672.196 37.4043 671.827 37.709C671.458 38.0137 671.027 38.2539 670.535 38.4297C670.049 38.5996 669.533 38.6846 668.988 38.6846C668.25 38.6846 667.603 38.5615 667.046 38.3154C666.489 38.0635 666.026 37.7207 665.657 37.2871C665.282 36.8535 664.998 36.3467 664.805 35.7666C664.617 35.1807 664.523 34.5537 664.523 33.8857V33.6221C664.523 32.9541 664.617 32.3301 664.805 31.75C664.992 31.1641 665.273 30.6543 665.648 30.2207C666.023 29.7871 666.486 29.4443 667.037 29.1924C667.594 28.9404 668.238 28.8145 668.971 28.8145C669.557 28.8145 670.099 28.9023 670.597 29.0781C671.095 29.2539 671.525 29.5 671.889 29.8164C672.246 30.1387 672.524 30.5283 672.724 30.9854C672.923 31.4365 673.017 31.9434 673.005 32.5059H670.702C670.714 32.2715 670.679 32.0488 670.597 31.8379C670.515 31.627 670.395 31.4453 670.236 31.293C670.078 31.1406 669.888 31.0205 669.665 30.9326C669.442 30.8389 669.199 30.792 668.936 30.792C668.549 30.792 668.229 30.8711 667.978 31.0293C667.726 31.1875 667.526 31.3984 667.38 31.6621C667.228 31.9258 667.119 32.2275 667.055 32.5674C666.996 32.9072 666.967 33.2588 666.967 33.6221V33.8857C666.967 34.2549 666.996 34.6123 667.055 34.958C667.113 35.2979 667.219 35.5967 667.371 35.8545C667.518 36.1182 667.717 36.3291 667.969 36.4873C668.227 36.6455 668.552 36.7246 668.944 36.7246ZM675.013 33.6572C675.013 32.9658 675.113 32.3271 675.312 31.7412C675.511 31.1494 675.804 30.6367 676.191 30.2031C676.572 29.7695 677.037 29.4297 677.588 29.1836C678.145 28.9375 678.781 28.8145 679.495 28.8145C680.21 28.8145 680.846 28.9375 681.403 29.1836C681.959 29.4297 682.431 29.7695 682.818 30.2031C683.198 30.6367 683.489 31.1494 683.688 31.7412C683.887 32.3271 683.987 32.9658 683.987 33.6572V33.8418C683.987 34.5391 683.887 35.1836 683.688 35.7754C683.489 36.3613 683.198 36.8711 682.818 37.3047C682.437 37.7383 681.968 38.0781 681.411 38.3242C680.855 38.5645 680.222 38.6846 679.513 38.6846C678.798 38.6846 678.159 38.5645 677.597 38.3242C677.04 38.0781 676.572 37.7383 676.191 37.3047C675.804 36.8711 675.511 36.3613 675.312 35.7754C675.113 35.1836 675.013 34.5391 675.013 33.8418V33.6572ZM677.456 33.8418C677.456 34.2402 677.494 34.6152 677.571 34.9668C677.647 35.3125 677.767 35.6143 677.931 35.8721C678.095 36.1357 678.306 36.3438 678.564 36.4961C678.827 36.6484 679.144 36.7246 679.513 36.7246C679.87 36.7246 680.178 36.6484 680.436 36.4961C680.694 36.3438 680.905 36.1357 681.069 35.8721C681.227 35.6143 681.344 35.3125 681.42 34.9668C681.496 34.6152 681.534 34.2402 681.534 33.8418V33.6572C681.534 33.2705 681.496 32.9043 681.42 32.5586C681.344 32.2129 681.227 31.9082 681.069 31.6445C680.905 31.3809 680.694 31.1729 680.436 31.0205C680.178 30.8682 679.865 30.792 679.495 30.792C679.132 30.792 678.822 30.8682 678.564 31.0205C678.306 31.1729 678.095 31.3809 677.931 31.6445C677.767 31.9082 677.647 32.2129 677.571 32.5586C677.494 32.9043 677.456 33.2705 677.456 33.6572V33.8418ZM687.48 28.9902L687.55 30.1416C687.732 29.7314 687.981 29.4092 688.297 29.1748C688.62 28.9346 689.009 28.8145 689.466 28.8145C689.689 28.8145 689.888 28.8408 690.064 28.8936C690.24 28.9463 690.392 29.0283 690.521 29.1396C690.621 29.2217 690.706 29.3213 690.776 29.4385C690.852 29.5498 690.916 29.6787 690.969 29.8252C691.051 29.6846 691.142 29.5586 691.242 29.4473C691.347 29.3301 691.461 29.2305 691.584 29.1484C691.737 29.043 691.91 28.9609 692.103 28.9023C692.296 28.8438 692.507 28.8145 692.736 28.8145C693.023 28.8145 693.29 28.8672 693.536 28.9727C693.788 29.0781 694.007 29.2451 694.195 29.4736C694.376 29.708 694.517 30.0098 694.617 30.3789C694.722 30.7422 694.775 31.1875 694.775 31.7148V38.5H692.551V31.7061C692.551 31.5244 692.531 31.375 692.49 31.2578C692.455 31.1406 692.405 31.0469 692.34 30.9766C692.276 30.9121 692.2 30.8682 692.112 30.8447C692.03 30.8154 691.945 30.8008 691.857 30.8008C691.763 30.8008 691.678 30.8125 691.602 30.8359C691.532 30.8594 691.464 30.8916 691.4 30.9326C691.347 30.9736 691.3 31.0205 691.259 31.0732C691.218 31.1201 691.183 31.1758 691.154 31.2402C691.154 31.252 691.154 31.2783 691.154 31.3193C691.154 31.3604 691.154 31.416 691.154 31.4863V38.5H689V31.6973C689 31.5156 688.983 31.3662 688.948 31.249C688.913 31.1318 688.866 31.041 688.807 30.9766C688.743 30.9121 688.669 30.8682 688.587 30.8447C688.505 30.8154 688.417 30.8008 688.324 30.8008C688.218 30.8008 688.124 30.8184 688.042 30.8535C687.96 30.8887 687.887 30.9385 687.823 31.0029C687.776 31.0498 687.735 31.1055 687.7 31.1699C687.665 31.2344 687.632 31.3047 687.603 31.3809V38.5H685.379V28.9902H687.48Z" fill="black" fill-opacity="0.8"/>
<path d="M346.875 17.7503H388.125V45.2503H346.875V17.7503ZM344.583 13.167C343.318 13.167 342.292 14.193 342.292 15.4587V47.542C342.292 48.8077 343.318 49.8337 344.583 49.8337H390.417C391.682 49.8337 392.708 48.8077 392.708 47.542V15.4587C392.708 14.193 391.682 13.167 390.417 13.167H344.583ZM369.792 22.3337H383.542V26.917H369.792V22.3337ZM381.25 31.5003H369.792V36.0837H381.25V31.5003ZM364.063 26.917C364.063 30.0811 361.498 32.6462 358.333 32.6462C355.169 32.6462 352.604 30.0811 352.604 26.917C352.604 23.7529 355.169 21.1878 358.333 21.1878C361.498 21.1878 364.063 23.7529 364.063 26.917ZM358.333 34.9378C353.904 34.9378 350.313 38.5289 350.313 42.9587H366.354C366.354 38.5289 362.763 34.9378 358.333 34.9378Z" fill="black"/>
</svg>
