<svg width="736" height="64" viewBox="0 0 736 64" fill="none" xmlns="http://www.w3.org/2000/svg">
<rect width="304" height="64" rx="6" fill="white"/>
<path d="M52.9562 38.5C52.8976 38.3828 52.8478 38.248 52.8068 38.0957C52.7658 37.9434 52.7306 37.7822 52.7013 37.6123C52.5665 37.7588 52.4113 37.8965 52.2355 38.0254C52.0597 38.1543 51.8663 38.2656 51.6554 38.3594C51.4386 38.459 51.2013 38.5352 50.9435 38.5879C50.6857 38.6465 50.4074 38.6758 50.1085 38.6758C49.6222 38.6758 49.174 38.6055 48.7638 38.4648C48.3595 38.3242 48.0109 38.1279 47.7179 37.876C47.4249 37.624 47.1964 37.3252 47.0324 36.9795C46.8683 36.6279 46.7863 36.2471 46.7863 35.8369C46.7863 35.3096 46.8888 34.8438 47.0939 34.4395C47.299 34.0293 47.6066 33.6924 48.0167 33.4287C48.3859 33.1885 48.84 33.0068 49.379 32.8838C49.924 32.7549 50.548 32.6904 51.2511 32.6904H52.6134V32.1279C52.6134 31.9053 52.5783 31.7061 52.5079 31.5303C52.4376 31.3486 52.3322 31.1934 52.1915 31.0645C52.0451 30.9297 51.8605 30.8271 51.6378 30.7568C51.421 30.6807 51.1662 30.6426 50.8732 30.6426C50.6154 30.6426 50.3927 30.6748 50.2052 30.7393C50.0177 30.7979 49.8654 30.8828 49.7482 30.9941C49.6427 31.0938 49.5636 31.2139 49.5109 31.3545C49.464 31.4951 49.4406 31.6504 49.4406 31.8203H46.9972C46.9972 31.416 47.0851 31.0322 47.2609 30.6689C47.4425 30.3057 47.7062 29.9863 48.0519 29.7109C48.3917 29.4355 48.8078 29.2188 49.2999 29.0605C49.798 28.8965 50.3663 28.8145 51.005 28.8145C51.5792 28.8145 52.1124 28.8848 52.6046 29.0254C53.1027 29.166 53.5333 29.374 53.8966 29.6494C54.2599 29.9248 54.5441 30.2734 54.7492 30.6953C54.9542 31.1113 55.0568 31.5947 55.0568 32.1455V36.2236C55.0568 36.7334 55.089 37.1553 55.1535 37.4893C55.2179 37.8232 55.3117 38.1104 55.4347 38.3506V38.5H52.9562ZM50.6271 36.7861C50.8732 36.7861 51.1017 36.7568 51.3126 36.6982C51.5236 36.6396 51.714 36.5635 51.8839 36.4697C52.0538 36.376 52.2003 36.2705 52.3234 36.1533C52.4464 36.0303 52.5431 35.9072 52.6134 35.7842V34.1494H51.3654C50.9845 34.1494 50.6593 34.1875 50.3898 34.2637C50.1203 34.334 49.9005 34.4336 49.7306 34.5625C49.5607 34.6973 49.4347 34.8584 49.3527 35.0459C49.2706 35.2275 49.2296 35.4268 49.2296 35.6436C49.2296 35.8135 49.2589 35.9717 49.3175 36.1182C49.382 36.2588 49.4728 36.3789 49.59 36.4785C49.7072 36.5723 49.8507 36.6484 50.0206 36.707C50.1964 36.7598 50.3986 36.7861 50.6271 36.7861ZM58.1371 25H63.4545V36.5137H66.1791V38.5H58.1371V36.5137H60.9848V26.9951H58.1371V25ZM68.8903 28.9902H74.067V36.5137H76.6422V38.5H68.8903V36.5137H71.5973V30.9854H68.8903V28.9902ZM71.4215 26.5557C71.4215 26.3682 71.4537 26.1953 71.5182 26.0371C71.5885 25.873 71.6852 25.7324 71.8082 25.6152C71.9313 25.5039 72.0778 25.416 72.2477 25.3516C72.4235 25.2871 72.6168 25.2549 72.8278 25.2549C73.2614 25.2549 73.6041 25.3779 73.8561 25.624C74.1139 25.8643 74.2428 26.1748 74.2428 26.5557C74.2428 26.9365 74.1139 27.25 73.8561 27.4961C73.6041 27.7363 73.2614 27.8564 72.8278 27.8564C72.6168 27.8564 72.4235 27.8242 72.2477 27.7598C72.0778 27.6953 71.9313 27.6045 71.8082 27.4873C71.6852 27.376 71.5885 27.2412 71.5182 27.083C71.4537 26.9189 71.4215 26.7432 71.4215 26.5557ZM83.0624 36.7246C83.3026 36.7246 83.5311 36.6895 83.7479 36.6191C83.9647 36.5488 84.1552 36.4492 84.3192 36.3203C84.4833 36.1914 84.6093 36.0361 84.6972 35.8545C84.7909 35.6729 84.8319 35.4707 84.8202 35.248H87.1229C87.1347 35.7402 87.0321 36.1973 86.8153 36.6191C86.6044 37.041 86.3143 37.4043 85.9452 37.709C85.5761 38.0137 85.1454 38.2539 84.6532 38.4297C84.1669 38.5996 83.6513 38.6846 83.1063 38.6846C82.368 38.6846 81.7206 38.5615 81.1639 38.3154C80.6073 38.0635 80.1444 37.7207 79.7753 37.2871C79.4003 36.8535 79.1161 36.3467 78.9227 35.7666C78.7352 35.1807 78.6415 34.5537 78.6415 33.8857V33.6221C78.6415 32.9541 78.7352 32.3301 78.9227 31.75C79.1102 31.1641 79.3915 30.6543 79.7665 30.2207C80.1415 29.7871 80.6044 29.4443 81.1552 29.1924C81.7118 28.9404 82.3563 28.8145 83.0888 28.8145C83.6747 28.8145 84.2167 28.9023 84.7147 29.0781C85.2128 29.2539 85.6434 29.5 86.0067 29.8164C86.3641 30.1387 86.6425 30.5283 86.8417 30.9854C87.0409 31.4365 87.1347 31.9434 87.1229 32.5059H84.8202C84.8319 32.2715 84.7968 32.0488 84.7147 31.8379C84.6327 31.627 84.5126 31.4453 84.3544 31.293C84.1962 31.1406 84.0057 31.0205 83.7831 30.9326C83.5604 30.8389 83.3173 30.792 83.0536 30.792C82.6669 30.792 82.3475 30.8711 82.0956 31.0293C81.8436 31.1875 81.6444 31.3984 81.4979 31.6621C81.3456 31.9258 81.2372 32.2275 81.1727 32.5674C81.1141 32.9072 81.0848 33.2588 81.0848 33.6221V33.8857C81.0848 34.2549 81.1141 34.6123 81.1727 34.958C81.2313 35.2979 81.3368 35.5967 81.4891 35.8545C81.6356 36.1182 81.8348 36.3291 82.0868 36.4873C82.3446 36.6455 82.6698 36.7246 83.0624 36.7246ZM94.0792 38.6758C93.3468 38.6758 92.6818 38.5557 92.0841 38.3154C91.4865 38.0752 90.9738 37.7471 90.546 37.3311C90.1183 36.9209 89.7872 36.4375 89.5529 35.8809C89.3243 35.3184 89.2101 34.7178 89.2101 34.0791V33.7275C89.2101 33.001 89.3243 32.3389 89.5529 31.7412C89.7814 31.1377 90.1007 30.6191 90.5109 30.1855C90.921 29.752 91.4074 29.415 91.9699 29.1748C92.5324 28.9346 93.1447 28.8145 93.8068 28.8145C94.4923 28.8145 95.1017 28.9287 95.6349 29.1572C96.174 29.3799 96.631 29.6963 97.006 30.1064C97.3751 30.5166 97.6564 31.0117 97.8497 31.5918C98.0431 32.166 98.1398 32.8018 98.1398 33.499V34.5361H91.6886V34.5625C91.7706 34.9434 91.8761 35.251 92.005 35.4854C92.1339 35.7139 92.3068 35.9219 92.5236 36.1094C92.7462 36.3027 93.0011 36.4521 93.2882 36.5576C93.5753 36.6631 93.8888 36.7158 94.2286 36.7158C94.7091 36.7158 95.1749 36.625 95.6261 36.4434C96.0773 36.2617 96.4435 35.9893 96.7247 35.626L97.9464 36.9443C97.6359 37.3838 97.1437 37.7822 96.4699 38.1396C95.796 38.4971 94.9992 38.6758 94.0792 38.6758ZM93.7892 30.792C93.5138 30.792 93.2618 30.8418 93.0333 30.9414C92.8048 31.0352 92.6056 31.1729 92.4357 31.3545C92.2599 31.5361 92.1134 31.7529 91.9962 32.0049C91.879 32.2568 91.7911 32.5381 91.7326 32.8486H95.7404V32.6553C95.7404 32.3975 95.6935 32.1543 95.5997 31.9258C95.506 31.6973 95.3771 31.498 95.213 31.3281C95.049 31.1641 94.8468 31.0352 94.6066 30.9414C94.3722 30.8418 94.0997 30.792 93.7892 30.792ZM109.121 31.2666C109.104 31.8174 109.042 32.3652 108.937 32.9102C108.831 33.4492 108.676 33.9326 108.471 34.3604C108.26 34.7939 107.994 35.1455 107.671 35.415C107.349 35.6787 106.962 35.8105 106.511 35.8105C106.341 35.8105 106.18 35.7871 106.028 35.7402C105.875 35.6934 105.738 35.623 105.615 35.5293C105.515 35.459 105.424 35.374 105.342 35.2744C105.26 35.1748 105.187 35.0635 105.122 34.9404C105.046 35.0459 104.964 35.1455 104.876 35.2393C104.788 35.3271 104.698 35.4062 104.604 35.4766C104.463 35.5762 104.314 35.6553 104.156 35.7139C103.997 35.7666 103.83 35.793 103.655 35.793C103.303 35.793 102.995 35.7139 102.732 35.5557C102.468 35.3975 102.254 35.1689 102.09 34.8701C101.926 34.5771 101.812 34.2227 101.747 33.8066C101.689 33.3906 101.683 32.9277 101.73 32.418C101.794 31.8203 101.909 31.2812 102.073 30.8008C102.243 30.3203 102.459 29.9072 102.723 29.5615C102.987 29.2217 103.297 28.9609 103.655 28.7793C104.012 28.5918 104.413 28.498 104.859 28.498C105.31 28.498 105.682 28.5654 105.975 28.7002C106.268 28.8291 106.505 28.9844 106.687 29.166L106.309 33.7979C106.297 33.9678 106.3 34.0996 106.318 34.1934C106.341 34.2871 106.376 34.3574 106.423 34.4043C106.464 34.4512 106.514 34.4805 106.573 34.4922C106.631 34.5039 106.69 34.5098 106.748 34.5098C106.901 34.5098 107.038 34.4307 107.161 34.2725C107.29 34.1143 107.402 33.8945 107.495 33.6133C107.589 33.332 107.66 32.998 107.706 32.6113C107.759 32.2188 107.786 31.791 107.786 31.3281C107.809 30.6133 107.756 29.9951 107.627 29.4736C107.504 28.9463 107.308 28.5127 107.038 28.1729C106.769 27.833 106.432 27.5811 106.028 27.417C105.623 27.2529 105.158 27.1709 104.63 27.1709C104.033 27.1709 103.494 27.3057 103.013 27.5752C102.538 27.8389 102.134 28.208 101.8 28.6826C101.46 29.1572 101.194 29.7227 101 30.3789C100.807 31.0293 100.699 31.7441 100.675 32.5234C100.646 33.3086 100.699 33.9941 100.833 34.5801C100.974 35.166 101.191 35.6523 101.484 36.0391C101.771 36.4316 102.134 36.7246 102.574 36.918C103.019 37.1113 103.529 37.208 104.103 37.208C104.285 37.208 104.472 37.1963 104.665 37.1729C104.859 37.1494 105.049 37.1143 105.237 37.0674C105.418 37.0264 105.591 36.9766 105.755 36.918C105.925 36.8594 106.078 36.7949 106.212 36.7246L106.494 37.9111C106.341 38.0225 106.165 38.1191 105.966 38.2012C105.773 38.2832 105.568 38.3506 105.351 38.4033C105.134 38.4619 104.917 38.5029 104.701 38.5264C104.484 38.5557 104.276 38.5703 104.077 38.5703C103.221 38.5703 102.483 38.4297 101.862 38.1484C101.241 37.8672 100.728 37.4658 100.324 36.9443C99.9193 36.4229 99.6234 35.79 99.4359 35.0459C99.2543 34.2959 99.1781 33.4551 99.2074 32.5234C99.2367 31.5977 99.389 30.7275 99.6644 29.9131C99.9457 29.0986 100.329 28.3867 100.816 27.7773C101.296 27.1738 101.868 26.6992 102.53 26.3535C103.192 26.002 103.921 25.8262 104.718 25.8262C105.41 25.8262 106.034 25.958 106.59 26.2217C107.147 26.4795 107.619 26.8457 108.005 27.3203C108.386 27.8008 108.673 28.375 108.867 29.043C109.06 29.7109 109.145 30.4521 109.121 31.2666ZM103.25 32.418C103.233 32.7461 103.236 33.0361 103.259 33.2881C103.288 33.54 103.335 33.748 103.4 33.9121C103.47 34.0938 103.561 34.2285 103.672 34.3164C103.784 34.4043 103.912 34.4482 104.059 34.4482C104.147 34.4482 104.235 34.4365 104.323 34.4131C104.416 34.3838 104.507 34.3369 104.595 34.2725C104.648 34.2314 104.701 34.1816 104.753 34.123C104.806 34.0645 104.859 33.9941 104.911 33.9121L104.92 33.7979L105.254 29.8691C105.225 29.8633 105.19 29.8574 105.149 29.8516C105.108 29.8457 105.052 29.8428 104.982 29.8428C104.724 29.8428 104.495 29.8984 104.296 30.0098C104.103 30.1211 103.936 30.2881 103.795 30.5107C103.655 30.7275 103.537 30.9971 103.444 31.3193C103.356 31.6357 103.291 32.002 103.25 32.418ZM110.356 33.6572C110.356 32.9658 110.456 32.3271 110.655 31.7412C110.854 31.1494 111.147 30.6367 111.534 30.2031C111.915 29.7695 112.38 29.4297 112.931 29.1836C113.488 28.9375 114.124 28.8145 114.839 28.8145C115.553 28.8145 116.189 28.9375 116.746 29.1836C117.302 29.4297 117.774 29.7695 118.161 30.2031C118.542 30.6367 118.832 31.1494 119.031 31.7412C119.23 32.3271 119.33 32.9658 119.33 33.6572V33.8418C119.33 34.5391 119.23 35.1836 119.031 35.7754C118.832 36.3613 118.542 36.8711 118.161 37.3047C117.78 37.7383 117.311 38.0781 116.755 38.3242C116.198 38.5645 115.565 38.6846 114.856 38.6846C114.141 38.6846 113.503 38.5645 112.94 38.3242C112.383 38.0781 111.915 37.7383 111.534 37.3047C111.147 36.8711 110.854 36.3613 110.655 35.7754C110.456 35.1836 110.356 34.5391 110.356 33.8418V33.6572ZM112.799 33.8418C112.799 34.2402 112.838 34.6152 112.914 34.9668C112.99 35.3125 113.11 35.6143 113.274 35.8721C113.438 36.1357 113.649 36.3438 113.907 36.4961C114.171 36.6484 114.487 36.7246 114.856 36.7246C115.214 36.7246 115.521 36.6484 115.779 36.4961C116.037 36.3438 116.248 36.1357 116.412 35.8721C116.57 35.6143 116.687 35.3125 116.763 34.9668C116.839 34.6152 116.878 34.2402 116.878 33.8418V33.6572C116.878 33.2705 116.839 32.9043 116.763 32.5586C116.687 32.2129 116.57 31.9082 116.412 31.6445C116.248 31.3809 116.037 31.1729 115.779 31.0205C115.521 30.8682 115.208 30.792 114.839 30.792C114.475 30.792 114.165 30.8682 113.907 31.0205C113.649 31.1729 113.438 31.3809 113.274 31.6445C113.11 31.9082 112.99 32.2129 112.914 32.5586C112.838 32.9043 112.799 33.2705 112.799 33.6572V33.8418ZM121.812 25H127.13V36.5137H129.854V38.5H121.812V36.5137H124.66V26.9951H121.812V25ZM131.66 33.6748C131.66 32.9541 131.742 32.2949 131.906 31.6973C132.076 31.0996 132.322 30.5869 132.645 30.1592C132.967 29.7314 133.357 29.4004 133.814 29.166C134.276 28.9316 134.804 28.8145 135.396 28.8145C135.894 28.8145 136.33 28.9053 136.705 29.0869C137.086 29.2627 137.423 29.5146 137.716 29.8428V25H140.168V38.5H137.962L137.839 37.5068C137.54 37.876 137.189 38.1631 136.784 38.3682C136.38 38.5732 135.911 38.6758 135.378 38.6758C134.798 38.6758 134.276 38.5557 133.814 38.3154C133.357 38.0693 132.97 37.7324 132.653 37.3047C132.331 36.877 132.085 36.3701 131.915 35.7842C131.745 35.1924 131.66 34.5508 131.66 33.8594V33.6748ZM134.104 33.8594C134.104 34.2578 134.136 34.6299 134.2 34.9756C134.271 35.3154 134.382 35.6113 134.534 35.8633C134.687 36.1211 134.883 36.3232 135.123 36.4697C135.363 36.6162 135.656 36.6895 136.002 36.6895C136.424 36.6895 136.773 36.5986 137.048 36.417C137.329 36.2354 137.552 35.9863 137.716 35.6699V31.8203C137.552 31.498 137.332 31.249 137.057 31.0732C136.781 30.8916 136.436 30.8008 136.02 30.8008C135.674 30.8008 135.378 30.877 135.132 31.0293C134.892 31.1758 134.695 31.3779 134.543 31.6357C134.391 31.8994 134.279 32.207 134.209 32.5586C134.139 32.9043 134.104 33.2764 134.104 33.6748V33.8594ZM146.738 36.7246C146.978 36.7246 147.206 36.6895 147.423 36.6191C147.64 36.5488 147.83 36.4492 147.995 36.3203C148.159 36.1914 148.285 36.0361 148.372 35.8545C148.466 35.6729 148.507 35.4707 148.495 35.248H150.798C150.81 35.7402 150.707 36.1973 150.491 36.6191C150.28 37.041 149.99 37.4043 149.62 37.709C149.251 38.0137 148.821 38.2539 148.328 38.4297C147.842 38.5996 147.327 38.6846 146.782 38.6846C146.043 38.6846 145.396 38.5615 144.839 38.3154C144.283 38.0635 143.82 37.7207 143.451 37.2871C143.076 36.8535 142.791 36.3467 142.598 35.7666C142.411 35.1807 142.317 34.5537 142.317 33.8857V33.6221C142.317 32.9541 142.411 32.3301 142.598 31.75C142.786 31.1641 143.067 30.6543 143.442 30.2207C143.817 29.7871 144.28 29.4443 144.83 29.1924C145.387 28.9404 146.032 28.8145 146.764 28.8145C147.35 28.8145 147.892 28.9023 148.39 29.0781C148.888 29.2539 149.319 29.5 149.682 29.8164C150.039 30.1387 150.318 30.5283 150.517 30.9854C150.716 31.4365 150.81 31.9434 150.798 32.5059H148.495C148.507 32.2715 148.472 32.0488 148.39 31.8379C148.308 31.627 148.188 31.4453 148.03 31.293C147.871 31.1406 147.681 31.0205 147.458 30.9326C147.236 30.8389 146.993 30.792 146.729 30.792C146.342 30.792 146.023 30.8711 145.771 31.0293C145.519 31.1875 145.32 31.3984 145.173 31.6621C145.021 31.9258 144.912 32.2275 144.848 32.5674C144.789 32.9072 144.76 33.2588 144.76 33.6221V33.8857C144.76 34.2549 144.789 34.6123 144.848 34.958C144.907 35.2979 145.012 35.5967 145.164 35.8545C145.311 36.1182 145.51 36.3291 145.762 36.4873C146.02 36.6455 146.345 36.7246 146.738 36.7246ZM152.806 33.6572C152.806 32.9658 152.906 32.3271 153.105 31.7412C153.304 31.1494 153.597 30.6367 153.984 30.2031C154.365 29.7695 154.831 29.4297 155.381 29.1836C155.938 28.9375 156.574 28.8145 157.289 28.8145C158.004 28.8145 158.639 28.9375 159.196 29.1836C159.753 29.4297 160.224 29.7695 160.611 30.2031C160.992 30.6367 161.282 31.1494 161.481 31.7412C161.68 32.3271 161.78 32.9658 161.78 33.6572V33.8418C161.78 34.5391 161.68 35.1836 161.481 35.7754C161.282 36.3613 160.992 36.8711 160.611 37.3047C160.23 37.7383 159.761 38.0781 159.205 38.3242C158.648 38.5645 158.015 38.6846 157.306 38.6846C156.591 38.6846 155.953 38.5645 155.39 38.3242C154.834 38.0781 154.365 37.7383 153.984 37.3047C153.597 36.8711 153.304 36.3613 153.105 35.7754C152.906 35.1836 152.806 34.5391 152.806 33.8418V33.6572ZM155.25 33.8418C155.25 34.2402 155.288 34.6152 155.364 34.9668C155.44 35.3125 155.56 35.6143 155.724 35.8721C155.888 36.1357 156.099 36.3438 156.357 36.4961C156.621 36.6484 156.937 36.7246 157.306 36.7246C157.664 36.7246 157.971 36.6484 158.229 36.4961C158.487 36.3438 158.698 36.1357 158.862 35.8721C159.02 35.6143 159.137 35.3125 159.214 34.9668C159.29 34.6152 159.328 34.2402 159.328 33.8418V33.6572C159.328 33.2705 159.29 32.9043 159.214 32.5586C159.137 32.2129 159.02 31.9082 158.862 31.6445C158.698 31.3809 158.487 31.1729 158.229 31.0205C157.971 30.8682 157.658 30.792 157.289 30.792C156.925 30.792 156.615 30.8682 156.357 31.0205C156.099 31.1729 155.888 31.3809 155.724 31.6445C155.56 31.9082 155.44 32.2129 155.364 32.5586C155.288 32.9043 155.25 33.2705 155.25 33.6572V33.8418ZM165.273 28.9902L165.344 30.1416C165.525 29.7314 165.774 29.4092 166.091 29.1748C166.413 28.9346 166.803 28.8145 167.26 28.8145C167.482 28.8145 167.682 28.8408 167.857 28.8936C168.033 28.9463 168.185 29.0283 168.314 29.1396C168.414 29.2217 168.499 29.3213 168.569 29.4385C168.645 29.5498 168.71 29.6787 168.763 29.8252C168.845 29.6846 168.935 29.5586 169.035 29.4473C169.141 29.3301 169.255 29.2305 169.378 29.1484C169.53 29.043 169.703 28.9609 169.896 28.9023C170.09 28.8438 170.301 28.8145 170.529 28.8145C170.816 28.8145 171.083 28.8672 171.329 28.9727C171.581 29.0781 171.801 29.2451 171.988 29.4736C172.17 29.708 172.31 30.0098 172.41 30.3789C172.516 30.7422 172.568 31.1875 172.568 31.7148V38.5H170.345V31.7061C170.345 31.5244 170.324 31.375 170.283 31.2578C170.248 31.1406 170.198 31.0469 170.134 30.9766C170.069 30.9121 169.993 30.8682 169.905 30.8447C169.823 30.8154 169.738 30.8008 169.65 30.8008C169.557 30.8008 169.472 30.8125 169.395 30.8359C169.325 30.8594 169.258 30.8916 169.193 30.9326C169.141 30.9736 169.094 31.0205 169.053 31.0732C169.012 31.1201 168.976 31.1758 168.947 31.2402C168.947 31.252 168.947 31.2783 168.947 31.3193C168.947 31.3604 168.947 31.416 168.947 31.4863V38.5H166.794V31.6973C166.794 31.5156 166.776 31.3662 166.741 31.249C166.706 31.1318 166.659 31.041 166.6 30.9766C166.536 30.9121 166.463 30.8682 166.381 30.8447C166.299 30.8154 166.211 30.8008 166.117 30.8008C166.012 30.8008 165.918 30.8184 165.836 30.8535C165.754 30.8887 165.681 30.9385 165.616 31.0029C165.569 31.0498 165.528 31.1055 165.493 31.1699C165.458 31.2344 165.426 31.3047 165.396 31.3809V38.5H163.173V28.9902H165.273ZM174.401 42.1562V28.9902H176.659L176.747 29.9219C176.876 29.7637 177.017 29.623 177.169 29.5C177.321 29.3711 177.485 29.2598 177.661 29.166C177.872 29.0547 178.104 28.9697 178.356 28.9111C178.613 28.8467 178.889 28.8145 179.182 28.8145C179.785 28.8145 180.318 28.9316 180.781 29.166C181.244 29.3945 181.634 29.7197 181.95 30.1416C182.267 30.5693 182.504 31.082 182.662 31.6797C182.826 32.2715 182.908 32.9277 182.908 33.6484V33.833C182.908 34.5244 182.826 35.166 182.662 35.7578C182.504 36.3496 182.27 36.8594 181.959 37.2871C181.643 37.7207 181.253 38.0605 180.79 38.3066C180.327 38.5527 179.797 38.6758 179.199 38.6758C178.883 38.6758 178.59 38.6406 178.32 38.5703C178.057 38.5059 177.811 38.4092 177.582 38.2803C177.447 38.1982 177.318 38.1074 177.195 38.0078C177.072 37.9082 176.955 37.7969 176.844 37.6738V42.1562H174.401ZM180.465 33.6484C180.465 33.25 180.427 32.8779 180.351 32.5322C180.28 32.1807 180.169 31.876 180.017 31.6182C179.859 31.3662 179.656 31.167 179.41 31.0205C179.17 30.874 178.877 30.8008 178.531 30.8008C178.332 30.8008 178.151 30.8213 177.986 30.8623C177.822 30.8975 177.673 30.9502 177.538 31.0205C177.386 31.1025 177.251 31.2051 177.134 31.3281C177.023 31.4512 176.926 31.5947 176.844 31.7588V35.7314C176.92 35.8838 177.011 36.0215 177.116 36.1445C177.228 36.2676 177.354 36.373 177.494 36.4609C177.629 36.543 177.784 36.6074 177.96 36.6543C178.136 36.6953 178.332 36.7158 178.549 36.7158C178.895 36.7158 179.188 36.6396 179.428 36.4873C179.674 36.335 179.873 36.127 180.026 35.8633C180.178 35.5996 180.289 35.2949 180.359 34.9492C180.43 34.5977 180.465 34.2256 180.465 33.833V33.6484ZM190.919 38.5C190.861 38.3828 190.811 38.248 190.77 38.0957C190.729 37.9434 190.694 37.7822 190.664 37.6123C190.53 37.7588 190.374 37.8965 190.199 38.0254C190.023 38.1543 189.829 38.2656 189.619 38.3594C189.402 38.459 189.164 38.5352 188.907 38.5879C188.649 38.6465 188.37 38.6758 188.072 38.6758C187.585 38.6758 187.137 38.6055 186.727 38.4648C186.323 38.3242 185.974 38.1279 185.681 37.876C185.388 37.624 185.16 37.3252 184.995 36.9795C184.831 36.6279 184.749 36.2471 184.749 35.8369C184.749 35.3096 184.852 34.8438 185.057 34.4395C185.262 34.0293 185.57 33.6924 185.98 33.4287C186.349 33.1885 186.803 33.0068 187.342 32.8838C187.887 32.7549 188.511 32.6904 189.214 32.6904H190.577V32.1279C190.577 31.9053 190.541 31.7061 190.471 31.5303C190.401 31.3486 190.295 31.1934 190.155 31.0645C190.008 30.9297 189.824 30.8271 189.601 30.7568C189.384 30.6807 189.129 30.6426 188.836 30.6426C188.578 30.6426 188.356 30.6748 188.168 30.7393C187.981 30.7979 187.828 30.8828 187.711 30.9941C187.606 31.0938 187.527 31.2139 187.474 31.3545C187.427 31.4951 187.404 31.6504 187.404 31.8203H184.96C184.96 31.416 185.048 31.0322 185.224 30.6689C185.406 30.3057 185.669 29.9863 186.015 29.7109C186.355 29.4355 186.771 29.2188 187.263 29.0605C187.761 28.8965 188.329 28.8145 188.968 28.8145C189.542 28.8145 190.076 28.8848 190.568 29.0254C191.066 29.166 191.496 29.374 191.86 29.6494C192.223 29.9248 192.507 30.2734 192.712 30.6953C192.917 31.1113 193.02 31.5947 193.02 32.1455V36.2236C193.02 36.7334 193.052 37.1553 193.117 37.4893C193.181 37.8232 193.275 38.1104 193.398 38.3506V38.5H190.919ZM188.59 36.7861C188.836 36.7861 189.065 36.7568 189.276 36.6982C189.487 36.6396 189.677 36.5635 189.847 36.4697C190.017 36.376 190.163 36.2705 190.286 36.1533C190.41 36.0303 190.506 35.9072 190.577 35.7842V34.1494H189.328C188.948 34.1494 188.622 34.1875 188.353 34.2637C188.083 34.334 187.864 34.4336 187.694 34.5625C187.524 34.6973 187.398 34.8584 187.316 35.0459C187.234 35.2275 187.193 35.4268 187.193 35.6436C187.193 35.8135 187.222 35.9717 187.281 36.1182C187.345 36.2588 187.436 36.3789 187.553 36.4785C187.67 36.5723 187.814 36.6484 187.984 36.707C188.16 36.7598 188.362 36.7861 188.59 36.7861ZM195.59 38.5V28.9902H197.805L197.955 30.3086C198.078 30.1328 198.213 29.9717 198.359 29.8252C198.505 29.6787 198.661 29.5469 198.825 29.4297C199.106 29.2305 199.414 29.0781 199.748 28.9727C200.082 28.8672 200.436 28.8145 200.811 28.8145C201.292 28.8145 201.731 28.8848 202.13 29.0254C202.528 29.166 202.874 29.3887 203.167 29.6934C203.454 30.0039 203.676 30.4023 203.835 30.8887C203.999 31.3691 204.081 31.9551 204.081 32.6465V38.5H201.637V32.6816C201.637 32.3066 201.593 31.999 201.505 31.7588C201.423 31.5127 201.303 31.3193 201.145 31.1787C200.987 31.0381 200.796 30.9414 200.574 30.8887C200.351 30.8301 200.099 30.8008 199.818 30.8008C199.584 30.8008 199.367 30.8271 199.168 30.8799C198.974 30.9326 198.801 31.0117 198.649 31.1172C198.526 31.1934 198.415 31.2842 198.315 31.3896C198.215 31.4951 198.125 31.6123 198.043 31.7412V38.5H195.59ZM207.706 42.3408C207.472 42.3408 207.266 42.3262 207.091 42.2969C206.921 42.2676 206.73 42.2236 206.519 42.165L206.818 40.3018C206.918 40.3018 207.044 40.3047 207.196 40.3105C207.354 40.3223 207.48 40.3281 207.574 40.3281C207.767 40.3281 207.937 40.2666 208.084 40.1436C208.236 40.0264 208.365 39.8975 208.471 39.7568C208.576 39.6162 208.652 39.5107 208.699 39.4404C208.752 39.3701 208.813 39.2705 208.884 39.1416L209.446 38.0957L205.421 28.9902H208.093L210.272 34.5625L210.536 35.5293L210.896 34.5801L213.067 28.9902H215.765L210.94 39.9238C210.835 40.1641 210.697 40.4248 210.527 40.7061C210.363 40.9873 210.155 41.248 209.903 41.4883C209.651 41.7285 209.344 41.9307 208.98 42.0947C208.623 42.2588 208.198 42.3408 207.706 42.3408ZM219.285 37.085C219.285 36.6338 219.435 36.2529 219.734 35.9424C220.032 35.626 220.448 35.4678 220.982 35.4678C221.509 35.4678 221.922 35.623 222.221 35.9336C222.525 36.2441 222.678 36.6279 222.678 37.085C222.678 37.542 222.523 37.9229 222.212 38.2275C221.907 38.5264 221.497 38.6758 220.982 38.6758C220.46 38.6758 220.047 38.5234 219.742 38.2188C219.438 37.9141 219.285 37.5361 219.285 37.085ZM231.638 36.7246C231.878 36.7246 232.107 36.6895 232.324 36.6191C232.54 36.5488 232.731 36.4492 232.895 36.3203C233.059 36.1914 233.185 36.0361 233.273 35.8545C233.367 35.6729 233.408 35.4707 233.396 35.248H235.699C235.71 35.7402 235.608 36.1973 235.391 36.6191C235.18 37.041 234.89 37.4043 234.521 37.709C234.152 38.0137 233.721 38.2539 233.229 38.4297C232.743 38.5996 232.227 38.6846 231.682 38.6846C230.944 38.6846 230.296 38.5615 229.74 38.3154C229.183 38.0635 228.72 37.7207 228.351 37.2871C227.976 36.8535 227.692 36.3467 227.498 35.7666C227.311 35.1807 227.217 34.5537 227.217 33.8857V33.6221C227.217 32.9541 227.311 32.3301 227.498 31.75C227.686 31.1641 227.967 30.6543 228.342 30.2207C228.717 29.7871 229.18 29.4443 229.731 29.1924C230.287 28.9404 230.932 28.8145 231.664 28.8145C232.25 28.8145 232.792 28.9023 233.29 29.0781C233.788 29.2539 234.219 29.5 234.582 29.8164C234.94 30.1387 235.218 30.5283 235.417 30.9854C235.617 31.4365 235.71 31.9434 235.699 32.5059H233.396C233.408 32.2715 233.372 32.0488 233.29 31.8379C233.208 31.627 233.088 31.4453 232.93 31.293C232.772 31.1406 232.581 31.0205 232.359 30.9326C232.136 30.8389 231.893 30.792 231.629 30.792C231.243 30.792 230.923 30.8711 230.671 31.0293C230.419 31.1875 230.22 31.3984 230.074 31.6621C229.921 31.9258 229.813 32.2275 229.748 32.5674C229.69 32.9072 229.661 33.2588 229.661 33.6221V33.8857C229.661 34.2549 229.69 34.6123 229.748 34.958C229.807 35.2979 229.912 35.5967 230.065 35.8545C230.211 36.1182 230.411 36.3291 230.662 36.4873C230.92 36.6455 231.245 36.7246 231.638 36.7246ZM237.707 33.6572C237.707 32.9658 237.806 32.3271 238.005 31.7412C238.205 31.1494 238.498 30.6367 238.884 30.2031C239.265 29.7695 239.731 29.4297 240.282 29.1836C240.838 28.9375 241.474 28.8145 242.189 28.8145C242.904 28.8145 243.54 28.9375 244.096 29.1836C244.653 29.4297 245.125 29.7695 245.511 30.2031C245.892 30.6367 246.182 31.1494 246.381 31.7412C246.581 32.3271 246.68 32.9658 246.68 33.6572V33.8418C246.68 34.5391 246.581 35.1836 246.381 35.7754C246.182 36.3613 245.892 36.8711 245.511 37.3047C245.13 37.7383 244.662 38.0781 244.105 38.3242C243.548 38.5645 242.916 38.6846 242.207 38.6846C241.492 38.6846 240.853 38.5645 240.291 38.3242C239.734 38.0781 239.265 37.7383 238.884 37.3047C238.498 36.8711 238.205 36.3613 238.005 35.7754C237.806 35.1836 237.707 34.5391 237.707 33.8418V33.6572ZM240.15 33.8418C240.15 34.2402 240.188 34.6152 240.264 34.9668C240.34 35.3125 240.461 35.6143 240.625 35.8721C240.789 36.1357 241 36.3438 241.257 36.4961C241.521 36.6484 241.838 36.7246 242.207 36.7246C242.564 36.7246 242.872 36.6484 243.13 36.4961C243.387 36.3438 243.598 36.1357 243.762 35.8721C243.921 35.6143 244.038 35.3125 244.114 34.9668C244.19 34.6152 244.228 34.2402 244.228 33.8418V33.6572C244.228 33.2705 244.19 32.9043 244.114 32.5586C244.038 32.2129 243.921 31.9082 243.762 31.6445C243.598 31.3809 243.387 31.1729 243.13 31.0205C242.872 30.8682 242.558 30.792 242.189 30.792C241.826 30.792 241.515 30.8682 241.257 31.0205C241 31.1729 240.789 31.3809 240.625 31.6445C240.461 31.9082 240.34 32.2129 240.264 32.5586C240.188 32.9043 240.15 33.2705 240.15 33.6572V33.8418ZM250.174 28.9902L250.244 30.1416C250.426 29.7314 250.675 29.4092 250.991 29.1748C251.313 28.9346 251.703 28.8145 252.16 28.8145C252.383 28.8145 252.582 28.8408 252.758 28.8936C252.933 28.9463 253.086 29.0283 253.215 29.1396C253.314 29.2217 253.399 29.3213 253.47 29.4385C253.546 29.5498 253.61 29.6787 253.663 29.8252C253.745 29.6846 253.836 29.5586 253.935 29.4473C254.041 29.3301 254.155 29.2305 254.278 29.1484C254.431 29.043 254.603 28.9609 254.797 28.9023C254.99 28.8438 255.201 28.8145 255.43 28.8145C255.717 28.8145 255.983 28.8672 256.229 28.9727C256.481 29.0781 256.701 29.2451 256.889 29.4736C257.07 29.708 257.211 30.0098 257.31 30.3789C257.416 30.7422 257.469 31.1875 257.469 31.7148V38.5H255.245V31.7061C255.245 31.5244 255.224 31.375 255.183 31.2578C255.148 31.1406 255.098 31.0469 255.034 30.9766C254.97 30.9121 254.893 30.8682 254.806 30.8447C254.723 30.8154 254.639 30.8008 254.551 30.8008C254.457 30.8008 254.372 30.8125 254.296 30.8359C254.225 30.8594 254.158 30.8916 254.094 30.9326C254.041 30.9736 253.994 31.0205 253.953 31.0732C253.912 31.1201 253.877 31.1758 253.848 31.2402C253.848 31.252 253.848 31.2783 253.848 31.3193C253.848 31.3604 253.848 31.416 253.848 31.4863V38.5H251.694V31.6973C251.694 31.5156 251.677 31.3662 251.641 31.249C251.606 31.1318 251.559 31.041 251.501 30.9766C251.436 30.9121 251.363 30.8682 251.281 30.8447C251.199 30.8154 251.111 30.8008 251.017 30.8008C250.912 30.8008 250.818 30.8184 250.736 30.8535C250.654 30.8887 250.581 30.9385 250.516 31.0029C250.47 31.0498 250.429 31.1055 250.393 31.1699C250.358 31.2344 250.326 31.3047 250.297 31.3809V38.5H248.073V28.9902H250.174Z" fill="black" fill-opacity="0.8"/>
<rect x="432" width="304" height="64" rx="6" fill="white"/>
<path d="M484.956 38.5C484.898 38.3828 484.848 38.248 484.807 38.0957C484.766 37.9434 484.731 37.7822 484.701 37.6123C484.567 37.7588 484.411 37.8965 484.235 38.0254C484.06 38.1543 483.866 38.2656 483.655 38.3594C483.439 38.459 483.201 38.5352 482.943 38.5879C482.686 38.6465 482.407 38.6758 482.109 38.6758C481.622 38.6758 481.174 38.6055 480.764 38.4648C480.36 38.3242 480.011 38.1279 479.718 37.876C479.425 37.624 479.196 37.3252 479.032 36.9795C478.868 36.6279 478.786 36.2471 478.786 35.8369C478.786 35.3096 478.889 34.8438 479.094 34.4395C479.299 34.0293 479.607 33.6924 480.017 33.4287C480.386 33.1885 480.84 33.0068 481.379 32.8838C481.924 32.7549 482.548 32.6904 483.251 32.6904H484.613V32.1279C484.613 31.9053 484.578 31.7061 484.508 31.5303C484.438 31.3486 484.332 31.1934 484.192 31.0645C484.045 30.9297 483.86 30.8271 483.638 30.7568C483.421 30.6807 483.166 30.6426 482.873 30.6426C482.615 30.6426 482.393 30.6748 482.205 30.7393C482.018 30.7979 481.865 30.8828 481.748 30.9941C481.643 31.0938 481.564 31.2139 481.511 31.3545C481.464 31.4951 481.441 31.6504 481.441 31.8203H478.997C478.997 31.416 479.085 31.0322 479.261 30.6689C479.443 30.3057 479.706 29.9863 480.052 29.7109C480.392 29.4355 480.808 29.2188 481.3 29.0605C481.798 28.8965 482.366 28.8145 483.005 28.8145C483.579 28.8145 484.112 28.8848 484.605 29.0254C485.103 29.166 485.533 29.374 485.897 29.6494C486.26 29.9248 486.544 30.2734 486.749 30.6953C486.954 31.1113 487.057 31.5947 487.057 32.1455V36.2236C487.057 36.7334 487.089 37.1553 487.153 37.4893C487.218 37.8232 487.312 38.1104 487.435 38.3506V38.5H484.956ZM482.627 36.7861C482.873 36.7861 483.102 36.7568 483.313 36.6982C483.524 36.6396 483.714 36.5635 483.884 36.4697C484.054 36.376 484.2 36.2705 484.323 36.1533C484.446 36.0303 484.543 35.9072 484.613 35.7842V34.1494H483.365C482.985 34.1494 482.659 34.1875 482.39 34.2637C482.12 34.334 481.901 34.4336 481.731 34.5625C481.561 34.6973 481.435 34.8584 481.353 35.0459C481.271 35.2275 481.23 35.4268 481.23 35.6436C481.23 35.8135 481.259 35.9717 481.318 36.1182C481.382 36.2588 481.473 36.3789 481.59 36.4785C481.707 36.5723 481.851 36.6484 482.021 36.707C482.196 36.7598 482.399 36.7861 482.627 36.7861ZM490.137 25H495.454V36.5137H498.179V38.5H490.137V36.5137H492.985V26.9951H490.137V25ZM500.89 28.9902H506.067V36.5137H508.642V38.5H500.89V36.5137H503.597V30.9854H500.89V28.9902ZM503.422 26.5557C503.422 26.3682 503.454 26.1953 503.518 26.0371C503.589 25.873 503.685 25.7324 503.808 25.6152C503.931 25.5039 504.078 25.416 504.248 25.3516C504.423 25.2871 504.617 25.2549 504.828 25.2549C505.261 25.2549 505.604 25.3779 505.856 25.624C506.114 25.8643 506.243 26.1748 506.243 26.5557C506.243 26.9365 506.114 27.25 505.856 27.4961C505.604 27.7363 505.261 27.8564 504.828 27.8564C504.617 27.8564 504.423 27.8242 504.248 27.7598C504.078 27.6953 503.931 27.6045 503.808 27.4873C503.685 27.376 503.589 27.2412 503.518 27.083C503.454 26.9189 503.422 26.7432 503.422 26.5557ZM515.062 36.7246C515.303 36.7246 515.531 36.6895 515.748 36.6191C515.965 36.5488 516.155 36.4492 516.319 36.3203C516.483 36.1914 516.609 36.0361 516.697 35.8545C516.791 35.6729 516.832 35.4707 516.82 35.248H519.123C519.135 35.7402 519.032 36.1973 518.815 36.6191C518.604 37.041 518.314 37.4043 517.945 37.709C517.576 38.0137 517.145 38.2539 516.653 38.4297C516.167 38.5996 515.651 38.6846 515.106 38.6846C514.368 38.6846 513.721 38.5615 513.164 38.3154C512.607 38.0635 512.144 37.7207 511.775 37.2871C511.4 36.8535 511.116 36.3467 510.923 35.7666C510.735 35.1807 510.641 34.5537 510.641 33.8857V33.6221C510.641 32.9541 510.735 32.3301 510.923 31.75C511.11 31.1641 511.391 30.6543 511.766 30.2207C512.141 29.7871 512.604 29.4443 513.155 29.1924C513.712 28.9404 514.356 28.8145 515.089 28.8145C515.675 28.8145 516.217 28.9023 516.715 29.0781C517.213 29.2539 517.643 29.5 518.007 29.8164C518.364 30.1387 518.642 30.5283 518.842 30.9854C519.041 31.4365 519.135 31.9434 519.123 32.5059H516.82C516.832 32.2715 516.797 32.0488 516.715 31.8379C516.633 31.627 516.513 31.4453 516.354 31.293C516.196 31.1406 516.006 31.0205 515.783 30.9326C515.56 30.8389 515.317 30.792 515.054 30.792C514.667 30.792 514.348 30.8711 514.096 31.0293C513.844 31.1875 513.644 31.3984 513.498 31.6621C513.346 31.9258 513.237 32.2275 513.173 32.5674C513.114 32.9072 513.085 33.2588 513.085 33.6221V33.8857C513.085 34.2549 513.114 34.6123 513.173 34.958C513.231 35.2979 513.337 35.5967 513.489 35.8545C513.636 36.1182 513.835 36.3291 514.087 36.4873C514.345 36.6455 514.67 36.7246 515.062 36.7246ZM526.079 38.6758C525.347 38.6758 524.682 38.5557 524.084 38.3154C523.486 38.0752 522.974 37.7471 522.546 37.3311C522.118 36.9209 521.787 36.4375 521.553 35.8809C521.324 35.3184 521.21 34.7178 521.21 34.0791V33.7275C521.21 33.001 521.324 32.3389 521.553 31.7412C521.781 31.1377 522.101 30.6191 522.511 30.1855C522.921 29.752 523.407 29.415 523.97 29.1748C524.532 28.9346 525.145 28.8145 525.807 28.8145C526.492 28.8145 527.102 28.9287 527.635 29.1572C528.174 29.3799 528.631 29.6963 529.006 30.1064C529.375 30.5166 529.656 31.0117 529.85 31.5918C530.043 32.166 530.14 32.8018 530.14 33.499V34.5361H523.689V34.5625C523.771 34.9434 523.876 35.251 524.005 35.4854C524.134 35.7139 524.307 35.9219 524.524 36.1094C524.746 36.3027 525.001 36.4521 525.288 36.5576C525.575 36.6631 525.889 36.7158 526.229 36.7158C526.709 36.7158 527.175 36.625 527.626 36.4434C528.077 36.2617 528.443 35.9893 528.725 35.626L529.946 36.9443C529.636 37.3838 529.144 37.7822 528.47 38.1396C527.796 38.4971 526.999 38.6758 526.079 38.6758ZM525.789 30.792C525.514 30.792 525.262 30.8418 525.033 30.9414C524.805 31.0352 524.606 31.1729 524.436 31.3545C524.26 31.5361 524.113 31.7529 523.996 32.0049C523.879 32.2568 523.791 32.5381 523.733 32.8486H527.74V32.6553C527.74 32.3975 527.693 32.1543 527.6 31.9258C527.506 31.6973 527.377 31.498 527.213 31.3281C527.049 31.1641 526.847 31.0352 526.607 30.9414C526.372 30.8418 526.1 30.792 525.789 30.792ZM541.121 31.2666C541.104 31.8174 541.042 32.3652 540.937 32.9102C540.831 33.4492 540.676 33.9326 540.471 34.3604C540.26 34.7939 539.994 35.1455 539.671 35.415C539.349 35.6787 538.962 35.8105 538.511 35.8105C538.341 35.8105 538.18 35.7871 538.028 35.7402C537.875 35.6934 537.738 35.623 537.615 35.5293C537.515 35.459 537.424 35.374 537.342 35.2744C537.26 35.1748 537.187 35.0635 537.122 34.9404C537.046 35.0459 536.964 35.1455 536.876 35.2393C536.788 35.3271 536.698 35.4062 536.604 35.4766C536.463 35.5762 536.314 35.6553 536.156 35.7139C535.997 35.7666 535.83 35.793 535.655 35.793C535.303 35.793 534.995 35.7139 534.732 35.5557C534.468 35.3975 534.254 35.1689 534.09 34.8701C533.926 34.5771 533.812 34.2227 533.747 33.8066C533.689 33.3906 533.683 32.9277 533.73 32.418C533.794 31.8203 533.909 31.2812 534.073 30.8008C534.243 30.3203 534.459 29.9072 534.723 29.5615C534.987 29.2217 535.297 28.9609 535.655 28.7793C536.012 28.5918 536.413 28.498 536.859 28.498C537.31 28.498 537.682 28.5654 537.975 28.7002C538.268 28.8291 538.505 28.9844 538.687 29.166L538.309 33.7979C538.297 33.9678 538.3 34.0996 538.318 34.1934C538.341 34.2871 538.376 34.3574 538.423 34.4043C538.464 34.4512 538.514 34.4805 538.573 34.4922C538.631 34.5039 538.69 34.5098 538.748 34.5098C538.901 34.5098 539.038 34.4307 539.161 34.2725C539.29 34.1143 539.402 33.8945 539.495 33.6133C539.589 33.332 539.66 32.998 539.706 32.6113C539.759 32.2188 539.786 31.791 539.786 31.3281C539.809 30.6133 539.756 29.9951 539.627 29.4736C539.504 28.9463 539.308 28.5127 539.038 28.1729C538.769 27.833 538.432 27.5811 538.028 27.417C537.623 27.2529 537.158 27.1709 536.63 27.1709C536.033 27.1709 535.494 27.3057 535.013 27.5752C534.538 27.8389 534.134 28.208 533.8 28.6826C533.46 29.1572 533.194 29.7227 533 30.3789C532.807 31.0293 532.699 31.7441 532.675 32.5234C532.646 33.3086 532.699 33.9941 532.833 34.5801C532.974 35.166 533.191 35.6523 533.484 36.0391C533.771 36.4316 534.134 36.7246 534.574 36.918C535.019 37.1113 535.529 37.208 536.103 37.208C536.285 37.208 536.472 37.1963 536.665 37.1729C536.859 37.1494 537.049 37.1143 537.237 37.0674C537.418 37.0264 537.591 36.9766 537.755 36.918C537.925 36.8594 538.078 36.7949 538.212 36.7246L538.494 37.9111C538.341 38.0225 538.165 38.1191 537.966 38.2012C537.773 38.2832 537.568 38.3506 537.351 38.4033C537.134 38.4619 536.917 38.5029 536.701 38.5264C536.484 38.5557 536.276 38.5703 536.077 38.5703C535.221 38.5703 534.483 38.4297 533.862 38.1484C533.241 37.8672 532.728 37.4658 532.324 36.9443C531.919 36.4229 531.623 35.79 531.436 35.0459C531.254 34.2959 531.178 33.4551 531.207 32.5234C531.237 31.5977 531.389 30.7275 531.664 29.9131C531.946 29.0986 532.329 28.3867 532.816 27.7773C533.296 27.1738 533.868 26.6992 534.53 26.3535C535.192 26.002 535.921 25.8262 536.718 25.8262C537.41 25.8262 538.034 25.958 538.59 26.2217C539.147 26.4795 539.619 26.8457 540.005 27.3203C540.386 27.8008 540.673 28.375 540.867 29.043C541.06 29.7109 541.145 30.4521 541.121 31.2666ZM535.25 32.418C535.233 32.7461 535.236 33.0361 535.259 33.2881C535.288 33.54 535.335 33.748 535.4 33.9121C535.47 34.0938 535.561 34.2285 535.672 34.3164C535.784 34.4043 535.912 34.4482 536.059 34.4482C536.147 34.4482 536.235 34.4365 536.323 34.4131C536.416 34.3838 536.507 34.3369 536.595 34.2725C536.648 34.2314 536.701 34.1816 536.753 34.123C536.806 34.0645 536.859 33.9941 536.911 33.9121L536.92 33.7979L537.254 29.8691C537.225 29.8633 537.19 29.8574 537.149 29.8516C537.108 29.8457 537.052 29.8428 536.982 29.8428C536.724 29.8428 536.495 29.8984 536.296 30.0098C536.103 30.1211 535.936 30.2881 535.795 30.5107C535.655 30.7275 535.537 30.9971 535.444 31.3193C535.356 31.6357 535.291 32.002 535.25 32.418ZM542.69 38.5V28.9902H544.905L545.054 30.3086C545.177 30.1328 545.312 29.9717 545.459 29.8252C545.605 29.6787 545.76 29.5469 545.924 29.4297C546.206 29.2305 546.513 29.0781 546.847 28.9727C547.181 28.8672 547.536 28.8145 547.911 28.8145C548.391 28.8145 548.831 28.8848 549.229 29.0254C549.628 29.166 549.973 29.3887 550.266 29.6934C550.553 30.0039 550.776 30.4023 550.934 30.8887C551.098 31.3691 551.18 31.9551 551.18 32.6465V38.5H548.737V32.6816C548.737 32.3066 548.693 31.999 548.605 31.7588C548.523 31.5127 548.403 31.3193 548.245 31.1787C548.087 31.0381 547.896 30.9414 547.673 30.8887C547.451 30.8301 547.199 30.8008 546.918 30.8008C546.683 30.8008 546.466 30.8271 546.267 30.8799C546.074 30.9326 545.901 31.0117 545.749 31.1172C545.626 31.1934 545.514 31.2842 545.415 31.3896C545.315 31.4951 545.224 31.6123 545.142 31.7412V38.5H542.69ZM557.917 38.6758C557.184 38.6758 556.519 38.5557 555.922 38.3154C555.324 38.0752 554.811 37.7471 554.384 37.3311C553.956 36.9209 553.625 36.4375 553.391 35.8809C553.162 35.3184 553.048 34.7178 553.048 34.0791V33.7275C553.048 33.001 553.162 32.3389 553.391 31.7412C553.619 31.1377 553.938 30.6191 554.349 30.1855C554.759 29.752 555.245 29.415 555.807 29.1748C556.37 28.9346 556.982 28.8145 557.644 28.8145C558.33 28.8145 558.939 28.9287 559.473 29.1572C560.012 29.3799 560.469 29.6963 560.844 30.1064C561.213 30.5166 561.494 31.0117 561.687 31.5918C561.881 32.166 561.977 32.8018 561.977 33.499V34.5361H555.526V34.5625C555.608 34.9434 555.714 35.251 555.843 35.4854C555.972 35.7139 556.144 35.9219 556.361 36.1094C556.584 36.3027 556.839 36.4521 557.126 36.5576C557.413 36.6631 557.726 36.7158 558.066 36.7158C558.547 36.7158 559.013 36.625 559.464 36.4434C559.915 36.2617 560.281 35.9893 560.562 35.626L561.784 36.9443C561.474 37.3838 560.981 37.7822 560.307 38.1396C559.634 38.4971 558.837 38.6758 557.917 38.6758ZM557.627 30.792C557.351 30.792 557.099 30.8418 556.871 30.9414C556.642 31.0352 556.443 31.1729 556.273 31.3545C556.098 31.5361 555.951 31.7529 555.834 32.0049C555.717 32.2568 555.629 32.5381 555.57 32.8486H559.578V32.6553C559.578 32.3975 559.531 32.1543 559.437 31.9258C559.344 31.6973 559.215 31.498 559.051 31.3281C558.887 31.1641 558.684 31.0352 558.444 30.9414C558.21 30.8418 557.937 30.792 557.627 30.792ZM564.618 38.5L562.913 28.9902H565.146L565.858 34.6416L565.972 35.5469L566.139 34.6416L567.167 28.9902H568.802L569.83 34.6152L569.997 35.5205L570.12 34.5977L570.823 28.9902H573.065L571.359 38.5H569.215L568.169 33.4199L567.967 32.4531L567.774 33.4199L566.763 38.5H564.618ZM578.738 36.7246C578.978 36.7246 579.206 36.6895 579.423 36.6191C579.64 36.5488 579.83 36.4492 579.995 36.3203C580.159 36.1914 580.285 36.0361 580.372 35.8545C580.466 35.6729 580.507 35.4707 580.495 35.248H582.798C582.81 35.7402 582.707 36.1973 582.491 36.6191C582.28 37.041 581.99 37.4043 581.62 37.709C581.251 38.0137 580.821 38.2539 580.328 38.4297C579.842 38.5996 579.327 38.6846 578.782 38.6846C578.043 38.6846 577.396 38.5615 576.839 38.3154C576.283 38.0635 575.82 37.7207 575.451 37.2871C575.076 36.8535 574.791 36.3467 574.598 35.7666C574.411 35.1807 574.317 34.5537 574.317 33.8857V33.6221C574.317 32.9541 574.411 32.3301 574.598 31.75C574.786 31.1641 575.067 30.6543 575.442 30.2207C575.817 29.7871 576.28 29.4443 576.83 29.1924C577.387 28.9404 578.032 28.8145 578.764 28.8145C579.35 28.8145 579.892 28.9023 580.39 29.0781C580.888 29.2539 581.319 29.5 581.682 29.8164C582.039 30.1387 582.318 30.5283 582.517 30.9854C582.716 31.4365 582.81 31.9434 582.798 32.5059H580.495C580.507 32.2715 580.472 32.0488 580.39 31.8379C580.308 31.627 580.188 31.4453 580.03 31.293C579.871 31.1406 579.681 31.0205 579.458 30.9326C579.236 30.8389 578.993 30.792 578.729 30.792C578.342 30.792 578.023 30.8711 577.771 31.0293C577.519 31.1875 577.32 31.3984 577.173 31.6621C577.021 31.9258 576.912 32.2275 576.848 32.5674C576.789 32.9072 576.76 33.2588 576.76 33.6221V33.8857C576.76 34.2549 576.789 34.6123 576.848 34.958C576.907 35.2979 577.012 35.5967 577.164 35.8545C577.311 36.1182 577.51 36.3291 577.762 36.4873C578.02 36.6455 578.345 36.7246 578.738 36.7246ZM584.806 33.6572C584.806 32.9658 584.906 32.3271 585.105 31.7412C585.304 31.1494 585.597 30.6367 585.984 30.2031C586.365 29.7695 586.831 29.4297 587.381 29.1836C587.938 28.9375 588.574 28.8145 589.289 28.8145C590.004 28.8145 590.639 28.9375 591.196 29.1836C591.753 29.4297 592.224 29.7695 592.611 30.2031C592.992 30.6367 593.282 31.1494 593.481 31.7412C593.68 32.3271 593.78 32.9658 593.78 33.6572V33.8418C593.78 34.5391 593.68 35.1836 593.481 35.7754C593.282 36.3613 592.992 36.8711 592.611 37.3047C592.23 37.7383 591.761 38.0781 591.205 38.3242C590.648 38.5645 590.015 38.6846 589.306 38.6846C588.591 38.6846 587.953 38.5645 587.39 38.3242C586.834 38.0781 586.365 37.7383 585.984 37.3047C585.597 36.8711 585.304 36.3613 585.105 35.7754C584.906 35.1836 584.806 34.5391 584.806 33.8418V33.6572ZM587.25 33.8418C587.25 34.2402 587.288 34.6152 587.364 34.9668C587.44 35.3125 587.56 35.6143 587.724 35.8721C587.888 36.1357 588.099 36.3438 588.357 36.4961C588.621 36.6484 588.937 36.7246 589.306 36.7246C589.664 36.7246 589.971 36.6484 590.229 36.4961C590.487 36.3438 590.698 36.1357 590.862 35.8721C591.02 35.6143 591.137 35.3125 591.214 34.9668C591.29 34.6152 591.328 34.2402 591.328 33.8418V33.6572C591.328 33.2705 591.29 32.9043 591.214 32.5586C591.137 32.2129 591.02 31.9082 590.862 31.6445C590.698 31.3809 590.487 31.1729 590.229 31.0205C589.971 30.8682 589.658 30.792 589.289 30.792C588.925 30.792 588.615 30.8682 588.357 31.0205C588.099 31.1729 587.888 31.3809 587.724 31.6445C587.56 31.9082 587.44 32.2129 587.364 32.5586C587.288 32.9043 587.25 33.2705 587.25 33.6572V33.8418ZM597.273 28.9902L597.344 30.1416C597.525 29.7314 597.774 29.4092 598.091 29.1748C598.413 28.9346 598.803 28.8145 599.26 28.8145C599.482 28.8145 599.682 28.8408 599.857 28.8936C600.033 28.9463 600.185 29.0283 600.314 29.1396C600.414 29.2217 600.499 29.3213 600.569 29.4385C600.645 29.5498 600.71 29.6787 600.763 29.8252C600.845 29.6846 600.935 29.5586 601.035 29.4473C601.141 29.3301 601.255 29.2305 601.378 29.1484C601.53 29.043 601.703 28.9609 601.896 28.9023C602.09 28.8438 602.301 28.8145 602.529 28.8145C602.816 28.8145 603.083 28.8672 603.329 28.9727C603.581 29.0781 603.801 29.2451 603.988 29.4736C604.17 29.708 604.31 30.0098 604.41 30.3789C604.516 30.7422 604.568 31.1875 604.568 31.7148V38.5H602.345V31.7061C602.345 31.5244 602.324 31.375 602.283 31.2578C602.248 31.1406 602.198 31.0469 602.134 30.9766C602.069 30.9121 601.993 30.8682 601.905 30.8447C601.823 30.8154 601.738 30.8008 601.65 30.8008C601.557 30.8008 601.472 30.8125 601.395 30.8359C601.325 30.8594 601.258 30.8916 601.193 30.9326C601.141 30.9736 601.094 31.0205 601.053 31.0732C601.012 31.1201 600.976 31.1758 600.947 31.2402C600.947 31.252 600.947 31.2783 600.947 31.3193C600.947 31.3604 600.947 31.416 600.947 31.4863V38.5H598.794V31.6973C598.794 31.5156 598.776 31.3662 598.741 31.249C598.706 31.1318 598.659 31.041 598.6 30.9766C598.536 30.9121 598.463 30.8682 598.381 30.8447C598.299 30.8154 598.211 30.8008 598.117 30.8008C598.012 30.8008 597.918 30.8184 597.836 30.8535C597.754 30.8887 597.681 30.9385 597.616 31.0029C597.569 31.0498 597.528 31.1055 597.493 31.1699C597.458 31.2344 597.426 31.3047 597.396 31.3809V38.5H595.173V28.9902H597.273ZM606.401 42.1562V28.9902H608.659L608.747 29.9219C608.876 29.7637 609.017 29.623 609.169 29.5C609.321 29.3711 609.485 29.2598 609.661 29.166C609.872 29.0547 610.104 28.9697 610.356 28.9111C610.613 28.8467 610.889 28.8145 611.182 28.8145C611.785 28.8145 612.318 28.9316 612.781 29.166C613.244 29.3945 613.634 29.7197 613.95 30.1416C614.267 30.5693 614.504 31.082 614.662 31.6797C614.826 32.2715 614.908 32.9277 614.908 33.6484V33.833C614.908 34.5244 614.826 35.166 614.662 35.7578C614.504 36.3496 614.27 36.8594 613.959 37.2871C613.643 37.7207 613.253 38.0605 612.79 38.3066C612.327 38.5527 611.797 38.6758 611.199 38.6758C610.883 38.6758 610.59 38.6406 610.32 38.5703C610.057 38.5059 609.811 38.4092 609.582 38.2803C609.447 38.1982 609.318 38.1074 609.195 38.0078C609.072 37.9082 608.955 37.7969 608.844 37.6738V42.1562H606.401ZM612.465 33.6484C612.465 33.25 612.427 32.8779 612.351 32.5322C612.28 32.1807 612.169 31.876 612.017 31.6182C611.859 31.3662 611.656 31.167 611.41 31.0205C611.17 30.874 610.877 30.8008 610.531 30.8008C610.332 30.8008 610.151 30.8213 609.986 30.8623C609.822 30.8975 609.673 30.9502 609.538 31.0205C609.386 31.1025 609.251 31.2051 609.134 31.3281C609.023 31.4512 608.926 31.5947 608.844 31.7588V35.7314C608.92 35.8838 609.011 36.0215 609.116 36.1445C609.228 36.2676 609.354 36.373 609.494 36.4609C609.629 36.543 609.784 36.6074 609.96 36.6543C610.136 36.6953 610.332 36.7158 610.549 36.7158C610.895 36.7158 611.188 36.6396 611.428 36.4873C611.674 36.335 611.873 36.127 612.026 35.8633C612.178 35.5996 612.289 35.2949 612.359 34.9492C612.43 34.5977 612.465 34.2256 612.465 33.833V33.6484ZM622.919 38.5C622.861 38.3828 622.811 38.248 622.77 38.0957C622.729 37.9434 622.694 37.7822 622.664 37.6123C622.53 37.7588 622.374 37.8965 622.199 38.0254C622.023 38.1543 621.829 38.2656 621.619 38.3594C621.402 38.459 621.164 38.5352 620.907 38.5879C620.649 38.6465 620.37 38.6758 620.072 38.6758C619.585 38.6758 619.137 38.6055 618.727 38.4648C618.323 38.3242 617.974 38.1279 617.681 37.876C617.388 37.624 617.16 37.3252 616.995 36.9795C616.831 36.6279 616.749 36.2471 616.749 35.8369C616.749 35.3096 616.852 34.8438 617.057 34.4395C617.262 34.0293 617.57 33.6924 617.98 33.4287C618.349 33.1885 618.803 33.0068 619.342 32.8838C619.887 32.7549 620.511 32.6904 621.214 32.6904H622.577V32.1279C622.577 31.9053 622.541 31.7061 622.471 31.5303C622.401 31.3486 622.295 31.1934 622.155 31.0645C622.008 30.9297 621.824 30.8271 621.601 30.7568C621.384 30.6807 621.129 30.6426 620.836 30.6426C620.578 30.6426 620.356 30.6748 620.168 30.7393C619.981 30.7979 619.828 30.8828 619.711 30.9941C619.606 31.0938 619.527 31.2139 619.474 31.3545C619.427 31.4951 619.404 31.6504 619.404 31.8203H616.96C616.96 31.416 617.048 31.0322 617.224 30.6689C617.406 30.3057 617.669 29.9863 618.015 29.7109C618.355 29.4355 618.771 29.2188 619.263 29.0605C619.761 28.8965 620.329 28.8145 620.968 28.8145C621.542 28.8145 622.076 28.8848 622.568 29.0254C623.066 29.166 623.496 29.374 623.86 29.6494C624.223 29.9248 624.507 30.2734 624.712 30.6953C624.917 31.1113 625.02 31.5947 625.02 32.1455V36.2236C625.02 36.7334 625.052 37.1553 625.117 37.4893C625.181 37.8232 625.275 38.1104 625.398 38.3506V38.5H622.919ZM620.59 36.7861C620.836 36.7861 621.065 36.7568 621.276 36.6982C621.487 36.6396 621.677 36.5635 621.847 36.4697C622.017 36.376 622.163 36.2705 622.286 36.1533C622.41 36.0303 622.506 35.9072 622.577 35.7842V34.1494H621.328C620.948 34.1494 620.622 34.1875 620.353 34.2637C620.083 34.334 619.864 34.4336 619.694 34.5625C619.524 34.6973 619.398 34.8584 619.316 35.0459C619.234 35.2275 619.193 35.4268 619.193 35.6436C619.193 35.8135 619.222 35.9717 619.281 36.1182C619.345 36.2588 619.436 36.3789 619.553 36.4785C619.67 36.5723 619.814 36.6484 619.984 36.707C620.16 36.7598 620.362 36.7861 620.59 36.7861ZM627.59 38.5V28.9902H629.805L629.955 30.3086C630.078 30.1328 630.213 29.9717 630.359 29.8252C630.505 29.6787 630.661 29.5469 630.825 29.4297C631.106 29.2305 631.414 29.0781 631.748 28.9727C632.082 28.8672 632.436 28.8145 632.811 28.8145C633.292 28.8145 633.731 28.8848 634.13 29.0254C634.528 29.166 634.874 29.3887 635.167 29.6934C635.454 30.0039 635.676 30.4023 635.835 30.8887C635.999 31.3691 636.081 31.9551 636.081 32.6465V38.5H633.637V32.6816C633.637 32.3066 633.593 31.999 633.505 31.7588C633.423 31.5127 633.303 31.3193 633.145 31.1787C632.987 31.0381 632.796 30.9414 632.574 30.8887C632.351 30.8301 632.099 30.8008 631.818 30.8008C631.584 30.8008 631.367 30.8271 631.168 30.8799C630.974 30.9326 630.801 31.0117 630.649 31.1172C630.526 31.1934 630.415 31.2842 630.315 31.3896C630.215 31.4951 630.125 31.6123 630.043 31.7412V38.5H627.59ZM639.706 42.3408C639.472 42.3408 639.266 42.3262 639.091 42.2969C638.921 42.2676 638.73 42.2236 638.519 42.165L638.818 40.3018C638.918 40.3018 639.044 40.3047 639.196 40.3105C639.354 40.3223 639.48 40.3281 639.574 40.3281C639.767 40.3281 639.937 40.2666 640.084 40.1436C640.236 40.0264 640.365 39.8975 640.471 39.7568C640.576 39.6162 640.652 39.5107 640.699 39.4404C640.752 39.3701 640.813 39.2705 640.884 39.1416L641.446 38.0957L637.421 28.9902H640.093L642.272 34.5625L642.536 35.5293L642.896 34.5801L645.067 28.9902H647.765L642.94 39.9238C642.835 40.1641 642.697 40.4248 642.527 40.7061C642.363 40.9873 642.155 41.248 641.903 41.4883C641.651 41.7285 641.344 41.9307 640.98 42.0947C640.623 42.2588 640.198 42.3408 639.706 42.3408ZM651.285 37.085C651.285 36.6338 651.435 36.2529 651.734 35.9424C652.032 35.626 652.448 35.4678 652.982 35.4678C653.509 35.4678 653.922 35.623 654.221 35.9336C654.525 36.2441 654.678 36.6279 654.678 37.085C654.678 37.542 654.523 37.9229 654.212 38.2275C653.907 38.5264 653.497 38.6758 652.982 38.6758C652.46 38.6758 652.047 38.5234 651.742 38.2188C651.438 37.9141 651.285 37.5361 651.285 37.085ZM663.638 36.7246C663.878 36.7246 664.107 36.6895 664.324 36.6191C664.54 36.5488 664.731 36.4492 664.895 36.3203C665.059 36.1914 665.185 36.0361 665.273 35.8545C665.367 35.6729 665.408 35.4707 665.396 35.248H667.699C667.71 35.7402 667.608 36.1973 667.391 36.6191C667.18 37.041 666.89 37.4043 666.521 37.709C666.152 38.0137 665.721 38.2539 665.229 38.4297C664.743 38.5996 664.227 38.6846 663.682 38.6846C662.944 38.6846 662.296 38.5615 661.74 38.3154C661.183 38.0635 660.72 37.7207 660.351 37.2871C659.976 36.8535 659.692 36.3467 659.498 35.7666C659.311 35.1807 659.217 34.5537 659.217 33.8857V33.6221C659.217 32.9541 659.311 32.3301 659.498 31.75C659.686 31.1641 659.967 30.6543 660.342 30.2207C660.717 29.7871 661.18 29.4443 661.731 29.1924C662.287 28.9404 662.932 28.8145 663.664 28.8145C664.25 28.8145 664.792 28.9023 665.29 29.0781C665.788 29.2539 666.219 29.5 666.582 29.8164C666.94 30.1387 667.218 30.5283 667.417 30.9854C667.617 31.4365 667.71 31.9434 667.699 32.5059H665.396C665.408 32.2715 665.372 32.0488 665.29 31.8379C665.208 31.627 665.088 31.4453 664.93 31.293C664.772 31.1406 664.581 31.0205 664.359 30.9326C664.136 30.8389 663.893 30.792 663.629 30.792C663.243 30.792 662.923 30.8711 662.671 31.0293C662.419 31.1875 662.22 31.3984 662.074 31.6621C661.921 31.9258 661.813 32.2275 661.748 32.5674C661.69 32.9072 661.661 33.2588 661.661 33.6221V33.8857C661.661 34.2549 661.69 34.6123 661.748 34.958C661.807 35.2979 661.912 35.5967 662.065 35.8545C662.211 36.1182 662.411 36.3291 662.662 36.4873C662.92 36.6455 663.245 36.7246 663.638 36.7246ZM669.707 33.6572C669.707 32.9658 669.806 32.3271 670.005 31.7412C670.205 31.1494 670.498 30.6367 670.884 30.2031C671.265 29.7695 671.731 29.4297 672.282 29.1836C672.838 28.9375 673.474 28.8145 674.189 28.8145C674.904 28.8145 675.54 28.9375 676.096 29.1836C676.653 29.4297 677.125 29.7695 677.511 30.2031C677.892 30.6367 678.182 31.1494 678.381 31.7412C678.581 32.3271 678.68 32.9658 678.68 33.6572V33.8418C678.68 34.5391 678.581 35.1836 678.381 35.7754C678.182 36.3613 677.892 36.8711 677.511 37.3047C677.13 37.7383 676.662 38.0781 676.105 38.3242C675.548 38.5645 674.916 38.6846 674.207 38.6846C673.492 38.6846 672.853 38.5645 672.291 38.3242C671.734 38.0781 671.265 37.7383 670.884 37.3047C670.498 36.8711 670.205 36.3613 670.005 35.7754C669.806 35.1836 669.707 34.5391 669.707 33.8418V33.6572ZM672.15 33.8418C672.15 34.2402 672.188 34.6152 672.264 34.9668C672.34 35.3125 672.461 35.6143 672.625 35.8721C672.789 36.1357 673 36.3438 673.257 36.4961C673.521 36.6484 673.838 36.7246 674.207 36.7246C674.564 36.7246 674.872 36.6484 675.13 36.4961C675.387 36.3438 675.598 36.1357 675.762 35.8721C675.921 35.6143 676.038 35.3125 676.114 34.9668C676.19 34.6152 676.228 34.2402 676.228 33.8418V33.6572C676.228 33.2705 676.19 32.9043 676.114 32.5586C676.038 32.2129 675.921 31.9082 675.762 31.6445C675.598 31.3809 675.387 31.1729 675.13 31.0205C674.872 30.8682 674.558 30.792 674.189 30.792C673.826 30.792 673.515 30.8682 673.257 31.0205C673 31.1729 672.789 31.3809 672.625 31.6445C672.461 31.9082 672.34 32.2129 672.264 32.5586C672.188 32.9043 672.15 33.2705 672.15 33.6572V33.8418ZM682.174 28.9902L682.244 30.1416C682.426 29.7314 682.675 29.4092 682.991 29.1748C683.313 28.9346 683.703 28.8145 684.16 28.8145C684.383 28.8145 684.582 28.8408 684.758 28.8936C684.933 28.9463 685.086 29.0283 685.215 29.1396C685.314 29.2217 685.399 29.3213 685.47 29.4385C685.546 29.5498 685.61 29.6787 685.663 29.8252C685.745 29.6846 685.836 29.5586 685.935 29.4473C686.041 29.3301 686.155 29.2305 686.278 29.1484C686.431 29.043 686.603 28.9609 686.797 28.9023C686.99 28.8438 687.201 28.8145 687.43 28.8145C687.717 28.8145 687.983 28.8672 688.229 28.9727C688.481 29.0781 688.701 29.2451 688.889 29.4736C689.07 29.708 689.211 30.0098 689.31 30.3789C689.416 30.7422 689.469 31.1875 689.469 31.7148V38.5H687.245V31.7061C687.245 31.5244 687.224 31.375 687.183 31.2578C687.148 31.1406 687.098 31.0469 687.034 30.9766C686.97 30.9121 686.893 30.8682 686.806 30.8447C686.723 30.8154 686.639 30.8008 686.551 30.8008C686.457 30.8008 686.372 30.8125 686.296 30.8359C686.225 30.8594 686.158 30.8916 686.094 30.9326C686.041 30.9736 685.994 31.0205 685.953 31.0732C685.912 31.1201 685.877 31.1758 685.848 31.2402C685.848 31.252 685.848 31.2783 685.848 31.3193C685.848 31.3604 685.848 31.416 685.848 31.4863V38.5H683.694V31.6973C683.694 31.5156 683.677 31.3662 683.641 31.249C683.606 31.1318 683.559 31.041 683.501 30.9766C683.436 30.9121 683.363 30.8682 683.281 30.8447C683.199 30.8154 683.111 30.8008 683.017 30.8008C682.912 30.8008 682.818 30.8184 682.736 30.8535C682.654 30.8887 682.581 30.9385 682.516 31.0029C682.47 31.0498 682.429 31.1055 682.393 31.1699C682.358 31.2344 682.326 31.3047 682.297 31.3809V38.5H680.073V28.9902H682.174Z" fill="black" fill-opacity="0.8"/>
<path d="M368.5 53.5837C356.304 53.5837 346.417 43.6965 346.417 31.5003C346.417 19.304 356.304 9.41699 368.5 9.41699C380.696 9.41699 390.583 19.304 390.583 31.5003C390.583 43.6965 380.696 53.5837 368.5 53.5837ZM363.443 48.4325C361.317 43.9242 360.014 38.9517 359.727 33.7087H350.97C351.845 40.7234 356.832 46.4611 363.443 48.4325ZM364.151 33.7087C364.483 39.0943 366.022 44.1534 368.5 48.6193C370.978 44.1534 372.517 39.0943 372.849 33.7087H364.151ZM386.03 33.7087H377.273C376.986 38.9517 375.683 43.9242 373.557 48.4325C380.168 46.4611 385.155 40.7234 386.03 33.7087ZM350.97 29.292H359.727C360.014 24.0489 361.317 19.0764 363.443 14.5681C356.832 16.5396 351.845 22.2772 350.97 29.292ZM364.151 29.292H372.849C372.517 23.9064 370.978 18.8471 368.5 14.3813C366.022 18.8471 364.483 23.9064 364.151 29.292ZM373.557 14.5681C375.683 19.0764 376.986 24.0489 377.273 29.292H386.03C385.155 22.2772 380.168 16.5396 373.557 14.5681Z" fill="black"/>
</svg>
