<svg xmlns="http://www.w3.org/2000/svg" viewBox="0 0 181 28"><defs><style>.cls-1{fill:#ea4335;}.cls-2{fill:#4285f4;}.cls-3{fill:#34a853;}.cls-4{fill:#fbbc05;}.cls-5{fill:#5f6368;}</style></defs><path class="cls-1" d="M21.85,7.41l1,0,2.85-2.85.14-1.21A12.81,12.81,0,0,0,5,9.6a1.55,1.55,0,0,1,1-.06l5.7-.94s.29-.48.44-.45a7.11,7.11,0,0,1,9.73-.74Z"/><path class="cls-2" d="M29.76,9.6a12.84,12.84,0,0,0-3.87-6.24l-4,4A7.11,7.11,0,0,1,24.5,13v.71a3.56,3.56,0,1,1,0,7.12H17.38l-.71.72v4.27l.71.71H24.5A9.26,9.26,0,0,0,29.76,9.6Z"/><path class="cls-3" d="M10.25,26.49h7.12v-5.7H10.25a3.54,3.54,0,0,1-1.47-.32l-1,.31L4.91,23.63l-.25,1A9.21,9.21,0,0,0,10.25,26.49Z"/><path class="cls-4" d="M10.25,8A9.26,9.26,0,0,0,4.66,24.6l4.13-4.13a3.56,3.56,0,1,1,4.71-4.71l4.13-4.13A9.25,9.25,0,0,0,10.25,8Z"/><path class="cls-5" d="M52.79,22.51a9.11,9.11,0,0,1-6.6-2.71,8.8,8.8,0,0,1-2.77-6.52,8.81,8.81,0,0,1,2.77-6.52A9.11,9.11,0,0,1,52.79,4a8.84,8.84,0,0,1,6.33,2.55L57.34,8.36a6.41,6.41,0,0,0-4.55-1.8,6.34,6.34,0,0,0-4.7,2,6.53,6.53,0,0,0-1.93,4.75A6.53,6.53,0,0,0,48.09,18a6.71,6.71,0,0,0,9.36.11A5.32,5.32,0,0,0,58.82,15h-6V12.44h8.49A8.12,8.12,0,0,1,61.41,14a8,8,0,0,1-2.19,5.9A8.51,8.51,0,0,1,52.79,22.51Zm19.74-1.7a6.12,6.12,0,0,1-8.47,0,5.7,5.7,0,0,1-1.73-4.25,5.71,5.71,0,0,1,1.73-4.25,6.13,6.13,0,0,1,8.47,0,5.71,5.71,0,0,1,1.73,4.25A5.7,5.7,0,0,1,72.52,20.81Zm-6.6-1.67a3.24,3.24,0,0,0,4.73,0,3.56,3.56,0,0,0,1-2.58,3.57,3.57,0,0,0-1-2.59,3.29,3.29,0,0,0-4.75,0,3.57,3.57,0,0,0-1,2.59A3.56,3.56,0,0,0,65.92,19.14Zm19.62,1.67a6.12,6.12,0,0,1-8.47,0,5.7,5.7,0,0,1-1.73-4.25,5.71,5.71,0,0,1,1.73-4.25,6.12,6.12,0,0,1,8.47,0,5.71,5.71,0,0,1,1.73,4.25A5.7,5.7,0,0,1,85.55,20.81Zm-6.6-1.67a3.24,3.24,0,0,0,4.73,0,3.56,3.56,0,0,0,1-2.58,3.57,3.57,0,0,0-1-2.59,3.29,3.29,0,0,0-4.75,0,3.57,3.57,0,0,0-1,2.59A3.56,3.56,0,0,0,78.94,19.14Zm15.16,8.71a5.24,5.24,0,0,1-3.33-1.06,6.13,6.13,0,0,1-1.94-2.46l2.28-.95a3.84,3.84,0,0,0,1.13,1.49,2.85,2.85,0,0,0,1.87.63,3,3,0,0,0,2.33-.9A3.65,3.65,0,0,0,97.28,22v-.86h-.09a3.81,3.81,0,0,1-3.13,1.35,5.43,5.43,0,0,1-4-1.74,5.75,5.75,0,0,1-1.71-4.19,5.81,5.81,0,0,1,1.71-4.22,5.42,5.42,0,0,1,4-1.75A4.3,4.3,0,0,1,95.9,11a3.7,3.7,0,0,1,1.3.95h.09V11h2.48V21.65a6.21,6.21,0,0,1-1.59,4.65A5.6,5.6,0,0,1,94.11,27.85Zm.18-7.68a2.91,2.91,0,0,0,2.26-1,3.7,3.7,0,0,0,.91-2.56A3.78,3.78,0,0,0,96.55,14a2.9,2.9,0,0,0-2.26-1,3.09,3.09,0,0,0-2.34,1,3.65,3.65,0,0,0-1,2.59,3.58,3.58,0,0,0,1,2.56A3.1,3.1,0,0,0,94.29,20.17Zm9.89-15.5V22.15h-2.61V4.67Zm7.16,17.84a5.68,5.68,0,0,1-4.21-1.71,5.79,5.79,0,0,1-1.69-4.24,5.86,5.86,0,0,1,1.63-4.28,5.36,5.36,0,0,1,4-1.67,5.05,5.05,0,0,1,2,.39,4.71,4.71,0,0,1,1.53,1,7,7,0,0,1,1,1.21,7.15,7.15,0,0,1,.59,1.17l.27.68-8,3.29a3,3,0,0,0,2.88,1.8,3.41,3.41,0,0,0,2.93-1.65l2,1.35a6.59,6.59,0,0,1-1.92,1.82A5.44,5.44,0,0,1,111.34,22.51ZM108,16.38l5.32-2.21a1.84,1.84,0,0,0-.83-.91,2.71,2.71,0,0,0-1.37-.35,3.09,3.09,0,0,0-2.15.95A3.17,3.17,0,0,0,108,16.38Z"/><path class="cls-5" d="M130.13,22.51a8.24,8.24,0,0,1-8.38-8.43,8.24,8.24,0,0,1,8.38-8.43,7.46,7.46,0,0,1,5.93,2.64l-1.44,1.4a5.44,5.44,0,0,0-4.48-2.05,6.11,6.11,0,0,0-4.45,1.78,6.24,6.24,0,0,0-1.81,4.66,6.24,6.24,0,0,0,1.81,4.66,6.11,6.11,0,0,0,4.45,1.78,6.36,6.36,0,0,0,5-2.34l1.44,1.44a7.86,7.86,0,0,1-2.77,2.11A8.48,8.48,0,0,1,130.13,22.51Z"/><path class="cls-5" d="M140.45,22.15h-2.07V6h2.07Z"/><path class="cls-5" d="M143.83,12.43a5.79,5.79,0,0,1,8.16,0,5.85,5.85,0,0,1,1.6,4.2,5.85,5.85,0,0,1-1.6,4.2,5.79,5.79,0,0,1-8.16,0,5.85,5.85,0,0,1-1.6-4.2A5.85,5.85,0,0,1,143.83,12.43Zm1.54,7.1a3.49,3.49,0,0,0,5.07,0,4,4,0,0,0,1.07-2.9,4,4,0,0,0-1.07-2.9,3.49,3.49,0,0,0-5.07,0,4,4,0,0,0-1.07,2.9A4,4,0,0,0,145.38,19.52Z"/><path class="cls-5" d="M165.06,22.15h-2V20.62H163A3.85,3.85,0,0,1,161.54,22a4.08,4.08,0,0,1-2.05.55,3.89,3.89,0,0,1-3.14-1.26,5,5,0,0,1-1.07-3.38V11.11h2.07v6.42q0,3.09,2.73,3.09a2.54,2.54,0,0,0,2.1-1,3.77,3.77,0,0,0,.81-2.39V11.11h2.07Z"/><path class="cls-5" d="M172.09,22.51a4.86,4.86,0,0,1-3.7-1.69,6,6,0,0,1-1.55-4.19,6,6,0,0,1,1.55-4.19,4.86,4.86,0,0,1,3.7-1.69,4.69,4.69,0,0,1,2.26.54,3.83,3.83,0,0,1,1.5,1.35h.09l-.09-1.53V6h2.07V22.15h-2V20.62h-.09a3.83,3.83,0,0,1-1.5,1.35A4.69,4.69,0,0,1,172.09,22.51Zm.34-1.89a3.3,3.3,0,0,0,2.49-1.08,4.05,4.05,0,0,0,1-2.91,4.05,4.05,0,0,0-1-2.91,3.38,3.38,0,0,0-5,0,4,4,0,0,0-1,2.9,4,4,0,0,0,1,2.9A3.3,3.3,0,0,0,172.43,20.62Z"/></svg>