<svg width="349" height="110" viewBox="0 0 349 110" fill="none" xmlns="http://www.w3.org/2000/svg">
<g clip-path="url(#clip0_415_820)">
<path fill-rule="evenodd" clip-rule="evenodd" d="M78.2375 14C98.1001 30.5434 77.5376 67.2083 84.7938 82.0126C69.8826 60.6161 90.1985 42.2283 78.2375 14Z" fill="#C25700"/>
<path fill-rule="evenodd" clip-rule="evenodd" d="M89.2523 45.843C102.235 54.2788 86.6509 74.0445 94.9475 79.104C103.35 84.2283 102.399 62.9324 114 68.3954C101.921 64.2858 106.932 89.6401 91.9646 86.2659C74.8363 82.4046 96.1376 55.1602 89.2523 45.843Z" fill="#C25700"/>
<path fill-rule="evenodd" clip-rule="evenodd" d="M14 74.7275C38.7271 55.0265 72.4083 86.641 88.3024 88.6165C108.743 91.1567 103.298 67.5233 113.529 68.4038C104.101 69.5407 109.76 94.2572 88.6835 95.021C65.7302 95.8529 42.8299 60.8575 14 74.7275Z" fill="#C25700"/>
<path d="M126.312 81V39.144H151.592V45.416H133.736V57.256H148.968V63.528H133.736V81H126.312ZM155.097 81V49.576H162.457V81H155.097ZM158.745 44.072C157.465 44.072 156.398 43.688 155.545 42.92C154.734 42.152 154.329 41.128 154.329 39.848C154.329 38.568 154.734 37.5653 155.545 36.84C156.398 36.072 157.465 35.688 158.745 35.688C160.068 35.688 161.134 36.072 161.945 36.84C162.756 37.5653 163.161 38.568 163.161 39.848C163.161 41.128 162.756 42.152 161.945 42.92C161.134 43.688 160.068 44.072 158.745 44.072ZM168.647 81V49.576H174.727L175.239 55.144H175.495C176.604 53.096 177.927 51.5387 179.463 50.472C181.042 49.3627 182.684 48.808 184.391 48.808C185.202 48.808 185.884 48.8507 186.439 48.936C186.994 49.0213 187.506 49.192 187.975 49.448L186.503 55.72C185.991 55.592 185.522 55.5067 185.095 55.464C184.668 55.3787 184.114 55.336 183.431 55.336C182.194 55.336 180.892 55.8267 179.527 56.808C178.162 57.7467 176.988 59.4107 176.007 61.8V81H168.647ZM202.201 81.768C199.257 81.768 196.59 81.128 194.201 79.848C191.854 78.5253 189.998 76.648 188.633 74.216C187.268 71.7413 186.585 68.7547 186.585 65.256C186.585 61.8427 187.289 58.92 188.697 56.488C190.105 54.0133 191.918 52.1147 194.137 50.792C196.356 49.4693 198.702 48.808 201.177 48.808C204.036 48.808 206.425 49.448 208.345 50.728C210.265 52.008 211.694 53.7787 212.633 56.04C213.614 58.2587 214.105 60.8187 214.105 63.72C214.105 64.4027 214.062 65.064 213.977 65.704C213.934 66.344 213.849 66.9627 213.721 67.56H192.089V61.928H207.577C207.577 59.6667 207.065 57.896 206.041 56.616C205.017 55.2933 203.438 54.632 201.305 54.632C200.11 54.632 198.937 54.952 197.785 55.592C196.676 56.232 195.737 57.32 194.969 58.856C194.244 60.392 193.881 62.5253 193.881 65.256C193.881 67.7307 194.308 69.7573 195.161 71.336C196.014 72.872 197.145 74.024 198.553 74.792C199.961 75.5173 201.476 75.88 203.097 75.88C204.462 75.88 205.742 75.688 206.937 75.304C208.174 74.92 209.326 74.3867 210.393 73.704L212.953 78.44C211.502 79.464 209.838 80.2747 207.961 80.872C206.126 81.4693 204.206 81.768 202.201 81.768ZM215.188 81V77.032L230.036 55.4H216.852V49.576H239.252V53.48L224.468 75.112H239.764V81H215.188ZM255.099 81.768C252.496 81.768 250.064 81.128 247.803 79.848C245.541 78.5253 243.707 76.648 242.299 74.216C240.891 71.7413 240.187 68.776 240.187 65.32C240.187 61.8213 240.891 58.856 242.299 56.424C243.707 53.9493 245.541 52.072 247.803 50.792C250.064 49.4693 252.496 48.808 255.099 48.808C257.744 48.808 260.197 49.4693 262.459 50.792C264.72 52.072 266.555 53.9493 267.963 56.424C269.371 58.856 270.075 61.8213 270.075 65.32C270.075 68.776 269.371 71.7413 267.963 74.216C266.555 76.648 264.72 78.5253 262.459 79.848C260.197 81.128 257.744 81.768 255.099 81.768ZM255.099 75.752C256.635 75.752 257.957 75.3253 259.067 74.472C260.176 73.6187 261.029 72.4027 261.627 70.824C262.224 69.2453 262.523 67.4107 262.523 65.32C262.523 63.2293 262.224 61.3947 261.627 59.816C261.029 58.2373 260.176 57.0213 259.067 56.168C257.957 55.272 256.635 54.824 255.099 54.824C253.563 54.824 252.24 55.272 251.131 56.168C250.064 57.0213 249.232 58.2373 248.635 59.816C248.037 61.3947 247.739 63.2293 247.739 65.32C247.739 67.4107 248.037 69.2453 248.635 70.824C249.232 72.4027 250.064 73.6187 251.131 74.472C252.24 75.3253 253.563 75.752 255.099 75.752ZM274.16 81V49.576H280.24L280.752 53.8H281.008C282.416 52.4347 283.952 51.2613 285.616 50.28C287.28 49.2987 289.178 48.808 291.312 48.808C294.682 48.808 297.136 49.896 298.672 52.072C300.208 54.248 300.976 57.32 300.976 61.288V81H293.616V62.248C293.616 59.6453 293.232 57.8107 292.464 56.744C291.696 55.6773 290.437 55.144 288.688 55.144C287.322 55.144 286.106 55.4853 285.04 56.168C284.016 56.808 282.842 57.768 281.52 59.048V81H274.16ZM320.276 81.768C317.332 81.768 314.665 81.128 312.276 79.848C309.929 78.5253 308.073 76.648 306.708 74.216C305.343 71.7413 304.66 68.7547 304.66 65.256C304.66 61.8427 305.364 58.92 306.772 56.488C308.18 54.0133 309.993 52.1147 312.212 50.792C314.431 49.4693 316.777 48.808 319.252 48.808C322.111 48.808 324.5 49.448 326.42 50.728C328.34 52.008 329.769 53.7787 330.708 56.04C331.689 58.2587 332.18 60.8187 332.18 63.72C332.18 64.4027 332.137 65.064 332.052 65.704C332.009 66.344 331.924 66.9627 331.796 67.56H310.164V61.928H325.652C325.652 59.6667 325.14 57.896 324.116 56.616C323.092 55.2933 321.513 54.632 319.38 54.632C318.185 54.632 317.012 54.952 315.86 55.592C314.751 56.232 313.812 57.32 313.044 58.856C312.319 60.392 311.956 62.5253 311.956 65.256C311.956 67.7307 312.383 69.7573 313.236 71.336C314.089 72.872 315.22 74.024 316.628 74.792C318.036 75.5173 319.551 75.88 321.172 75.88C322.537 75.88 323.817 75.688 325.012 75.304C326.249 74.92 327.401 74.3867 328.468 73.704L331.028 78.44C329.577 79.464 327.913 80.2747 326.036 80.872C324.201 81.4693 322.281 81.768 320.276 81.768Z" fill="#FCFCFC"/>
</g>
<defs>
<clipPath id="clip0_415_820">
<rect width="349" height="110" fill="white"/>
</clipPath>
</defs>
</svg>
