<svg width="641" height="454" viewBox="0 0 641 454" fill="none" xmlns="http://www.w3.org/2000/svg">
<g clip-path="url(#clip0_1113_782)">
<path fill-rule="evenodd" clip-rule="evenodd" d="M309.036 30C369.652 80.0189 306.901 190.875 329.045 235.636C283.539 170.943 345.538 115.348 309.036 30Z" fill="#C25700"/>
<path fill-rule="evenodd" clip-rule="evenodd" d="M342.651 126.277C382.271 151.782 334.712 211.544 360.031 226.841C385.673 242.335 382.771 177.947 418.175 194.464C381.313 182.039 396.605 258.697 350.928 248.495C298.657 236.821 363.663 154.447 342.651 126.277Z" fill="#C25700"/>
<path fill-rule="evenodd" clip-rule="evenodd" d="M113 213.609C188.461 154.044 291.247 249.63 339.752 255.603C402.132 263.283 385.515 191.828 416.737 194.49C387.965 197.927 405.235 272.657 340.915 274.967C270.867 277.482 200.982 171.674 113 213.609Z" fill="#C25700"/>
<path d="M16.936 439V313.432H92.776V332.248H39.208V367.768H84.904V386.584H39.208V439H16.936ZM103.291 439V344.728H125.371V439H103.291ZM114.235 328.216C110.395 328.216 107.195 327.064 104.635 324.76C102.203 322.456 100.987 319.384 100.987 315.544C100.987 311.704 102.203 308.696 104.635 306.52C107.195 304.216 110.395 303.064 114.235 303.064C118.203 303.064 121.403 304.216 123.835 306.52C126.267 308.696 127.483 311.704 127.483 315.544C127.483 319.384 126.267 322.456 123.835 324.76C121.403 327.064 118.203 328.216 114.235 328.216ZM143.941 439V344.728H162.181L163.717 361.432H164.485C167.813 355.288 171.781 350.616 176.389 347.416C181.125 344.088 186.053 342.424 191.173 342.424C193.605 342.424 195.653 342.552 197.317 342.808C198.981 343.064 200.517 343.576 201.925 344.344L197.509 363.16C195.973 362.776 194.565 362.52 193.285 362.392C192.005 362.136 190.341 362.008 188.293 362.008C184.581 362.008 180.677 363.48 176.581 366.424C172.485 369.24 168.965 374.232 166.021 381.4V439H143.941ZM244.603 441.304C235.771 441.304 227.771 439.384 220.603 435.544C213.563 431.576 207.995 425.944 203.899 418.648C199.803 411.224 197.755 402.264 197.755 391.768C197.755 381.528 199.867 372.76 204.091 365.464C208.315 358.04 213.755 352.344 220.411 348.376C227.067 344.408 234.107 342.424 241.531 342.424C250.107 342.424 257.275 344.344 263.035 348.184C268.795 352.024 273.083 357.336 275.899 364.12C278.843 370.776 280.315 378.456 280.315 387.16C280.315 389.208 280.187 391.192 279.931 393.112C279.803 395.032 279.547 396.888 279.163 398.68H214.267V381.784H260.731C260.731 375 259.195 369.688 256.123 365.848C253.051 361.88 248.315 359.896 241.915 359.896C238.331 359.896 234.811 360.856 231.355 362.776C228.027 364.696 225.211 367.96 222.907 372.568C220.731 377.176 219.643 383.576 219.643 391.768C219.643 399.192 220.923 405.272 223.483 410.008C226.043 414.616 229.435 418.072 233.659 420.376C237.883 422.552 242.427 423.64 247.291 423.64C251.387 423.64 255.227 423.064 258.811 421.912C262.523 420.76 265.979 419.16 269.179 417.112L276.859 431.32C272.507 434.392 267.515 436.824 261.883 438.616C256.379 440.408 250.619 441.304 244.603 441.304ZM283.566 439V427.096L328.11 362.2H288.558V344.728H355.758V356.44L311.406 421.336H357.294V439H283.566ZM403.296 441.304C395.488 441.304 388.192 439.384 381.408 435.544C374.624 431.576 369.12 425.944 364.896 418.648C360.672 411.224 358.56 402.328 358.56 391.96C358.56 381.464 360.672 372.568 364.896 365.272C369.12 357.848 374.624 352.216 381.408 348.376C388.192 344.408 395.488 342.424 403.296 342.424C411.232 342.424 418.592 344.408 425.376 348.376C432.16 352.216 437.664 357.848 441.888 365.272C446.112 372.568 448.224 381.464 448.224 391.96C448.224 402.328 446.112 411.224 441.888 418.648C437.664 425.944 432.16 431.576 425.376 435.544C418.592 439.384 411.232 441.304 403.296 441.304ZM403.296 423.256C407.904 423.256 411.872 421.976 415.2 419.416C418.528 416.856 421.088 413.208 422.88 408.472C424.672 403.736 425.568 398.232 425.568 391.96C425.568 385.688 424.672 380.184 422.88 375.448C421.088 370.712 418.528 367.064 415.2 364.504C411.872 361.816 407.904 360.472 403.296 360.472C398.688 360.472 394.72 361.816 391.392 364.504C388.192 367.064 385.696 370.712 383.904 375.448C382.112 380.184 381.216 385.688 381.216 391.96C381.216 398.232 382.112 403.736 383.904 408.472C385.696 413.208 388.192 416.856 391.392 419.416C394.72 421.976 398.688 423.256 403.296 423.256ZM460.478 439V344.728H478.718L480.254 357.4H481.022C485.246 353.304 489.854 349.784 494.846 346.84C499.838 343.896 505.534 342.424 511.934 342.424C522.046 342.424 529.406 345.688 534.014 352.216C538.622 358.744 540.926 367.96 540.926 379.864V439H518.846V382.744C518.846 374.936 517.694 369.432 515.39 366.232C513.086 363.032 509.31 361.432 504.062 361.432C499.966 361.432 496.318 362.456 493.118 364.504C490.046 366.424 486.526 369.304 482.558 373.144V439H460.478ZM598.828 441.304C589.996 441.304 581.996 439.384 574.828 435.544C567.788 431.576 562.22 425.944 558.124 418.648C554.028 411.224 551.98 402.264 551.98 391.768C551.98 381.528 554.092 372.76 558.316 365.464C562.54 358.04 567.98 352.344 574.636 348.376C581.292 344.408 588.332 342.424 595.756 342.424C604.332 342.424 611.5 344.344 617.26 348.184C623.02 352.024 627.308 357.336 630.124 364.12C633.068 370.776 634.54 378.456 634.54 387.16C634.54 389.208 634.412 391.192 634.156 393.112C634.028 395.032 633.772 396.888 633.388 398.68H568.492V381.784H614.956C614.956 375 613.42 369.688 610.348 365.848C607.276 361.88 602.54 359.896 596.14 359.896C592.556 359.896 589.036 360.856 585.58 362.776C582.252 364.696 579.436 367.96 577.132 372.568C574.956 377.176 573.868 383.576 573.868 391.768C573.868 399.192 575.148 405.272 577.708 410.008C580.268 414.616 583.66 418.072 587.884 420.376C592.108 422.552 596.652 423.64 601.516 423.64C605.612 423.64 609.452 423.064 613.036 421.912C616.748 420.76 620.204 419.16 623.404 417.112L631.084 431.32C626.732 434.392 621.74 436.824 616.108 438.616C610.604 440.408 604.844 441.304 598.828 441.304Z" fill="#FCFCFC"/>
</g>
<defs>
<clipPath id="clip0_1113_782">
<rect width="641" height="454" fill="white"/>
</clipPath>
</defs>
</svg>
