<svg width="332" height="187" viewBox="0 0 332 187" fill="none" xmlns="http://www.w3.org/2000/svg">
<g clip-path="url(#clip0_712_107)">
<path fill-rule="evenodd" clip-rule="evenodd" d="M65.2377 53C85.1003 69.5361 64.5377 106.185 71.794 120.983C56.8827 99.5955 77.1987 81.2158 65.2377 53Z" fill="#EF7A30"/>
<path fill-rule="evenodd" clip-rule="evenodd" d="M76.2521 84.8288C89.2352 93.2609 73.6506 113.018 81.9473 118.075C90.3493 123.197 89.3985 101.911 101 107.371C88.9206 103.263 93.9315 128.607 78.9644 125.234C61.836 121.374 83.1374 94.1419 76.2521 84.8288Z" fill="#7F3900"/>
<path fill-rule="evenodd" clip-rule="evenodd" d="M1 113.701C25.7272 94.0085 59.4085 125.609 75.3027 127.584C95.743 130.123 90.2982 106.5 100.529 107.38C91.1018 108.516 96.7606 133.222 75.6838 133.985C52.7304 134.817 29.83 99.8369 1.00004 113.701H1Z" fill="#331700"/>
<path d="M111.96 134H127.38V127.88H123.78V109.46H135.24V127.88H131.64V134H147V127.88H141.48V103.34H123.78V100.88C123.78 98.24 126.12 97.28 128.88 97.28C131.22 97.28 133.41 97.46 135.24 97.67C135.99 98.54 137.07 99.08 138.3 99.08C140.64 99.08 142.44 97.22 142.44 94.94C142.44 92.66 140.64 90.86 138.3 90.86C136.92 90.86 135.72 91.52 134.97 92.54C132.45 91.82 130.35 91.28 127.38 91.28C122.7 91.28 117.54 92.72 117.54 99.56V103.34H111.96V109.46H117.54V127.88H111.96V134ZM145.033 134H166.993V127.94H158.413V118.04C158.413 112.46 161.353 108.98 168.913 108.98V115.58H175.633V104.24C174.073 103.4 171.673 102.62 168.613 102.62C163.513 102.62 159.463 104.99 157.933 108.26V103.34H145.033V109.4H151.513V127.94H145.033V134ZM192.085 134.72C196.825 134.72 200.485 132.8 203.065 129.98L198.925 125.6C197.005 127.7 194.845 128.6 192.145 128.6C187.885 128.6 185.125 125.81 184.345 121.34H205.165C205.405 119.78 205.405 118.22 205.405 117.14C205.405 107.18 199.465 102.62 192.085 102.62C183.145 102.62 177.445 108.68 177.445 118.64C177.445 128.36 182.965 134.72 192.085 134.72ZM192.085 108.68C195.265 108.68 198.205 110.72 198.625 115.46H184.345C185.065 111.2 187.465 108.68 192.085 108.68ZM209.798 134H234.938V127.82H218.618L234.998 108.44V103.34H210.938V109.52H226.178L209.798 128.78V134ZM253.371 134.72C262.491 134.72 268.071 128.54 268.071 118.7C268.071 108.86 262.491 102.62 253.371 102.62C244.311 102.62 238.671 108.92 238.671 118.7C238.671 128.6 244.311 134.72 253.371 134.72ZM253.371 128.12C248.391 128.12 245.631 124.4 245.631 118.7C245.631 112.94 248.391 109.16 253.371 109.16C258.471 109.16 261.111 113 261.111 118.7C261.111 124.4 258.411 128.12 253.371 128.12ZM270.903 134H277.803V116.6C277.803 110.9 280.923 109.16 284.583 109.16C288.063 109.16 290.943 111.08 290.943 116.72V134H297.843V115.28C297.843 105.86 292.623 102.62 286.503 102.62C282.633 102.62 279.333 104.33 277.803 106.28V103.34H270.903V134ZM315.976 134.72C320.716 134.72 324.376 132.8 326.956 129.98L322.816 125.6C320.896 127.7 318.736 128.6 316.036 128.6C311.776 128.6 309.016 125.81 308.236 121.34H329.056C329.296 119.78 329.296 118.22 329.296 117.14C329.296 107.18 323.356 102.62 315.976 102.62C307.036 102.62 301.336 108.68 301.336 118.64C301.336 128.36 306.856 134.72 315.976 134.72ZM315.976 108.68C319.156 108.68 322.096 110.72 322.516 115.46H308.236C308.956 111.2 311.356 108.68 315.976 108.68Z" fill="#281303"/>
</g>
<defs>
<clipPath id="clip0_712_107">
<rect width="332" height="187" fill="white"/>
</clipPath>
</defs>
</svg>
