<svg width="400" height="110" viewBox="0 0 400 110" fill="none" xmlns="http://www.w3.org/2000/svg">
<g clip-path="url(#clip0_400:46)">
<path fill-rule="evenodd" clip-rule="evenodd" d="M78.2377 14C98.1003 30.5361 77.5377 67.1849 84.794 81.9825C69.8827 60.5955 90.1987 42.2158 78.2377 14Z" fill="#FF7300"/>
<path fill-rule="evenodd" clip-rule="evenodd" d="M89.2521 45.8288C102.235 54.2609 86.6506 74.0179 94.9473 79.0752C103.349 84.1971 102.399 62.9106 114 68.3713C101.921 64.2634 106.932 89.6066 91.9644 86.2339C74.836 82.3743 96.1375 55.1419 89.2521 45.8288Z" fill="#7F3900"/>
<path fill-rule="evenodd" clip-rule="evenodd" d="M14 74.7008C38.7272 55.0085 72.4085 86.6091 88.3027 88.5838C108.743 91.1228 103.298 67.4998 113.529 68.3799C104.102 69.5163 109.761 94.2219 88.6838 94.9854C65.7304 95.8169 42.83 60.8369 14 74.7008H14Z" fill="#331700"/>
<path d="M124.96 84H140.38V77.88H136.78V59.46H148.24V77.88H144.64V84H160V77.88H154.48V53.34H136.78V50.88C136.78 48.24 139.12 47.28 141.88 47.28C144.22 47.28 146.41 47.46 148.24 47.67C148.99 48.54 150.07 49.08 151.3 49.08C153.64 49.08 155.44 47.22 155.44 44.94C155.44 42.66 153.64 40.86 151.3 40.86C149.92 40.86 148.72 41.52 147.97 42.54C145.45 41.82 143.35 41.28 140.38 41.28C135.7 41.28 130.54 42.72 130.54 49.56V53.34H124.96V59.46H130.54V77.88H124.96V84ZM158.033 84H179.993V77.94H171.413V68.04C171.413 62.46 174.353 58.98 181.913 58.98V65.58H188.633V54.24C187.073 53.4 184.673 52.62 181.613 52.62C176.513 52.62 172.463 54.99 170.933 58.26V53.34H158.033V59.4H164.513V77.94H158.033V84ZM205.085 84.72C209.825 84.72 213.485 82.8 216.065 79.98L211.925 75.6C210.005 77.7 207.845 78.6 205.145 78.6C200.885 78.6 198.125 75.81 197.345 71.34H218.165C218.405 69.78 218.405 68.22 218.405 67.14C218.405 57.18 212.465 52.62 205.085 52.62C196.145 52.62 190.445 58.68 190.445 68.64C190.445 78.36 195.965 84.72 205.085 84.72ZM205.085 58.68C208.265 58.68 211.205 60.72 211.625 65.46H197.345C198.065 61.2 200.465 58.68 205.085 58.68ZM222.798 84H247.938V77.82H231.618L247.998 58.44V53.34H223.938V59.52H239.178L222.798 78.78V84ZM266.371 84.72C275.491 84.72 281.071 78.54 281.071 68.7C281.071 58.86 275.491 52.62 266.371 52.62C257.311 52.62 251.671 58.92 251.671 68.7C251.671 78.6 257.311 84.72 266.371 84.72ZM266.371 78.12C261.391 78.12 258.631 74.4 258.631 68.7C258.631 62.94 261.391 59.16 266.371 59.16C271.471 59.16 274.111 63 274.111 68.7C274.111 74.4 271.411 78.12 266.371 78.12ZM283.903 84H290.803V66.6C290.803 60.9 293.923 59.16 297.583 59.16C301.063 59.16 303.943 61.08 303.943 66.72V84H310.843V65.28C310.843 55.86 305.623 52.62 299.503 52.62C295.633 52.62 292.333 54.33 290.803 56.28V53.34H283.903V84ZM328.976 84.72C333.716 84.72 337.376 82.8 339.956 79.98L335.816 75.6C333.896 77.7 331.736 78.6 329.036 78.6C324.776 78.6 322.016 75.81 321.236 71.34H342.056C342.296 69.78 342.296 68.22 342.296 67.14C342.296 57.18 336.356 52.62 328.976 52.62C320.036 52.62 314.336 58.68 314.336 68.64C314.336 78.36 319.856 84.72 328.976 84.72ZM328.976 58.68C332.156 58.68 335.096 60.72 335.516 65.46H321.236C321.956 61.2 324.356 58.68 328.976 58.68Z" fill="#DFDEDD"/>
</g>
<defs>
<clipPath id="clip0_400:46">
<rect width="400" height="110" fill="white"/>
</clipPath>
</defs>
</svg>
