<?xml version="1.0" encoding="UTF-8"?>
<svg width="100pt" height="100pt" version="1.1" viewBox="0 0 100 100" xmlns="http://www.w3.org/2000/svg">
 <g fill-rule="evenodd">
  <path d="m34.305 41.426c-3.8828-0.97266-21.035-6.1484-34.305-11.652-0.32422 0.32422 1.9414 6.7969 10.355 9.707 5.8242 1.6172 18.77 4.5312 24.594 5.8242-4.207-0.32422-18.121-2.2656-33.332-5.5-0.32422 0.32422 2.2656 6.1484 10.355 7.4453 5.1797 0.64844 17.152 1.6172 23.301 1.9414-3.2344 0.32422-16.504 0.97266-26.215 0.32422 0 0.32422 3.8828 4.8555 9.707 4.5312 4.8555 0 16.828-0.97266 21.359-1.293-2.9141 0.64844-17.801 3.5586-25.566 4.207 0 0.32422 3.5586 3.2344 8.0898 2.5898 3.8828-0.64844 15.859-3.5586 19.094-4.5312-2.2656 1.293-11.973 4.207-20.387 6.4727 0 0.32422 3.5586 2.5898 7.4453 1.293 2.9141-0.97266 9.707-3.5586 13.27-4.8555-2.2656 1.293-3.5586 2.2656-11.004 5.5 3.8828 6.7969 9.3867 13.594 19.094 18.121 9.3867-4.5312 15.211-11.328 18.77-18.121-7.4453-3.2344-8.7383-4.207-11.004-5.5 3.5586 1.293 10.355 3.8828 13.27 4.8555 4.207 1.293 7.4453-0.97266 7.4453-1.293-8.0898-2.2656-18.121-5.1797-20.387-6.4727 3.5586 0.97266 15.211 3.8828 19.418 4.5312 4.5312 0.64844 7.7656-2.2656 7.7656-2.5898-7.4453-0.64844-22.652-3.5586-25.242-4.207 4.207 0.32422 16.18 1.293 21.035 1.293 5.8242 0.32422 9.707-4.207 9.707-4.5312-9.707 0.64844-22.977 0-26.215-0.32422 6.1484-0.32422 18.121-1.293 23.301-1.9414 8.0898-1.293 10.68-7.1211 10.68-7.4453-15.211 3.2344-29.449 5.1797-33.656 5.5 5.8242-1.293 19.094-4.207 24.594-5.8242 8.4141-2.9141 10.68-9.3867 10.355-9.707-13.27 5.5-30.098 10.68-34.305 11.652 6.7969-2.9141 22.977-10.355 27.184-13.27 4.8555-3.5586 6.4727-9.707 5.8242-9.707-16.504 10.031-33.98 16.828-38.836 19.742-5.1797 2.9141-1.293 6.1484-1.6172 8.4141-0.97266 3.5586-5.1797 5.8242-8.0898 7.1211-2.9141-1.293-7.4453-3.5586-8.0898-7.1211-0.64844-2.2656 3.2344-5.5-1.9414-8.4141-4.8555-2.9141-22.008-9.707-38.836-19.742-0.64844 0 0.97266 6.1484 5.8242 9.707 4.207 2.9141 20.387 10.355 27.184 13.27z"/>
  <path d="m24.273 26.215h51.781v3.5586c-7.4453 1.9414-16.504 3.2344-25.891 3.2344-9.707 0-18.77-1.293-25.891-3.2344z"/>
 </g>
</svg>
