<?xml version="1.0" ?><!DOCTYPE svg  PUBLIC '-//W3C//DTD SVG 1.1//EN'  'http://www.w3.org/Graphics/SVG/1.1/DTD/svg11.dtd'><svg height="512px" style="enable-background:new 0 0 512 512;" version="1.1" viewBox="0 0 512 512" width="512px" xml:space="preserve" xmlns="http://www.w3.org/2000/svg" xmlns:xlink="http://www.w3.org/1999/xlink"><g id="_x39_4-dislike"><g><path d="M128.543,270.411V68.616c0-7.953,6.442-14.408,14.379-14.408H27.926    c-7.944,0-14.378,6.456-14.378,14.408v201.795c0,7.955,6.434,14.411,14.378,14.413H134.58l-4.139-7.264    C129.176,275.376,128.543,272.922,128.543,270.411z" style="fill:#F54E00;"/><path d="M497.179,192.488l-46.106-104.04c-9.174-20.779-29.813-34.24-52.532-34.24H182.203h-14.375    c-7.937,0-14.379,6.456-14.379,14.408v201.795c0,2.511,0.633,4.965,1.898,7.149l4.139,7.264l51.466,90.317v68.233    c0,7.959,6.442,14.417,14.367,14.417h43.134c31.71,0,57.491-25.864,57.491-57.652v-86.485h115.007    c31.712,0,57.502-25.863,57.501-57.656v-57.656C498.452,196.328,498.021,194.336,497.179,192.488z" style="fill:#F54E00;"/></g></g><g id="Layer_1"/></svg>